%TF.GenerationSoftware,KiCad,Pcbnew,9.0.2+1*%
%TF.CreationDate,2025-07-26T23:55:51+01:00*%
%TF.ProjectId,ICE40HXDevBoardVGA,49434534-3048-4584-9465-76426f617264,rev?*%
%TF.SameCoordinates,Original*%
%TF.FileFunction,Soldermask,Top*%
%TF.FilePolarity,Negative*%
%FSLAX46Y46*%
G04 Gerber Fmt 4.6, Leading zero omitted, Abs format (unit mm)*
G04 Created by KiCad (PCBNEW 9.0.2+1) date 2025-07-26 23:55:51*
%MOMM*%
%LPD*%
G01*
G04 APERTURE LIST*
G04 Aperture macros list*
%AMRoundRect*
0 Rectangle with rounded corners*
0 $1 Rounding radius*
0 $2 $3 $4 $5 $6 $7 $8 $9 X,Y pos of 4 corners*
0 Add a 4 corners polygon primitive as box body*
4,1,4,$2,$3,$4,$5,$6,$7,$8,$9,$2,$3,0*
0 Add four circle primitives for the rounded corners*
1,1,$1+$1,$2,$3*
1,1,$1+$1,$4,$5*
1,1,$1+$1,$6,$7*
1,1,$1+$1,$8,$9*
0 Add four rect primitives between the rounded corners*
20,1,$1+$1,$2,$3,$4,$5,0*
20,1,$1+$1,$4,$5,$6,$7,0*
20,1,$1+$1,$6,$7,$8,$9,0*
20,1,$1+$1,$8,$9,$2,$3,0*%
G04 Aperture macros list end*
%ADD10RoundRect,0.250000X-0.250000X-0.475000X0.250000X-0.475000X0.250000X0.475000X-0.250000X0.475000X0*%
%ADD11RoundRect,0.250000X0.275000X0.700000X-0.275000X0.700000X-0.275000X-0.700000X0.275000X-0.700000X0*%
%ADD12C,1.000000*%
%ADD13R,1.900000X1.900000*%
%ADD14C,1.900000*%
%ADD15C,6.400000*%
%ADD16RoundRect,0.250000X-0.375000X-1.075000X0.375000X-1.075000X0.375000X1.075000X-0.375000X1.075000X0*%
%ADD17RoundRect,0.250000X-0.475000X0.250000X-0.475000X-0.250000X0.475000X-0.250000X0.475000X0.250000X0*%
%ADD18RoundRect,0.250000X0.475000X-0.250000X0.475000X0.250000X-0.475000X0.250000X-0.475000X-0.250000X0*%
%ADD19C,4.000000*%
%ADD20R,1.600000X1.600000*%
%ADD21C,1.600000*%
%ADD22RoundRect,0.250000X-0.262500X-0.450000X0.262500X-0.450000X0.262500X0.450000X-0.262500X0.450000X0*%
%ADD23R,1.700000X1.700000*%
%ADD24O,1.700000X1.700000*%
%ADD25RoundRect,0.075000X-0.662500X-0.075000X0.662500X-0.075000X0.662500X0.075000X-0.662500X0.075000X0*%
%ADD26RoundRect,0.075000X-0.075000X-0.662500X0.075000X-0.662500X0.075000X0.662500X-0.075000X0.662500X0*%
%ADD27RoundRect,0.250000X0.250000X0.475000X-0.250000X0.475000X-0.250000X-0.475000X0.250000X-0.475000X0*%
%ADD28RoundRect,0.100000X-0.637500X-0.100000X0.637500X-0.100000X0.637500X0.100000X-0.637500X0.100000X0*%
%ADD29RoundRect,0.250000X0.450000X-0.262500X0.450000X0.262500X-0.450000X0.262500X-0.450000X-0.262500X0*%
%ADD30RoundRect,0.250000X-0.450000X0.262500X-0.450000X-0.262500X0.450000X-0.262500X0.450000X0.262500X0*%
%ADD31RoundRect,0.250000X-0.700000X0.275000X-0.700000X-0.275000X0.700000X-0.275000X0.700000X0.275000X0*%
G04 APERTURE END LIST*
D10*
%TO.C,C6*%
X103190000Y-128905000D03*
X105090000Y-128905000D03*
%TD*%
D11*
%TO.C,FB4*%
X98095000Y-135255000D03*
X94945000Y-135255000D03*
%TD*%
D12*
%TO.C,J3*%
X111165000Y-122515000D03*
X111165000Y-117515000D03*
D13*
X107165000Y-122265000D03*
D14*
X107165000Y-117765000D03*
X114665000Y-122915000D03*
X114665000Y-117115000D03*
%TD*%
D15*
%TO.C,H4*%
X114300000Y-146050000D03*
%TD*%
D11*
%TO.C,FB1*%
X94285000Y-107950000D03*
X91135000Y-107950000D03*
%TD*%
D16*
%TO.C,D1*%
X85595000Y-76835000D03*
X88395000Y-76835000D03*
%TD*%
D15*
%TO.C,H3*%
X82550000Y-146050000D03*
%TD*%
D11*
%TO.C,FB5*%
X98095000Y-127635000D03*
X94945000Y-127635000D03*
%TD*%
D17*
%TO.C,C9*%
X100965000Y-137560000D03*
X100965000Y-139460000D03*
%TD*%
D18*
%TO.C,C5*%
X100330000Y-131125000D03*
X100330000Y-129225000D03*
%TD*%
D19*
%TO.C,J2*%
X112390000Y-110285000D03*
X112390000Y-85285000D03*
D20*
X110500000Y-93470000D03*
D21*
X110500000Y-95760000D03*
X110500000Y-98050000D03*
X110500000Y-100340000D03*
X110500000Y-102630000D03*
X112400000Y-92325000D03*
X112400000Y-94615000D03*
X112400000Y-96905000D03*
X112400000Y-99195000D03*
X112400000Y-101485000D03*
X114300000Y-93470000D03*
X114300000Y-95760000D03*
X114300000Y-98050000D03*
X114300000Y-100340000D03*
X114300000Y-102630000D03*
%TD*%
D22*
%TO.C,R6*%
X101957500Y-107950000D03*
X103782500Y-107950000D03*
%TD*%
D23*
%TO.C,J1*%
X88265000Y-83820000D03*
D24*
X85725000Y-83820000D03*
X88265000Y-86360000D03*
X85725000Y-86360000D03*
X88265000Y-88900000D03*
X85725000Y-88900000D03*
X88265000Y-91440000D03*
X85725000Y-91440000D03*
X88265000Y-93980000D03*
X85725000Y-93980000D03*
X88265000Y-96520000D03*
X85725000Y-96520000D03*
X88265000Y-99060000D03*
X85725000Y-99060000D03*
X88265000Y-101600000D03*
X85725000Y-101600000D03*
X88265000Y-104140000D03*
X85725000Y-104140000D03*
X88265000Y-106680000D03*
X85725000Y-106680000D03*
X88265000Y-109220000D03*
X85725000Y-109220000D03*
X88265000Y-111760000D03*
X85725000Y-111760000D03*
X88265000Y-114300000D03*
X85725000Y-114300000D03*
X88265000Y-116840000D03*
X85725000Y-116840000D03*
X88265000Y-119380000D03*
X85725000Y-119380000D03*
X88265000Y-121920000D03*
X85725000Y-121920000D03*
X88265000Y-124460000D03*
X85725000Y-124460000D03*
X88265000Y-127000000D03*
X85725000Y-127000000D03*
X88265000Y-129540000D03*
X85725000Y-129540000D03*
X88265000Y-132080000D03*
X85725000Y-132080000D03*
%TD*%
D11*
%TO.C,FB2*%
X98095000Y-131445000D03*
X94945000Y-131445000D03*
%TD*%
D22*
%TO.C,R8*%
X101957500Y-124460000D03*
X103782500Y-124460000D03*
%TD*%
D10*
%TO.C,C14*%
X107000000Y-128905000D03*
X108900000Y-128905000D03*
%TD*%
D22*
%TO.C,R9*%
X101957500Y-116840000D03*
X103782500Y-116840000D03*
%TD*%
D25*
%TO.C,U1*%
X94897500Y-93770000D03*
X94897500Y-94270000D03*
X94897500Y-94770000D03*
X94897500Y-95270000D03*
X94897500Y-95770000D03*
X94897500Y-96270000D03*
X94897500Y-96770000D03*
X94897500Y-97270000D03*
X94897500Y-97770000D03*
X94897500Y-98270000D03*
X94897500Y-98770000D03*
X94897500Y-99270000D03*
D26*
X96310000Y-100682500D03*
X96810000Y-100682500D03*
X97310000Y-100682500D03*
X97810000Y-100682500D03*
X98310000Y-100682500D03*
X98810000Y-100682500D03*
X99310000Y-100682500D03*
X99810000Y-100682500D03*
X100310000Y-100682500D03*
X100810000Y-100682500D03*
X101310000Y-100682500D03*
X101810000Y-100682500D03*
D25*
X103222500Y-99270000D03*
X103222500Y-98770000D03*
X103222500Y-98270000D03*
X103222500Y-97770000D03*
X103222500Y-97270000D03*
X103222500Y-96770000D03*
X103222500Y-96270000D03*
X103222500Y-95770000D03*
X103222500Y-95270000D03*
X103222500Y-94770000D03*
X103222500Y-94270000D03*
X103222500Y-93770000D03*
D26*
X101810000Y-92357500D03*
X101310000Y-92357500D03*
X100810000Y-92357500D03*
X100310000Y-92357500D03*
X99810000Y-92357500D03*
X99310000Y-92357500D03*
X98810000Y-92357500D03*
X98310000Y-92357500D03*
X97810000Y-92357500D03*
X97310000Y-92357500D03*
X96810000Y-92357500D03*
X96310000Y-92357500D03*
%TD*%
D27*
%TO.C,C11*%
X103820000Y-113665000D03*
X101920000Y-113665000D03*
%TD*%
D28*
%TO.C,U2*%
X103182500Y-131060000D03*
X103182500Y-131710000D03*
X103182500Y-132360000D03*
X103182500Y-133010000D03*
X103182500Y-133660000D03*
X103182500Y-134310000D03*
X103182500Y-134960000D03*
X103182500Y-135610000D03*
X103182500Y-136260000D03*
X103182500Y-136910000D03*
X108907500Y-136910000D03*
X108907500Y-136260000D03*
X108907500Y-135610000D03*
X108907500Y-134960000D03*
X108907500Y-134310000D03*
X108907500Y-133660000D03*
X108907500Y-133010000D03*
X108907500Y-132360000D03*
X108907500Y-131710000D03*
X108907500Y-131060000D03*
%TD*%
D15*
%TO.C,H2*%
X114300000Y-69850000D03*
%TD*%
D27*
%TO.C,C10*%
X103820000Y-121285000D03*
X101920000Y-121285000D03*
%TD*%
D17*
%TO.C,C15*%
X111760000Y-129225000D03*
X111760000Y-131125000D03*
%TD*%
D29*
%TO.C,R2*%
X103378000Y-89812500D03*
X103378000Y-87987500D03*
%TD*%
D22*
%TO.C,R7*%
X101957500Y-105410000D03*
X103782500Y-105410000D03*
%TD*%
D30*
%TO.C,R5*%
X100965000Y-87987500D03*
X100965000Y-89812500D03*
%TD*%
D15*
%TO.C,H1*%
X82550000Y-69850000D03*
%TD*%
D31*
%TO.C,FB3*%
X106045000Y-138760000D03*
X106045000Y-141910000D03*
%TD*%
M02*
