%TF.GenerationSoftware,KiCad,Pcbnew,9.0.2+1*%
%TF.CreationDate,2025-07-26T23:55:51+01:00*%
%TF.ProjectId,ICE40HXDevBoardVGA,49434534-3048-4584-9465-76426f617264,rev?*%
%TF.SameCoordinates,Original*%
%TF.FileFunction,Paste,Top*%
%TF.FilePolarity,Positive*%
%FSLAX46Y46*%
G04 Gerber Fmt 4.6, Leading zero omitted, Abs format (unit mm)*
G04 Created by KiCad (PCBNEW 9.0.2+1) date 2025-07-26 23:55:51*
%MOMM*%
%LPD*%
G01*
G04 APERTURE LIST*
G04 Aperture macros list*
%AMRoundRect*
0 Rectangle with rounded corners*
0 $1 Rounding radius*
0 $2 $3 $4 $5 $6 $7 $8 $9 X,Y pos of 4 corners*
0 Add a 4 corners polygon primitive as box body*
4,1,4,$2,$3,$4,$5,$6,$7,$8,$9,$2,$3,0*
0 Add four circle primitives for the rounded corners*
1,1,$1+$1,$2,$3*
1,1,$1+$1,$4,$5*
1,1,$1+$1,$6,$7*
1,1,$1+$1,$8,$9*
0 Add four rect primitives between the rounded corners*
20,1,$1+$1,$2,$3,$4,$5,0*
20,1,$1+$1,$4,$5,$6,$7,0*
20,1,$1+$1,$6,$7,$8,$9,0*
20,1,$1+$1,$8,$9,$2,$3,0*%
G04 Aperture macros list end*
%ADD10RoundRect,0.250000X-0.250000X-0.475000X0.250000X-0.475000X0.250000X0.475000X-0.250000X0.475000X0*%
%ADD11RoundRect,0.250000X0.275000X0.700000X-0.275000X0.700000X-0.275000X-0.700000X0.275000X-0.700000X0*%
%ADD12RoundRect,0.250000X-0.375000X-1.075000X0.375000X-1.075000X0.375000X1.075000X-0.375000X1.075000X0*%
%ADD13RoundRect,0.250000X-0.475000X0.250000X-0.475000X-0.250000X0.475000X-0.250000X0.475000X0.250000X0*%
%ADD14RoundRect,0.250000X0.475000X-0.250000X0.475000X0.250000X-0.475000X0.250000X-0.475000X-0.250000X0*%
%ADD15RoundRect,0.250000X-0.262500X-0.450000X0.262500X-0.450000X0.262500X0.450000X-0.262500X0.450000X0*%
%ADD16RoundRect,0.075000X-0.662500X-0.075000X0.662500X-0.075000X0.662500X0.075000X-0.662500X0.075000X0*%
%ADD17RoundRect,0.075000X-0.075000X-0.662500X0.075000X-0.662500X0.075000X0.662500X-0.075000X0.662500X0*%
%ADD18RoundRect,0.250000X0.250000X0.475000X-0.250000X0.475000X-0.250000X-0.475000X0.250000X-0.475000X0*%
%ADD19RoundRect,0.100000X-0.637500X-0.100000X0.637500X-0.100000X0.637500X0.100000X-0.637500X0.100000X0*%
%ADD20RoundRect,0.250000X0.450000X-0.262500X0.450000X0.262500X-0.450000X0.262500X-0.450000X-0.262500X0*%
%ADD21RoundRect,0.250000X-0.450000X0.262500X-0.450000X-0.262500X0.450000X-0.262500X0.450000X0.262500X0*%
%ADD22RoundRect,0.250000X-0.700000X0.275000X-0.700000X-0.275000X0.700000X-0.275000X0.700000X0.275000X0*%
G04 APERTURE END LIST*
D10*
%TO.C,C6*%
X103190000Y-128905000D03*
X105090000Y-128905000D03*
%TD*%
D11*
%TO.C,FB4*%
X98095000Y-135255000D03*
X94945000Y-135255000D03*
%TD*%
%TO.C,FB1*%
X94285000Y-107950000D03*
X91135000Y-107950000D03*
%TD*%
D12*
%TO.C,D1*%
X85595000Y-76835000D03*
X88395000Y-76835000D03*
%TD*%
D11*
%TO.C,FB5*%
X98095000Y-127635000D03*
X94945000Y-127635000D03*
%TD*%
D13*
%TO.C,C9*%
X100965000Y-137560000D03*
X100965000Y-139460000D03*
%TD*%
D14*
%TO.C,C5*%
X100330000Y-131125000D03*
X100330000Y-129225000D03*
%TD*%
D15*
%TO.C,R6*%
X101957500Y-107950000D03*
X103782500Y-107950000D03*
%TD*%
D11*
%TO.C,FB2*%
X98095000Y-131445000D03*
X94945000Y-131445000D03*
%TD*%
D15*
%TO.C,R8*%
X101957500Y-124460000D03*
X103782500Y-124460000D03*
%TD*%
D10*
%TO.C,C14*%
X107000000Y-128905000D03*
X108900000Y-128905000D03*
%TD*%
D15*
%TO.C,R9*%
X101957500Y-116840000D03*
X103782500Y-116840000D03*
%TD*%
D16*
%TO.C,U1*%
X94897500Y-93770000D03*
X94897500Y-94270000D03*
X94897500Y-94770000D03*
X94897500Y-95270000D03*
X94897500Y-95770000D03*
X94897500Y-96270000D03*
X94897500Y-96770000D03*
X94897500Y-97270000D03*
X94897500Y-97770000D03*
X94897500Y-98270000D03*
X94897500Y-98770000D03*
X94897500Y-99270000D03*
D17*
X96310000Y-100682500D03*
X96810000Y-100682500D03*
X97310000Y-100682500D03*
X97810000Y-100682500D03*
X98310000Y-100682500D03*
X98810000Y-100682500D03*
X99310000Y-100682500D03*
X99810000Y-100682500D03*
X100310000Y-100682500D03*
X100810000Y-100682500D03*
X101310000Y-100682500D03*
X101810000Y-100682500D03*
D16*
X103222500Y-99270000D03*
X103222500Y-98770000D03*
X103222500Y-98270000D03*
X103222500Y-97770000D03*
X103222500Y-97270000D03*
X103222500Y-96770000D03*
X103222500Y-96270000D03*
X103222500Y-95770000D03*
X103222500Y-95270000D03*
X103222500Y-94770000D03*
X103222500Y-94270000D03*
X103222500Y-93770000D03*
D17*
X101810000Y-92357500D03*
X101310000Y-92357500D03*
X100810000Y-92357500D03*
X100310000Y-92357500D03*
X99810000Y-92357500D03*
X99310000Y-92357500D03*
X98810000Y-92357500D03*
X98310000Y-92357500D03*
X97810000Y-92357500D03*
X97310000Y-92357500D03*
X96810000Y-92357500D03*
X96310000Y-92357500D03*
%TD*%
D18*
%TO.C,C11*%
X103820000Y-113665000D03*
X101920000Y-113665000D03*
%TD*%
D19*
%TO.C,U2*%
X103182500Y-131060000D03*
X103182500Y-131710000D03*
X103182500Y-132360000D03*
X103182500Y-133010000D03*
X103182500Y-133660000D03*
X103182500Y-134310000D03*
X103182500Y-134960000D03*
X103182500Y-135610000D03*
X103182500Y-136260000D03*
X103182500Y-136910000D03*
X108907500Y-136910000D03*
X108907500Y-136260000D03*
X108907500Y-135610000D03*
X108907500Y-134960000D03*
X108907500Y-134310000D03*
X108907500Y-133660000D03*
X108907500Y-133010000D03*
X108907500Y-132360000D03*
X108907500Y-131710000D03*
X108907500Y-131060000D03*
%TD*%
D18*
%TO.C,C10*%
X103820000Y-121285000D03*
X101920000Y-121285000D03*
%TD*%
D13*
%TO.C,C15*%
X111760000Y-129225000D03*
X111760000Y-131125000D03*
%TD*%
D20*
%TO.C,R2*%
X103378000Y-89812500D03*
X103378000Y-87987500D03*
%TD*%
D15*
%TO.C,R7*%
X101957500Y-105410000D03*
X103782500Y-105410000D03*
%TD*%
D21*
%TO.C,R5*%
X100965000Y-87987500D03*
X100965000Y-89812500D03*
%TD*%
D22*
%TO.C,FB3*%
X106045000Y-138760000D03*
X106045000Y-141910000D03*
%TD*%
M02*
