%TF.GenerationSoftware,KiCad,Pcbnew,9.0.2+1*%
%TF.CreationDate,2025-07-26T23:55:51+01:00*%
%TF.ProjectId,ICE40HXDevBoardVGA,49434534-3048-4584-9465-76426f617264,rev?*%
%TF.SameCoordinates,Original*%
%TF.FileFunction,Soldermask,Bot*%
%TF.FilePolarity,Negative*%
%FSLAX46Y46*%
G04 Gerber Fmt 4.6, Leading zero omitted, Abs format (unit mm)*
G04 Created by KiCad (PCBNEW 9.0.2+1) date 2025-07-26 23:55:51*
%MOMM*%
%LPD*%
G01*
G04 APERTURE LIST*
G04 Aperture macros list*
%AMRoundRect*
0 Rectangle with rounded corners*
0 $1 Rounding radius*
0 $2 $3 $4 $5 $6 $7 $8 $9 X,Y pos of 4 corners*
0 Add a 4 corners polygon primitive as box body*
4,1,4,$2,$3,$4,$5,$6,$7,$8,$9,$2,$3,0*
0 Add four circle primitives for the rounded corners*
1,1,$1+$1,$2,$3*
1,1,$1+$1,$4,$5*
1,1,$1+$1,$6,$7*
1,1,$1+$1,$8,$9*
0 Add four rect primitives between the rounded corners*
20,1,$1+$1,$2,$3,$4,$5,0*
20,1,$1+$1,$4,$5,$6,$7,0*
20,1,$1+$1,$6,$7,$8,$9,0*
20,1,$1+$1,$8,$9,$2,$3,0*%
G04 Aperture macros list end*
%ADD10C,1.000000*%
%ADD11R,1.900000X1.900000*%
%ADD12C,1.900000*%
%ADD13C,6.400000*%
%ADD14C,4.000000*%
%ADD15R,1.600000X1.600000*%
%ADD16C,1.600000*%
%ADD17R,1.700000X1.700000*%
%ADD18O,1.700000X1.700000*%
%ADD19RoundRect,0.250000X0.250000X0.475000X-0.250000X0.475000X-0.250000X-0.475000X0.250000X-0.475000X0*%
%ADD20RoundRect,0.250000X-0.450000X-0.425000X0.450000X-0.425000X0.450000X0.425000X-0.450000X0.425000X0*%
%ADD21RoundRect,0.250000X-0.450000X0.262500X-0.450000X-0.262500X0.450000X-0.262500X0.450000X0.262500X0*%
%ADD22RoundRect,0.250000X-0.475000X0.250000X-0.475000X-0.250000X0.475000X-0.250000X0.475000X0.250000X0*%
%ADD23RoundRect,0.250000X-0.262500X-0.450000X0.262500X-0.450000X0.262500X0.450000X-0.262500X0.450000X0*%
%ADD24RoundRect,0.250000X0.425000X-0.450000X0.425000X0.450000X-0.425000X0.450000X-0.425000X-0.450000X0*%
%ADD25RoundRect,0.250000X-0.425000X0.450000X-0.425000X-0.450000X0.425000X-0.450000X0.425000X0.450000X0*%
G04 APERTURE END LIST*
D10*
%TO.C,J3*%
X111165000Y-122515000D03*
X111165000Y-117515000D03*
D11*
X107165000Y-122265000D03*
D12*
X107165000Y-117765000D03*
X114665000Y-122915000D03*
X114665000Y-117115000D03*
%TD*%
D13*
%TO.C,H4*%
X114300000Y-146050000D03*
%TD*%
%TO.C,H3*%
X82550000Y-146050000D03*
%TD*%
D14*
%TO.C,J2*%
X112390000Y-110285000D03*
X112390000Y-85285000D03*
D15*
X110500000Y-93470000D03*
D16*
X110500000Y-95760000D03*
X110500000Y-98050000D03*
X110500000Y-100340000D03*
X110500000Y-102630000D03*
X112400000Y-92325000D03*
X112400000Y-94615000D03*
X112400000Y-96905000D03*
X112400000Y-99195000D03*
X112400000Y-101485000D03*
X114300000Y-93470000D03*
X114300000Y-95760000D03*
X114300000Y-98050000D03*
X114300000Y-100340000D03*
X114300000Y-102630000D03*
%TD*%
D17*
%TO.C,J1*%
X88265000Y-83820000D03*
D18*
X85725000Y-83820000D03*
X88265000Y-86360000D03*
X85725000Y-86360000D03*
X88265000Y-88900000D03*
X85725000Y-88900000D03*
X88265000Y-91440000D03*
X85725000Y-91440000D03*
X88265000Y-93980000D03*
X85725000Y-93980000D03*
X88265000Y-96520000D03*
X85725000Y-96520000D03*
X88265000Y-99060000D03*
X85725000Y-99060000D03*
X88265000Y-101600000D03*
X85725000Y-101600000D03*
X88265000Y-104140000D03*
X85725000Y-104140000D03*
X88265000Y-106680000D03*
X85725000Y-106680000D03*
X88265000Y-109220000D03*
X85725000Y-109220000D03*
X88265000Y-111760000D03*
X85725000Y-111760000D03*
X88265000Y-114300000D03*
X85725000Y-114300000D03*
X88265000Y-116840000D03*
X85725000Y-116840000D03*
X88265000Y-119380000D03*
X85725000Y-119380000D03*
X88265000Y-121920000D03*
X85725000Y-121920000D03*
X88265000Y-124460000D03*
X85725000Y-124460000D03*
X88265000Y-127000000D03*
X85725000Y-127000000D03*
X88265000Y-129540000D03*
X85725000Y-129540000D03*
X88265000Y-132080000D03*
X85725000Y-132080000D03*
%TD*%
D13*
%TO.C,H2*%
X114300000Y-69850000D03*
%TD*%
%TO.C,H1*%
X82550000Y-69850000D03*
%TD*%
D19*
%TO.C,C7*%
X103820000Y-133731000D03*
X101920000Y-133731000D03*
%TD*%
D20*
%TO.C,C12*%
X106600000Y-128905000D03*
X109300000Y-128905000D03*
%TD*%
D21*
%TO.C,R4*%
X107315000Y-99417500D03*
X107315000Y-101242500D03*
%TD*%
D22*
%TO.C,C2*%
X98425000Y-94300000D03*
X98425000Y-96200000D03*
%TD*%
D23*
%TO.C,R12*%
X86082500Y-76835000D03*
X87907500Y-76835000D03*
%TD*%
D24*
%TO.C,C4*%
X100330000Y-131525000D03*
X100330000Y-128825000D03*
%TD*%
D21*
%TO.C,R3*%
X107315000Y-95330000D03*
X107315000Y-97155000D03*
%TD*%
D23*
%TO.C,R1*%
X110593500Y-89535000D03*
X112418500Y-89535000D03*
%TD*%
D22*
%TO.C,C3*%
X99060000Y-98745000D03*
X99060000Y-100645000D03*
%TD*%
%TO.C,C1*%
X100965000Y-94300000D03*
X100965000Y-96200000D03*
%TD*%
D25*
%TO.C,C8*%
X100965000Y-137160000D03*
X100965000Y-139860000D03*
%TD*%
D24*
%TO.C,C13*%
X111760000Y-131525000D03*
X111760000Y-128825000D03*
%TD*%
M02*
