%TF.GenerationSoftware,KiCad,Pcbnew,9.0.2+1*%
%TF.CreationDate,2025-07-26T23:55:51+01:00*%
%TF.ProjectId,ICE40HXDevBoardVGA,49434534-3048-4584-9465-76426f617264,rev?*%
%TF.SameCoordinates,Original*%
%TF.FileFunction,Legend,Bot*%
%TF.FilePolarity,Positive*%
%FSLAX46Y46*%
G04 Gerber Fmt 4.6, Leading zero omitted, Abs format (unit mm)*
G04 Created by KiCad (PCBNEW 9.0.2+1) date 2025-07-26 23:55:51*
%MOMM*%
%LPD*%
G01*
G04 APERTURE LIST*
%ADD10C,0.150000*%
%ADD11C,0.120000*%
G04 APERTURE END LIST*
D10*
X103036666Y-132410580D02*
X103084285Y-132458200D01*
X103084285Y-132458200D02*
X103227142Y-132505819D01*
X103227142Y-132505819D02*
X103322380Y-132505819D01*
X103322380Y-132505819D02*
X103465237Y-132458200D01*
X103465237Y-132458200D02*
X103560475Y-132362961D01*
X103560475Y-132362961D02*
X103608094Y-132267723D01*
X103608094Y-132267723D02*
X103655713Y-132077247D01*
X103655713Y-132077247D02*
X103655713Y-131934390D01*
X103655713Y-131934390D02*
X103608094Y-131743914D01*
X103608094Y-131743914D02*
X103560475Y-131648676D01*
X103560475Y-131648676D02*
X103465237Y-131553438D01*
X103465237Y-131553438D02*
X103322380Y-131505819D01*
X103322380Y-131505819D02*
X103227142Y-131505819D01*
X103227142Y-131505819D02*
X103084285Y-131553438D01*
X103084285Y-131553438D02*
X103036666Y-131601057D01*
X102703332Y-131505819D02*
X102036666Y-131505819D01*
X102036666Y-131505819D02*
X102465237Y-132505819D01*
X108592857Y-127613580D02*
X108640476Y-127661200D01*
X108640476Y-127661200D02*
X108783333Y-127708819D01*
X108783333Y-127708819D02*
X108878571Y-127708819D01*
X108878571Y-127708819D02*
X109021428Y-127661200D01*
X109021428Y-127661200D02*
X109116666Y-127565961D01*
X109116666Y-127565961D02*
X109164285Y-127470723D01*
X109164285Y-127470723D02*
X109211904Y-127280247D01*
X109211904Y-127280247D02*
X109211904Y-127137390D01*
X109211904Y-127137390D02*
X109164285Y-126946914D01*
X109164285Y-126946914D02*
X109116666Y-126851676D01*
X109116666Y-126851676D02*
X109021428Y-126756438D01*
X109021428Y-126756438D02*
X108878571Y-126708819D01*
X108878571Y-126708819D02*
X108783333Y-126708819D01*
X108783333Y-126708819D02*
X108640476Y-126756438D01*
X108640476Y-126756438D02*
X108592857Y-126804057D01*
X107640476Y-127708819D02*
X108211904Y-127708819D01*
X107926190Y-127708819D02*
X107926190Y-126708819D01*
X107926190Y-126708819D02*
X108021428Y-126851676D01*
X108021428Y-126851676D02*
X108116666Y-126946914D01*
X108116666Y-126946914D02*
X108211904Y-126994533D01*
X107259523Y-126804057D02*
X107211904Y-126756438D01*
X107211904Y-126756438D02*
X107116666Y-126708819D01*
X107116666Y-126708819D02*
X106878571Y-126708819D01*
X106878571Y-126708819D02*
X106783333Y-126756438D01*
X106783333Y-126756438D02*
X106735714Y-126804057D01*
X106735714Y-126804057D02*
X106688095Y-126899295D01*
X106688095Y-126899295D02*
X106688095Y-126994533D01*
X106688095Y-126994533D02*
X106735714Y-127137390D01*
X106735714Y-127137390D02*
X107307142Y-127708819D01*
X107307142Y-127708819D02*
X106688095Y-127708819D01*
X107354666Y-103324819D02*
X107687999Y-102848628D01*
X107926094Y-103324819D02*
X107926094Y-102324819D01*
X107926094Y-102324819D02*
X107545142Y-102324819D01*
X107545142Y-102324819D02*
X107449904Y-102372438D01*
X107449904Y-102372438D02*
X107402285Y-102420057D01*
X107402285Y-102420057D02*
X107354666Y-102515295D01*
X107354666Y-102515295D02*
X107354666Y-102658152D01*
X107354666Y-102658152D02*
X107402285Y-102753390D01*
X107402285Y-102753390D02*
X107449904Y-102801009D01*
X107449904Y-102801009D02*
X107545142Y-102848628D01*
X107545142Y-102848628D02*
X107926094Y-102848628D01*
X106497523Y-102658152D02*
X106497523Y-103324819D01*
X106735618Y-102277200D02*
X106973713Y-102991485D01*
X106973713Y-102991485D02*
X106354666Y-102991485D01*
X98591666Y-93196580D02*
X98639285Y-93244200D01*
X98639285Y-93244200D02*
X98782142Y-93291819D01*
X98782142Y-93291819D02*
X98877380Y-93291819D01*
X98877380Y-93291819D02*
X99020237Y-93244200D01*
X99020237Y-93244200D02*
X99115475Y-93148961D01*
X99115475Y-93148961D02*
X99163094Y-93053723D01*
X99163094Y-93053723D02*
X99210713Y-92863247D01*
X99210713Y-92863247D02*
X99210713Y-92720390D01*
X99210713Y-92720390D02*
X99163094Y-92529914D01*
X99163094Y-92529914D02*
X99115475Y-92434676D01*
X99115475Y-92434676D02*
X99020237Y-92339438D01*
X99020237Y-92339438D02*
X98877380Y-92291819D01*
X98877380Y-92291819D02*
X98782142Y-92291819D01*
X98782142Y-92291819D02*
X98639285Y-92339438D01*
X98639285Y-92339438D02*
X98591666Y-92387057D01*
X98210713Y-92387057D02*
X98163094Y-92339438D01*
X98163094Y-92339438D02*
X98067856Y-92291819D01*
X98067856Y-92291819D02*
X97829761Y-92291819D01*
X97829761Y-92291819D02*
X97734523Y-92339438D01*
X97734523Y-92339438D02*
X97686904Y-92387057D01*
X97686904Y-92387057D02*
X97639285Y-92482295D01*
X97639285Y-92482295D02*
X97639285Y-92577533D01*
X97639285Y-92577533D02*
X97686904Y-92720390D01*
X97686904Y-92720390D02*
X98258332Y-93291819D01*
X98258332Y-93291819D02*
X97639285Y-93291819D01*
X87637857Y-78939819D02*
X87971190Y-78463628D01*
X88209285Y-78939819D02*
X88209285Y-77939819D01*
X88209285Y-77939819D02*
X87828333Y-77939819D01*
X87828333Y-77939819D02*
X87733095Y-77987438D01*
X87733095Y-77987438D02*
X87685476Y-78035057D01*
X87685476Y-78035057D02*
X87637857Y-78130295D01*
X87637857Y-78130295D02*
X87637857Y-78273152D01*
X87637857Y-78273152D02*
X87685476Y-78368390D01*
X87685476Y-78368390D02*
X87733095Y-78416009D01*
X87733095Y-78416009D02*
X87828333Y-78463628D01*
X87828333Y-78463628D02*
X88209285Y-78463628D01*
X86685476Y-78939819D02*
X87256904Y-78939819D01*
X86971190Y-78939819D02*
X86971190Y-77939819D01*
X86971190Y-77939819D02*
X87066428Y-78082676D01*
X87066428Y-78082676D02*
X87161666Y-78177914D01*
X87161666Y-78177914D02*
X87256904Y-78225533D01*
X86304523Y-78035057D02*
X86256904Y-77987438D01*
X86256904Y-77987438D02*
X86161666Y-77939819D01*
X86161666Y-77939819D02*
X85923571Y-77939819D01*
X85923571Y-77939819D02*
X85828333Y-77987438D01*
X85828333Y-77987438D02*
X85780714Y-78035057D01*
X85780714Y-78035057D02*
X85733095Y-78130295D01*
X85733095Y-78130295D02*
X85733095Y-78225533D01*
X85733095Y-78225533D02*
X85780714Y-78368390D01*
X85780714Y-78368390D02*
X86352142Y-78939819D01*
X86352142Y-78939819D02*
X85733095Y-78939819D01*
X100496666Y-127613580D02*
X100544285Y-127661200D01*
X100544285Y-127661200D02*
X100687142Y-127708819D01*
X100687142Y-127708819D02*
X100782380Y-127708819D01*
X100782380Y-127708819D02*
X100925237Y-127661200D01*
X100925237Y-127661200D02*
X101020475Y-127565961D01*
X101020475Y-127565961D02*
X101068094Y-127470723D01*
X101068094Y-127470723D02*
X101115713Y-127280247D01*
X101115713Y-127280247D02*
X101115713Y-127137390D01*
X101115713Y-127137390D02*
X101068094Y-126946914D01*
X101068094Y-126946914D02*
X101020475Y-126851676D01*
X101020475Y-126851676D02*
X100925237Y-126756438D01*
X100925237Y-126756438D02*
X100782380Y-126708819D01*
X100782380Y-126708819D02*
X100687142Y-126708819D01*
X100687142Y-126708819D02*
X100544285Y-126756438D01*
X100544285Y-126756438D02*
X100496666Y-126804057D01*
X99639523Y-127042152D02*
X99639523Y-127708819D01*
X99877618Y-126661200D02*
X100115713Y-127375485D01*
X100115713Y-127375485D02*
X99496666Y-127375485D01*
X107354666Y-94307819D02*
X107687999Y-93831628D01*
X107926094Y-94307819D02*
X107926094Y-93307819D01*
X107926094Y-93307819D02*
X107545142Y-93307819D01*
X107545142Y-93307819D02*
X107449904Y-93355438D01*
X107449904Y-93355438D02*
X107402285Y-93403057D01*
X107402285Y-93403057D02*
X107354666Y-93498295D01*
X107354666Y-93498295D02*
X107354666Y-93641152D01*
X107354666Y-93641152D02*
X107402285Y-93736390D01*
X107402285Y-93736390D02*
X107449904Y-93784009D01*
X107449904Y-93784009D02*
X107545142Y-93831628D01*
X107545142Y-93831628D02*
X107926094Y-93831628D01*
X107021332Y-93307819D02*
X106402285Y-93307819D01*
X106402285Y-93307819D02*
X106735618Y-93688771D01*
X106735618Y-93688771D02*
X106592761Y-93688771D01*
X106592761Y-93688771D02*
X106497523Y-93736390D01*
X106497523Y-93736390D02*
X106449904Y-93784009D01*
X106449904Y-93784009D02*
X106402285Y-93879247D01*
X106402285Y-93879247D02*
X106402285Y-94117342D01*
X106402285Y-94117342D02*
X106449904Y-94212580D01*
X106449904Y-94212580D02*
X106497523Y-94260200D01*
X106497523Y-94260200D02*
X106592761Y-94307819D01*
X106592761Y-94307819D02*
X106878475Y-94307819D01*
X106878475Y-94307819D02*
X106973713Y-94260200D01*
X106973713Y-94260200D02*
X107021332Y-94212580D01*
X114466666Y-89989819D02*
X114799999Y-89513628D01*
X115038094Y-89989819D02*
X115038094Y-88989819D01*
X115038094Y-88989819D02*
X114657142Y-88989819D01*
X114657142Y-88989819D02*
X114561904Y-89037438D01*
X114561904Y-89037438D02*
X114514285Y-89085057D01*
X114514285Y-89085057D02*
X114466666Y-89180295D01*
X114466666Y-89180295D02*
X114466666Y-89323152D01*
X114466666Y-89323152D02*
X114514285Y-89418390D01*
X114514285Y-89418390D02*
X114561904Y-89466009D01*
X114561904Y-89466009D02*
X114657142Y-89513628D01*
X114657142Y-89513628D02*
X115038094Y-89513628D01*
X113514285Y-89989819D02*
X114085713Y-89989819D01*
X113799999Y-89989819D02*
X113799999Y-88989819D01*
X113799999Y-88989819D02*
X113895237Y-89132676D01*
X113895237Y-89132676D02*
X113990475Y-89227914D01*
X113990475Y-89227914D02*
X114085713Y-89275533D01*
X99353666Y-102594580D02*
X99401285Y-102642200D01*
X99401285Y-102642200D02*
X99544142Y-102689819D01*
X99544142Y-102689819D02*
X99639380Y-102689819D01*
X99639380Y-102689819D02*
X99782237Y-102642200D01*
X99782237Y-102642200D02*
X99877475Y-102546961D01*
X99877475Y-102546961D02*
X99925094Y-102451723D01*
X99925094Y-102451723D02*
X99972713Y-102261247D01*
X99972713Y-102261247D02*
X99972713Y-102118390D01*
X99972713Y-102118390D02*
X99925094Y-101927914D01*
X99925094Y-101927914D02*
X99877475Y-101832676D01*
X99877475Y-101832676D02*
X99782237Y-101737438D01*
X99782237Y-101737438D02*
X99639380Y-101689819D01*
X99639380Y-101689819D02*
X99544142Y-101689819D01*
X99544142Y-101689819D02*
X99401285Y-101737438D01*
X99401285Y-101737438D02*
X99353666Y-101785057D01*
X99020332Y-101689819D02*
X98401285Y-101689819D01*
X98401285Y-101689819D02*
X98734618Y-102070771D01*
X98734618Y-102070771D02*
X98591761Y-102070771D01*
X98591761Y-102070771D02*
X98496523Y-102118390D01*
X98496523Y-102118390D02*
X98448904Y-102166009D01*
X98448904Y-102166009D02*
X98401285Y-102261247D01*
X98401285Y-102261247D02*
X98401285Y-102499342D01*
X98401285Y-102499342D02*
X98448904Y-102594580D01*
X98448904Y-102594580D02*
X98496523Y-102642200D01*
X98496523Y-102642200D02*
X98591761Y-102689819D01*
X98591761Y-102689819D02*
X98877475Y-102689819D01*
X98877475Y-102689819D02*
X98972713Y-102642200D01*
X98972713Y-102642200D02*
X99020332Y-102594580D01*
X101004666Y-93196580D02*
X101052285Y-93244200D01*
X101052285Y-93244200D02*
X101195142Y-93291819D01*
X101195142Y-93291819D02*
X101290380Y-93291819D01*
X101290380Y-93291819D02*
X101433237Y-93244200D01*
X101433237Y-93244200D02*
X101528475Y-93148961D01*
X101528475Y-93148961D02*
X101576094Y-93053723D01*
X101576094Y-93053723D02*
X101623713Y-92863247D01*
X101623713Y-92863247D02*
X101623713Y-92720390D01*
X101623713Y-92720390D02*
X101576094Y-92529914D01*
X101576094Y-92529914D02*
X101528475Y-92434676D01*
X101528475Y-92434676D02*
X101433237Y-92339438D01*
X101433237Y-92339438D02*
X101290380Y-92291819D01*
X101290380Y-92291819D02*
X101195142Y-92291819D01*
X101195142Y-92291819D02*
X101052285Y-92339438D01*
X101052285Y-92339438D02*
X101004666Y-92387057D01*
X100052285Y-93291819D02*
X100623713Y-93291819D01*
X100337999Y-93291819D02*
X100337999Y-92291819D01*
X100337999Y-92291819D02*
X100433237Y-92434676D01*
X100433237Y-92434676D02*
X100528475Y-92529914D01*
X100528475Y-92529914D02*
X100623713Y-92577533D01*
X101131666Y-141710580D02*
X101179285Y-141758200D01*
X101179285Y-141758200D02*
X101322142Y-141805819D01*
X101322142Y-141805819D02*
X101417380Y-141805819D01*
X101417380Y-141805819D02*
X101560237Y-141758200D01*
X101560237Y-141758200D02*
X101655475Y-141662961D01*
X101655475Y-141662961D02*
X101703094Y-141567723D01*
X101703094Y-141567723D02*
X101750713Y-141377247D01*
X101750713Y-141377247D02*
X101750713Y-141234390D01*
X101750713Y-141234390D02*
X101703094Y-141043914D01*
X101703094Y-141043914D02*
X101655475Y-140948676D01*
X101655475Y-140948676D02*
X101560237Y-140853438D01*
X101560237Y-140853438D02*
X101417380Y-140805819D01*
X101417380Y-140805819D02*
X101322142Y-140805819D01*
X101322142Y-140805819D02*
X101179285Y-140853438D01*
X101179285Y-140853438D02*
X101131666Y-140901057D01*
X100560237Y-141234390D02*
X100655475Y-141186771D01*
X100655475Y-141186771D02*
X100703094Y-141139152D01*
X100703094Y-141139152D02*
X100750713Y-141043914D01*
X100750713Y-141043914D02*
X100750713Y-140996295D01*
X100750713Y-140996295D02*
X100703094Y-140901057D01*
X100703094Y-140901057D02*
X100655475Y-140853438D01*
X100655475Y-140853438D02*
X100560237Y-140805819D01*
X100560237Y-140805819D02*
X100369761Y-140805819D01*
X100369761Y-140805819D02*
X100274523Y-140853438D01*
X100274523Y-140853438D02*
X100226904Y-140901057D01*
X100226904Y-140901057D02*
X100179285Y-140996295D01*
X100179285Y-140996295D02*
X100179285Y-141043914D01*
X100179285Y-141043914D02*
X100226904Y-141139152D01*
X100226904Y-141139152D02*
X100274523Y-141186771D01*
X100274523Y-141186771D02*
X100369761Y-141234390D01*
X100369761Y-141234390D02*
X100560237Y-141234390D01*
X100560237Y-141234390D02*
X100655475Y-141282009D01*
X100655475Y-141282009D02*
X100703094Y-141329628D01*
X100703094Y-141329628D02*
X100750713Y-141424866D01*
X100750713Y-141424866D02*
X100750713Y-141615342D01*
X100750713Y-141615342D02*
X100703094Y-141710580D01*
X100703094Y-141710580D02*
X100655475Y-141758200D01*
X100655475Y-141758200D02*
X100560237Y-141805819D01*
X100560237Y-141805819D02*
X100369761Y-141805819D01*
X100369761Y-141805819D02*
X100274523Y-141758200D01*
X100274523Y-141758200D02*
X100226904Y-141710580D01*
X100226904Y-141710580D02*
X100179285Y-141615342D01*
X100179285Y-141615342D02*
X100179285Y-141424866D01*
X100179285Y-141424866D02*
X100226904Y-141329628D01*
X100226904Y-141329628D02*
X100274523Y-141282009D01*
X100274523Y-141282009D02*
X100369761Y-141234390D01*
X109989857Y-130534580D02*
X110037476Y-130582200D01*
X110037476Y-130582200D02*
X110180333Y-130629819D01*
X110180333Y-130629819D02*
X110275571Y-130629819D01*
X110275571Y-130629819D02*
X110418428Y-130582200D01*
X110418428Y-130582200D02*
X110513666Y-130486961D01*
X110513666Y-130486961D02*
X110561285Y-130391723D01*
X110561285Y-130391723D02*
X110608904Y-130201247D01*
X110608904Y-130201247D02*
X110608904Y-130058390D01*
X110608904Y-130058390D02*
X110561285Y-129867914D01*
X110561285Y-129867914D02*
X110513666Y-129772676D01*
X110513666Y-129772676D02*
X110418428Y-129677438D01*
X110418428Y-129677438D02*
X110275571Y-129629819D01*
X110275571Y-129629819D02*
X110180333Y-129629819D01*
X110180333Y-129629819D02*
X110037476Y-129677438D01*
X110037476Y-129677438D02*
X109989857Y-129725057D01*
X109037476Y-130629819D02*
X109608904Y-130629819D01*
X109323190Y-130629819D02*
X109323190Y-129629819D01*
X109323190Y-129629819D02*
X109418428Y-129772676D01*
X109418428Y-129772676D02*
X109513666Y-129867914D01*
X109513666Y-129867914D02*
X109608904Y-129915533D01*
X108704142Y-129629819D02*
X108085095Y-129629819D01*
X108085095Y-129629819D02*
X108418428Y-130010771D01*
X108418428Y-130010771D02*
X108275571Y-130010771D01*
X108275571Y-130010771D02*
X108180333Y-130058390D01*
X108180333Y-130058390D02*
X108132714Y-130106009D01*
X108132714Y-130106009D02*
X108085095Y-130201247D01*
X108085095Y-130201247D02*
X108085095Y-130439342D01*
X108085095Y-130439342D02*
X108132714Y-130534580D01*
X108132714Y-130534580D02*
X108180333Y-130582200D01*
X108180333Y-130582200D02*
X108275571Y-130629819D01*
X108275571Y-130629819D02*
X108561285Y-130629819D01*
X108561285Y-130629819D02*
X108656523Y-130582200D01*
X108656523Y-130582200D02*
X108704142Y-130534580D01*
D11*
%TO.C,C7*%
X102608748Y-132996000D02*
X103131252Y-132996000D01*
X102608748Y-134466000D02*
X103131252Y-134466000D01*
%TO.C,C12*%
X105640000Y-127970000D02*
X105640000Y-129840000D01*
X105640000Y-129840000D02*
X109550000Y-129840000D01*
X109550000Y-127970000D02*
X105640000Y-127970000D01*
%TO.C,R4*%
X106580000Y-100557064D02*
X106580000Y-100102936D01*
X108050000Y-100557064D02*
X108050000Y-100102936D01*
%TO.C,C2*%
X97690000Y-95511252D02*
X97690000Y-94988748D01*
X99160000Y-95511252D02*
X99160000Y-94988748D01*
%TO.C,R12*%
X87222064Y-76100000D02*
X86767936Y-76100000D01*
X87222064Y-77570000D02*
X86767936Y-77570000D01*
%TO.C,C4*%
X99395000Y-128575000D02*
X99395000Y-132485000D01*
X99395000Y-132485000D02*
X101265000Y-132485000D01*
X101265000Y-132485000D02*
X101265000Y-128575000D01*
%TO.C,R3*%
X106580000Y-96469564D02*
X106580000Y-96015436D01*
X108050000Y-96469564D02*
X108050000Y-96015436D01*
%TO.C,R1*%
X111733064Y-88800000D02*
X111278936Y-88800000D01*
X111733064Y-90270000D02*
X111278936Y-90270000D01*
%TO.C,C3*%
X98325000Y-99956252D02*
X98325000Y-99433748D01*
X99795000Y-99956252D02*
X99795000Y-99433748D01*
%TO.C,C1*%
X100230000Y-95511252D02*
X100230000Y-94988748D01*
X101700000Y-95511252D02*
X101700000Y-94988748D01*
%TO.C,C8*%
X100030000Y-136200000D02*
X100030000Y-140110000D01*
X101900000Y-136200000D02*
X100030000Y-136200000D01*
X101900000Y-140110000D02*
X101900000Y-136200000D01*
%TO.C,C13*%
X110825000Y-128575000D02*
X110825000Y-132485000D01*
X110825000Y-132485000D02*
X112695000Y-132485000D01*
X112695000Y-132485000D02*
X112695000Y-128575000D01*
%TD*%
M02*
