%TF.GenerationSoftware,KiCad,Pcbnew,9.0.2+1*%
%TF.CreationDate,2025-07-26T23:55:51+01:00*%
%TF.ProjectId,ICE40HXDevBoardVGA,49434534-3048-4584-9465-76426f617264,rev?*%
%TF.SameCoordinates,Original*%
%TF.FileFunction,Legend,Top*%
%TF.FilePolarity,Positive*%
%FSLAX46Y46*%
G04 Gerber Fmt 4.6, Leading zero omitted, Abs format (unit mm)*
G04 Created by KiCad (PCBNEW 9.0.2+1) date 2025-07-26 23:55:51*
%MOMM*%
%LPD*%
G01*
G04 APERTURE LIST*
%ADD10C,0.177800*%
%ADD11C,0.190500*%
%ADD12C,0.150000*%
%ADD13C,0.120000*%
G04 APERTURE END LIST*
D10*
X91212258Y-67762450D02*
X91139687Y-67720116D01*
X91139687Y-67720116D02*
X90994544Y-67720116D01*
X90994544Y-67720116D02*
X90921973Y-67762450D01*
X90921973Y-67762450D02*
X90849401Y-67847116D01*
X90849401Y-67847116D02*
X90813115Y-67931783D01*
X90813115Y-67931783D02*
X90813115Y-68101116D01*
X90813115Y-68101116D02*
X90849401Y-68185783D01*
X90849401Y-68185783D02*
X90921973Y-68270450D01*
X90921973Y-68270450D02*
X90994544Y-68312783D01*
X90994544Y-68312783D02*
X91139687Y-68312783D01*
X91139687Y-68312783D02*
X91212258Y-68270450D01*
X91067115Y-67423783D02*
X90885687Y-67466116D01*
X90885687Y-67466116D02*
X90704258Y-67593116D01*
X90704258Y-67593116D02*
X90595401Y-67804783D01*
X90595401Y-67804783D02*
X90559115Y-68016450D01*
X90559115Y-68016450D02*
X90595401Y-68228116D01*
X90595401Y-68228116D02*
X90704258Y-68439783D01*
X90704258Y-68439783D02*
X90885687Y-68566783D01*
X90885687Y-68566783D02*
X91067115Y-68609116D01*
X91067115Y-68609116D02*
X91248544Y-68566783D01*
X91248544Y-68566783D02*
X91429973Y-68439783D01*
X91429973Y-68439783D02*
X91538830Y-68228116D01*
X91538830Y-68228116D02*
X91575115Y-68016450D01*
X91575115Y-68016450D02*
X91538830Y-67804783D01*
X91538830Y-67804783D02*
X91429973Y-67593116D01*
X91429973Y-67593116D02*
X91248544Y-67466116D01*
X91248544Y-67466116D02*
X91067115Y-67423783D01*
X92445972Y-67635450D02*
X92482258Y-67593116D01*
X92482258Y-67593116D02*
X92554830Y-67550783D01*
X92554830Y-67550783D02*
X92736258Y-67550783D01*
X92736258Y-67550783D02*
X92808830Y-67593116D01*
X92808830Y-67593116D02*
X92845115Y-67635450D01*
X92845115Y-67635450D02*
X92881401Y-67720116D01*
X92881401Y-67720116D02*
X92881401Y-67804783D01*
X92881401Y-67804783D02*
X92845115Y-67931783D01*
X92845115Y-67931783D02*
X92409687Y-68439783D01*
X92409687Y-68439783D02*
X92881401Y-68439783D01*
X93353115Y-67550783D02*
X93425686Y-67550783D01*
X93425686Y-67550783D02*
X93498258Y-67593116D01*
X93498258Y-67593116D02*
X93534544Y-67635450D01*
X93534544Y-67635450D02*
X93570829Y-67720116D01*
X93570829Y-67720116D02*
X93607115Y-67889450D01*
X93607115Y-67889450D02*
X93607115Y-68101116D01*
X93607115Y-68101116D02*
X93570829Y-68270450D01*
X93570829Y-68270450D02*
X93534544Y-68355116D01*
X93534544Y-68355116D02*
X93498258Y-68397450D01*
X93498258Y-68397450D02*
X93425686Y-68439783D01*
X93425686Y-68439783D02*
X93353115Y-68439783D01*
X93353115Y-68439783D02*
X93280544Y-68397450D01*
X93280544Y-68397450D02*
X93244258Y-68355116D01*
X93244258Y-68355116D02*
X93207972Y-68270450D01*
X93207972Y-68270450D02*
X93171686Y-68101116D01*
X93171686Y-68101116D02*
X93171686Y-67889450D01*
X93171686Y-67889450D02*
X93207972Y-67720116D01*
X93207972Y-67720116D02*
X93244258Y-67635450D01*
X93244258Y-67635450D02*
X93280544Y-67593116D01*
X93280544Y-67593116D02*
X93353115Y-67550783D01*
X93897400Y-67635450D02*
X93933686Y-67593116D01*
X93933686Y-67593116D02*
X94006258Y-67550783D01*
X94006258Y-67550783D02*
X94187686Y-67550783D01*
X94187686Y-67550783D02*
X94260258Y-67593116D01*
X94260258Y-67593116D02*
X94296543Y-67635450D01*
X94296543Y-67635450D02*
X94332829Y-67720116D01*
X94332829Y-67720116D02*
X94332829Y-67804783D01*
X94332829Y-67804783D02*
X94296543Y-67931783D01*
X94296543Y-67931783D02*
X93861115Y-68439783D01*
X93861115Y-68439783D02*
X94332829Y-68439783D01*
X95022257Y-67550783D02*
X94659400Y-67550783D01*
X94659400Y-67550783D02*
X94623114Y-67974116D01*
X94623114Y-67974116D02*
X94659400Y-67931783D01*
X94659400Y-67931783D02*
X94731972Y-67889450D01*
X94731972Y-67889450D02*
X94913400Y-67889450D01*
X94913400Y-67889450D02*
X94985972Y-67931783D01*
X94985972Y-67931783D02*
X95022257Y-67974116D01*
X95022257Y-67974116D02*
X95058543Y-68058783D01*
X95058543Y-68058783D02*
X95058543Y-68270450D01*
X95058543Y-68270450D02*
X95022257Y-68355116D01*
X95022257Y-68355116D02*
X94985972Y-68397450D01*
X94985972Y-68397450D02*
X94913400Y-68439783D01*
X94913400Y-68439783D02*
X94731972Y-68439783D01*
X94731972Y-68439783D02*
X94659400Y-68397450D01*
X94659400Y-68397450D02*
X94623114Y-68355116D01*
X95385114Y-68101116D02*
X95965686Y-68101116D01*
X96473686Y-67550783D02*
X96546257Y-67550783D01*
X96546257Y-67550783D02*
X96618829Y-67593116D01*
X96618829Y-67593116D02*
X96655115Y-67635450D01*
X96655115Y-67635450D02*
X96691400Y-67720116D01*
X96691400Y-67720116D02*
X96727686Y-67889450D01*
X96727686Y-67889450D02*
X96727686Y-68101116D01*
X96727686Y-68101116D02*
X96691400Y-68270450D01*
X96691400Y-68270450D02*
X96655115Y-68355116D01*
X96655115Y-68355116D02*
X96618829Y-68397450D01*
X96618829Y-68397450D02*
X96546257Y-68439783D01*
X96546257Y-68439783D02*
X96473686Y-68439783D01*
X96473686Y-68439783D02*
X96401115Y-68397450D01*
X96401115Y-68397450D02*
X96364829Y-68355116D01*
X96364829Y-68355116D02*
X96328543Y-68270450D01*
X96328543Y-68270450D02*
X96292257Y-68101116D01*
X96292257Y-68101116D02*
X96292257Y-67889450D01*
X96292257Y-67889450D02*
X96328543Y-67720116D01*
X96328543Y-67720116D02*
X96364829Y-67635450D01*
X96364829Y-67635450D02*
X96401115Y-67593116D01*
X96401115Y-67593116D02*
X96473686Y-67550783D01*
X97017971Y-67635450D02*
X97054257Y-67593116D01*
X97054257Y-67593116D02*
X97126829Y-67550783D01*
X97126829Y-67550783D02*
X97308257Y-67550783D01*
X97308257Y-67550783D02*
X97380829Y-67593116D01*
X97380829Y-67593116D02*
X97417114Y-67635450D01*
X97417114Y-67635450D02*
X97453400Y-67720116D01*
X97453400Y-67720116D02*
X97453400Y-67804783D01*
X97453400Y-67804783D02*
X97417114Y-67931783D01*
X97417114Y-67931783D02*
X96981686Y-68439783D01*
X96981686Y-68439783D02*
X97453400Y-68439783D01*
X97779971Y-68101116D02*
X98360543Y-68101116D01*
X98687114Y-67635450D02*
X98723400Y-67593116D01*
X98723400Y-67593116D02*
X98795972Y-67550783D01*
X98795972Y-67550783D02*
X98977400Y-67550783D01*
X98977400Y-67550783D02*
X99049972Y-67593116D01*
X99049972Y-67593116D02*
X99086257Y-67635450D01*
X99086257Y-67635450D02*
X99122543Y-67720116D01*
X99122543Y-67720116D02*
X99122543Y-67804783D01*
X99122543Y-67804783D02*
X99086257Y-67931783D01*
X99086257Y-67931783D02*
X98650829Y-68439783D01*
X98650829Y-68439783D02*
X99122543Y-68439783D01*
X99848257Y-68439783D02*
X99412828Y-68439783D01*
X99630543Y-68439783D02*
X99630543Y-67550783D01*
X99630543Y-67550783D02*
X99557971Y-67677783D01*
X99557971Y-67677783D02*
X99485400Y-67762450D01*
X99485400Y-67762450D02*
X99412828Y-67804783D01*
X90958258Y-69871023D02*
X90595401Y-69871023D01*
X90595401Y-69871023D02*
X90595401Y-68982023D01*
X91538830Y-69871023D02*
X91538830Y-69405356D01*
X91538830Y-69405356D02*
X91502544Y-69320690D01*
X91502544Y-69320690D02*
X91429972Y-69278356D01*
X91429972Y-69278356D02*
X91284830Y-69278356D01*
X91284830Y-69278356D02*
X91212258Y-69320690D01*
X91538830Y-69828690D02*
X91466258Y-69871023D01*
X91466258Y-69871023D02*
X91284830Y-69871023D01*
X91284830Y-69871023D02*
X91212258Y-69828690D01*
X91212258Y-69828690D02*
X91175972Y-69744023D01*
X91175972Y-69744023D02*
X91175972Y-69659356D01*
X91175972Y-69659356D02*
X91212258Y-69574690D01*
X91212258Y-69574690D02*
X91284830Y-69532356D01*
X91284830Y-69532356D02*
X91466258Y-69532356D01*
X91466258Y-69532356D02*
X91538830Y-69490023D01*
X91829116Y-69278356D02*
X91974259Y-69871023D01*
X91974259Y-69871023D02*
X92119401Y-69447690D01*
X92119401Y-69447690D02*
X92264544Y-69871023D01*
X92264544Y-69871023D02*
X92409687Y-69278356D01*
X92699973Y-69871023D02*
X92699973Y-69278356D01*
X92699973Y-69447690D02*
X92736259Y-69363023D01*
X92736259Y-69363023D02*
X92772545Y-69320690D01*
X92772545Y-69320690D02*
X92845116Y-69278356D01*
X92845116Y-69278356D02*
X92917687Y-69278356D01*
X93461973Y-69828690D02*
X93389401Y-69871023D01*
X93389401Y-69871023D02*
X93244259Y-69871023D01*
X93244259Y-69871023D02*
X93171687Y-69828690D01*
X93171687Y-69828690D02*
X93135401Y-69744023D01*
X93135401Y-69744023D02*
X93135401Y-69405356D01*
X93135401Y-69405356D02*
X93171687Y-69320690D01*
X93171687Y-69320690D02*
X93244259Y-69278356D01*
X93244259Y-69278356D02*
X93389401Y-69278356D01*
X93389401Y-69278356D02*
X93461973Y-69320690D01*
X93461973Y-69320690D02*
X93498259Y-69405356D01*
X93498259Y-69405356D02*
X93498259Y-69490023D01*
X93498259Y-69490023D02*
X93135401Y-69574690D01*
X93824830Y-69278356D02*
X93824830Y-69871023D01*
X93824830Y-69363023D02*
X93861116Y-69320690D01*
X93861116Y-69320690D02*
X93933687Y-69278356D01*
X93933687Y-69278356D02*
X94042544Y-69278356D01*
X94042544Y-69278356D02*
X94115116Y-69320690D01*
X94115116Y-69320690D02*
X94151402Y-69405356D01*
X94151402Y-69405356D02*
X94151402Y-69871023D01*
X94840831Y-69828690D02*
X94768259Y-69871023D01*
X94768259Y-69871023D02*
X94623116Y-69871023D01*
X94623116Y-69871023D02*
X94550545Y-69828690D01*
X94550545Y-69828690D02*
X94514259Y-69786356D01*
X94514259Y-69786356D02*
X94477973Y-69701690D01*
X94477973Y-69701690D02*
X94477973Y-69447690D01*
X94477973Y-69447690D02*
X94514259Y-69363023D01*
X94514259Y-69363023D02*
X94550545Y-69320690D01*
X94550545Y-69320690D02*
X94623116Y-69278356D01*
X94623116Y-69278356D02*
X94768259Y-69278356D01*
X94768259Y-69278356D02*
X94840831Y-69320690D01*
X95457688Y-69828690D02*
X95385116Y-69871023D01*
X95385116Y-69871023D02*
X95239974Y-69871023D01*
X95239974Y-69871023D02*
X95167402Y-69828690D01*
X95167402Y-69828690D02*
X95131116Y-69744023D01*
X95131116Y-69744023D02*
X95131116Y-69405356D01*
X95131116Y-69405356D02*
X95167402Y-69320690D01*
X95167402Y-69320690D02*
X95239974Y-69278356D01*
X95239974Y-69278356D02*
X95385116Y-69278356D01*
X95385116Y-69278356D02*
X95457688Y-69320690D01*
X95457688Y-69320690D02*
X95493974Y-69405356D01*
X95493974Y-69405356D02*
X95493974Y-69490023D01*
X95493974Y-69490023D02*
X95131116Y-69574690D01*
X96401116Y-69871023D02*
X96401116Y-68982023D01*
X96401116Y-68982023D02*
X96655116Y-69617023D01*
X96655116Y-69617023D02*
X96909116Y-68982023D01*
X96909116Y-68982023D02*
X96909116Y-69871023D01*
X97598545Y-69871023D02*
X97598545Y-69405356D01*
X97598545Y-69405356D02*
X97562259Y-69320690D01*
X97562259Y-69320690D02*
X97489687Y-69278356D01*
X97489687Y-69278356D02*
X97344545Y-69278356D01*
X97344545Y-69278356D02*
X97271973Y-69320690D01*
X97598545Y-69828690D02*
X97525973Y-69871023D01*
X97525973Y-69871023D02*
X97344545Y-69871023D01*
X97344545Y-69871023D02*
X97271973Y-69828690D01*
X97271973Y-69828690D02*
X97235687Y-69744023D01*
X97235687Y-69744023D02*
X97235687Y-69659356D01*
X97235687Y-69659356D02*
X97271973Y-69574690D01*
X97271973Y-69574690D02*
X97344545Y-69532356D01*
X97344545Y-69532356D02*
X97525973Y-69532356D01*
X97525973Y-69532356D02*
X97598545Y-69490023D01*
X97961402Y-69278356D02*
X97961402Y-69871023D01*
X97961402Y-69363023D02*
X97997688Y-69320690D01*
X97997688Y-69320690D02*
X98070259Y-69278356D01*
X98070259Y-69278356D02*
X98179116Y-69278356D01*
X98179116Y-69278356D02*
X98251688Y-69320690D01*
X98251688Y-69320690D02*
X98287974Y-69405356D01*
X98287974Y-69405356D02*
X98287974Y-69871023D01*
X98650831Y-69278356D02*
X98650831Y-69871023D01*
X98650831Y-69363023D02*
X98687117Y-69320690D01*
X98687117Y-69320690D02*
X98759688Y-69278356D01*
X98759688Y-69278356D02*
X98868545Y-69278356D01*
X98868545Y-69278356D02*
X98941117Y-69320690D01*
X98941117Y-69320690D02*
X98977403Y-69405356D01*
X98977403Y-69405356D02*
X98977403Y-69871023D01*
X99340260Y-69871023D02*
X99340260Y-69278356D01*
X99340260Y-68982023D02*
X99303974Y-69024356D01*
X99303974Y-69024356D02*
X99340260Y-69066690D01*
X99340260Y-69066690D02*
X99376546Y-69024356D01*
X99376546Y-69024356D02*
X99340260Y-68982023D01*
X99340260Y-68982023D02*
X99340260Y-69066690D01*
X99703117Y-69278356D02*
X99703117Y-69871023D01*
X99703117Y-69363023D02*
X99739403Y-69320690D01*
X99739403Y-69320690D02*
X99811974Y-69278356D01*
X99811974Y-69278356D02*
X99920831Y-69278356D01*
X99920831Y-69278356D02*
X99993403Y-69320690D01*
X99993403Y-69320690D02*
X100029689Y-69405356D01*
X100029689Y-69405356D02*
X100029689Y-69871023D01*
X100719118Y-69278356D02*
X100719118Y-69998023D01*
X100719118Y-69998023D02*
X100682832Y-70082690D01*
X100682832Y-70082690D02*
X100646546Y-70125023D01*
X100646546Y-70125023D02*
X100573975Y-70167356D01*
X100573975Y-70167356D02*
X100465118Y-70167356D01*
X100465118Y-70167356D02*
X100392546Y-70125023D01*
X100719118Y-69828690D02*
X100646546Y-69871023D01*
X100646546Y-69871023D02*
X100501403Y-69871023D01*
X100501403Y-69871023D02*
X100428832Y-69828690D01*
X100428832Y-69828690D02*
X100392546Y-69786356D01*
X100392546Y-69786356D02*
X100356260Y-69701690D01*
X100356260Y-69701690D02*
X100356260Y-69447690D01*
X100356260Y-69447690D02*
X100392546Y-69363023D01*
X100392546Y-69363023D02*
X100428832Y-69320690D01*
X100428832Y-69320690D02*
X100501403Y-69278356D01*
X100501403Y-69278356D02*
X100646546Y-69278356D01*
X100646546Y-69278356D02*
X100719118Y-69320690D01*
X90522830Y-70709596D02*
X90667973Y-71302263D01*
X90667973Y-71302263D02*
X90813115Y-70878930D01*
X90813115Y-70878930D02*
X90958258Y-71302263D01*
X90958258Y-71302263D02*
X91103401Y-70709596D01*
X91321116Y-70709596D02*
X91466259Y-71302263D01*
X91466259Y-71302263D02*
X91611401Y-70878930D01*
X91611401Y-70878930D02*
X91756544Y-71302263D01*
X91756544Y-71302263D02*
X91901687Y-70709596D01*
X92119402Y-70709596D02*
X92264545Y-71302263D01*
X92264545Y-71302263D02*
X92409687Y-70878930D01*
X92409687Y-70878930D02*
X92554830Y-71302263D01*
X92554830Y-71302263D02*
X92699973Y-70709596D01*
X92990259Y-71217596D02*
X93026545Y-71259930D01*
X93026545Y-71259930D02*
X92990259Y-71302263D01*
X92990259Y-71302263D02*
X92953973Y-71259930D01*
X92953973Y-71259930D02*
X92990259Y-71217596D01*
X92990259Y-71217596D02*
X92990259Y-71302263D01*
X93679688Y-71302263D02*
X93679688Y-70836596D01*
X93679688Y-70836596D02*
X93643402Y-70751930D01*
X93643402Y-70751930D02*
X93570830Y-70709596D01*
X93570830Y-70709596D02*
X93425688Y-70709596D01*
X93425688Y-70709596D02*
X93353116Y-70751930D01*
X93679688Y-71259930D02*
X93607116Y-71302263D01*
X93607116Y-71302263D02*
X93425688Y-71302263D01*
X93425688Y-71302263D02*
X93353116Y-71259930D01*
X93353116Y-71259930D02*
X93316830Y-71175263D01*
X93316830Y-71175263D02*
X93316830Y-71090596D01*
X93316830Y-71090596D02*
X93353116Y-71005930D01*
X93353116Y-71005930D02*
X93425688Y-70963596D01*
X93425688Y-70963596D02*
X93607116Y-70963596D01*
X93607116Y-70963596D02*
X93679688Y-70921263D01*
X94006259Y-71259930D02*
X94078831Y-71302263D01*
X94078831Y-71302263D02*
X94223974Y-71302263D01*
X94223974Y-71302263D02*
X94296545Y-71259930D01*
X94296545Y-71259930D02*
X94332831Y-71175263D01*
X94332831Y-71175263D02*
X94332831Y-71132930D01*
X94332831Y-71132930D02*
X94296545Y-71048263D01*
X94296545Y-71048263D02*
X94223974Y-71005930D01*
X94223974Y-71005930D02*
X94115117Y-71005930D01*
X94115117Y-71005930D02*
X94042545Y-70963596D01*
X94042545Y-70963596D02*
X94006259Y-70878930D01*
X94006259Y-70878930D02*
X94006259Y-70836596D01*
X94006259Y-70836596D02*
X94042545Y-70751930D01*
X94042545Y-70751930D02*
X94115117Y-70709596D01*
X94115117Y-70709596D02*
X94223974Y-70709596D01*
X94223974Y-70709596D02*
X94296545Y-70751930D01*
X94768259Y-71302263D02*
X94695688Y-71259930D01*
X94695688Y-71259930D02*
X94659402Y-71175263D01*
X94659402Y-71175263D02*
X94659402Y-70413263D01*
X95385117Y-71302263D02*
X95385117Y-70836596D01*
X95385117Y-70836596D02*
X95348831Y-70751930D01*
X95348831Y-70751930D02*
X95276259Y-70709596D01*
X95276259Y-70709596D02*
X95131117Y-70709596D01*
X95131117Y-70709596D02*
X95058545Y-70751930D01*
X95385117Y-71259930D02*
X95312545Y-71302263D01*
X95312545Y-71302263D02*
X95131117Y-71302263D01*
X95131117Y-71302263D02*
X95058545Y-71259930D01*
X95058545Y-71259930D02*
X95022259Y-71175263D01*
X95022259Y-71175263D02*
X95022259Y-71090596D01*
X95022259Y-71090596D02*
X95058545Y-71005930D01*
X95058545Y-71005930D02*
X95131117Y-70963596D01*
X95131117Y-70963596D02*
X95312545Y-70963596D01*
X95312545Y-70963596D02*
X95385117Y-70921263D01*
X95747974Y-71302263D02*
X95747974Y-70413263D01*
X95820546Y-70963596D02*
X96038260Y-71302263D01*
X96038260Y-70709596D02*
X95747974Y-71048263D01*
X96364831Y-71217596D02*
X96401117Y-71259930D01*
X96401117Y-71259930D02*
X96364831Y-71302263D01*
X96364831Y-71302263D02*
X96328545Y-71259930D01*
X96328545Y-71259930D02*
X96364831Y-71217596D01*
X96364831Y-71217596D02*
X96364831Y-71302263D01*
X96727688Y-70709596D02*
X96727688Y-71302263D01*
X96727688Y-70794263D02*
X96763974Y-70751930D01*
X96763974Y-70751930D02*
X96836545Y-70709596D01*
X96836545Y-70709596D02*
X96945402Y-70709596D01*
X96945402Y-70709596D02*
X97017974Y-70751930D01*
X97017974Y-70751930D02*
X97054260Y-70836596D01*
X97054260Y-70836596D02*
X97054260Y-71302263D01*
X97707403Y-71259930D02*
X97634831Y-71302263D01*
X97634831Y-71302263D02*
X97489689Y-71302263D01*
X97489689Y-71302263D02*
X97417117Y-71259930D01*
X97417117Y-71259930D02*
X97380831Y-71175263D01*
X97380831Y-71175263D02*
X97380831Y-70836596D01*
X97380831Y-70836596D02*
X97417117Y-70751930D01*
X97417117Y-70751930D02*
X97489689Y-70709596D01*
X97489689Y-70709596D02*
X97634831Y-70709596D01*
X97634831Y-70709596D02*
X97707403Y-70751930D01*
X97707403Y-70751930D02*
X97743689Y-70836596D01*
X97743689Y-70836596D02*
X97743689Y-70921263D01*
X97743689Y-70921263D02*
X97380831Y-71005930D01*
X97961403Y-70709596D02*
X98251689Y-70709596D01*
X98070260Y-70413263D02*
X98070260Y-71175263D01*
X98070260Y-71175263D02*
X98106546Y-71259930D01*
X98106546Y-71259930D02*
X98179117Y-71302263D01*
X98179117Y-71302263D02*
X98251689Y-71302263D01*
D11*
X90791232Y-66602924D02*
X90537232Y-66602924D01*
X90470708Y-67135114D02*
X90597708Y-66119114D01*
X90597708Y-66119114D02*
X90960566Y-66119114D01*
X91123851Y-67135114D02*
X91250851Y-66119114D01*
X91250851Y-66119114D02*
X91541137Y-66119114D01*
X91541137Y-66119114D02*
X91607661Y-66167495D01*
X91607661Y-66167495D02*
X91637899Y-66215876D01*
X91637899Y-66215876D02*
X91662090Y-66312638D01*
X91662090Y-66312638D02*
X91643947Y-66457781D01*
X91643947Y-66457781D02*
X91595566Y-66554543D01*
X91595566Y-66554543D02*
X91553232Y-66602924D01*
X91553232Y-66602924D02*
X91474613Y-66651305D01*
X91474613Y-66651305D02*
X91184328Y-66651305D01*
X92405947Y-66167495D02*
X92339423Y-66119114D01*
X92339423Y-66119114D02*
X92230566Y-66119114D01*
X92230566Y-66119114D02*
X92115661Y-66167495D01*
X92115661Y-66167495D02*
X92030994Y-66264257D01*
X92030994Y-66264257D02*
X91982613Y-66361019D01*
X91982613Y-66361019D02*
X91922137Y-66554543D01*
X91922137Y-66554543D02*
X91903994Y-66699686D01*
X91903994Y-66699686D02*
X91916090Y-66893210D01*
X91916090Y-66893210D02*
X91940280Y-66989972D01*
X91940280Y-66989972D02*
X92000756Y-67086734D01*
X92000756Y-67086734D02*
X92103566Y-67135114D01*
X92103566Y-67135114D02*
X92176137Y-67135114D01*
X92176137Y-67135114D02*
X92291042Y-67086734D01*
X92291042Y-67086734D02*
X92333375Y-67038353D01*
X92333375Y-67038353D02*
X92375709Y-66699686D01*
X92375709Y-66699686D02*
X92230566Y-66699686D01*
X92647851Y-66844829D02*
X93010709Y-66844829D01*
X92538994Y-67135114D02*
X92919994Y-66119114D01*
X92919994Y-66119114D02*
X93046994Y-67135114D01*
X93899708Y-66119114D02*
X94026708Y-67135114D01*
X94026708Y-67135114D02*
X94407708Y-66119114D01*
X95054804Y-66167495D02*
X94988280Y-66119114D01*
X94988280Y-66119114D02*
X94879423Y-66119114D01*
X94879423Y-66119114D02*
X94764518Y-66167495D01*
X94764518Y-66167495D02*
X94679851Y-66264257D01*
X94679851Y-66264257D02*
X94631470Y-66361019D01*
X94631470Y-66361019D02*
X94570994Y-66554543D01*
X94570994Y-66554543D02*
X94552851Y-66699686D01*
X94552851Y-66699686D02*
X94564947Y-66893210D01*
X94564947Y-66893210D02*
X94589137Y-66989972D01*
X94589137Y-66989972D02*
X94649613Y-67086734D01*
X94649613Y-67086734D02*
X94752423Y-67135114D01*
X94752423Y-67135114D02*
X94824994Y-67135114D01*
X94824994Y-67135114D02*
X94939899Y-67086734D01*
X94939899Y-67086734D02*
X94982232Y-67038353D01*
X94982232Y-67038353D02*
X95024566Y-66699686D01*
X95024566Y-66699686D02*
X94879423Y-66699686D01*
X95296708Y-66844829D02*
X95659566Y-66844829D01*
X95187851Y-67135114D02*
X95568851Y-66119114D01*
X95568851Y-66119114D02*
X95695851Y-67135114D01*
X97147280Y-67135114D02*
X97110994Y-67135114D01*
X97110994Y-67135114D02*
X97044470Y-67086734D01*
X97044470Y-67086734D02*
X96953756Y-66941591D01*
X96953756Y-66941591D02*
X96808613Y-66651305D01*
X96808613Y-66651305D02*
X96754184Y-66506162D01*
X96754184Y-66506162D02*
X96736042Y-66361019D01*
X96736042Y-66361019D02*
X96748137Y-66264257D01*
X96748137Y-66264257D02*
X96796518Y-66167495D01*
X96796518Y-66167495D02*
X96875137Y-66119114D01*
X96875137Y-66119114D02*
X96911422Y-66119114D01*
X96911422Y-66119114D02*
X96977946Y-66167495D01*
X96977946Y-66167495D02*
X97002137Y-66264257D01*
X97002137Y-66264257D02*
X96996089Y-66312638D01*
X96996089Y-66312638D02*
X96947708Y-66409400D01*
X96947708Y-66409400D02*
X96905375Y-66457781D01*
X96905375Y-66457781D02*
X96663470Y-66651305D01*
X96663470Y-66651305D02*
X96621137Y-66699686D01*
X96621137Y-66699686D02*
X96572756Y-66796448D01*
X96572756Y-66796448D02*
X96554613Y-66941591D01*
X96554613Y-66941591D02*
X96578803Y-67038353D01*
X96578803Y-67038353D02*
X96609042Y-67086734D01*
X96609042Y-67086734D02*
X96675565Y-67135114D01*
X96675565Y-67135114D02*
X96784422Y-67135114D01*
X96784422Y-67135114D02*
X96863042Y-67086734D01*
X96863042Y-67086734D02*
X96905375Y-67038353D01*
X96905375Y-67038353D02*
X97038422Y-66844829D01*
X97038422Y-66844829D02*
X97092851Y-66699686D01*
X97092851Y-66699686D02*
X97104946Y-66602924D01*
X98054422Y-67135114D02*
X98181422Y-66119114D01*
X98495899Y-66215876D02*
X98538232Y-66167495D01*
X98538232Y-66167495D02*
X98616851Y-66119114D01*
X98616851Y-66119114D02*
X98798279Y-66119114D01*
X98798279Y-66119114D02*
X98864803Y-66167495D01*
X98864803Y-66167495D02*
X98895041Y-66215876D01*
X98895041Y-66215876D02*
X98919232Y-66312638D01*
X98919232Y-66312638D02*
X98907137Y-66409400D01*
X98907137Y-66409400D02*
X98852708Y-66554543D01*
X98852708Y-66554543D02*
X98344708Y-67135114D01*
X98344708Y-67135114D02*
X98816422Y-67135114D01*
X99112755Y-67086734D02*
X99215565Y-67135114D01*
X99215565Y-67135114D02*
X99396993Y-67135114D01*
X99396993Y-67135114D02*
X99475613Y-67086734D01*
X99475613Y-67086734D02*
X99517946Y-67038353D01*
X99517946Y-67038353D02*
X99566327Y-66941591D01*
X99566327Y-66941591D02*
X99578422Y-66844829D01*
X99578422Y-66844829D02*
X99554232Y-66748067D01*
X99554232Y-66748067D02*
X99523993Y-66699686D01*
X99523993Y-66699686D02*
X99457470Y-66651305D01*
X99457470Y-66651305D02*
X99318374Y-66602924D01*
X99318374Y-66602924D02*
X99251851Y-66554543D01*
X99251851Y-66554543D02*
X99221613Y-66506162D01*
X99221613Y-66506162D02*
X99197422Y-66409400D01*
X99197422Y-66409400D02*
X99209517Y-66312638D01*
X99209517Y-66312638D02*
X99257898Y-66215876D01*
X99257898Y-66215876D02*
X99300232Y-66167495D01*
X99300232Y-66167495D02*
X99378851Y-66119114D01*
X99378851Y-66119114D02*
X99560279Y-66119114D01*
X99560279Y-66119114D02*
X99663089Y-66167495D01*
X100515802Y-66602924D02*
X100769802Y-66602924D01*
X100812136Y-67135114D02*
X100449278Y-67135114D01*
X100449278Y-67135114D02*
X100576278Y-66119114D01*
X100576278Y-66119114D02*
X100939136Y-66119114D01*
X101066136Y-67135114D02*
X101549946Y-66457781D01*
X101150803Y-66457781D02*
X101465279Y-67135114D01*
X101840231Y-66457781D02*
X101713231Y-67473781D01*
X101834184Y-66506162D02*
X101912803Y-66457781D01*
X101912803Y-66457781D02*
X102057945Y-66457781D01*
X102057945Y-66457781D02*
X102124469Y-66506162D01*
X102124469Y-66506162D02*
X102154707Y-66554543D01*
X102154707Y-66554543D02*
X102178898Y-66651305D01*
X102178898Y-66651305D02*
X102142612Y-66941591D01*
X102142612Y-66941591D02*
X102094231Y-67038353D01*
X102094231Y-67038353D02*
X102051898Y-67086734D01*
X102051898Y-67086734D02*
X101973279Y-67135114D01*
X101973279Y-67135114D02*
X101828136Y-67135114D01*
X101828136Y-67135114D02*
X101761612Y-67086734D01*
X102771565Y-67135114D02*
X102838089Y-66602924D01*
X102838089Y-66602924D02*
X102813898Y-66506162D01*
X102813898Y-66506162D02*
X102747374Y-66457781D01*
X102747374Y-66457781D02*
X102602232Y-66457781D01*
X102602232Y-66457781D02*
X102523613Y-66506162D01*
X102777613Y-67086734D02*
X102698993Y-67135114D01*
X102698993Y-67135114D02*
X102517565Y-67135114D01*
X102517565Y-67135114D02*
X102451041Y-67086734D01*
X102451041Y-67086734D02*
X102426851Y-66989972D01*
X102426851Y-66989972D02*
X102438946Y-66893210D01*
X102438946Y-66893210D02*
X102487327Y-66796448D01*
X102487327Y-66796448D02*
X102565946Y-66748067D01*
X102565946Y-66748067D02*
X102747374Y-66748067D01*
X102747374Y-66748067D02*
X102825993Y-66699686D01*
X103219089Y-66457781D02*
X103134422Y-67135114D01*
X103206994Y-66554543D02*
X103249327Y-66506162D01*
X103249327Y-66506162D02*
X103327946Y-66457781D01*
X103327946Y-66457781D02*
X103436803Y-66457781D01*
X103436803Y-66457781D02*
X103503327Y-66506162D01*
X103503327Y-66506162D02*
X103527518Y-66602924D01*
X103527518Y-66602924D02*
X103460994Y-67135114D01*
X103793613Y-67086734D02*
X103860137Y-67135114D01*
X103860137Y-67135114D02*
X104005280Y-67135114D01*
X104005280Y-67135114D02*
X104083899Y-67086734D01*
X104083899Y-67086734D02*
X104132280Y-66989972D01*
X104132280Y-66989972D02*
X104138328Y-66941591D01*
X104138328Y-66941591D02*
X104114137Y-66844829D01*
X104114137Y-66844829D02*
X104047613Y-66796448D01*
X104047613Y-66796448D02*
X103938756Y-66796448D01*
X103938756Y-66796448D02*
X103872232Y-66748067D01*
X103872232Y-66748067D02*
X103848042Y-66651305D01*
X103848042Y-66651305D02*
X103854090Y-66602924D01*
X103854090Y-66602924D02*
X103902471Y-66506162D01*
X103902471Y-66506162D02*
X103981090Y-66457781D01*
X103981090Y-66457781D02*
X104089947Y-66457781D01*
X104089947Y-66457781D02*
X104156471Y-66506162D01*
X104440708Y-67135114D02*
X104525375Y-66457781D01*
X104567708Y-66119114D02*
X104525375Y-66167495D01*
X104525375Y-66167495D02*
X104555613Y-66215876D01*
X104555613Y-66215876D02*
X104597947Y-66167495D01*
X104597947Y-66167495D02*
X104567708Y-66119114D01*
X104567708Y-66119114D02*
X104555613Y-66215876D01*
X104912423Y-67135114D02*
X104845899Y-67086734D01*
X104845899Y-67086734D02*
X104815661Y-67038353D01*
X104815661Y-67038353D02*
X104791470Y-66941591D01*
X104791470Y-66941591D02*
X104827756Y-66651305D01*
X104827756Y-66651305D02*
X104876137Y-66554543D01*
X104876137Y-66554543D02*
X104918470Y-66506162D01*
X104918470Y-66506162D02*
X104997089Y-66457781D01*
X104997089Y-66457781D02*
X105105946Y-66457781D01*
X105105946Y-66457781D02*
X105172470Y-66506162D01*
X105172470Y-66506162D02*
X105202708Y-66554543D01*
X105202708Y-66554543D02*
X105226899Y-66651305D01*
X105226899Y-66651305D02*
X105190613Y-66941591D01*
X105190613Y-66941591D02*
X105142232Y-67038353D01*
X105142232Y-67038353D02*
X105099899Y-67086734D01*
X105099899Y-67086734D02*
X105021280Y-67135114D01*
X105021280Y-67135114D02*
X104912423Y-67135114D01*
X105577661Y-66457781D02*
X105492994Y-67135114D01*
X105565566Y-66554543D02*
X105607899Y-66506162D01*
X105607899Y-66506162D02*
X105686518Y-66457781D01*
X105686518Y-66457781D02*
X105795375Y-66457781D01*
X105795375Y-66457781D02*
X105861899Y-66506162D01*
X105861899Y-66506162D02*
X105886090Y-66602924D01*
X105886090Y-66602924D02*
X105819566Y-67135114D01*
X107083518Y-66602924D02*
X107186328Y-66651305D01*
X107186328Y-66651305D02*
X107216566Y-66699686D01*
X107216566Y-66699686D02*
X107240756Y-66796448D01*
X107240756Y-66796448D02*
X107222614Y-66941591D01*
X107222614Y-66941591D02*
X107174233Y-67038353D01*
X107174233Y-67038353D02*
X107131899Y-67086734D01*
X107131899Y-67086734D02*
X107053280Y-67135114D01*
X107053280Y-67135114D02*
X106762994Y-67135114D01*
X106762994Y-67135114D02*
X106889994Y-66119114D01*
X106889994Y-66119114D02*
X107143994Y-66119114D01*
X107143994Y-66119114D02*
X107210518Y-66167495D01*
X107210518Y-66167495D02*
X107240756Y-66215876D01*
X107240756Y-66215876D02*
X107264947Y-66312638D01*
X107264947Y-66312638D02*
X107252852Y-66409400D01*
X107252852Y-66409400D02*
X107204471Y-66506162D01*
X107204471Y-66506162D02*
X107162137Y-66554543D01*
X107162137Y-66554543D02*
X107083518Y-66602924D01*
X107083518Y-66602924D02*
X106829518Y-66602924D01*
X107633852Y-67135114D02*
X107567328Y-67086734D01*
X107567328Y-67086734D02*
X107537090Y-67038353D01*
X107537090Y-67038353D02*
X107512899Y-66941591D01*
X107512899Y-66941591D02*
X107549185Y-66651305D01*
X107549185Y-66651305D02*
X107597566Y-66554543D01*
X107597566Y-66554543D02*
X107639899Y-66506162D01*
X107639899Y-66506162D02*
X107718518Y-66457781D01*
X107718518Y-66457781D02*
X107827375Y-66457781D01*
X107827375Y-66457781D02*
X107893899Y-66506162D01*
X107893899Y-66506162D02*
X107924137Y-66554543D01*
X107924137Y-66554543D02*
X107948328Y-66651305D01*
X107948328Y-66651305D02*
X107912042Y-66941591D01*
X107912042Y-66941591D02*
X107863661Y-67038353D01*
X107863661Y-67038353D02*
X107821328Y-67086734D01*
X107821328Y-67086734D02*
X107742709Y-67135114D01*
X107742709Y-67135114D02*
X107633852Y-67135114D01*
X108540995Y-67135114D02*
X108607519Y-66602924D01*
X108607519Y-66602924D02*
X108583328Y-66506162D01*
X108583328Y-66506162D02*
X108516804Y-66457781D01*
X108516804Y-66457781D02*
X108371662Y-66457781D01*
X108371662Y-66457781D02*
X108293043Y-66506162D01*
X108547043Y-67086734D02*
X108468423Y-67135114D01*
X108468423Y-67135114D02*
X108286995Y-67135114D01*
X108286995Y-67135114D02*
X108220471Y-67086734D01*
X108220471Y-67086734D02*
X108196281Y-66989972D01*
X108196281Y-66989972D02*
X108208376Y-66893210D01*
X108208376Y-66893210D02*
X108256757Y-66796448D01*
X108256757Y-66796448D02*
X108335376Y-66748067D01*
X108335376Y-66748067D02*
X108516804Y-66748067D01*
X108516804Y-66748067D02*
X108595423Y-66699686D01*
X108903852Y-67135114D02*
X108988519Y-66457781D01*
X108964329Y-66651305D02*
X109012710Y-66554543D01*
X109012710Y-66554543D02*
X109055043Y-66506162D01*
X109055043Y-66506162D02*
X109133662Y-66457781D01*
X109133662Y-66457781D02*
X109206233Y-66457781D01*
X109702138Y-67135114D02*
X109829138Y-66119114D01*
X109708186Y-67086734D02*
X109629566Y-67135114D01*
X109629566Y-67135114D02*
X109484424Y-67135114D01*
X109484424Y-67135114D02*
X109417900Y-67086734D01*
X109417900Y-67086734D02*
X109387662Y-67038353D01*
X109387662Y-67038353D02*
X109363471Y-66941591D01*
X109363471Y-66941591D02*
X109399757Y-66651305D01*
X109399757Y-66651305D02*
X109448138Y-66554543D01*
X109448138Y-66554543D02*
X109490471Y-66506162D01*
X109490471Y-66506162D02*
X109569090Y-66457781D01*
X109569090Y-66457781D02*
X109714233Y-66457781D01*
X109714233Y-66457781D02*
X109780757Y-66506162D01*
D12*
X103973333Y-127584580D02*
X103925714Y-127632200D01*
X103925714Y-127632200D02*
X103782857Y-127679819D01*
X103782857Y-127679819D02*
X103687619Y-127679819D01*
X103687619Y-127679819D02*
X103544762Y-127632200D01*
X103544762Y-127632200D02*
X103449524Y-127536961D01*
X103449524Y-127536961D02*
X103401905Y-127441723D01*
X103401905Y-127441723D02*
X103354286Y-127251247D01*
X103354286Y-127251247D02*
X103354286Y-127108390D01*
X103354286Y-127108390D02*
X103401905Y-126917914D01*
X103401905Y-126917914D02*
X103449524Y-126822676D01*
X103449524Y-126822676D02*
X103544762Y-126727438D01*
X103544762Y-126727438D02*
X103687619Y-126679819D01*
X103687619Y-126679819D02*
X103782857Y-126679819D01*
X103782857Y-126679819D02*
X103925714Y-126727438D01*
X103925714Y-126727438D02*
X103973333Y-126775057D01*
X104830476Y-126679819D02*
X104640000Y-126679819D01*
X104640000Y-126679819D02*
X104544762Y-126727438D01*
X104544762Y-126727438D02*
X104497143Y-126775057D01*
X104497143Y-126775057D02*
X104401905Y-126917914D01*
X104401905Y-126917914D02*
X104354286Y-127108390D01*
X104354286Y-127108390D02*
X104354286Y-127489342D01*
X104354286Y-127489342D02*
X104401905Y-127584580D01*
X104401905Y-127584580D02*
X104449524Y-127632200D01*
X104449524Y-127632200D02*
X104544762Y-127679819D01*
X104544762Y-127679819D02*
X104735238Y-127679819D01*
X104735238Y-127679819D02*
X104830476Y-127632200D01*
X104830476Y-127632200D02*
X104878095Y-127584580D01*
X104878095Y-127584580D02*
X104925714Y-127489342D01*
X104925714Y-127489342D02*
X104925714Y-127251247D01*
X104925714Y-127251247D02*
X104878095Y-127156009D01*
X104878095Y-127156009D02*
X104830476Y-127108390D01*
X104830476Y-127108390D02*
X104735238Y-127060771D01*
X104735238Y-127060771D02*
X104544762Y-127060771D01*
X104544762Y-127060771D02*
X104449524Y-127108390D01*
X104449524Y-127108390D02*
X104401905Y-127156009D01*
X104401905Y-127156009D02*
X104354286Y-127251247D01*
X91876666Y-135186009D02*
X91543333Y-135186009D01*
X91543333Y-135709819D02*
X91543333Y-134709819D01*
X91543333Y-134709819D02*
X92019523Y-134709819D01*
X92733809Y-135186009D02*
X92876666Y-135233628D01*
X92876666Y-135233628D02*
X92924285Y-135281247D01*
X92924285Y-135281247D02*
X92971904Y-135376485D01*
X92971904Y-135376485D02*
X92971904Y-135519342D01*
X92971904Y-135519342D02*
X92924285Y-135614580D01*
X92924285Y-135614580D02*
X92876666Y-135662200D01*
X92876666Y-135662200D02*
X92781428Y-135709819D01*
X92781428Y-135709819D02*
X92400476Y-135709819D01*
X92400476Y-135709819D02*
X92400476Y-134709819D01*
X92400476Y-134709819D02*
X92733809Y-134709819D01*
X92733809Y-134709819D02*
X92829047Y-134757438D01*
X92829047Y-134757438D02*
X92876666Y-134805057D01*
X92876666Y-134805057D02*
X92924285Y-134900295D01*
X92924285Y-134900295D02*
X92924285Y-134995533D01*
X92924285Y-134995533D02*
X92876666Y-135090771D01*
X92876666Y-135090771D02*
X92829047Y-135138390D01*
X92829047Y-135138390D02*
X92733809Y-135186009D01*
X92733809Y-135186009D02*
X92400476Y-135186009D01*
X93829047Y-135043152D02*
X93829047Y-135709819D01*
X93590952Y-134662200D02*
X93352857Y-135376485D01*
X93352857Y-135376485D02*
X93971904Y-135376485D01*
X113331666Y-123969819D02*
X113331666Y-124684104D01*
X113331666Y-124684104D02*
X113284047Y-124826961D01*
X113284047Y-124826961D02*
X113188809Y-124922200D01*
X113188809Y-124922200D02*
X113045952Y-124969819D01*
X113045952Y-124969819D02*
X112950714Y-124969819D01*
X113712619Y-123969819D02*
X114331666Y-123969819D01*
X114331666Y-123969819D02*
X113998333Y-124350771D01*
X113998333Y-124350771D02*
X114141190Y-124350771D01*
X114141190Y-124350771D02*
X114236428Y-124398390D01*
X114236428Y-124398390D02*
X114284047Y-124446009D01*
X114284047Y-124446009D02*
X114331666Y-124541247D01*
X114331666Y-124541247D02*
X114331666Y-124779342D01*
X114331666Y-124779342D02*
X114284047Y-124874580D01*
X114284047Y-124874580D02*
X114236428Y-124922200D01*
X114236428Y-124922200D02*
X114141190Y-124969819D01*
X114141190Y-124969819D02*
X113855476Y-124969819D01*
X113855476Y-124969819D02*
X113760238Y-124922200D01*
X113760238Y-124922200D02*
X113712619Y-124874580D01*
X91876666Y-109781009D02*
X91543333Y-109781009D01*
X91543333Y-110304819D02*
X91543333Y-109304819D01*
X91543333Y-109304819D02*
X92019523Y-109304819D01*
X92733809Y-109781009D02*
X92876666Y-109828628D01*
X92876666Y-109828628D02*
X92924285Y-109876247D01*
X92924285Y-109876247D02*
X92971904Y-109971485D01*
X92971904Y-109971485D02*
X92971904Y-110114342D01*
X92971904Y-110114342D02*
X92924285Y-110209580D01*
X92924285Y-110209580D02*
X92876666Y-110257200D01*
X92876666Y-110257200D02*
X92781428Y-110304819D01*
X92781428Y-110304819D02*
X92400476Y-110304819D01*
X92400476Y-110304819D02*
X92400476Y-109304819D01*
X92400476Y-109304819D02*
X92733809Y-109304819D01*
X92733809Y-109304819D02*
X92829047Y-109352438D01*
X92829047Y-109352438D02*
X92876666Y-109400057D01*
X92876666Y-109400057D02*
X92924285Y-109495295D01*
X92924285Y-109495295D02*
X92924285Y-109590533D01*
X92924285Y-109590533D02*
X92876666Y-109685771D01*
X92876666Y-109685771D02*
X92829047Y-109733390D01*
X92829047Y-109733390D02*
X92733809Y-109781009D01*
X92733809Y-109781009D02*
X92400476Y-109781009D01*
X93924285Y-110304819D02*
X93352857Y-110304819D01*
X93638571Y-110304819D02*
X93638571Y-109304819D01*
X93638571Y-109304819D02*
X93543333Y-109447676D01*
X93543333Y-109447676D02*
X93448095Y-109542914D01*
X93448095Y-109542914D02*
X93352857Y-109590533D01*
X86256905Y-75009819D02*
X86256905Y-74009819D01*
X86256905Y-74009819D02*
X86495000Y-74009819D01*
X86495000Y-74009819D02*
X86637857Y-74057438D01*
X86637857Y-74057438D02*
X86733095Y-74152676D01*
X86733095Y-74152676D02*
X86780714Y-74247914D01*
X86780714Y-74247914D02*
X86828333Y-74438390D01*
X86828333Y-74438390D02*
X86828333Y-74581247D01*
X86828333Y-74581247D02*
X86780714Y-74771723D01*
X86780714Y-74771723D02*
X86733095Y-74866961D01*
X86733095Y-74866961D02*
X86637857Y-74962200D01*
X86637857Y-74962200D02*
X86495000Y-75009819D01*
X86495000Y-75009819D02*
X86256905Y-75009819D01*
X87780714Y-75009819D02*
X87209286Y-75009819D01*
X87495000Y-75009819D02*
X87495000Y-74009819D01*
X87495000Y-74009819D02*
X87399762Y-74152676D01*
X87399762Y-74152676D02*
X87304524Y-74247914D01*
X87304524Y-74247914D02*
X87209286Y-74295533D01*
X91876666Y-127566009D02*
X91543333Y-127566009D01*
X91543333Y-128089819D02*
X91543333Y-127089819D01*
X91543333Y-127089819D02*
X92019523Y-127089819D01*
X92733809Y-127566009D02*
X92876666Y-127613628D01*
X92876666Y-127613628D02*
X92924285Y-127661247D01*
X92924285Y-127661247D02*
X92971904Y-127756485D01*
X92971904Y-127756485D02*
X92971904Y-127899342D01*
X92971904Y-127899342D02*
X92924285Y-127994580D01*
X92924285Y-127994580D02*
X92876666Y-128042200D01*
X92876666Y-128042200D02*
X92781428Y-128089819D01*
X92781428Y-128089819D02*
X92400476Y-128089819D01*
X92400476Y-128089819D02*
X92400476Y-127089819D01*
X92400476Y-127089819D02*
X92733809Y-127089819D01*
X92733809Y-127089819D02*
X92829047Y-127137438D01*
X92829047Y-127137438D02*
X92876666Y-127185057D01*
X92876666Y-127185057D02*
X92924285Y-127280295D01*
X92924285Y-127280295D02*
X92924285Y-127375533D01*
X92924285Y-127375533D02*
X92876666Y-127470771D01*
X92876666Y-127470771D02*
X92829047Y-127518390D01*
X92829047Y-127518390D02*
X92733809Y-127566009D01*
X92733809Y-127566009D02*
X92400476Y-127566009D01*
X93876666Y-127089819D02*
X93400476Y-127089819D01*
X93400476Y-127089819D02*
X93352857Y-127566009D01*
X93352857Y-127566009D02*
X93400476Y-127518390D01*
X93400476Y-127518390D02*
X93495714Y-127470771D01*
X93495714Y-127470771D02*
X93733809Y-127470771D01*
X93733809Y-127470771D02*
X93829047Y-127518390D01*
X93829047Y-127518390D02*
X93876666Y-127566009D01*
X93876666Y-127566009D02*
X93924285Y-127661247D01*
X93924285Y-127661247D02*
X93924285Y-127899342D01*
X93924285Y-127899342D02*
X93876666Y-127994580D01*
X93876666Y-127994580D02*
X93829047Y-128042200D01*
X93829047Y-128042200D02*
X93733809Y-128089819D01*
X93733809Y-128089819D02*
X93495714Y-128089819D01*
X93495714Y-128089819D02*
X93400476Y-128042200D01*
X93400476Y-128042200D02*
X93352857Y-127994580D01*
X100671333Y-141202580D02*
X100623714Y-141250200D01*
X100623714Y-141250200D02*
X100480857Y-141297819D01*
X100480857Y-141297819D02*
X100385619Y-141297819D01*
X100385619Y-141297819D02*
X100242762Y-141250200D01*
X100242762Y-141250200D02*
X100147524Y-141154961D01*
X100147524Y-141154961D02*
X100099905Y-141059723D01*
X100099905Y-141059723D02*
X100052286Y-140869247D01*
X100052286Y-140869247D02*
X100052286Y-140726390D01*
X100052286Y-140726390D02*
X100099905Y-140535914D01*
X100099905Y-140535914D02*
X100147524Y-140440676D01*
X100147524Y-140440676D02*
X100242762Y-140345438D01*
X100242762Y-140345438D02*
X100385619Y-140297819D01*
X100385619Y-140297819D02*
X100480857Y-140297819D01*
X100480857Y-140297819D02*
X100623714Y-140345438D01*
X100623714Y-140345438D02*
X100671333Y-140393057D01*
X101147524Y-141297819D02*
X101338000Y-141297819D01*
X101338000Y-141297819D02*
X101433238Y-141250200D01*
X101433238Y-141250200D02*
X101480857Y-141202580D01*
X101480857Y-141202580D02*
X101576095Y-141059723D01*
X101576095Y-141059723D02*
X101623714Y-140869247D01*
X101623714Y-140869247D02*
X101623714Y-140488295D01*
X101623714Y-140488295D02*
X101576095Y-140393057D01*
X101576095Y-140393057D02*
X101528476Y-140345438D01*
X101528476Y-140345438D02*
X101433238Y-140297819D01*
X101433238Y-140297819D02*
X101242762Y-140297819D01*
X101242762Y-140297819D02*
X101147524Y-140345438D01*
X101147524Y-140345438D02*
X101099905Y-140393057D01*
X101099905Y-140393057D02*
X101052286Y-140488295D01*
X101052286Y-140488295D02*
X101052286Y-140726390D01*
X101052286Y-140726390D02*
X101099905Y-140821628D01*
X101099905Y-140821628D02*
X101147524Y-140869247D01*
X101147524Y-140869247D02*
X101242762Y-140916866D01*
X101242762Y-140916866D02*
X101433238Y-140916866D01*
X101433238Y-140916866D02*
X101528476Y-140869247D01*
X101528476Y-140869247D02*
X101576095Y-140821628D01*
X101576095Y-140821628D02*
X101623714Y-140726390D01*
X100163333Y-127613580D02*
X100115714Y-127661200D01*
X100115714Y-127661200D02*
X99972857Y-127708819D01*
X99972857Y-127708819D02*
X99877619Y-127708819D01*
X99877619Y-127708819D02*
X99734762Y-127661200D01*
X99734762Y-127661200D02*
X99639524Y-127565961D01*
X99639524Y-127565961D02*
X99591905Y-127470723D01*
X99591905Y-127470723D02*
X99544286Y-127280247D01*
X99544286Y-127280247D02*
X99544286Y-127137390D01*
X99544286Y-127137390D02*
X99591905Y-126946914D01*
X99591905Y-126946914D02*
X99639524Y-126851676D01*
X99639524Y-126851676D02*
X99734762Y-126756438D01*
X99734762Y-126756438D02*
X99877619Y-126708819D01*
X99877619Y-126708819D02*
X99972857Y-126708819D01*
X99972857Y-126708819D02*
X100115714Y-126756438D01*
X100115714Y-126756438D02*
X100163333Y-126804057D01*
X101068095Y-126708819D02*
X100591905Y-126708819D01*
X100591905Y-126708819D02*
X100544286Y-127185009D01*
X100544286Y-127185009D02*
X100591905Y-127137390D01*
X100591905Y-127137390D02*
X100687143Y-127089771D01*
X100687143Y-127089771D02*
X100925238Y-127089771D01*
X100925238Y-127089771D02*
X101020476Y-127137390D01*
X101020476Y-127137390D02*
X101068095Y-127185009D01*
X101068095Y-127185009D02*
X101115714Y-127280247D01*
X101115714Y-127280247D02*
X101115714Y-127518342D01*
X101115714Y-127518342D02*
X101068095Y-127613580D01*
X101068095Y-127613580D02*
X101020476Y-127661200D01*
X101020476Y-127661200D02*
X100925238Y-127708819D01*
X100925238Y-127708819D02*
X100687143Y-127708819D01*
X100687143Y-127708819D02*
X100591905Y-127661200D01*
X100591905Y-127661200D02*
X100544286Y-127613580D01*
X108793997Y-80734819D02*
X108793997Y-81449104D01*
X108793997Y-81449104D02*
X108746378Y-81591961D01*
X108746378Y-81591961D02*
X108651140Y-81687200D01*
X108651140Y-81687200D02*
X108508283Y-81734819D01*
X108508283Y-81734819D02*
X108413045Y-81734819D01*
X109222569Y-80830057D02*
X109270188Y-80782438D01*
X109270188Y-80782438D02*
X109365426Y-80734819D01*
X109365426Y-80734819D02*
X109603521Y-80734819D01*
X109603521Y-80734819D02*
X109698759Y-80782438D01*
X109698759Y-80782438D02*
X109746378Y-80830057D01*
X109746378Y-80830057D02*
X109793997Y-80925295D01*
X109793997Y-80925295D02*
X109793997Y-81020533D01*
X109793997Y-81020533D02*
X109746378Y-81163390D01*
X109746378Y-81163390D02*
X109174950Y-81734819D01*
X109174950Y-81734819D02*
X109793997Y-81734819D01*
X102703333Y-110309819D02*
X102370000Y-109833628D01*
X102131905Y-110309819D02*
X102131905Y-109309819D01*
X102131905Y-109309819D02*
X102512857Y-109309819D01*
X102512857Y-109309819D02*
X102608095Y-109357438D01*
X102608095Y-109357438D02*
X102655714Y-109405057D01*
X102655714Y-109405057D02*
X102703333Y-109500295D01*
X102703333Y-109500295D02*
X102703333Y-109643152D01*
X102703333Y-109643152D02*
X102655714Y-109738390D01*
X102655714Y-109738390D02*
X102608095Y-109786009D01*
X102608095Y-109786009D02*
X102512857Y-109833628D01*
X102512857Y-109833628D02*
X102131905Y-109833628D01*
X103560476Y-109309819D02*
X103370000Y-109309819D01*
X103370000Y-109309819D02*
X103274762Y-109357438D01*
X103274762Y-109357438D02*
X103227143Y-109405057D01*
X103227143Y-109405057D02*
X103131905Y-109547914D01*
X103131905Y-109547914D02*
X103084286Y-109738390D01*
X103084286Y-109738390D02*
X103084286Y-110119342D01*
X103084286Y-110119342D02*
X103131905Y-110214580D01*
X103131905Y-110214580D02*
X103179524Y-110262200D01*
X103179524Y-110262200D02*
X103274762Y-110309819D01*
X103274762Y-110309819D02*
X103465238Y-110309819D01*
X103465238Y-110309819D02*
X103560476Y-110262200D01*
X103560476Y-110262200D02*
X103608095Y-110214580D01*
X103608095Y-110214580D02*
X103655714Y-110119342D01*
X103655714Y-110119342D02*
X103655714Y-109881247D01*
X103655714Y-109881247D02*
X103608095Y-109786009D01*
X103608095Y-109786009D02*
X103560476Y-109738390D01*
X103560476Y-109738390D02*
X103465238Y-109690771D01*
X103465238Y-109690771D02*
X103274762Y-109690771D01*
X103274762Y-109690771D02*
X103179524Y-109738390D01*
X103179524Y-109738390D02*
X103131905Y-109786009D01*
X103131905Y-109786009D02*
X103084286Y-109881247D01*
X86280666Y-80353819D02*
X86280666Y-81068104D01*
X86280666Y-81068104D02*
X86233047Y-81210961D01*
X86233047Y-81210961D02*
X86137809Y-81306200D01*
X86137809Y-81306200D02*
X85994952Y-81353819D01*
X85994952Y-81353819D02*
X85899714Y-81353819D01*
X87280666Y-81353819D02*
X86709238Y-81353819D01*
X86994952Y-81353819D02*
X86994952Y-80353819D01*
X86994952Y-80353819D02*
X86899714Y-80496676D01*
X86899714Y-80496676D02*
X86804476Y-80591914D01*
X86804476Y-80591914D02*
X86709238Y-80639533D01*
X91876666Y-131376009D02*
X91543333Y-131376009D01*
X91543333Y-131899819D02*
X91543333Y-130899819D01*
X91543333Y-130899819D02*
X92019523Y-130899819D01*
X92733809Y-131376009D02*
X92876666Y-131423628D01*
X92876666Y-131423628D02*
X92924285Y-131471247D01*
X92924285Y-131471247D02*
X92971904Y-131566485D01*
X92971904Y-131566485D02*
X92971904Y-131709342D01*
X92971904Y-131709342D02*
X92924285Y-131804580D01*
X92924285Y-131804580D02*
X92876666Y-131852200D01*
X92876666Y-131852200D02*
X92781428Y-131899819D01*
X92781428Y-131899819D02*
X92400476Y-131899819D01*
X92400476Y-131899819D02*
X92400476Y-130899819D01*
X92400476Y-130899819D02*
X92733809Y-130899819D01*
X92733809Y-130899819D02*
X92829047Y-130947438D01*
X92829047Y-130947438D02*
X92876666Y-130995057D01*
X92876666Y-130995057D02*
X92924285Y-131090295D01*
X92924285Y-131090295D02*
X92924285Y-131185533D01*
X92924285Y-131185533D02*
X92876666Y-131280771D01*
X92876666Y-131280771D02*
X92829047Y-131328390D01*
X92829047Y-131328390D02*
X92733809Y-131376009D01*
X92733809Y-131376009D02*
X92400476Y-131376009D01*
X93352857Y-130995057D02*
X93400476Y-130947438D01*
X93400476Y-130947438D02*
X93495714Y-130899819D01*
X93495714Y-130899819D02*
X93733809Y-130899819D01*
X93733809Y-130899819D02*
X93829047Y-130947438D01*
X93829047Y-130947438D02*
X93876666Y-130995057D01*
X93876666Y-130995057D02*
X93924285Y-131090295D01*
X93924285Y-131090295D02*
X93924285Y-131185533D01*
X93924285Y-131185533D02*
X93876666Y-131328390D01*
X93876666Y-131328390D02*
X93305238Y-131899819D01*
X93305238Y-131899819D02*
X93924285Y-131899819D01*
X100036333Y-124914819D02*
X99703000Y-124438628D01*
X99464905Y-124914819D02*
X99464905Y-123914819D01*
X99464905Y-123914819D02*
X99845857Y-123914819D01*
X99845857Y-123914819D02*
X99941095Y-123962438D01*
X99941095Y-123962438D02*
X99988714Y-124010057D01*
X99988714Y-124010057D02*
X100036333Y-124105295D01*
X100036333Y-124105295D02*
X100036333Y-124248152D01*
X100036333Y-124248152D02*
X99988714Y-124343390D01*
X99988714Y-124343390D02*
X99941095Y-124391009D01*
X99941095Y-124391009D02*
X99845857Y-124438628D01*
X99845857Y-124438628D02*
X99464905Y-124438628D01*
X100607762Y-124343390D02*
X100512524Y-124295771D01*
X100512524Y-124295771D02*
X100464905Y-124248152D01*
X100464905Y-124248152D02*
X100417286Y-124152914D01*
X100417286Y-124152914D02*
X100417286Y-124105295D01*
X100417286Y-124105295D02*
X100464905Y-124010057D01*
X100464905Y-124010057D02*
X100512524Y-123962438D01*
X100512524Y-123962438D02*
X100607762Y-123914819D01*
X100607762Y-123914819D02*
X100798238Y-123914819D01*
X100798238Y-123914819D02*
X100893476Y-123962438D01*
X100893476Y-123962438D02*
X100941095Y-124010057D01*
X100941095Y-124010057D02*
X100988714Y-124105295D01*
X100988714Y-124105295D02*
X100988714Y-124152914D01*
X100988714Y-124152914D02*
X100941095Y-124248152D01*
X100941095Y-124248152D02*
X100893476Y-124295771D01*
X100893476Y-124295771D02*
X100798238Y-124343390D01*
X100798238Y-124343390D02*
X100607762Y-124343390D01*
X100607762Y-124343390D02*
X100512524Y-124391009D01*
X100512524Y-124391009D02*
X100464905Y-124438628D01*
X100464905Y-124438628D02*
X100417286Y-124533866D01*
X100417286Y-124533866D02*
X100417286Y-124724342D01*
X100417286Y-124724342D02*
X100464905Y-124819580D01*
X100464905Y-124819580D02*
X100512524Y-124867200D01*
X100512524Y-124867200D02*
X100607762Y-124914819D01*
X100607762Y-124914819D02*
X100798238Y-124914819D01*
X100798238Y-124914819D02*
X100893476Y-124867200D01*
X100893476Y-124867200D02*
X100941095Y-124819580D01*
X100941095Y-124819580D02*
X100988714Y-124724342D01*
X100988714Y-124724342D02*
X100988714Y-124533866D01*
X100988714Y-124533866D02*
X100941095Y-124438628D01*
X100941095Y-124438628D02*
X100893476Y-124391009D01*
X100893476Y-124391009D02*
X100798238Y-124343390D01*
X107307142Y-127584580D02*
X107259523Y-127632200D01*
X107259523Y-127632200D02*
X107116666Y-127679819D01*
X107116666Y-127679819D02*
X107021428Y-127679819D01*
X107021428Y-127679819D02*
X106878571Y-127632200D01*
X106878571Y-127632200D02*
X106783333Y-127536961D01*
X106783333Y-127536961D02*
X106735714Y-127441723D01*
X106735714Y-127441723D02*
X106688095Y-127251247D01*
X106688095Y-127251247D02*
X106688095Y-127108390D01*
X106688095Y-127108390D02*
X106735714Y-126917914D01*
X106735714Y-126917914D02*
X106783333Y-126822676D01*
X106783333Y-126822676D02*
X106878571Y-126727438D01*
X106878571Y-126727438D02*
X107021428Y-126679819D01*
X107021428Y-126679819D02*
X107116666Y-126679819D01*
X107116666Y-126679819D02*
X107259523Y-126727438D01*
X107259523Y-126727438D02*
X107307142Y-126775057D01*
X108259523Y-127679819D02*
X107688095Y-127679819D01*
X107973809Y-127679819D02*
X107973809Y-126679819D01*
X107973809Y-126679819D02*
X107878571Y-126822676D01*
X107878571Y-126822676D02*
X107783333Y-126917914D01*
X107783333Y-126917914D02*
X107688095Y-126965533D01*
X109116666Y-127013152D02*
X109116666Y-127679819D01*
X108878571Y-126632200D02*
X108640476Y-127346485D01*
X108640476Y-127346485D02*
X109259523Y-127346485D01*
X100036333Y-117294819D02*
X99703000Y-116818628D01*
X99464905Y-117294819D02*
X99464905Y-116294819D01*
X99464905Y-116294819D02*
X99845857Y-116294819D01*
X99845857Y-116294819D02*
X99941095Y-116342438D01*
X99941095Y-116342438D02*
X99988714Y-116390057D01*
X99988714Y-116390057D02*
X100036333Y-116485295D01*
X100036333Y-116485295D02*
X100036333Y-116628152D01*
X100036333Y-116628152D02*
X99988714Y-116723390D01*
X99988714Y-116723390D02*
X99941095Y-116771009D01*
X99941095Y-116771009D02*
X99845857Y-116818628D01*
X99845857Y-116818628D02*
X99464905Y-116818628D01*
X100512524Y-117294819D02*
X100703000Y-117294819D01*
X100703000Y-117294819D02*
X100798238Y-117247200D01*
X100798238Y-117247200D02*
X100845857Y-117199580D01*
X100845857Y-117199580D02*
X100941095Y-117056723D01*
X100941095Y-117056723D02*
X100988714Y-116866247D01*
X100988714Y-116866247D02*
X100988714Y-116485295D01*
X100988714Y-116485295D02*
X100941095Y-116390057D01*
X100941095Y-116390057D02*
X100893476Y-116342438D01*
X100893476Y-116342438D02*
X100798238Y-116294819D01*
X100798238Y-116294819D02*
X100607762Y-116294819D01*
X100607762Y-116294819D02*
X100512524Y-116342438D01*
X100512524Y-116342438D02*
X100464905Y-116390057D01*
X100464905Y-116390057D02*
X100417286Y-116485295D01*
X100417286Y-116485295D02*
X100417286Y-116723390D01*
X100417286Y-116723390D02*
X100464905Y-116818628D01*
X100464905Y-116818628D02*
X100512524Y-116866247D01*
X100512524Y-116866247D02*
X100607762Y-116913866D01*
X100607762Y-116913866D02*
X100798238Y-116913866D01*
X100798238Y-116913866D02*
X100893476Y-116866247D01*
X100893476Y-116866247D02*
X100941095Y-116818628D01*
X100941095Y-116818628D02*
X100988714Y-116723390D01*
X94107095Y-91402819D02*
X94107095Y-92212342D01*
X94107095Y-92212342D02*
X94154714Y-92307580D01*
X94154714Y-92307580D02*
X94202333Y-92355200D01*
X94202333Y-92355200D02*
X94297571Y-92402819D01*
X94297571Y-92402819D02*
X94488047Y-92402819D01*
X94488047Y-92402819D02*
X94583285Y-92355200D01*
X94583285Y-92355200D02*
X94630904Y-92307580D01*
X94630904Y-92307580D02*
X94678523Y-92212342D01*
X94678523Y-92212342D02*
X94678523Y-91402819D01*
X95678523Y-92402819D02*
X95107095Y-92402819D01*
X95392809Y-92402819D02*
X95392809Y-91402819D01*
X95392809Y-91402819D02*
X95297571Y-91545676D01*
X95297571Y-91545676D02*
X95202333Y-91640914D01*
X95202333Y-91640914D02*
X95107095Y-91688533D01*
X99052142Y-114024580D02*
X99004523Y-114072200D01*
X99004523Y-114072200D02*
X98861666Y-114119819D01*
X98861666Y-114119819D02*
X98766428Y-114119819D01*
X98766428Y-114119819D02*
X98623571Y-114072200D01*
X98623571Y-114072200D02*
X98528333Y-113976961D01*
X98528333Y-113976961D02*
X98480714Y-113881723D01*
X98480714Y-113881723D02*
X98433095Y-113691247D01*
X98433095Y-113691247D02*
X98433095Y-113548390D01*
X98433095Y-113548390D02*
X98480714Y-113357914D01*
X98480714Y-113357914D02*
X98528333Y-113262676D01*
X98528333Y-113262676D02*
X98623571Y-113167438D01*
X98623571Y-113167438D02*
X98766428Y-113119819D01*
X98766428Y-113119819D02*
X98861666Y-113119819D01*
X98861666Y-113119819D02*
X99004523Y-113167438D01*
X99004523Y-113167438D02*
X99052142Y-113215057D01*
X100004523Y-114119819D02*
X99433095Y-114119819D01*
X99718809Y-114119819D02*
X99718809Y-113119819D01*
X99718809Y-113119819D02*
X99623571Y-113262676D01*
X99623571Y-113262676D02*
X99528333Y-113357914D01*
X99528333Y-113357914D02*
X99433095Y-113405533D01*
X100956904Y-114119819D02*
X100385476Y-114119819D01*
X100671190Y-114119819D02*
X100671190Y-113119819D01*
X100671190Y-113119819D02*
X100575952Y-113262676D01*
X100575952Y-113262676D02*
X100480714Y-113357914D01*
X100480714Y-113357914D02*
X100385476Y-113405533D01*
X110236095Y-136106819D02*
X110236095Y-136916342D01*
X110236095Y-136916342D02*
X110283714Y-137011580D01*
X110283714Y-137011580D02*
X110331333Y-137059200D01*
X110331333Y-137059200D02*
X110426571Y-137106819D01*
X110426571Y-137106819D02*
X110617047Y-137106819D01*
X110617047Y-137106819D02*
X110712285Y-137059200D01*
X110712285Y-137059200D02*
X110759904Y-137011580D01*
X110759904Y-137011580D02*
X110807523Y-136916342D01*
X110807523Y-136916342D02*
X110807523Y-136106819D01*
X111236095Y-136202057D02*
X111283714Y-136154438D01*
X111283714Y-136154438D02*
X111378952Y-136106819D01*
X111378952Y-136106819D02*
X111617047Y-136106819D01*
X111617047Y-136106819D02*
X111712285Y-136154438D01*
X111712285Y-136154438D02*
X111759904Y-136202057D01*
X111759904Y-136202057D02*
X111807523Y-136297295D01*
X111807523Y-136297295D02*
X111807523Y-136392533D01*
X111807523Y-136392533D02*
X111759904Y-136535390D01*
X111759904Y-136535390D02*
X111188476Y-137106819D01*
X111188476Y-137106819D02*
X111807523Y-137106819D01*
X99052142Y-121644580D02*
X99004523Y-121692200D01*
X99004523Y-121692200D02*
X98861666Y-121739819D01*
X98861666Y-121739819D02*
X98766428Y-121739819D01*
X98766428Y-121739819D02*
X98623571Y-121692200D01*
X98623571Y-121692200D02*
X98528333Y-121596961D01*
X98528333Y-121596961D02*
X98480714Y-121501723D01*
X98480714Y-121501723D02*
X98433095Y-121311247D01*
X98433095Y-121311247D02*
X98433095Y-121168390D01*
X98433095Y-121168390D02*
X98480714Y-120977914D01*
X98480714Y-120977914D02*
X98528333Y-120882676D01*
X98528333Y-120882676D02*
X98623571Y-120787438D01*
X98623571Y-120787438D02*
X98766428Y-120739819D01*
X98766428Y-120739819D02*
X98861666Y-120739819D01*
X98861666Y-120739819D02*
X99004523Y-120787438D01*
X99004523Y-120787438D02*
X99052142Y-120835057D01*
X100004523Y-121739819D02*
X99433095Y-121739819D01*
X99718809Y-121739819D02*
X99718809Y-120739819D01*
X99718809Y-120739819D02*
X99623571Y-120882676D01*
X99623571Y-120882676D02*
X99528333Y-120977914D01*
X99528333Y-120977914D02*
X99433095Y-121025533D01*
X100623571Y-120739819D02*
X100718809Y-120739819D01*
X100718809Y-120739819D02*
X100814047Y-120787438D01*
X100814047Y-120787438D02*
X100861666Y-120835057D01*
X100861666Y-120835057D02*
X100909285Y-120930295D01*
X100909285Y-120930295D02*
X100956904Y-121120771D01*
X100956904Y-121120771D02*
X100956904Y-121358866D01*
X100956904Y-121358866D02*
X100909285Y-121549342D01*
X100909285Y-121549342D02*
X100861666Y-121644580D01*
X100861666Y-121644580D02*
X100814047Y-121692200D01*
X100814047Y-121692200D02*
X100718809Y-121739819D01*
X100718809Y-121739819D02*
X100623571Y-121739819D01*
X100623571Y-121739819D02*
X100528333Y-121692200D01*
X100528333Y-121692200D02*
X100480714Y-121644580D01*
X100480714Y-121644580D02*
X100433095Y-121549342D01*
X100433095Y-121549342D02*
X100385476Y-121358866D01*
X100385476Y-121358866D02*
X100385476Y-121120771D01*
X100385476Y-121120771D02*
X100433095Y-120930295D01*
X100433095Y-120930295D02*
X100480714Y-120835057D01*
X100480714Y-120835057D02*
X100528333Y-120787438D01*
X100528333Y-120787438D02*
X100623571Y-120739819D01*
X113530142Y-130534580D02*
X113482523Y-130582200D01*
X113482523Y-130582200D02*
X113339666Y-130629819D01*
X113339666Y-130629819D02*
X113244428Y-130629819D01*
X113244428Y-130629819D02*
X113101571Y-130582200D01*
X113101571Y-130582200D02*
X113006333Y-130486961D01*
X113006333Y-130486961D02*
X112958714Y-130391723D01*
X112958714Y-130391723D02*
X112911095Y-130201247D01*
X112911095Y-130201247D02*
X112911095Y-130058390D01*
X112911095Y-130058390D02*
X112958714Y-129867914D01*
X112958714Y-129867914D02*
X113006333Y-129772676D01*
X113006333Y-129772676D02*
X113101571Y-129677438D01*
X113101571Y-129677438D02*
X113244428Y-129629819D01*
X113244428Y-129629819D02*
X113339666Y-129629819D01*
X113339666Y-129629819D02*
X113482523Y-129677438D01*
X113482523Y-129677438D02*
X113530142Y-129725057D01*
X114482523Y-130629819D02*
X113911095Y-130629819D01*
X114196809Y-130629819D02*
X114196809Y-129629819D01*
X114196809Y-129629819D02*
X114101571Y-129772676D01*
X114101571Y-129772676D02*
X114006333Y-129867914D01*
X114006333Y-129867914D02*
X113911095Y-129915533D01*
X115387285Y-129629819D02*
X114911095Y-129629819D01*
X114911095Y-129629819D02*
X114863476Y-130106009D01*
X114863476Y-130106009D02*
X114911095Y-130058390D01*
X114911095Y-130058390D02*
X115006333Y-130010771D01*
X115006333Y-130010771D02*
X115244428Y-130010771D01*
X115244428Y-130010771D02*
X115339666Y-130058390D01*
X115339666Y-130058390D02*
X115387285Y-130106009D01*
X115387285Y-130106009D02*
X115434904Y-130201247D01*
X115434904Y-130201247D02*
X115434904Y-130439342D01*
X115434904Y-130439342D02*
X115387285Y-130534580D01*
X115387285Y-130534580D02*
X115339666Y-130582200D01*
X115339666Y-130582200D02*
X115244428Y-130629819D01*
X115244428Y-130629819D02*
X115006333Y-130629819D01*
X115006333Y-130629819D02*
X114911095Y-130582200D01*
X114911095Y-130582200D02*
X114863476Y-130534580D01*
X103211333Y-86941819D02*
X102878000Y-86465628D01*
X102639905Y-86941819D02*
X102639905Y-85941819D01*
X102639905Y-85941819D02*
X103020857Y-85941819D01*
X103020857Y-85941819D02*
X103116095Y-85989438D01*
X103116095Y-85989438D02*
X103163714Y-86037057D01*
X103163714Y-86037057D02*
X103211333Y-86132295D01*
X103211333Y-86132295D02*
X103211333Y-86275152D01*
X103211333Y-86275152D02*
X103163714Y-86370390D01*
X103163714Y-86370390D02*
X103116095Y-86418009D01*
X103116095Y-86418009D02*
X103020857Y-86465628D01*
X103020857Y-86465628D02*
X102639905Y-86465628D01*
X103592286Y-86037057D02*
X103639905Y-85989438D01*
X103639905Y-85989438D02*
X103735143Y-85941819D01*
X103735143Y-85941819D02*
X103973238Y-85941819D01*
X103973238Y-85941819D02*
X104068476Y-85989438D01*
X104068476Y-85989438D02*
X104116095Y-86037057D01*
X104116095Y-86037057D02*
X104163714Y-86132295D01*
X104163714Y-86132295D02*
X104163714Y-86227533D01*
X104163714Y-86227533D02*
X104116095Y-86370390D01*
X104116095Y-86370390D02*
X103544667Y-86941819D01*
X103544667Y-86941819D02*
X104163714Y-86941819D01*
X102703333Y-104214819D02*
X102370000Y-103738628D01*
X102131905Y-104214819D02*
X102131905Y-103214819D01*
X102131905Y-103214819D02*
X102512857Y-103214819D01*
X102512857Y-103214819D02*
X102608095Y-103262438D01*
X102608095Y-103262438D02*
X102655714Y-103310057D01*
X102655714Y-103310057D02*
X102703333Y-103405295D01*
X102703333Y-103405295D02*
X102703333Y-103548152D01*
X102703333Y-103548152D02*
X102655714Y-103643390D01*
X102655714Y-103643390D02*
X102608095Y-103691009D01*
X102608095Y-103691009D02*
X102512857Y-103738628D01*
X102512857Y-103738628D02*
X102131905Y-103738628D01*
X103036667Y-103214819D02*
X103703333Y-103214819D01*
X103703333Y-103214819D02*
X103274762Y-104214819D01*
X100671333Y-86941819D02*
X100338000Y-86465628D01*
X100099905Y-86941819D02*
X100099905Y-85941819D01*
X100099905Y-85941819D02*
X100480857Y-85941819D01*
X100480857Y-85941819D02*
X100576095Y-85989438D01*
X100576095Y-85989438D02*
X100623714Y-86037057D01*
X100623714Y-86037057D02*
X100671333Y-86132295D01*
X100671333Y-86132295D02*
X100671333Y-86275152D01*
X100671333Y-86275152D02*
X100623714Y-86370390D01*
X100623714Y-86370390D02*
X100576095Y-86418009D01*
X100576095Y-86418009D02*
X100480857Y-86465628D01*
X100480857Y-86465628D02*
X100099905Y-86465628D01*
X101576095Y-85941819D02*
X101099905Y-85941819D01*
X101099905Y-85941819D02*
X101052286Y-86418009D01*
X101052286Y-86418009D02*
X101099905Y-86370390D01*
X101099905Y-86370390D02*
X101195143Y-86322771D01*
X101195143Y-86322771D02*
X101433238Y-86322771D01*
X101433238Y-86322771D02*
X101528476Y-86370390D01*
X101528476Y-86370390D02*
X101576095Y-86418009D01*
X101576095Y-86418009D02*
X101623714Y-86513247D01*
X101623714Y-86513247D02*
X101623714Y-86751342D01*
X101623714Y-86751342D02*
X101576095Y-86846580D01*
X101576095Y-86846580D02*
X101528476Y-86894200D01*
X101528476Y-86894200D02*
X101433238Y-86941819D01*
X101433238Y-86941819D02*
X101195143Y-86941819D01*
X101195143Y-86941819D02*
X101099905Y-86894200D01*
X101099905Y-86894200D02*
X101052286Y-86846580D01*
X107751666Y-140266009D02*
X107418333Y-140266009D01*
X107418333Y-140789819D02*
X107418333Y-139789819D01*
X107418333Y-139789819D02*
X107894523Y-139789819D01*
X108608809Y-140266009D02*
X108751666Y-140313628D01*
X108751666Y-140313628D02*
X108799285Y-140361247D01*
X108799285Y-140361247D02*
X108846904Y-140456485D01*
X108846904Y-140456485D02*
X108846904Y-140599342D01*
X108846904Y-140599342D02*
X108799285Y-140694580D01*
X108799285Y-140694580D02*
X108751666Y-140742200D01*
X108751666Y-140742200D02*
X108656428Y-140789819D01*
X108656428Y-140789819D02*
X108275476Y-140789819D01*
X108275476Y-140789819D02*
X108275476Y-139789819D01*
X108275476Y-139789819D02*
X108608809Y-139789819D01*
X108608809Y-139789819D02*
X108704047Y-139837438D01*
X108704047Y-139837438D02*
X108751666Y-139885057D01*
X108751666Y-139885057D02*
X108799285Y-139980295D01*
X108799285Y-139980295D02*
X108799285Y-140075533D01*
X108799285Y-140075533D02*
X108751666Y-140170771D01*
X108751666Y-140170771D02*
X108704047Y-140218390D01*
X108704047Y-140218390D02*
X108608809Y-140266009D01*
X108608809Y-140266009D02*
X108275476Y-140266009D01*
X109180238Y-139789819D02*
X109799285Y-139789819D01*
X109799285Y-139789819D02*
X109465952Y-140170771D01*
X109465952Y-140170771D02*
X109608809Y-140170771D01*
X109608809Y-140170771D02*
X109704047Y-140218390D01*
X109704047Y-140218390D02*
X109751666Y-140266009D01*
X109751666Y-140266009D02*
X109799285Y-140361247D01*
X109799285Y-140361247D02*
X109799285Y-140599342D01*
X109799285Y-140599342D02*
X109751666Y-140694580D01*
X109751666Y-140694580D02*
X109704047Y-140742200D01*
X109704047Y-140742200D02*
X109608809Y-140789819D01*
X109608809Y-140789819D02*
X109323095Y-140789819D01*
X109323095Y-140789819D02*
X109227857Y-140742200D01*
X109227857Y-140742200D02*
X109180238Y-140694580D01*
D13*
%TO.C,C6*%
X103878748Y-128170000D02*
X104401252Y-128170000D01*
X103878748Y-129640000D02*
X104401252Y-129640000D01*
%TO.C,FB4*%
X97355242Y-134345000D02*
X95684758Y-134345000D01*
X97355242Y-136165000D02*
X95684758Y-136165000D01*
%TO.C,J3*%
X106465000Y-121065000D02*
X106465000Y-118965000D01*
X113465000Y-116565000D02*
X106465000Y-116565000D01*
X113465000Y-123465000D02*
X108365000Y-123465000D01*
X115865000Y-116565000D02*
X118365000Y-116565000D01*
X118365000Y-116565000D02*
X118365000Y-117315000D01*
X118365000Y-122715000D02*
X118365000Y-123465000D01*
X118365000Y-123465000D02*
X115865000Y-123465000D01*
%TO.C,FB1*%
X93545242Y-107040000D02*
X91874758Y-107040000D01*
X93545242Y-108860000D02*
X91874758Y-108860000D01*
%TO.C,D1*%
X84710000Y-75250000D02*
X84710000Y-78420000D01*
X84710000Y-78420000D02*
X88595000Y-78420000D01*
X88595000Y-75250000D02*
X84710000Y-75250000D01*
%TO.C,FB5*%
X97355242Y-126725000D02*
X95684758Y-126725000D01*
X97355242Y-128545000D02*
X95684758Y-128545000D01*
%TO.C,C9*%
X100230000Y-138248748D02*
X100230000Y-138771252D01*
X101700000Y-138248748D02*
X101700000Y-138771252D01*
%TO.C,C5*%
X99595000Y-130436252D02*
X99595000Y-129913748D01*
X101065000Y-130436252D02*
X101065000Y-129913748D01*
%TO.C,J2*%
X107775662Y-93220000D02*
X108208675Y-93470000D01*
X107775662Y-93720000D02*
X107775662Y-93220000D01*
X108208675Y-93470000D02*
X107775662Y-93720000D01*
X108670000Y-82300000D02*
X117270000Y-82300000D01*
X108670000Y-113270000D02*
X108670000Y-82300000D01*
X117270000Y-113270000D02*
X108670000Y-113270000D01*
%TO.C,R6*%
X102642936Y-107215000D02*
X103097064Y-107215000D01*
X102642936Y-108685000D02*
X103097064Y-108685000D01*
%TO.C,J1*%
X75635000Y-82490000D02*
X75635000Y-133410000D01*
X75635000Y-82490000D02*
X84265000Y-82490000D01*
X75635000Y-82610000D02*
X84265000Y-82610000D01*
X75635000Y-82728095D02*
X84265000Y-82728095D01*
X75635000Y-82846190D02*
X84265000Y-82846190D01*
X75635000Y-82964285D02*
X84265000Y-82964285D01*
X75635000Y-83082380D02*
X84265000Y-83082380D01*
X75635000Y-83200475D02*
X84265000Y-83200475D01*
X75635000Y-83318570D02*
X84265000Y-83318570D01*
X75635000Y-83436665D02*
X84265000Y-83436665D01*
X75635000Y-83554760D02*
X84265000Y-83554760D01*
X75635000Y-83672855D02*
X84265000Y-83672855D01*
X75635000Y-83790950D02*
X84265000Y-83790950D01*
X75635000Y-83909045D02*
X84265000Y-83909045D01*
X75635000Y-84027140D02*
X84265000Y-84027140D01*
X75635000Y-84145235D02*
X84265000Y-84145235D01*
X75635000Y-84263330D02*
X84265000Y-84263330D01*
X75635000Y-84381425D02*
X84265000Y-84381425D01*
X75635000Y-84499520D02*
X84265000Y-84499520D01*
X75635000Y-84617615D02*
X84265000Y-84617615D01*
X75635000Y-84735710D02*
X84265000Y-84735710D01*
X75635000Y-84853805D02*
X84265000Y-84853805D01*
X75635000Y-84971900D02*
X84265000Y-84971900D01*
X75635000Y-85090000D02*
X84265000Y-85090000D01*
X75635000Y-87630000D02*
X84265000Y-87630000D01*
X75635000Y-90170000D02*
X84265000Y-90170000D01*
X75635000Y-92710000D02*
X84265000Y-92710000D01*
X75635000Y-95250000D02*
X84265000Y-95250000D01*
X75635000Y-97790000D02*
X84265000Y-97790000D01*
X75635000Y-100330000D02*
X84265000Y-100330000D01*
X75635000Y-102870000D02*
X84265000Y-102870000D01*
X75635000Y-105410000D02*
X84265000Y-105410000D01*
X75635000Y-107950000D02*
X84265000Y-107950000D01*
X75635000Y-110490000D02*
X84265000Y-110490000D01*
X75635000Y-113030000D02*
X84265000Y-113030000D01*
X75635000Y-115570000D02*
X84265000Y-115570000D01*
X75635000Y-118110000D02*
X84265000Y-118110000D01*
X75635000Y-120650000D02*
X84265000Y-120650000D01*
X75635000Y-123190000D02*
X84265000Y-123190000D01*
X75635000Y-125730000D02*
X84265000Y-125730000D01*
X75635000Y-128270000D02*
X84265000Y-128270000D01*
X75635000Y-130810000D02*
X84265000Y-130810000D01*
X75635000Y-133410000D02*
X84265000Y-133410000D01*
X84265000Y-82490000D02*
X84265000Y-133410000D01*
X84265000Y-83460000D02*
X84675000Y-83460000D01*
X84265000Y-84180000D02*
X84675000Y-84180000D01*
X84265000Y-86000000D02*
X84675000Y-86000000D01*
X84265000Y-86720000D02*
X84675000Y-86720000D01*
X84265000Y-88540000D02*
X84675000Y-88540000D01*
X84265000Y-89260000D02*
X84675000Y-89260000D01*
X84265000Y-91080000D02*
X84675000Y-91080000D01*
X84265000Y-91800000D02*
X84675000Y-91800000D01*
X84265000Y-93620000D02*
X84675000Y-93620000D01*
X84265000Y-94340000D02*
X84675000Y-94340000D01*
X84265000Y-96160000D02*
X84675000Y-96160000D01*
X84265000Y-96880000D02*
X84675000Y-96880000D01*
X84265000Y-98700000D02*
X84675000Y-98700000D01*
X84265000Y-99420000D02*
X84675000Y-99420000D01*
X84265000Y-101240000D02*
X84675000Y-101240000D01*
X84265000Y-101960000D02*
X84675000Y-101960000D01*
X84265000Y-103780000D02*
X84675000Y-103780000D01*
X84265000Y-104500000D02*
X84675000Y-104500000D01*
X84265000Y-106320000D02*
X84675000Y-106320000D01*
X84265000Y-107040000D02*
X84675000Y-107040000D01*
X84265000Y-108860000D02*
X84675000Y-108860000D01*
X84265000Y-109580000D02*
X84675000Y-109580000D01*
X84265000Y-111400000D02*
X84675000Y-111400000D01*
X84265000Y-112120000D02*
X84675000Y-112120000D01*
X84265000Y-113940000D02*
X84675000Y-113940000D01*
X84265000Y-114660000D02*
X84675000Y-114660000D01*
X84265000Y-116480000D02*
X84675000Y-116480000D01*
X84265000Y-117200000D02*
X84675000Y-117200000D01*
X84265000Y-119020000D02*
X84675000Y-119020000D01*
X84265000Y-119740000D02*
X84675000Y-119740000D01*
X84265000Y-121560000D02*
X84675000Y-121560000D01*
X84265000Y-122280000D02*
X84675000Y-122280000D01*
X84265000Y-124100000D02*
X84675000Y-124100000D01*
X84265000Y-124820000D02*
X84675000Y-124820000D01*
X84265000Y-126640000D02*
X84675000Y-126640000D01*
X84265000Y-127360000D02*
X84675000Y-127360000D01*
X84265000Y-129180000D02*
X84675000Y-129180000D01*
X84265000Y-129900000D02*
X84675000Y-129900000D01*
X84265000Y-131720000D02*
X84675000Y-131720000D01*
X84265000Y-132440000D02*
X84675000Y-132440000D01*
X86775000Y-83460000D02*
X87155000Y-83460000D01*
X86775000Y-84180000D02*
X87155000Y-84180000D01*
X86775000Y-86000000D02*
X87215000Y-86000000D01*
X86775000Y-86720000D02*
X87215000Y-86720000D01*
X86775000Y-88540000D02*
X87215000Y-88540000D01*
X86775000Y-89260000D02*
X87215000Y-89260000D01*
X86775000Y-91080000D02*
X87215000Y-91080000D01*
X86775000Y-91800000D02*
X87215000Y-91800000D01*
X86775000Y-93620000D02*
X87215000Y-93620000D01*
X86775000Y-94340000D02*
X87215000Y-94340000D01*
X86775000Y-96160000D02*
X87215000Y-96160000D01*
X86775000Y-96880000D02*
X87215000Y-96880000D01*
X86775000Y-98700000D02*
X87215000Y-98700000D01*
X86775000Y-99420000D02*
X87215000Y-99420000D01*
X86775000Y-101240000D02*
X87215000Y-101240000D01*
X86775000Y-101960000D02*
X87215000Y-101960000D01*
X86775000Y-103780000D02*
X87215000Y-103780000D01*
X86775000Y-104500000D02*
X87215000Y-104500000D01*
X86775000Y-106320000D02*
X87215000Y-106320000D01*
X86775000Y-107040000D02*
X87215000Y-107040000D01*
X86775000Y-108860000D02*
X87215000Y-108860000D01*
X86775000Y-109580000D02*
X87215000Y-109580000D01*
X86775000Y-111400000D02*
X87215000Y-111400000D01*
X86775000Y-112120000D02*
X87215000Y-112120000D01*
X86775000Y-113940000D02*
X87215000Y-113940000D01*
X86775000Y-114660000D02*
X87215000Y-114660000D01*
X86775000Y-116480000D02*
X87215000Y-116480000D01*
X86775000Y-117200000D02*
X87215000Y-117200000D01*
X86775000Y-119020000D02*
X87215000Y-119020000D01*
X86775000Y-119740000D02*
X87215000Y-119740000D01*
X86775000Y-121560000D02*
X87215000Y-121560000D01*
X86775000Y-122280000D02*
X87215000Y-122280000D01*
X86775000Y-124100000D02*
X87215000Y-124100000D01*
X86775000Y-124820000D02*
X87215000Y-124820000D01*
X86775000Y-126640000D02*
X87215000Y-126640000D01*
X86775000Y-127360000D02*
X87215000Y-127360000D01*
X86775000Y-129180000D02*
X87215000Y-129180000D01*
X86775000Y-129900000D02*
X87215000Y-129900000D01*
X86775000Y-131720000D02*
X87215000Y-131720000D01*
X86775000Y-132440000D02*
X87215000Y-132440000D01*
X88265000Y-82490000D02*
X89375000Y-82490000D01*
X89375000Y-82490000D02*
X89375000Y-83820000D01*
%TO.C,FB2*%
X97355242Y-130535000D02*
X95684758Y-130535000D01*
X97355242Y-132355000D02*
X95684758Y-132355000D01*
%TO.C,R8*%
X102642936Y-123725000D02*
X103097064Y-123725000D01*
X102642936Y-125195000D02*
X103097064Y-125195000D01*
%TO.C,C14*%
X107688748Y-128170000D02*
X108211252Y-128170000D01*
X107688748Y-129640000D02*
X108211252Y-129640000D01*
%TO.C,R9*%
X102642936Y-116105000D02*
X103097064Y-116105000D01*
X102642936Y-117575000D02*
X103097064Y-117575000D01*
%TO.C,U1*%
X95450000Y-92910000D02*
X95450000Y-93360000D01*
X95450000Y-100130000D02*
X95450000Y-99680000D01*
X95900000Y-92910000D02*
X95450000Y-92910000D01*
X95900000Y-100130000D02*
X95450000Y-100130000D01*
X102220000Y-92910000D02*
X102670000Y-92910000D01*
X102220000Y-100130000D02*
X102670000Y-100130000D01*
X102670000Y-92910000D02*
X102670000Y-93360000D01*
X102670000Y-100130000D02*
X102670000Y-99680000D01*
X94860000Y-93360000D02*
X94520000Y-92890000D01*
X95200000Y-92890000D01*
X94860000Y-93360000D01*
G36*
X94860000Y-93360000D02*
G01*
X94520000Y-92890000D01*
X95200000Y-92890000D01*
X94860000Y-93360000D01*
G37*
%TO.C,C11*%
X103131252Y-112930000D02*
X102608748Y-112930000D01*
X103131252Y-114400000D02*
X102608748Y-114400000D01*
%TO.C,U2*%
X106045000Y-130600000D02*
X103845000Y-130600000D01*
X106045000Y-130600000D02*
X108245000Y-130600000D01*
X106045000Y-137370000D02*
X103845000Y-137370000D01*
X106045000Y-137370000D02*
X108245000Y-137370000D01*
X102185000Y-131060000D02*
X101855000Y-131300000D01*
X101855000Y-130820000D01*
X102185000Y-131060000D01*
G36*
X102185000Y-131060000D02*
G01*
X101855000Y-131300000D01*
X101855000Y-130820000D01*
X102185000Y-131060000D01*
G37*
%TO.C,C10*%
X103131252Y-120550000D02*
X102608748Y-120550000D01*
X103131252Y-122020000D02*
X102608748Y-122020000D01*
%TO.C,C15*%
X111025000Y-129913748D02*
X111025000Y-130436252D01*
X112495000Y-129913748D02*
X112495000Y-130436252D01*
%TO.C,R2*%
X102643000Y-89127064D02*
X102643000Y-88672936D01*
X104113000Y-89127064D02*
X104113000Y-88672936D01*
%TO.C,R7*%
X102642936Y-104675000D02*
X103097064Y-104675000D01*
X102642936Y-106145000D02*
X103097064Y-106145000D01*
%TO.C,R5*%
X100230000Y-88672936D02*
X100230000Y-89127064D01*
X101700000Y-88672936D02*
X101700000Y-89127064D01*
%TO.C,FB3*%
X105135000Y-139499758D02*
X105135000Y-141170242D01*
X106955000Y-139499758D02*
X106955000Y-141170242D01*
%TD*%
M02*
