%TF.GenerationSoftware,KiCad,Pcbnew,9.0.2+1*%
%TF.CreationDate,2025-07-26T23:55:51+01:00*%
%TF.ProjectId,ICE40HXDevBoardVGA,49434534-3048-4584-9465-76426f617264,rev?*%
%TF.SameCoordinates,Original*%
%TF.FileFunction,Copper,L4,Bot*%
%TF.FilePolarity,Positive*%
%FSLAX46Y46*%
G04 Gerber Fmt 4.6, Leading zero omitted, Abs format (unit mm)*
G04 Created by KiCad (PCBNEW 9.0.2+1) date 2025-07-26 23:55:51*
%MOMM*%
%LPD*%
G01*
G04 APERTURE LIST*
G04 Aperture macros list*
%AMRoundRect*
0 Rectangle with rounded corners*
0 $1 Rounding radius*
0 $2 $3 $4 $5 $6 $7 $8 $9 X,Y pos of 4 corners*
0 Add a 4 corners polygon primitive as box body*
4,1,4,$2,$3,$4,$5,$6,$7,$8,$9,$2,$3,0*
0 Add four circle primitives for the rounded corners*
1,1,$1+$1,$2,$3*
1,1,$1+$1,$4,$5*
1,1,$1+$1,$6,$7*
1,1,$1+$1,$8,$9*
0 Add four rect primitives between the rounded corners*
20,1,$1+$1,$2,$3,$4,$5,0*
20,1,$1+$1,$4,$5,$6,$7,0*
20,1,$1+$1,$6,$7,$8,$9,0*
20,1,$1+$1,$8,$9,$2,$3,0*%
G04 Aperture macros list end*
%TA.AperFunction,ComponentPad*%
%ADD10R,1.900000X1.900000*%
%TD*%
%TA.AperFunction,ComponentPad*%
%ADD11C,1.900000*%
%TD*%
%TA.AperFunction,ComponentPad*%
%ADD12C,6.400000*%
%TD*%
%TA.AperFunction,ComponentPad*%
%ADD13C,4.000000*%
%TD*%
%TA.AperFunction,ComponentPad*%
%ADD14R,1.600000X1.600000*%
%TD*%
%TA.AperFunction,ComponentPad*%
%ADD15C,1.600000*%
%TD*%
%TA.AperFunction,ComponentPad*%
%ADD16R,1.700000X1.700000*%
%TD*%
%TA.AperFunction,ComponentPad*%
%ADD17O,1.700000X1.700000*%
%TD*%
%TA.AperFunction,SMDPad,CuDef*%
%ADD18RoundRect,0.250000X0.250000X0.475000X-0.250000X0.475000X-0.250000X-0.475000X0.250000X-0.475000X0*%
%TD*%
%TA.AperFunction,SMDPad,CuDef*%
%ADD19RoundRect,0.250000X-0.450000X-0.425000X0.450000X-0.425000X0.450000X0.425000X-0.450000X0.425000X0*%
%TD*%
%TA.AperFunction,SMDPad,CuDef*%
%ADD20RoundRect,0.250000X-0.450000X0.262500X-0.450000X-0.262500X0.450000X-0.262500X0.450000X0.262500X0*%
%TD*%
%TA.AperFunction,SMDPad,CuDef*%
%ADD21RoundRect,0.250000X-0.475000X0.250000X-0.475000X-0.250000X0.475000X-0.250000X0.475000X0.250000X0*%
%TD*%
%TA.AperFunction,SMDPad,CuDef*%
%ADD22RoundRect,0.250000X-0.262500X-0.450000X0.262500X-0.450000X0.262500X0.450000X-0.262500X0.450000X0*%
%TD*%
%TA.AperFunction,SMDPad,CuDef*%
%ADD23RoundRect,0.250000X0.425000X-0.450000X0.425000X0.450000X-0.425000X0.450000X-0.425000X-0.450000X0*%
%TD*%
%TA.AperFunction,SMDPad,CuDef*%
%ADD24RoundRect,0.250000X-0.425000X0.450000X-0.425000X-0.450000X0.425000X-0.450000X0.425000X0.450000X0*%
%TD*%
%TA.AperFunction,ViaPad*%
%ADD25C,0.508000*%
%TD*%
%TA.AperFunction,ViaPad*%
%ADD26C,0.635000*%
%TD*%
%TA.AperFunction,Conductor*%
%ADD27C,0.190500*%
%TD*%
%TA.AperFunction,Conductor*%
%ADD28C,0.317500*%
%TD*%
%TA.AperFunction,Conductor*%
%ADD29C,1.651000*%
%TD*%
G04 APERTURE END LIST*
D10*
%TO.P,J3,R*%
%TO.N,Net-(C10-Pad1)*%
X107165000Y-122265000D03*
D11*
%TO.P,J3,S*%
%TO.N,GNDA*%
X107165000Y-117765000D03*
%TO.P,J3,T*%
%TO.N,Net-(C11-Pad1)*%
X114665000Y-122915000D03*
X114665000Y-117115000D03*
%TD*%
D12*
%TO.P,H4,1,1*%
%TO.N,GND*%
X114300000Y-146050000D03*
%TD*%
%TO.P,H3,1,1*%
%TO.N,GND*%
X82550000Y-146050000D03*
%TD*%
D13*
%TO.P,J2,0*%
%TO.N,GND*%
X112390000Y-110285000D03*
X112390000Y-85285000D03*
D14*
%TO.P,J2,1*%
%TO.N,/RED*%
X110500000Y-93470000D03*
D15*
%TO.P,J2,2*%
%TO.N,/GREEN*%
X110500000Y-95760000D03*
%TO.P,J2,3*%
%TO.N,/BLUE*%
X110500000Y-98050000D03*
%TO.P,J2,4*%
%TO.N,unconnected-(J2-Pad4)*%
X110500000Y-100340000D03*
%TO.P,J2,5*%
%TO.N,GND*%
X110500000Y-102630000D03*
%TO.P,J2,6*%
X112400000Y-92325000D03*
%TO.P,J2,7*%
X112400000Y-94615000D03*
%TO.P,J2,8*%
X112400000Y-96905000D03*
%TO.P,J2,9*%
%TO.N,unconnected-(J2-Pad9)*%
X112400000Y-99195000D03*
%TO.P,J2,10*%
%TO.N,GND*%
X112400000Y-101485000D03*
%TO.P,J2,11*%
%TO.N,unconnected-(J2-Pad11)*%
X114300000Y-93470000D03*
%TO.P,J2,12*%
%TO.N,unconnected-(J2-Pad12)*%
X114300000Y-95760000D03*
%TO.P,J2,13*%
%TO.N,Net-(J2-Pad13)*%
X114300000Y-98050000D03*
%TO.P,J2,14*%
%TO.N,Net-(J2-Pad14)*%
X114300000Y-100340000D03*
%TO.P,J2,15*%
%TO.N,unconnected-(J2-Pad15)*%
X114300000Y-102630000D03*
%TD*%
D16*
%TO.P,J1,1,Pin_1*%
%TO.N,+5V*%
X88265000Y-83820000D03*
D17*
%TO.P,J1,2,Pin_2*%
%TO.N,GND*%
X85725000Y-83820000D03*
%TO.P,J1,3,Pin_3*%
%TO.N,unconnected-(J1-Pin_3-Pad3)*%
X88265000Y-86360000D03*
%TO.P,J1,4,Pin_4*%
%TO.N,unconnected-(J1-Pin_4-Pad4)*%
X85725000Y-86360000D03*
%TO.P,J1,5,Pin_5*%
%TO.N,/RED0*%
X88265000Y-88900000D03*
%TO.P,J1,6,Pin_6*%
%TO.N,/RED1*%
X85725000Y-88900000D03*
%TO.P,J1,7,Pin_7*%
%TO.N,/RED2*%
X88265000Y-91440000D03*
%TO.P,J1,8,Pin_8*%
%TO.N,/RED3*%
X85725000Y-91440000D03*
%TO.P,J1,9,Pin_9*%
%TO.N,/RED4*%
X88265000Y-93980000D03*
%TO.P,J1,10,Pin_10*%
%TO.N,/RED5*%
X85725000Y-93980000D03*
%TO.P,J1,11,Pin_11*%
%TO.N,/GREEN0*%
X88265000Y-96520000D03*
%TO.P,J1,12,Pin_12*%
%TO.N,/GREEN1*%
X85725000Y-96520000D03*
%TO.P,J1,13,Pin_13*%
%TO.N,/GREEN2*%
X88265000Y-99060000D03*
%TO.P,J1,14,Pin_14*%
%TO.N,/GREEN3*%
X85725000Y-99060000D03*
%TO.P,J1,15,Pin_15*%
%TO.N,/GREEN4*%
X88265000Y-101600000D03*
%TO.P,J1,16,Pin_16*%
%TO.N,/GREEN5*%
X85725000Y-101600000D03*
%TO.P,J1,17,Pin_17*%
%TO.N,/~{VGABLANK}*%
X88265000Y-104140000D03*
%TO.P,J1,18,Pin_18*%
%TO.N,/BLUE0*%
X85725000Y-104140000D03*
%TO.P,J1,19,Pin_19*%
%TO.N,+3V3*%
X88265000Y-106680000D03*
%TO.P,J1,20,Pin_20*%
%TO.N,GND*%
X85725000Y-106680000D03*
%TO.P,J1,21,Pin_21*%
%TO.N,+3V3*%
X88265000Y-109220000D03*
%TO.P,J1,22,Pin_22*%
%TO.N,GND*%
X85725000Y-109220000D03*
%TO.P,J1,23,Pin_23*%
%TO.N,/BLUE1*%
X88265000Y-111760000D03*
%TO.P,J1,24,Pin_24*%
%TO.N,/BLUE2*%
X85725000Y-111760000D03*
%TO.P,J1,25,Pin_25*%
%TO.N,/BLUE3*%
X88265000Y-114300000D03*
%TO.P,J1,26,Pin_26*%
%TO.N,/BLUE4*%
X85725000Y-114300000D03*
%TO.P,J1,27,Pin_27*%
%TO.N,/BLUE5*%
X88265000Y-116840000D03*
%TO.P,J1,28,Pin_28*%
%TO.N,/DACCLK*%
X85725000Y-116840000D03*
%TO.P,J1,29,Pin_29*%
%TO.N,/VSYNC*%
X88265000Y-119380000D03*
%TO.P,J1,30,Pin_30*%
%TO.N,/I2SMUTE*%
X85725000Y-119380000D03*
%TO.P,J1,31,Pin_31*%
%TO.N,/HSYNC*%
X88265000Y-121920000D03*
%TO.P,J1,32,Pin_32*%
%TO.N,unconnected-(J1-Pin_32-Pad32)*%
X85725000Y-121920000D03*
%TO.P,J1,33,Pin_33*%
%TO.N,/I2SBCK*%
X88265000Y-124460000D03*
%TO.P,J1,34,Pin_34*%
%TO.N,unconnected-(J1-Pin_34-Pad34)*%
X85725000Y-124460000D03*
%TO.P,J1,35,Pin_35*%
%TO.N,/I2SDIN*%
X88265000Y-127000000D03*
%TO.P,J1,36,Pin_36*%
%TO.N,unconnected-(J1-Pin_36-Pad36)*%
X85725000Y-127000000D03*
%TO.P,J1,37,Pin_37*%
%TO.N,/I2SLRCK*%
X88265000Y-129540000D03*
%TO.P,J1,38,Pin_38*%
%TO.N,unconnected-(J1-Pin_38-Pad38)*%
X85725000Y-129540000D03*
%TO.P,J1,39,Pin_39*%
%TO.N,+5V*%
X88265000Y-132080000D03*
%TO.P,J1,40,Pin_40*%
%TO.N,GND*%
X85725000Y-132080000D03*
%TD*%
D12*
%TO.P,H2,1,1*%
%TO.N,GND*%
X114300000Y-69850000D03*
%TD*%
%TO.P,H1,1,1*%
%TO.N,GND*%
X82550000Y-69850000D03*
%TD*%
D18*
%TO.P,C7,1*%
%TO.N,Net-(U2-VNEG)*%
X103820000Y-133731000D03*
%TO.P,C7,2*%
%TO.N,GNDA*%
X101920000Y-133731000D03*
%TD*%
D19*
%TO.P,C12,1*%
%TO.N,/I2S/DVDD*%
X106600000Y-128905000D03*
%TO.P,C12,2*%
%TO.N,GNDA*%
X109300000Y-128905000D03*
%TD*%
D20*
%TO.P,R4,1*%
%TO.N,/BLUE*%
X107315000Y-99417500D03*
%TO.P,R4,2*%
%TO.N,GND*%
X107315000Y-101242500D03*
%TD*%
D21*
%TO.P,C2,1*%
%TO.N,Net-(U1D-VREF)*%
X98425000Y-94300000D03*
%TO.P,C2,2*%
%TO.N,+3.3VDAC*%
X98425000Y-96200000D03*
%TD*%
D22*
%TO.P,R12,1*%
%TO.N,Net-(D1-K)*%
X86082500Y-76835000D03*
%TO.P,R12,2*%
%TO.N,GND*%
X87907500Y-76835000D03*
%TD*%
D23*
%TO.P,C4,1*%
%TO.N,/I2S/CPVDD*%
X100330000Y-131525000D03*
%TO.P,C4,2*%
%TO.N,GNDA*%
X100330000Y-128825000D03*
%TD*%
D20*
%TO.P,R3,1*%
%TO.N,/GREEN*%
X107315000Y-95330000D03*
%TO.P,R3,2*%
%TO.N,GND*%
X107315000Y-97155000D03*
%TD*%
D22*
%TO.P,R1,1*%
%TO.N,/RED*%
X110593500Y-89535000D03*
%TO.P,R1,2*%
%TO.N,GND*%
X112418500Y-89535000D03*
%TD*%
D21*
%TO.P,C3,1*%
%TO.N,+3.3VDAC*%
X99060000Y-98745000D03*
%TO.P,C3,2*%
%TO.N,GND*%
X99060000Y-100645000D03*
%TD*%
%TO.P,C1,1*%
%TO.N,Net-(U1D-COMP)*%
X100965000Y-94300000D03*
%TO.P,C1,2*%
%TO.N,+3.3VDAC*%
X100965000Y-96200000D03*
%TD*%
D24*
%TO.P,C8,1*%
%TO.N,/I2S/AVDD*%
X100965000Y-137160000D03*
%TO.P,C8,2*%
%TO.N,GNDA*%
X100965000Y-139860000D03*
%TD*%
D23*
%TO.P,C13,1*%
%TO.N,/I2S/LDOO*%
X111760000Y-131525000D03*
%TO.P,C13,2*%
%TO.N,GNDA*%
X111760000Y-128825000D03*
%TD*%
D25*
%TO.N,Net-(U1D-COMP)*%
X100965000Y-95250000D03*
D26*
%TO.N,+3V3*%
X94945000Y-136652000D03*
X94945000Y-126187000D03*
X94945000Y-129540000D03*
X94945000Y-133350000D03*
X89535000Y-76835000D03*
D25*
%TO.N,Net-(U1D-VREF)*%
X98425000Y-95250000D03*
D26*
%TO.N,GND*%
X105410000Y-97155000D03*
X88011000Y-79248000D03*
X99695000Y-96520000D03*
X104648000Y-141859000D03*
X100711000Y-98679000D03*
X103782500Y-101242500D03*
X107442000Y-141859000D03*
X96837500Y-94297500D03*
X106045000Y-143002000D03*
X103378000Y-86995000D03*
%TO.N,+3.3VDAC*%
X95250000Y-107950000D03*
X94234000Y-109474000D03*
X100965000Y-86995000D03*
X99695000Y-95250000D03*
X94234000Y-106299000D03*
X101473000Y-97790000D03*
X98171000Y-97790000D03*
%TO.N,/I2S/CPVDD*%
X101731000Y-131060000D03*
%TO.N,GNDA*%
X104775000Y-132360000D03*
X107315000Y-133664050D03*
X99735000Y-139700000D03*
X110490000Y-128905000D03*
X102108000Y-139700000D03*
X106045000Y-136779000D03*
X103251000Y-138557000D03*
X101600000Y-128905000D03*
X108966000Y-138557000D03*
D25*
%TO.N,Net-(U2-VNEG)*%
X104938375Y-133640375D03*
D26*
%TO.N,/I2S/AVDD*%
X99695000Y-135255000D03*
%TO.N,/I2S/DVDD*%
X108907500Y-130233500D03*
D25*
%TO.N,/I2S/LDOO*%
X110490000Y-132080000D03*
%TO.N,Net-(D1-K)*%
X84455000Y-76835000D03*
%TD*%
D27*
%TO.N,Net-(U1D-COMP)*%
X100965000Y-95250000D02*
X100965000Y-94300000D01*
%TO.N,Net-(U1D-VREF)*%
X98425000Y-95250000D02*
X98425000Y-94300000D01*
D28*
%TO.N,GND*%
X111875000Y-101485000D02*
X111984669Y-101485000D01*
X112400000Y-89553500D02*
X112400000Y-96905000D01*
X87907500Y-76835000D02*
X88011000Y-76938500D01*
X100711000Y-98679000D02*
X101219000Y-98679000D01*
X110500000Y-102630000D02*
X110730000Y-102630000D01*
X101219000Y-98679000D02*
X103782500Y-101242500D01*
X105410000Y-97155000D02*
X103886000Y-98679000D01*
X107315000Y-101242500D02*
X103782500Y-101242500D01*
X105410000Y-97155000D02*
X107315000Y-97155000D01*
X110730000Y-102630000D02*
X111875000Y-101485000D01*
X112418500Y-89535000D02*
X112400000Y-89553500D01*
X100711000Y-98994000D02*
X99060000Y-100645000D01*
X107315000Y-101242500D02*
X109112500Y-101242500D01*
X103886000Y-98679000D02*
X100711000Y-98679000D01*
X105410000Y-99615000D02*
X103782500Y-101242500D01*
X88011000Y-76938500D02*
X88011000Y-79248000D01*
X100711000Y-98679000D02*
X100711000Y-98994000D01*
X105410000Y-97155000D02*
X105410000Y-99615000D01*
X109112500Y-101242500D02*
X110500000Y-102630000D01*
%TO.N,+3.3VDAC*%
X98425000Y-96200000D02*
X98425000Y-97536000D01*
X98425000Y-96200000D02*
X98745000Y-96200000D01*
X100965000Y-97282000D02*
X101473000Y-97790000D01*
X98171000Y-97790000D02*
X99060000Y-98679000D01*
X100645000Y-96200000D02*
X100965000Y-96200000D01*
X99060000Y-98679000D02*
X99060000Y-98745000D01*
X98745000Y-96200000D02*
X99695000Y-95250000D01*
X98425000Y-97536000D02*
X98171000Y-97790000D01*
X100965000Y-96200000D02*
X100965000Y-97282000D01*
X99695000Y-95250000D02*
X100645000Y-96200000D01*
%TO.N,/I2S/CPVDD*%
X101266000Y-131525000D02*
X100330000Y-131525000D01*
X101731000Y-131060000D02*
X101266000Y-131525000D01*
%TO.N,GNDA*%
X103418000Y-132360000D02*
X104775000Y-132360000D01*
X100330000Y-128825000D02*
X101520000Y-128825000D01*
X110570000Y-128825000D02*
X110490000Y-128905000D01*
X109300000Y-128905000D02*
X110490000Y-128905000D01*
X99735000Y-139700000D02*
X100925000Y-139700000D01*
X101520000Y-128825000D02*
X101600000Y-128905000D01*
X111760000Y-128825000D02*
X110570000Y-128825000D01*
X102174000Y-133604000D02*
X103418000Y-132360000D01*
X102108000Y-139700000D02*
X100925000Y-139700000D01*
D27*
%TO.N,/RED*%
X110593500Y-89535000D02*
X110490000Y-89638500D01*
X110490000Y-93064669D02*
X110084669Y-93470000D01*
X110490000Y-89638500D02*
X110490000Y-93064669D01*
%TO.N,/BLUE*%
X107315000Y-99417500D02*
X109132500Y-99417500D01*
X109132500Y-99417500D02*
X110500000Y-98050000D01*
%TO.N,/GREEN*%
X107315000Y-95330000D02*
X108411000Y-95330000D01*
X108411000Y-95330000D02*
X108841000Y-95760000D01*
X108841000Y-95760000D02*
X110084669Y-95760000D01*
%TO.N,Net-(U2-VNEG)*%
X104110375Y-133640375D02*
X104074000Y-133604000D01*
X104938375Y-133640375D02*
X104110375Y-133640375D01*
D28*
%TO.N,/I2S/AVDD*%
X100925000Y-136485000D02*
X100925000Y-137000000D01*
X99695000Y-135255000D02*
X100925000Y-136485000D01*
%TO.N,/I2S/DVDD*%
X107928500Y-130233500D02*
X106600000Y-128905000D01*
X108907500Y-130233500D02*
X107928500Y-130233500D01*
D27*
%TO.N,/I2S/LDOO*%
X111045000Y-131525000D02*
X110490000Y-132080000D01*
X111760000Y-131525000D02*
X111045000Y-131525000D01*
%TO.N,Net-(D1-K)*%
X86082500Y-76835000D02*
X84455000Y-76835000D01*
D29*
%TO.N,+5V*%
X83312000Y-81280000D02*
X86995000Y-81280000D01*
X88265000Y-82550000D02*
X88265000Y-83820000D01*
X86995000Y-81280000D02*
X88265000Y-82550000D01*
X82042000Y-82550000D02*
X83312000Y-81280000D01*
X83439000Y-134874000D02*
X82042000Y-133477000D01*
X88265000Y-132080000D02*
X88265000Y-133282081D01*
X88265000Y-133282081D02*
X86673081Y-134874000D01*
X86673081Y-134874000D02*
X83439000Y-134874000D01*
X82042000Y-133477000D02*
X82042000Y-82550000D01*
%TD*%
%TA.AperFunction,Conductor*%
%TO.N,GNDA*%
G36*
X112973039Y-116224685D02*
G01*
X113018794Y-116277489D01*
X113030000Y-116329000D01*
X113030000Y-140846000D01*
X113010315Y-140913039D01*
X112957511Y-140958794D01*
X112906000Y-140970000D01*
X99057000Y-140970000D01*
X98989961Y-140950315D01*
X98944206Y-140897511D01*
X98933000Y-140846000D01*
X98933000Y-135188055D01*
X99186500Y-135188055D01*
X99186500Y-135321945D01*
X99221153Y-135451274D01*
X99288099Y-135567226D01*
X99382774Y-135661901D01*
X99498726Y-135728847D01*
X99628055Y-135763500D01*
X99657517Y-135763500D01*
X99724556Y-135783185D01*
X99745198Y-135799819D01*
X100198182Y-136252803D01*
X100231667Y-136314126D01*
X100226683Y-136383818D01*
X100210271Y-136414118D01*
X100145702Y-136501605D01*
X100101793Y-136627090D01*
X100099000Y-136656877D01*
X100099000Y-137663122D01*
X100101793Y-137692909D01*
X100101793Y-137692911D01*
X100101794Y-137692913D01*
X100145701Y-137818393D01*
X100145702Y-137818394D01*
X100224643Y-137925356D01*
X100287198Y-137971523D01*
X100331607Y-138004299D01*
X100457087Y-138048206D01*
X100469856Y-138049403D01*
X100486878Y-138051000D01*
X100486882Y-138051000D01*
X101443122Y-138051000D01*
X101458015Y-138049603D01*
X101472913Y-138048206D01*
X101598393Y-138004299D01*
X101705356Y-137925356D01*
X101784299Y-137818393D01*
X101828206Y-137692913D01*
X101831000Y-137663118D01*
X101831000Y-136656882D01*
X101828206Y-136627087D01*
X101784299Y-136501607D01*
X101719729Y-136414118D01*
X101705356Y-136394643D01*
X101598394Y-136315702D01*
X101598393Y-136315701D01*
X101472913Y-136271794D01*
X101472911Y-136271793D01*
X101472909Y-136271793D01*
X101443122Y-136269000D01*
X101443118Y-136269000D01*
X101254984Y-136269000D01*
X101187945Y-136249315D01*
X101167303Y-136232681D01*
X100239819Y-135305197D01*
X100206334Y-135243874D01*
X100203500Y-135217516D01*
X100203500Y-135188057D01*
X100203500Y-135188055D01*
X100168847Y-135058726D01*
X100101901Y-134942774D01*
X100007226Y-134848099D01*
X99891274Y-134781153D01*
X99761945Y-134746500D01*
X99628055Y-134746500D01*
X99498725Y-134781153D01*
X99382774Y-134848099D01*
X99382771Y-134848101D01*
X99288101Y-134942771D01*
X99288099Y-134942774D01*
X99221153Y-135058725D01*
X99221153Y-135058726D01*
X99186500Y-135188055D01*
X98933000Y-135188055D01*
X98933000Y-133202877D01*
X103129000Y-133202877D01*
X103129000Y-134259122D01*
X103131793Y-134288909D01*
X103131793Y-134288911D01*
X103131794Y-134288913D01*
X103175701Y-134414393D01*
X103175702Y-134414394D01*
X103254643Y-134521356D01*
X103317198Y-134567523D01*
X103361607Y-134600299D01*
X103487087Y-134644206D01*
X103499856Y-134645403D01*
X103516878Y-134647000D01*
X103516882Y-134647000D01*
X104123122Y-134647000D01*
X104138015Y-134645603D01*
X104152913Y-134644206D01*
X104278393Y-134600299D01*
X104385356Y-134521356D01*
X104464299Y-134414393D01*
X104508206Y-134288913D01*
X104511000Y-134259118D01*
X104511000Y-134122245D01*
X104530685Y-134055206D01*
X104583489Y-134009451D01*
X104652647Y-133999507D01*
X104696998Y-134014858D01*
X104766611Y-134055049D01*
X104879790Y-134085375D01*
X104879792Y-134085375D01*
X104996958Y-134085375D01*
X104996960Y-134085375D01*
X105110139Y-134055049D01*
X105211611Y-133996464D01*
X105294464Y-133913611D01*
X105353049Y-133812139D01*
X105383375Y-133698960D01*
X105383375Y-133581790D01*
X105353049Y-133468611D01*
X105294464Y-133367139D01*
X105211611Y-133284286D01*
X105110139Y-133225701D01*
X104996960Y-133195375D01*
X104879790Y-133195375D01*
X104766611Y-133225701D01*
X104766608Y-133225702D01*
X104693568Y-133267872D01*
X104625667Y-133284345D01*
X104559641Y-133261492D01*
X104516450Y-133206571D01*
X104510123Y-133180390D01*
X104509816Y-133180458D01*
X104508206Y-133173090D01*
X104508206Y-133173087D01*
X104464299Y-133047607D01*
X104431523Y-133003198D01*
X104385356Y-132940643D01*
X104278394Y-132861702D01*
X104278393Y-132861701D01*
X104152913Y-132817794D01*
X104152911Y-132817793D01*
X104152909Y-132817793D01*
X104123122Y-132815000D01*
X104123118Y-132815000D01*
X103516882Y-132815000D01*
X103516878Y-132815000D01*
X103487090Y-132817793D01*
X103487087Y-132817793D01*
X103487087Y-132817794D01*
X103361607Y-132861701D01*
X103361606Y-132861701D01*
X103361605Y-132861702D01*
X103254643Y-132940643D01*
X103175702Y-133047605D01*
X103131793Y-133173090D01*
X103129000Y-133202877D01*
X98933000Y-133202877D01*
X98933000Y-131021877D01*
X99464000Y-131021877D01*
X99464000Y-132028122D01*
X99466793Y-132057909D01*
X99466793Y-132057911D01*
X99466794Y-132057913D01*
X99510701Y-132183393D01*
X99510702Y-132183394D01*
X99589643Y-132290356D01*
X99652198Y-132336523D01*
X99696607Y-132369299D01*
X99822087Y-132413206D01*
X99834856Y-132414403D01*
X99851878Y-132416000D01*
X99851882Y-132416000D01*
X100808122Y-132416000D01*
X100823015Y-132414603D01*
X100837913Y-132413206D01*
X100963393Y-132369299D01*
X101070356Y-132290356D01*
X101149299Y-132183393D01*
X101193206Y-132057913D01*
X101196000Y-132028118D01*
X101196000Y-132021415D01*
X110045000Y-132021415D01*
X110045000Y-132138585D01*
X110075326Y-132251764D01*
X110133911Y-132353236D01*
X110216764Y-132436089D01*
X110318236Y-132494674D01*
X110431415Y-132525000D01*
X110431417Y-132525000D01*
X110548583Y-132525000D01*
X110548585Y-132525000D01*
X110661764Y-132494674D01*
X110763236Y-132436089D01*
X110846089Y-132353236D01*
X110854024Y-132339492D01*
X110904586Y-132291279D01*
X110973192Y-132278053D01*
X111035044Y-132301722D01*
X111126607Y-132369299D01*
X111252087Y-132413206D01*
X111264856Y-132414403D01*
X111281878Y-132416000D01*
X111281882Y-132416000D01*
X112238122Y-132416000D01*
X112253015Y-132414603D01*
X112267913Y-132413206D01*
X112393393Y-132369299D01*
X112500356Y-132290356D01*
X112579299Y-132183393D01*
X112623206Y-132057913D01*
X112626000Y-132028118D01*
X112626000Y-131021882D01*
X112623206Y-130992087D01*
X112579299Y-130866607D01*
X112517834Y-130783325D01*
X112500356Y-130759643D01*
X112393394Y-130680702D01*
X112393393Y-130680701D01*
X112267913Y-130636794D01*
X112267911Y-130636793D01*
X112267909Y-130636793D01*
X112238122Y-130634000D01*
X112238118Y-130634000D01*
X111281882Y-130634000D01*
X111281878Y-130634000D01*
X111252090Y-130636793D01*
X111252087Y-130636793D01*
X111252087Y-130636794D01*
X111126607Y-130680701D01*
X111126606Y-130680701D01*
X111126605Y-130680702D01*
X111019643Y-130759643D01*
X110940702Y-130866605D01*
X110896793Y-130992090D01*
X110894000Y-131021877D01*
X110894000Y-131219818D01*
X110874315Y-131286857D01*
X110857681Y-131307499D01*
X110566499Y-131598682D01*
X110505179Y-131632166D01*
X110478820Y-131635000D01*
X110431415Y-131635000D01*
X110318236Y-131665326D01*
X110318233Y-131665327D01*
X110216767Y-131723909D01*
X110216761Y-131723913D01*
X110133913Y-131806761D01*
X110133909Y-131806767D01*
X110075327Y-131908233D01*
X110075326Y-131908236D01*
X110045000Y-132021415D01*
X101196000Y-132021415D01*
X101196000Y-131998751D01*
X101215685Y-131931712D01*
X101268489Y-131885957D01*
X101304296Y-131878167D01*
X101303986Y-131875812D01*
X101312042Y-131874751D01*
X101312045Y-131874751D01*
X101400999Y-131850915D01*
X101432698Y-131832613D01*
X101432700Y-131832613D01*
X101480745Y-131804874D01*
X101480744Y-131804874D01*
X101480752Y-131804870D01*
X101545870Y-131739752D01*
X101545870Y-131739750D01*
X101556070Y-131729551D01*
X101556073Y-131729546D01*
X101680803Y-131604817D01*
X101742126Y-131571334D01*
X101768483Y-131568500D01*
X101797943Y-131568500D01*
X101797945Y-131568500D01*
X101927274Y-131533847D01*
X102043226Y-131466901D01*
X102137901Y-131372226D01*
X102204847Y-131256274D01*
X102239500Y-131126945D01*
X102239500Y-130993055D01*
X102204847Y-130863726D01*
X102137901Y-130747774D01*
X102043226Y-130653099D01*
X101927274Y-130586153D01*
X101797945Y-130551500D01*
X101664055Y-130551500D01*
X101534725Y-130586153D01*
X101418774Y-130653099D01*
X101418771Y-130653101D01*
X101324101Y-130747771D01*
X101324099Y-130747774D01*
X101303573Y-130783325D01*
X101253004Y-130831539D01*
X101184397Y-130844760D01*
X101119533Y-130818791D01*
X101096419Y-130794959D01*
X101070356Y-130759644D01*
X101046449Y-130742000D01*
X100963394Y-130680702D01*
X100963393Y-130680701D01*
X100837913Y-130636794D01*
X100837911Y-130636793D01*
X100837909Y-130636793D01*
X100808122Y-130634000D01*
X100808118Y-130634000D01*
X99851882Y-130634000D01*
X99851878Y-130634000D01*
X99822090Y-130636793D01*
X99822087Y-130636793D01*
X99822087Y-130636794D01*
X99696607Y-130680701D01*
X99696606Y-130680701D01*
X99696605Y-130680702D01*
X99589643Y-130759643D01*
X99510702Y-130866605D01*
X99466793Y-130992090D01*
X99464000Y-131021877D01*
X98933000Y-131021877D01*
X98933000Y-128426877D01*
X105709000Y-128426877D01*
X105709000Y-129383122D01*
X105711793Y-129412909D01*
X105711793Y-129412911D01*
X105711794Y-129412913D01*
X105755701Y-129538393D01*
X105755702Y-129538394D01*
X105834643Y-129645356D01*
X105897198Y-129691523D01*
X105941607Y-129724299D01*
X106067087Y-129768206D01*
X106079856Y-129769403D01*
X106096878Y-129771000D01*
X106096882Y-129771000D01*
X106920017Y-129771000D01*
X106987056Y-129790685D01*
X107007697Y-129807318D01*
X107713748Y-130513370D01*
X107793501Y-130559415D01*
X107882455Y-130583251D01*
X107882457Y-130583251D01*
X107982142Y-130583251D01*
X107982158Y-130583250D01*
X108486761Y-130583250D01*
X108553800Y-130602935D01*
X108574442Y-130619569D01*
X108595274Y-130640401D01*
X108711226Y-130707347D01*
X108840555Y-130742000D01*
X108840557Y-130742000D01*
X108974443Y-130742000D01*
X108974445Y-130742000D01*
X109103774Y-130707347D01*
X109219726Y-130640401D01*
X109314401Y-130545726D01*
X109381347Y-130429774D01*
X109416000Y-130300445D01*
X109416000Y-130166555D01*
X109381347Y-130037226D01*
X109314401Y-129921274D01*
X109219726Y-129826599D01*
X109103774Y-129759653D01*
X108974445Y-129725000D01*
X108840555Y-129725000D01*
X108711225Y-129759653D01*
X108595274Y-129826599D01*
X108595271Y-129826601D01*
X108574442Y-129847431D01*
X108513119Y-129880916D01*
X108486761Y-129883750D01*
X108124734Y-129883750D01*
X108057695Y-129864065D01*
X108037053Y-129847431D01*
X107527319Y-129337697D01*
X107493834Y-129276374D01*
X107491000Y-129250016D01*
X107491000Y-128426877D01*
X107488206Y-128397090D01*
X107488206Y-128397087D01*
X107444299Y-128271607D01*
X107411523Y-128227198D01*
X107365356Y-128164643D01*
X107258394Y-128085702D01*
X107258393Y-128085701D01*
X107132913Y-128041794D01*
X107132911Y-128041793D01*
X107132909Y-128041793D01*
X107103122Y-128039000D01*
X107103118Y-128039000D01*
X106096882Y-128039000D01*
X106096878Y-128039000D01*
X106067090Y-128041793D01*
X106067087Y-128041793D01*
X106067087Y-128041794D01*
X105941607Y-128085701D01*
X105941606Y-128085701D01*
X105941605Y-128085702D01*
X105834643Y-128164643D01*
X105755702Y-128271605D01*
X105711793Y-128397090D01*
X105709000Y-128426877D01*
X98933000Y-128426877D01*
X98933000Y-121296183D01*
X106024000Y-121296183D01*
X106024000Y-123233816D01*
X106035080Y-123289523D01*
X106035081Y-123289524D01*
X106077296Y-123352703D01*
X106140475Y-123394918D01*
X106140476Y-123394919D01*
X106196183Y-123405999D01*
X106196186Y-123406000D01*
X106196188Y-123406000D01*
X108133814Y-123406000D01*
X108133815Y-123405999D01*
X108147930Y-123403191D01*
X108189523Y-123394919D01*
X108189523Y-123394918D01*
X108189525Y-123394918D01*
X108252703Y-123352703D01*
X108294918Y-123289525D01*
X108294918Y-123289523D01*
X108294919Y-123289523D01*
X108305999Y-123233816D01*
X108306000Y-123233814D01*
X108306000Y-122588920D01*
X110414499Y-122588920D01*
X110443340Y-122733907D01*
X110443343Y-122733917D01*
X110499912Y-122870488D01*
X110499919Y-122870501D01*
X110582048Y-122993415D01*
X110582051Y-122993419D01*
X110686580Y-123097948D01*
X110686584Y-123097951D01*
X110809498Y-123180080D01*
X110809511Y-123180087D01*
X110939216Y-123233812D01*
X110946087Y-123236658D01*
X110946091Y-123236658D01*
X110946092Y-123236659D01*
X111091079Y-123265500D01*
X111091082Y-123265500D01*
X111238920Y-123265500D01*
X111336462Y-123246096D01*
X111383913Y-123236658D01*
X111520495Y-123180084D01*
X111643416Y-123097951D01*
X111747951Y-122993416D01*
X111830084Y-122870495D01*
X111886658Y-122733913D01*
X111915500Y-122588918D01*
X111915500Y-122441082D01*
X111915500Y-122441079D01*
X111886659Y-122296092D01*
X111886658Y-122296091D01*
X111886658Y-122296087D01*
X111886656Y-122296082D01*
X111830087Y-122159511D01*
X111830080Y-122159498D01*
X111747951Y-122036584D01*
X111747948Y-122036580D01*
X111643419Y-121932051D01*
X111643415Y-121932048D01*
X111520501Y-121849919D01*
X111520488Y-121849912D01*
X111383917Y-121793343D01*
X111383907Y-121793340D01*
X111238920Y-121764500D01*
X111238918Y-121764500D01*
X111091082Y-121764500D01*
X111091080Y-121764500D01*
X110946092Y-121793340D01*
X110946082Y-121793343D01*
X110809511Y-121849912D01*
X110809498Y-121849919D01*
X110686584Y-121932048D01*
X110686580Y-121932051D01*
X110582051Y-122036580D01*
X110582048Y-122036584D01*
X110499919Y-122159498D01*
X110499912Y-122159511D01*
X110443343Y-122296082D01*
X110443340Y-122296092D01*
X110414500Y-122441079D01*
X110414500Y-122441082D01*
X110414500Y-122588918D01*
X110414500Y-122588920D01*
X110414499Y-122588920D01*
X108306000Y-122588920D01*
X108306000Y-121296185D01*
X108305999Y-121296183D01*
X108294919Y-121240476D01*
X108294918Y-121240475D01*
X108252703Y-121177296D01*
X108189524Y-121135081D01*
X108189523Y-121135080D01*
X108133816Y-121124000D01*
X108133812Y-121124000D01*
X106196188Y-121124000D01*
X106196183Y-121124000D01*
X106140476Y-121135080D01*
X106140475Y-121135081D01*
X106077296Y-121177296D01*
X106035081Y-121240475D01*
X106035080Y-121240476D01*
X106024000Y-121296183D01*
X98933000Y-121296183D01*
X98933000Y-117588920D01*
X110414499Y-117588920D01*
X110443340Y-117733907D01*
X110443343Y-117733917D01*
X110499912Y-117870488D01*
X110499919Y-117870501D01*
X110582048Y-117993415D01*
X110582051Y-117993419D01*
X110686580Y-118097948D01*
X110686584Y-118097951D01*
X110809498Y-118180080D01*
X110809511Y-118180087D01*
X110946082Y-118236656D01*
X110946087Y-118236658D01*
X110946091Y-118236658D01*
X110946092Y-118236659D01*
X111091079Y-118265500D01*
X111091082Y-118265500D01*
X111238920Y-118265500D01*
X111336462Y-118246096D01*
X111383913Y-118236658D01*
X111520495Y-118180084D01*
X111643416Y-118097951D01*
X111747951Y-117993416D01*
X111830084Y-117870495D01*
X111886658Y-117733913D01*
X111915500Y-117588918D01*
X111915500Y-117441082D01*
X111915500Y-117441079D01*
X111886659Y-117296092D01*
X111886658Y-117296091D01*
X111886658Y-117296087D01*
X111886656Y-117296082D01*
X111830087Y-117159511D01*
X111830080Y-117159498D01*
X111747951Y-117036584D01*
X111747948Y-117036580D01*
X111643419Y-116932051D01*
X111643415Y-116932048D01*
X111520501Y-116849919D01*
X111520488Y-116849912D01*
X111383917Y-116793343D01*
X111383907Y-116793340D01*
X111238920Y-116764500D01*
X111238918Y-116764500D01*
X111091082Y-116764500D01*
X111091080Y-116764500D01*
X110946092Y-116793340D01*
X110946082Y-116793343D01*
X110809511Y-116849912D01*
X110809498Y-116849919D01*
X110686584Y-116932048D01*
X110686580Y-116932051D01*
X110582051Y-117036580D01*
X110582048Y-117036584D01*
X110499919Y-117159498D01*
X110499912Y-117159511D01*
X110443343Y-117296082D01*
X110443340Y-117296092D01*
X110414500Y-117441079D01*
X110414500Y-117441082D01*
X110414500Y-117588918D01*
X110414500Y-117588920D01*
X110414499Y-117588920D01*
X98933000Y-117588920D01*
X98933000Y-116329000D01*
X98952685Y-116261961D01*
X99005489Y-116216206D01*
X99057000Y-116205000D01*
X112906000Y-116205000D01*
X112973039Y-116224685D01*
G37*
%TD.AperFunction*%
%TD*%
M02*
