%TF.GenerationSoftware,KiCad,Pcbnew,9.0.2+1*%
%TF.CreationDate,2025-07-26T23:55:51+01:00*%
%TF.ProjectId,ICE40HXDevBoardVGA,49434534-3048-4584-9465-76426f617264,rev?*%
%TF.SameCoordinates,Original*%
%TF.FileFunction,Copper,L3,Inr*%
%TF.FilePolarity,Positive*%
%FSLAX46Y46*%
G04 Gerber Fmt 4.6, Leading zero omitted, Abs format (unit mm)*
G04 Created by KiCad (PCBNEW 9.0.2+1) date 2025-07-26 23:55:51*
%MOMM*%
%LPD*%
G01*
G04 APERTURE LIST*
%TA.AperFunction,ComponentPad*%
%ADD10R,1.900000X1.900000*%
%TD*%
%TA.AperFunction,ComponentPad*%
%ADD11C,1.900000*%
%TD*%
%TA.AperFunction,ComponentPad*%
%ADD12C,6.400000*%
%TD*%
%TA.AperFunction,ComponentPad*%
%ADD13C,4.000000*%
%TD*%
%TA.AperFunction,ComponentPad*%
%ADD14R,1.600000X1.600000*%
%TD*%
%TA.AperFunction,ComponentPad*%
%ADD15C,1.600000*%
%TD*%
%TA.AperFunction,ComponentPad*%
%ADD16R,1.700000X1.700000*%
%TD*%
%TA.AperFunction,ComponentPad*%
%ADD17O,1.700000X1.700000*%
%TD*%
%TA.AperFunction,ViaPad*%
%ADD18C,0.508000*%
%TD*%
%TA.AperFunction,ViaPad*%
%ADD19C,0.635000*%
%TD*%
G04 APERTURE END LIST*
D10*
%TO.N,Net-(C10-Pad1)*%
%TO.C,J3*%
X107165000Y-122265000D03*
D11*
%TO.N,GNDA*%
X107165000Y-117765000D03*
%TO.N,Net-(C11-Pad1)*%
X114665000Y-122915000D03*
X114665000Y-117115000D03*
%TD*%
D12*
%TO.N,GND*%
%TO.C,H4*%
X114300000Y-146050000D03*
%TD*%
%TO.N,GND*%
%TO.C,H3*%
X82550000Y-146050000D03*
%TD*%
D13*
%TO.N,GND*%
%TO.C,J2*%
X112390000Y-110285000D03*
X112390000Y-85285000D03*
D14*
%TO.N,/RED*%
X110500000Y-93470000D03*
D15*
%TO.N,/GREEN*%
X110500000Y-95760000D03*
%TO.N,/BLUE*%
X110500000Y-98050000D03*
%TO.N,unconnected-(J2-Pad4)*%
X110500000Y-100340000D03*
%TO.N,GND*%
X110500000Y-102630000D03*
X112400000Y-92325000D03*
X112400000Y-94615000D03*
X112400000Y-96905000D03*
%TO.N,unconnected-(J2-Pad9)*%
X112400000Y-99195000D03*
%TO.N,GND*%
X112400000Y-101485000D03*
%TO.N,unconnected-(J2-Pad11)*%
X114300000Y-93470000D03*
%TO.N,unconnected-(J2-Pad12)*%
X114300000Y-95760000D03*
%TO.N,Net-(J2-Pad13)*%
X114300000Y-98050000D03*
%TO.N,Net-(J2-Pad14)*%
X114300000Y-100340000D03*
%TO.N,unconnected-(J2-Pad15)*%
X114300000Y-102630000D03*
%TD*%
D16*
%TO.N,+5V*%
%TO.C,J1*%
X88265000Y-83820000D03*
D17*
%TO.N,GND*%
X85725000Y-83820000D03*
%TO.N,unconnected-(J1-Pin_3-Pad3)*%
X88265000Y-86360000D03*
%TO.N,unconnected-(J1-Pin_4-Pad4)*%
X85725000Y-86360000D03*
%TO.N,/RED0*%
X88265000Y-88900000D03*
%TO.N,/RED1*%
X85725000Y-88900000D03*
%TO.N,/RED2*%
X88265000Y-91440000D03*
%TO.N,/RED3*%
X85725000Y-91440000D03*
%TO.N,/RED4*%
X88265000Y-93980000D03*
%TO.N,/RED5*%
X85725000Y-93980000D03*
%TO.N,/GREEN0*%
X88265000Y-96520000D03*
%TO.N,/GREEN1*%
X85725000Y-96520000D03*
%TO.N,/GREEN2*%
X88265000Y-99060000D03*
%TO.N,/GREEN3*%
X85725000Y-99060000D03*
%TO.N,/GREEN4*%
X88265000Y-101600000D03*
%TO.N,/GREEN5*%
X85725000Y-101600000D03*
%TO.N,/~{VGABLANK}*%
X88265000Y-104140000D03*
%TO.N,/BLUE0*%
X85725000Y-104140000D03*
%TO.N,+3V3*%
X88265000Y-106680000D03*
%TO.N,GND*%
X85725000Y-106680000D03*
%TO.N,+3V3*%
X88265000Y-109220000D03*
%TO.N,GND*%
X85725000Y-109220000D03*
%TO.N,/BLUE1*%
X88265000Y-111760000D03*
%TO.N,/BLUE2*%
X85725000Y-111760000D03*
%TO.N,/BLUE3*%
X88265000Y-114300000D03*
%TO.N,/BLUE4*%
X85725000Y-114300000D03*
%TO.N,/BLUE5*%
X88265000Y-116840000D03*
%TO.N,/DACCLK*%
X85725000Y-116840000D03*
%TO.N,/VSYNC*%
X88265000Y-119380000D03*
%TO.N,/I2SMUTE*%
X85725000Y-119380000D03*
%TO.N,/HSYNC*%
X88265000Y-121920000D03*
%TO.N,unconnected-(J1-Pin_32-Pad32)*%
X85725000Y-121920000D03*
%TO.N,/I2SBCK*%
X88265000Y-124460000D03*
%TO.N,unconnected-(J1-Pin_34-Pad34)*%
X85725000Y-124460000D03*
%TO.N,/I2SDIN*%
X88265000Y-127000000D03*
%TO.N,unconnected-(J1-Pin_36-Pad36)*%
X85725000Y-127000000D03*
%TO.N,/I2SLRCK*%
X88265000Y-129540000D03*
%TO.N,unconnected-(J1-Pin_38-Pad38)*%
X85725000Y-129540000D03*
%TO.N,+5V*%
X88265000Y-132080000D03*
%TO.N,GND*%
X85725000Y-132080000D03*
%TD*%
D12*
%TO.N,GND*%
%TO.C,H2*%
X114300000Y-69850000D03*
%TD*%
%TO.N,GND*%
%TO.C,H1*%
X82550000Y-69850000D03*
%TD*%
D18*
%TO.N,Net-(U1D-COMP)*%
X100965000Y-95250000D03*
D19*
%TO.N,+3V3*%
X94945000Y-136652000D03*
X94945000Y-126187000D03*
X94945000Y-129540000D03*
X94945000Y-133350000D03*
X89535000Y-76835000D03*
D18*
%TO.N,Net-(U1D-VREF)*%
X98425000Y-95250000D03*
D19*
%TO.N,GND*%
X105410000Y-97155000D03*
X88011000Y-79248000D03*
X99695000Y-96520000D03*
X104648000Y-141859000D03*
X100711000Y-98679000D03*
X103782500Y-101242500D03*
X107442000Y-141859000D03*
X96837500Y-94297500D03*
X106045000Y-143002000D03*
X103378000Y-86995000D03*
%TO.N,+3.3VDAC*%
X95250000Y-107950000D03*
X94234000Y-109474000D03*
X100965000Y-86995000D03*
X99695000Y-95250000D03*
X94234000Y-106299000D03*
X101473000Y-97790000D03*
X98171000Y-97790000D03*
%TO.N,/I2S/CPVDD*%
X101731000Y-131060000D03*
%TO.N,GNDA*%
X104775000Y-132360000D03*
X107315000Y-133664050D03*
X99735000Y-139700000D03*
X110490000Y-128905000D03*
X102108000Y-139700000D03*
X106045000Y-136779000D03*
X103251000Y-138557000D03*
X101600000Y-128905000D03*
X108966000Y-138557000D03*
D18*
%TO.N,Net-(U2-VNEG)*%
X104938375Y-133640375D03*
D19*
%TO.N,/I2S/AVDD*%
X99695000Y-135255000D03*
%TO.N,/I2S/DVDD*%
X108907500Y-130233500D03*
D18*
%TO.N,/I2S/LDOO*%
X110490000Y-132080000D03*
%TO.N,Net-(D1-K)*%
X84455000Y-76835000D03*
%TD*%
%TA.AperFunction,Conductor*%
%TO.N,GND*%
G36*
X78945203Y-146978447D02*
G01*
X78982661Y-147036165D01*
X79062086Y-147297997D01*
X79201207Y-147633864D01*
X79201209Y-147633869D01*
X79372570Y-147954462D01*
X79372581Y-147954480D01*
X79574551Y-148256750D01*
X79761678Y-148484765D01*
X79761679Y-148484766D01*
X81255747Y-146990697D01*
X81329588Y-147092330D01*
X81507670Y-147270412D01*
X81609301Y-147344251D01*
X80115232Y-148838319D01*
X80115233Y-148838320D01*
X80343249Y-149025448D01*
X80645519Y-149227418D01*
X80645537Y-149227429D01*
X80966130Y-149398790D01*
X80966135Y-149398792D01*
X81302002Y-149537913D01*
X81563834Y-149617339D01*
X81622273Y-149655637D01*
X81650729Y-149719449D01*
X81640169Y-149788516D01*
X81593945Y-149840910D01*
X81527839Y-149860000D01*
X80302596Y-149860000D01*
X80235973Y-149840581D01*
X80005289Y-149693619D01*
X79996448Y-149687428D01*
X79953922Y-149654797D01*
X79697422Y-149457978D01*
X79689135Y-149451024D01*
X79411255Y-149196393D01*
X79403606Y-149188744D01*
X79148975Y-148910864D01*
X79142021Y-148902577D01*
X79031718Y-148758827D01*
X78912564Y-148603542D01*
X78906383Y-148594715D01*
X78759418Y-148364026D01*
X78740000Y-148297404D01*
X78740000Y-147072160D01*
X78759685Y-147005121D01*
X78812489Y-146959366D01*
X78881647Y-146949422D01*
X78945203Y-146978447D01*
G37*
%TD.AperFunction*%
%TA.AperFunction,Conductor*%
G36*
X85975000Y-108786988D02*
G01*
X85917993Y-108754075D01*
X85790826Y-108720000D01*
X85659174Y-108720000D01*
X85532007Y-108754075D01*
X85475000Y-108786988D01*
X85475000Y-107113012D01*
X85532007Y-107145925D01*
X85659174Y-107180000D01*
X85790826Y-107180000D01*
X85917993Y-107145925D01*
X85975000Y-107113012D01*
X85975000Y-108786988D01*
G37*
%TD.AperFunction*%
%TA.AperFunction,Conductor*%
G36*
X113344878Y-66059685D02*
G01*
X113390633Y-66112489D01*
X113400577Y-66181647D01*
X113371552Y-66245203D01*
X113313834Y-66282661D01*
X113052002Y-66362086D01*
X112716135Y-66501207D01*
X112716130Y-66501209D01*
X112395537Y-66672570D01*
X112395519Y-66672581D01*
X112093258Y-66874545D01*
X112093254Y-66874548D01*
X111865233Y-67061679D01*
X111865233Y-67061680D01*
X113359301Y-68555748D01*
X113257670Y-68629588D01*
X113079588Y-68807670D01*
X113005748Y-68909301D01*
X111511680Y-67415233D01*
X111511679Y-67415233D01*
X111324548Y-67643254D01*
X111324545Y-67643258D01*
X111122581Y-67945519D01*
X111122570Y-67945537D01*
X110951209Y-68266130D01*
X110951207Y-68266135D01*
X110812086Y-68602002D01*
X110706553Y-68949898D01*
X110706550Y-68949909D01*
X110635632Y-69306443D01*
X110600000Y-69668234D01*
X110600000Y-70031765D01*
X110635632Y-70393556D01*
X110706550Y-70750090D01*
X110706553Y-70750101D01*
X110812086Y-71097997D01*
X110951207Y-71433864D01*
X110951209Y-71433869D01*
X111122570Y-71754462D01*
X111122581Y-71754480D01*
X111324551Y-72056750D01*
X111511678Y-72284765D01*
X111511679Y-72284766D01*
X113005747Y-70790697D01*
X113079588Y-70892330D01*
X113257670Y-71070412D01*
X113359301Y-71144251D01*
X111865232Y-72638319D01*
X111865233Y-72638320D01*
X112093249Y-72825448D01*
X112395519Y-73027418D01*
X112395537Y-73027429D01*
X112716130Y-73198790D01*
X112716135Y-73198792D01*
X113052002Y-73337913D01*
X113399898Y-73443446D01*
X113399909Y-73443449D01*
X113756443Y-73514367D01*
X114118234Y-73550000D01*
X114481766Y-73550000D01*
X114843556Y-73514367D01*
X115200090Y-73443449D01*
X115200101Y-73443446D01*
X115547997Y-73337913D01*
X115883864Y-73198792D01*
X115883869Y-73198790D01*
X116204462Y-73027429D01*
X116204480Y-73027418D01*
X116506736Y-72825457D01*
X116506750Y-72825447D01*
X116734765Y-72638320D01*
X116734766Y-72638319D01*
X115240698Y-71144251D01*
X115342330Y-71070412D01*
X115520412Y-70892330D01*
X115594251Y-70790698D01*
X117088319Y-72284766D01*
X117088320Y-72284765D01*
X117275447Y-72056750D01*
X117275457Y-72056736D01*
X117477418Y-71754480D01*
X117477429Y-71754462D01*
X117648790Y-71433869D01*
X117648792Y-71433864D01*
X117787913Y-71097997D01*
X117867339Y-70836165D01*
X117905637Y-70777726D01*
X117969449Y-70749270D01*
X118038516Y-70759830D01*
X118090910Y-70806054D01*
X118110000Y-70872160D01*
X118110000Y-145027839D01*
X118090315Y-145094878D01*
X118037511Y-145140633D01*
X117968353Y-145150577D01*
X117904797Y-145121552D01*
X117867339Y-145063834D01*
X117787913Y-144802002D01*
X117648792Y-144466135D01*
X117648790Y-144466130D01*
X117477429Y-144145537D01*
X117477418Y-144145519D01*
X117275448Y-143843249D01*
X117088320Y-143615233D01*
X117088319Y-143615232D01*
X115594251Y-145109300D01*
X115520412Y-145007670D01*
X115342330Y-144829588D01*
X115240698Y-144755748D01*
X116734766Y-143261679D01*
X116734765Y-143261678D01*
X116506750Y-143074551D01*
X116204480Y-142872581D01*
X116204462Y-142872570D01*
X115883869Y-142701209D01*
X115883864Y-142701207D01*
X115547997Y-142562086D01*
X115200101Y-142456553D01*
X115200090Y-142456550D01*
X114843556Y-142385632D01*
X114481766Y-142350000D01*
X114118234Y-142350000D01*
X113756443Y-142385632D01*
X113399909Y-142456550D01*
X113399898Y-142456553D01*
X113052002Y-142562086D01*
X112716135Y-142701207D01*
X112716130Y-142701209D01*
X112395537Y-142872570D01*
X112395519Y-142872581D01*
X112093258Y-143074545D01*
X112093254Y-143074548D01*
X111865233Y-143261679D01*
X111865233Y-143261680D01*
X113359301Y-144755748D01*
X113257670Y-144829588D01*
X113079588Y-145007670D01*
X113005748Y-145109301D01*
X111511680Y-143615233D01*
X111511679Y-143615233D01*
X111324548Y-143843254D01*
X111324545Y-143843258D01*
X111122581Y-144145519D01*
X111122570Y-144145537D01*
X110951209Y-144466130D01*
X110951207Y-144466135D01*
X110812086Y-144802002D01*
X110706553Y-145149898D01*
X110706550Y-145149909D01*
X110635632Y-145506443D01*
X110600000Y-145868234D01*
X110600000Y-146231765D01*
X110635632Y-146593556D01*
X110706550Y-146950090D01*
X110706553Y-146950101D01*
X110812086Y-147297997D01*
X110951207Y-147633864D01*
X110951209Y-147633869D01*
X111122570Y-147954462D01*
X111122581Y-147954480D01*
X111324551Y-148256750D01*
X111511678Y-148484765D01*
X111511679Y-148484766D01*
X113005747Y-146990697D01*
X113079588Y-147092330D01*
X113257670Y-147270412D01*
X113359301Y-147344251D01*
X111865232Y-148838319D01*
X111865233Y-148838320D01*
X112093249Y-149025448D01*
X112395519Y-149227418D01*
X112395537Y-149227429D01*
X112716130Y-149398790D01*
X112716135Y-149398792D01*
X113052002Y-149537913D01*
X113313834Y-149617339D01*
X113372273Y-149655637D01*
X113400729Y-149719449D01*
X113390169Y-149788516D01*
X113343945Y-149840910D01*
X113277839Y-149860000D01*
X83572161Y-149860000D01*
X83505122Y-149840315D01*
X83459367Y-149787511D01*
X83449423Y-149718353D01*
X83478448Y-149654797D01*
X83536166Y-149617339D01*
X83797997Y-149537913D01*
X84133864Y-149398792D01*
X84133869Y-149398790D01*
X84454462Y-149227429D01*
X84454480Y-149227418D01*
X84756736Y-149025457D01*
X84756750Y-149025447D01*
X84984765Y-148838320D01*
X84984766Y-148838319D01*
X83490698Y-147344251D01*
X83592330Y-147270412D01*
X83770412Y-147092330D01*
X83844251Y-146990698D01*
X85338319Y-148484766D01*
X85338320Y-148484765D01*
X85525447Y-148256750D01*
X85525457Y-148256736D01*
X85727418Y-147954480D01*
X85727429Y-147954462D01*
X85898790Y-147633869D01*
X85898792Y-147633864D01*
X86037913Y-147297997D01*
X86143446Y-146950101D01*
X86143449Y-146950090D01*
X86214367Y-146593556D01*
X86250000Y-146231765D01*
X86250000Y-145868234D01*
X86214367Y-145506443D01*
X86143449Y-145149909D01*
X86143446Y-145149898D01*
X86037913Y-144802002D01*
X85898792Y-144466135D01*
X85898790Y-144466130D01*
X85727429Y-144145537D01*
X85727418Y-144145519D01*
X85525448Y-143843249D01*
X85338320Y-143615233D01*
X85338319Y-143615232D01*
X83844251Y-145109300D01*
X83770412Y-145007670D01*
X83592330Y-144829588D01*
X83490698Y-144755748D01*
X84984766Y-143261679D01*
X84984765Y-143261678D01*
X84756750Y-143074551D01*
X84454480Y-142872581D01*
X84454462Y-142872570D01*
X84133869Y-142701209D01*
X84133864Y-142701207D01*
X83797997Y-142562086D01*
X83450101Y-142456553D01*
X83450090Y-142456550D01*
X83093556Y-142385632D01*
X82731766Y-142350000D01*
X82368234Y-142350000D01*
X82006443Y-142385632D01*
X81649909Y-142456550D01*
X81649898Y-142456553D01*
X81302002Y-142562086D01*
X80966135Y-142701207D01*
X80966130Y-142701209D01*
X80645537Y-142872570D01*
X80645519Y-142872581D01*
X80343258Y-143074545D01*
X80343254Y-143074548D01*
X80115233Y-143261679D01*
X80115233Y-143261680D01*
X81609301Y-144755748D01*
X81507670Y-144829588D01*
X81329588Y-145007670D01*
X81255748Y-145109301D01*
X79761680Y-143615233D01*
X79761679Y-143615233D01*
X79574548Y-143843254D01*
X79574545Y-143843258D01*
X79372581Y-144145519D01*
X79372570Y-144145537D01*
X79201209Y-144466130D01*
X79201207Y-144466135D01*
X79062086Y-144802002D01*
X78982661Y-145063834D01*
X78944363Y-145122273D01*
X78880551Y-145150729D01*
X78811484Y-145140169D01*
X78759090Y-145093945D01*
X78740000Y-145027839D01*
X78740000Y-139619429D01*
X98917000Y-139619429D01*
X98917000Y-139780570D01*
X98948433Y-139938594D01*
X98948435Y-139938602D01*
X99010096Y-140087466D01*
X99099619Y-140221447D01*
X99213552Y-140335380D01*
X99347533Y-140424903D01*
X99421965Y-140455733D01*
X99496398Y-140486565D01*
X99654429Y-140517999D01*
X99654433Y-140518000D01*
X99654434Y-140518000D01*
X99815567Y-140518000D01*
X99815568Y-140517999D01*
X99973602Y-140486565D01*
X100122468Y-140424902D01*
X100256445Y-140335382D01*
X100370382Y-140221445D01*
X100459902Y-140087468D01*
X100521565Y-139938602D01*
X100553000Y-139780566D01*
X100553000Y-139619434D01*
X100552999Y-139619429D01*
X101290000Y-139619429D01*
X101290000Y-139780570D01*
X101321433Y-139938594D01*
X101321435Y-139938602D01*
X101383096Y-140087466D01*
X101472619Y-140221447D01*
X101586552Y-140335380D01*
X101720533Y-140424903D01*
X101794965Y-140455733D01*
X101869398Y-140486565D01*
X102027429Y-140517999D01*
X102027433Y-140518000D01*
X102027434Y-140518000D01*
X102188567Y-140518000D01*
X102188568Y-140517999D01*
X102346602Y-140486565D01*
X102495468Y-140424902D01*
X102629445Y-140335382D01*
X102743382Y-140221445D01*
X102832902Y-140087468D01*
X102894565Y-139938602D01*
X102926000Y-139780566D01*
X102926000Y-139619434D01*
X102901511Y-139496318D01*
X102907738Y-139426728D01*
X102950601Y-139371551D01*
X103016491Y-139348306D01*
X103047317Y-139350510D01*
X103170432Y-139374999D01*
X103170433Y-139375000D01*
X103170434Y-139375000D01*
X103331567Y-139375000D01*
X103331568Y-139374999D01*
X103489602Y-139343565D01*
X103638468Y-139281902D01*
X103772445Y-139192382D01*
X103886382Y-139078445D01*
X103975902Y-138944468D01*
X104037565Y-138795602D01*
X104069000Y-138637566D01*
X104069000Y-138476434D01*
X104068999Y-138476429D01*
X108148000Y-138476429D01*
X108148000Y-138637570D01*
X108179433Y-138795594D01*
X108179435Y-138795602D01*
X108241096Y-138944466D01*
X108330619Y-139078447D01*
X108444552Y-139192380D01*
X108578533Y-139281903D01*
X108652479Y-139312532D01*
X108727398Y-139343565D01*
X108868095Y-139371551D01*
X108885429Y-139374999D01*
X108885433Y-139375000D01*
X108885434Y-139375000D01*
X109046567Y-139375000D01*
X109046568Y-139374999D01*
X109204602Y-139343565D01*
X109353468Y-139281902D01*
X109487445Y-139192382D01*
X109601382Y-139078445D01*
X109690902Y-138944468D01*
X109752565Y-138795602D01*
X109784000Y-138637566D01*
X109784000Y-138476434D01*
X109752565Y-138318398D01*
X109721733Y-138243965D01*
X109690903Y-138169533D01*
X109601380Y-138035552D01*
X109487447Y-137921619D01*
X109353466Y-137832096D01*
X109204602Y-137770435D01*
X109204594Y-137770433D01*
X109046570Y-137739000D01*
X109046566Y-137739000D01*
X108885434Y-137739000D01*
X108885429Y-137739000D01*
X108727405Y-137770433D01*
X108727397Y-137770435D01*
X108578533Y-137832096D01*
X108444552Y-137921619D01*
X108330619Y-138035552D01*
X108241096Y-138169533D01*
X108179435Y-138318397D01*
X108179433Y-138318405D01*
X108148000Y-138476429D01*
X104068999Y-138476429D01*
X104037565Y-138318398D01*
X104006733Y-138243965D01*
X103975903Y-138169533D01*
X103886380Y-138035552D01*
X103772447Y-137921619D01*
X103638466Y-137832096D01*
X103489602Y-137770435D01*
X103489594Y-137770433D01*
X103331570Y-137739000D01*
X103331566Y-137739000D01*
X103170434Y-137739000D01*
X103170429Y-137739000D01*
X103012405Y-137770433D01*
X103012397Y-137770435D01*
X102863533Y-137832096D01*
X102729552Y-137921619D01*
X102615619Y-138035552D01*
X102526096Y-138169533D01*
X102464435Y-138318397D01*
X102464433Y-138318405D01*
X102433000Y-138476429D01*
X102433000Y-138637570D01*
X102457488Y-138760680D01*
X102451261Y-138830272D01*
X102408397Y-138885449D01*
X102342508Y-138908693D01*
X102311680Y-138906488D01*
X102188570Y-138882000D01*
X102188566Y-138882000D01*
X102027434Y-138882000D01*
X102027429Y-138882000D01*
X101869405Y-138913433D01*
X101869397Y-138913435D01*
X101720533Y-138975096D01*
X101586552Y-139064619D01*
X101472619Y-139178552D01*
X101383096Y-139312533D01*
X101321435Y-139461397D01*
X101321433Y-139461405D01*
X101290000Y-139619429D01*
X100552999Y-139619429D01*
X100521565Y-139461398D01*
X100475634Y-139350511D01*
X100459903Y-139312533D01*
X100370380Y-139178552D01*
X100256447Y-139064619D01*
X100122466Y-138975096D01*
X99973602Y-138913435D01*
X99973594Y-138913433D01*
X99815570Y-138882000D01*
X99815566Y-138882000D01*
X99654434Y-138882000D01*
X99654429Y-138882000D01*
X99496405Y-138913433D01*
X99496397Y-138913435D01*
X99347533Y-138975096D01*
X99213552Y-139064619D01*
X99099619Y-139178552D01*
X99010096Y-139312533D01*
X98948435Y-139461397D01*
X98948433Y-139461405D01*
X98917000Y-139619429D01*
X78740000Y-139619429D01*
X78740000Y-136571429D01*
X94127000Y-136571429D01*
X94127000Y-136732570D01*
X94158433Y-136890594D01*
X94158435Y-136890602D01*
X94220096Y-137039466D01*
X94309619Y-137173447D01*
X94423552Y-137287380D01*
X94557533Y-137376903D01*
X94631965Y-137407733D01*
X94706398Y-137438565D01*
X94864429Y-137469999D01*
X94864433Y-137470000D01*
X94864434Y-137470000D01*
X95025567Y-137470000D01*
X95025568Y-137469999D01*
X95183602Y-137438565D01*
X95332468Y-137376902D01*
X95466445Y-137287382D01*
X95580382Y-137173445D01*
X95669902Y-137039468D01*
X95731565Y-136890602D01*
X95763000Y-136732566D01*
X95763000Y-136698429D01*
X105227000Y-136698429D01*
X105227000Y-136859570D01*
X105258433Y-137017594D01*
X105258435Y-137017602D01*
X105320096Y-137166466D01*
X105409619Y-137300447D01*
X105523552Y-137414380D01*
X105657533Y-137503903D01*
X105731965Y-137534733D01*
X105806398Y-137565565D01*
X105964429Y-137596999D01*
X105964433Y-137597000D01*
X105964434Y-137597000D01*
X106125567Y-137597000D01*
X106125568Y-137596999D01*
X106283602Y-137565565D01*
X106432468Y-137503902D01*
X106566445Y-137414382D01*
X106680382Y-137300445D01*
X106769902Y-137166468D01*
X106831565Y-137017602D01*
X106863000Y-136859566D01*
X106863000Y-136698434D01*
X106831565Y-136540398D01*
X106800733Y-136465965D01*
X106769903Y-136391533D01*
X106680380Y-136257552D01*
X106566447Y-136143619D01*
X106432466Y-136054096D01*
X106283602Y-135992435D01*
X106283594Y-135992433D01*
X106125570Y-135961000D01*
X106125566Y-135961000D01*
X105964434Y-135961000D01*
X105964429Y-135961000D01*
X105806405Y-135992433D01*
X105806397Y-135992435D01*
X105657533Y-136054096D01*
X105523552Y-136143619D01*
X105409619Y-136257552D01*
X105320096Y-136391533D01*
X105258435Y-136540397D01*
X105258433Y-136540405D01*
X105227000Y-136698429D01*
X95763000Y-136698429D01*
X95763000Y-136571434D01*
X95731565Y-136413398D01*
X95700733Y-136338965D01*
X95669903Y-136264533D01*
X95580380Y-136130552D01*
X95466447Y-136016619D01*
X95332466Y-135927096D01*
X95183602Y-135865435D01*
X95183594Y-135865433D01*
X95025570Y-135834000D01*
X95025566Y-135834000D01*
X94864434Y-135834000D01*
X94864429Y-135834000D01*
X94706405Y-135865433D01*
X94706397Y-135865435D01*
X94557533Y-135927096D01*
X94423552Y-136016619D01*
X94309619Y-136130552D01*
X94220096Y-136264533D01*
X94158435Y-136413397D01*
X94158433Y-136413405D01*
X94127000Y-136571429D01*
X78740000Y-136571429D01*
X78740000Y-135174429D01*
X98877000Y-135174429D01*
X98877000Y-135335570D01*
X98908433Y-135493594D01*
X98908435Y-135493602D01*
X98970096Y-135642466D01*
X99059619Y-135776447D01*
X99173552Y-135890380D01*
X99307533Y-135979903D01*
X99381965Y-136010733D01*
X99456398Y-136041565D01*
X99614429Y-136072999D01*
X99614433Y-136073000D01*
X99614434Y-136073000D01*
X99775567Y-136073000D01*
X99775568Y-136072999D01*
X99933602Y-136041565D01*
X100082468Y-135979902D01*
X100216445Y-135890382D01*
X100330382Y-135776445D01*
X100419902Y-135642468D01*
X100481565Y-135493602D01*
X100513000Y-135335566D01*
X100513000Y-135174434D01*
X100481565Y-135016398D01*
X100450733Y-134941965D01*
X100419903Y-134867533D01*
X100330380Y-134733552D01*
X100216447Y-134619619D01*
X100082466Y-134530096D01*
X99933602Y-134468435D01*
X99933594Y-134468433D01*
X99775570Y-134437000D01*
X99775566Y-134437000D01*
X99614434Y-134437000D01*
X99614429Y-134437000D01*
X99456405Y-134468433D01*
X99456397Y-134468435D01*
X99307533Y-134530096D01*
X99173552Y-134619619D01*
X99059619Y-134733552D01*
X98970096Y-134867533D01*
X98908435Y-135016397D01*
X98908433Y-135016405D01*
X98877000Y-135174429D01*
X78740000Y-135174429D01*
X78740000Y-86253713D01*
X84374500Y-86253713D01*
X84374500Y-86466286D01*
X84404142Y-86653443D01*
X84407754Y-86676243D01*
X84433800Y-86756405D01*
X84473444Y-86878414D01*
X84569951Y-87067820D01*
X84694890Y-87239786D01*
X84845213Y-87390109D01*
X85017182Y-87515050D01*
X85025946Y-87519516D01*
X85076742Y-87567491D01*
X85093536Y-87635312D01*
X85070998Y-87701447D01*
X85025946Y-87740484D01*
X85017182Y-87744949D01*
X84845213Y-87869890D01*
X84694890Y-88020213D01*
X84569951Y-88192179D01*
X84473444Y-88381585D01*
X84407753Y-88583760D01*
X84374500Y-88793713D01*
X84374500Y-89006286D01*
X84407753Y-89216239D01*
X84473444Y-89418414D01*
X84569951Y-89607820D01*
X84694890Y-89779786D01*
X84845213Y-89930109D01*
X85017182Y-90055050D01*
X85025946Y-90059516D01*
X85076742Y-90107491D01*
X85093536Y-90175312D01*
X85070998Y-90241447D01*
X85025946Y-90280484D01*
X85017182Y-90284949D01*
X84845213Y-90409890D01*
X84694890Y-90560213D01*
X84569951Y-90732179D01*
X84473444Y-90921585D01*
X84407753Y-91123760D01*
X84393596Y-91213147D01*
X84374500Y-91333713D01*
X84374500Y-91546287D01*
X84407754Y-91756243D01*
X84441166Y-91859075D01*
X84473444Y-91958414D01*
X84569951Y-92147820D01*
X84694890Y-92319786D01*
X84845213Y-92470109D01*
X85017182Y-92595050D01*
X85025946Y-92599516D01*
X85076742Y-92647491D01*
X85093536Y-92715312D01*
X85070998Y-92781447D01*
X85025946Y-92820484D01*
X85017182Y-92824949D01*
X84845213Y-92949890D01*
X84694890Y-93100213D01*
X84569951Y-93272179D01*
X84473444Y-93461585D01*
X84407753Y-93663760D01*
X84374500Y-93873713D01*
X84374500Y-94086286D01*
X84394870Y-94214901D01*
X84407754Y-94296243D01*
X84462078Y-94463435D01*
X84473444Y-94498414D01*
X84569951Y-94687820D01*
X84694890Y-94859786D01*
X84845213Y-95010109D01*
X85017182Y-95135050D01*
X85025946Y-95139516D01*
X85076742Y-95187491D01*
X85093536Y-95255312D01*
X85070998Y-95321447D01*
X85025946Y-95360484D01*
X85017182Y-95364949D01*
X84845213Y-95489890D01*
X84694890Y-95640213D01*
X84569951Y-95812179D01*
X84473444Y-96001585D01*
X84407753Y-96203760D01*
X84374500Y-96413713D01*
X84374500Y-96626286D01*
X84394406Y-96751971D01*
X84407754Y-96836243D01*
X84462690Y-97005319D01*
X84473444Y-97038414D01*
X84569951Y-97227820D01*
X84694890Y-97399786D01*
X84845213Y-97550109D01*
X85017182Y-97675050D01*
X85025946Y-97679516D01*
X85076742Y-97727491D01*
X85093536Y-97795312D01*
X85070998Y-97861447D01*
X85025946Y-97900484D01*
X85017182Y-97904949D01*
X84845213Y-98029890D01*
X84694890Y-98180213D01*
X84569951Y-98352179D01*
X84473444Y-98541585D01*
X84407753Y-98743760D01*
X84374500Y-98953713D01*
X84374500Y-99166286D01*
X84403285Y-99348032D01*
X84407754Y-99376243D01*
X84445621Y-99492786D01*
X84473444Y-99578414D01*
X84569951Y-99767820D01*
X84694890Y-99939786D01*
X84845213Y-100090109D01*
X85017182Y-100215050D01*
X85025946Y-100219516D01*
X85076742Y-100267491D01*
X85093536Y-100335312D01*
X85070998Y-100401447D01*
X85025946Y-100440484D01*
X85017182Y-100444949D01*
X84845213Y-100569890D01*
X84694890Y-100720213D01*
X84569951Y-100892179D01*
X84473444Y-101081585D01*
X84407753Y-101283760D01*
X84381061Y-101452287D01*
X84374500Y-101493713D01*
X84374500Y-101706287D01*
X84407754Y-101916243D01*
X84418199Y-101948390D01*
X84473444Y-102118414D01*
X84569951Y-102307820D01*
X84694890Y-102479786D01*
X84845213Y-102630109D01*
X85017182Y-102755050D01*
X85025946Y-102759516D01*
X85076742Y-102807491D01*
X85093536Y-102875312D01*
X85070998Y-102941447D01*
X85025946Y-102980484D01*
X85017182Y-102984949D01*
X84845213Y-103109890D01*
X84694890Y-103260213D01*
X84569951Y-103432179D01*
X84473444Y-103621585D01*
X84407753Y-103823760D01*
X84374500Y-104033713D01*
X84374500Y-104246286D01*
X84407753Y-104456239D01*
X84473444Y-104658414D01*
X84569951Y-104847820D01*
X84694890Y-105019786D01*
X84845213Y-105170109D01*
X85017179Y-105295048D01*
X85017181Y-105295049D01*
X85017184Y-105295051D01*
X85026493Y-105299794D01*
X85077290Y-105347766D01*
X85094087Y-105415587D01*
X85071552Y-105481722D01*
X85026502Y-105520762D01*
X85017443Y-105525378D01*
X84845540Y-105650272D01*
X84845535Y-105650276D01*
X84695276Y-105800535D01*
X84695272Y-105800540D01*
X84570379Y-105972442D01*
X84473904Y-106161782D01*
X84408242Y-106363870D01*
X84408242Y-106363873D01*
X84397769Y-106430000D01*
X85291988Y-106430000D01*
X85259075Y-106487007D01*
X85225000Y-106614174D01*
X85225000Y-106745826D01*
X85259075Y-106872993D01*
X85291988Y-106930000D01*
X84397769Y-106930000D01*
X84408242Y-106996126D01*
X84408242Y-106996129D01*
X84473904Y-107198217D01*
X84570379Y-107387557D01*
X84695272Y-107559459D01*
X84695276Y-107559464D01*
X84845535Y-107709723D01*
X84845540Y-107709727D01*
X85017444Y-107834622D01*
X85027048Y-107839516D01*
X85077844Y-107887491D01*
X85094638Y-107955312D01*
X85072100Y-108021447D01*
X85027048Y-108060484D01*
X85017444Y-108065377D01*
X84845540Y-108190272D01*
X84845535Y-108190276D01*
X84695276Y-108340535D01*
X84695272Y-108340540D01*
X84570379Y-108512442D01*
X84473904Y-108701782D01*
X84408242Y-108903870D01*
X84408242Y-108903873D01*
X84397769Y-108970000D01*
X85291988Y-108970000D01*
X85259075Y-109027007D01*
X85225000Y-109154174D01*
X85225000Y-109285826D01*
X85259075Y-109412993D01*
X85291988Y-109470000D01*
X84397769Y-109470000D01*
X84408242Y-109536126D01*
X84408242Y-109536129D01*
X84473904Y-109738217D01*
X84570379Y-109927557D01*
X84695272Y-110099459D01*
X84695276Y-110099464D01*
X84845535Y-110249723D01*
X84845540Y-110249727D01*
X85017444Y-110374622D01*
X85026495Y-110379234D01*
X85077292Y-110427208D01*
X85094087Y-110495029D01*
X85071550Y-110561164D01*
X85026499Y-110600202D01*
X85017182Y-110604949D01*
X84845213Y-110729890D01*
X84694890Y-110880213D01*
X84569951Y-111052179D01*
X84473444Y-111241585D01*
X84407753Y-111443760D01*
X84374543Y-111653443D01*
X84374500Y-111653713D01*
X84374500Y-111866287D01*
X84407754Y-112076243D01*
X84454727Y-112220811D01*
X84473444Y-112278414D01*
X84569951Y-112467820D01*
X84694890Y-112639786D01*
X84845213Y-112790109D01*
X85017182Y-112915050D01*
X85025946Y-112919516D01*
X85076742Y-112967491D01*
X85093536Y-113035312D01*
X85070998Y-113101447D01*
X85025946Y-113140484D01*
X85017182Y-113144949D01*
X84845213Y-113269890D01*
X84694890Y-113420213D01*
X84569951Y-113592179D01*
X84473444Y-113781585D01*
X84407753Y-113983760D01*
X84374500Y-114193713D01*
X84374500Y-114406286D01*
X84407753Y-114616239D01*
X84473444Y-114818414D01*
X84569951Y-115007820D01*
X84694890Y-115179786D01*
X84845213Y-115330109D01*
X85017182Y-115455050D01*
X85025946Y-115459516D01*
X85076742Y-115507491D01*
X85093536Y-115575312D01*
X85070998Y-115641447D01*
X85025946Y-115680484D01*
X85017182Y-115684949D01*
X84845213Y-115809890D01*
X84694890Y-115960213D01*
X84569951Y-116132179D01*
X84473444Y-116321585D01*
X84407753Y-116523760D01*
X84374500Y-116733713D01*
X84374500Y-116946286D01*
X84393280Y-117064862D01*
X84407754Y-117156243D01*
X84453192Y-117296087D01*
X84473444Y-117358414D01*
X84569951Y-117547820D01*
X84694890Y-117719786D01*
X84845213Y-117870109D01*
X85017182Y-117995050D01*
X85025946Y-117999516D01*
X85076742Y-118047491D01*
X85093536Y-118115312D01*
X85070998Y-118181447D01*
X85025946Y-118220484D01*
X85017182Y-118224949D01*
X84845213Y-118349890D01*
X84694890Y-118500213D01*
X84569951Y-118672179D01*
X84473444Y-118861585D01*
X84407753Y-119063760D01*
X84374500Y-119273713D01*
X84374500Y-119486286D01*
X84407753Y-119696239D01*
X84473444Y-119898414D01*
X84569951Y-120087820D01*
X84694890Y-120259786D01*
X84845213Y-120410109D01*
X85017182Y-120535050D01*
X85025946Y-120539516D01*
X85076742Y-120587491D01*
X85093536Y-120655312D01*
X85070998Y-120721447D01*
X85025946Y-120760484D01*
X85017182Y-120764949D01*
X84845213Y-120889890D01*
X84694890Y-121040213D01*
X84569951Y-121212179D01*
X84473444Y-121401585D01*
X84407753Y-121603760D01*
X84382295Y-121764500D01*
X84374500Y-121813713D01*
X84374500Y-122026287D01*
X84407754Y-122236243D01*
X84427200Y-122296092D01*
X84473444Y-122438414D01*
X84569951Y-122627820D01*
X84694890Y-122799786D01*
X84845213Y-122950109D01*
X85017182Y-123075050D01*
X85025946Y-123079516D01*
X85076742Y-123127491D01*
X85093536Y-123195312D01*
X85070998Y-123261447D01*
X85025946Y-123300484D01*
X85017182Y-123304949D01*
X84845213Y-123429890D01*
X84694890Y-123580213D01*
X84569951Y-123752179D01*
X84473444Y-123941585D01*
X84407753Y-124143760D01*
X84374500Y-124353713D01*
X84374500Y-124566286D01*
X84407753Y-124776239D01*
X84473444Y-124978414D01*
X84569951Y-125167820D01*
X84694890Y-125339786D01*
X84845213Y-125490109D01*
X85017182Y-125615050D01*
X85025946Y-125619516D01*
X85076742Y-125667491D01*
X85093536Y-125735312D01*
X85070998Y-125801447D01*
X85025946Y-125840484D01*
X85017182Y-125844949D01*
X84845213Y-125969890D01*
X84694890Y-126120213D01*
X84569951Y-126292179D01*
X84473444Y-126481585D01*
X84407753Y-126683760D01*
X84374500Y-126893713D01*
X84374500Y-127106286D01*
X84407753Y-127316239D01*
X84473444Y-127518414D01*
X84569951Y-127707820D01*
X84694890Y-127879786D01*
X84845213Y-128030109D01*
X85017182Y-128155050D01*
X85025946Y-128159516D01*
X85076742Y-128207491D01*
X85093536Y-128275312D01*
X85070998Y-128341447D01*
X85025946Y-128380484D01*
X85017182Y-128384949D01*
X84845213Y-128509890D01*
X84694890Y-128660213D01*
X84569951Y-128832179D01*
X84473444Y-129021585D01*
X84407753Y-129223760D01*
X84374500Y-129433713D01*
X84374500Y-129646286D01*
X84406136Y-129846032D01*
X84407754Y-129856243D01*
X84452808Y-129994905D01*
X84473444Y-130058414D01*
X84569951Y-130247820D01*
X84694890Y-130419786D01*
X84845213Y-130570109D01*
X85017179Y-130695048D01*
X85017181Y-130695049D01*
X85017184Y-130695051D01*
X85026493Y-130699794D01*
X85077290Y-130747766D01*
X85094087Y-130815587D01*
X85071552Y-130881722D01*
X85026502Y-130920762D01*
X85017443Y-130925378D01*
X84845540Y-131050272D01*
X84845535Y-131050276D01*
X84695276Y-131200535D01*
X84695272Y-131200540D01*
X84570379Y-131372442D01*
X84473904Y-131561782D01*
X84408242Y-131763870D01*
X84408242Y-131763873D01*
X84397769Y-131830000D01*
X85291988Y-131830000D01*
X85259075Y-131887007D01*
X85225000Y-132014174D01*
X85225000Y-132145826D01*
X85259075Y-132272993D01*
X85291988Y-132330000D01*
X84397769Y-132330000D01*
X84408242Y-132396126D01*
X84408242Y-132396129D01*
X84473904Y-132598217D01*
X84570379Y-132787557D01*
X84695272Y-132959459D01*
X84695276Y-132959464D01*
X84845535Y-133109723D01*
X84845540Y-133109727D01*
X85017442Y-133234620D01*
X85206782Y-133331095D01*
X85408871Y-133396757D01*
X85475000Y-133407231D01*
X85475000Y-132513012D01*
X85532007Y-132545925D01*
X85659174Y-132580000D01*
X85790826Y-132580000D01*
X85917993Y-132545925D01*
X85975000Y-132513012D01*
X85975000Y-133407230D01*
X86041126Y-133396757D01*
X86041129Y-133396757D01*
X86243217Y-133331095D01*
X86432557Y-133234620D01*
X86604459Y-133109727D01*
X86604464Y-133109723D01*
X86754723Y-132959464D01*
X86754727Y-132959459D01*
X86879620Y-132787558D01*
X86884232Y-132778507D01*
X86932205Y-132727709D01*
X87000025Y-132710912D01*
X87066161Y-132733447D01*
X87105204Y-132778504D01*
X87109949Y-132787817D01*
X87234890Y-132959786D01*
X87385213Y-133110109D01*
X87557179Y-133235048D01*
X87557181Y-133235049D01*
X87557184Y-133235051D01*
X87746588Y-133331557D01*
X87948757Y-133397246D01*
X88158713Y-133430500D01*
X88158714Y-133430500D01*
X88371286Y-133430500D01*
X88371287Y-133430500D01*
X88581243Y-133397246D01*
X88783412Y-133331557D01*
X88905345Y-133269429D01*
X94127000Y-133269429D01*
X94127000Y-133430570D01*
X94158433Y-133588594D01*
X94158435Y-133588602D01*
X94220096Y-133737466D01*
X94309619Y-133871447D01*
X94423552Y-133985380D01*
X94557533Y-134074903D01*
X94631965Y-134105733D01*
X94706398Y-134136565D01*
X94864429Y-134167999D01*
X94864433Y-134168000D01*
X94864434Y-134168000D01*
X95025567Y-134168000D01*
X95025568Y-134167999D01*
X95183602Y-134136565D01*
X95332468Y-134074902D01*
X95466445Y-133985382D01*
X95580382Y-133871445D01*
X95669902Y-133737468D01*
X95731565Y-133588602D01*
X95763000Y-133430566D01*
X95763000Y-133269434D01*
X95731565Y-133111398D01*
X95683509Y-132995382D01*
X95669903Y-132962533D01*
X95580380Y-132828552D01*
X95466447Y-132714619D01*
X95332466Y-132625096D01*
X95183602Y-132563435D01*
X95183594Y-132563433D01*
X95025570Y-132532000D01*
X95025566Y-132532000D01*
X94864434Y-132532000D01*
X94864429Y-132532000D01*
X94706405Y-132563433D01*
X94706397Y-132563435D01*
X94557533Y-132625096D01*
X94423552Y-132714619D01*
X94309619Y-132828552D01*
X94220096Y-132962533D01*
X94158435Y-133111397D01*
X94158433Y-133111405D01*
X94127000Y-133269429D01*
X88905345Y-133269429D01*
X88972816Y-133235051D01*
X89071955Y-133163023D01*
X89071957Y-133163022D01*
X89144785Y-133110109D01*
X89144783Y-133110109D01*
X89144792Y-133110104D01*
X89295104Y-132959792D01*
X89295106Y-132959788D01*
X89295109Y-132959786D01*
X89420048Y-132787820D01*
X89420050Y-132787817D01*
X89420051Y-132787816D01*
X89516557Y-132598412D01*
X89582246Y-132396243D01*
X89600748Y-132279429D01*
X103957000Y-132279429D01*
X103957000Y-132440570D01*
X103988433Y-132598594D01*
X103988435Y-132598602D01*
X104050096Y-132747466D01*
X104139619Y-132881447D01*
X104253552Y-132995380D01*
X104253555Y-132995382D01*
X104294500Y-133022740D01*
X104339305Y-133076352D01*
X104348013Y-133145677D01*
X104328713Y-133194733D01*
X104269745Y-133282986D01*
X104212870Y-133420294D01*
X104212868Y-133420302D01*
X104183875Y-133566058D01*
X104183875Y-133714691D01*
X104212868Y-133860447D01*
X104212870Y-133860455D01*
X104269746Y-133997766D01*
X104352314Y-134121339D01*
X104352320Y-134121346D01*
X104457403Y-134226429D01*
X104457410Y-134226435D01*
X104580983Y-134309003D01*
X104580984Y-134309003D01*
X104580985Y-134309004D01*
X104718295Y-134365880D01*
X104834286Y-134388952D01*
X104864058Y-134394874D01*
X104864062Y-134394875D01*
X104864063Y-134394875D01*
X105012688Y-134394875D01*
X105012689Y-134394874D01*
X105158455Y-134365880D01*
X105295765Y-134309004D01*
X105419341Y-134226434D01*
X105524434Y-134121341D01*
X105607004Y-133997765D01*
X105663880Y-133860455D01*
X105692875Y-133714687D01*
X105692875Y-133583479D01*
X106497000Y-133583479D01*
X106497000Y-133744620D01*
X106528433Y-133902644D01*
X106528435Y-133902652D01*
X106590096Y-134051516D01*
X106679619Y-134185497D01*
X106793552Y-134299430D01*
X106927533Y-134388953D01*
X107001965Y-134419783D01*
X107076398Y-134450615D01*
X107234429Y-134482049D01*
X107234433Y-134482050D01*
X107234434Y-134482050D01*
X107395567Y-134482050D01*
X107395568Y-134482049D01*
X107553602Y-134450615D01*
X107702468Y-134388952D01*
X107836445Y-134299432D01*
X107950382Y-134185495D01*
X108039902Y-134051518D01*
X108101565Y-133902652D01*
X108133000Y-133744616D01*
X108133000Y-133583484D01*
X108101565Y-133425448D01*
X108042555Y-133282986D01*
X108039903Y-133276583D01*
X107950380Y-133142602D01*
X107836447Y-133028669D01*
X107702466Y-132939146D01*
X107553602Y-132877485D01*
X107553594Y-132877483D01*
X107395570Y-132846050D01*
X107395566Y-132846050D01*
X107234434Y-132846050D01*
X107234429Y-132846050D01*
X107076405Y-132877483D01*
X107076397Y-132877485D01*
X106927533Y-132939146D01*
X106793552Y-133028669D01*
X106679619Y-133142602D01*
X106590096Y-133276583D01*
X106528435Y-133425447D01*
X106528433Y-133425455D01*
X106497000Y-133583479D01*
X105692875Y-133583479D01*
X105692875Y-133566063D01*
X105663880Y-133420295D01*
X105607004Y-133282985D01*
X105602726Y-133276583D01*
X105524435Y-133159410D01*
X105524429Y-133159403D01*
X105415968Y-133050942D01*
X105382483Y-132989619D01*
X105387467Y-132919927D01*
X105407798Y-132884593D01*
X105410380Y-132881447D01*
X105410382Y-132881445D01*
X105499902Y-132747468D01*
X105561565Y-132598602D01*
X105593000Y-132440566D01*
X105593000Y-132279434D01*
X105561565Y-132121398D01*
X105513634Y-132005683D01*
X109735500Y-132005683D01*
X109735500Y-132154316D01*
X109764493Y-132300072D01*
X109764495Y-132300080D01*
X109821371Y-132437391D01*
X109903939Y-132560964D01*
X109903945Y-132560971D01*
X110009028Y-132666054D01*
X110009035Y-132666060D01*
X110132608Y-132748628D01*
X110132609Y-132748628D01*
X110132610Y-132748629D01*
X110269920Y-132805505D01*
X110415683Y-132834499D01*
X110415687Y-132834500D01*
X110415688Y-132834500D01*
X110564313Y-132834500D01*
X110564314Y-132834499D01*
X110710080Y-132805505D01*
X110847390Y-132748629D01*
X110970966Y-132666059D01*
X111076059Y-132560966D01*
X111158629Y-132437390D01*
X111215505Y-132300080D01*
X111244500Y-132154312D01*
X111244500Y-132005688D01*
X111215505Y-131859920D01*
X111158629Y-131722610D01*
X111076059Y-131599034D01*
X111076054Y-131599028D01*
X110970971Y-131493945D01*
X110970964Y-131493939D01*
X110847391Y-131411371D01*
X110710080Y-131354495D01*
X110710072Y-131354493D01*
X110564316Y-131325500D01*
X110564312Y-131325500D01*
X110415688Y-131325500D01*
X110415683Y-131325500D01*
X110269927Y-131354493D01*
X110269919Y-131354495D01*
X110132608Y-131411371D01*
X110009035Y-131493939D01*
X110009028Y-131493945D01*
X109903945Y-131599028D01*
X109903939Y-131599035D01*
X109821371Y-131722608D01*
X109764495Y-131859919D01*
X109764493Y-131859927D01*
X109735500Y-132005683D01*
X105513634Y-132005683D01*
X105499902Y-131972532D01*
X105410382Y-131838555D01*
X105410380Y-131838552D01*
X105296447Y-131724619D01*
X105162466Y-131635096D01*
X105013602Y-131573435D01*
X105013594Y-131573433D01*
X104855570Y-131542000D01*
X104855566Y-131542000D01*
X104694434Y-131542000D01*
X104694429Y-131542000D01*
X104536405Y-131573433D01*
X104536397Y-131573435D01*
X104387533Y-131635096D01*
X104253552Y-131724619D01*
X104139619Y-131838552D01*
X104050096Y-131972533D01*
X103988435Y-132121397D01*
X103988433Y-132121405D01*
X103957000Y-132279429D01*
X89600748Y-132279429D01*
X89615500Y-132186287D01*
X89615500Y-131973713D01*
X89582246Y-131763757D01*
X89516557Y-131561588D01*
X89420051Y-131372184D01*
X89420049Y-131372181D01*
X89420048Y-131372179D01*
X89295109Y-131200213D01*
X89144786Y-131049890D01*
X89047804Y-130979429D01*
X100913000Y-130979429D01*
X100913000Y-131140570D01*
X100944433Y-131298594D01*
X100944435Y-131298602D01*
X101006096Y-131447466D01*
X101095619Y-131581447D01*
X101209552Y-131695380D01*
X101343533Y-131784903D01*
X101417965Y-131815733D01*
X101492398Y-131846565D01*
X101650429Y-131877999D01*
X101650433Y-131878000D01*
X101650434Y-131878000D01*
X101811567Y-131878000D01*
X101811568Y-131877999D01*
X101969602Y-131846565D01*
X102118468Y-131784902D01*
X102252445Y-131695382D01*
X102366382Y-131581445D01*
X102455902Y-131447468D01*
X102517565Y-131298602D01*
X102549000Y-131140566D01*
X102549000Y-130979434D01*
X102517565Y-130821398D01*
X102467194Y-130699792D01*
X102455903Y-130672533D01*
X102366380Y-130538552D01*
X102252447Y-130424619D01*
X102118466Y-130335096D01*
X101969602Y-130273435D01*
X101969594Y-130273433D01*
X101944588Y-130268459D01*
X101811570Y-130242000D01*
X101811566Y-130242000D01*
X101650434Y-130242000D01*
X101650429Y-130242000D01*
X101492405Y-130273433D01*
X101492397Y-130273435D01*
X101343533Y-130335096D01*
X101209552Y-130424619D01*
X101095619Y-130538552D01*
X101006096Y-130672533D01*
X100944435Y-130821397D01*
X100944433Y-130821405D01*
X100913000Y-130979429D01*
X89047804Y-130979429D01*
X88972820Y-130924951D01*
X88964600Y-130920763D01*
X88964054Y-130920485D01*
X88913259Y-130872512D01*
X88896463Y-130804692D01*
X88918999Y-130738556D01*
X88964054Y-130699515D01*
X88972816Y-130695051D01*
X89003811Y-130672532D01*
X89144786Y-130570109D01*
X89144788Y-130570106D01*
X89144792Y-130570104D01*
X89295104Y-130419792D01*
X89295106Y-130419788D01*
X89295109Y-130419786D01*
X89420048Y-130247820D01*
X89420047Y-130247820D01*
X89420051Y-130247816D01*
X89516557Y-130058412D01*
X89582246Y-129856243D01*
X89615500Y-129646287D01*
X89615500Y-129459429D01*
X94127000Y-129459429D01*
X94127000Y-129620570D01*
X94158433Y-129778594D01*
X94158435Y-129778602D01*
X94220096Y-129927466D01*
X94309619Y-130061447D01*
X94423552Y-130175380D01*
X94557533Y-130264903D01*
X94631965Y-130295733D01*
X94706398Y-130326565D01*
X94864429Y-130357999D01*
X94864433Y-130358000D01*
X94864434Y-130358000D01*
X95025567Y-130358000D01*
X95025568Y-130357999D01*
X95183602Y-130326565D01*
X95332468Y-130264902D01*
X95466445Y-130175382D01*
X95488898Y-130152929D01*
X108089500Y-130152929D01*
X108089500Y-130314070D01*
X108120933Y-130472094D01*
X108120935Y-130472102D01*
X108182596Y-130620966D01*
X108272119Y-130754947D01*
X108386052Y-130868880D01*
X108520033Y-130958403D01*
X108570807Y-130979434D01*
X108668898Y-131020065D01*
X108826929Y-131051499D01*
X108826933Y-131051500D01*
X108826934Y-131051500D01*
X108988067Y-131051500D01*
X108988068Y-131051499D01*
X109146102Y-131020065D01*
X109294968Y-130958402D01*
X109428945Y-130868882D01*
X109542882Y-130754945D01*
X109632402Y-130620968D01*
X109694065Y-130472102D01*
X109725500Y-130314066D01*
X109725500Y-130152934D01*
X109694065Y-129994898D01*
X109636630Y-129856239D01*
X109632403Y-129846033D01*
X109542880Y-129712052D01*
X109428947Y-129598119D01*
X109294966Y-129508596D01*
X109146102Y-129446935D01*
X109146094Y-129446933D01*
X108988070Y-129415500D01*
X108988066Y-129415500D01*
X108826934Y-129415500D01*
X108826929Y-129415500D01*
X108668905Y-129446933D01*
X108668897Y-129446935D01*
X108520033Y-129508596D01*
X108386052Y-129598119D01*
X108272119Y-129712052D01*
X108182596Y-129846033D01*
X108120935Y-129994897D01*
X108120933Y-129994905D01*
X108089500Y-130152929D01*
X95488898Y-130152929D01*
X95580382Y-130061445D01*
X95669902Y-129927468D01*
X95731565Y-129778602D01*
X95763000Y-129620566D01*
X95763000Y-129459434D01*
X95731565Y-129301398D01*
X95699405Y-129223757D01*
X95669903Y-129152533D01*
X95580380Y-129018552D01*
X95466447Y-128904619D01*
X95346434Y-128824429D01*
X100782000Y-128824429D01*
X100782000Y-128985570D01*
X100813433Y-129143594D01*
X100813435Y-129143602D01*
X100875096Y-129292466D01*
X100964619Y-129426447D01*
X101078552Y-129540380D01*
X101212533Y-129629903D01*
X101252088Y-129646287D01*
X101361398Y-129691565D01*
X101519429Y-129722999D01*
X101519433Y-129723000D01*
X101519434Y-129723000D01*
X101680567Y-129723000D01*
X101680568Y-129722999D01*
X101838602Y-129691565D01*
X101987468Y-129629902D01*
X102121445Y-129540382D01*
X102235382Y-129426445D01*
X102324902Y-129292468D01*
X102386565Y-129143602D01*
X102418000Y-128985566D01*
X102418000Y-128824434D01*
X102417999Y-128824429D01*
X109672000Y-128824429D01*
X109672000Y-128985570D01*
X109703433Y-129143594D01*
X109703435Y-129143602D01*
X109765096Y-129292466D01*
X109854619Y-129426447D01*
X109968552Y-129540380D01*
X110102533Y-129629903D01*
X110142088Y-129646287D01*
X110251398Y-129691565D01*
X110409429Y-129722999D01*
X110409433Y-129723000D01*
X110409434Y-129723000D01*
X110570567Y-129723000D01*
X110570568Y-129722999D01*
X110728602Y-129691565D01*
X110877468Y-129629902D01*
X111011445Y-129540382D01*
X111125382Y-129426445D01*
X111214902Y-129292468D01*
X111276565Y-129143602D01*
X111308000Y-128985566D01*
X111308000Y-128824434D01*
X111276565Y-128666398D01*
X111245733Y-128591965D01*
X111214903Y-128517533D01*
X111125380Y-128383552D01*
X111011447Y-128269619D01*
X110877466Y-128180096D01*
X110728602Y-128118435D01*
X110728594Y-128118433D01*
X110570570Y-128087000D01*
X110570566Y-128087000D01*
X110409434Y-128087000D01*
X110409429Y-128087000D01*
X110251405Y-128118433D01*
X110251397Y-128118435D01*
X110102533Y-128180096D01*
X109968552Y-128269619D01*
X109854619Y-128383552D01*
X109765096Y-128517533D01*
X109703435Y-128666397D01*
X109703433Y-128666405D01*
X109672000Y-128824429D01*
X102417999Y-128824429D01*
X102386565Y-128666398D01*
X102355733Y-128591965D01*
X102324903Y-128517533D01*
X102235380Y-128383552D01*
X102121447Y-128269619D01*
X101987466Y-128180096D01*
X101838602Y-128118435D01*
X101838594Y-128118433D01*
X101680570Y-128087000D01*
X101680566Y-128087000D01*
X101519434Y-128087000D01*
X101519429Y-128087000D01*
X101361405Y-128118433D01*
X101361397Y-128118435D01*
X101212533Y-128180096D01*
X101078552Y-128269619D01*
X100964619Y-128383552D01*
X100875096Y-128517533D01*
X100813435Y-128666397D01*
X100813433Y-128666405D01*
X100782000Y-128824429D01*
X95346434Y-128824429D01*
X95332466Y-128815096D01*
X95183602Y-128753435D01*
X95183594Y-128753433D01*
X95025570Y-128722000D01*
X95025566Y-128722000D01*
X94864434Y-128722000D01*
X94864429Y-128722000D01*
X94706405Y-128753433D01*
X94706397Y-128753435D01*
X94557533Y-128815096D01*
X94423552Y-128904619D01*
X94309619Y-129018552D01*
X94220096Y-129152533D01*
X94158435Y-129301397D01*
X94158433Y-129301405D01*
X94127000Y-129459429D01*
X89615500Y-129459429D01*
X89615500Y-129433713D01*
X89582246Y-129223757D01*
X89516557Y-129021588D01*
X89420051Y-128832184D01*
X89420049Y-128832181D01*
X89420048Y-128832179D01*
X89295109Y-128660213D01*
X89144786Y-128509890D01*
X88972820Y-128384951D01*
X88970074Y-128383552D01*
X88964054Y-128380485D01*
X88913259Y-128332512D01*
X88896463Y-128264692D01*
X88918999Y-128198556D01*
X88964054Y-128159515D01*
X88972816Y-128155051D01*
X89066481Y-128087000D01*
X89144786Y-128030109D01*
X89144788Y-128030106D01*
X89144792Y-128030104D01*
X89295104Y-127879792D01*
X89295106Y-127879788D01*
X89295109Y-127879786D01*
X89420048Y-127707820D01*
X89420047Y-127707820D01*
X89420051Y-127707816D01*
X89516557Y-127518412D01*
X89582246Y-127316243D01*
X89615500Y-127106287D01*
X89615500Y-126893713D01*
X89582246Y-126683757D01*
X89516557Y-126481588D01*
X89420051Y-126292184D01*
X89402165Y-126267566D01*
X89333627Y-126173230D01*
X89333624Y-126173227D01*
X89295107Y-126120213D01*
X89295104Y-126120208D01*
X89281325Y-126106429D01*
X94127000Y-126106429D01*
X94127000Y-126267570D01*
X94158433Y-126425594D01*
X94158435Y-126425602D01*
X94220096Y-126574466D01*
X94309619Y-126708447D01*
X94423552Y-126822380D01*
X94557533Y-126911903D01*
X94631965Y-126942733D01*
X94706398Y-126973565D01*
X94864429Y-127004999D01*
X94864433Y-127005000D01*
X94864434Y-127005000D01*
X95025567Y-127005000D01*
X95025568Y-127004999D01*
X95183602Y-126973565D01*
X95332468Y-126911902D01*
X95466445Y-126822382D01*
X95580382Y-126708445D01*
X95669902Y-126574468D01*
X95731565Y-126425602D01*
X95763000Y-126267566D01*
X95763000Y-126106434D01*
X95731565Y-125948398D01*
X95700733Y-125873965D01*
X95669903Y-125799533D01*
X95580380Y-125665552D01*
X95466447Y-125551619D01*
X95332466Y-125462096D01*
X95183602Y-125400435D01*
X95183594Y-125400433D01*
X95025570Y-125369000D01*
X95025566Y-125369000D01*
X94864434Y-125369000D01*
X94864429Y-125369000D01*
X94706405Y-125400433D01*
X94706397Y-125400435D01*
X94557533Y-125462096D01*
X94423552Y-125551619D01*
X94309619Y-125665552D01*
X94220096Y-125799533D01*
X94158435Y-125948397D01*
X94158433Y-125948405D01*
X94127000Y-126106429D01*
X89281325Y-126106429D01*
X89144792Y-125969896D01*
X89144786Y-125969890D01*
X88972820Y-125844951D01*
X88972115Y-125844591D01*
X88964054Y-125840485D01*
X88913259Y-125792512D01*
X88896463Y-125724692D01*
X88918999Y-125658556D01*
X88964054Y-125619515D01*
X88972816Y-125615051D01*
X88994789Y-125599086D01*
X89144786Y-125490109D01*
X89144788Y-125490106D01*
X89144792Y-125490104D01*
X89295104Y-125339792D01*
X89295106Y-125339788D01*
X89295109Y-125339786D01*
X89420048Y-125167820D01*
X89420047Y-125167820D01*
X89420051Y-125167816D01*
X89516557Y-124978412D01*
X89582246Y-124776243D01*
X89615500Y-124566287D01*
X89615500Y-124353713D01*
X89582246Y-124143757D01*
X89516557Y-123941588D01*
X89420051Y-123752184D01*
X89420049Y-123752181D01*
X89420048Y-123752179D01*
X89295109Y-123580213D01*
X89144786Y-123429890D01*
X88972820Y-123304951D01*
X88972115Y-123304591D01*
X88964054Y-123300485D01*
X88913259Y-123252512D01*
X88896463Y-123184692D01*
X88918999Y-123118556D01*
X88964054Y-123079515D01*
X88972816Y-123075051D01*
X89085178Y-122993416D01*
X89144786Y-122950109D01*
X89144788Y-122950106D01*
X89144792Y-122950104D01*
X89295104Y-122799792D01*
X89295106Y-122799788D01*
X89295109Y-122799786D01*
X89420048Y-122627820D01*
X89420047Y-122627820D01*
X89420051Y-122627816D01*
X89516557Y-122438412D01*
X89582246Y-122236243D01*
X89615500Y-122026287D01*
X89615500Y-121813713D01*
X89582246Y-121603757D01*
X89516557Y-121401588D01*
X89448050Y-121267135D01*
X105714500Y-121267135D01*
X105714500Y-123262870D01*
X105714501Y-123262876D01*
X105720908Y-123322483D01*
X105771202Y-123457328D01*
X105771206Y-123457335D01*
X105857452Y-123572544D01*
X105857455Y-123572547D01*
X105972664Y-123658793D01*
X105972671Y-123658797D01*
X106107517Y-123709091D01*
X106107516Y-123709091D01*
X106114444Y-123709835D01*
X106167127Y-123715500D01*
X108162872Y-123715499D01*
X108222483Y-123709091D01*
X108357331Y-123658796D01*
X108472546Y-123572546D01*
X108558796Y-123457331D01*
X108609091Y-123322483D01*
X108615500Y-123262873D01*
X108615499Y-122588920D01*
X110414499Y-122588920D01*
X110443340Y-122733907D01*
X110443343Y-122733917D01*
X110499912Y-122870488D01*
X110499919Y-122870501D01*
X110582048Y-122993415D01*
X110582051Y-122993419D01*
X110686580Y-123097948D01*
X110686584Y-123097951D01*
X110809498Y-123180080D01*
X110809511Y-123180087D01*
X110946082Y-123236656D01*
X110946087Y-123236658D01*
X110946091Y-123236658D01*
X110946092Y-123236659D01*
X111091079Y-123265500D01*
X111091082Y-123265500D01*
X111238920Y-123265500D01*
X111336462Y-123246096D01*
X111383913Y-123236658D01*
X111520495Y-123180084D01*
X111643416Y-123097951D01*
X111747951Y-122993416D01*
X111830084Y-122870495D01*
X111858937Y-122800837D01*
X113214500Y-122800837D01*
X113214500Y-123029162D01*
X113250215Y-123254660D01*
X113320770Y-123471803D01*
X113416047Y-123658793D01*
X113424421Y-123675228D01*
X113558621Y-123859937D01*
X113720063Y-124021379D01*
X113904772Y-124155579D01*
X114000884Y-124204550D01*
X114108196Y-124259229D01*
X114108198Y-124259229D01*
X114108201Y-124259231D01*
X114224592Y-124297049D01*
X114325339Y-124329784D01*
X114550838Y-124365500D01*
X114550843Y-124365500D01*
X114779162Y-124365500D01*
X115004660Y-124329784D01*
X115221799Y-124259231D01*
X115425228Y-124155579D01*
X115609937Y-124021379D01*
X115771379Y-123859937D01*
X115905579Y-123675228D01*
X116009231Y-123471799D01*
X116079784Y-123254660D01*
X116091596Y-123180084D01*
X116115500Y-123029162D01*
X116115500Y-122800837D01*
X116079784Y-122575339D01*
X116009229Y-122358196D01*
X115947088Y-122236239D01*
X115905579Y-122154772D01*
X115771379Y-121970063D01*
X115609937Y-121808621D01*
X115425228Y-121674421D01*
X115221803Y-121570770D01*
X115004660Y-121500215D01*
X114779162Y-121464500D01*
X114779157Y-121464500D01*
X114550843Y-121464500D01*
X114550838Y-121464500D01*
X114325339Y-121500215D01*
X114108196Y-121570770D01*
X113904771Y-121674421D01*
X113720061Y-121808622D01*
X113558622Y-121970061D01*
X113424421Y-122154771D01*
X113320770Y-122358196D01*
X113250215Y-122575339D01*
X113214500Y-122800837D01*
X111858937Y-122800837D01*
X111886658Y-122733913D01*
X111915500Y-122588918D01*
X111915500Y-122441082D01*
X111915500Y-122441079D01*
X111886659Y-122296092D01*
X111886658Y-122296091D01*
X111886658Y-122296087D01*
X111861868Y-122236239D01*
X111830087Y-122159511D01*
X111830080Y-122159498D01*
X111747951Y-122036584D01*
X111747948Y-122036580D01*
X111643419Y-121932051D01*
X111643415Y-121932048D01*
X111520501Y-121849919D01*
X111520488Y-121849912D01*
X111383917Y-121793343D01*
X111383907Y-121793340D01*
X111238920Y-121764500D01*
X111238918Y-121764500D01*
X111091082Y-121764500D01*
X111091080Y-121764500D01*
X110946092Y-121793340D01*
X110946082Y-121793343D01*
X110809511Y-121849912D01*
X110809498Y-121849919D01*
X110686584Y-121932048D01*
X110686580Y-121932051D01*
X110582051Y-122036580D01*
X110582048Y-122036584D01*
X110499919Y-122159498D01*
X110499912Y-122159511D01*
X110443343Y-122296082D01*
X110443340Y-122296092D01*
X110414500Y-122441079D01*
X110414500Y-122441082D01*
X110414500Y-122588918D01*
X110414500Y-122588920D01*
X110414499Y-122588920D01*
X108615499Y-122588920D01*
X108615499Y-122236243D01*
X108615499Y-121267129D01*
X108615498Y-121267123D01*
X108615497Y-121267116D01*
X108609593Y-121212184D01*
X108609091Y-121207516D01*
X108558797Y-121072671D01*
X108558793Y-121072664D01*
X108472547Y-120957455D01*
X108472544Y-120957452D01*
X108357335Y-120871206D01*
X108357328Y-120871202D01*
X108222482Y-120820908D01*
X108222483Y-120820908D01*
X108162883Y-120814501D01*
X108162881Y-120814500D01*
X108162873Y-120814500D01*
X108162864Y-120814500D01*
X106167129Y-120814500D01*
X106167123Y-120814501D01*
X106107516Y-120820908D01*
X105972671Y-120871202D01*
X105972664Y-120871206D01*
X105857455Y-120957452D01*
X105857452Y-120957455D01*
X105771206Y-121072664D01*
X105771202Y-121072671D01*
X105720908Y-121207517D01*
X105714621Y-121265998D01*
X105714501Y-121267123D01*
X105714500Y-121267135D01*
X89448050Y-121267135D01*
X89420051Y-121212184D01*
X89420049Y-121212181D01*
X89420048Y-121212179D01*
X89295109Y-121040213D01*
X89144786Y-120889890D01*
X88972820Y-120764951D01*
X88972115Y-120764591D01*
X88964054Y-120760485D01*
X88913259Y-120712512D01*
X88896463Y-120644692D01*
X88918999Y-120578556D01*
X88964054Y-120539515D01*
X88972816Y-120535051D01*
X88994789Y-120519086D01*
X89144786Y-120410109D01*
X89144788Y-120410106D01*
X89144792Y-120410104D01*
X89295104Y-120259792D01*
X89295106Y-120259788D01*
X89295109Y-120259786D01*
X89420048Y-120087820D01*
X89420047Y-120087820D01*
X89420051Y-120087816D01*
X89516557Y-119898412D01*
X89582246Y-119696243D01*
X89615500Y-119486287D01*
X89615500Y-119273713D01*
X89582246Y-119063757D01*
X89516557Y-118861588D01*
X89420051Y-118672184D01*
X89420049Y-118672181D01*
X89420048Y-118672179D01*
X89295109Y-118500213D01*
X89144786Y-118349890D01*
X88972820Y-118224951D01*
X88965809Y-118221379D01*
X88964054Y-118220485D01*
X88913259Y-118172512D01*
X88896463Y-118104692D01*
X88918999Y-118038556D01*
X88964054Y-117999515D01*
X88972816Y-117995051D01*
X89132332Y-117879157D01*
X89144786Y-117870109D01*
X89144788Y-117870106D01*
X89144792Y-117870104D01*
X89295104Y-117719792D01*
X89295106Y-117719788D01*
X89295109Y-117719786D01*
X89345203Y-117650837D01*
X105714500Y-117650837D01*
X105714500Y-117879162D01*
X105750215Y-118104660D01*
X105820770Y-118321803D01*
X105890793Y-118459229D01*
X105924421Y-118525228D01*
X106058621Y-118709937D01*
X106220063Y-118871379D01*
X106404772Y-119005579D01*
X106500884Y-119054550D01*
X106608196Y-119109229D01*
X106608198Y-119109229D01*
X106608201Y-119109231D01*
X106724592Y-119147049D01*
X106825339Y-119179784D01*
X107050838Y-119215500D01*
X107050843Y-119215500D01*
X107279162Y-119215500D01*
X107504660Y-119179784D01*
X107721799Y-119109231D01*
X107925228Y-119005579D01*
X108109937Y-118871379D01*
X108271379Y-118709937D01*
X108405579Y-118525228D01*
X108509231Y-118321799D01*
X108579784Y-118104660D01*
X108586867Y-118059938D01*
X108615500Y-117879162D01*
X108615500Y-117650837D01*
X108605693Y-117588920D01*
X110414499Y-117588920D01*
X110443340Y-117733907D01*
X110443343Y-117733917D01*
X110499912Y-117870488D01*
X110499919Y-117870501D01*
X110582048Y-117993415D01*
X110582051Y-117993419D01*
X110686580Y-118097948D01*
X110686584Y-118097951D01*
X110809498Y-118180080D01*
X110809511Y-118180087D01*
X110946082Y-118236656D01*
X110946087Y-118236658D01*
X110946091Y-118236658D01*
X110946092Y-118236659D01*
X111091079Y-118265500D01*
X111091082Y-118265500D01*
X111238920Y-118265500D01*
X111336462Y-118246096D01*
X111383913Y-118236658D01*
X111489547Y-118192902D01*
X111520488Y-118180087D01*
X111520488Y-118180086D01*
X111520495Y-118180084D01*
X111643416Y-118097951D01*
X111747951Y-117993416D01*
X111830084Y-117870495D01*
X111886658Y-117733913D01*
X111915500Y-117588918D01*
X111915500Y-117441082D01*
X111915500Y-117441079D01*
X111886659Y-117296092D01*
X111886658Y-117296091D01*
X111886658Y-117296087D01*
X111850255Y-117208201D01*
X111830087Y-117159511D01*
X111830080Y-117159498D01*
X111766846Y-117064862D01*
X111747951Y-117036583D01*
X111712205Y-117000837D01*
X113214500Y-117000837D01*
X113214500Y-117229162D01*
X113250215Y-117454660D01*
X113320770Y-117671803D01*
X113421810Y-117870104D01*
X113424421Y-117875228D01*
X113558621Y-118059937D01*
X113720063Y-118221379D01*
X113904772Y-118355579D01*
X114000884Y-118404550D01*
X114108196Y-118459229D01*
X114108198Y-118459229D01*
X114108201Y-118459231D01*
X114224592Y-118497049D01*
X114325339Y-118529784D01*
X114550838Y-118565500D01*
X114550843Y-118565500D01*
X114779162Y-118565500D01*
X115004660Y-118529784D01*
X115018682Y-118525228D01*
X115221799Y-118459231D01*
X115425228Y-118355579D01*
X115609937Y-118221379D01*
X115771379Y-118059937D01*
X115905579Y-117875228D01*
X116009231Y-117671799D01*
X116079784Y-117454660D01*
X116095028Y-117358412D01*
X116115500Y-117229162D01*
X116115500Y-117000837D01*
X116079784Y-116775339D01*
X116009229Y-116558196D01*
X115954550Y-116450884D01*
X115905579Y-116354772D01*
X115771379Y-116170063D01*
X115609937Y-116008621D01*
X115425228Y-115874421D01*
X115221803Y-115770770D01*
X115004660Y-115700215D01*
X114779162Y-115664500D01*
X114779157Y-115664500D01*
X114550843Y-115664500D01*
X114550838Y-115664500D01*
X114325339Y-115700215D01*
X114108196Y-115770770D01*
X113904771Y-115874421D01*
X113720061Y-116008622D01*
X113558622Y-116170061D01*
X113424421Y-116354771D01*
X113320770Y-116558196D01*
X113250215Y-116775339D01*
X113214500Y-117000837D01*
X111712205Y-117000837D01*
X111643419Y-116932051D01*
X111643415Y-116932048D01*
X111520501Y-116849919D01*
X111520488Y-116849912D01*
X111383917Y-116793343D01*
X111383907Y-116793340D01*
X111238920Y-116764500D01*
X111238918Y-116764500D01*
X111091082Y-116764500D01*
X111091080Y-116764500D01*
X110946092Y-116793340D01*
X110946082Y-116793343D01*
X110809511Y-116849912D01*
X110809498Y-116849919D01*
X110686584Y-116932048D01*
X110686580Y-116932051D01*
X110582051Y-117036580D01*
X110582048Y-117036584D01*
X110499919Y-117159498D01*
X110499912Y-117159511D01*
X110443343Y-117296082D01*
X110443340Y-117296092D01*
X110414500Y-117441079D01*
X110414500Y-117441082D01*
X110414500Y-117588918D01*
X110414500Y-117588920D01*
X110414499Y-117588920D01*
X108605693Y-117588920D01*
X108584385Y-117454388D01*
X108579784Y-117425339D01*
X108547049Y-117324592D01*
X108509231Y-117208201D01*
X108509229Y-117208198D01*
X108509229Y-117208196D01*
X108405578Y-117004771D01*
X108402720Y-117000837D01*
X108271379Y-116820063D01*
X108109937Y-116658621D01*
X107925228Y-116524421D01*
X107923925Y-116523757D01*
X107721803Y-116420770D01*
X107504660Y-116350215D01*
X107279162Y-116314500D01*
X107279157Y-116314500D01*
X107050843Y-116314500D01*
X107050838Y-116314500D01*
X106825339Y-116350215D01*
X106608196Y-116420770D01*
X106404771Y-116524421D01*
X106220061Y-116658622D01*
X106058622Y-116820061D01*
X105924421Y-117004771D01*
X105820770Y-117208196D01*
X105750215Y-117425339D01*
X105714500Y-117650837D01*
X89345203Y-117650837D01*
X89401692Y-117573086D01*
X89409451Y-117562405D01*
X89420051Y-117547816D01*
X89516557Y-117358412D01*
X89582246Y-117156243D01*
X89615500Y-116946287D01*
X89615500Y-116733713D01*
X89582246Y-116523757D01*
X89516557Y-116321588D01*
X89420051Y-116132184D01*
X89420049Y-116132181D01*
X89420048Y-116132179D01*
X89295109Y-115960213D01*
X89144786Y-115809890D01*
X88972820Y-115684951D01*
X88972115Y-115684591D01*
X88964054Y-115680485D01*
X88913259Y-115632512D01*
X88896463Y-115564692D01*
X88918999Y-115498556D01*
X88964054Y-115459515D01*
X88972816Y-115455051D01*
X88994789Y-115439086D01*
X89144786Y-115330109D01*
X89144788Y-115330106D01*
X89144792Y-115330104D01*
X89295104Y-115179792D01*
X89295106Y-115179788D01*
X89295109Y-115179786D01*
X89420048Y-115007820D01*
X89420047Y-115007820D01*
X89420051Y-115007816D01*
X89516557Y-114818412D01*
X89582246Y-114616243D01*
X89615500Y-114406287D01*
X89615500Y-114193713D01*
X89582246Y-113983757D01*
X89516557Y-113781588D01*
X89420051Y-113592184D01*
X89420049Y-113592181D01*
X89420048Y-113592179D01*
X89295109Y-113420213D01*
X89144786Y-113269890D01*
X88972820Y-113144951D01*
X88972115Y-113144591D01*
X88964054Y-113140485D01*
X88913259Y-113092512D01*
X88896463Y-113024692D01*
X88918999Y-112958556D01*
X88964054Y-112919515D01*
X88972816Y-112915051D01*
X88994789Y-112899086D01*
X89144786Y-112790109D01*
X89144788Y-112790106D01*
X89144792Y-112790104D01*
X89295104Y-112639792D01*
X89295106Y-112639788D01*
X89295109Y-112639786D01*
X89420048Y-112467820D01*
X89420047Y-112467820D01*
X89420051Y-112467816D01*
X89516557Y-112278412D01*
X89582246Y-112076243D01*
X89615500Y-111866287D01*
X89615500Y-111653713D01*
X89582246Y-111443757D01*
X89516557Y-111241588D01*
X89420051Y-111052184D01*
X89420049Y-111052181D01*
X89420048Y-111052179D01*
X89295109Y-110880213D01*
X89144786Y-110729890D01*
X88972820Y-110604951D01*
X88972115Y-110604591D01*
X88964054Y-110600485D01*
X88913259Y-110552512D01*
X88896463Y-110484692D01*
X88918999Y-110418556D01*
X88964054Y-110379515D01*
X88972816Y-110375051D01*
X89087127Y-110292000D01*
X89144786Y-110250109D01*
X89144788Y-110250106D01*
X89144792Y-110250104D01*
X89295104Y-110099792D01*
X89295106Y-110099788D01*
X89295109Y-110099786D01*
X89420048Y-109927820D01*
X89420050Y-109927817D01*
X89420051Y-109927816D01*
X89516557Y-109738412D01*
X89582246Y-109536243D01*
X89604866Y-109393429D01*
X93416000Y-109393429D01*
X93416000Y-109554570D01*
X93447433Y-109712594D01*
X93447435Y-109712602D01*
X93509096Y-109861466D01*
X93598619Y-109995447D01*
X93712552Y-110109380D01*
X93846533Y-110198903D01*
X93920965Y-110229733D01*
X93995398Y-110260565D01*
X94153429Y-110291999D01*
X94153433Y-110292000D01*
X94153434Y-110292000D01*
X94314567Y-110292000D01*
X94314568Y-110291999D01*
X94472602Y-110260565D01*
X94621468Y-110198902D01*
X94702740Y-110144598D01*
X109890000Y-110144598D01*
X109890000Y-110425401D01*
X109921437Y-110704412D01*
X109921439Y-110704424D01*
X109983921Y-110978178D01*
X109983922Y-110978180D01*
X110076662Y-111243217D01*
X110198492Y-111496200D01*
X110347884Y-111733956D01*
X110454187Y-111867257D01*
X111095747Y-111225697D01*
X111169588Y-111327330D01*
X111347670Y-111505412D01*
X111449300Y-111579251D01*
X110807741Y-112220810D01*
X110807741Y-112220811D01*
X110941043Y-112327115D01*
X111178799Y-112476507D01*
X111431782Y-112598337D01*
X111696819Y-112691077D01*
X111696821Y-112691078D01*
X111970575Y-112753560D01*
X111970587Y-112753562D01*
X112249598Y-112784999D01*
X112249600Y-112785000D01*
X112530400Y-112785000D01*
X112530401Y-112784999D01*
X112809412Y-112753562D01*
X112809424Y-112753560D01*
X113083178Y-112691078D01*
X113083180Y-112691077D01*
X113348217Y-112598337D01*
X113601200Y-112476507D01*
X113838956Y-112327116D01*
X113972257Y-112220810D01*
X113330698Y-111579251D01*
X113432330Y-111505412D01*
X113610412Y-111327330D01*
X113684251Y-111225698D01*
X114325810Y-111867257D01*
X114432116Y-111733956D01*
X114581507Y-111496200D01*
X114703337Y-111243217D01*
X114796077Y-110978180D01*
X114796078Y-110978178D01*
X114858560Y-110704424D01*
X114858562Y-110704412D01*
X114889999Y-110425401D01*
X114890000Y-110425399D01*
X114890000Y-110144600D01*
X114889999Y-110144598D01*
X114858562Y-109865587D01*
X114858560Y-109865575D01*
X114796078Y-109591821D01*
X114796077Y-109591819D01*
X114703337Y-109326782D01*
X114581507Y-109073799D01*
X114432115Y-108836043D01*
X114325810Y-108702741D01*
X113684251Y-109344300D01*
X113610412Y-109242670D01*
X113432330Y-109064588D01*
X113330697Y-108990747D01*
X113972257Y-108349187D01*
X113838956Y-108242884D01*
X113601200Y-108093492D01*
X113348217Y-107971662D01*
X113083180Y-107878922D01*
X113083178Y-107878921D01*
X112809424Y-107816439D01*
X112809412Y-107816437D01*
X112530401Y-107785000D01*
X112249598Y-107785000D01*
X111970587Y-107816437D01*
X111970575Y-107816439D01*
X111696821Y-107878921D01*
X111696819Y-107878922D01*
X111431782Y-107971662D01*
X111178799Y-108093492D01*
X110941043Y-108242884D01*
X110807741Y-108349187D01*
X111449301Y-108990747D01*
X111347670Y-109064588D01*
X111169588Y-109242670D01*
X111095747Y-109344301D01*
X110454187Y-108702741D01*
X110347884Y-108836043D01*
X110198492Y-109073799D01*
X110076662Y-109326782D01*
X109983922Y-109591819D01*
X109983921Y-109591821D01*
X109921439Y-109865575D01*
X109921437Y-109865587D01*
X109890000Y-110144598D01*
X94702740Y-110144598D01*
X94755445Y-110109382D01*
X94765368Y-110099459D01*
X94811385Y-110053443D01*
X94869379Y-109995448D01*
X94869380Y-109995447D01*
X94869382Y-109995445D01*
X94958902Y-109861468D01*
X94963275Y-109850912D01*
X94967932Y-109839666D01*
X95020565Y-109712602D01*
X95052000Y-109554566D01*
X95052000Y-109393434D01*
X95020565Y-109235398D01*
X94962824Y-109096000D01*
X94958903Y-109086533D01*
X94869380Y-108952552D01*
X94841047Y-108924219D01*
X94807562Y-108862896D01*
X94812546Y-108793204D01*
X94854418Y-108737271D01*
X94919882Y-108712854D01*
X94976178Y-108721976D01*
X95011398Y-108736565D01*
X95099428Y-108754075D01*
X95169429Y-108767999D01*
X95169433Y-108768000D01*
X95169434Y-108768000D01*
X95330567Y-108768000D01*
X95330568Y-108767999D01*
X95488602Y-108736565D01*
X95637468Y-108674902D01*
X95771445Y-108585382D01*
X95885382Y-108471445D01*
X95974902Y-108337468D01*
X96036565Y-108188602D01*
X96068000Y-108030566D01*
X96068000Y-107869434D01*
X96036565Y-107711398D01*
X96005733Y-107636965D01*
X95974903Y-107562533D01*
X95885380Y-107428552D01*
X95771447Y-107314619D01*
X95637466Y-107225096D01*
X95488602Y-107163435D01*
X95488594Y-107163433D01*
X95330570Y-107132000D01*
X95330566Y-107132000D01*
X95169434Y-107132000D01*
X95169429Y-107132000D01*
X95011405Y-107163433D01*
X95011397Y-107163435D01*
X94862533Y-107225096D01*
X94728552Y-107314619D01*
X94614619Y-107428552D01*
X94525096Y-107562533D01*
X94463435Y-107711397D01*
X94463433Y-107711405D01*
X94432000Y-107869429D01*
X94432000Y-108030570D01*
X94463433Y-108188594D01*
X94463435Y-108188602D01*
X94525096Y-108337466D01*
X94614619Y-108471447D01*
X94642952Y-108499780D01*
X94676437Y-108561103D01*
X94671453Y-108630795D01*
X94629581Y-108686728D01*
X94564117Y-108711145D01*
X94507819Y-108702022D01*
X94472606Y-108687436D01*
X94472594Y-108687433D01*
X94314570Y-108656000D01*
X94314566Y-108656000D01*
X94153434Y-108656000D01*
X94153429Y-108656000D01*
X93995405Y-108687433D01*
X93995397Y-108687435D01*
X93846533Y-108749096D01*
X93712552Y-108838619D01*
X93598619Y-108952552D01*
X93509096Y-109086533D01*
X93447435Y-109235397D01*
X93447433Y-109235405D01*
X93416000Y-109393429D01*
X89604866Y-109393429D01*
X89615500Y-109326287D01*
X89615500Y-109113713D01*
X89582246Y-108903757D01*
X89516557Y-108701588D01*
X89420051Y-108512184D01*
X89420049Y-108512181D01*
X89420048Y-108512179D01*
X89295109Y-108340213D01*
X89144786Y-108189890D01*
X88972820Y-108064951D01*
X88972115Y-108064591D01*
X88964054Y-108060485D01*
X88913259Y-108012512D01*
X88896463Y-107944692D01*
X88918999Y-107878556D01*
X88964054Y-107839515D01*
X88972816Y-107835051D01*
X89041706Y-107785000D01*
X89144786Y-107710109D01*
X89144788Y-107710106D01*
X89144792Y-107710104D01*
X89295104Y-107559792D01*
X89295106Y-107559788D01*
X89295109Y-107559786D01*
X89420048Y-107387820D01*
X89420050Y-107387817D01*
X89420051Y-107387816D01*
X89516557Y-107198412D01*
X89582246Y-106996243D01*
X89615500Y-106786287D01*
X89615500Y-106573713D01*
X89582246Y-106363757D01*
X89535026Y-106218429D01*
X93416000Y-106218429D01*
X93416000Y-106379570D01*
X93447433Y-106537594D01*
X93447435Y-106537602D01*
X93509096Y-106686466D01*
X93598619Y-106820447D01*
X93712552Y-106934380D01*
X93846533Y-107023903D01*
X93920965Y-107054733D01*
X93995398Y-107085565D01*
X94153429Y-107116999D01*
X94153433Y-107117000D01*
X94153434Y-107117000D01*
X94314567Y-107117000D01*
X94314568Y-107116999D01*
X94472602Y-107085565D01*
X94621468Y-107023902D01*
X94755445Y-106934382D01*
X94869382Y-106820445D01*
X94958902Y-106686468D01*
X95020565Y-106537602D01*
X95052000Y-106379566D01*
X95052000Y-106218434D01*
X95020565Y-106060398D01*
X94984023Y-105972179D01*
X94958903Y-105911533D01*
X94869380Y-105777552D01*
X94755447Y-105663619D01*
X94621466Y-105574096D01*
X94472602Y-105512435D01*
X94472594Y-105512433D01*
X94314570Y-105481000D01*
X94314566Y-105481000D01*
X94153434Y-105481000D01*
X94153429Y-105481000D01*
X93995405Y-105512433D01*
X93995397Y-105512435D01*
X93846533Y-105574096D01*
X93712552Y-105663619D01*
X93598619Y-105777552D01*
X93509096Y-105911533D01*
X93447435Y-106060397D01*
X93447433Y-106060405D01*
X93416000Y-106218429D01*
X89535026Y-106218429D01*
X89516557Y-106161588D01*
X89420051Y-105972184D01*
X89420049Y-105972181D01*
X89420048Y-105972179D01*
X89295109Y-105800213D01*
X89144786Y-105649890D01*
X88972820Y-105524951D01*
X88964600Y-105520763D01*
X88964054Y-105520485D01*
X88913259Y-105472512D01*
X88896463Y-105404692D01*
X88918999Y-105338556D01*
X88964054Y-105299515D01*
X88972816Y-105295051D01*
X88994789Y-105279086D01*
X89144786Y-105170109D01*
X89144788Y-105170106D01*
X89144792Y-105170104D01*
X89295104Y-105019792D01*
X89295106Y-105019788D01*
X89295109Y-105019786D01*
X89420048Y-104847820D01*
X89420047Y-104847820D01*
X89420051Y-104847816D01*
X89516557Y-104658412D01*
X89582246Y-104456243D01*
X89615500Y-104246287D01*
X89615500Y-104033713D01*
X89582246Y-103823757D01*
X89516557Y-103621588D01*
X89516555Y-103621585D01*
X89516555Y-103621583D01*
X89450397Y-103491742D01*
X89420051Y-103432184D01*
X89420049Y-103432181D01*
X89420048Y-103432179D01*
X89295109Y-103260213D01*
X89144786Y-103109890D01*
X88972820Y-102984951D01*
X88970076Y-102983553D01*
X88964054Y-102980485D01*
X88913259Y-102932512D01*
X88896463Y-102864692D01*
X88918999Y-102798556D01*
X88964054Y-102759515D01*
X88972816Y-102755051D01*
X89043125Y-102703969D01*
X89144786Y-102630109D01*
X89144788Y-102630106D01*
X89144792Y-102630104D01*
X89295104Y-102479792D01*
X89420051Y-102307816D01*
X89516557Y-102118412D01*
X89582246Y-101916243D01*
X89615500Y-101706287D01*
X89615500Y-101493713D01*
X89582246Y-101283757D01*
X89516557Y-101081588D01*
X89420051Y-100892184D01*
X89420049Y-100892181D01*
X89420048Y-100892179D01*
X89295109Y-100720213D01*
X89144786Y-100569890D01*
X88972820Y-100444951D01*
X88967717Y-100442351D01*
X88964054Y-100440485D01*
X88913259Y-100392512D01*
X88896463Y-100324692D01*
X88918999Y-100258556D01*
X88964054Y-100219515D01*
X88972816Y-100215051D01*
X88994789Y-100199086D01*
X89144786Y-100090109D01*
X89144788Y-100090106D01*
X89144792Y-100090104D01*
X89295104Y-99939792D01*
X89295106Y-99939788D01*
X89295109Y-99939786D01*
X89420048Y-99767820D01*
X89420047Y-99767820D01*
X89420051Y-99767816D01*
X89516557Y-99578412D01*
X89582246Y-99376243D01*
X89615500Y-99166287D01*
X89615500Y-98953713D01*
X89582246Y-98743757D01*
X89516557Y-98541588D01*
X89420051Y-98352184D01*
X89420049Y-98352181D01*
X89420048Y-98352179D01*
X89295109Y-98180213D01*
X89144786Y-98029890D01*
X88972820Y-97904951D01*
X88972115Y-97904591D01*
X88964054Y-97900485D01*
X88961119Y-97897712D01*
X88957204Y-97896718D01*
X88935929Y-97873922D01*
X88913259Y-97852512D01*
X88912287Y-97848590D01*
X88909532Y-97845638D01*
X88903959Y-97814961D01*
X88896463Y-97784692D01*
X88897766Y-97780867D01*
X88897044Y-97776893D01*
X88908941Y-97748072D01*
X88918999Y-97718556D01*
X88922605Y-97714970D01*
X88923704Y-97712310D01*
X88927248Y-97709429D01*
X97353000Y-97709429D01*
X97353000Y-97870570D01*
X97384433Y-98028594D01*
X97384435Y-98028602D01*
X97446096Y-98177466D01*
X97535619Y-98311447D01*
X97649552Y-98425380D01*
X97783533Y-98514903D01*
X97847950Y-98541585D01*
X97932398Y-98576565D01*
X98041915Y-98598349D01*
X98090429Y-98607999D01*
X98090433Y-98608000D01*
X98090434Y-98608000D01*
X98251567Y-98608000D01*
X98251568Y-98607999D01*
X98409602Y-98576565D01*
X98558468Y-98514902D01*
X98692445Y-98425382D01*
X98806382Y-98311445D01*
X98895902Y-98177468D01*
X98957565Y-98028602D01*
X98989000Y-97870566D01*
X98989000Y-97709434D01*
X98988999Y-97709429D01*
X100655000Y-97709429D01*
X100655000Y-97870570D01*
X100686433Y-98028594D01*
X100686435Y-98028602D01*
X100748096Y-98177466D01*
X100837619Y-98311447D01*
X100951552Y-98425380D01*
X101085533Y-98514903D01*
X101149950Y-98541585D01*
X101234398Y-98576565D01*
X101343915Y-98598349D01*
X101392429Y-98607999D01*
X101392433Y-98608000D01*
X101392434Y-98608000D01*
X101553567Y-98608000D01*
X101553568Y-98607999D01*
X101711602Y-98576565D01*
X101860468Y-98514902D01*
X101994445Y-98425382D01*
X102108382Y-98311445D01*
X102197902Y-98177468D01*
X102259565Y-98028602D01*
X102291000Y-97870566D01*
X102291000Y-97709434D01*
X102259565Y-97551398D01*
X102228733Y-97476965D01*
X102197903Y-97402533D01*
X102108380Y-97268552D01*
X101994447Y-97154619D01*
X101860466Y-97065096D01*
X101711602Y-97003435D01*
X101711594Y-97003433D01*
X101553570Y-96972000D01*
X101553566Y-96972000D01*
X101392434Y-96972000D01*
X101392429Y-96972000D01*
X101234405Y-97003433D01*
X101234397Y-97003435D01*
X101085533Y-97065096D01*
X100951552Y-97154619D01*
X100837619Y-97268552D01*
X100748096Y-97402533D01*
X100686435Y-97551397D01*
X100686433Y-97551405D01*
X100655000Y-97709429D01*
X98988999Y-97709429D01*
X98957565Y-97551398D01*
X98926733Y-97476965D01*
X98895903Y-97402533D01*
X98806380Y-97268552D01*
X98692447Y-97154619D01*
X98558466Y-97065096D01*
X98409602Y-97003435D01*
X98409594Y-97003433D01*
X98251570Y-96972000D01*
X98251566Y-96972000D01*
X98090434Y-96972000D01*
X98090429Y-96972000D01*
X97932405Y-97003433D01*
X97932397Y-97003435D01*
X97783533Y-97065096D01*
X97649552Y-97154619D01*
X97535619Y-97268552D01*
X97446096Y-97402533D01*
X97384435Y-97551397D01*
X97384433Y-97551405D01*
X97353000Y-97709429D01*
X88927248Y-97709429D01*
X88932354Y-97705279D01*
X88949506Y-97688229D01*
X88956478Y-97683375D01*
X88972816Y-97675051D01*
X89144792Y-97550104D01*
X89295104Y-97399792D01*
X89295106Y-97399788D01*
X89295109Y-97399786D01*
X89420048Y-97227820D01*
X89420047Y-97227820D01*
X89420051Y-97227816D01*
X89516557Y-97038412D01*
X89582246Y-96836243D01*
X89615500Y-96626287D01*
X89615500Y-96413713D01*
X89582246Y-96203757D01*
X89516557Y-96001588D01*
X89420051Y-95812184D01*
X89420049Y-95812181D01*
X89420048Y-95812179D01*
X89295109Y-95640213D01*
X89144786Y-95489890D01*
X88972820Y-95364951D01*
X88972115Y-95364591D01*
X88964054Y-95360485D01*
X88961047Y-95357645D01*
X88957041Y-95356621D01*
X88935863Y-95333859D01*
X88913259Y-95312512D01*
X88912264Y-95308497D01*
X88909447Y-95305469D01*
X88903936Y-95274868D01*
X88896463Y-95244692D01*
X88897797Y-95240776D01*
X88897064Y-95236706D01*
X88908970Y-95207985D01*
X88918999Y-95178556D01*
X88921892Y-95175683D01*
X97670500Y-95175683D01*
X97670500Y-95324316D01*
X97699493Y-95470072D01*
X97699495Y-95470080D01*
X97756371Y-95607391D01*
X97838939Y-95730964D01*
X97838945Y-95730971D01*
X97944028Y-95836054D01*
X97944035Y-95836060D01*
X98067608Y-95918628D01*
X98067609Y-95918628D01*
X98067610Y-95918629D01*
X98204920Y-95975505D01*
X98350683Y-96004499D01*
X98350687Y-96004500D01*
X98350688Y-96004500D01*
X98499313Y-96004500D01*
X98499314Y-96004499D01*
X98645080Y-95975505D01*
X98782390Y-95918629D01*
X98905966Y-95836059D01*
X98927417Y-95814607D01*
X98988735Y-95781123D01*
X99058427Y-95786105D01*
X99102779Y-95814607D01*
X99173552Y-95885380D01*
X99307533Y-95974903D01*
X99371950Y-96001585D01*
X99456398Y-96036565D01*
X99565915Y-96058349D01*
X99614429Y-96067999D01*
X99614433Y-96068000D01*
X99614434Y-96068000D01*
X99775567Y-96068000D01*
X99775568Y-96067999D01*
X99933602Y-96036565D01*
X100081010Y-95975506D01*
X100082466Y-95974903D01*
X100082466Y-95974902D01*
X100082468Y-95974902D01*
X100216445Y-95885382D01*
X100287221Y-95814605D01*
X100348542Y-95781122D01*
X100418234Y-95786106D01*
X100462581Y-95814606D01*
X100484034Y-95836059D01*
X100484035Y-95836059D01*
X100484035Y-95836060D01*
X100607608Y-95918628D01*
X100607609Y-95918628D01*
X100607610Y-95918629D01*
X100744920Y-95975505D01*
X100890683Y-96004499D01*
X100890687Y-96004500D01*
X100890688Y-96004500D01*
X101039313Y-96004500D01*
X101039314Y-96004499D01*
X101185080Y-95975505D01*
X101322390Y-95918629D01*
X101445966Y-95836059D01*
X101551059Y-95730966D01*
X101633629Y-95607390D01*
X101690505Y-95470080D01*
X101719500Y-95324312D01*
X101719500Y-95175688D01*
X101690505Y-95029920D01*
X101633629Y-94892610D01*
X101577090Y-94807993D01*
X101551060Y-94769035D01*
X101551054Y-94769028D01*
X101445971Y-94663945D01*
X101445964Y-94663939D01*
X101322391Y-94581371D01*
X101185080Y-94524495D01*
X101185072Y-94524493D01*
X101039316Y-94495500D01*
X101039312Y-94495500D01*
X100890688Y-94495500D01*
X100890683Y-94495500D01*
X100744927Y-94524493D01*
X100744919Y-94524495D01*
X100607608Y-94581371D01*
X100484035Y-94663939D01*
X100484028Y-94663945D01*
X100462582Y-94685392D01*
X100401259Y-94718877D01*
X100331567Y-94713893D01*
X100287220Y-94685392D01*
X100216447Y-94614619D01*
X100082466Y-94525096D01*
X99933602Y-94463435D01*
X99933594Y-94463433D01*
X99775570Y-94432000D01*
X99775566Y-94432000D01*
X99614434Y-94432000D01*
X99614429Y-94432000D01*
X99456405Y-94463433D01*
X99456397Y-94463435D01*
X99307533Y-94525096D01*
X99173552Y-94614619D01*
X99173551Y-94614620D01*
X99102780Y-94685392D01*
X99041457Y-94718877D01*
X98971765Y-94713893D01*
X98927418Y-94685392D01*
X98905971Y-94663945D01*
X98905964Y-94663939D01*
X98782391Y-94581371D01*
X98645080Y-94524495D01*
X98645072Y-94524493D01*
X98499316Y-94495500D01*
X98499312Y-94495500D01*
X98350688Y-94495500D01*
X98350683Y-94495500D01*
X98204927Y-94524493D01*
X98204919Y-94524495D01*
X98067608Y-94581371D01*
X97944035Y-94663939D01*
X97944028Y-94663945D01*
X97838945Y-94769028D01*
X97838939Y-94769035D01*
X97756371Y-94892608D01*
X97699495Y-95029919D01*
X97699493Y-95029927D01*
X97670500Y-95175683D01*
X88921892Y-95175683D01*
X88922690Y-95174891D01*
X88923822Y-95172163D01*
X88932689Y-95164966D01*
X88949662Y-95148121D01*
X88956565Y-95143330D01*
X88972816Y-95135051D01*
X89064426Y-95068492D01*
X89064446Y-95068479D01*
X89144785Y-95010109D01*
X89144783Y-95010109D01*
X89144792Y-95010104D01*
X89295104Y-94859792D01*
X89295106Y-94859788D01*
X89295109Y-94859786D01*
X89420048Y-94687820D01*
X89420047Y-94687820D01*
X89420051Y-94687816D01*
X89516557Y-94498412D01*
X89582246Y-94296243D01*
X89615500Y-94086287D01*
X89615500Y-93873713D01*
X89582246Y-93663757D01*
X89516557Y-93461588D01*
X89420051Y-93272184D01*
X89420049Y-93272181D01*
X89420048Y-93272179D01*
X89295109Y-93100213D01*
X89144786Y-92949890D01*
X88972820Y-92824951D01*
X88972115Y-92824591D01*
X88964054Y-92820485D01*
X88961164Y-92817755D01*
X88957309Y-92816780D01*
X88935973Y-92793963D01*
X88913259Y-92772512D01*
X88912302Y-92768651D01*
X88909587Y-92765747D01*
X88903973Y-92735019D01*
X88896463Y-92704692D01*
X88897745Y-92700927D01*
X88897031Y-92697014D01*
X88908922Y-92668127D01*
X88918999Y-92638556D01*
X88922550Y-92635021D01*
X88923628Y-92632405D01*
X88932141Y-92625478D01*
X88935501Y-92622135D01*
X109199500Y-92622135D01*
X109199500Y-94317870D01*
X109199501Y-94317876D01*
X109205908Y-94377483D01*
X109256202Y-94512328D01*
X109256206Y-94512335D01*
X109342452Y-94627544D01*
X109342455Y-94627547D01*
X109457664Y-94713793D01*
X109457671Y-94713797D01*
X109458687Y-94714176D01*
X109459555Y-94714826D01*
X109465454Y-94718047D01*
X109464991Y-94718894D01*
X109514622Y-94756046D01*
X109539041Y-94821510D01*
X109524191Y-94889783D01*
X109509652Y-94910885D01*
X109508033Y-94912779D01*
X109387715Y-95078386D01*
X109294781Y-95260776D01*
X109231522Y-95455465D01*
X109207460Y-95607390D01*
X109199500Y-95657648D01*
X109199500Y-95862352D01*
X109200987Y-95871742D01*
X109231522Y-96064534D01*
X109294781Y-96259223D01*
X109358691Y-96384653D01*
X109386421Y-96439075D01*
X109387715Y-96441613D01*
X109508028Y-96607213D01*
X109652782Y-96751967D01*
X109652787Y-96751971D01*
X109725337Y-96804682D01*
X109768003Y-96860012D01*
X109773982Y-96929625D01*
X109741376Y-96991420D01*
X109725337Y-97005318D01*
X109652787Y-97058028D01*
X109652782Y-97058032D01*
X109508028Y-97202786D01*
X109387715Y-97368386D01*
X109294781Y-97550776D01*
X109231522Y-97745465D01*
X109199500Y-97947648D01*
X109199500Y-98152351D01*
X109231522Y-98354534D01*
X109294781Y-98549223D01*
X109387715Y-98731613D01*
X109508028Y-98897213D01*
X109652782Y-99041967D01*
X109652787Y-99041971D01*
X109725337Y-99094682D01*
X109768003Y-99150012D01*
X109773982Y-99219625D01*
X109741376Y-99281420D01*
X109725337Y-99295318D01*
X109652787Y-99348028D01*
X109652782Y-99348032D01*
X109508028Y-99492786D01*
X109387715Y-99658386D01*
X109294781Y-99840776D01*
X109231522Y-100035465D01*
X109199500Y-100237648D01*
X109199500Y-100442351D01*
X109231522Y-100644534D01*
X109294781Y-100839223D01*
X109349187Y-100945998D01*
X109386421Y-101019075D01*
X109387715Y-101021613D01*
X109508028Y-101187213D01*
X109652786Y-101331971D01*
X109727606Y-101386330D01*
X109770272Y-101441659D01*
X109778339Y-101496377D01*
X109774077Y-101550524D01*
X110370591Y-102147037D01*
X110307007Y-102164075D01*
X110192993Y-102229901D01*
X110099901Y-102322993D01*
X110034075Y-102437007D01*
X110017037Y-102500590D01*
X109420524Y-101904077D01*
X109420523Y-101904077D01*
X109388143Y-101948644D01*
X109295244Y-102130968D01*
X109232009Y-102325582D01*
X109200000Y-102527682D01*
X109200000Y-102732317D01*
X109232009Y-102934417D01*
X109295244Y-103129031D01*
X109388141Y-103311350D01*
X109388147Y-103311359D01*
X109420523Y-103355921D01*
X109420524Y-103355922D01*
X110017037Y-102759409D01*
X110034075Y-102822993D01*
X110099901Y-102937007D01*
X110192993Y-103030099D01*
X110307007Y-103095925D01*
X110370590Y-103112962D01*
X109774076Y-103709474D01*
X109818650Y-103741859D01*
X110000968Y-103834755D01*
X110195582Y-103897990D01*
X110397683Y-103930000D01*
X110602317Y-103930000D01*
X110804417Y-103897990D01*
X110999031Y-103834755D01*
X111181349Y-103741859D01*
X111225921Y-103709474D01*
X110629409Y-103112962D01*
X110692993Y-103095925D01*
X110807007Y-103030099D01*
X110900099Y-102937007D01*
X110965925Y-102822993D01*
X110982962Y-102759408D01*
X111579474Y-103355921D01*
X111611859Y-103311349D01*
X111704755Y-103129031D01*
X111767990Y-102934417D01*
X111767990Y-102934416D01*
X111788640Y-102804036D01*
X111818569Y-102740901D01*
X111877880Y-102703969D01*
X111947743Y-102704967D01*
X111949432Y-102705502D01*
X112095582Y-102752990D01*
X112297683Y-102785000D01*
X112502317Y-102785000D01*
X112704417Y-102752990D01*
X112850086Y-102705658D01*
X112919927Y-102703662D01*
X112979760Y-102739742D01*
X113010589Y-102802443D01*
X113010878Y-102804191D01*
X113031522Y-102934534D01*
X113094781Y-103129223D01*
X113158691Y-103254653D01*
X113187585Y-103311359D01*
X113187715Y-103311613D01*
X113308028Y-103477213D01*
X113452786Y-103621971D01*
X113560920Y-103700533D01*
X113618390Y-103742287D01*
X113734607Y-103801503D01*
X113800776Y-103835218D01*
X113800778Y-103835218D01*
X113800781Y-103835220D01*
X113905137Y-103869127D01*
X113995465Y-103898477D01*
X114096557Y-103914488D01*
X114197648Y-103930500D01*
X114197649Y-103930500D01*
X114402351Y-103930500D01*
X114402352Y-103930500D01*
X114604534Y-103898477D01*
X114799219Y-103835220D01*
X114981610Y-103742287D01*
X115074590Y-103674732D01*
X115147213Y-103621971D01*
X115147215Y-103621968D01*
X115147219Y-103621966D01*
X115291966Y-103477219D01*
X115291968Y-103477215D01*
X115291971Y-103477213D01*
X115344732Y-103404590D01*
X115412287Y-103311610D01*
X115505220Y-103129219D01*
X115568477Y-102934534D01*
X115600500Y-102732352D01*
X115600500Y-102527648D01*
X115586144Y-102437007D01*
X115568477Y-102325465D01*
X115516038Y-102164075D01*
X115505220Y-102130781D01*
X115505218Y-102130778D01*
X115505218Y-102130776D01*
X115469996Y-102061650D01*
X115412287Y-101948390D01*
X115366304Y-101885099D01*
X115291971Y-101782786D01*
X115147219Y-101638034D01*
X115074662Y-101585319D01*
X115031996Y-101529989D01*
X115026017Y-101460376D01*
X115058622Y-101398580D01*
X115074662Y-101384681D01*
X115147219Y-101331966D01*
X115291966Y-101187219D01*
X115291968Y-101187215D01*
X115291971Y-101187213D01*
X115366304Y-101084901D01*
X115412287Y-101021610D01*
X115505220Y-100839219D01*
X115568477Y-100644534D01*
X115600500Y-100442352D01*
X115600500Y-100237648D01*
X115568477Y-100035466D01*
X115505220Y-99840781D01*
X115505218Y-99840778D01*
X115505218Y-99840776D01*
X115440621Y-99713999D01*
X115412287Y-99658390D01*
X115354182Y-99578414D01*
X115291971Y-99492786D01*
X115147219Y-99348034D01*
X115074662Y-99295319D01*
X115031996Y-99239989D01*
X115026017Y-99170376D01*
X115058622Y-99108580D01*
X115074662Y-99094681D01*
X115147219Y-99041966D01*
X115291966Y-98897219D01*
X115291968Y-98897215D01*
X115291971Y-98897213D01*
X115344732Y-98824590D01*
X115412287Y-98731610D01*
X115505220Y-98549219D01*
X115568477Y-98354534D01*
X115600500Y-98152352D01*
X115600500Y-97947648D01*
X115573455Y-97776893D01*
X115568477Y-97745465D01*
X115521950Y-97602270D01*
X115505220Y-97550781D01*
X115505218Y-97550778D01*
X115505218Y-97550776D01*
X115471503Y-97484607D01*
X115412287Y-97368390D01*
X115366304Y-97305099D01*
X115291971Y-97202786D01*
X115147219Y-97058034D01*
X115074662Y-97005319D01*
X115031996Y-96949989D01*
X115026017Y-96880376D01*
X115058622Y-96818580D01*
X115074662Y-96804681D01*
X115147219Y-96751966D01*
X115291966Y-96607219D01*
X115291968Y-96607215D01*
X115291971Y-96607213D01*
X115366304Y-96504901D01*
X115412287Y-96441610D01*
X115505220Y-96259219D01*
X115568477Y-96064534D01*
X115600500Y-95862352D01*
X115600500Y-95657648D01*
X115570792Y-95470080D01*
X115568477Y-95455465D01*
X115525862Y-95324312D01*
X115505220Y-95260781D01*
X115505218Y-95260778D01*
X115505218Y-95260776D01*
X115460067Y-95172163D01*
X115412287Y-95078390D01*
X115366304Y-95015099D01*
X115291971Y-94912786D01*
X115147219Y-94768034D01*
X115079583Y-94718894D01*
X115074661Y-94715318D01*
X115031996Y-94659989D01*
X115026017Y-94590376D01*
X115058622Y-94528580D01*
X115074662Y-94514681D01*
X115077891Y-94512335D01*
X115147219Y-94461966D01*
X115291966Y-94317219D01*
X115291968Y-94317215D01*
X115291971Y-94317213D01*
X115366304Y-94214901D01*
X115412287Y-94151610D01*
X115505220Y-93969219D01*
X115568477Y-93774534D01*
X115600500Y-93572352D01*
X115600500Y-93367648D01*
X115585380Y-93272184D01*
X115568477Y-93165465D01*
X115505218Y-92970776D01*
X115471503Y-92904607D01*
X115412287Y-92788390D01*
X115373511Y-92735019D01*
X115291971Y-92622786D01*
X115147213Y-92478028D01*
X114981613Y-92357715D01*
X114981612Y-92357714D01*
X114981610Y-92357713D01*
X114907174Y-92319786D01*
X114799223Y-92264781D01*
X114604534Y-92201522D01*
X114429995Y-92173878D01*
X114402352Y-92169500D01*
X114197648Y-92169500D01*
X114157184Y-92175909D01*
X113995464Y-92201523D01*
X113995461Y-92201523D01*
X113849352Y-92248997D01*
X113779510Y-92250992D01*
X113719678Y-92214911D01*
X113688850Y-92152210D01*
X113688561Y-92150464D01*
X113667989Y-92020582D01*
X113604755Y-91825968D01*
X113511859Y-91643650D01*
X113479474Y-91599077D01*
X113479474Y-91599076D01*
X112882962Y-92195589D01*
X112865925Y-92132007D01*
X112800099Y-92017993D01*
X112707007Y-91924901D01*
X112592993Y-91859075D01*
X112529408Y-91842037D01*
X113125922Y-91245524D01*
X113125921Y-91245523D01*
X113081359Y-91213147D01*
X113081350Y-91213141D01*
X112899031Y-91120244D01*
X112704417Y-91057009D01*
X112502317Y-91025000D01*
X112297683Y-91025000D01*
X112095582Y-91057009D01*
X111900968Y-91120244D01*
X111718644Y-91213143D01*
X111674077Y-91245523D01*
X111674077Y-91245524D01*
X112270591Y-91842037D01*
X112207007Y-91859075D01*
X112092993Y-91924901D01*
X111999901Y-92017993D01*
X111934075Y-92132007D01*
X111917037Y-92195590D01*
X111320524Y-91599077D01*
X111320523Y-91599077D01*
X111288143Y-91643644D01*
X111195244Y-91825970D01*
X111132009Y-92020586D01*
X111124991Y-92064898D01*
X111095062Y-92128033D01*
X111035750Y-92164964D01*
X111002518Y-92169500D01*
X109652129Y-92169500D01*
X109652123Y-92169501D01*
X109592516Y-92175908D01*
X109457671Y-92226202D01*
X109457664Y-92226206D01*
X109342455Y-92312452D01*
X109342452Y-92312455D01*
X109256206Y-92427664D01*
X109256202Y-92427671D01*
X109205908Y-92562517D01*
X109199501Y-92622116D01*
X109199500Y-92622135D01*
X88935501Y-92622135D01*
X88949407Y-92608299D01*
X88956429Y-92603400D01*
X88972816Y-92595051D01*
X89144792Y-92470104D01*
X89295104Y-92319792D01*
X89295106Y-92319788D01*
X89295109Y-92319786D01*
X89420048Y-92147820D01*
X89420047Y-92147820D01*
X89420051Y-92147816D01*
X89516557Y-91958412D01*
X89582246Y-91756243D01*
X89615500Y-91546287D01*
X89615500Y-91333713D01*
X89582246Y-91123757D01*
X89516557Y-90921588D01*
X89420051Y-90732184D01*
X89420049Y-90732181D01*
X89420048Y-90732179D01*
X89295109Y-90560213D01*
X89144786Y-90409890D01*
X88972820Y-90284951D01*
X88972115Y-90284591D01*
X88964054Y-90280485D01*
X88913259Y-90232512D01*
X88896463Y-90164692D01*
X88918999Y-90098556D01*
X88964054Y-90059515D01*
X88972816Y-90055051D01*
X88994789Y-90039086D01*
X89144786Y-89930109D01*
X89144788Y-89930106D01*
X89144792Y-89930104D01*
X89295104Y-89779792D01*
X89295106Y-89779788D01*
X89295109Y-89779786D01*
X89420048Y-89607820D01*
X89420047Y-89607820D01*
X89420051Y-89607816D01*
X89516557Y-89418412D01*
X89582246Y-89216243D01*
X89615500Y-89006287D01*
X89615500Y-88793713D01*
X89582246Y-88583757D01*
X89516557Y-88381588D01*
X89420051Y-88192184D01*
X89420049Y-88192181D01*
X89420048Y-88192179D01*
X89295109Y-88020213D01*
X89144786Y-87869890D01*
X88972820Y-87744951D01*
X88972115Y-87744591D01*
X88964054Y-87740485D01*
X88913259Y-87692512D01*
X88896463Y-87624692D01*
X88918999Y-87558556D01*
X88964054Y-87519515D01*
X88972816Y-87515051D01*
X89025868Y-87476507D01*
X89144786Y-87390109D01*
X89144788Y-87390106D01*
X89144792Y-87390104D01*
X89295104Y-87239792D01*
X89295106Y-87239788D01*
X89295109Y-87239786D01*
X89420048Y-87067820D01*
X89420047Y-87067820D01*
X89420051Y-87067816D01*
X89498205Y-86914429D01*
X100147000Y-86914429D01*
X100147000Y-87075570D01*
X100178433Y-87233594D01*
X100178435Y-87233602D01*
X100240096Y-87382466D01*
X100329619Y-87516447D01*
X100443552Y-87630380D01*
X100577533Y-87719903D01*
X100638000Y-87744949D01*
X100726398Y-87781565D01*
X100884429Y-87812999D01*
X100884433Y-87813000D01*
X100884434Y-87813000D01*
X101045567Y-87813000D01*
X101045568Y-87812999D01*
X101203602Y-87781565D01*
X101352468Y-87719902D01*
X101486445Y-87630382D01*
X101600382Y-87516445D01*
X101689902Y-87382468D01*
X101751565Y-87233602D01*
X101783000Y-87075566D01*
X101783000Y-86914434D01*
X101751565Y-86756398D01*
X101708919Y-86653443D01*
X101689903Y-86607533D01*
X101600380Y-86473552D01*
X101486447Y-86359619D01*
X101352466Y-86270096D01*
X101203602Y-86208435D01*
X101203594Y-86208433D01*
X101045570Y-86177000D01*
X101045566Y-86177000D01*
X100884434Y-86177000D01*
X100884429Y-86177000D01*
X100726405Y-86208433D01*
X100726397Y-86208435D01*
X100577533Y-86270096D01*
X100443552Y-86359619D01*
X100329619Y-86473552D01*
X100240096Y-86607533D01*
X100178435Y-86756397D01*
X100178433Y-86756405D01*
X100147000Y-86914429D01*
X89498205Y-86914429D01*
X89516557Y-86878412D01*
X89582246Y-86676243D01*
X89615500Y-86466287D01*
X89615500Y-86253713D01*
X89582246Y-86043757D01*
X89516557Y-85841588D01*
X89420051Y-85652184D01*
X89420049Y-85652181D01*
X89420048Y-85652179D01*
X89295109Y-85480213D01*
X89181569Y-85366673D01*
X89148084Y-85305350D01*
X89153068Y-85235658D01*
X89194940Y-85179725D01*
X89225915Y-85162810D01*
X89274745Y-85144598D01*
X109890000Y-85144598D01*
X109890000Y-85425401D01*
X109921437Y-85704412D01*
X109921439Y-85704424D01*
X109983921Y-85978178D01*
X109983922Y-85978180D01*
X110076662Y-86243217D01*
X110198492Y-86496200D01*
X110347884Y-86733956D01*
X110454187Y-86867257D01*
X111095747Y-86225697D01*
X111169588Y-86327330D01*
X111347670Y-86505412D01*
X111449300Y-86579251D01*
X110807741Y-87220810D01*
X110807741Y-87220811D01*
X110941043Y-87327115D01*
X111178799Y-87476507D01*
X111431782Y-87598337D01*
X111696819Y-87691077D01*
X111696821Y-87691078D01*
X111970575Y-87753560D01*
X111970587Y-87753562D01*
X112249598Y-87784999D01*
X112249600Y-87785000D01*
X112530400Y-87785000D01*
X112530401Y-87784999D01*
X112809412Y-87753562D01*
X112809424Y-87753560D01*
X113083178Y-87691078D01*
X113083180Y-87691077D01*
X113348217Y-87598337D01*
X113601200Y-87476507D01*
X113838956Y-87327116D01*
X113972257Y-87220810D01*
X113330698Y-86579251D01*
X113432330Y-86505412D01*
X113610412Y-86327330D01*
X113684251Y-86225698D01*
X114325810Y-86867257D01*
X114432116Y-86733956D01*
X114581507Y-86496200D01*
X114703337Y-86243217D01*
X114796077Y-85978180D01*
X114796078Y-85978178D01*
X114858560Y-85704424D01*
X114858562Y-85704412D01*
X114889999Y-85425401D01*
X114890000Y-85425399D01*
X114890000Y-85144600D01*
X114889999Y-85144598D01*
X114858562Y-84865587D01*
X114858560Y-84865575D01*
X114796078Y-84591821D01*
X114796077Y-84591819D01*
X114703337Y-84326782D01*
X114581507Y-84073799D01*
X114432115Y-83836043D01*
X114325810Y-83702741D01*
X113684251Y-84344300D01*
X113610412Y-84242670D01*
X113432330Y-84064588D01*
X113330697Y-83990747D01*
X113972257Y-83349187D01*
X113838956Y-83242884D01*
X113601200Y-83093492D01*
X113348217Y-82971662D01*
X113083180Y-82878922D01*
X113083178Y-82878921D01*
X112809424Y-82816439D01*
X112809412Y-82816437D01*
X112530401Y-82785000D01*
X112249598Y-82785000D01*
X111970587Y-82816437D01*
X111970575Y-82816439D01*
X111696821Y-82878921D01*
X111696819Y-82878922D01*
X111431782Y-82971662D01*
X111178799Y-83093492D01*
X110941043Y-83242884D01*
X110807741Y-83349187D01*
X111449301Y-83990747D01*
X111347670Y-84064588D01*
X111169588Y-84242670D01*
X111095747Y-84344301D01*
X110454187Y-83702741D01*
X110347884Y-83836043D01*
X110198492Y-84073799D01*
X110076662Y-84326782D01*
X109983922Y-84591819D01*
X109983921Y-84591821D01*
X109921439Y-84865575D01*
X109921437Y-84865587D01*
X109890000Y-85144598D01*
X89274745Y-85144598D01*
X89357331Y-85113796D01*
X89472546Y-85027546D01*
X89558796Y-84912331D01*
X89609091Y-84777483D01*
X89615500Y-84717873D01*
X89615499Y-82922128D01*
X89609091Y-82862517D01*
X89608002Y-82859598D01*
X89558797Y-82727671D01*
X89558793Y-82727664D01*
X89472547Y-82612455D01*
X89472544Y-82612452D01*
X89357335Y-82526206D01*
X89357328Y-82526202D01*
X89222482Y-82475908D01*
X89222483Y-82475908D01*
X89162883Y-82469501D01*
X89162881Y-82469500D01*
X89162873Y-82469500D01*
X89162864Y-82469500D01*
X87367129Y-82469500D01*
X87367123Y-82469501D01*
X87307516Y-82475908D01*
X87172671Y-82526202D01*
X87172664Y-82526206D01*
X87057455Y-82612452D01*
X87057452Y-82612455D01*
X86971206Y-82727664D01*
X86971202Y-82727671D01*
X86921997Y-82859598D01*
X86880126Y-82915532D01*
X86814661Y-82939949D01*
X86746388Y-82925097D01*
X86718134Y-82903946D01*
X86604464Y-82790276D01*
X86604459Y-82790272D01*
X86432557Y-82665379D01*
X86243215Y-82568903D01*
X86041124Y-82503241D01*
X85975000Y-82492768D01*
X85975000Y-83386988D01*
X85917993Y-83354075D01*
X85790826Y-83320000D01*
X85659174Y-83320000D01*
X85532007Y-83354075D01*
X85475000Y-83386988D01*
X85475000Y-82492768D01*
X85474999Y-82492768D01*
X85408875Y-82503241D01*
X85206784Y-82568903D01*
X85017442Y-82665379D01*
X84845540Y-82790272D01*
X84845535Y-82790276D01*
X84695276Y-82940535D01*
X84695272Y-82940540D01*
X84570379Y-83112442D01*
X84473904Y-83301782D01*
X84408242Y-83503870D01*
X84408242Y-83503873D01*
X84397769Y-83570000D01*
X85291988Y-83570000D01*
X85259075Y-83627007D01*
X85225000Y-83754174D01*
X85225000Y-83885826D01*
X85259075Y-84012993D01*
X85291988Y-84070000D01*
X84397769Y-84070000D01*
X84408242Y-84136126D01*
X84408242Y-84136129D01*
X84473904Y-84338217D01*
X84570379Y-84527557D01*
X84695272Y-84699459D01*
X84695276Y-84699464D01*
X84845535Y-84849723D01*
X84845540Y-84849727D01*
X85017444Y-84974622D01*
X85026495Y-84979234D01*
X85077292Y-85027208D01*
X85094087Y-85095029D01*
X85071550Y-85161164D01*
X85026499Y-85200202D01*
X85017182Y-85204949D01*
X84845213Y-85329890D01*
X84694890Y-85480213D01*
X84569951Y-85652179D01*
X84473444Y-85841585D01*
X84407753Y-86043760D01*
X84374500Y-86253713D01*
X78740000Y-86253713D01*
X78740000Y-76760683D01*
X83700500Y-76760683D01*
X83700500Y-76909316D01*
X83729493Y-77055072D01*
X83729495Y-77055080D01*
X83786371Y-77192391D01*
X83868939Y-77315964D01*
X83868945Y-77315971D01*
X83974028Y-77421054D01*
X83974035Y-77421060D01*
X84097608Y-77503628D01*
X84097609Y-77503628D01*
X84097610Y-77503629D01*
X84234920Y-77560505D01*
X84380683Y-77589499D01*
X84380687Y-77589500D01*
X84380688Y-77589500D01*
X84529313Y-77589500D01*
X84529314Y-77589499D01*
X84675080Y-77560505D01*
X84812390Y-77503629D01*
X84935966Y-77421059D01*
X85041059Y-77315966D01*
X85123629Y-77192390D01*
X85180505Y-77055080D01*
X85209500Y-76909312D01*
X85209500Y-76760688D01*
X85208255Y-76754429D01*
X88717000Y-76754429D01*
X88717000Y-76915570D01*
X88748433Y-77073594D01*
X88748435Y-77073602D01*
X88810096Y-77222466D01*
X88899619Y-77356447D01*
X89013552Y-77470380D01*
X89147533Y-77559903D01*
X89218985Y-77589499D01*
X89296398Y-77621565D01*
X89454429Y-77652999D01*
X89454433Y-77653000D01*
X89454434Y-77653000D01*
X89615567Y-77653000D01*
X89615568Y-77652999D01*
X89773602Y-77621565D01*
X89921010Y-77560506D01*
X89922466Y-77559903D01*
X89922466Y-77559902D01*
X89922468Y-77559902D01*
X90056445Y-77470382D01*
X90170382Y-77356445D01*
X90259902Y-77222468D01*
X90321565Y-77073602D01*
X90353000Y-76915566D01*
X90353000Y-76754434D01*
X90321565Y-76596398D01*
X90272360Y-76477608D01*
X90259903Y-76447533D01*
X90170380Y-76313552D01*
X90056447Y-76199619D01*
X89922466Y-76110096D01*
X89773602Y-76048435D01*
X89773594Y-76048433D01*
X89615570Y-76017000D01*
X89615566Y-76017000D01*
X89454434Y-76017000D01*
X89454429Y-76017000D01*
X89296405Y-76048433D01*
X89296397Y-76048435D01*
X89147533Y-76110096D01*
X89013552Y-76199619D01*
X88899619Y-76313552D01*
X88810096Y-76447533D01*
X88748435Y-76596397D01*
X88748433Y-76596405D01*
X88717000Y-76754429D01*
X85208255Y-76754429D01*
X85180505Y-76614920D01*
X85123629Y-76477610D01*
X85103532Y-76447533D01*
X85041060Y-76354035D01*
X85041054Y-76354028D01*
X84935971Y-76248945D01*
X84935964Y-76248939D01*
X84812391Y-76166371D01*
X84675080Y-76109495D01*
X84675072Y-76109493D01*
X84529316Y-76080500D01*
X84529312Y-76080500D01*
X84380688Y-76080500D01*
X84380683Y-76080500D01*
X84234927Y-76109493D01*
X84234919Y-76109495D01*
X84097608Y-76166371D01*
X83974035Y-76248939D01*
X83974028Y-76248945D01*
X83868945Y-76354028D01*
X83868939Y-76354035D01*
X83786371Y-76477608D01*
X83729495Y-76614919D01*
X83729493Y-76614927D01*
X83700500Y-76760683D01*
X78740000Y-76760683D01*
X78740000Y-70872160D01*
X78759685Y-70805121D01*
X78812489Y-70759366D01*
X78881647Y-70749422D01*
X78945203Y-70778447D01*
X78982661Y-70836165D01*
X79062086Y-71097997D01*
X79201207Y-71433864D01*
X79201209Y-71433869D01*
X79372570Y-71754462D01*
X79372581Y-71754480D01*
X79574551Y-72056750D01*
X79761678Y-72284765D01*
X79761679Y-72284766D01*
X81255747Y-70790697D01*
X81329588Y-70892330D01*
X81507670Y-71070412D01*
X81609301Y-71144251D01*
X80115232Y-72638319D01*
X80115233Y-72638320D01*
X80343249Y-72825448D01*
X80645519Y-73027418D01*
X80645537Y-73027429D01*
X80966130Y-73198790D01*
X80966135Y-73198792D01*
X81302002Y-73337913D01*
X81649898Y-73443446D01*
X81649909Y-73443449D01*
X82006443Y-73514367D01*
X82368234Y-73550000D01*
X82731766Y-73550000D01*
X83093556Y-73514367D01*
X83450090Y-73443449D01*
X83450101Y-73443446D01*
X83797997Y-73337913D01*
X84133864Y-73198792D01*
X84133869Y-73198790D01*
X84454462Y-73027429D01*
X84454480Y-73027418D01*
X84756736Y-72825457D01*
X84756750Y-72825447D01*
X84984765Y-72638320D01*
X84984766Y-72638319D01*
X83490698Y-71144251D01*
X83592330Y-71070412D01*
X83770412Y-70892330D01*
X83844251Y-70790698D01*
X85338319Y-72284766D01*
X85338320Y-72284765D01*
X85525447Y-72056750D01*
X85525457Y-72056736D01*
X85727418Y-71754480D01*
X85727429Y-71754462D01*
X85898790Y-71433869D01*
X85898792Y-71433864D01*
X86037913Y-71097997D01*
X86143446Y-70750101D01*
X86143449Y-70750090D01*
X86214367Y-70393556D01*
X86250000Y-70031765D01*
X86250000Y-69668234D01*
X86214367Y-69306443D01*
X86143449Y-68949909D01*
X86143446Y-68949898D01*
X86037913Y-68602002D01*
X85898792Y-68266135D01*
X85898790Y-68266130D01*
X85727429Y-67945537D01*
X85727418Y-67945519D01*
X85525448Y-67643249D01*
X85338320Y-67415233D01*
X85338319Y-67415232D01*
X83844251Y-68909300D01*
X83770412Y-68807670D01*
X83592330Y-68629588D01*
X83490698Y-68555748D01*
X84984766Y-67061679D01*
X84984765Y-67061678D01*
X84756750Y-66874551D01*
X84454480Y-66672581D01*
X84454462Y-66672570D01*
X84133869Y-66501209D01*
X84133864Y-66501207D01*
X83797997Y-66362086D01*
X83536166Y-66282661D01*
X83477727Y-66244363D01*
X83449271Y-66180551D01*
X83459831Y-66111484D01*
X83506055Y-66059090D01*
X83572161Y-66040000D01*
X113277839Y-66040000D01*
X113344878Y-66059685D01*
G37*
%TD.AperFunction*%
%TA.AperFunction,Conductor*%
G36*
X118038516Y-146959830D02*
G01*
X118090910Y-147006054D01*
X118110000Y-147072160D01*
X118110000Y-148297404D01*
X118090580Y-148364029D01*
X117943632Y-148594690D01*
X117937428Y-148603551D01*
X117707978Y-148902577D01*
X117701024Y-148910864D01*
X117446393Y-149188744D01*
X117438744Y-149196393D01*
X117160864Y-149451024D01*
X117152577Y-149457978D01*
X116853551Y-149687428D01*
X116844690Y-149693632D01*
X116614029Y-149840580D01*
X116547404Y-149860000D01*
X115322161Y-149860000D01*
X115255122Y-149840315D01*
X115209367Y-149787511D01*
X115199423Y-149718353D01*
X115228448Y-149654797D01*
X115286166Y-149617339D01*
X115547997Y-149537913D01*
X115883864Y-149398792D01*
X115883869Y-149398790D01*
X116204462Y-149227429D01*
X116204480Y-149227418D01*
X116506736Y-149025457D01*
X116506750Y-149025447D01*
X116734765Y-148838320D01*
X116734766Y-148838319D01*
X115240698Y-147344251D01*
X115342330Y-147270412D01*
X115520412Y-147092330D01*
X115594251Y-146990698D01*
X117088319Y-148484766D01*
X117088320Y-148484765D01*
X117275447Y-148256750D01*
X117275457Y-148256736D01*
X117477418Y-147954480D01*
X117477429Y-147954462D01*
X117648790Y-147633869D01*
X117648792Y-147633864D01*
X117787913Y-147297997D01*
X117867339Y-147036165D01*
X117905637Y-146977726D01*
X117969449Y-146949270D01*
X118038516Y-146959830D01*
G37*
%TD.AperFunction*%
%TA.AperFunction,Conductor*%
G36*
X81594878Y-66059685D02*
G01*
X81640633Y-66112489D01*
X81650577Y-66181647D01*
X81621552Y-66245203D01*
X81563834Y-66282661D01*
X81302002Y-66362086D01*
X80966135Y-66501207D01*
X80966130Y-66501209D01*
X80645537Y-66672570D01*
X80645519Y-66672581D01*
X80343258Y-66874545D01*
X80343254Y-66874548D01*
X80115233Y-67061679D01*
X80115233Y-67061680D01*
X81609301Y-68555748D01*
X81507670Y-68629588D01*
X81329588Y-68807670D01*
X81255748Y-68909301D01*
X79761680Y-67415233D01*
X79761679Y-67415233D01*
X79574548Y-67643254D01*
X79574545Y-67643258D01*
X79372581Y-67945519D01*
X79372570Y-67945537D01*
X79201209Y-68266130D01*
X79201207Y-68266135D01*
X79062086Y-68602002D01*
X78982661Y-68863834D01*
X78944363Y-68922273D01*
X78880551Y-68950729D01*
X78811484Y-68940169D01*
X78759090Y-68893945D01*
X78740000Y-68827839D01*
X78740000Y-67602594D01*
X78759419Y-67535972D01*
X78906373Y-67305300D01*
X78912564Y-67296457D01*
X79142028Y-66997412D01*
X79148966Y-66989144D01*
X79403616Y-66711244D01*
X79411244Y-66703616D01*
X79689144Y-66448966D01*
X79697412Y-66442028D01*
X79996468Y-66212556D01*
X80005273Y-66206390D01*
X80235973Y-66059418D01*
X80302596Y-66040000D01*
X81527839Y-66040000D01*
X81594878Y-66059685D01*
G37*
%TD.AperFunction*%
%TA.AperFunction,Conductor*%
G36*
X116614026Y-66059418D02*
G01*
X116844715Y-66206383D01*
X116853542Y-66212564D01*
X116944894Y-66282661D01*
X117152577Y-66442021D01*
X117160864Y-66448975D01*
X117438744Y-66703606D01*
X117446393Y-66711255D01*
X117701024Y-66989135D01*
X117707978Y-66997422D01*
X117937428Y-67296449D01*
X117943629Y-67305305D01*
X118090581Y-67535973D01*
X118110000Y-67602594D01*
X118110000Y-68827839D01*
X118090315Y-68894878D01*
X118037511Y-68940633D01*
X117968353Y-68950577D01*
X117904797Y-68921552D01*
X117867339Y-68863834D01*
X117787913Y-68602002D01*
X117648792Y-68266135D01*
X117648790Y-68266130D01*
X117477429Y-67945537D01*
X117477418Y-67945519D01*
X117275448Y-67643249D01*
X117088320Y-67415233D01*
X117088319Y-67415232D01*
X115594251Y-68909300D01*
X115520412Y-68807670D01*
X115342330Y-68629588D01*
X115240698Y-68555748D01*
X116734766Y-67061679D01*
X116734765Y-67061678D01*
X116506750Y-66874551D01*
X116204480Y-66672581D01*
X116204462Y-66672570D01*
X115883869Y-66501209D01*
X115883864Y-66501207D01*
X115547997Y-66362086D01*
X115286166Y-66282661D01*
X115227727Y-66244363D01*
X115199271Y-66180551D01*
X115209831Y-66111484D01*
X115256055Y-66059090D01*
X115322161Y-66040000D01*
X116547404Y-66040000D01*
X116614026Y-66059418D01*
G37*
%TD.AperFunction*%
%TD*%
M02*
