M48
; DRILL file {KiCad 9.0.2+1} date 2025-07-26T23:59:47+0100
; FORMAT={-:-/ absolute / inch / decimal}
; #@! TF.CreationDate,2025-07-26T23:59:47+01:00
; #@! TF.GenerationSoftware,Kicad,Pcbnew,9.0.2+1
; #@! TF.FileFunction,Plated,1,4,PTH
FMAT,2
INCH
; #@! TA.AperFunction,Plated,PTH,ComponentDrill
T1C0.0079
; #@! TA.AperFunction,Plated,PTH,ViaDrill
T2C0.0120
; #@! TA.AperFunction,Plated,PTH,ComponentDrill
T3C0.0354
; #@! TA.AperFunction,Plated,PTH,ComponentDrill
T4C0.0394
; #@! TA.AperFunction,Plated,PTH,ComponentDrill
T5C0.0472
; #@! TA.AperFunction,Plated,PTH,ComponentDrill
T6C0.1260
%
G90
G05
T1
X3.9618Y-3.5643
X3.9618Y-3.6116
X3.9618Y-3.6588
X3.9618Y-3.7061
X4.0091Y-3.5643
X4.0091Y-3.6116
X4.0091Y-3.6588
X4.0091Y-3.7061
X4.0563Y-3.5643
X4.0563Y-3.6116
X4.0563Y-3.6588
X4.0563Y-3.7061
X4.1035Y-3.5643
X4.1035Y-3.6116
X4.1035Y-3.6588
X4.1035Y-3.7061
T2
X3.275Y-3.05
X3.3793Y-3.05
X3.475Y-3.05
X3.785Y-3.925
X3.7991Y-4.0959
X3.8847Y-3.8198
X3.895Y-4.0
X3.945Y-3.985
X3.9459Y-4.125
X3.99Y-3.285
X3.99Y-3.335
X4.01Y-3.9787
X4.0375Y-3.9787
X4.0499Y-3.91
X4.07Y-3.945
X4.095Y-4.0
X4.1016Y-3.8166
X4.145Y-3.28
X4.175Y-3.28
X4.1825Y-3.3725
X4.185Y-4.065
X4.1885Y-4.0216
X4.1963Y-3.91
X4.21Y-3.545
X4.21Y-3.665
X4.21Y-3.7591
X4.238Y-4.668
X4.238Y-4.8
X4.238Y-4.95
X4.238Y-5.08
X4.36Y-3.805
X4.365Y-3.945
X4.365Y-4.025
X4.375Y-3.36
X4.375Y-3.415
X4.375Y-3.47
X4.415Y-3.665
X4.4154Y-3.7835
X4.4166Y-3.5461
X4.425Y-3.415
X4.425Y-3.47
X4.425Y-5.025
X4.4266Y-5.2
X4.5Y-4.775
X4.5052Y-4.8598
X4.52Y-5.2
X4.565Y-5.155
X4.62Y-5.285
X4.625Y-4.911
X4.6314Y-4.9614
X4.6524Y-3.8124
X4.675Y-5.085
X4.675Y-5.33
X4.725Y-4.9624
X4.73Y-5.285
X4.7877Y-4.8273
X4.79Y-5.155
X4.845Y-3.835
X4.85Y-4.775
X4.85Y-4.9
X4.8543Y-3.5157
X4.8543Y-3.5787
X4.8543Y-3.6339
X4.8543Y-3.6949
T4
X3.375Y-3.3
X3.375Y-3.4
X3.375Y-3.5
X3.375Y-3.6
X3.375Y-3.7
X3.375Y-3.8
X3.375Y-3.9
X3.375Y-4.0
X3.375Y-4.1
X3.375Y-4.2
X3.375Y-4.3
X3.375Y-4.4
X3.375Y-4.5
X3.375Y-4.6
X3.375Y-4.7
X3.375Y-4.8
X3.375Y-4.9
X3.375Y-5.0
X3.375Y-5.1
X3.375Y-5.2
X3.475Y-3.3
X3.475Y-3.4
X3.475Y-3.5
X3.475Y-3.6
X3.475Y-3.7
X3.475Y-3.8
X3.475Y-3.9
X3.475Y-4.0
X3.475Y-4.1
X3.475Y-4.2
X3.475Y-4.3
X3.475Y-4.4
X3.475Y-4.5
X3.475Y-4.6
X3.475Y-4.7
X3.475Y-4.8
X3.475Y-4.9
X3.475Y-5.0
X3.475Y-5.1
X3.475Y-5.2
T5
X4.7191Y-4.3464
X4.7191Y-4.5236
X5.0144Y-4.3208
X5.0144Y-4.5492
T6
X3.25Y-2.75
X3.25Y-5.75
X5.0Y-2.75
X5.0Y-5.75
T3
G00X4.7474Y-3.3891
M15
G01X4.8183Y-3.3891
M16
G05
G00X4.7474Y-3.96
M15
G01X4.8183Y-3.96
M16
G05
G00X5.0018Y-3.3891
M15
G01X5.0333Y-3.3891
M16
G05
G00X5.0018Y-3.96
M15
G01X5.0333Y-3.96
M16
G05
M30
