%TF.GenerationSoftware,KiCad,Pcbnew,9.0.2+1*%
%TF.CreationDate,2025-07-26T23:59:44+01:00*%
%TF.ProjectId,ICE40HXDevBoardHDMI,49434534-3048-4584-9465-76426f617264,rev?*%
%TF.SameCoordinates,Original*%
%TF.FileFunction,Soldermask,Bot*%
%TF.FilePolarity,Negative*%
%FSLAX46Y46*%
G04 Gerber Fmt 4.6, Leading zero omitted, Abs format (unit mm)*
G04 Created by KiCad (PCBNEW 9.0.2+1) date 2025-07-26 23:59:44*
%MOMM*%
%LPD*%
G01*
G04 APERTURE LIST*
G04 Aperture macros list*
%AMRoundRect*
0 Rectangle with rounded corners*
0 $1 Rounding radius*
0 $2 $3 $4 $5 $6 $7 $8 $9 X,Y pos of 4 corners*
0 Add a 4 corners polygon primitive as box body*
4,1,4,$2,$3,$4,$5,$6,$7,$8,$9,$2,$3,0*
0 Add four circle primitives for the rounded corners*
1,1,$1+$1,$2,$3*
1,1,$1+$1,$4,$5*
1,1,$1+$1,$6,$7*
1,1,$1+$1,$8,$9*
0 Add four rect primitives between the rounded corners*
20,1,$1+$1,$2,$3,$4,$5,0*
20,1,$1+$1,$4,$5,$6,$7,0*
20,1,$1+$1,$6,$7,$8,$9,0*
20,1,$1+$1,$8,$9,$2,$3,0*%
G04 Aperture macros list end*
%ADD10C,1.000000*%
%ADD11R,1.900000X1.900000*%
%ADD12C,1.900000*%
%ADD13C,6.400000*%
%ADD14R,1.700000X1.700000*%
%ADD15O,1.700000X1.700000*%
%ADD16O,3.300000X1.500000*%
%ADD17O,2.300000X1.500000*%
%ADD18RoundRect,0.225000X-0.225000X-0.250000X0.225000X-0.250000X0.225000X0.250000X-0.225000X0.250000X0*%
%ADD19RoundRect,0.250000X-0.450000X-0.425000X0.450000X-0.425000X0.450000X0.425000X-0.450000X0.425000X0*%
%ADD20RoundRect,0.250000X0.250000X0.475000X-0.250000X0.475000X-0.250000X-0.475000X0.250000X-0.475000X0*%
%ADD21RoundRect,0.218750X0.218750X0.381250X-0.218750X0.381250X-0.218750X-0.381250X0.218750X-0.381250X0*%
%ADD22RoundRect,0.218750X-0.218750X-0.381250X0.218750X-0.381250X0.218750X0.381250X-0.218750X0.381250X0*%
%ADD23RoundRect,0.250000X-0.425000X0.450000X-0.425000X-0.450000X0.425000X-0.450000X0.425000X0.450000X0*%
%ADD24RoundRect,0.250000X-0.262500X-0.450000X0.262500X-0.450000X0.262500X0.450000X-0.262500X0.450000X0*%
%ADD25RoundRect,0.250000X0.425000X-0.450000X0.425000X0.450000X-0.425000X0.450000X-0.425000X-0.450000X0*%
%ADD26RoundRect,0.225000X0.250000X-0.225000X0.250000X0.225000X-0.250000X0.225000X-0.250000X-0.225000X0*%
%ADD27RoundRect,0.225000X-0.250000X0.225000X-0.250000X-0.225000X0.250000X-0.225000X0.250000X0.225000X0*%
%ADD28RoundRect,0.250000X-0.450000X0.262500X-0.450000X-0.262500X0.450000X-0.262500X0.450000X0.262500X0*%
G04 APERTURE END LIST*
D10*
%TO.C,J2*%
X123865000Y-115149000D03*
X123865000Y-110149000D03*
D11*
X119865000Y-114899000D03*
D12*
X119865000Y-110399000D03*
X127365000Y-115549000D03*
X127365000Y-109749000D03*
%TD*%
D13*
%TO.C,H4*%
X127000000Y-146050000D03*
%TD*%
%TO.C,H3*%
X82550000Y-146050000D03*
%TD*%
D14*
%TO.C,J1*%
X88265000Y-83820000D03*
D15*
X85725000Y-83820000D03*
X88265000Y-86360000D03*
X85725000Y-86360000D03*
X88265000Y-88900000D03*
X85725000Y-88900000D03*
X88265000Y-91440000D03*
X85725000Y-91440000D03*
X88265000Y-93980000D03*
X85725000Y-93980000D03*
X88265000Y-96520000D03*
X85725000Y-96520000D03*
X88265000Y-99060000D03*
X85725000Y-99060000D03*
X88265000Y-101600000D03*
X85725000Y-101600000D03*
X88265000Y-104140000D03*
X85725000Y-104140000D03*
X88265000Y-106680000D03*
X85725000Y-106680000D03*
X88265000Y-109220000D03*
X85725000Y-109220000D03*
X88265000Y-111760000D03*
X85725000Y-111760000D03*
X88265000Y-114300000D03*
X85725000Y-114300000D03*
X88265000Y-116840000D03*
X85725000Y-116840000D03*
X88265000Y-119380000D03*
X85725000Y-119380000D03*
X88265000Y-121920000D03*
X85725000Y-121920000D03*
X88265000Y-124460000D03*
X85725000Y-124460000D03*
X88265000Y-127000000D03*
X85725000Y-127000000D03*
X88265000Y-129540000D03*
X85725000Y-129540000D03*
X88265000Y-132080000D03*
X85725000Y-132080000D03*
%TD*%
D16*
%TO.C,J3*%
X121485000Y-86084000D03*
X121485000Y-100584000D03*
D17*
X127445000Y-86084000D03*
X127445000Y-100584000D03*
%TD*%
D13*
%TO.C,H2*%
X127000000Y-69850000D03*
%TD*%
%TO.C,H1*%
X82550000Y-69850000D03*
%TD*%
D18*
%TO.C,C19*%
X108445000Y-91059000D03*
X109995000Y-91059000D03*
%TD*%
D19*
%TO.C,C1*%
X119300000Y-121285000D03*
X122000000Y-121285000D03*
%TD*%
D20*
%TO.C,C27*%
X116774000Y-125984000D03*
X114874000Y-125984000D03*
%TD*%
D21*
%TO.C,FB4*%
X106980500Y-101219000D03*
X104855500Y-101219000D03*
%TD*%
D22*
%TO.C,FB5*%
X108157500Y-85344000D03*
X110282500Y-85344000D03*
%TD*%
D23*
%TO.C,C14*%
X100203000Y-97456000D03*
X100203000Y-100156000D03*
%TD*%
D24*
%TO.C,R8*%
X84812500Y-77470000D03*
X86637500Y-77470000D03*
%TD*%
D18*
%TO.C,C12*%
X108445000Y-99314000D03*
X109995000Y-99314000D03*
%TD*%
D25*
%TO.C,C13*%
X103632000Y-86694000D03*
X103632000Y-83994000D03*
%TD*%
D23*
%TO.C,C4*%
X113625000Y-129380000D03*
X113625000Y-132080000D03*
%TD*%
D18*
%TO.C,C22*%
X108445000Y-87249000D03*
X109995000Y-87249000D03*
%TD*%
D26*
%TO.C,C16*%
X105537000Y-86119000D03*
X105537000Y-84569000D03*
%TD*%
D19*
%TO.C,C11*%
X107870000Y-95504000D03*
X110570000Y-95504000D03*
%TD*%
D25*
%TO.C,C23*%
X113030000Y-123905000D03*
X113030000Y-121205000D03*
%TD*%
D21*
%TO.C,FB2*%
X97074500Y-97917000D03*
X94949500Y-97917000D03*
%TD*%
D27*
%TO.C,C15*%
X102235000Y-98539000D03*
X102235000Y-100089000D03*
%TD*%
D25*
%TO.C,C30*%
X124460000Y-123905000D03*
X124460000Y-121205000D03*
%TD*%
D18*
%TO.C,C18*%
X108445000Y-89154000D03*
X109995000Y-89154000D03*
%TD*%
%TO.C,C20*%
X108445000Y-97409000D03*
X109995000Y-97409000D03*
%TD*%
D28*
%TO.C,R7*%
X112522000Y-95099500D03*
X112522000Y-96924500D03*
%TD*%
D19*
%TO.C,C17*%
X107870000Y-92964000D03*
X110570000Y-92964000D03*
%TD*%
D18*
%TO.C,C21*%
X108445000Y-101219000D03*
X109995000Y-101219000D03*
%TD*%
M02*
