%TF.GenerationSoftware,KiCad,Pcbnew,9.0.2+1*%
%TF.CreationDate,2025-07-26T23:59:43+01:00*%
%TF.ProjectId,ICE40HXDevBoardHDMI,49434534-3048-4584-9465-76426f617264,rev?*%
%TF.SameCoordinates,Original*%
%TF.FileFunction,Copper,L3,Inr*%
%TF.FilePolarity,Positive*%
%FSLAX46Y46*%
G04 Gerber Fmt 4.6, Leading zero omitted, Abs format (unit mm)*
G04 Created by KiCad (PCBNEW 9.0.2+1) date 2025-07-26 23:59:43*
%MOMM*%
%LPD*%
G01*
G04 APERTURE LIST*
%TA.AperFunction,ComponentPad*%
%ADD10R,1.900000X1.900000*%
%TD*%
%TA.AperFunction,ComponentPad*%
%ADD11C,1.900000*%
%TD*%
%TA.AperFunction,ComponentPad*%
%ADD12C,6.400000*%
%TD*%
%TA.AperFunction,ComponentPad*%
%ADD13R,1.700000X1.700000*%
%TD*%
%TA.AperFunction,ComponentPad*%
%ADD14O,1.700000X1.700000*%
%TD*%
%TA.AperFunction,ComponentPad*%
%ADD15O,3.300000X1.500000*%
%TD*%
%TA.AperFunction,ComponentPad*%
%ADD16O,2.300000X1.500000*%
%TD*%
%TA.AperFunction,HeatsinkPad*%
%ADD17C,0.500000*%
%TD*%
%TA.AperFunction,ViaPad*%
%ADD18C,0.635000*%
%TD*%
%TA.AperFunction,ViaPad*%
%ADD19C,0.508000*%
%TD*%
%TA.AperFunction,ViaPad*%
%ADD20C,0.762000*%
%TD*%
G04 APERTURE END LIST*
D10*
%TO.N,Net-(C26-Pad1)*%
%TO.C,J2*%
X119865000Y-114899000D03*
D11*
%TO.N,GNDA*%
X119865000Y-110399000D03*
%TO.N,Net-(C25-Pad1)*%
X127365000Y-115549000D03*
X127365000Y-109749000D03*
%TD*%
D12*
%TO.N,GND*%
%TO.C,H4*%
X127000000Y-146050000D03*
%TD*%
%TO.N,GND*%
%TO.C,H3*%
X82550000Y-146050000D03*
%TD*%
D13*
%TO.N,+5V*%
%TO.C,J1*%
X88265000Y-83820000D03*
D14*
%TO.N,GND*%
X85725000Y-83820000D03*
%TO.N,unconnected-(J1-Pin_3-Pad3)*%
X88265000Y-86360000D03*
%TO.N,unconnected-(J1-Pin_4-Pad4)*%
X85725000Y-86360000D03*
%TO.N,/RED5*%
X88265000Y-88900000D03*
%TO.N,/RED4*%
X85725000Y-88900000D03*
%TO.N,/RED3*%
X88265000Y-91440000D03*
%TO.N,/RED2*%
X85725000Y-91440000D03*
%TO.N,/RED1*%
X88265000Y-93980000D03*
%TO.N,/RED0*%
X85725000Y-93980000D03*
%TO.N,/GREEN0*%
X88265000Y-96520000D03*
%TO.N,/GREEN1*%
X85725000Y-96520000D03*
%TO.N,/GREEN2*%
X88265000Y-99060000D03*
%TO.N,/GREEN3*%
X85725000Y-99060000D03*
%TO.N,/GREEN4*%
X88265000Y-101600000D03*
%TO.N,/GREEN5*%
X85725000Y-101600000D03*
%TO.N,/BLUE5*%
X88265000Y-104140000D03*
%TO.N,/BLUE4*%
X85725000Y-104140000D03*
%TO.N,+3V3*%
X88265000Y-106680000D03*
%TO.N,GND*%
X85725000Y-106680000D03*
%TO.N,+3V3*%
X88265000Y-109220000D03*
%TO.N,GND*%
X85725000Y-109220000D03*
%TO.N,/HDMICLK*%
X88265000Y-111760000D03*
%TO.N,/BLUE3*%
X85725000Y-111760000D03*
%TO.N,/BLUE2*%
X88265000Y-114300000D03*
%TO.N,/BLUE1*%
X85725000Y-114300000D03*
%TO.N,/BLUE0*%
X88265000Y-116840000D03*
%TO.N,/MSEN*%
X85725000Y-116840000D03*
%TO.N,/HSYNC*%
X88265000Y-119380000D03*
%TO.N,/DE*%
X85725000Y-119380000D03*
%TO.N,/VSYNC*%
X88265000Y-121920000D03*
%TO.N,unconnected-(J1-Pin_32-Pad32)*%
X85725000Y-121920000D03*
%TO.N,/I2SBCK*%
X88265000Y-124460000D03*
%TO.N,unconnected-(J1-Pin_34-Pad34)*%
X85725000Y-124460000D03*
%TO.N,/I2SDIN*%
X88265000Y-127000000D03*
%TO.N,/I2CSCL*%
X85725000Y-127000000D03*
%TO.N,/I2SLRCK*%
X88265000Y-129540000D03*
%TO.N,/I2CSDA*%
X85725000Y-129540000D03*
%TO.N,+5V*%
X88265000Y-132080000D03*
%TO.N,GND*%
X85725000Y-132080000D03*
%TD*%
D15*
%TO.N,GND*%
%TO.C,J3*%
X121485000Y-86084000D03*
X121485000Y-100584000D03*
D16*
X127445000Y-86084000D03*
X127445000Y-100584000D03*
%TD*%
D17*
%TO.N,GND*%
%TO.C,U2*%
X100630000Y-94134000D03*
X101830000Y-94134000D03*
X103030000Y-94134000D03*
X104230000Y-94134000D03*
X100630000Y-92934000D03*
X101830000Y-92934000D03*
X103030000Y-92934000D03*
X104230000Y-92934000D03*
X100630000Y-91734000D03*
X101830000Y-91734000D03*
X103030000Y-91734000D03*
X104230000Y-91734000D03*
X100630000Y-90534000D03*
X101830000Y-90534000D03*
X103030000Y-90534000D03*
X104230000Y-90534000D03*
%TD*%
D12*
%TO.N,GND*%
%TO.C,H2*%
X127000000Y-69850000D03*
%TD*%
%TO.N,GND*%
%TO.C,H1*%
X82550000Y-69850000D03*
%TD*%
D18*
%TO.N,+3V3*%
X88265000Y-77470000D03*
X111125000Y-85344000D03*
X107645000Y-129032000D03*
X104013000Y-101600000D03*
X96139000Y-99695000D03*
X107645000Y-118567000D03*
X100226500Y-104775000D03*
X107645000Y-121920000D03*
X107645000Y-125730000D03*
%TO.N,GND*%
X117348000Y-134239000D03*
X111125000Y-88138000D03*
X123300000Y-93850000D03*
X110871000Y-100203000D03*
X103378000Y-100203000D03*
X123300000Y-90900000D03*
X118745000Y-135382000D03*
X112395000Y-88138000D03*
X112182000Y-90070000D03*
X101346000Y-84709000D03*
X106045000Y-83312000D03*
X85833000Y-77470000D03*
X110744000Y-96647000D03*
X123300000Y-89300000D03*
X110871000Y-102235000D03*
X118170000Y-96834000D03*
X111125000Y-86741000D03*
X100203000Y-101219000D03*
X123300000Y-92300000D03*
X101346000Y-83439000D03*
X112395000Y-86741000D03*
X105283000Y-83312000D03*
X112141000Y-93091000D03*
X120142000Y-134239000D03*
X96496500Y-104036500D03*
D19*
%TO.N,/HSYNC*%
X101854000Y-101060250D03*
%TO.N,/I2S/DVDD*%
X121607500Y-122613500D03*
%TO.N,/VSYNC*%
X102552503Y-101060250D03*
%TO.N,/I2S/AVDD*%
X112395000Y-127635000D03*
%TO.N,GNDA*%
X120015000Y-126044050D03*
X112435000Y-132080000D03*
X115951000Y-130937000D03*
X121666000Y-130937000D03*
X114300000Y-121285000D03*
X114808000Y-132080000D03*
X117475000Y-124740000D03*
X123190000Y-121285000D03*
X118745000Y-129159000D03*
%TO.N,/I2S/CPVDD*%
X114431000Y-123440000D03*
%TO.N,Net-(U5-VNEG)*%
X117638375Y-126020375D03*
%TO.N,/I2S/LDOO*%
X123190000Y-124460000D03*
%TO.N,Net-(D1-K)*%
X83185000Y-77470000D03*
D20*
%TO.N,+5V*%
X123063000Y-97409000D03*
D19*
%TO.N,/MSEN*%
X98933000Y-101600000D03*
%TO.N,/PVDD*%
X106934000Y-95480750D03*
%TO.N,Net-(U2-TFADJ)*%
X112150000Y-96100000D03*
%TO.N,/HPD*%
X102866935Y-99313999D03*
X106584750Y-99314000D03*
%TO.N,/I2CSDA*%
X106299000Y-103251000D03*
%TO.N,/DVDD*%
X104180000Y-96941000D03*
X98670870Y-97022070D03*
X106235500Y-85661500D03*
%TO.N,/TVDD*%
X106934000Y-90043000D03*
X106934000Y-93091000D03*
%TO.N,/I2CSCL*%
X106389070Y-102148918D03*
%TD*%
%TA.AperFunction,Conductor*%
%TO.N,GND*%
G36*
X78945203Y-146978447D02*
G01*
X78982661Y-147036165D01*
X79062086Y-147297997D01*
X79201207Y-147633864D01*
X79201209Y-147633869D01*
X79372570Y-147954462D01*
X79372581Y-147954480D01*
X79574551Y-148256750D01*
X79761678Y-148484765D01*
X79761679Y-148484766D01*
X81255747Y-146990697D01*
X81329588Y-147092330D01*
X81507670Y-147270412D01*
X81609301Y-147344251D01*
X80115232Y-148838319D01*
X80115233Y-148838320D01*
X80343249Y-149025448D01*
X80645519Y-149227418D01*
X80645537Y-149227429D01*
X80966130Y-149398790D01*
X80966135Y-149398792D01*
X81302002Y-149537913D01*
X81563834Y-149617339D01*
X81622273Y-149655637D01*
X81650729Y-149719449D01*
X81640169Y-149788516D01*
X81593945Y-149840910D01*
X81527839Y-149860000D01*
X80302596Y-149860000D01*
X80235973Y-149840581D01*
X80005289Y-149693619D01*
X79996448Y-149687428D01*
X79994626Y-149686030D01*
X79697422Y-149457978D01*
X79689135Y-149451024D01*
X79411255Y-149196393D01*
X79403606Y-149188744D01*
X79148975Y-148910864D01*
X79142021Y-148902577D01*
X79031718Y-148758827D01*
X78912564Y-148603542D01*
X78906383Y-148594715D01*
X78759418Y-148364026D01*
X78740000Y-148297404D01*
X78740000Y-147072160D01*
X78759685Y-147005121D01*
X78812489Y-146959366D01*
X78881647Y-146949422D01*
X78945203Y-146978447D01*
G37*
%TD.AperFunction*%
%TA.AperFunction,Conductor*%
G36*
X85975000Y-108786988D02*
G01*
X85917993Y-108754075D01*
X85790826Y-108720000D01*
X85659174Y-108720000D01*
X85532007Y-108754075D01*
X85475000Y-108786988D01*
X85475000Y-107113012D01*
X85532007Y-107145925D01*
X85659174Y-107180000D01*
X85790826Y-107180000D01*
X85917993Y-107145925D01*
X85975000Y-107113012D01*
X85975000Y-108786988D01*
G37*
%TD.AperFunction*%
%TA.AperFunction,Conductor*%
G36*
X126044878Y-66059685D02*
G01*
X126090633Y-66112489D01*
X126100577Y-66181647D01*
X126071552Y-66245203D01*
X126013834Y-66282661D01*
X125752002Y-66362086D01*
X125416135Y-66501207D01*
X125416130Y-66501209D01*
X125095537Y-66672570D01*
X125095519Y-66672581D01*
X124793258Y-66874545D01*
X124793254Y-66874548D01*
X124565233Y-67061679D01*
X124565233Y-67061680D01*
X126059301Y-68555748D01*
X125957670Y-68629588D01*
X125779588Y-68807670D01*
X125705748Y-68909301D01*
X124211680Y-67415233D01*
X124211679Y-67415233D01*
X124024548Y-67643254D01*
X124024545Y-67643258D01*
X123822581Y-67945519D01*
X123822570Y-67945537D01*
X123651209Y-68266130D01*
X123651207Y-68266135D01*
X123512086Y-68602002D01*
X123406553Y-68949898D01*
X123406550Y-68949909D01*
X123335632Y-69306443D01*
X123300000Y-69668234D01*
X123300000Y-70031765D01*
X123335632Y-70393556D01*
X123406550Y-70750090D01*
X123406553Y-70750101D01*
X123512086Y-71097997D01*
X123651207Y-71433864D01*
X123651209Y-71433869D01*
X123822570Y-71754462D01*
X123822581Y-71754480D01*
X124024551Y-72056750D01*
X124211678Y-72284765D01*
X124211679Y-72284766D01*
X125705747Y-70790697D01*
X125779588Y-70892330D01*
X125957670Y-71070412D01*
X126059301Y-71144251D01*
X124565232Y-72638319D01*
X124565233Y-72638320D01*
X124793249Y-72825448D01*
X125095519Y-73027418D01*
X125095537Y-73027429D01*
X125416130Y-73198790D01*
X125416135Y-73198792D01*
X125752002Y-73337913D01*
X126099898Y-73443446D01*
X126099909Y-73443449D01*
X126456443Y-73514367D01*
X126818234Y-73550000D01*
X127181766Y-73550000D01*
X127543556Y-73514367D01*
X127900090Y-73443449D01*
X127900101Y-73443446D01*
X128247997Y-73337913D01*
X128583864Y-73198792D01*
X128583869Y-73198790D01*
X128904462Y-73027429D01*
X128904480Y-73027418D01*
X129206736Y-72825457D01*
X129206750Y-72825447D01*
X129434765Y-72638320D01*
X129434766Y-72638319D01*
X127940698Y-71144251D01*
X128042330Y-71070412D01*
X128220412Y-70892330D01*
X128294251Y-70790698D01*
X129788319Y-72284766D01*
X129788320Y-72284765D01*
X129975447Y-72056750D01*
X129975457Y-72056736D01*
X130177418Y-71754480D01*
X130177429Y-71754462D01*
X130348790Y-71433869D01*
X130348792Y-71433864D01*
X130487913Y-71097997D01*
X130567339Y-70836165D01*
X130605637Y-70777726D01*
X130669449Y-70749270D01*
X130738516Y-70759830D01*
X130790910Y-70806054D01*
X130810000Y-70872160D01*
X130810000Y-145027839D01*
X130790315Y-145094878D01*
X130737511Y-145140633D01*
X130668353Y-145150577D01*
X130604797Y-145121552D01*
X130567339Y-145063834D01*
X130487913Y-144802002D01*
X130348792Y-144466135D01*
X130348790Y-144466130D01*
X130177429Y-144145537D01*
X130177418Y-144145519D01*
X129975448Y-143843249D01*
X129788320Y-143615233D01*
X129788319Y-143615232D01*
X128294251Y-145109300D01*
X128220412Y-145007670D01*
X128042330Y-144829588D01*
X127940698Y-144755748D01*
X129434766Y-143261679D01*
X129434765Y-143261678D01*
X129206750Y-143074551D01*
X128904480Y-142872581D01*
X128904462Y-142872570D01*
X128583869Y-142701209D01*
X128583864Y-142701207D01*
X128247997Y-142562086D01*
X127900101Y-142456553D01*
X127900090Y-142456550D01*
X127543556Y-142385632D01*
X127181766Y-142350000D01*
X126818234Y-142350000D01*
X126456443Y-142385632D01*
X126099909Y-142456550D01*
X126099898Y-142456553D01*
X125752002Y-142562086D01*
X125416135Y-142701207D01*
X125416130Y-142701209D01*
X125095537Y-142872570D01*
X125095519Y-142872581D01*
X124793258Y-143074545D01*
X124793254Y-143074548D01*
X124565233Y-143261679D01*
X124565233Y-143261680D01*
X126059301Y-144755748D01*
X125957670Y-144829588D01*
X125779588Y-145007670D01*
X125705748Y-145109301D01*
X124211680Y-143615233D01*
X124211679Y-143615233D01*
X124024548Y-143843254D01*
X124024545Y-143843258D01*
X123822581Y-144145519D01*
X123822570Y-144145537D01*
X123651209Y-144466130D01*
X123651207Y-144466135D01*
X123512086Y-144802002D01*
X123406553Y-145149898D01*
X123406550Y-145149909D01*
X123335632Y-145506443D01*
X123300000Y-145868234D01*
X123300000Y-146231765D01*
X123335632Y-146593556D01*
X123406550Y-146950090D01*
X123406553Y-146950101D01*
X123512086Y-147297997D01*
X123651207Y-147633864D01*
X123651209Y-147633869D01*
X123822570Y-147954462D01*
X123822581Y-147954480D01*
X124024551Y-148256750D01*
X124211678Y-148484765D01*
X124211679Y-148484766D01*
X125705747Y-146990697D01*
X125779588Y-147092330D01*
X125957670Y-147270412D01*
X126059301Y-147344251D01*
X124565232Y-148838319D01*
X124565233Y-148838320D01*
X124793249Y-149025448D01*
X125095519Y-149227418D01*
X125095537Y-149227429D01*
X125416130Y-149398790D01*
X125416135Y-149398792D01*
X125752002Y-149537913D01*
X126013834Y-149617339D01*
X126072273Y-149655637D01*
X126100729Y-149719449D01*
X126090169Y-149788516D01*
X126043945Y-149840910D01*
X125977839Y-149860000D01*
X83572161Y-149860000D01*
X83505122Y-149840315D01*
X83459367Y-149787511D01*
X83449423Y-149718353D01*
X83478448Y-149654797D01*
X83536166Y-149617339D01*
X83797997Y-149537913D01*
X84133864Y-149398792D01*
X84133869Y-149398790D01*
X84454462Y-149227429D01*
X84454480Y-149227418D01*
X84756736Y-149025457D01*
X84756750Y-149025447D01*
X84984765Y-148838320D01*
X84984766Y-148838319D01*
X83490698Y-147344251D01*
X83592330Y-147270412D01*
X83770412Y-147092330D01*
X83844251Y-146990698D01*
X85338319Y-148484766D01*
X85338320Y-148484765D01*
X85525447Y-148256750D01*
X85525457Y-148256736D01*
X85727418Y-147954480D01*
X85727429Y-147954462D01*
X85898790Y-147633869D01*
X85898792Y-147633864D01*
X86037913Y-147297997D01*
X86143446Y-146950101D01*
X86143449Y-146950090D01*
X86214367Y-146593556D01*
X86250000Y-146231765D01*
X86250000Y-145868234D01*
X86214367Y-145506443D01*
X86143449Y-145149909D01*
X86143446Y-145149898D01*
X86037913Y-144802002D01*
X85898792Y-144466135D01*
X85898790Y-144466130D01*
X85727429Y-144145537D01*
X85727418Y-144145519D01*
X85525448Y-143843249D01*
X85338320Y-143615233D01*
X85338319Y-143615232D01*
X83844251Y-145109300D01*
X83770412Y-145007670D01*
X83592330Y-144829588D01*
X83490698Y-144755748D01*
X84984766Y-143261679D01*
X84984765Y-143261678D01*
X84756750Y-143074551D01*
X84454480Y-142872581D01*
X84454462Y-142872570D01*
X84133869Y-142701209D01*
X84133864Y-142701207D01*
X83797997Y-142562086D01*
X83450101Y-142456553D01*
X83450090Y-142456550D01*
X83093556Y-142385632D01*
X82731766Y-142350000D01*
X82368234Y-142350000D01*
X82006443Y-142385632D01*
X81649909Y-142456550D01*
X81649898Y-142456553D01*
X81302002Y-142562086D01*
X80966135Y-142701207D01*
X80966130Y-142701209D01*
X80645537Y-142872570D01*
X80645519Y-142872581D01*
X80343258Y-143074545D01*
X80343254Y-143074548D01*
X80115233Y-143261679D01*
X80115233Y-143261680D01*
X81609301Y-144755748D01*
X81507670Y-144829588D01*
X81329588Y-145007670D01*
X81255748Y-145109301D01*
X79761680Y-143615233D01*
X79761679Y-143615233D01*
X79574548Y-143843254D01*
X79574545Y-143843258D01*
X79372581Y-144145519D01*
X79372570Y-144145537D01*
X79201209Y-144466130D01*
X79201207Y-144466135D01*
X79062086Y-144802002D01*
X78982661Y-145063834D01*
X78944363Y-145122273D01*
X78880551Y-145150729D01*
X78811484Y-145140169D01*
X78759090Y-145093945D01*
X78740000Y-145027839D01*
X78740000Y-86253713D01*
X84374500Y-86253713D01*
X84374500Y-86466286D01*
X84407753Y-86676239D01*
X84473444Y-86878414D01*
X84569951Y-87067820D01*
X84694890Y-87239786D01*
X84845213Y-87390109D01*
X85017182Y-87515050D01*
X85025946Y-87519516D01*
X85076742Y-87567491D01*
X85093536Y-87635312D01*
X85070998Y-87701447D01*
X85025946Y-87740484D01*
X85017182Y-87744949D01*
X84845213Y-87869890D01*
X84694890Y-88020213D01*
X84569951Y-88192179D01*
X84473444Y-88381585D01*
X84407753Y-88583760D01*
X84374500Y-88793713D01*
X84374500Y-89006287D01*
X84407754Y-89216243D01*
X84440652Y-89317493D01*
X84473444Y-89418414D01*
X84569951Y-89607820D01*
X84694890Y-89779786D01*
X84845213Y-89930109D01*
X85017182Y-90055050D01*
X85025946Y-90059516D01*
X85076742Y-90107491D01*
X85093536Y-90175312D01*
X85070998Y-90241447D01*
X85025946Y-90280484D01*
X85017182Y-90284949D01*
X84845213Y-90409890D01*
X84694890Y-90560213D01*
X84569951Y-90732179D01*
X84473444Y-90921585D01*
X84407753Y-91123760D01*
X84374500Y-91333713D01*
X84374500Y-91546286D01*
X84401080Y-91714109D01*
X84407754Y-91756243D01*
X84471611Y-91952775D01*
X84473444Y-91958414D01*
X84569951Y-92147820D01*
X84694890Y-92319786D01*
X84845213Y-92470109D01*
X85017182Y-92595050D01*
X85025946Y-92599516D01*
X85076742Y-92647491D01*
X85093536Y-92715312D01*
X85070998Y-92781447D01*
X85025946Y-92820484D01*
X85017182Y-92824949D01*
X84845213Y-92949890D01*
X84694890Y-93100213D01*
X84569951Y-93272179D01*
X84473444Y-93461585D01*
X84407753Y-93663760D01*
X84374500Y-93873713D01*
X84374500Y-94086286D01*
X84397895Y-94234000D01*
X84407754Y-94296243D01*
X84435113Y-94380446D01*
X84473444Y-94498414D01*
X84569951Y-94687820D01*
X84694890Y-94859786D01*
X84845213Y-95010109D01*
X85017182Y-95135050D01*
X85025946Y-95139516D01*
X85076742Y-95187491D01*
X85093536Y-95255312D01*
X85070998Y-95321447D01*
X85025946Y-95360484D01*
X85017182Y-95364949D01*
X84845213Y-95489890D01*
X84694890Y-95640213D01*
X84569951Y-95812179D01*
X84473444Y-96001585D01*
X84407753Y-96203760D01*
X84374500Y-96413713D01*
X84374500Y-96626286D01*
X84407753Y-96836239D01*
X84407753Y-96836241D01*
X84407754Y-96836243D01*
X84465937Y-97015312D01*
X84473444Y-97038414D01*
X84569951Y-97227820D01*
X84694890Y-97399786D01*
X84845213Y-97550109D01*
X85017182Y-97675050D01*
X85025946Y-97679516D01*
X85076742Y-97727491D01*
X85093536Y-97795312D01*
X85070998Y-97861447D01*
X85025946Y-97900484D01*
X85017182Y-97904949D01*
X84845213Y-98029890D01*
X84694890Y-98180213D01*
X84569951Y-98352179D01*
X84473444Y-98541585D01*
X84407753Y-98743760D01*
X84374500Y-98953713D01*
X84374500Y-99166286D01*
X84386125Y-99239687D01*
X84407754Y-99376243D01*
X84459038Y-99534079D01*
X84473444Y-99578414D01*
X84569951Y-99767820D01*
X84694890Y-99939786D01*
X84845213Y-100090109D01*
X85017182Y-100215050D01*
X85025946Y-100219516D01*
X85076742Y-100267491D01*
X85093536Y-100335312D01*
X85070998Y-100401447D01*
X85025946Y-100440484D01*
X85017182Y-100444949D01*
X84845213Y-100569890D01*
X84694890Y-100720213D01*
X84569951Y-100892179D01*
X84473444Y-101081585D01*
X84407753Y-101283760D01*
X84374500Y-101493713D01*
X84374500Y-101706286D01*
X84395455Y-101838594D01*
X84407754Y-101916243D01*
X84461275Y-102080964D01*
X84473444Y-102118414D01*
X84569951Y-102307820D01*
X84694890Y-102479786D01*
X84845213Y-102630109D01*
X85017182Y-102755050D01*
X85025946Y-102759516D01*
X85076742Y-102807491D01*
X85093536Y-102875312D01*
X85070998Y-102941447D01*
X85025946Y-102980484D01*
X85017182Y-102984949D01*
X84845213Y-103109890D01*
X84694890Y-103260213D01*
X84569951Y-103432179D01*
X84473444Y-103621585D01*
X84407753Y-103823760D01*
X84374500Y-104033713D01*
X84374500Y-104246287D01*
X84407754Y-104456243D01*
X84433800Y-104536405D01*
X84473444Y-104658414D01*
X84569951Y-104847820D01*
X84694890Y-105019786D01*
X84845213Y-105170109D01*
X85017179Y-105295048D01*
X85017181Y-105295049D01*
X85017184Y-105295051D01*
X85026493Y-105299794D01*
X85077290Y-105347766D01*
X85094087Y-105415587D01*
X85071552Y-105481722D01*
X85026502Y-105520762D01*
X85017443Y-105525378D01*
X84845540Y-105650272D01*
X84845535Y-105650276D01*
X84695276Y-105800535D01*
X84695272Y-105800540D01*
X84570379Y-105972442D01*
X84473904Y-106161782D01*
X84408242Y-106363870D01*
X84408242Y-106363873D01*
X84397769Y-106430000D01*
X85291988Y-106430000D01*
X85259075Y-106487007D01*
X85225000Y-106614174D01*
X85225000Y-106745826D01*
X85259075Y-106872993D01*
X85291988Y-106930000D01*
X84397769Y-106930000D01*
X84408242Y-106996126D01*
X84408242Y-106996129D01*
X84473904Y-107198217D01*
X84570379Y-107387557D01*
X84695272Y-107559459D01*
X84695276Y-107559464D01*
X84845535Y-107709723D01*
X84845540Y-107709727D01*
X85017444Y-107834622D01*
X85027048Y-107839516D01*
X85077844Y-107887491D01*
X85094638Y-107955312D01*
X85072100Y-108021447D01*
X85027048Y-108060484D01*
X85017444Y-108065377D01*
X84845540Y-108190272D01*
X84845535Y-108190276D01*
X84695276Y-108340535D01*
X84695272Y-108340540D01*
X84570379Y-108512442D01*
X84473904Y-108701782D01*
X84408242Y-108903870D01*
X84408242Y-108903873D01*
X84397769Y-108970000D01*
X85291988Y-108970000D01*
X85259075Y-109027007D01*
X85225000Y-109154174D01*
X85225000Y-109285826D01*
X85259075Y-109412993D01*
X85291988Y-109470000D01*
X84397769Y-109470000D01*
X84408242Y-109536126D01*
X84408242Y-109536129D01*
X84473904Y-109738217D01*
X84570379Y-109927557D01*
X84695272Y-110099459D01*
X84695276Y-110099464D01*
X84845535Y-110249723D01*
X84845540Y-110249727D01*
X85017444Y-110374622D01*
X85026495Y-110379234D01*
X85077292Y-110427208D01*
X85094087Y-110495029D01*
X85071550Y-110561164D01*
X85026499Y-110600202D01*
X85017182Y-110604949D01*
X84845213Y-110729890D01*
X84694890Y-110880213D01*
X84569951Y-111052179D01*
X84473444Y-111241585D01*
X84407753Y-111443760D01*
X84374500Y-111653713D01*
X84374500Y-111866286D01*
X84407753Y-112076239D01*
X84473444Y-112278414D01*
X84569951Y-112467820D01*
X84694890Y-112639786D01*
X84845213Y-112790109D01*
X85017182Y-112915050D01*
X85025946Y-112919516D01*
X85076742Y-112967491D01*
X85093536Y-113035312D01*
X85070998Y-113101447D01*
X85025946Y-113140484D01*
X85017182Y-113144949D01*
X84845213Y-113269890D01*
X84694890Y-113420213D01*
X84569951Y-113592179D01*
X84473444Y-113781585D01*
X84407753Y-113983760D01*
X84383923Y-114134216D01*
X84374500Y-114193713D01*
X84374500Y-114406287D01*
X84377835Y-114427342D01*
X84405824Y-114604061D01*
X84407754Y-114616243D01*
X84465350Y-114793505D01*
X84473444Y-114818414D01*
X84569951Y-115007820D01*
X84694890Y-115179786D01*
X84845213Y-115330109D01*
X85017182Y-115455050D01*
X85025946Y-115459516D01*
X85076742Y-115507491D01*
X85093536Y-115575312D01*
X85070998Y-115641447D01*
X85025946Y-115680484D01*
X85017182Y-115684949D01*
X84845213Y-115809890D01*
X84694890Y-115960213D01*
X84569951Y-116132179D01*
X84473444Y-116321585D01*
X84407753Y-116523760D01*
X84374500Y-116733713D01*
X84374500Y-116946286D01*
X84407753Y-117156239D01*
X84473444Y-117358414D01*
X84569951Y-117547820D01*
X84694890Y-117719786D01*
X84845213Y-117870109D01*
X85017182Y-117995050D01*
X85025946Y-117999516D01*
X85076742Y-118047491D01*
X85093536Y-118115312D01*
X85070998Y-118181447D01*
X85025946Y-118220484D01*
X85017182Y-118224949D01*
X84845213Y-118349890D01*
X84694890Y-118500213D01*
X84569951Y-118672179D01*
X84473444Y-118861585D01*
X84407753Y-119063760D01*
X84374500Y-119273713D01*
X84374500Y-119486286D01*
X84407753Y-119696239D01*
X84473444Y-119898414D01*
X84569951Y-120087820D01*
X84694890Y-120259786D01*
X84845213Y-120410109D01*
X85017182Y-120535050D01*
X85025946Y-120539516D01*
X85076742Y-120587491D01*
X85093536Y-120655312D01*
X85070998Y-120721447D01*
X85025946Y-120760484D01*
X85017182Y-120764949D01*
X84845213Y-120889890D01*
X84694890Y-121040213D01*
X84569951Y-121212179D01*
X84473444Y-121401585D01*
X84407753Y-121603760D01*
X84382063Y-121765964D01*
X84374500Y-121813713D01*
X84374500Y-122026287D01*
X84376593Y-122039499D01*
X84395455Y-122158594D01*
X84407754Y-122236243D01*
X84458826Y-122393427D01*
X84473444Y-122438414D01*
X84569951Y-122627820D01*
X84694890Y-122799786D01*
X84845213Y-122950109D01*
X85017182Y-123075050D01*
X85025946Y-123079516D01*
X85076742Y-123127491D01*
X85093536Y-123195312D01*
X85070998Y-123261447D01*
X85025946Y-123300484D01*
X85017182Y-123304949D01*
X84845213Y-123429890D01*
X84694890Y-123580213D01*
X84569951Y-123752179D01*
X84473444Y-123941585D01*
X84407753Y-124143760D01*
X84374500Y-124353713D01*
X84374500Y-124566286D01*
X84390243Y-124665687D01*
X84407754Y-124776243D01*
X84462078Y-124943435D01*
X84473444Y-124978414D01*
X84569951Y-125167820D01*
X84694890Y-125339786D01*
X84845213Y-125490109D01*
X85017182Y-125615050D01*
X85025946Y-125619516D01*
X85076742Y-125667491D01*
X85093536Y-125735312D01*
X85070998Y-125801447D01*
X85025946Y-125840484D01*
X85017182Y-125844949D01*
X84845213Y-125969890D01*
X84694890Y-126120213D01*
X84569951Y-126292179D01*
X84473444Y-126481585D01*
X84473443Y-126481587D01*
X84473443Y-126481588D01*
X84467025Y-126501341D01*
X84407753Y-126683760D01*
X84389572Y-126798550D01*
X84374500Y-126893713D01*
X84374500Y-127106287D01*
X84407754Y-127316243D01*
X84439816Y-127414920D01*
X84473444Y-127518414D01*
X84569951Y-127707820D01*
X84694890Y-127879786D01*
X84845213Y-128030109D01*
X85017182Y-128155050D01*
X85025946Y-128159516D01*
X85076742Y-128207491D01*
X85093536Y-128275312D01*
X85070998Y-128341447D01*
X85025946Y-128380484D01*
X85017182Y-128384949D01*
X84845213Y-128509890D01*
X84694890Y-128660213D01*
X84569951Y-128832179D01*
X84473444Y-129021585D01*
X84407753Y-129223760D01*
X84374500Y-129433713D01*
X84374500Y-129646286D01*
X84401786Y-129818566D01*
X84407754Y-129856243D01*
X84416937Y-129884506D01*
X84473444Y-130058414D01*
X84569951Y-130247820D01*
X84694890Y-130419786D01*
X84845213Y-130570109D01*
X85017179Y-130695048D01*
X85017181Y-130695049D01*
X85017184Y-130695051D01*
X85026493Y-130699794D01*
X85077290Y-130747766D01*
X85094087Y-130815587D01*
X85071552Y-130881722D01*
X85026502Y-130920762D01*
X85017443Y-130925378D01*
X84845540Y-131050272D01*
X84845535Y-131050276D01*
X84695276Y-131200535D01*
X84695272Y-131200540D01*
X84570379Y-131372442D01*
X84473904Y-131561782D01*
X84408242Y-131763870D01*
X84408242Y-131763873D01*
X84397769Y-131830000D01*
X85291988Y-131830000D01*
X85259075Y-131887007D01*
X85225000Y-132014174D01*
X85225000Y-132145826D01*
X85259075Y-132272993D01*
X85291988Y-132330000D01*
X84397769Y-132330000D01*
X84408242Y-132396126D01*
X84408242Y-132396129D01*
X84473904Y-132598217D01*
X84570379Y-132787557D01*
X84695272Y-132959459D01*
X84695276Y-132959464D01*
X84845535Y-133109723D01*
X84845540Y-133109727D01*
X85017442Y-133234620D01*
X85206782Y-133331095D01*
X85408871Y-133396757D01*
X85475000Y-133407231D01*
X85475000Y-132513012D01*
X85532007Y-132545925D01*
X85659174Y-132580000D01*
X85790826Y-132580000D01*
X85917993Y-132545925D01*
X85975000Y-132513012D01*
X85975000Y-133407230D01*
X86041126Y-133396757D01*
X86041129Y-133396757D01*
X86243217Y-133331095D01*
X86432557Y-133234620D01*
X86604459Y-133109727D01*
X86604464Y-133109723D01*
X86754723Y-132959464D01*
X86754727Y-132959459D01*
X86879620Y-132787558D01*
X86884232Y-132778507D01*
X86932205Y-132727709D01*
X87000025Y-132710912D01*
X87066161Y-132733447D01*
X87105204Y-132778504D01*
X87109949Y-132787817D01*
X87234890Y-132959786D01*
X87385213Y-133110109D01*
X87557179Y-133235048D01*
X87557181Y-133235049D01*
X87557184Y-133235051D01*
X87746588Y-133331557D01*
X87948757Y-133397246D01*
X88158713Y-133430500D01*
X88158714Y-133430500D01*
X88371286Y-133430500D01*
X88371287Y-133430500D01*
X88581243Y-133397246D01*
X88783412Y-133331557D01*
X88972816Y-133235051D01*
X88994789Y-133219086D01*
X89144786Y-133110109D01*
X89144788Y-133110106D01*
X89144792Y-133110104D01*
X89295104Y-132959792D01*
X89295106Y-132959788D01*
X89295109Y-132959786D01*
X89420048Y-132787820D01*
X89420050Y-132787817D01*
X89420051Y-132787816D01*
X89516557Y-132598412D01*
X89582246Y-132396243D01*
X89615500Y-132186287D01*
X89615500Y-132005683D01*
X111680500Y-132005683D01*
X111680500Y-132154316D01*
X111709493Y-132300072D01*
X111709495Y-132300080D01*
X111766371Y-132437391D01*
X111848939Y-132560964D01*
X111848945Y-132560971D01*
X111954028Y-132666054D01*
X111954035Y-132666060D01*
X112077608Y-132748628D01*
X112077609Y-132748628D01*
X112077610Y-132748629D01*
X112214920Y-132805505D01*
X112360683Y-132834499D01*
X112360687Y-132834500D01*
X112360688Y-132834500D01*
X112509313Y-132834500D01*
X112509314Y-132834499D01*
X112655080Y-132805505D01*
X112792390Y-132748629D01*
X112915966Y-132666059D01*
X113021059Y-132560966D01*
X113103629Y-132437390D01*
X113160505Y-132300080D01*
X113189500Y-132154312D01*
X113189500Y-132005688D01*
X113189499Y-132005683D01*
X114053500Y-132005683D01*
X114053500Y-132154316D01*
X114082493Y-132300072D01*
X114082495Y-132300080D01*
X114139371Y-132437391D01*
X114221939Y-132560964D01*
X114221945Y-132560971D01*
X114327028Y-132666054D01*
X114327035Y-132666060D01*
X114450608Y-132748628D01*
X114450609Y-132748628D01*
X114450610Y-132748629D01*
X114587920Y-132805505D01*
X114733683Y-132834499D01*
X114733687Y-132834500D01*
X114733688Y-132834500D01*
X114882313Y-132834500D01*
X114882314Y-132834499D01*
X115028080Y-132805505D01*
X115165390Y-132748629D01*
X115288966Y-132666059D01*
X115394059Y-132560966D01*
X115476629Y-132437390D01*
X115533505Y-132300080D01*
X115562500Y-132154312D01*
X115562500Y-132005688D01*
X115533505Y-131859920D01*
X115508471Y-131799485D01*
X115501003Y-131730017D01*
X115532278Y-131667537D01*
X115592367Y-131631885D01*
X115662192Y-131634378D01*
X115670479Y-131637469D01*
X115730920Y-131662505D01*
X115876683Y-131691499D01*
X115876687Y-131691500D01*
X115876688Y-131691500D01*
X116025313Y-131691500D01*
X116025314Y-131691499D01*
X116171080Y-131662505D01*
X116308390Y-131605629D01*
X116431966Y-131523059D01*
X116537059Y-131417966D01*
X116619629Y-131294390D01*
X116676505Y-131157080D01*
X116705500Y-131011312D01*
X116705500Y-130862688D01*
X116705499Y-130862683D01*
X120911500Y-130862683D01*
X120911500Y-131011316D01*
X120940493Y-131157072D01*
X120940495Y-131157080D01*
X120997371Y-131294391D01*
X121079939Y-131417964D01*
X121079945Y-131417971D01*
X121185028Y-131523054D01*
X121185035Y-131523060D01*
X121308608Y-131605628D01*
X121308609Y-131605628D01*
X121308610Y-131605629D01*
X121445920Y-131662505D01*
X121591683Y-131691499D01*
X121591687Y-131691500D01*
X121591688Y-131691500D01*
X121740313Y-131691500D01*
X121740314Y-131691499D01*
X121886080Y-131662505D01*
X122023390Y-131605629D01*
X122146966Y-131523059D01*
X122252059Y-131417966D01*
X122334629Y-131294390D01*
X122391505Y-131157080D01*
X122420500Y-131011312D01*
X122420500Y-130862688D01*
X122391505Y-130716920D01*
X122334629Y-130579610D01*
X122328277Y-130570104D01*
X122252060Y-130456035D01*
X122252054Y-130456028D01*
X122146971Y-130350945D01*
X122146964Y-130350939D01*
X122023391Y-130268371D01*
X121886080Y-130211495D01*
X121886072Y-130211493D01*
X121740316Y-130182500D01*
X121740312Y-130182500D01*
X121591688Y-130182500D01*
X121591683Y-130182500D01*
X121445927Y-130211493D01*
X121445919Y-130211495D01*
X121308608Y-130268371D01*
X121185035Y-130350939D01*
X121185028Y-130350945D01*
X121079945Y-130456028D01*
X121079939Y-130456035D01*
X120997371Y-130579608D01*
X120940495Y-130716919D01*
X120940493Y-130716927D01*
X120911500Y-130862683D01*
X116705499Y-130862683D01*
X116676505Y-130716920D01*
X116619629Y-130579610D01*
X116613277Y-130570104D01*
X116537060Y-130456035D01*
X116537054Y-130456028D01*
X116431971Y-130350945D01*
X116431964Y-130350939D01*
X116308391Y-130268371D01*
X116171080Y-130211495D01*
X116171072Y-130211493D01*
X116025316Y-130182500D01*
X116025312Y-130182500D01*
X115876688Y-130182500D01*
X115876683Y-130182500D01*
X115730927Y-130211493D01*
X115730919Y-130211495D01*
X115593608Y-130268371D01*
X115470035Y-130350939D01*
X115470028Y-130350945D01*
X115364945Y-130456028D01*
X115364939Y-130456035D01*
X115282371Y-130579608D01*
X115225495Y-130716919D01*
X115225493Y-130716927D01*
X115196500Y-130862683D01*
X115196500Y-131011316D01*
X115225493Y-131157072D01*
X115225496Y-131157084D01*
X115250527Y-131217514D01*
X115257996Y-131286983D01*
X115226721Y-131349462D01*
X115166631Y-131385114D01*
X115096806Y-131382620D01*
X115088514Y-131379527D01*
X115028084Y-131354496D01*
X115028072Y-131354493D01*
X114882316Y-131325500D01*
X114882312Y-131325500D01*
X114733688Y-131325500D01*
X114733683Y-131325500D01*
X114587927Y-131354493D01*
X114587919Y-131354495D01*
X114450608Y-131411371D01*
X114327035Y-131493939D01*
X114327028Y-131493945D01*
X114221945Y-131599028D01*
X114221939Y-131599035D01*
X114139371Y-131722608D01*
X114082495Y-131859919D01*
X114082493Y-131859927D01*
X114053500Y-132005683D01*
X113189499Y-132005683D01*
X113160505Y-131859920D01*
X113103629Y-131722610D01*
X113082842Y-131691500D01*
X113021060Y-131599035D01*
X113021054Y-131599028D01*
X112915971Y-131493945D01*
X112915964Y-131493939D01*
X112792391Y-131411371D01*
X112655080Y-131354495D01*
X112655072Y-131354493D01*
X112509316Y-131325500D01*
X112509312Y-131325500D01*
X112360688Y-131325500D01*
X112360683Y-131325500D01*
X112214927Y-131354493D01*
X112214919Y-131354495D01*
X112077608Y-131411371D01*
X111954035Y-131493939D01*
X111954028Y-131493945D01*
X111848945Y-131599028D01*
X111848939Y-131599035D01*
X111766371Y-131722608D01*
X111709495Y-131859919D01*
X111709493Y-131859927D01*
X111680500Y-132005683D01*
X89615500Y-132005683D01*
X89615500Y-131973713D01*
X89582246Y-131763757D01*
X89516557Y-131561588D01*
X89420051Y-131372184D01*
X89420049Y-131372181D01*
X89420048Y-131372179D01*
X89295109Y-131200213D01*
X89144786Y-131049890D01*
X88972820Y-130924951D01*
X88964600Y-130920763D01*
X88964054Y-130920485D01*
X88913259Y-130872512D01*
X88896463Y-130804692D01*
X88918999Y-130738556D01*
X88964054Y-130699515D01*
X88972816Y-130695051D01*
X88994789Y-130679086D01*
X89144786Y-130570109D01*
X89144788Y-130570106D01*
X89144792Y-130570104D01*
X89295104Y-130419792D01*
X89295106Y-130419788D01*
X89295109Y-130419786D01*
X89420048Y-130247820D01*
X89420047Y-130247820D01*
X89420051Y-130247816D01*
X89516557Y-130058412D01*
X89582246Y-129856243D01*
X89615500Y-129646287D01*
X89615500Y-129433713D01*
X89582246Y-129223757D01*
X89516557Y-129021588D01*
X89516555Y-129021584D01*
X89506391Y-129001635D01*
X89480809Y-128951429D01*
X106827000Y-128951429D01*
X106827000Y-129112570D01*
X106858433Y-129270594D01*
X106858435Y-129270602D01*
X106920096Y-129419466D01*
X107009619Y-129553447D01*
X107123552Y-129667380D01*
X107257533Y-129756903D01*
X107331965Y-129787733D01*
X107406398Y-129818565D01*
X107564429Y-129849999D01*
X107564433Y-129850000D01*
X107564434Y-129850000D01*
X107725567Y-129850000D01*
X107725568Y-129849999D01*
X107883602Y-129818565D01*
X108032468Y-129756902D01*
X108166445Y-129667382D01*
X108280382Y-129553445D01*
X108369902Y-129419468D01*
X108431565Y-129270602D01*
X108463000Y-129112566D01*
X108463000Y-129084683D01*
X117990500Y-129084683D01*
X117990500Y-129233316D01*
X118019493Y-129379072D01*
X118019495Y-129379080D01*
X118076371Y-129516391D01*
X118158939Y-129639964D01*
X118158945Y-129639971D01*
X118264028Y-129745054D01*
X118264035Y-129745060D01*
X118387608Y-129827628D01*
X118387609Y-129827628D01*
X118387610Y-129827629D01*
X118524920Y-129884505D01*
X118670683Y-129913499D01*
X118670687Y-129913500D01*
X118670688Y-129913500D01*
X118819313Y-129913500D01*
X118819314Y-129913499D01*
X118965080Y-129884505D01*
X119102390Y-129827629D01*
X119225966Y-129745059D01*
X119331059Y-129639966D01*
X119413629Y-129516390D01*
X119470505Y-129379080D01*
X119499500Y-129233312D01*
X119499500Y-129084688D01*
X119470505Y-128938920D01*
X119413629Y-128801610D01*
X119408141Y-128793397D01*
X119331060Y-128678035D01*
X119331054Y-128678028D01*
X119225971Y-128572945D01*
X119225964Y-128572939D01*
X119102391Y-128490371D01*
X118965080Y-128433495D01*
X118965072Y-128433493D01*
X118819316Y-128404500D01*
X118819312Y-128404500D01*
X118670688Y-128404500D01*
X118670683Y-128404500D01*
X118524927Y-128433493D01*
X118524919Y-128433495D01*
X118387608Y-128490371D01*
X118264035Y-128572939D01*
X118264028Y-128572945D01*
X118158945Y-128678028D01*
X118158939Y-128678035D01*
X118076371Y-128801608D01*
X118019495Y-128938919D01*
X118019493Y-128938927D01*
X117990500Y-129084683D01*
X108463000Y-129084683D01*
X108463000Y-128951434D01*
X108431565Y-128793398D01*
X108383777Y-128678028D01*
X108369903Y-128644533D01*
X108280380Y-128510552D01*
X108166447Y-128396619D01*
X108032466Y-128307096D01*
X107883602Y-128245435D01*
X107883594Y-128245433D01*
X107725570Y-128214000D01*
X107725566Y-128214000D01*
X107564434Y-128214000D01*
X107564429Y-128214000D01*
X107406405Y-128245433D01*
X107406397Y-128245435D01*
X107257533Y-128307096D01*
X107123552Y-128396619D01*
X107009619Y-128510552D01*
X106920096Y-128644533D01*
X106858435Y-128793397D01*
X106858433Y-128793405D01*
X106827000Y-128951429D01*
X89480809Y-128951429D01*
X89450397Y-128891742D01*
X89420051Y-128832184D01*
X89397838Y-128801610D01*
X89295109Y-128660213D01*
X89144786Y-128509890D01*
X88972820Y-128384951D01*
X88972115Y-128384591D01*
X88964054Y-128380485D01*
X88913259Y-128332512D01*
X88896463Y-128264692D01*
X88918999Y-128198556D01*
X88964054Y-128159515D01*
X88972816Y-128155051D01*
X88994789Y-128139086D01*
X89144786Y-128030109D01*
X89144788Y-128030106D01*
X89144792Y-128030104D01*
X89295104Y-127879792D01*
X89295106Y-127879788D01*
X89295109Y-127879786D01*
X89420048Y-127707820D01*
X89420047Y-127707820D01*
X89420051Y-127707816D01*
X89495019Y-127560683D01*
X111640500Y-127560683D01*
X111640500Y-127709316D01*
X111669493Y-127855072D01*
X111669495Y-127855080D01*
X111726371Y-127992391D01*
X111808939Y-128115964D01*
X111808945Y-128115971D01*
X111914028Y-128221054D01*
X111914035Y-128221060D01*
X112037608Y-128303628D01*
X112037609Y-128303628D01*
X112037610Y-128303629D01*
X112174920Y-128360505D01*
X112297809Y-128384949D01*
X112320683Y-128389499D01*
X112320687Y-128389500D01*
X112320688Y-128389500D01*
X112469313Y-128389500D01*
X112469314Y-128389499D01*
X112615080Y-128360505D01*
X112752390Y-128303629D01*
X112875966Y-128221059D01*
X112981059Y-128115966D01*
X113063629Y-127992390D01*
X113120505Y-127855080D01*
X113149500Y-127709312D01*
X113149500Y-127560688D01*
X113120505Y-127414920D01*
X113063629Y-127277610D01*
X112981059Y-127154034D01*
X112981054Y-127154028D01*
X112875971Y-127048945D01*
X112875964Y-127048939D01*
X112752391Y-126966371D01*
X112615080Y-126909495D01*
X112615072Y-126909493D01*
X112469316Y-126880500D01*
X112469312Y-126880500D01*
X112320688Y-126880500D01*
X112320683Y-126880500D01*
X112174927Y-126909493D01*
X112174919Y-126909495D01*
X112037608Y-126966371D01*
X111914035Y-127048939D01*
X111914028Y-127048945D01*
X111808945Y-127154028D01*
X111808939Y-127154035D01*
X111726371Y-127277608D01*
X111669495Y-127414919D01*
X111669493Y-127414927D01*
X111640500Y-127560683D01*
X89495019Y-127560683D01*
X89516557Y-127518412D01*
X89582246Y-127316243D01*
X89615500Y-127106287D01*
X89615500Y-126893713D01*
X89582246Y-126683757D01*
X89516557Y-126481588D01*
X89420051Y-126292184D01*
X89420049Y-126292181D01*
X89420048Y-126292179D01*
X89295109Y-126120213D01*
X89144786Y-125969890D01*
X88972820Y-125844951D01*
X88972115Y-125844591D01*
X88964054Y-125840485D01*
X88961119Y-125837712D01*
X88957204Y-125836718D01*
X88935929Y-125813922D01*
X88913259Y-125792512D01*
X88912287Y-125788590D01*
X88909532Y-125785638D01*
X88903959Y-125754961D01*
X88896463Y-125724692D01*
X88897766Y-125720867D01*
X88897044Y-125716893D01*
X88908941Y-125688072D01*
X88918999Y-125658556D01*
X88922605Y-125654970D01*
X88923704Y-125652310D01*
X88927248Y-125649429D01*
X106827000Y-125649429D01*
X106827000Y-125810570D01*
X106858433Y-125968594D01*
X106858435Y-125968602D01*
X106920096Y-126117466D01*
X107009619Y-126251447D01*
X107123552Y-126365380D01*
X107257533Y-126454903D01*
X107321950Y-126481585D01*
X107406398Y-126516565D01*
X107515915Y-126538349D01*
X107564429Y-126547999D01*
X107564433Y-126548000D01*
X107564434Y-126548000D01*
X107725567Y-126548000D01*
X107725568Y-126547999D01*
X107883602Y-126516565D01*
X108032468Y-126454902D01*
X108166445Y-126365382D01*
X108280382Y-126251445D01*
X108369902Y-126117468D01*
X108431565Y-125968602D01*
X108463000Y-125810566D01*
X108463000Y-125649434D01*
X108431565Y-125491398D01*
X108395581Y-125404526D01*
X108369903Y-125342533D01*
X108280380Y-125208552D01*
X108166447Y-125094619D01*
X108032466Y-125005096D01*
X107883602Y-124943435D01*
X107883594Y-124943433D01*
X107725570Y-124912000D01*
X107725566Y-124912000D01*
X107564434Y-124912000D01*
X107564429Y-124912000D01*
X107406405Y-124943433D01*
X107406397Y-124943435D01*
X107257533Y-125005096D01*
X107123552Y-125094619D01*
X107009619Y-125208552D01*
X106920096Y-125342533D01*
X106858435Y-125491397D01*
X106858433Y-125491405D01*
X106827000Y-125649429D01*
X88927248Y-125649429D01*
X88932354Y-125645279D01*
X88949506Y-125628229D01*
X88956478Y-125623375D01*
X88972816Y-125615051D01*
X89144792Y-125490104D01*
X89295104Y-125339792D01*
X89295106Y-125339788D01*
X89295109Y-125339786D01*
X89420048Y-125167820D01*
X89420047Y-125167820D01*
X89420051Y-125167816D01*
X89516557Y-124978412D01*
X89582246Y-124776243D01*
X89597478Y-124680072D01*
X89599757Y-124665683D01*
X116720500Y-124665683D01*
X116720500Y-124814316D01*
X116749493Y-124960072D01*
X116749495Y-124960080D01*
X116806371Y-125097391D01*
X116888939Y-125220964D01*
X116888945Y-125220971D01*
X116994028Y-125326054D01*
X116994031Y-125326056D01*
X116994034Y-125326059D01*
X117031235Y-125350916D01*
X117076039Y-125404526D01*
X117084748Y-125473851D01*
X117055792Y-125534371D01*
X117056185Y-125534694D01*
X117054874Y-125536291D01*
X117054593Y-125536879D01*
X117053092Y-125538462D01*
X117052314Y-125539410D01*
X116969746Y-125662983D01*
X116912870Y-125800294D01*
X116912868Y-125800302D01*
X116883875Y-125946058D01*
X116883875Y-126094691D01*
X116912868Y-126240447D01*
X116912870Y-126240455D01*
X116969746Y-126377766D01*
X117052314Y-126501339D01*
X117052320Y-126501346D01*
X117157403Y-126606429D01*
X117157410Y-126606435D01*
X117280983Y-126689003D01*
X117280984Y-126689003D01*
X117280985Y-126689004D01*
X117418295Y-126745880D01*
X117537318Y-126769555D01*
X117564058Y-126774874D01*
X117564062Y-126774875D01*
X117564063Y-126774875D01*
X117712688Y-126774875D01*
X117712689Y-126774874D01*
X117858455Y-126745880D01*
X117995765Y-126689004D01*
X118119341Y-126606434D01*
X118224434Y-126501341D01*
X118307004Y-126377765D01*
X118363880Y-126240455D01*
X118392875Y-126094687D01*
X118392875Y-125969733D01*
X119260500Y-125969733D01*
X119260500Y-126118366D01*
X119289493Y-126264122D01*
X119289495Y-126264130D01*
X119346371Y-126401441D01*
X119428939Y-126525014D01*
X119428945Y-126525021D01*
X119534028Y-126630104D01*
X119534035Y-126630110D01*
X119657608Y-126712678D01*
X119657609Y-126712678D01*
X119657610Y-126712679D01*
X119794920Y-126769555D01*
X119940683Y-126798549D01*
X119940687Y-126798550D01*
X119940688Y-126798550D01*
X120089313Y-126798550D01*
X120089314Y-126798549D01*
X120235080Y-126769555D01*
X120372390Y-126712679D01*
X120495966Y-126630109D01*
X120601059Y-126525016D01*
X120683629Y-126401440D01*
X120740505Y-126264130D01*
X120769500Y-126118362D01*
X120769500Y-125969738D01*
X120740505Y-125823970D01*
X120683629Y-125686660D01*
X120660677Y-125652310D01*
X120601060Y-125563085D01*
X120601054Y-125563078D01*
X120495971Y-125457995D01*
X120495964Y-125457989D01*
X120372391Y-125375421D01*
X120235080Y-125318545D01*
X120235072Y-125318543D01*
X120089316Y-125289550D01*
X120089312Y-125289550D01*
X119940688Y-125289550D01*
X119940683Y-125289550D01*
X119794927Y-125318543D01*
X119794919Y-125318545D01*
X119657608Y-125375421D01*
X119534035Y-125457989D01*
X119534028Y-125457995D01*
X119428945Y-125563078D01*
X119428939Y-125563085D01*
X119346371Y-125686658D01*
X119289495Y-125823969D01*
X119289493Y-125823977D01*
X119260500Y-125969733D01*
X118392875Y-125969733D01*
X118392875Y-125946063D01*
X118363880Y-125800295D01*
X118307004Y-125662985D01*
X118299871Y-125652310D01*
X118224435Y-125539410D01*
X118224429Y-125539403D01*
X118119345Y-125434319D01*
X118119341Y-125434316D01*
X118082138Y-125409458D01*
X118037334Y-125355847D01*
X118028627Y-125286522D01*
X118057581Y-125226002D01*
X118057190Y-125225681D01*
X118058497Y-125224087D01*
X118058781Y-125223495D01*
X118060290Y-125221902D01*
X118061055Y-125220969D01*
X118061059Y-125220966D01*
X118143629Y-125097390D01*
X118200505Y-124960080D01*
X118229500Y-124814312D01*
X118229500Y-124665688D01*
X118200505Y-124519920D01*
X118144902Y-124385683D01*
X122435500Y-124385683D01*
X122435500Y-124534316D01*
X122464493Y-124680072D01*
X122464495Y-124680080D01*
X122521371Y-124817391D01*
X122603939Y-124940964D01*
X122603945Y-124940971D01*
X122709028Y-125046054D01*
X122709035Y-125046060D01*
X122832608Y-125128628D01*
X122832609Y-125128628D01*
X122832610Y-125128629D01*
X122969920Y-125185505D01*
X123115683Y-125214499D01*
X123115687Y-125214500D01*
X123115688Y-125214500D01*
X123264313Y-125214500D01*
X123264314Y-125214499D01*
X123410080Y-125185505D01*
X123547390Y-125128629D01*
X123670966Y-125046059D01*
X123776059Y-124940966D01*
X123858629Y-124817390D01*
X123915505Y-124680080D01*
X123944500Y-124534312D01*
X123944500Y-124385688D01*
X123915505Y-124239920D01*
X123858629Y-124102610D01*
X123807480Y-124026060D01*
X123776060Y-123979035D01*
X123776054Y-123979028D01*
X123670971Y-123873945D01*
X123670964Y-123873939D01*
X123547391Y-123791371D01*
X123410080Y-123734495D01*
X123410072Y-123734493D01*
X123264316Y-123705500D01*
X123264312Y-123705500D01*
X123115688Y-123705500D01*
X123115683Y-123705500D01*
X122969927Y-123734493D01*
X122969919Y-123734495D01*
X122832608Y-123791371D01*
X122709035Y-123873939D01*
X122709028Y-123873945D01*
X122603945Y-123979028D01*
X122603939Y-123979035D01*
X122521371Y-124102608D01*
X122464495Y-124239919D01*
X122464493Y-124239927D01*
X122435500Y-124385683D01*
X118144902Y-124385683D01*
X118143630Y-124382611D01*
X118143628Y-124382608D01*
X118061060Y-124259035D01*
X118061054Y-124259028D01*
X117955971Y-124153945D01*
X117955964Y-124153939D01*
X117832391Y-124071371D01*
X117695080Y-124014495D01*
X117695072Y-124014493D01*
X117549316Y-123985500D01*
X117549312Y-123985500D01*
X117400688Y-123985500D01*
X117400683Y-123985500D01*
X117254927Y-124014493D01*
X117254919Y-124014495D01*
X117117608Y-124071371D01*
X116994035Y-124153939D01*
X116994028Y-124153945D01*
X116888945Y-124259028D01*
X116888939Y-124259035D01*
X116806371Y-124382608D01*
X116749495Y-124519919D01*
X116749493Y-124519927D01*
X116720500Y-124665683D01*
X89599757Y-124665683D01*
X89603794Y-124640198D01*
X89603794Y-124640197D01*
X89615500Y-124566287D01*
X89615500Y-124353713D01*
X89597477Y-124239920D01*
X89582246Y-124143757D01*
X89516557Y-123941588D01*
X89420051Y-123752184D01*
X89420049Y-123752181D01*
X89420048Y-123752179D01*
X89295109Y-123580213D01*
X89144786Y-123429890D01*
X89056412Y-123365683D01*
X113676500Y-123365683D01*
X113676500Y-123514316D01*
X113705493Y-123660072D01*
X113705495Y-123660080D01*
X113762371Y-123797391D01*
X113844939Y-123920964D01*
X113844945Y-123920971D01*
X113950028Y-124026054D01*
X113950035Y-124026060D01*
X114073608Y-124108628D01*
X114073609Y-124108628D01*
X114073610Y-124108629D01*
X114210920Y-124165505D01*
X114356683Y-124194499D01*
X114356687Y-124194500D01*
X114356688Y-124194500D01*
X114505313Y-124194500D01*
X114505314Y-124194499D01*
X114651080Y-124165505D01*
X114788390Y-124108629D01*
X114911966Y-124026059D01*
X115017059Y-123920966D01*
X115099629Y-123797390D01*
X115156505Y-123660080D01*
X115185500Y-123514312D01*
X115185500Y-123365688D01*
X115156505Y-123219920D01*
X115099629Y-123082610D01*
X115097560Y-123079514D01*
X115017060Y-122959035D01*
X115017054Y-122959028D01*
X114911971Y-122853945D01*
X114911964Y-122853939D01*
X114788391Y-122771371D01*
X114651080Y-122714495D01*
X114651072Y-122714493D01*
X114505316Y-122685500D01*
X114505312Y-122685500D01*
X114356688Y-122685500D01*
X114356683Y-122685500D01*
X114210927Y-122714493D01*
X114210919Y-122714495D01*
X114073608Y-122771371D01*
X113950035Y-122853939D01*
X113950028Y-122853945D01*
X113844945Y-122959028D01*
X113844939Y-122959035D01*
X113762371Y-123082608D01*
X113705495Y-123219919D01*
X113705493Y-123219927D01*
X113676500Y-123365683D01*
X89056412Y-123365683D01*
X88972820Y-123304951D01*
X88972115Y-123304591D01*
X88964054Y-123300485D01*
X88913259Y-123252512D01*
X88896463Y-123184692D01*
X88918999Y-123118556D01*
X88964054Y-123079515D01*
X88972816Y-123075051D01*
X88994789Y-123059086D01*
X89144786Y-122950109D01*
X89144788Y-122950106D01*
X89144792Y-122950104D01*
X89295104Y-122799792D01*
X89295106Y-122799788D01*
X89295109Y-122799786D01*
X89420048Y-122627820D01*
X89420047Y-122627820D01*
X89420051Y-122627816D01*
X89516557Y-122438412D01*
X89582246Y-122236243D01*
X89615500Y-122026287D01*
X89615500Y-121839429D01*
X106827000Y-121839429D01*
X106827000Y-122000570D01*
X106858433Y-122158594D01*
X106858435Y-122158602D01*
X106920096Y-122307466D01*
X107009619Y-122441447D01*
X107123552Y-122555380D01*
X107257533Y-122644903D01*
X107331965Y-122675733D01*
X107406398Y-122706565D01*
X107564429Y-122737999D01*
X107564433Y-122738000D01*
X107564434Y-122738000D01*
X107725567Y-122738000D01*
X107725568Y-122737999D01*
X107883602Y-122706565D01*
X108032468Y-122644902D01*
X108166445Y-122555382D01*
X108182644Y-122539183D01*
X120853000Y-122539183D01*
X120853000Y-122687816D01*
X120881993Y-122833572D01*
X120881995Y-122833580D01*
X120938871Y-122970891D01*
X121021439Y-123094464D01*
X121021445Y-123094471D01*
X121126528Y-123199554D01*
X121126535Y-123199560D01*
X121250108Y-123282128D01*
X121250109Y-123282128D01*
X121250110Y-123282129D01*
X121387420Y-123339005D01*
X121521540Y-123365683D01*
X121533183Y-123367999D01*
X121533187Y-123368000D01*
X121533188Y-123368000D01*
X121681813Y-123368000D01*
X121681814Y-123367999D01*
X121827580Y-123339005D01*
X121964890Y-123282129D01*
X122088466Y-123199559D01*
X122193559Y-123094466D01*
X122276129Y-122970890D01*
X122333005Y-122833580D01*
X122362000Y-122687812D01*
X122362000Y-122539188D01*
X122333005Y-122393420D01*
X122276129Y-122256110D01*
X122262854Y-122236243D01*
X122193560Y-122132535D01*
X122193554Y-122132528D01*
X122088471Y-122027445D01*
X122088464Y-122027439D01*
X121964891Y-121944871D01*
X121827580Y-121887995D01*
X121827572Y-121887993D01*
X121681816Y-121859000D01*
X121681812Y-121859000D01*
X121533188Y-121859000D01*
X121533183Y-121859000D01*
X121387427Y-121887993D01*
X121387419Y-121887995D01*
X121250108Y-121944871D01*
X121126535Y-122027439D01*
X121126528Y-122027445D01*
X121021445Y-122132528D01*
X121021439Y-122132535D01*
X120938871Y-122256108D01*
X120881995Y-122393419D01*
X120881993Y-122393427D01*
X120853000Y-122539183D01*
X108182644Y-122539183D01*
X108276413Y-122445415D01*
X108280379Y-122441448D01*
X108280380Y-122441447D01*
X108280382Y-122441445D01*
X108369902Y-122307468D01*
X108431565Y-122158602D01*
X108463000Y-122000566D01*
X108463000Y-121839434D01*
X108431565Y-121681398D01*
X108399405Y-121603757D01*
X108369903Y-121532533D01*
X108280380Y-121398552D01*
X108166447Y-121284619D01*
X108055794Y-121210683D01*
X113545500Y-121210683D01*
X113545500Y-121359316D01*
X113574493Y-121505072D01*
X113574495Y-121505080D01*
X113631371Y-121642391D01*
X113713939Y-121765964D01*
X113713945Y-121765971D01*
X113819028Y-121871054D01*
X113819035Y-121871060D01*
X113942608Y-121953628D01*
X113942609Y-121953628D01*
X113942610Y-121953629D01*
X114079920Y-122010505D01*
X114225683Y-122039499D01*
X114225687Y-122039500D01*
X114225688Y-122039500D01*
X114374313Y-122039500D01*
X114374314Y-122039499D01*
X114520080Y-122010505D01*
X114657390Y-121953629D01*
X114780966Y-121871059D01*
X114886059Y-121765966D01*
X114968629Y-121642390D01*
X115025505Y-121505080D01*
X115054500Y-121359312D01*
X115054500Y-121210688D01*
X115054499Y-121210683D01*
X122435500Y-121210683D01*
X122435500Y-121359316D01*
X122464493Y-121505072D01*
X122464495Y-121505080D01*
X122521371Y-121642391D01*
X122603939Y-121765964D01*
X122603945Y-121765971D01*
X122709028Y-121871054D01*
X122709035Y-121871060D01*
X122832608Y-121953628D01*
X122832609Y-121953628D01*
X122832610Y-121953629D01*
X122969920Y-122010505D01*
X123115683Y-122039499D01*
X123115687Y-122039500D01*
X123115688Y-122039500D01*
X123264313Y-122039500D01*
X123264314Y-122039499D01*
X123410080Y-122010505D01*
X123547390Y-121953629D01*
X123670966Y-121871059D01*
X123776059Y-121765966D01*
X123858629Y-121642390D01*
X123915505Y-121505080D01*
X123944500Y-121359312D01*
X123944500Y-121210688D01*
X123915505Y-121064920D01*
X123858629Y-120927610D01*
X123776059Y-120804034D01*
X123776054Y-120804028D01*
X123670971Y-120698945D01*
X123670964Y-120698939D01*
X123547391Y-120616371D01*
X123410080Y-120559495D01*
X123410072Y-120559493D01*
X123264316Y-120530500D01*
X123264312Y-120530500D01*
X123115688Y-120530500D01*
X123115683Y-120530500D01*
X122969927Y-120559493D01*
X122969919Y-120559495D01*
X122832608Y-120616371D01*
X122709035Y-120698939D01*
X122709028Y-120698945D01*
X122603945Y-120804028D01*
X122603939Y-120804035D01*
X122521371Y-120927608D01*
X122464495Y-121064919D01*
X122464493Y-121064927D01*
X122435500Y-121210683D01*
X115054499Y-121210683D01*
X115025505Y-121064920D01*
X114968629Y-120927610D01*
X114886059Y-120804034D01*
X114886054Y-120804028D01*
X114780971Y-120698945D01*
X114780964Y-120698939D01*
X114657391Y-120616371D01*
X114520080Y-120559495D01*
X114520072Y-120559493D01*
X114374316Y-120530500D01*
X114374312Y-120530500D01*
X114225688Y-120530500D01*
X114225683Y-120530500D01*
X114079927Y-120559493D01*
X114079919Y-120559495D01*
X113942608Y-120616371D01*
X113819035Y-120698939D01*
X113819028Y-120698945D01*
X113713945Y-120804028D01*
X113713939Y-120804035D01*
X113631371Y-120927608D01*
X113574495Y-121064919D01*
X113574493Y-121064927D01*
X113545500Y-121210683D01*
X108055794Y-121210683D01*
X108032466Y-121195096D01*
X107883602Y-121133435D01*
X107883594Y-121133433D01*
X107725570Y-121102000D01*
X107725566Y-121102000D01*
X107564434Y-121102000D01*
X107564429Y-121102000D01*
X107406405Y-121133433D01*
X107406397Y-121133435D01*
X107257533Y-121195096D01*
X107123552Y-121284619D01*
X107009619Y-121398552D01*
X106920096Y-121532533D01*
X106858435Y-121681397D01*
X106858433Y-121681405D01*
X106827000Y-121839429D01*
X89615500Y-121839429D01*
X89615500Y-121813713D01*
X89582246Y-121603757D01*
X89516557Y-121401588D01*
X89420051Y-121212184D01*
X89420049Y-121212181D01*
X89420048Y-121212179D01*
X89295109Y-121040213D01*
X89144786Y-120889890D01*
X88972820Y-120764951D01*
X88972115Y-120764591D01*
X88964054Y-120760485D01*
X88913259Y-120712512D01*
X88896463Y-120644692D01*
X88918999Y-120578556D01*
X88964054Y-120539515D01*
X88972816Y-120535051D01*
X88994789Y-120519086D01*
X89144786Y-120410109D01*
X89144788Y-120410106D01*
X89144792Y-120410104D01*
X89295104Y-120259792D01*
X89295106Y-120259788D01*
X89295109Y-120259786D01*
X89420048Y-120087820D01*
X89420047Y-120087820D01*
X89420051Y-120087816D01*
X89516557Y-119898412D01*
X89582246Y-119696243D01*
X89615500Y-119486287D01*
X89615500Y-119273713D01*
X89582246Y-119063757D01*
X89516557Y-118861588D01*
X89420051Y-118672184D01*
X89402165Y-118647566D01*
X89333627Y-118553230D01*
X89333624Y-118553227D01*
X89295107Y-118500213D01*
X89295104Y-118500208D01*
X89281325Y-118486429D01*
X106827000Y-118486429D01*
X106827000Y-118647570D01*
X106858433Y-118805594D01*
X106858435Y-118805602D01*
X106920096Y-118954466D01*
X107009619Y-119088447D01*
X107123552Y-119202380D01*
X107257533Y-119291903D01*
X107331965Y-119322733D01*
X107406398Y-119353565D01*
X107564429Y-119384999D01*
X107564433Y-119385000D01*
X107564434Y-119385000D01*
X107725567Y-119385000D01*
X107725568Y-119384999D01*
X107883602Y-119353565D01*
X108032468Y-119291902D01*
X108166445Y-119202382D01*
X108280382Y-119088445D01*
X108369902Y-118954468D01*
X108431565Y-118805602D01*
X108463000Y-118647566D01*
X108463000Y-118486434D01*
X108431565Y-118328398D01*
X108400733Y-118253965D01*
X108369903Y-118179533D01*
X108280380Y-118045552D01*
X108166447Y-117931619D01*
X108032466Y-117842096D01*
X107883602Y-117780435D01*
X107883594Y-117780433D01*
X107725570Y-117749000D01*
X107725566Y-117749000D01*
X107564434Y-117749000D01*
X107564429Y-117749000D01*
X107406405Y-117780433D01*
X107406397Y-117780435D01*
X107257533Y-117842096D01*
X107123552Y-117931619D01*
X107009619Y-118045552D01*
X106920096Y-118179533D01*
X106858435Y-118328397D01*
X106858433Y-118328405D01*
X106827000Y-118486429D01*
X89281325Y-118486429D01*
X89144792Y-118349896D01*
X89144786Y-118349890D01*
X88972820Y-118224951D01*
X88972115Y-118224591D01*
X88964054Y-118220485D01*
X88913259Y-118172512D01*
X88896463Y-118104692D01*
X88918999Y-118038556D01*
X88964054Y-117999515D01*
X88972816Y-117995051D01*
X88994789Y-117979086D01*
X89144786Y-117870109D01*
X89144788Y-117870106D01*
X89144792Y-117870104D01*
X89295104Y-117719792D01*
X89295106Y-117719788D01*
X89295109Y-117719786D01*
X89420048Y-117547820D01*
X89420047Y-117547820D01*
X89420051Y-117547816D01*
X89516557Y-117358412D01*
X89582246Y-117156243D01*
X89615500Y-116946287D01*
X89615500Y-116733713D01*
X89582246Y-116523757D01*
X89516557Y-116321588D01*
X89420051Y-116132184D01*
X89420049Y-116132181D01*
X89420048Y-116132179D01*
X89295109Y-115960213D01*
X89144786Y-115809890D01*
X88972820Y-115684951D01*
X88972115Y-115684591D01*
X88964054Y-115680485D01*
X88913259Y-115632512D01*
X88896463Y-115564692D01*
X88918999Y-115498556D01*
X88964054Y-115459515D01*
X88972816Y-115455051D01*
X89000638Y-115434837D01*
X89144786Y-115330109D01*
X89144788Y-115330106D01*
X89144792Y-115330104D01*
X89295104Y-115179792D01*
X89295106Y-115179788D01*
X89295109Y-115179786D01*
X89420048Y-115007820D01*
X89420047Y-115007820D01*
X89420051Y-115007816D01*
X89516557Y-114818412D01*
X89582246Y-114616243D01*
X89615500Y-114406287D01*
X89615500Y-114193713D01*
X89582246Y-113983757D01*
X89555400Y-113901135D01*
X118414500Y-113901135D01*
X118414500Y-115896870D01*
X118414501Y-115896876D01*
X118420908Y-115956483D01*
X118471202Y-116091328D01*
X118471206Y-116091335D01*
X118557452Y-116206544D01*
X118557455Y-116206547D01*
X118672664Y-116292793D01*
X118672671Y-116292797D01*
X118807517Y-116343091D01*
X118807516Y-116343091D01*
X118814444Y-116343835D01*
X118867127Y-116349500D01*
X120862872Y-116349499D01*
X120922483Y-116343091D01*
X121057331Y-116292796D01*
X121172546Y-116206546D01*
X121258796Y-116091331D01*
X121309091Y-115956483D01*
X121315500Y-115896873D01*
X121315499Y-115222920D01*
X123114499Y-115222920D01*
X123143340Y-115367907D01*
X123143343Y-115367917D01*
X123199912Y-115504488D01*
X123199919Y-115504501D01*
X123282048Y-115627415D01*
X123282051Y-115627419D01*
X123386580Y-115731948D01*
X123386584Y-115731951D01*
X123509498Y-115814080D01*
X123509511Y-115814087D01*
X123646082Y-115870656D01*
X123646087Y-115870658D01*
X123646091Y-115870658D01*
X123646092Y-115870659D01*
X123791079Y-115899500D01*
X123791082Y-115899500D01*
X123938920Y-115899500D01*
X124036462Y-115880096D01*
X124083913Y-115870658D01*
X124220495Y-115814084D01*
X124343416Y-115731951D01*
X124447951Y-115627416D01*
X124530084Y-115504495D01*
X124558937Y-115434837D01*
X125914500Y-115434837D01*
X125914500Y-115663162D01*
X125950215Y-115888660D01*
X126020770Y-116105803D01*
X126116047Y-116292793D01*
X126124421Y-116309228D01*
X126258621Y-116493937D01*
X126420063Y-116655379D01*
X126604772Y-116789579D01*
X126700884Y-116838550D01*
X126808196Y-116893229D01*
X126808198Y-116893229D01*
X126808201Y-116893231D01*
X126924592Y-116931049D01*
X127025339Y-116963784D01*
X127250838Y-116999500D01*
X127250843Y-116999500D01*
X127479162Y-116999500D01*
X127704660Y-116963784D01*
X127921799Y-116893231D01*
X128125228Y-116789579D01*
X128309937Y-116655379D01*
X128471379Y-116493937D01*
X128605579Y-116309228D01*
X128709231Y-116105799D01*
X128779784Y-115888660D01*
X128791596Y-115814084D01*
X128815500Y-115663162D01*
X128815500Y-115434837D01*
X128779784Y-115209339D01*
X128714306Y-115007820D01*
X128709231Y-114992201D01*
X128709229Y-114992198D01*
X128709229Y-114992196D01*
X128620681Y-114818412D01*
X128605579Y-114788772D01*
X128471379Y-114604063D01*
X128309937Y-114442621D01*
X128125228Y-114308421D01*
X127921803Y-114204770D01*
X127704660Y-114134215D01*
X127479162Y-114098500D01*
X127479157Y-114098500D01*
X127250843Y-114098500D01*
X127250838Y-114098500D01*
X127025339Y-114134215D01*
X126808196Y-114204770D01*
X126604771Y-114308421D01*
X126420061Y-114442622D01*
X126258622Y-114604061D01*
X126124421Y-114788771D01*
X126020770Y-114992196D01*
X125950215Y-115209339D01*
X125914500Y-115434837D01*
X124558937Y-115434837D01*
X124586658Y-115367913D01*
X124615500Y-115222918D01*
X124615500Y-115075082D01*
X124615500Y-115075079D01*
X124586659Y-114930092D01*
X124586658Y-114930091D01*
X124586658Y-114930087D01*
X124540401Y-114818412D01*
X124530087Y-114793511D01*
X124530080Y-114793498D01*
X124447951Y-114670584D01*
X124447948Y-114670580D01*
X124343419Y-114566051D01*
X124343415Y-114566048D01*
X124220501Y-114483919D01*
X124220488Y-114483912D01*
X124083917Y-114427343D01*
X124083907Y-114427340D01*
X123938920Y-114398500D01*
X123938918Y-114398500D01*
X123791082Y-114398500D01*
X123791080Y-114398500D01*
X123646092Y-114427340D01*
X123646082Y-114427343D01*
X123509511Y-114483912D01*
X123509498Y-114483919D01*
X123386584Y-114566048D01*
X123386580Y-114566051D01*
X123282051Y-114670580D01*
X123282048Y-114670584D01*
X123199919Y-114793498D01*
X123199912Y-114793511D01*
X123143343Y-114930082D01*
X123143340Y-114930092D01*
X123114500Y-115075079D01*
X123114500Y-115075082D01*
X123114500Y-115222918D01*
X123114500Y-115222920D01*
X123114499Y-115222920D01*
X121315499Y-115222920D01*
X121315499Y-114818414D01*
X121315499Y-113901129D01*
X121315498Y-113901123D01*
X121315497Y-113901116D01*
X121309091Y-113841517D01*
X121307909Y-113838349D01*
X121258797Y-113706671D01*
X121258793Y-113706664D01*
X121172547Y-113591455D01*
X121172544Y-113591452D01*
X121057335Y-113505206D01*
X121057328Y-113505202D01*
X120922482Y-113454908D01*
X120922483Y-113454908D01*
X120862883Y-113448501D01*
X120862881Y-113448500D01*
X120862873Y-113448500D01*
X120862864Y-113448500D01*
X118867129Y-113448500D01*
X118867123Y-113448501D01*
X118807516Y-113454908D01*
X118672671Y-113505202D01*
X118672664Y-113505206D01*
X118557455Y-113591452D01*
X118557452Y-113591455D01*
X118471206Y-113706664D01*
X118471202Y-113706671D01*
X118420908Y-113841517D01*
X118414501Y-113901116D01*
X118414501Y-113901123D01*
X118414500Y-113901135D01*
X89555400Y-113901135D01*
X89516557Y-113781588D01*
X89420051Y-113592184D01*
X89420049Y-113592181D01*
X89420048Y-113592179D01*
X89295109Y-113420213D01*
X89144786Y-113269890D01*
X88972820Y-113144951D01*
X88972115Y-113144591D01*
X88964054Y-113140485D01*
X88913259Y-113092512D01*
X88896463Y-113024692D01*
X88918999Y-112958556D01*
X88964054Y-112919515D01*
X88972816Y-112915051D01*
X88994789Y-112899086D01*
X89144786Y-112790109D01*
X89144788Y-112790106D01*
X89144792Y-112790104D01*
X89295104Y-112639792D01*
X89295106Y-112639788D01*
X89295109Y-112639786D01*
X89420048Y-112467820D01*
X89420047Y-112467820D01*
X89420051Y-112467816D01*
X89516557Y-112278412D01*
X89582246Y-112076243D01*
X89615500Y-111866287D01*
X89615500Y-111653713D01*
X89582246Y-111443757D01*
X89516557Y-111241588D01*
X89420051Y-111052184D01*
X89420049Y-111052181D01*
X89420048Y-111052179D01*
X89295109Y-110880213D01*
X89144786Y-110729890D01*
X88972820Y-110604951D01*
X88972115Y-110604591D01*
X88964054Y-110600485D01*
X88913259Y-110552512D01*
X88896463Y-110484692D01*
X88918999Y-110418556D01*
X88964054Y-110379515D01*
X88972816Y-110375051D01*
X88994789Y-110359086D01*
X89096986Y-110284837D01*
X118414500Y-110284837D01*
X118414500Y-110513162D01*
X118450215Y-110738660D01*
X118520770Y-110955803D01*
X118608783Y-111128536D01*
X118624421Y-111159228D01*
X118758621Y-111343937D01*
X118920063Y-111505379D01*
X119104772Y-111639579D01*
X119132512Y-111653713D01*
X119308196Y-111743229D01*
X119308198Y-111743229D01*
X119308201Y-111743231D01*
X119424592Y-111781049D01*
X119525339Y-111813784D01*
X119750838Y-111849500D01*
X119750843Y-111849500D01*
X119979162Y-111849500D01*
X120204660Y-111813784D01*
X120421799Y-111743231D01*
X120625228Y-111639579D01*
X120809937Y-111505379D01*
X120971379Y-111343937D01*
X121105579Y-111159228D01*
X121209231Y-110955799D01*
X121279784Y-110738660D01*
X121286867Y-110693938D01*
X121315500Y-110513162D01*
X121315500Y-110284837D01*
X121305693Y-110222920D01*
X123114499Y-110222920D01*
X123143340Y-110367907D01*
X123143343Y-110367917D01*
X123199912Y-110504488D01*
X123199919Y-110504501D01*
X123282048Y-110627415D01*
X123282051Y-110627419D01*
X123386580Y-110731948D01*
X123386584Y-110731951D01*
X123509498Y-110814080D01*
X123509511Y-110814087D01*
X123609195Y-110855377D01*
X123646087Y-110870658D01*
X123646091Y-110870658D01*
X123646092Y-110870659D01*
X123791079Y-110899500D01*
X123791082Y-110899500D01*
X123938920Y-110899500D01*
X124036462Y-110880096D01*
X124083913Y-110870658D01*
X124220495Y-110814084D01*
X124343416Y-110731951D01*
X124447951Y-110627416D01*
X124530084Y-110504495D01*
X124586658Y-110367913D01*
X124603183Y-110284837D01*
X124615500Y-110222920D01*
X124615500Y-110075079D01*
X124586659Y-109930092D01*
X124586658Y-109930091D01*
X124586658Y-109930087D01*
X124585717Y-109927816D01*
X124530087Y-109793511D01*
X124530080Y-109793498D01*
X124466846Y-109698862D01*
X124447951Y-109670583D01*
X124412205Y-109634837D01*
X125914500Y-109634837D01*
X125914500Y-109863162D01*
X125950215Y-110088660D01*
X126020770Y-110305803D01*
X126082774Y-110427491D01*
X126124421Y-110509228D01*
X126258621Y-110693937D01*
X126420063Y-110855379D01*
X126604772Y-110989579D01*
X126700884Y-111038550D01*
X126808196Y-111093229D01*
X126808198Y-111093229D01*
X126808201Y-111093231D01*
X126847494Y-111105998D01*
X127025339Y-111163784D01*
X127250838Y-111199500D01*
X127250843Y-111199500D01*
X127479162Y-111199500D01*
X127704660Y-111163784D01*
X127718682Y-111159228D01*
X127921799Y-111093231D01*
X128125228Y-110989579D01*
X128309937Y-110855379D01*
X128471379Y-110693937D01*
X128605579Y-110509228D01*
X128709231Y-110305799D01*
X128779784Y-110088660D01*
X128804899Y-109930092D01*
X128815500Y-109863162D01*
X128815500Y-109634837D01*
X128779784Y-109409339D01*
X128709229Y-109192196D01*
X128654550Y-109084884D01*
X128605579Y-108988772D01*
X128471379Y-108804063D01*
X128309937Y-108642621D01*
X128125228Y-108508421D01*
X127921803Y-108404770D01*
X127704660Y-108334215D01*
X127479162Y-108298500D01*
X127479157Y-108298500D01*
X127250843Y-108298500D01*
X127250838Y-108298500D01*
X127025339Y-108334215D01*
X126808196Y-108404770D01*
X126604771Y-108508421D01*
X126420061Y-108642622D01*
X126258622Y-108804061D01*
X126124421Y-108988771D01*
X126020770Y-109192196D01*
X125950215Y-109409339D01*
X125914500Y-109634837D01*
X124412205Y-109634837D01*
X124343419Y-109566051D01*
X124343415Y-109566048D01*
X124220501Y-109483919D01*
X124220488Y-109483912D01*
X124083917Y-109427343D01*
X124083907Y-109427340D01*
X123938920Y-109398500D01*
X123938918Y-109398500D01*
X123791082Y-109398500D01*
X123791080Y-109398500D01*
X123646092Y-109427340D01*
X123646082Y-109427343D01*
X123509511Y-109483912D01*
X123509498Y-109483919D01*
X123386584Y-109566048D01*
X123386580Y-109566051D01*
X123282051Y-109670580D01*
X123282048Y-109670584D01*
X123199919Y-109793498D01*
X123199912Y-109793511D01*
X123143343Y-109930082D01*
X123143340Y-109930092D01*
X123114500Y-110075079D01*
X123114500Y-110075082D01*
X123114500Y-110222918D01*
X123114500Y-110222920D01*
X123114499Y-110222920D01*
X121305693Y-110222920D01*
X121284385Y-110088388D01*
X121279784Y-110059339D01*
X121217519Y-109867709D01*
X121209231Y-109842201D01*
X121209229Y-109842198D01*
X121209229Y-109842196D01*
X121136196Y-109698862D01*
X121105579Y-109638772D01*
X120971379Y-109454063D01*
X120809937Y-109292621D01*
X120625228Y-109158421D01*
X120616893Y-109154174D01*
X120421803Y-109054770D01*
X120204660Y-108984215D01*
X119979162Y-108948500D01*
X119979157Y-108948500D01*
X119750843Y-108948500D01*
X119750838Y-108948500D01*
X119525339Y-108984215D01*
X119308196Y-109054770D01*
X119104771Y-109158421D01*
X118920061Y-109292622D01*
X118758622Y-109454061D01*
X118624421Y-109638771D01*
X118520770Y-109842196D01*
X118450215Y-110059339D01*
X118414500Y-110284837D01*
X89096986Y-110284837D01*
X89144786Y-110250109D01*
X89144788Y-110250106D01*
X89144792Y-110250104D01*
X89295104Y-110099792D01*
X89295106Y-110099788D01*
X89295109Y-110099786D01*
X89420048Y-109927820D01*
X89420050Y-109927817D01*
X89420051Y-109927816D01*
X89516557Y-109738412D01*
X89582246Y-109536243D01*
X89615500Y-109326287D01*
X89615500Y-109113713D01*
X89582246Y-108903757D01*
X89516557Y-108701588D01*
X89420051Y-108512184D01*
X89420049Y-108512181D01*
X89420048Y-108512179D01*
X89295109Y-108340213D01*
X89144786Y-108189890D01*
X88972820Y-108064951D01*
X88972115Y-108064591D01*
X88964054Y-108060485D01*
X88913259Y-108012512D01*
X88896463Y-107944692D01*
X88918999Y-107878556D01*
X88964054Y-107839515D01*
X88972816Y-107835051D01*
X88994789Y-107819086D01*
X89144786Y-107710109D01*
X89144788Y-107710106D01*
X89144792Y-107710104D01*
X89295104Y-107559792D01*
X89295106Y-107559788D01*
X89295109Y-107559786D01*
X89420048Y-107387820D01*
X89420050Y-107387817D01*
X89420051Y-107387816D01*
X89516557Y-107198412D01*
X89582246Y-106996243D01*
X89615500Y-106786287D01*
X89615500Y-106573713D01*
X89582246Y-106363757D01*
X89516557Y-106161588D01*
X89420051Y-105972184D01*
X89420049Y-105972181D01*
X89420048Y-105972179D01*
X89295109Y-105800213D01*
X89144786Y-105649890D01*
X88972820Y-105524951D01*
X88964600Y-105520763D01*
X88964054Y-105520485D01*
X88913259Y-105472512D01*
X88896463Y-105404692D01*
X88918999Y-105338556D01*
X88964054Y-105299515D01*
X88972816Y-105295051D01*
X88994789Y-105279086D01*
X89144786Y-105170109D01*
X89144788Y-105170106D01*
X89144792Y-105170104D01*
X89295104Y-105019792D01*
X89295106Y-105019788D01*
X89295109Y-105019786D01*
X89420048Y-104847820D01*
X89420047Y-104847820D01*
X89420051Y-104847816D01*
X89498205Y-104694429D01*
X99408500Y-104694429D01*
X99408500Y-104855570D01*
X99439933Y-105013594D01*
X99439935Y-105013602D01*
X99501596Y-105162466D01*
X99591119Y-105296447D01*
X99705052Y-105410380D01*
X99839033Y-105499903D01*
X99889394Y-105520763D01*
X99987898Y-105561565D01*
X100145929Y-105592999D01*
X100145933Y-105593000D01*
X100145934Y-105593000D01*
X100307067Y-105593000D01*
X100307068Y-105592999D01*
X100465102Y-105561565D01*
X100613968Y-105499902D01*
X100747945Y-105410382D01*
X100861882Y-105296445D01*
X100951402Y-105162468D01*
X101013065Y-105013602D01*
X101044500Y-104855566D01*
X101044500Y-104694434D01*
X101013065Y-104536398D01*
X100979862Y-104456239D01*
X100951403Y-104387533D01*
X100861880Y-104253552D01*
X100747947Y-104139619D01*
X100613966Y-104050096D01*
X100465102Y-103988435D01*
X100465094Y-103988433D01*
X100307070Y-103957000D01*
X100307066Y-103957000D01*
X100145934Y-103957000D01*
X100145929Y-103957000D01*
X99987905Y-103988433D01*
X99987897Y-103988435D01*
X99839033Y-104050096D01*
X99705052Y-104139619D01*
X99591119Y-104253552D01*
X99501596Y-104387533D01*
X99439935Y-104536397D01*
X99439933Y-104536405D01*
X99408500Y-104694429D01*
X89498205Y-104694429D01*
X89516557Y-104658412D01*
X89582246Y-104456243D01*
X89615500Y-104246287D01*
X89615500Y-104033713D01*
X89582246Y-103823757D01*
X89516557Y-103621588D01*
X89420051Y-103432184D01*
X89420049Y-103432181D01*
X89420048Y-103432179D01*
X89295109Y-103260213D01*
X89211579Y-103176683D01*
X105544500Y-103176683D01*
X105544500Y-103325316D01*
X105573493Y-103471072D01*
X105573495Y-103471080D01*
X105630371Y-103608391D01*
X105712939Y-103731964D01*
X105712945Y-103731971D01*
X105818028Y-103837054D01*
X105818035Y-103837060D01*
X105941608Y-103919628D01*
X105941609Y-103919628D01*
X105941610Y-103919629D01*
X106078920Y-103976505D01*
X106224683Y-104005499D01*
X106224687Y-104005500D01*
X106224688Y-104005500D01*
X106373313Y-104005500D01*
X106373314Y-104005499D01*
X106519080Y-103976505D01*
X106656390Y-103919629D01*
X106779966Y-103837059D01*
X106885059Y-103731966D01*
X106967629Y-103608390D01*
X107024505Y-103471080D01*
X107053500Y-103325312D01*
X107053500Y-103176688D01*
X107024505Y-103030920D01*
X106967629Y-102893610D01*
X106921534Y-102824624D01*
X106900658Y-102757951D01*
X106919142Y-102690571D01*
X106936958Y-102668055D01*
X106948097Y-102656916D01*
X106975129Y-102629884D01*
X107057699Y-102506308D01*
X107114575Y-102368998D01*
X107143570Y-102223230D01*
X107143570Y-102074606D01*
X107114575Y-101928838D01*
X107057699Y-101791528D01*
X107053842Y-101785756D01*
X106975130Y-101667953D01*
X106975124Y-101667946D01*
X106870041Y-101562863D01*
X106870034Y-101562857D01*
X106746461Y-101480289D01*
X106609150Y-101423413D01*
X106609142Y-101423411D01*
X106463386Y-101394418D01*
X106463382Y-101394418D01*
X106314758Y-101394418D01*
X106314753Y-101394418D01*
X106168997Y-101423411D01*
X106168989Y-101423413D01*
X106031678Y-101480289D01*
X105908105Y-101562857D01*
X105908098Y-101562863D01*
X105803015Y-101667946D01*
X105803009Y-101667953D01*
X105720441Y-101791526D01*
X105663565Y-101928837D01*
X105663563Y-101928845D01*
X105634570Y-102074601D01*
X105634570Y-102223234D01*
X105663563Y-102368990D01*
X105663565Y-102368998D01*
X105720440Y-102506307D01*
X105733490Y-102525838D01*
X105766533Y-102575291D01*
X105787411Y-102641966D01*
X105768927Y-102709346D01*
X105751113Y-102731860D01*
X105712945Y-102770027D01*
X105712939Y-102770035D01*
X105630371Y-102893608D01*
X105573495Y-103030919D01*
X105573493Y-103030927D01*
X105544500Y-103176683D01*
X89211579Y-103176683D01*
X89144786Y-103109890D01*
X88972820Y-102984951D01*
X88972115Y-102984591D01*
X88964054Y-102980485D01*
X88913259Y-102932512D01*
X88896463Y-102864692D01*
X88918999Y-102798556D01*
X88964054Y-102759515D01*
X88972816Y-102755051D01*
X89096843Y-102664941D01*
X89144786Y-102630109D01*
X89144788Y-102630106D01*
X89144792Y-102630104D01*
X89295104Y-102479792D01*
X89295106Y-102479788D01*
X89295109Y-102479786D01*
X89420048Y-102307820D01*
X89420047Y-102307820D01*
X89420051Y-102307816D01*
X89516557Y-102118412D01*
X89582246Y-101916243D01*
X89615500Y-101706287D01*
X89615500Y-101525683D01*
X98178500Y-101525683D01*
X98178500Y-101674316D01*
X98207493Y-101820072D01*
X98207495Y-101820080D01*
X98264371Y-101957391D01*
X98346939Y-102080964D01*
X98346945Y-102080971D01*
X98452028Y-102186054D01*
X98452035Y-102186060D01*
X98575608Y-102268628D01*
X98575609Y-102268628D01*
X98575610Y-102268629D01*
X98712920Y-102325505D01*
X98858683Y-102354499D01*
X98858687Y-102354500D01*
X98858688Y-102354500D01*
X99007313Y-102354500D01*
X99007314Y-102354499D01*
X99153080Y-102325505D01*
X99290390Y-102268629D01*
X99413966Y-102186059D01*
X99519059Y-102080966D01*
X99601629Y-101957390D01*
X99658505Y-101820080D01*
X99687500Y-101674312D01*
X99687500Y-101525688D01*
X99658505Y-101379920D01*
X99601629Y-101242610D01*
X99599312Y-101239143D01*
X99519060Y-101119035D01*
X99519054Y-101119028D01*
X99413971Y-101013945D01*
X99413964Y-101013939D01*
X99372050Y-100985933D01*
X101099500Y-100985933D01*
X101099500Y-101134566D01*
X101128493Y-101280322D01*
X101128495Y-101280330D01*
X101185371Y-101417641D01*
X101267939Y-101541214D01*
X101267945Y-101541221D01*
X101373028Y-101646304D01*
X101373035Y-101646310D01*
X101496608Y-101728878D01*
X101496609Y-101728878D01*
X101496610Y-101728879D01*
X101633920Y-101785755D01*
X101721728Y-101803221D01*
X101779683Y-101814749D01*
X101779687Y-101814750D01*
X101779688Y-101814750D01*
X101928313Y-101814750D01*
X101928314Y-101814749D01*
X102074080Y-101785755D01*
X102155801Y-101751904D01*
X102225266Y-101744436D01*
X102250695Y-101751902D01*
X102332423Y-101785755D01*
X102420231Y-101803221D01*
X102478186Y-101814749D01*
X102478190Y-101814750D01*
X102478191Y-101814750D01*
X102626816Y-101814750D01*
X102626817Y-101814749D01*
X102772583Y-101785755D01*
X102909893Y-101728879D01*
X103015733Y-101658159D01*
X103082408Y-101637282D01*
X103149789Y-101655766D01*
X103196479Y-101707745D01*
X103206239Y-101737071D01*
X103226433Y-101838594D01*
X103226435Y-101838602D01*
X103288096Y-101987466D01*
X103377619Y-102121447D01*
X103491552Y-102235380D01*
X103625533Y-102324903D01*
X103696985Y-102354499D01*
X103774398Y-102386565D01*
X103932429Y-102417999D01*
X103932433Y-102418000D01*
X103932434Y-102418000D01*
X104093567Y-102418000D01*
X104093568Y-102417999D01*
X104251602Y-102386565D01*
X104399010Y-102325506D01*
X104400466Y-102324903D01*
X104400466Y-102324902D01*
X104400468Y-102324902D01*
X104534445Y-102235382D01*
X104648382Y-102121445D01*
X104737902Y-101987468D01*
X104799565Y-101838602D01*
X104831000Y-101680566D01*
X104831000Y-101519434D01*
X104799565Y-101361398D01*
X104748925Y-101239143D01*
X104737903Y-101212533D01*
X104648380Y-101078552D01*
X104534448Y-100964620D01*
X104534440Y-100964614D01*
X104437869Y-100900087D01*
X104437795Y-100900039D01*
X104426036Y-100892182D01*
X104400468Y-100875098D01*
X104400463Y-100875096D01*
X104251602Y-100813435D01*
X104251594Y-100813433D01*
X104093570Y-100782000D01*
X104093566Y-100782000D01*
X103932434Y-100782000D01*
X103932429Y-100782000D01*
X103774405Y-100813433D01*
X103774397Y-100813435D01*
X103625533Y-100875096D01*
X103491547Y-100964623D01*
X103489175Y-100966570D01*
X103487689Y-100967200D01*
X103486489Y-100968003D01*
X103486336Y-100967775D01*
X103424864Y-100993882D01*
X103355997Y-100982088D01*
X103304438Y-100934935D01*
X103288896Y-100894906D01*
X103278009Y-100840177D01*
X103278008Y-100840170D01*
X103221132Y-100702860D01*
X103181298Y-100643244D01*
X103138563Y-100579285D01*
X103138557Y-100579278D01*
X103033473Y-100474194D01*
X103033470Y-100474192D01*
X103033469Y-100474191D01*
X103033431Y-100474165D01*
X103033430Y-100474164D01*
X102909894Y-100391621D01*
X102772583Y-100334745D01*
X102772575Y-100334743D01*
X102768840Y-100334000D01*
X119359016Y-100334000D01*
X120209722Y-100334000D01*
X120165667Y-100410306D01*
X120135000Y-100524756D01*
X120135000Y-100643244D01*
X120165667Y-100757694D01*
X120209722Y-100834000D01*
X119359016Y-100834000D01*
X119365781Y-100876716D01*
X119426581Y-101063837D01*
X119515904Y-101239143D01*
X119631555Y-101398321D01*
X119770678Y-101537444D01*
X119929856Y-101653095D01*
X120105164Y-101742418D01*
X120292294Y-101803221D01*
X120486618Y-101834000D01*
X121235000Y-101834000D01*
X121235000Y-101034000D01*
X121735000Y-101034000D01*
X121735000Y-101834000D01*
X122483382Y-101834000D01*
X122677705Y-101803221D01*
X122864835Y-101742418D01*
X123040143Y-101653095D01*
X123199321Y-101537444D01*
X123338444Y-101398321D01*
X123454095Y-101239143D01*
X123543418Y-101063837D01*
X123604218Y-100876716D01*
X123610984Y-100834000D01*
X122760278Y-100834000D01*
X122804333Y-100757694D01*
X122835000Y-100643244D01*
X122835000Y-100524756D01*
X122804333Y-100410306D01*
X122760278Y-100334000D01*
X123610984Y-100334000D01*
X125819016Y-100334000D01*
X126669722Y-100334000D01*
X126625667Y-100410306D01*
X126595000Y-100524756D01*
X126595000Y-100643244D01*
X126625667Y-100757694D01*
X126669722Y-100834000D01*
X125819016Y-100834000D01*
X125825781Y-100876716D01*
X125886581Y-101063837D01*
X125975904Y-101239143D01*
X126091555Y-101398321D01*
X126230678Y-101537444D01*
X126389856Y-101653095D01*
X126565164Y-101742418D01*
X126752294Y-101803221D01*
X126946618Y-101834000D01*
X127195000Y-101834000D01*
X127195000Y-101034000D01*
X127695000Y-101034000D01*
X127695000Y-101834000D01*
X127943382Y-101834000D01*
X128137705Y-101803221D01*
X128324835Y-101742418D01*
X128500143Y-101653095D01*
X128659321Y-101537444D01*
X128798444Y-101398321D01*
X128914095Y-101239143D01*
X129003418Y-101063837D01*
X129064218Y-100876716D01*
X129070984Y-100834000D01*
X128220278Y-100834000D01*
X128264333Y-100757694D01*
X128295000Y-100643244D01*
X128295000Y-100524756D01*
X128264333Y-100410306D01*
X128220278Y-100334000D01*
X129070984Y-100334000D01*
X129064218Y-100291283D01*
X129003418Y-100104162D01*
X128914095Y-99928856D01*
X128798444Y-99769678D01*
X128659321Y-99630555D01*
X128500143Y-99514904D01*
X128324835Y-99425581D01*
X128137705Y-99364778D01*
X127943382Y-99334000D01*
X127695000Y-99334000D01*
X127695000Y-100134000D01*
X127195000Y-100134000D01*
X127195000Y-99334000D01*
X126946618Y-99334000D01*
X126752294Y-99364778D01*
X126565164Y-99425581D01*
X126389856Y-99514904D01*
X126230678Y-99630555D01*
X126091555Y-99769678D01*
X125975904Y-99928856D01*
X125886581Y-100104162D01*
X125825781Y-100291283D01*
X125819016Y-100334000D01*
X123610984Y-100334000D01*
X123604218Y-100291283D01*
X123543418Y-100104162D01*
X123454095Y-99928856D01*
X123338444Y-99769678D01*
X123199321Y-99630555D01*
X123040143Y-99514904D01*
X122864835Y-99425581D01*
X122677705Y-99364778D01*
X122483382Y-99334000D01*
X121735000Y-99334000D01*
X121735000Y-100134000D01*
X121235000Y-100134000D01*
X121235000Y-99334000D01*
X120486618Y-99334000D01*
X120292294Y-99364778D01*
X120105164Y-99425581D01*
X119929856Y-99514904D01*
X119770678Y-99630555D01*
X119631555Y-99769678D01*
X119515904Y-99928856D01*
X119426581Y-100104162D01*
X119365781Y-100291283D01*
X119359016Y-100334000D01*
X102768840Y-100334000D01*
X102626819Y-100305750D01*
X102626815Y-100305750D01*
X102478191Y-100305750D01*
X102478186Y-100305750D01*
X102332430Y-100334742D01*
X102332421Y-100334745D01*
X102250703Y-100368594D01*
X102181234Y-100376063D01*
X102155799Y-100368594D01*
X102074081Y-100334745D01*
X102074072Y-100334742D01*
X101928316Y-100305750D01*
X101928312Y-100305750D01*
X101779688Y-100305750D01*
X101779683Y-100305750D01*
X101633927Y-100334743D01*
X101633919Y-100334745D01*
X101496608Y-100391621D01*
X101373035Y-100474189D01*
X101373028Y-100474195D01*
X101267945Y-100579278D01*
X101267939Y-100579285D01*
X101185371Y-100702858D01*
X101128495Y-100840169D01*
X101128493Y-100840177D01*
X101099500Y-100985933D01*
X99372050Y-100985933D01*
X99290391Y-100931371D01*
X99153080Y-100874495D01*
X99153072Y-100874493D01*
X99007316Y-100845500D01*
X99007312Y-100845500D01*
X98858688Y-100845500D01*
X98858683Y-100845500D01*
X98712927Y-100874493D01*
X98712919Y-100874495D01*
X98575608Y-100931371D01*
X98452035Y-101013939D01*
X98452028Y-101013945D01*
X98346945Y-101119028D01*
X98346939Y-101119035D01*
X98264371Y-101242608D01*
X98207495Y-101379919D01*
X98207493Y-101379927D01*
X98178500Y-101525683D01*
X89615500Y-101525683D01*
X89615500Y-101493713D01*
X89582246Y-101283757D01*
X89516557Y-101081588D01*
X89420051Y-100892184D01*
X89420049Y-100892181D01*
X89420048Y-100892179D01*
X89295109Y-100720213D01*
X89144786Y-100569890D01*
X88972820Y-100444951D01*
X88972115Y-100444591D01*
X88964054Y-100440485D01*
X88913259Y-100392512D01*
X88896463Y-100324692D01*
X88918999Y-100258556D01*
X88964054Y-100219515D01*
X88972816Y-100215051D01*
X89125443Y-100104162D01*
X89144786Y-100090109D01*
X89144788Y-100090106D01*
X89144792Y-100090104D01*
X89295104Y-99939792D01*
X89295106Y-99939788D01*
X89295109Y-99939786D01*
X89420048Y-99767820D01*
X89420047Y-99767820D01*
X89420051Y-99767816D01*
X89498205Y-99614429D01*
X95321000Y-99614429D01*
X95321000Y-99775570D01*
X95352433Y-99933594D01*
X95352435Y-99933602D01*
X95414096Y-100082466D01*
X95503619Y-100216447D01*
X95617552Y-100330380D01*
X95751533Y-100419903D01*
X95812000Y-100444949D01*
X95900398Y-100481565D01*
X96058429Y-100512999D01*
X96058433Y-100513000D01*
X96058434Y-100513000D01*
X96219567Y-100513000D01*
X96219568Y-100512999D01*
X96377602Y-100481565D01*
X96526468Y-100419902D01*
X96660445Y-100330382D01*
X96774382Y-100216445D01*
X96863902Y-100082468D01*
X96925565Y-99933602D01*
X96957000Y-99775566D01*
X96957000Y-99614434D01*
X96925565Y-99456398D01*
X96863902Y-99307532D01*
X96818566Y-99239682D01*
X102112435Y-99239682D01*
X102112435Y-99388315D01*
X102141428Y-99534071D01*
X102141430Y-99534079D01*
X102198306Y-99671390D01*
X102280874Y-99794963D01*
X102280880Y-99794970D01*
X102385963Y-99900053D01*
X102385970Y-99900059D01*
X102509543Y-99982627D01*
X102509544Y-99982627D01*
X102509545Y-99982628D01*
X102646855Y-100039504D01*
X102792618Y-100068498D01*
X102792622Y-100068499D01*
X102792623Y-100068499D01*
X102941248Y-100068499D01*
X102941249Y-100068498D01*
X103087015Y-100039504D01*
X103224325Y-99982628D01*
X103347901Y-99900058D01*
X103452994Y-99794965D01*
X103535564Y-99671389D01*
X103592440Y-99534079D01*
X103621435Y-99388311D01*
X103621435Y-99239687D01*
X103621434Y-99239683D01*
X105830250Y-99239683D01*
X105830250Y-99388316D01*
X105859243Y-99534072D01*
X105859245Y-99534080D01*
X105916121Y-99671391D01*
X105998689Y-99794964D01*
X105998695Y-99794971D01*
X106103778Y-99900054D01*
X106103785Y-99900060D01*
X106227358Y-99982628D01*
X106227359Y-99982628D01*
X106227360Y-99982629D01*
X106364670Y-100039505D01*
X106510428Y-100068498D01*
X106510433Y-100068499D01*
X106510437Y-100068500D01*
X106510438Y-100068500D01*
X106659063Y-100068500D01*
X106659064Y-100068499D01*
X106804830Y-100039505D01*
X106942140Y-99982629D01*
X107065716Y-99900059D01*
X107170809Y-99794966D01*
X107253379Y-99671390D01*
X107310255Y-99534080D01*
X107339250Y-99388312D01*
X107339250Y-99239688D01*
X107310255Y-99093920D01*
X107253379Y-98956610D01*
X107251443Y-98953713D01*
X107170810Y-98833035D01*
X107170804Y-98833028D01*
X107065721Y-98727945D01*
X107065714Y-98727939D01*
X106942141Y-98645371D01*
X106804830Y-98588495D01*
X106804822Y-98588493D01*
X106659066Y-98559500D01*
X106659062Y-98559500D01*
X106510438Y-98559500D01*
X106510433Y-98559500D01*
X106364677Y-98588493D01*
X106364669Y-98588495D01*
X106227358Y-98645371D01*
X106103785Y-98727939D01*
X106103778Y-98727945D01*
X105998695Y-98833028D01*
X105998689Y-98833035D01*
X105916121Y-98956608D01*
X105859245Y-99093919D01*
X105859243Y-99093927D01*
X105830250Y-99239683D01*
X103621434Y-99239683D01*
X103592440Y-99093919D01*
X103535564Y-98956609D01*
X103503375Y-98908435D01*
X103452995Y-98833034D01*
X103452989Y-98833027D01*
X103347906Y-98727944D01*
X103347899Y-98727938D01*
X103224326Y-98645370D01*
X103087015Y-98588494D01*
X103087007Y-98588492D01*
X102941251Y-98559499D01*
X102941247Y-98559499D01*
X102792623Y-98559499D01*
X102792618Y-98559499D01*
X102646862Y-98588492D01*
X102646854Y-98588494D01*
X102509543Y-98645370D01*
X102385970Y-98727938D01*
X102385963Y-98727944D01*
X102280880Y-98833027D01*
X102280874Y-98833034D01*
X102198306Y-98956607D01*
X102141430Y-99093918D01*
X102141428Y-99093926D01*
X102112435Y-99239682D01*
X96818566Y-99239682D01*
X96774382Y-99173555D01*
X96774380Y-99173552D01*
X96660447Y-99059619D01*
X96526466Y-98970096D01*
X96377602Y-98908435D01*
X96377594Y-98908433D01*
X96219570Y-98877000D01*
X96219566Y-98877000D01*
X96058434Y-98877000D01*
X96058429Y-98877000D01*
X95900405Y-98908433D01*
X95900397Y-98908435D01*
X95751533Y-98970096D01*
X95617552Y-99059619D01*
X95503619Y-99173552D01*
X95414096Y-99307533D01*
X95352435Y-99456397D01*
X95352433Y-99456405D01*
X95321000Y-99614429D01*
X89498205Y-99614429D01*
X89516557Y-99578412D01*
X89582246Y-99376243D01*
X89615500Y-99166287D01*
X89615500Y-98953713D01*
X89582246Y-98743757D01*
X89516557Y-98541588D01*
X89420051Y-98352184D01*
X89420049Y-98352181D01*
X89420048Y-98352179D01*
X89295109Y-98180213D01*
X89144786Y-98029890D01*
X88972820Y-97904951D01*
X88972115Y-97904591D01*
X88964054Y-97900485D01*
X88913259Y-97852512D01*
X88896463Y-97784692D01*
X88918999Y-97718556D01*
X88964054Y-97679515D01*
X88972816Y-97675051D01*
X88994789Y-97659086D01*
X89144786Y-97550109D01*
X89144788Y-97550106D01*
X89144792Y-97550104D01*
X89295104Y-97399792D01*
X89295106Y-97399788D01*
X89295109Y-97399786D01*
X89420048Y-97227820D01*
X89420047Y-97227820D01*
X89420051Y-97227816D01*
X89516557Y-97038412D01*
X89546014Y-96947753D01*
X97916370Y-96947753D01*
X97916370Y-97096386D01*
X97945363Y-97242142D01*
X97945365Y-97242150D01*
X98002241Y-97379461D01*
X98084809Y-97503034D01*
X98084815Y-97503041D01*
X98189898Y-97608124D01*
X98189905Y-97608130D01*
X98313478Y-97690698D01*
X98313479Y-97690698D01*
X98313480Y-97690699D01*
X98450790Y-97747575D01*
X98571356Y-97771557D01*
X98596553Y-97776569D01*
X98596557Y-97776570D01*
X98596558Y-97776570D01*
X98745183Y-97776570D01*
X98745184Y-97776569D01*
X98890950Y-97747575D01*
X99028260Y-97690699D01*
X99151836Y-97608129D01*
X99256929Y-97503036D01*
X99339499Y-97379460D01*
X99396375Y-97242150D01*
X99425370Y-97096382D01*
X99425370Y-96947758D01*
X99425270Y-96947257D01*
X99412845Y-96884787D01*
X99409244Y-96866683D01*
X103425500Y-96866683D01*
X103425500Y-97015316D01*
X103454493Y-97161072D01*
X103454495Y-97161080D01*
X103511371Y-97298391D01*
X103593939Y-97421964D01*
X103593945Y-97421971D01*
X103699028Y-97527054D01*
X103699035Y-97527060D01*
X103822608Y-97609628D01*
X103822609Y-97609628D01*
X103822610Y-97609629D01*
X103959920Y-97666505D01*
X104081547Y-97690698D01*
X104105683Y-97695499D01*
X104105687Y-97695500D01*
X104105688Y-97695500D01*
X104254313Y-97695500D01*
X104254314Y-97695499D01*
X104400080Y-97666505D01*
X104537390Y-97609629D01*
X104660966Y-97527059D01*
X104692203Y-97495822D01*
X122181499Y-97495822D01*
X122215374Y-97666118D01*
X122215377Y-97666128D01*
X122281821Y-97826540D01*
X122281828Y-97826553D01*
X122378293Y-97970922D01*
X122378296Y-97970926D01*
X122501073Y-98093703D01*
X122501077Y-98093706D01*
X122645446Y-98190171D01*
X122645459Y-98190178D01*
X122805871Y-98256622D01*
X122805876Y-98256624D01*
X122805880Y-98256624D01*
X122805881Y-98256625D01*
X122976177Y-98290500D01*
X122976180Y-98290500D01*
X123149822Y-98290500D01*
X123264394Y-98267709D01*
X123320124Y-98256624D01*
X123480547Y-98190175D01*
X123624923Y-98093706D01*
X123747706Y-97970923D01*
X123844175Y-97826547D01*
X123910624Y-97666124D01*
X123944500Y-97495820D01*
X123944500Y-97322180D01*
X123944500Y-97322177D01*
X123910625Y-97151881D01*
X123910624Y-97151880D01*
X123910624Y-97151876D01*
X123910453Y-97151463D01*
X123844178Y-96991459D01*
X123844171Y-96991446D01*
X123747706Y-96847077D01*
X123747703Y-96847073D01*
X123624926Y-96724296D01*
X123624922Y-96724293D01*
X123480553Y-96627828D01*
X123480540Y-96627821D01*
X123320128Y-96561377D01*
X123320118Y-96561374D01*
X123149822Y-96527500D01*
X123149820Y-96527500D01*
X122976180Y-96527500D01*
X122976178Y-96527500D01*
X122805881Y-96561374D01*
X122805871Y-96561377D01*
X122645459Y-96627821D01*
X122645446Y-96627828D01*
X122501077Y-96724293D01*
X122501073Y-96724296D01*
X122378296Y-96847073D01*
X122378293Y-96847077D01*
X122281828Y-96991446D01*
X122281821Y-96991459D01*
X122215377Y-97151871D01*
X122215374Y-97151881D01*
X122181500Y-97322177D01*
X122181500Y-97322180D01*
X122181500Y-97495820D01*
X122181500Y-97495822D01*
X122181499Y-97495822D01*
X104692203Y-97495822D01*
X104766059Y-97421966D01*
X104848629Y-97298390D01*
X104905505Y-97161080D01*
X104934500Y-97015312D01*
X104934500Y-96866688D01*
X104905505Y-96720920D01*
X104848629Y-96583610D01*
X104846862Y-96580966D01*
X104766060Y-96460035D01*
X104766054Y-96460028D01*
X104660971Y-96354945D01*
X104660964Y-96354939D01*
X104537391Y-96272371D01*
X104400080Y-96215495D01*
X104400072Y-96215493D01*
X104254316Y-96186500D01*
X104254312Y-96186500D01*
X104105688Y-96186500D01*
X104105683Y-96186500D01*
X103959927Y-96215493D01*
X103959919Y-96215495D01*
X103822608Y-96272371D01*
X103699035Y-96354939D01*
X103699028Y-96354945D01*
X103593945Y-96460028D01*
X103593939Y-96460035D01*
X103511371Y-96583608D01*
X103454495Y-96720919D01*
X103454493Y-96720927D01*
X103425500Y-96866683D01*
X99409244Y-96866683D01*
X99396376Y-96801997D01*
X99396375Y-96801990D01*
X99339499Y-96664680D01*
X99313845Y-96626286D01*
X99256930Y-96541105D01*
X99256924Y-96541098D01*
X99151841Y-96436015D01*
X99151834Y-96436009D01*
X99028261Y-96353441D01*
X98890950Y-96296565D01*
X98890942Y-96296563D01*
X98745186Y-96267570D01*
X98745182Y-96267570D01*
X98596558Y-96267570D01*
X98596553Y-96267570D01*
X98450797Y-96296563D01*
X98450789Y-96296565D01*
X98313478Y-96353441D01*
X98189905Y-96436009D01*
X98189898Y-96436015D01*
X98084815Y-96541098D01*
X98084809Y-96541105D01*
X98002241Y-96664678D01*
X97945365Y-96801989D01*
X97945363Y-96801997D01*
X97916370Y-96947753D01*
X89546014Y-96947753D01*
X89582246Y-96836243D01*
X89615500Y-96626287D01*
X89615500Y-96413713D01*
X89582246Y-96203757D01*
X89516557Y-96001588D01*
X89420051Y-95812184D01*
X89420049Y-95812181D01*
X89420048Y-95812179D01*
X89295109Y-95640213D01*
X89144786Y-95489890D01*
X89029916Y-95406433D01*
X106179500Y-95406433D01*
X106179500Y-95555066D01*
X106208493Y-95700822D01*
X106208495Y-95700830D01*
X106265371Y-95838141D01*
X106347939Y-95961714D01*
X106347945Y-95961721D01*
X106453028Y-96066804D01*
X106453035Y-96066810D01*
X106576608Y-96149378D01*
X106576609Y-96149378D01*
X106576610Y-96149379D01*
X106713920Y-96206255D01*
X106859683Y-96235249D01*
X106859687Y-96235250D01*
X106859688Y-96235250D01*
X107008313Y-96235250D01*
X107008314Y-96235249D01*
X107154080Y-96206255D01*
X107291390Y-96149379D01*
X107414966Y-96066809D01*
X107456092Y-96025683D01*
X111395500Y-96025683D01*
X111395500Y-96174316D01*
X111424493Y-96320072D01*
X111424495Y-96320080D01*
X111481371Y-96457391D01*
X111563939Y-96580964D01*
X111563945Y-96580971D01*
X111669028Y-96686054D01*
X111669035Y-96686060D01*
X111792608Y-96768628D01*
X111792609Y-96768628D01*
X111792610Y-96768629D01*
X111929920Y-96825505D01*
X112075683Y-96854499D01*
X112075687Y-96854500D01*
X112075688Y-96854500D01*
X112224313Y-96854500D01*
X112224314Y-96854499D01*
X112370080Y-96825505D01*
X112507390Y-96768629D01*
X112630966Y-96686059D01*
X112736059Y-96580966D01*
X112818629Y-96457390D01*
X112875505Y-96320080D01*
X112904500Y-96174312D01*
X112904500Y-96025688D01*
X112875505Y-95879920D01*
X112818629Y-95742610D01*
X112790707Y-95700822D01*
X112736060Y-95619035D01*
X112736054Y-95619028D01*
X112630971Y-95513945D01*
X112630964Y-95513939D01*
X112507391Y-95431371D01*
X112370080Y-95374495D01*
X112370072Y-95374493D01*
X112224316Y-95345500D01*
X112224312Y-95345500D01*
X112075688Y-95345500D01*
X112075683Y-95345500D01*
X111929927Y-95374493D01*
X111929919Y-95374495D01*
X111792608Y-95431371D01*
X111669035Y-95513939D01*
X111669028Y-95513945D01*
X111563945Y-95619028D01*
X111563939Y-95619035D01*
X111481371Y-95742608D01*
X111424495Y-95879919D01*
X111424493Y-95879927D01*
X111395500Y-96025683D01*
X107456092Y-96025683D01*
X107520059Y-95961716D01*
X107602629Y-95838140D01*
X107659505Y-95700830D01*
X107688500Y-95555062D01*
X107688500Y-95406438D01*
X107659505Y-95260670D01*
X107602629Y-95123360D01*
X107520059Y-94999784D01*
X107520054Y-94999778D01*
X107414971Y-94894695D01*
X107414964Y-94894689D01*
X107291391Y-94812121D01*
X107154080Y-94755245D01*
X107154072Y-94755243D01*
X107008316Y-94726250D01*
X107008312Y-94726250D01*
X106859688Y-94726250D01*
X106859683Y-94726250D01*
X106713927Y-94755243D01*
X106713919Y-94755245D01*
X106576608Y-94812121D01*
X106453035Y-94894689D01*
X106453028Y-94894695D01*
X106347945Y-94999778D01*
X106347939Y-94999785D01*
X106265371Y-95123358D01*
X106208495Y-95260669D01*
X106208493Y-95260677D01*
X106179500Y-95406433D01*
X89029916Y-95406433D01*
X88972820Y-95364951D01*
X88972115Y-95364591D01*
X88964054Y-95360485D01*
X88913259Y-95312512D01*
X88896463Y-95244692D01*
X88918999Y-95178556D01*
X88964054Y-95139515D01*
X88972816Y-95135051D01*
X88994789Y-95119086D01*
X89144786Y-95010109D01*
X89144788Y-95010106D01*
X89144792Y-95010104D01*
X89295104Y-94859792D01*
X89330134Y-94811577D01*
X100305975Y-94811577D01*
X100411236Y-94855178D01*
X100411240Y-94855179D01*
X100556126Y-94883999D01*
X100556129Y-94884000D01*
X100703871Y-94884000D01*
X100703873Y-94883999D01*
X100848760Y-94855179D01*
X100848775Y-94855175D01*
X100954024Y-94811578D01*
X100954024Y-94811577D01*
X101505975Y-94811577D01*
X101611236Y-94855178D01*
X101611240Y-94855179D01*
X101756126Y-94883999D01*
X101756129Y-94884000D01*
X101903871Y-94884000D01*
X101903873Y-94883999D01*
X102048760Y-94855179D01*
X102048775Y-94855175D01*
X102154024Y-94811578D01*
X102154024Y-94811577D01*
X102705975Y-94811577D01*
X102811236Y-94855178D01*
X102811240Y-94855179D01*
X102956126Y-94883999D01*
X102956129Y-94884000D01*
X103103871Y-94884000D01*
X103103873Y-94883999D01*
X103248760Y-94855179D01*
X103248775Y-94855175D01*
X103354024Y-94811578D01*
X103354024Y-94811577D01*
X103905975Y-94811577D01*
X104011236Y-94855178D01*
X104011240Y-94855179D01*
X104156126Y-94883999D01*
X104156129Y-94884000D01*
X104303871Y-94884000D01*
X104303873Y-94883999D01*
X104448760Y-94855179D01*
X104448775Y-94855175D01*
X104554024Y-94811578D01*
X104554024Y-94811577D01*
X104230001Y-94487554D01*
X104230000Y-94487554D01*
X103905975Y-94811577D01*
X103354024Y-94811577D01*
X103030001Y-94487554D01*
X103030000Y-94487554D01*
X102705975Y-94811577D01*
X102154024Y-94811577D01*
X101830001Y-94487554D01*
X101830000Y-94487554D01*
X101505975Y-94811577D01*
X100954024Y-94811577D01*
X100630001Y-94487554D01*
X100630000Y-94487554D01*
X100305975Y-94811577D01*
X89330134Y-94811577D01*
X89420051Y-94687816D01*
X89516557Y-94498412D01*
X89582246Y-94296243D01*
X89615500Y-94086287D01*
X89615500Y-94060126D01*
X99880000Y-94060126D01*
X99880000Y-94207873D01*
X99908820Y-94352759D01*
X99908822Y-94352767D01*
X99952421Y-94458024D01*
X100276446Y-94134000D01*
X100276446Y-94133999D01*
X100256556Y-94114109D01*
X100530000Y-94114109D01*
X100530000Y-94153891D01*
X100545224Y-94190645D01*
X100573355Y-94218776D01*
X100610109Y-94234000D01*
X100649891Y-94234000D01*
X100686645Y-94218776D01*
X100714776Y-94190645D01*
X100730000Y-94153891D01*
X100730000Y-94134000D01*
X100983554Y-94134000D01*
X101230000Y-94380446D01*
X101476446Y-94134000D01*
X101456555Y-94114109D01*
X101730000Y-94114109D01*
X101730000Y-94153891D01*
X101745224Y-94190645D01*
X101773355Y-94218776D01*
X101810109Y-94234000D01*
X101849891Y-94234000D01*
X101886645Y-94218776D01*
X101914776Y-94190645D01*
X101930000Y-94153891D01*
X101930000Y-94134000D01*
X102183554Y-94134000D01*
X102430000Y-94380446D01*
X102676446Y-94134000D01*
X102656555Y-94114109D01*
X102930000Y-94114109D01*
X102930000Y-94153891D01*
X102945224Y-94190645D01*
X102973355Y-94218776D01*
X103010109Y-94234000D01*
X103049891Y-94234000D01*
X103086645Y-94218776D01*
X103114776Y-94190645D01*
X103130000Y-94153891D01*
X103130000Y-94134000D01*
X103383554Y-94134000D01*
X103630000Y-94380446D01*
X103876446Y-94134000D01*
X103856555Y-94114109D01*
X104130000Y-94114109D01*
X104130000Y-94153891D01*
X104145224Y-94190645D01*
X104173355Y-94218776D01*
X104210109Y-94234000D01*
X104249891Y-94234000D01*
X104286645Y-94218776D01*
X104314776Y-94190645D01*
X104330000Y-94153891D01*
X104330000Y-94133999D01*
X104583554Y-94133999D01*
X104583554Y-94134001D01*
X104907577Y-94458024D01*
X104907578Y-94458024D01*
X104951175Y-94352775D01*
X104951179Y-94352760D01*
X104979999Y-94207873D01*
X104980000Y-94207871D01*
X104980000Y-94060128D01*
X104979999Y-94060126D01*
X104951179Y-93915240D01*
X104951178Y-93915236D01*
X104907577Y-93809975D01*
X104583554Y-94133999D01*
X104330000Y-94133999D01*
X104330000Y-94114109D01*
X104314776Y-94077355D01*
X104286645Y-94049224D01*
X104249891Y-94034000D01*
X104210109Y-94034000D01*
X104173355Y-94049224D01*
X104145224Y-94077355D01*
X104130000Y-94114109D01*
X103856555Y-94114109D01*
X103630000Y-93887554D01*
X103383554Y-94134000D01*
X103130000Y-94134000D01*
X103130000Y-94114109D01*
X103114776Y-94077355D01*
X103086645Y-94049224D01*
X103049891Y-94034000D01*
X103010109Y-94034000D01*
X102973355Y-94049224D01*
X102945224Y-94077355D01*
X102930000Y-94114109D01*
X102656555Y-94114109D01*
X102430000Y-93887554D01*
X102183554Y-94134000D01*
X101930000Y-94134000D01*
X101930000Y-94114109D01*
X101914776Y-94077355D01*
X101886645Y-94049224D01*
X101849891Y-94034000D01*
X101810109Y-94034000D01*
X101773355Y-94049224D01*
X101745224Y-94077355D01*
X101730000Y-94114109D01*
X101456555Y-94114109D01*
X101230000Y-93887554D01*
X100983554Y-94134000D01*
X100730000Y-94134000D01*
X100730000Y-94114109D01*
X100714776Y-94077355D01*
X100686645Y-94049224D01*
X100649891Y-94034000D01*
X100610109Y-94034000D01*
X100573355Y-94049224D01*
X100545224Y-94077355D01*
X100530000Y-94114109D01*
X100256556Y-94114109D01*
X99952421Y-93809974D01*
X99952420Y-93809974D01*
X99908823Y-93915228D01*
X99908820Y-93915240D01*
X99880000Y-94060126D01*
X89615500Y-94060126D01*
X89615500Y-93873713D01*
X89582246Y-93663757D01*
X89540085Y-93534000D01*
X100383554Y-93534000D01*
X100630000Y-93780446D01*
X100876446Y-93534000D01*
X101583554Y-93534000D01*
X101830000Y-93780446D01*
X102076446Y-93534000D01*
X102783554Y-93534000D01*
X103030000Y-93780446D01*
X103276446Y-93534000D01*
X103983554Y-93534000D01*
X104230000Y-93780446D01*
X104476446Y-93534000D01*
X104230000Y-93287554D01*
X103983554Y-93534000D01*
X103276446Y-93534000D01*
X103030000Y-93287554D01*
X102783554Y-93534000D01*
X102076446Y-93534000D01*
X101830000Y-93287554D01*
X101583554Y-93534000D01*
X100876446Y-93534000D01*
X100630000Y-93287554D01*
X100383554Y-93534000D01*
X89540085Y-93534000D01*
X89516557Y-93461588D01*
X89516555Y-93461585D01*
X89516555Y-93461583D01*
X89450397Y-93331742D01*
X89420051Y-93272184D01*
X89420049Y-93272181D01*
X89420048Y-93272179D01*
X89295109Y-93100213D01*
X89145992Y-92951096D01*
X89144792Y-92949896D01*
X89021233Y-92860126D01*
X99880000Y-92860126D01*
X99880000Y-93007873D01*
X99908820Y-93152759D01*
X99908822Y-93152767D01*
X99952421Y-93258024D01*
X100276446Y-92934000D01*
X100276446Y-92933999D01*
X100256556Y-92914109D01*
X100530000Y-92914109D01*
X100530000Y-92953891D01*
X100545224Y-92990645D01*
X100573355Y-93018776D01*
X100610109Y-93034000D01*
X100649891Y-93034000D01*
X100686645Y-93018776D01*
X100714776Y-92990645D01*
X100730000Y-92953891D01*
X100730000Y-92934000D01*
X100983554Y-92934000D01*
X101230000Y-93180446D01*
X101476446Y-92934000D01*
X101456555Y-92914109D01*
X101730000Y-92914109D01*
X101730000Y-92953891D01*
X101745224Y-92990645D01*
X101773355Y-93018776D01*
X101810109Y-93034000D01*
X101849891Y-93034000D01*
X101886645Y-93018776D01*
X101914776Y-92990645D01*
X101930000Y-92953891D01*
X101930000Y-92934000D01*
X102183554Y-92934000D01*
X102430000Y-93180446D01*
X102676446Y-92934000D01*
X102656555Y-92914109D01*
X102930000Y-92914109D01*
X102930000Y-92953891D01*
X102945224Y-92990645D01*
X102973355Y-93018776D01*
X103010109Y-93034000D01*
X103049891Y-93034000D01*
X103086645Y-93018776D01*
X103114776Y-92990645D01*
X103130000Y-92953891D01*
X103130000Y-92934000D01*
X103383554Y-92934000D01*
X103630000Y-93180446D01*
X103876446Y-92934000D01*
X103856555Y-92914109D01*
X104130000Y-92914109D01*
X104130000Y-92953891D01*
X104145224Y-92990645D01*
X104173355Y-93018776D01*
X104210109Y-93034000D01*
X104249891Y-93034000D01*
X104286645Y-93018776D01*
X104314776Y-92990645D01*
X104330000Y-92953891D01*
X104330000Y-92933999D01*
X104583554Y-92933999D01*
X104583554Y-92934001D01*
X104907577Y-93258024D01*
X104907578Y-93258024D01*
X104951175Y-93152775D01*
X104951179Y-93152760D01*
X104978247Y-93016683D01*
X106179500Y-93016683D01*
X106179500Y-93165316D01*
X106208493Y-93311072D01*
X106208495Y-93311080D01*
X106265371Y-93448391D01*
X106347939Y-93571964D01*
X106347945Y-93571971D01*
X106453028Y-93677054D01*
X106453035Y-93677060D01*
X106576608Y-93759628D01*
X106576609Y-93759628D01*
X106576610Y-93759629D01*
X106713920Y-93816505D01*
X106859683Y-93845499D01*
X106859687Y-93845500D01*
X106859688Y-93845500D01*
X107008313Y-93845500D01*
X107008314Y-93845499D01*
X107154080Y-93816505D01*
X107291390Y-93759629D01*
X107414966Y-93677059D01*
X107520059Y-93571966D01*
X107602629Y-93448390D01*
X107659505Y-93311080D01*
X107688500Y-93165312D01*
X107688500Y-93016688D01*
X107659505Y-92870920D01*
X107602629Y-92733610D01*
X107600339Y-92730183D01*
X107520060Y-92610035D01*
X107520054Y-92610028D01*
X107414971Y-92504945D01*
X107414964Y-92504939D01*
X107291391Y-92422371D01*
X107154080Y-92365495D01*
X107154072Y-92365493D01*
X107008316Y-92336500D01*
X107008312Y-92336500D01*
X106859688Y-92336500D01*
X106859683Y-92336500D01*
X106713927Y-92365493D01*
X106713919Y-92365495D01*
X106576608Y-92422371D01*
X106453035Y-92504939D01*
X106453028Y-92504945D01*
X106347945Y-92610028D01*
X106347939Y-92610035D01*
X106265371Y-92733608D01*
X106208495Y-92870919D01*
X106208493Y-92870927D01*
X106179500Y-93016683D01*
X104978247Y-93016683D01*
X104979999Y-93007873D01*
X104980000Y-93007871D01*
X104980000Y-92860128D01*
X104979999Y-92860126D01*
X104951179Y-92715240D01*
X104951178Y-92715236D01*
X104907577Y-92609975D01*
X104583554Y-92933999D01*
X104330000Y-92933999D01*
X104330000Y-92914109D01*
X104314776Y-92877355D01*
X104286645Y-92849224D01*
X104249891Y-92834000D01*
X104210109Y-92834000D01*
X104173355Y-92849224D01*
X104145224Y-92877355D01*
X104130000Y-92914109D01*
X103856555Y-92914109D01*
X103630000Y-92687554D01*
X103383554Y-92934000D01*
X103130000Y-92934000D01*
X103130000Y-92914109D01*
X103114776Y-92877355D01*
X103086645Y-92849224D01*
X103049891Y-92834000D01*
X103010109Y-92834000D01*
X102973355Y-92849224D01*
X102945224Y-92877355D01*
X102930000Y-92914109D01*
X102656555Y-92914109D01*
X102430000Y-92687554D01*
X102183554Y-92934000D01*
X101930000Y-92934000D01*
X101930000Y-92914109D01*
X101914776Y-92877355D01*
X101886645Y-92849224D01*
X101849891Y-92834000D01*
X101810109Y-92834000D01*
X101773355Y-92849224D01*
X101745224Y-92877355D01*
X101730000Y-92914109D01*
X101456555Y-92914109D01*
X101230000Y-92687554D01*
X100983554Y-92934000D01*
X100730000Y-92934000D01*
X100730000Y-92914109D01*
X100714776Y-92877355D01*
X100686645Y-92849224D01*
X100649891Y-92834000D01*
X100610109Y-92834000D01*
X100573355Y-92849224D01*
X100545224Y-92877355D01*
X100530000Y-92914109D01*
X100256556Y-92914109D01*
X99952421Y-92609974D01*
X99952420Y-92609974D01*
X99908823Y-92715228D01*
X99908820Y-92715240D01*
X99880000Y-92860126D01*
X89021233Y-92860126D01*
X88972816Y-92824949D01*
X88956001Y-92816381D01*
X88948626Y-92811152D01*
X88932353Y-92790545D01*
X88913259Y-92772512D01*
X88911041Y-92763556D01*
X88905325Y-92756318D01*
X88902776Y-92730183D01*
X88896463Y-92704692D01*
X88899438Y-92695960D01*
X88898543Y-92686779D01*
X88910528Y-92663414D01*
X88918999Y-92638556D01*
X88926705Y-92631878D01*
X88930433Y-92624612D01*
X88944523Y-92616438D01*
X88964054Y-92599515D01*
X88972816Y-92595051D01*
X88994789Y-92579086D01*
X89144786Y-92470109D01*
X89144788Y-92470106D01*
X89144792Y-92470104D01*
X89280896Y-92334000D01*
X100383554Y-92334000D01*
X100630000Y-92580446D01*
X100876446Y-92334000D01*
X101583554Y-92334000D01*
X101830000Y-92580446D01*
X102076446Y-92334000D01*
X102783554Y-92334000D01*
X103030000Y-92580446D01*
X103276446Y-92334000D01*
X103983554Y-92334000D01*
X104230000Y-92580446D01*
X104476446Y-92334000D01*
X104230000Y-92087554D01*
X103983554Y-92334000D01*
X103276446Y-92334000D01*
X103030000Y-92087554D01*
X102783554Y-92334000D01*
X102076446Y-92334000D01*
X101830000Y-92087554D01*
X101583554Y-92334000D01*
X100876446Y-92334000D01*
X100630000Y-92087554D01*
X100383554Y-92334000D01*
X89280896Y-92334000D01*
X89295104Y-92319792D01*
X89420051Y-92147816D01*
X89516557Y-91958412D01*
X89582246Y-91756243D01*
X89597470Y-91660126D01*
X99880000Y-91660126D01*
X99880000Y-91807873D01*
X99908820Y-91952759D01*
X99908822Y-91952767D01*
X99952421Y-92058024D01*
X100276446Y-91734000D01*
X100276446Y-91733999D01*
X100256556Y-91714109D01*
X100530000Y-91714109D01*
X100530000Y-91753891D01*
X100545224Y-91790645D01*
X100573355Y-91818776D01*
X100610109Y-91834000D01*
X100649891Y-91834000D01*
X100686645Y-91818776D01*
X100714776Y-91790645D01*
X100730000Y-91753891D01*
X100730000Y-91734000D01*
X100983554Y-91734000D01*
X101230000Y-91980446D01*
X101476446Y-91734000D01*
X101456555Y-91714109D01*
X101730000Y-91714109D01*
X101730000Y-91753891D01*
X101745224Y-91790645D01*
X101773355Y-91818776D01*
X101810109Y-91834000D01*
X101849891Y-91834000D01*
X101886645Y-91818776D01*
X101914776Y-91790645D01*
X101930000Y-91753891D01*
X101930000Y-91734000D01*
X102183554Y-91734000D01*
X102430000Y-91980446D01*
X102676446Y-91734000D01*
X102656555Y-91714109D01*
X102930000Y-91714109D01*
X102930000Y-91753891D01*
X102945224Y-91790645D01*
X102973355Y-91818776D01*
X103010109Y-91834000D01*
X103049891Y-91834000D01*
X103086645Y-91818776D01*
X103114776Y-91790645D01*
X103130000Y-91753891D01*
X103130000Y-91734000D01*
X103383554Y-91734000D01*
X103630000Y-91980446D01*
X103876446Y-91734000D01*
X103856555Y-91714109D01*
X104130000Y-91714109D01*
X104130000Y-91753891D01*
X104145224Y-91790645D01*
X104173355Y-91818776D01*
X104210109Y-91834000D01*
X104249891Y-91834000D01*
X104286645Y-91818776D01*
X104314776Y-91790645D01*
X104330000Y-91753891D01*
X104330000Y-91733999D01*
X104583554Y-91733999D01*
X104583554Y-91734001D01*
X104907577Y-92058024D01*
X104907578Y-92058024D01*
X104951175Y-91952775D01*
X104951179Y-91952760D01*
X104979999Y-91807873D01*
X104980000Y-91807871D01*
X104980000Y-91660128D01*
X104979999Y-91660126D01*
X104951179Y-91515240D01*
X104951178Y-91515236D01*
X104907577Y-91409975D01*
X104583554Y-91733999D01*
X104330000Y-91733999D01*
X104330000Y-91714109D01*
X104314776Y-91677355D01*
X104286645Y-91649224D01*
X104249891Y-91634000D01*
X104210109Y-91634000D01*
X104173355Y-91649224D01*
X104145224Y-91677355D01*
X104130000Y-91714109D01*
X103856555Y-91714109D01*
X103630000Y-91487554D01*
X103383554Y-91734000D01*
X103130000Y-91734000D01*
X103130000Y-91714109D01*
X103114776Y-91677355D01*
X103086645Y-91649224D01*
X103049891Y-91634000D01*
X103010109Y-91634000D01*
X102973355Y-91649224D01*
X102945224Y-91677355D01*
X102930000Y-91714109D01*
X102656555Y-91714109D01*
X102430000Y-91487554D01*
X102183554Y-91734000D01*
X101930000Y-91734000D01*
X101930000Y-91714109D01*
X101914776Y-91677355D01*
X101886645Y-91649224D01*
X101849891Y-91634000D01*
X101810109Y-91634000D01*
X101773355Y-91649224D01*
X101745224Y-91677355D01*
X101730000Y-91714109D01*
X101456555Y-91714109D01*
X101230000Y-91487554D01*
X100983554Y-91734000D01*
X100730000Y-91734000D01*
X100730000Y-91714109D01*
X100714776Y-91677355D01*
X100686645Y-91649224D01*
X100649891Y-91634000D01*
X100610109Y-91634000D01*
X100573355Y-91649224D01*
X100545224Y-91677355D01*
X100530000Y-91714109D01*
X100256556Y-91714109D01*
X99952421Y-91409974D01*
X99952420Y-91409974D01*
X99908823Y-91515228D01*
X99908820Y-91515240D01*
X99880000Y-91660126D01*
X89597470Y-91660126D01*
X89615500Y-91546287D01*
X89615500Y-91333713D01*
X89583868Y-91134000D01*
X100383554Y-91134000D01*
X100630000Y-91380446D01*
X100876446Y-91134000D01*
X101583554Y-91134000D01*
X101830000Y-91380446D01*
X102076446Y-91134000D01*
X102783554Y-91134000D01*
X103030000Y-91380446D01*
X103276446Y-91134000D01*
X103983554Y-91134000D01*
X104230000Y-91380446D01*
X104476446Y-91134000D01*
X104230000Y-90887554D01*
X103983554Y-91134000D01*
X103276446Y-91134000D01*
X103030000Y-90887554D01*
X102783554Y-91134000D01*
X102076446Y-91134000D01*
X101830000Y-90887554D01*
X101583554Y-91134000D01*
X100876446Y-91134000D01*
X100630000Y-90887554D01*
X100383554Y-91134000D01*
X89583868Y-91134000D01*
X89582246Y-91123757D01*
X89516557Y-90921588D01*
X89420051Y-90732184D01*
X89420049Y-90732181D01*
X89420048Y-90732179D01*
X89295109Y-90560213D01*
X89195022Y-90460126D01*
X99880000Y-90460126D01*
X99880000Y-90607873D01*
X99908820Y-90752759D01*
X99908822Y-90752767D01*
X99952421Y-90858024D01*
X100276446Y-90534000D01*
X100276446Y-90533999D01*
X100256556Y-90514109D01*
X100530000Y-90514109D01*
X100530000Y-90553891D01*
X100545224Y-90590645D01*
X100573355Y-90618776D01*
X100610109Y-90634000D01*
X100649891Y-90634000D01*
X100686645Y-90618776D01*
X100714776Y-90590645D01*
X100730000Y-90553891D01*
X100730000Y-90534000D01*
X100983554Y-90534000D01*
X101230000Y-90780446D01*
X101476446Y-90534000D01*
X101456555Y-90514109D01*
X101730000Y-90514109D01*
X101730000Y-90553891D01*
X101745224Y-90590645D01*
X101773355Y-90618776D01*
X101810109Y-90634000D01*
X101849891Y-90634000D01*
X101886645Y-90618776D01*
X101914776Y-90590645D01*
X101930000Y-90553891D01*
X101930000Y-90534000D01*
X102183554Y-90534000D01*
X102430000Y-90780446D01*
X102676446Y-90534000D01*
X102656555Y-90514109D01*
X102930000Y-90514109D01*
X102930000Y-90553891D01*
X102945224Y-90590645D01*
X102973355Y-90618776D01*
X103010109Y-90634000D01*
X103049891Y-90634000D01*
X103086645Y-90618776D01*
X103114776Y-90590645D01*
X103130000Y-90553891D01*
X103130000Y-90534000D01*
X103383554Y-90534000D01*
X103630000Y-90780446D01*
X103876446Y-90534000D01*
X103856555Y-90514109D01*
X104130000Y-90514109D01*
X104130000Y-90553891D01*
X104145224Y-90590645D01*
X104173355Y-90618776D01*
X104210109Y-90634000D01*
X104249891Y-90634000D01*
X104286645Y-90618776D01*
X104314776Y-90590645D01*
X104330000Y-90553891D01*
X104330000Y-90533999D01*
X104583554Y-90533999D01*
X104583554Y-90534001D01*
X104907577Y-90858024D01*
X104907578Y-90858024D01*
X104951175Y-90752775D01*
X104951179Y-90752760D01*
X104979999Y-90607873D01*
X104980000Y-90607871D01*
X104980000Y-90460128D01*
X104979999Y-90460126D01*
X104951179Y-90315240D01*
X104951178Y-90315236D01*
X104907577Y-90209975D01*
X104583554Y-90533999D01*
X104330000Y-90533999D01*
X104330000Y-90514109D01*
X104314776Y-90477355D01*
X104286645Y-90449224D01*
X104249891Y-90434000D01*
X104210109Y-90434000D01*
X104173355Y-90449224D01*
X104145224Y-90477355D01*
X104130000Y-90514109D01*
X103856555Y-90514109D01*
X103630000Y-90287554D01*
X103383554Y-90534000D01*
X103130000Y-90534000D01*
X103130000Y-90514109D01*
X103114776Y-90477355D01*
X103086645Y-90449224D01*
X103049891Y-90434000D01*
X103010109Y-90434000D01*
X102973355Y-90449224D01*
X102945224Y-90477355D01*
X102930000Y-90514109D01*
X102656555Y-90514109D01*
X102430000Y-90287554D01*
X102183554Y-90534000D01*
X101930000Y-90534000D01*
X101930000Y-90514109D01*
X101914776Y-90477355D01*
X101886645Y-90449224D01*
X101849891Y-90434000D01*
X101810109Y-90434000D01*
X101773355Y-90449224D01*
X101745224Y-90477355D01*
X101730000Y-90514109D01*
X101456555Y-90514109D01*
X101230000Y-90287554D01*
X100983554Y-90534000D01*
X100730000Y-90534000D01*
X100730000Y-90514109D01*
X100714776Y-90477355D01*
X100686645Y-90449224D01*
X100649891Y-90434000D01*
X100610109Y-90434000D01*
X100573355Y-90449224D01*
X100545224Y-90477355D01*
X100530000Y-90514109D01*
X100256556Y-90514109D01*
X99952421Y-90209974D01*
X99952420Y-90209974D01*
X99908823Y-90315228D01*
X99908820Y-90315240D01*
X99880000Y-90460126D01*
X89195022Y-90460126D01*
X89144786Y-90409890D01*
X88972820Y-90284951D01*
X88972115Y-90284591D01*
X88964054Y-90280485D01*
X88913259Y-90232512D01*
X88896463Y-90164692D01*
X88918999Y-90098556D01*
X88964054Y-90059515D01*
X88972816Y-90055051D01*
X88994789Y-90039086D01*
X89144786Y-89930109D01*
X89144788Y-89930106D01*
X89144792Y-89930104D01*
X89218476Y-89856420D01*
X100305974Y-89856420D01*
X100305974Y-89856421D01*
X100630000Y-90180446D01*
X100630001Y-90180446D01*
X100954024Y-89856421D01*
X100954022Y-89856420D01*
X101505974Y-89856420D01*
X101505974Y-89856421D01*
X101830000Y-90180446D01*
X101830001Y-90180446D01*
X102154024Y-89856421D01*
X102154022Y-89856420D01*
X102705974Y-89856420D01*
X102705974Y-89856421D01*
X103030000Y-90180446D01*
X103030001Y-90180446D01*
X103354024Y-89856421D01*
X103354022Y-89856420D01*
X103905974Y-89856420D01*
X103905974Y-89856421D01*
X104230000Y-90180446D01*
X104230001Y-90180446D01*
X104441763Y-89968683D01*
X106179500Y-89968683D01*
X106179500Y-90117316D01*
X106208493Y-90263072D01*
X106208495Y-90263080D01*
X106265371Y-90400391D01*
X106347939Y-90523964D01*
X106347945Y-90523971D01*
X106453028Y-90629054D01*
X106453035Y-90629060D01*
X106576608Y-90711628D01*
X106576609Y-90711628D01*
X106576610Y-90711629D01*
X106713920Y-90768505D01*
X106830741Y-90791742D01*
X106859683Y-90797499D01*
X106859687Y-90797500D01*
X106859688Y-90797500D01*
X107008313Y-90797500D01*
X107008314Y-90797499D01*
X107154080Y-90768505D01*
X107291390Y-90711629D01*
X107414966Y-90629059D01*
X107520059Y-90523966D01*
X107602629Y-90400390D01*
X107659505Y-90263080D01*
X107688500Y-90117312D01*
X107688500Y-89968688D01*
X107659505Y-89822920D01*
X107602629Y-89685610D01*
X107550649Y-89607816D01*
X107520060Y-89562035D01*
X107520054Y-89562028D01*
X107414971Y-89456945D01*
X107414964Y-89456939D01*
X107291391Y-89374371D01*
X107154080Y-89317495D01*
X107154072Y-89317493D01*
X107008316Y-89288500D01*
X107008312Y-89288500D01*
X106859688Y-89288500D01*
X106859683Y-89288500D01*
X106713927Y-89317493D01*
X106713919Y-89317495D01*
X106576608Y-89374371D01*
X106453035Y-89456939D01*
X106453028Y-89456945D01*
X106347945Y-89562028D01*
X106347939Y-89562035D01*
X106265371Y-89685608D01*
X106208495Y-89822919D01*
X106208493Y-89822927D01*
X106179500Y-89968683D01*
X104441763Y-89968683D01*
X104535531Y-89874915D01*
X104554024Y-89856421D01*
X104448767Y-89812822D01*
X104448759Y-89812820D01*
X104303872Y-89784000D01*
X104156128Y-89784000D01*
X104011240Y-89812820D01*
X104011228Y-89812823D01*
X103905974Y-89856420D01*
X103354022Y-89856420D01*
X103248767Y-89812822D01*
X103248759Y-89812820D01*
X103103872Y-89784000D01*
X102956128Y-89784000D01*
X102811240Y-89812820D01*
X102811228Y-89812823D01*
X102705974Y-89856420D01*
X102154022Y-89856420D01*
X102048767Y-89812822D01*
X102048759Y-89812820D01*
X101903872Y-89784000D01*
X101756128Y-89784000D01*
X101611240Y-89812820D01*
X101611228Y-89812823D01*
X101505974Y-89856420D01*
X100954022Y-89856420D01*
X100848767Y-89812822D01*
X100848759Y-89812820D01*
X100703872Y-89784000D01*
X100556128Y-89784000D01*
X100411240Y-89812820D01*
X100411228Y-89812823D01*
X100305974Y-89856420D01*
X89218476Y-89856420D01*
X89295104Y-89779792D01*
X89295106Y-89779788D01*
X89295109Y-89779786D01*
X89420048Y-89607820D01*
X89420047Y-89607820D01*
X89420051Y-89607816D01*
X89516557Y-89418412D01*
X89582246Y-89216243D01*
X89615500Y-89006287D01*
X89615500Y-88793713D01*
X89582246Y-88583757D01*
X89516557Y-88381588D01*
X89420051Y-88192184D01*
X89420049Y-88192181D01*
X89420048Y-88192179D01*
X89295109Y-88020213D01*
X89144786Y-87869890D01*
X88972820Y-87744951D01*
X88972115Y-87744591D01*
X88964054Y-87740485D01*
X88913259Y-87692512D01*
X88896463Y-87624692D01*
X88918999Y-87558556D01*
X88964054Y-87519515D01*
X88972816Y-87515051D01*
X88994789Y-87499086D01*
X89144786Y-87390109D01*
X89144788Y-87390106D01*
X89144792Y-87390104D01*
X89295104Y-87239792D01*
X89295106Y-87239788D01*
X89295109Y-87239786D01*
X89420048Y-87067820D01*
X89420047Y-87067820D01*
X89420051Y-87067816D01*
X89516557Y-86878412D01*
X89582246Y-86676243D01*
X89615500Y-86466287D01*
X89615500Y-86253713D01*
X89582246Y-86043757D01*
X89516557Y-85841588D01*
X89420051Y-85652184D01*
X89372825Y-85587183D01*
X105481000Y-85587183D01*
X105481000Y-85735816D01*
X105509993Y-85881572D01*
X105509995Y-85881580D01*
X105566871Y-86018891D01*
X105649439Y-86142464D01*
X105649445Y-86142471D01*
X105754528Y-86247554D01*
X105754535Y-86247560D01*
X105878108Y-86330128D01*
X105878109Y-86330128D01*
X105878110Y-86330129D01*
X106015420Y-86387005D01*
X106161183Y-86415999D01*
X106161187Y-86416000D01*
X106161188Y-86416000D01*
X106309813Y-86416000D01*
X106309814Y-86415999D01*
X106455580Y-86387005D01*
X106592890Y-86330129D01*
X106716466Y-86247559D01*
X106716471Y-86247554D01*
X106754771Y-86209255D01*
X106821554Y-86142471D01*
X106821559Y-86142466D01*
X106904129Y-86018890D01*
X106961005Y-85881580D01*
X106990000Y-85735812D01*
X106990000Y-85587188D01*
X106961005Y-85441420D01*
X106914810Y-85329896D01*
X106904413Y-85304795D01*
X106904127Y-85304106D01*
X106876948Y-85263429D01*
X110307000Y-85263429D01*
X110307000Y-85424570D01*
X110338433Y-85582594D01*
X110338435Y-85582602D01*
X110400096Y-85731466D01*
X110489619Y-85865447D01*
X110603552Y-85979380D01*
X110737533Y-86068903D01*
X110811965Y-86099733D01*
X110886398Y-86130565D01*
X111044429Y-86161999D01*
X111044433Y-86162000D01*
X111044434Y-86162000D01*
X111205567Y-86162000D01*
X111205568Y-86161999D01*
X111363602Y-86130565D01*
X111512468Y-86068902D01*
X111646445Y-85979382D01*
X111760382Y-85865445D01*
X111781393Y-85834000D01*
X119359016Y-85834000D01*
X120209722Y-85834000D01*
X120165667Y-85910306D01*
X120135000Y-86024756D01*
X120135000Y-86143244D01*
X120165667Y-86257694D01*
X120209722Y-86334000D01*
X119359016Y-86334000D01*
X119365781Y-86376716D01*
X119426581Y-86563837D01*
X119515904Y-86739143D01*
X119631555Y-86898321D01*
X119770678Y-87037444D01*
X119929856Y-87153095D01*
X120105164Y-87242418D01*
X120292294Y-87303221D01*
X120486618Y-87334000D01*
X121235000Y-87334000D01*
X121235000Y-86534000D01*
X121735000Y-86534000D01*
X121735000Y-87334000D01*
X122483382Y-87334000D01*
X122677705Y-87303221D01*
X122864835Y-87242418D01*
X123040143Y-87153095D01*
X123199321Y-87037444D01*
X123338444Y-86898321D01*
X123454095Y-86739143D01*
X123543418Y-86563837D01*
X123604218Y-86376716D01*
X123610984Y-86334000D01*
X122760278Y-86334000D01*
X122804333Y-86257694D01*
X122835000Y-86143244D01*
X122835000Y-86024756D01*
X122804333Y-85910306D01*
X122760278Y-85834000D01*
X123610984Y-85834000D01*
X125819016Y-85834000D01*
X126669722Y-85834000D01*
X126625667Y-85910306D01*
X126595000Y-86024756D01*
X126595000Y-86143244D01*
X126625667Y-86257694D01*
X126669722Y-86334000D01*
X125819016Y-86334000D01*
X125825781Y-86376716D01*
X125886581Y-86563837D01*
X125975904Y-86739143D01*
X126091555Y-86898321D01*
X126230678Y-87037444D01*
X126389856Y-87153095D01*
X126565164Y-87242418D01*
X126752294Y-87303221D01*
X126946618Y-87334000D01*
X127195000Y-87334000D01*
X127195000Y-86534000D01*
X127695000Y-86534000D01*
X127695000Y-87334000D01*
X127943382Y-87334000D01*
X128137705Y-87303221D01*
X128324835Y-87242418D01*
X128500143Y-87153095D01*
X128659321Y-87037444D01*
X128798444Y-86898321D01*
X128914095Y-86739143D01*
X129003418Y-86563837D01*
X129064218Y-86376716D01*
X129070984Y-86334000D01*
X128220278Y-86334000D01*
X128264333Y-86257694D01*
X128295000Y-86143244D01*
X128295000Y-86024756D01*
X128264333Y-85910306D01*
X128220278Y-85834000D01*
X129070984Y-85834000D01*
X129064218Y-85791283D01*
X129003418Y-85604162D01*
X128914095Y-85428856D01*
X128798444Y-85269678D01*
X128659321Y-85130555D01*
X128500143Y-85014904D01*
X128324835Y-84925581D01*
X128137705Y-84864778D01*
X127943382Y-84834000D01*
X127695000Y-84834000D01*
X127695000Y-85634000D01*
X127195000Y-85634000D01*
X127195000Y-84834000D01*
X126946618Y-84834000D01*
X126752294Y-84864778D01*
X126565164Y-84925581D01*
X126389856Y-85014904D01*
X126230678Y-85130555D01*
X126091555Y-85269678D01*
X125975904Y-85428856D01*
X125886581Y-85604162D01*
X125825781Y-85791283D01*
X125819016Y-85834000D01*
X123610984Y-85834000D01*
X123604218Y-85791283D01*
X123543418Y-85604162D01*
X123454095Y-85428856D01*
X123338444Y-85269678D01*
X123199321Y-85130555D01*
X123040143Y-85014904D01*
X122864835Y-84925581D01*
X122677705Y-84864778D01*
X122483382Y-84834000D01*
X121735000Y-84834000D01*
X121735000Y-85634000D01*
X121235000Y-85634000D01*
X121235000Y-84834000D01*
X120486618Y-84834000D01*
X120292294Y-84864778D01*
X120105164Y-84925581D01*
X119929856Y-85014904D01*
X119770678Y-85130555D01*
X119631555Y-85269678D01*
X119515904Y-85428856D01*
X119426581Y-85604162D01*
X119365781Y-85791283D01*
X119359016Y-85834000D01*
X111781393Y-85834000D01*
X111849902Y-85731468D01*
X111851117Y-85728536D01*
X111882742Y-85652186D01*
X111911565Y-85582602D01*
X111943000Y-85424566D01*
X111943000Y-85263434D01*
X111911565Y-85105398D01*
X111871842Y-85009500D01*
X111849903Y-84956533D01*
X111760380Y-84822552D01*
X111646447Y-84708619D01*
X111512466Y-84619096D01*
X111363602Y-84557435D01*
X111363594Y-84557433D01*
X111205570Y-84526000D01*
X111205566Y-84526000D01*
X111044434Y-84526000D01*
X111044429Y-84526000D01*
X110886405Y-84557433D01*
X110886397Y-84557435D01*
X110737533Y-84619096D01*
X110603552Y-84708619D01*
X110489619Y-84822552D01*
X110400096Y-84956533D01*
X110338435Y-85105397D01*
X110338433Y-85105405D01*
X110307000Y-85263429D01*
X106876948Y-85263429D01*
X106821560Y-85180535D01*
X106821554Y-85180528D01*
X106716471Y-85075445D01*
X106716464Y-85075439D01*
X106592891Y-84992871D01*
X106455580Y-84935995D01*
X106455572Y-84935993D01*
X106309816Y-84907000D01*
X106309812Y-84907000D01*
X106161188Y-84907000D01*
X106161183Y-84907000D01*
X106015427Y-84935993D01*
X106015419Y-84935995D01*
X105878108Y-84992871D01*
X105754535Y-85075439D01*
X105754528Y-85075445D01*
X105649445Y-85180528D01*
X105649439Y-85180535D01*
X105566871Y-85304108D01*
X105509995Y-85441419D01*
X105509993Y-85441427D01*
X105481000Y-85587183D01*
X89372825Y-85587183D01*
X89295104Y-85480208D01*
X89181569Y-85366673D01*
X89148084Y-85305350D01*
X89153068Y-85235658D01*
X89194940Y-85179725D01*
X89225915Y-85162810D01*
X89357331Y-85113796D01*
X89472546Y-85027546D01*
X89558796Y-84912331D01*
X89609091Y-84777483D01*
X89615500Y-84717873D01*
X89615499Y-82922128D01*
X89609091Y-82862517D01*
X89608002Y-82859598D01*
X89558797Y-82727671D01*
X89558793Y-82727664D01*
X89472547Y-82612455D01*
X89472544Y-82612452D01*
X89357335Y-82526206D01*
X89357328Y-82526202D01*
X89222482Y-82475908D01*
X89222483Y-82475908D01*
X89162883Y-82469501D01*
X89162881Y-82469500D01*
X89162873Y-82469500D01*
X89162864Y-82469500D01*
X87367129Y-82469500D01*
X87367123Y-82469501D01*
X87307516Y-82475908D01*
X87172671Y-82526202D01*
X87172664Y-82526206D01*
X87057455Y-82612452D01*
X87057452Y-82612455D01*
X86971206Y-82727664D01*
X86971202Y-82727671D01*
X86921997Y-82859598D01*
X86880126Y-82915532D01*
X86814661Y-82939949D01*
X86746388Y-82925097D01*
X86718134Y-82903946D01*
X86604464Y-82790276D01*
X86604459Y-82790272D01*
X86432557Y-82665379D01*
X86243215Y-82568903D01*
X86041124Y-82503241D01*
X85975000Y-82492768D01*
X85975000Y-83386988D01*
X85917993Y-83354075D01*
X85790826Y-83320000D01*
X85659174Y-83320000D01*
X85532007Y-83354075D01*
X85475000Y-83386988D01*
X85475000Y-82492768D01*
X85474999Y-82492768D01*
X85408875Y-82503241D01*
X85206784Y-82568903D01*
X85017442Y-82665379D01*
X84845540Y-82790272D01*
X84845535Y-82790276D01*
X84695276Y-82940535D01*
X84695272Y-82940540D01*
X84570379Y-83112442D01*
X84473904Y-83301782D01*
X84408242Y-83503870D01*
X84408242Y-83503873D01*
X84397769Y-83570000D01*
X85291988Y-83570000D01*
X85259075Y-83627007D01*
X85225000Y-83754174D01*
X85225000Y-83885826D01*
X85259075Y-84012993D01*
X85291988Y-84070000D01*
X84397769Y-84070000D01*
X84408242Y-84136126D01*
X84408242Y-84136129D01*
X84473904Y-84338217D01*
X84570379Y-84527557D01*
X84695272Y-84699459D01*
X84695276Y-84699464D01*
X84845535Y-84849723D01*
X84845540Y-84849727D01*
X85017444Y-84974622D01*
X85026495Y-84979234D01*
X85077292Y-85027208D01*
X85094087Y-85095029D01*
X85071550Y-85161164D01*
X85026499Y-85200202D01*
X85017182Y-85204949D01*
X84845213Y-85329890D01*
X84694890Y-85480213D01*
X84569951Y-85652179D01*
X84473444Y-85841585D01*
X84407753Y-86043760D01*
X84374500Y-86253713D01*
X78740000Y-86253713D01*
X78740000Y-77395683D01*
X82430500Y-77395683D01*
X82430500Y-77544316D01*
X82459493Y-77690072D01*
X82459495Y-77690080D01*
X82516371Y-77827391D01*
X82598939Y-77950964D01*
X82598945Y-77950971D01*
X82704028Y-78056054D01*
X82704035Y-78056060D01*
X82827608Y-78138628D01*
X82827609Y-78138628D01*
X82827610Y-78138629D01*
X82964920Y-78195505D01*
X83110683Y-78224499D01*
X83110687Y-78224500D01*
X83110688Y-78224500D01*
X83259313Y-78224500D01*
X83259314Y-78224499D01*
X83405080Y-78195505D01*
X83542390Y-78138629D01*
X83665966Y-78056059D01*
X83771059Y-77950966D01*
X83853629Y-77827390D01*
X83910505Y-77690080D01*
X83939500Y-77544312D01*
X83939500Y-77395688D01*
X83938255Y-77389429D01*
X87447000Y-77389429D01*
X87447000Y-77550570D01*
X87478433Y-77708594D01*
X87478435Y-77708602D01*
X87540096Y-77857466D01*
X87629619Y-77991447D01*
X87743552Y-78105380D01*
X87877533Y-78194903D01*
X87948985Y-78224499D01*
X88026398Y-78256565D01*
X88184429Y-78287999D01*
X88184433Y-78288000D01*
X88184434Y-78288000D01*
X88345567Y-78288000D01*
X88345568Y-78287999D01*
X88503602Y-78256565D01*
X88651010Y-78195506D01*
X88652466Y-78194903D01*
X88652466Y-78194902D01*
X88652468Y-78194902D01*
X88786445Y-78105382D01*
X88900382Y-77991445D01*
X88989902Y-77857468D01*
X89051565Y-77708602D01*
X89083000Y-77550566D01*
X89083000Y-77389434D01*
X89051565Y-77231398D01*
X89002360Y-77112608D01*
X88989903Y-77082533D01*
X88900380Y-76948552D01*
X88786447Y-76834619D01*
X88652466Y-76745096D01*
X88503602Y-76683435D01*
X88503594Y-76683433D01*
X88345570Y-76652000D01*
X88345566Y-76652000D01*
X88184434Y-76652000D01*
X88184429Y-76652000D01*
X88026405Y-76683433D01*
X88026397Y-76683435D01*
X87877533Y-76745096D01*
X87743552Y-76834619D01*
X87629619Y-76948552D01*
X87540096Y-77082533D01*
X87478435Y-77231397D01*
X87478433Y-77231405D01*
X87447000Y-77389429D01*
X83938255Y-77389429D01*
X83910505Y-77249920D01*
X83853629Y-77112610D01*
X83833532Y-77082533D01*
X83771060Y-76989035D01*
X83771054Y-76989028D01*
X83665971Y-76883945D01*
X83665964Y-76883939D01*
X83542391Y-76801371D01*
X83405080Y-76744495D01*
X83405072Y-76744493D01*
X83259316Y-76715500D01*
X83259312Y-76715500D01*
X83110688Y-76715500D01*
X83110683Y-76715500D01*
X82964927Y-76744493D01*
X82964919Y-76744495D01*
X82827608Y-76801371D01*
X82704035Y-76883939D01*
X82704028Y-76883945D01*
X82598945Y-76989028D01*
X82598939Y-76989035D01*
X82516371Y-77112608D01*
X82459495Y-77249919D01*
X82459493Y-77249927D01*
X82430500Y-77395683D01*
X78740000Y-77395683D01*
X78740000Y-70872160D01*
X78759685Y-70805121D01*
X78812489Y-70759366D01*
X78881647Y-70749422D01*
X78945203Y-70778447D01*
X78982661Y-70836165D01*
X79062086Y-71097997D01*
X79201207Y-71433864D01*
X79201209Y-71433869D01*
X79372570Y-71754462D01*
X79372581Y-71754480D01*
X79574551Y-72056750D01*
X79761678Y-72284765D01*
X79761679Y-72284766D01*
X81255747Y-70790697D01*
X81329588Y-70892330D01*
X81507670Y-71070412D01*
X81609301Y-71144251D01*
X80115232Y-72638319D01*
X80115233Y-72638320D01*
X80343249Y-72825448D01*
X80645519Y-73027418D01*
X80645537Y-73027429D01*
X80966130Y-73198790D01*
X80966135Y-73198792D01*
X81302002Y-73337913D01*
X81649898Y-73443446D01*
X81649909Y-73443449D01*
X82006443Y-73514367D01*
X82368234Y-73550000D01*
X82731766Y-73550000D01*
X83093556Y-73514367D01*
X83450090Y-73443449D01*
X83450101Y-73443446D01*
X83797997Y-73337913D01*
X84133864Y-73198792D01*
X84133869Y-73198790D01*
X84454462Y-73027429D01*
X84454480Y-73027418D01*
X84756736Y-72825457D01*
X84756750Y-72825447D01*
X84984765Y-72638320D01*
X84984766Y-72638319D01*
X83490698Y-71144251D01*
X83592330Y-71070412D01*
X83770412Y-70892330D01*
X83844251Y-70790698D01*
X85338319Y-72284766D01*
X85338320Y-72284765D01*
X85525447Y-72056750D01*
X85525457Y-72056736D01*
X85727418Y-71754480D01*
X85727429Y-71754462D01*
X85898790Y-71433869D01*
X85898792Y-71433864D01*
X86037913Y-71097997D01*
X86143446Y-70750101D01*
X86143449Y-70750090D01*
X86214367Y-70393556D01*
X86250000Y-70031765D01*
X86250000Y-69668234D01*
X86214367Y-69306443D01*
X86143449Y-68949909D01*
X86143446Y-68949898D01*
X86037913Y-68602002D01*
X85898792Y-68266135D01*
X85898790Y-68266130D01*
X85727429Y-67945537D01*
X85727418Y-67945519D01*
X85525448Y-67643249D01*
X85338320Y-67415233D01*
X85338319Y-67415232D01*
X83844251Y-68909300D01*
X83770412Y-68807670D01*
X83592330Y-68629588D01*
X83490698Y-68555748D01*
X84984766Y-67061679D01*
X84984765Y-67061678D01*
X84756750Y-66874551D01*
X84454480Y-66672581D01*
X84454462Y-66672570D01*
X84133869Y-66501209D01*
X84133864Y-66501207D01*
X83797997Y-66362086D01*
X83536166Y-66282661D01*
X83477727Y-66244363D01*
X83449271Y-66180551D01*
X83459831Y-66111484D01*
X83506055Y-66059090D01*
X83572161Y-66040000D01*
X125977839Y-66040000D01*
X126044878Y-66059685D01*
G37*
%TD.AperFunction*%
%TA.AperFunction,Conductor*%
G36*
X130738516Y-146959830D02*
G01*
X130790910Y-147006054D01*
X130810000Y-147072160D01*
X130810000Y-148337339D01*
X130805126Y-148354203D01*
X130805273Y-148371251D01*
X130790887Y-148403480D01*
X130671859Y-148592236D01*
X130665666Y-148601165D01*
X130438124Y-148900310D01*
X130431172Y-148908663D01*
X130178313Y-149186736D01*
X130170656Y-149194449D01*
X129894409Y-149449325D01*
X129886107Y-149456336D01*
X129588628Y-149686030D01*
X129579744Y-149692289D01*
X129537357Y-149719449D01*
X129348583Y-149840406D01*
X129281686Y-149860000D01*
X128022161Y-149860000D01*
X127955122Y-149840315D01*
X127909367Y-149787511D01*
X127899423Y-149718353D01*
X127928448Y-149654797D01*
X127986166Y-149617339D01*
X128247997Y-149537913D01*
X128583864Y-149398792D01*
X128583869Y-149398790D01*
X128904462Y-149227429D01*
X128904480Y-149227418D01*
X129206736Y-149025457D01*
X129206750Y-149025447D01*
X129434765Y-148838320D01*
X129434766Y-148838319D01*
X127940698Y-147344251D01*
X128042330Y-147270412D01*
X128220412Y-147092330D01*
X128294251Y-146990698D01*
X129788319Y-148484766D01*
X129788320Y-148484765D01*
X129975447Y-148256750D01*
X129975457Y-148256736D01*
X130177418Y-147954480D01*
X130177429Y-147954462D01*
X130348790Y-147633869D01*
X130348792Y-147633864D01*
X130487913Y-147297997D01*
X130567339Y-147036165D01*
X130605637Y-146977726D01*
X130669449Y-146949270D01*
X130738516Y-146959830D01*
G37*
%TD.AperFunction*%
%TA.AperFunction,Conductor*%
G36*
X81594878Y-66059685D02*
G01*
X81640633Y-66112489D01*
X81650577Y-66181647D01*
X81621552Y-66245203D01*
X81563834Y-66282661D01*
X81302002Y-66362086D01*
X80966135Y-66501207D01*
X80966130Y-66501209D01*
X80645537Y-66672570D01*
X80645519Y-66672581D01*
X80343258Y-66874545D01*
X80343254Y-66874548D01*
X80115233Y-67061679D01*
X80115233Y-67061680D01*
X81609301Y-68555748D01*
X81507670Y-68629588D01*
X81329588Y-68807670D01*
X81255748Y-68909301D01*
X79761680Y-67415233D01*
X79761679Y-67415233D01*
X79574548Y-67643254D01*
X79574545Y-67643258D01*
X79372581Y-67945519D01*
X79372570Y-67945537D01*
X79201209Y-68266130D01*
X79201207Y-68266135D01*
X79062086Y-68602002D01*
X78982661Y-68863834D01*
X78944363Y-68922273D01*
X78880551Y-68950729D01*
X78811484Y-68940169D01*
X78759090Y-68893945D01*
X78740000Y-68827839D01*
X78740000Y-67602594D01*
X78759419Y-67535972D01*
X78906373Y-67305300D01*
X78912564Y-67296457D01*
X79142028Y-66997412D01*
X79148966Y-66989144D01*
X79403616Y-66711244D01*
X79411244Y-66703616D01*
X79689144Y-66448966D01*
X79697412Y-66442028D01*
X79996468Y-66212556D01*
X80005273Y-66206390D01*
X80235973Y-66059418D01*
X80302596Y-66040000D01*
X81527839Y-66040000D01*
X81594878Y-66059685D01*
G37*
%TD.AperFunction*%
%TA.AperFunction,Conductor*%
G36*
X129348694Y-66059593D02*
G01*
X129579711Y-66207617D01*
X129588595Y-66213875D01*
X129886099Y-66443587D01*
X129894401Y-66450600D01*
X130170627Y-66705457D01*
X130178283Y-66713168D01*
X130431142Y-66991238D01*
X130438094Y-66999591D01*
X130665649Y-67298752D01*
X130671843Y-67307682D01*
X130739663Y-67415232D01*
X130790887Y-67496462D01*
X130810000Y-67562603D01*
X130810000Y-68827839D01*
X130790315Y-68894878D01*
X130737511Y-68940633D01*
X130668353Y-68950577D01*
X130604797Y-68921552D01*
X130567339Y-68863834D01*
X130487913Y-68602002D01*
X130348792Y-68266135D01*
X130348790Y-68266130D01*
X130177429Y-67945537D01*
X130177418Y-67945519D01*
X129975448Y-67643249D01*
X129788320Y-67415233D01*
X129788319Y-67415232D01*
X128294251Y-68909300D01*
X128220412Y-68807670D01*
X128042330Y-68629588D01*
X127940698Y-68555748D01*
X129434766Y-67061679D01*
X129434765Y-67061678D01*
X129206750Y-66874551D01*
X128904480Y-66672581D01*
X128904462Y-66672570D01*
X128583869Y-66501209D01*
X128583864Y-66501207D01*
X128247997Y-66362086D01*
X127986166Y-66282661D01*
X127927727Y-66244363D01*
X127899271Y-66180551D01*
X127909831Y-66111484D01*
X127956055Y-66059090D01*
X128022161Y-66040000D01*
X129281799Y-66040000D01*
X129348694Y-66059593D01*
G37*
%TD.AperFunction*%
%TD*%
M02*
