%TF.GenerationSoftware,KiCad,Pcbnew,9.0.2+1*%
%TF.CreationDate,2025-07-26T23:59:44+01:00*%
%TF.ProjectId,ICE40HXDevBoardHDMI,49434534-3048-4584-9465-76426f617264,rev?*%
%TF.SameCoordinates,Original*%
%TF.FileFunction,Copper,L4,Bot*%
%TF.FilePolarity,Positive*%
%FSLAX46Y46*%
G04 Gerber Fmt 4.6, Leading zero omitted, Abs format (unit mm)*
G04 Created by KiCad (PCBNEW 9.0.2+1) date 2025-07-26 23:59:44*
%MOMM*%
%LPD*%
G01*
G04 APERTURE LIST*
G04 Aperture macros list*
%AMRoundRect*
0 Rectangle with rounded corners*
0 $1 Rounding radius*
0 $2 $3 $4 $5 $6 $7 $8 $9 X,Y pos of 4 corners*
0 Add a 4 corners polygon primitive as box body*
4,1,4,$2,$3,$4,$5,$6,$7,$8,$9,$2,$3,0*
0 Add four circle primitives for the rounded corners*
1,1,$1+$1,$2,$3*
1,1,$1+$1,$4,$5*
1,1,$1+$1,$6,$7*
1,1,$1+$1,$8,$9*
0 Add four rect primitives between the rounded corners*
20,1,$1+$1,$2,$3,$4,$5,0*
20,1,$1+$1,$4,$5,$6,$7,0*
20,1,$1+$1,$6,$7,$8,$9,0*
20,1,$1+$1,$8,$9,$2,$3,0*%
G04 Aperture macros list end*
%TA.AperFunction,ComponentPad*%
%ADD10R,1.900000X1.900000*%
%TD*%
%TA.AperFunction,ComponentPad*%
%ADD11C,1.900000*%
%TD*%
%TA.AperFunction,ComponentPad*%
%ADD12C,6.400000*%
%TD*%
%TA.AperFunction,ComponentPad*%
%ADD13R,1.700000X1.700000*%
%TD*%
%TA.AperFunction,ComponentPad*%
%ADD14O,1.700000X1.700000*%
%TD*%
%TA.AperFunction,ComponentPad*%
%ADD15O,3.300000X1.500000*%
%TD*%
%TA.AperFunction,ComponentPad*%
%ADD16O,2.300000X1.500000*%
%TD*%
%TA.AperFunction,HeatsinkPad*%
%ADD17C,0.500000*%
%TD*%
%TA.AperFunction,HeatsinkPad*%
%ADD18R,4.100000X4.100000*%
%TD*%
%TA.AperFunction,SMDPad,CuDef*%
%ADD19RoundRect,0.225000X-0.225000X-0.250000X0.225000X-0.250000X0.225000X0.250000X-0.225000X0.250000X0*%
%TD*%
%TA.AperFunction,SMDPad,CuDef*%
%ADD20RoundRect,0.250000X-0.450000X-0.425000X0.450000X-0.425000X0.450000X0.425000X-0.450000X0.425000X0*%
%TD*%
%TA.AperFunction,SMDPad,CuDef*%
%ADD21RoundRect,0.250000X0.250000X0.475000X-0.250000X0.475000X-0.250000X-0.475000X0.250000X-0.475000X0*%
%TD*%
%TA.AperFunction,SMDPad,CuDef*%
%ADD22RoundRect,0.218750X0.218750X0.381250X-0.218750X0.381250X-0.218750X-0.381250X0.218750X-0.381250X0*%
%TD*%
%TA.AperFunction,SMDPad,CuDef*%
%ADD23RoundRect,0.218750X-0.218750X-0.381250X0.218750X-0.381250X0.218750X0.381250X-0.218750X0.381250X0*%
%TD*%
%TA.AperFunction,SMDPad,CuDef*%
%ADD24RoundRect,0.250000X-0.425000X0.450000X-0.425000X-0.450000X0.425000X-0.450000X0.425000X0.450000X0*%
%TD*%
%TA.AperFunction,SMDPad,CuDef*%
%ADD25RoundRect,0.250000X-0.262500X-0.450000X0.262500X-0.450000X0.262500X0.450000X-0.262500X0.450000X0*%
%TD*%
%TA.AperFunction,SMDPad,CuDef*%
%ADD26RoundRect,0.250000X0.425000X-0.450000X0.425000X0.450000X-0.425000X0.450000X-0.425000X-0.450000X0*%
%TD*%
%TA.AperFunction,SMDPad,CuDef*%
%ADD27RoundRect,0.225000X0.250000X-0.225000X0.250000X0.225000X-0.250000X0.225000X-0.250000X-0.225000X0*%
%TD*%
%TA.AperFunction,SMDPad,CuDef*%
%ADD28RoundRect,0.225000X-0.250000X0.225000X-0.250000X-0.225000X0.250000X-0.225000X0.250000X0.225000X0*%
%TD*%
%TA.AperFunction,SMDPad,CuDef*%
%ADD29RoundRect,0.250000X-0.450000X0.262500X-0.450000X-0.262500X0.450000X-0.262500X0.450000X0.262500X0*%
%TD*%
%TA.AperFunction,ViaPad*%
%ADD30C,0.635000*%
%TD*%
%TA.AperFunction,ViaPad*%
%ADD31C,0.508000*%
%TD*%
%TA.AperFunction,ViaPad*%
%ADD32C,0.762000*%
%TD*%
%TA.AperFunction,Conductor*%
%ADD33C,0.317500*%
%TD*%
%TA.AperFunction,Conductor*%
%ADD34C,0.190500*%
%TD*%
%TA.AperFunction,Conductor*%
%ADD35C,1.651000*%
%TD*%
G04 APERTURE END LIST*
D10*
%TO.P,J2,R*%
%TO.N,Net-(C26-Pad1)*%
X119865000Y-114899000D03*
D11*
%TO.P,J2,S*%
%TO.N,GNDA*%
X119865000Y-110399000D03*
%TO.P,J2,T*%
%TO.N,Net-(C25-Pad1)*%
X127365000Y-115549000D03*
X127365000Y-109749000D03*
%TD*%
D12*
%TO.P,H4,1,1*%
%TO.N,GND*%
X127000000Y-146050000D03*
%TD*%
%TO.P,H3,1,1*%
%TO.N,GND*%
X82550000Y-146050000D03*
%TD*%
D13*
%TO.P,J1,1,Pin_1*%
%TO.N,+5V*%
X88265000Y-83820000D03*
D14*
%TO.P,J1,2,Pin_2*%
%TO.N,GND*%
X85725000Y-83820000D03*
%TO.P,J1,3,Pin_3*%
%TO.N,unconnected-(J1-Pin_3-Pad3)*%
X88265000Y-86360000D03*
%TO.P,J1,4,Pin_4*%
%TO.N,unconnected-(J1-Pin_4-Pad4)*%
X85725000Y-86360000D03*
%TO.P,J1,5,Pin_5*%
%TO.N,/RED5*%
X88265000Y-88900000D03*
%TO.P,J1,6,Pin_6*%
%TO.N,/RED4*%
X85725000Y-88900000D03*
%TO.P,J1,7,Pin_7*%
%TO.N,/RED3*%
X88265000Y-91440000D03*
%TO.P,J1,8,Pin_8*%
%TO.N,/RED2*%
X85725000Y-91440000D03*
%TO.P,J1,9,Pin_9*%
%TO.N,/RED1*%
X88265000Y-93980000D03*
%TO.P,J1,10,Pin_10*%
%TO.N,/RED0*%
X85725000Y-93980000D03*
%TO.P,J1,11,Pin_11*%
%TO.N,/GREEN0*%
X88265000Y-96520000D03*
%TO.P,J1,12,Pin_12*%
%TO.N,/GREEN1*%
X85725000Y-96520000D03*
%TO.P,J1,13,Pin_13*%
%TO.N,/GREEN2*%
X88265000Y-99060000D03*
%TO.P,J1,14,Pin_14*%
%TO.N,/GREEN3*%
X85725000Y-99060000D03*
%TO.P,J1,15,Pin_15*%
%TO.N,/GREEN4*%
X88265000Y-101600000D03*
%TO.P,J1,16,Pin_16*%
%TO.N,/GREEN5*%
X85725000Y-101600000D03*
%TO.P,J1,17,Pin_17*%
%TO.N,/BLUE5*%
X88265000Y-104140000D03*
%TO.P,J1,18,Pin_18*%
%TO.N,/BLUE4*%
X85725000Y-104140000D03*
%TO.P,J1,19,Pin_19*%
%TO.N,+3V3*%
X88265000Y-106680000D03*
%TO.P,J1,20,Pin_20*%
%TO.N,GND*%
X85725000Y-106680000D03*
%TO.P,J1,21,Pin_21*%
%TO.N,+3V3*%
X88265000Y-109220000D03*
%TO.P,J1,22,Pin_22*%
%TO.N,GND*%
X85725000Y-109220000D03*
%TO.P,J1,23,Pin_23*%
%TO.N,/HDMICLK*%
X88265000Y-111760000D03*
%TO.P,J1,24,Pin_24*%
%TO.N,/BLUE3*%
X85725000Y-111760000D03*
%TO.P,J1,25,Pin_25*%
%TO.N,/BLUE2*%
X88265000Y-114300000D03*
%TO.P,J1,26,Pin_26*%
%TO.N,/BLUE1*%
X85725000Y-114300000D03*
%TO.P,J1,27,Pin_27*%
%TO.N,/BLUE0*%
X88265000Y-116840000D03*
%TO.P,J1,28,Pin_28*%
%TO.N,/MSEN*%
X85725000Y-116840000D03*
%TO.P,J1,29,Pin_29*%
%TO.N,/HSYNC*%
X88265000Y-119380000D03*
%TO.P,J1,30,Pin_30*%
%TO.N,/DE*%
X85725000Y-119380000D03*
%TO.P,J1,31,Pin_31*%
%TO.N,/VSYNC*%
X88265000Y-121920000D03*
%TO.P,J1,32,Pin_32*%
%TO.N,unconnected-(J1-Pin_32-Pad32)*%
X85725000Y-121920000D03*
%TO.P,J1,33,Pin_33*%
%TO.N,/I2SBCK*%
X88265000Y-124460000D03*
%TO.P,J1,34,Pin_34*%
%TO.N,unconnected-(J1-Pin_34-Pad34)*%
X85725000Y-124460000D03*
%TO.P,J1,35,Pin_35*%
%TO.N,/I2SDIN*%
X88265000Y-127000000D03*
%TO.P,J1,36,Pin_36*%
%TO.N,/I2CSCL*%
X85725000Y-127000000D03*
%TO.P,J1,37,Pin_37*%
%TO.N,/I2SLRCK*%
X88265000Y-129540000D03*
%TO.P,J1,38,Pin_38*%
%TO.N,/I2CSDA*%
X85725000Y-129540000D03*
%TO.P,J1,39,Pin_39*%
%TO.N,+5V*%
X88265000Y-132080000D03*
%TO.P,J1,40,Pin_40*%
%TO.N,GND*%
X85725000Y-132080000D03*
%TD*%
D15*
%TO.P,J3,SH,SH*%
%TO.N,GND*%
X121485000Y-86084000D03*
X121485000Y-100584000D03*
D16*
X127445000Y-86084000D03*
X127445000Y-100584000D03*
%TD*%
D17*
%TO.P,U2,65,EP*%
%TO.N,GND*%
X100630000Y-94134000D03*
X101830000Y-94134000D03*
X103030000Y-94134000D03*
X104230000Y-94134000D03*
X100630000Y-92934000D03*
X101830000Y-92934000D03*
X103030000Y-92934000D03*
X104230000Y-92934000D03*
D18*
X102430000Y-92334000D03*
D17*
X100630000Y-91734000D03*
X101830000Y-91734000D03*
X103030000Y-91734000D03*
X104230000Y-91734000D03*
X100630000Y-90534000D03*
X101830000Y-90534000D03*
X103030000Y-90534000D03*
X104230000Y-90534000D03*
%TD*%
D12*
%TO.P,H2,1,1*%
%TO.N,GND*%
X127000000Y-69850000D03*
%TD*%
%TO.P,H1,1,1*%
%TO.N,GND*%
X82550000Y-69850000D03*
%TD*%
D19*
%TO.P,C19,1*%
%TO.N,/TVDD*%
X108445000Y-91059000D03*
%TO.P,C19,2*%
%TO.N,GND*%
X109995000Y-91059000D03*
%TD*%
D20*
%TO.P,C1,1*%
%TO.N,/I2S/DVDD*%
X119300000Y-121285000D03*
%TO.P,C1,2*%
%TO.N,GNDA*%
X122000000Y-121285000D03*
%TD*%
D21*
%TO.P,C27,1*%
%TO.N,Net-(U5-VNEG)*%
X116774000Y-125984000D03*
%TO.P,C27,2*%
%TO.N,GNDA*%
X114874000Y-125984000D03*
%TD*%
D22*
%TO.P,FB4,1*%
%TO.N,/PVDD*%
X106980500Y-101219000D03*
%TO.P,FB4,2*%
%TO.N,+3V3*%
X104855500Y-101219000D03*
%TD*%
D23*
%TO.P,FB5,1*%
%TO.N,/TVDD*%
X108157500Y-85344000D03*
%TO.P,FB5,2*%
%TO.N,+3V3*%
X110282500Y-85344000D03*
%TD*%
D24*
%TO.P,C14,1*%
%TO.N,/DVDD*%
X100203000Y-97456000D03*
%TO.P,C14,2*%
%TO.N,GND*%
X100203000Y-100156000D03*
%TD*%
D25*
%TO.P,R8,1*%
%TO.N,Net-(D1-K)*%
X84812500Y-77470000D03*
%TO.P,R8,2*%
%TO.N,GND*%
X86637500Y-77470000D03*
%TD*%
D19*
%TO.P,C12,1*%
%TO.N,/PVDD*%
X108445000Y-99314000D03*
%TO.P,C12,2*%
%TO.N,GND*%
X109995000Y-99314000D03*
%TD*%
D26*
%TO.P,C13,1*%
%TO.N,/DVDD*%
X103632000Y-86694000D03*
%TO.P,C13,2*%
%TO.N,GND*%
X103632000Y-83994000D03*
%TD*%
D24*
%TO.P,C4,1*%
%TO.N,/I2S/AVDD*%
X113625000Y-129380000D03*
%TO.P,C4,2*%
%TO.N,GNDA*%
X113625000Y-132080000D03*
%TD*%
D19*
%TO.P,C22,1*%
%TO.N,/TVDD*%
X108445000Y-87249000D03*
%TO.P,C22,2*%
%TO.N,GND*%
X109995000Y-87249000D03*
%TD*%
D27*
%TO.P,C16,1*%
%TO.N,/DVDD*%
X105537000Y-86119000D03*
%TO.P,C16,2*%
%TO.N,GND*%
X105537000Y-84569000D03*
%TD*%
D20*
%TO.P,C11,1*%
%TO.N,/PVDD*%
X107870000Y-95504000D03*
%TO.P,C11,2*%
%TO.N,GND*%
X110570000Y-95504000D03*
%TD*%
D26*
%TO.P,C23,1*%
%TO.N,/I2S/CPVDD*%
X113030000Y-123905000D03*
%TO.P,C23,2*%
%TO.N,GNDA*%
X113030000Y-121205000D03*
%TD*%
D22*
%TO.P,FB2,1*%
%TO.N,/DVDD*%
X97074500Y-97917000D03*
%TO.P,FB2,2*%
%TO.N,+3V3*%
X94949500Y-97917000D03*
%TD*%
D28*
%TO.P,C15,1*%
%TO.N,/DVDD*%
X102235000Y-98539000D03*
%TO.P,C15,2*%
%TO.N,GND*%
X102235000Y-100089000D03*
%TD*%
D26*
%TO.P,C30,1*%
%TO.N,/I2S/LDOO*%
X124460000Y-123905000D03*
%TO.P,C30,2*%
%TO.N,GNDA*%
X124460000Y-121205000D03*
%TD*%
D19*
%TO.P,C18,1*%
%TO.N,/TVDD*%
X108445000Y-89154000D03*
%TO.P,C18,2*%
%TO.N,GND*%
X109995000Y-89154000D03*
%TD*%
%TO.P,C20,1*%
%TO.N,/PVDD*%
X108445000Y-97409000D03*
%TO.P,C20,2*%
%TO.N,GND*%
X109995000Y-97409000D03*
%TD*%
D29*
%TO.P,R7,1*%
%TO.N,/TVDD*%
X112522000Y-95099500D03*
%TO.P,R7,2*%
%TO.N,Net-(U2-TFADJ)*%
X112522000Y-96924500D03*
%TD*%
D20*
%TO.P,C17,1*%
%TO.N,/TVDD*%
X107870000Y-92964000D03*
%TO.P,C17,2*%
%TO.N,GND*%
X110570000Y-92964000D03*
%TD*%
D19*
%TO.P,C21,1*%
%TO.N,/PVDD*%
X108445000Y-101219000D03*
%TO.P,C21,2*%
%TO.N,GND*%
X109995000Y-101219000D03*
%TD*%
D30*
%TO.N,+3V3*%
X88265000Y-77470000D03*
X111125000Y-85344000D03*
X107645000Y-129032000D03*
X104013000Y-101600000D03*
X96139000Y-99695000D03*
X107645000Y-118567000D03*
X100226500Y-104775000D03*
X107645000Y-121920000D03*
X107645000Y-125730000D03*
%TO.N,GND*%
X117348000Y-134239000D03*
X111125000Y-88138000D03*
X123300000Y-93850000D03*
X110871000Y-100203000D03*
X103378000Y-100203000D03*
X123300000Y-90900000D03*
X118745000Y-135382000D03*
X112395000Y-88138000D03*
X112182000Y-90070000D03*
X101346000Y-84709000D03*
X106045000Y-83312000D03*
X85833000Y-77470000D03*
X110744000Y-96647000D03*
X123300000Y-89300000D03*
X110871000Y-102235000D03*
X118170000Y-96834000D03*
X111125000Y-86741000D03*
X100203000Y-101219000D03*
X123300000Y-92300000D03*
X101346000Y-83439000D03*
X112395000Y-86741000D03*
X105283000Y-83312000D03*
X112141000Y-93091000D03*
X120142000Y-134239000D03*
X96496500Y-104036500D03*
D31*
%TO.N,/HSYNC*%
X101854000Y-101060250D03*
%TO.N,/I2S/DVDD*%
X121607500Y-122613500D03*
%TO.N,/VSYNC*%
X102552503Y-101060250D03*
%TO.N,/I2S/AVDD*%
X112395000Y-127635000D03*
%TO.N,GNDA*%
X120015000Y-126044050D03*
X112435000Y-132080000D03*
X115951000Y-130937000D03*
X121666000Y-130937000D03*
X114300000Y-121285000D03*
X114808000Y-132080000D03*
X117475000Y-124740000D03*
X123190000Y-121285000D03*
X118745000Y-129159000D03*
%TO.N,/I2S/CPVDD*%
X114431000Y-123440000D03*
%TO.N,Net-(U5-VNEG)*%
X117638375Y-126020375D03*
%TO.N,/I2S/LDOO*%
X123190000Y-124460000D03*
%TO.N,Net-(D1-K)*%
X83185000Y-77470000D03*
D32*
%TO.N,+5V*%
X123063000Y-97409000D03*
D31*
%TO.N,/MSEN*%
X98933000Y-101600000D03*
%TO.N,/PVDD*%
X106934000Y-95480750D03*
%TO.N,Net-(U2-TFADJ)*%
X112150000Y-96100000D03*
%TO.N,/HPD*%
X102866935Y-99313999D03*
X106584750Y-99314000D03*
%TO.N,/I2CSDA*%
X106299000Y-103251000D03*
%TO.N,/DVDD*%
X104180000Y-96941000D03*
X98670870Y-97022070D03*
X106235500Y-85661500D03*
%TO.N,/TVDD*%
X106934000Y-90043000D03*
X106934000Y-93091000D03*
%TO.N,/I2CSCL*%
X106389070Y-102148918D03*
%TD*%
D33*
%TO.N,+3V3*%
X104267000Y-101092000D02*
X104728500Y-101092000D01*
X104013000Y-101346000D02*
X104267000Y-101092000D01*
X94949500Y-98505500D02*
X94949500Y-97917000D01*
X104728500Y-101092000D02*
X104855500Y-101219000D01*
X96139000Y-99695000D02*
X94949500Y-98505500D01*
X110282500Y-85344000D02*
X111125000Y-85344000D01*
X104013000Y-101600000D02*
X104013000Y-101346000D01*
%TO.N,GND*%
X100203000Y-100156000D02*
X100203000Y-101219000D01*
X86637500Y-77470000D02*
X85833000Y-77470000D01*
D34*
%TO.N,/HSYNC*%
X90043000Y-119380000D02*
X101949250Y-107473750D01*
X101949250Y-107473750D02*
X101949250Y-101155500D01*
X88265000Y-119380000D02*
X90043000Y-119380000D01*
X101949250Y-101155500D02*
X101854000Y-101060250D01*
%TO.N,/I2S/DVDD*%
X121607500Y-122613500D02*
X120628500Y-122613500D01*
X120628500Y-122613500D02*
X119300000Y-121285000D01*
%TO.N,/VSYNC*%
X102552503Y-101060250D02*
X102548060Y-101064693D01*
X90043000Y-121920000D02*
X88265000Y-121920000D01*
X102548060Y-101064693D02*
X102548060Y-109414940D01*
X102548060Y-109414940D02*
X90043000Y-121920000D01*
%TO.N,/I2S/AVDD*%
X112395000Y-127635000D02*
X113625000Y-128865000D01*
X113625000Y-128865000D02*
X113625000Y-129380000D01*
%TO.N,GNDA*%
X124460000Y-121205000D02*
X123270000Y-121205000D01*
X114808000Y-132080000D02*
X113625000Y-132080000D01*
X123270000Y-121205000D02*
X123190000Y-121285000D01*
X120305000Y-110399000D02*
X119865000Y-110399000D01*
X114220000Y-121205000D02*
X114300000Y-121285000D01*
X116118000Y-124740000D02*
X117475000Y-124740000D01*
X122000000Y-121285000D02*
X123190000Y-121285000D01*
X114874000Y-125984000D02*
X116118000Y-124740000D01*
X112435000Y-132080000D02*
X113625000Y-132080000D01*
X113030000Y-121205000D02*
X114220000Y-121205000D01*
%TO.N,/I2S/CPVDD*%
X114431000Y-123440000D02*
X113966000Y-123905000D01*
X113966000Y-123905000D02*
X113030000Y-123905000D01*
%TO.N,Net-(C26-Pad1)*%
X119865000Y-114912000D02*
X119865000Y-114899000D01*
%TO.N,Net-(U5-VNEG)*%
X116810375Y-126020375D02*
X116774000Y-125984000D01*
X117638375Y-126020375D02*
X116810375Y-126020375D01*
%TO.N,/I2S/LDOO*%
X124460000Y-123905000D02*
X123745000Y-123905000D01*
X123745000Y-123905000D02*
X123190000Y-124460000D01*
%TO.N,Net-(D1-K)*%
X84812500Y-77470000D02*
X83185000Y-77470000D01*
D35*
%TO.N,+5V*%
X88265000Y-83820000D02*
X91186000Y-80899000D01*
X86106000Y-135382000D02*
X83693000Y-135382000D01*
X83058000Y-80899000D02*
X86995000Y-80899000D01*
X88265000Y-82169000D02*
X88265000Y-83820000D01*
X83693000Y-135382000D02*
X81153000Y-132842000D01*
X124894000Y-84000000D02*
X124894000Y-96594000D01*
X81153000Y-82804000D02*
X83058000Y-80899000D01*
X81153000Y-132842000D02*
X81153000Y-82804000D01*
X91186000Y-80899000D02*
X121793000Y-80899000D01*
X88265000Y-132080000D02*
X88265000Y-133223000D01*
X121793000Y-80899000D02*
X124894000Y-84000000D01*
X124894000Y-96594000D02*
X124079000Y-97409000D01*
X86995000Y-80899000D02*
X88265000Y-82169000D01*
X124079000Y-97409000D02*
X123063000Y-97409000D01*
X88265000Y-133223000D02*
X86106000Y-135382000D01*
D34*
%TO.N,/MSEN*%
X99298000Y-101965000D02*
X99298000Y-108855000D01*
X90043000Y-118110000D02*
X86995000Y-118110000D01*
X99298000Y-108855000D02*
X90043000Y-118110000D01*
X86995000Y-118110000D02*
X85725000Y-116840000D01*
X98933000Y-101600000D02*
X99298000Y-101965000D01*
%TO.N,Net-(U2-TFADJ)*%
X112141000Y-96109000D02*
X112141000Y-96924500D01*
X112150000Y-96100000D02*
X112141000Y-96109000D01*
%TO.N,/HPD*%
X106584750Y-99314000D02*
X106584749Y-99313999D01*
X106584749Y-99313999D02*
X102866935Y-99313999D01*
%TO.N,/I2CSDA*%
X86995000Y-128270000D02*
X90043000Y-128270000D01*
X85725000Y-129540000D02*
X86995000Y-128270000D01*
X106299000Y-112014000D02*
X106299000Y-103251000D01*
X90043000Y-128270000D02*
X106299000Y-112014000D01*
%TO.N,/TVDD*%
X108270000Y-93411000D02*
X108270000Y-92964000D01*
X112014000Y-95226500D02*
X112141000Y-95099500D01*
X109093000Y-94234000D02*
X108270000Y-93411000D01*
X111275500Y-94234000D02*
X109093000Y-94234000D01*
X112141000Y-95099500D02*
X111275500Y-94234000D01*
%TO.N,/I2CSCL*%
X89979500Y-125666500D02*
X105410000Y-110236000D01*
X85725000Y-127000000D02*
X87058500Y-125666500D01*
X105410000Y-110236000D02*
X105410000Y-103127988D01*
X87058500Y-125666500D02*
X89979500Y-125666500D01*
X105410000Y-103127988D02*
X106389070Y-102148918D01*
%TD*%
%TA.AperFunction,Conductor*%
%TO.N,GNDA*%
G36*
X125673039Y-108604685D02*
G01*
X125718794Y-108657489D01*
X125730000Y-108709000D01*
X125730000Y-133226000D01*
X125710315Y-133293039D01*
X125657511Y-133338794D01*
X125606000Y-133350000D01*
X111757000Y-133350000D01*
X111689961Y-133330315D01*
X111644206Y-133277511D01*
X111633000Y-133226000D01*
X111633000Y-127576415D01*
X111950000Y-127576415D01*
X111950000Y-127693585D01*
X111980326Y-127806764D01*
X112038911Y-127908236D01*
X112121764Y-127991089D01*
X112223236Y-128049674D01*
X112336415Y-128080000D01*
X112383820Y-128080000D01*
X112450859Y-128099685D01*
X112471501Y-128116319D01*
X112845359Y-128490177D01*
X112878844Y-128551500D01*
X112873860Y-128621192D01*
X112857448Y-128651491D01*
X112805703Y-128721603D01*
X112805702Y-128721605D01*
X112805701Y-128721607D01*
X112761794Y-128847087D01*
X112761793Y-128847090D01*
X112759000Y-128876877D01*
X112759000Y-129883122D01*
X112761793Y-129912909D01*
X112761793Y-129912911D01*
X112761794Y-129912913D01*
X112805701Y-130038393D01*
X112805702Y-130038394D01*
X112884643Y-130145356D01*
X112947198Y-130191523D01*
X112991607Y-130224299D01*
X113117087Y-130268206D01*
X113129856Y-130269403D01*
X113146878Y-130271000D01*
X113146882Y-130271000D01*
X114103122Y-130271000D01*
X114118015Y-130269603D01*
X114132913Y-130268206D01*
X114258393Y-130224299D01*
X114365356Y-130145356D01*
X114444299Y-130038393D01*
X114488206Y-129912913D01*
X114491000Y-129883118D01*
X114491000Y-128876882D01*
X114488206Y-128847087D01*
X114444299Y-128721607D01*
X114370189Y-128621192D01*
X114365356Y-128614643D01*
X114258394Y-128535702D01*
X114258393Y-128535701D01*
X114132913Y-128491794D01*
X114132911Y-128491793D01*
X114132909Y-128491793D01*
X114103122Y-128489000D01*
X114103118Y-128489000D01*
X113705181Y-128489000D01*
X113638142Y-128469315D01*
X113617500Y-128452681D01*
X112876319Y-127711500D01*
X112842834Y-127650177D01*
X112840000Y-127623819D01*
X112840000Y-127576417D01*
X112840000Y-127576415D01*
X112809674Y-127463236D01*
X112751089Y-127361764D01*
X112668236Y-127278911D01*
X112566764Y-127220326D01*
X112453585Y-127190000D01*
X112336415Y-127190000D01*
X112223236Y-127220326D01*
X112223233Y-127220327D01*
X112121767Y-127278909D01*
X112121761Y-127278913D01*
X112038913Y-127361761D01*
X112038909Y-127361767D01*
X111980327Y-127463233D01*
X111980326Y-127463236D01*
X111950000Y-127576415D01*
X111633000Y-127576415D01*
X111633000Y-125455877D01*
X116083000Y-125455877D01*
X116083000Y-126512122D01*
X116085793Y-126541909D01*
X116085793Y-126541911D01*
X116085794Y-126541913D01*
X116129701Y-126667393D01*
X116129702Y-126667394D01*
X116208643Y-126774356D01*
X116271198Y-126820523D01*
X116315607Y-126853299D01*
X116441087Y-126897206D01*
X116453856Y-126898403D01*
X116470878Y-126900000D01*
X116470882Y-126900000D01*
X117077122Y-126900000D01*
X117092015Y-126898603D01*
X117106913Y-126897206D01*
X117232393Y-126853299D01*
X117339356Y-126774356D01*
X117418299Y-126667393D01*
X117436745Y-126614675D01*
X117459930Y-126548420D01*
X117500651Y-126491644D01*
X117565604Y-126465897D01*
X117576971Y-126465375D01*
X117696958Y-126465375D01*
X117696960Y-126465375D01*
X117810139Y-126435049D01*
X117911611Y-126376464D01*
X117994464Y-126293611D01*
X118053049Y-126192139D01*
X118083375Y-126078960D01*
X118083375Y-125961790D01*
X118053049Y-125848611D01*
X117994464Y-125747139D01*
X117911611Y-125664286D01*
X117810139Y-125605701D01*
X117696960Y-125575375D01*
X117588925Y-125575375D01*
X117521886Y-125555690D01*
X117476131Y-125502886D01*
X117465442Y-125458751D01*
X117465271Y-125458768D01*
X117465160Y-125457586D01*
X117465061Y-125457177D01*
X117465000Y-125455881D01*
X117462206Y-125426090D01*
X117462206Y-125426087D01*
X117418299Y-125300607D01*
X117385523Y-125256198D01*
X117339356Y-125193643D01*
X117232394Y-125114702D01*
X117232393Y-125114701D01*
X117106913Y-125070794D01*
X117106911Y-125070793D01*
X117106909Y-125070793D01*
X117077122Y-125068000D01*
X117077118Y-125068000D01*
X116470882Y-125068000D01*
X116470878Y-125068000D01*
X116441090Y-125070793D01*
X116441087Y-125070793D01*
X116441087Y-125070794D01*
X116315607Y-125114701D01*
X116315606Y-125114701D01*
X116315605Y-125114702D01*
X116208643Y-125193643D01*
X116129702Y-125300605D01*
X116085793Y-125426090D01*
X116083000Y-125455877D01*
X111633000Y-125455877D01*
X111633000Y-123401877D01*
X112164000Y-123401877D01*
X112164000Y-124408122D01*
X112166793Y-124437909D01*
X112166793Y-124437911D01*
X112166794Y-124437913D01*
X112210701Y-124563393D01*
X112210702Y-124563394D01*
X112289643Y-124670356D01*
X112352198Y-124716523D01*
X112396607Y-124749299D01*
X112522087Y-124793206D01*
X112534856Y-124794403D01*
X112551878Y-124796000D01*
X112551882Y-124796000D01*
X113508122Y-124796000D01*
X113523015Y-124794603D01*
X113537913Y-124793206D01*
X113663393Y-124749299D01*
X113770356Y-124670356D01*
X113849299Y-124563393D01*
X113893206Y-124437913D01*
X113896000Y-124408118D01*
X113896000Y-124401415D01*
X122745000Y-124401415D01*
X122745000Y-124518585D01*
X122775326Y-124631764D01*
X122833911Y-124733236D01*
X122916764Y-124816089D01*
X123018236Y-124874674D01*
X123131415Y-124905000D01*
X123131417Y-124905000D01*
X123248583Y-124905000D01*
X123248585Y-124905000D01*
X123361764Y-124874674D01*
X123463236Y-124816089D01*
X123546089Y-124733236D01*
X123554024Y-124719492D01*
X123604586Y-124671279D01*
X123673192Y-124658053D01*
X123735044Y-124681722D01*
X123826607Y-124749299D01*
X123952087Y-124793206D01*
X123964856Y-124794403D01*
X123981878Y-124796000D01*
X123981882Y-124796000D01*
X124938122Y-124796000D01*
X124953015Y-124794603D01*
X124967913Y-124793206D01*
X125093393Y-124749299D01*
X125200356Y-124670356D01*
X125279299Y-124563393D01*
X125323206Y-124437913D01*
X125326000Y-124408118D01*
X125326000Y-123401882D01*
X125323206Y-123372087D01*
X125279299Y-123246607D01*
X125220372Y-123166764D01*
X125200356Y-123139643D01*
X125093394Y-123060702D01*
X125093393Y-123060701D01*
X124967913Y-123016794D01*
X124967911Y-123016793D01*
X124967909Y-123016793D01*
X124938122Y-123014000D01*
X124938118Y-123014000D01*
X123981882Y-123014000D01*
X123981878Y-123014000D01*
X123952090Y-123016793D01*
X123952087Y-123016793D01*
X123952087Y-123016794D01*
X123826607Y-123060701D01*
X123826606Y-123060701D01*
X123826605Y-123060702D01*
X123719643Y-123139643D01*
X123640702Y-123246605D01*
X123596793Y-123372090D01*
X123594000Y-123401877D01*
X123594000Y-123599818D01*
X123574315Y-123666857D01*
X123557681Y-123687499D01*
X123266499Y-123978682D01*
X123205179Y-124012166D01*
X123178820Y-124015000D01*
X123131415Y-124015000D01*
X123018236Y-124045326D01*
X123018233Y-124045327D01*
X122916767Y-124103909D01*
X122916761Y-124103913D01*
X122833913Y-124186761D01*
X122833909Y-124186767D01*
X122775327Y-124288233D01*
X122775326Y-124288236D01*
X122745000Y-124401415D01*
X113896000Y-124401415D01*
X113896000Y-124314172D01*
X113915685Y-124247133D01*
X113968489Y-124201378D01*
X113995878Y-124193512D01*
X113995836Y-124193353D01*
X114003684Y-124191250D01*
X114003685Y-124191250D01*
X114003686Y-124191250D01*
X114076488Y-124171742D01*
X114141762Y-124134057D01*
X114195057Y-124080762D01*
X114195057Y-124080760D01*
X114205257Y-124070561D01*
X114205260Y-124070556D01*
X114354500Y-123921317D01*
X114415823Y-123887834D01*
X114442180Y-123885000D01*
X114489583Y-123885000D01*
X114489585Y-123885000D01*
X114602764Y-123854674D01*
X114704236Y-123796089D01*
X114787089Y-123713236D01*
X114845674Y-123611764D01*
X114876000Y-123498585D01*
X114876000Y-123381415D01*
X114845674Y-123268236D01*
X114787089Y-123166764D01*
X114704236Y-123083911D01*
X114607695Y-123028173D01*
X114602766Y-123025327D01*
X114602765Y-123025326D01*
X114602764Y-123025326D01*
X114489585Y-122995000D01*
X114372415Y-122995000D01*
X114259236Y-123025326D01*
X114259233Y-123025327D01*
X114157767Y-123083909D01*
X114157761Y-123083913D01*
X114074913Y-123166761D01*
X114074909Y-123166767D01*
X114044713Y-123219066D01*
X113994145Y-123267281D01*
X113925538Y-123280502D01*
X113860673Y-123254533D01*
X113837559Y-123230700D01*
X113790372Y-123166764D01*
X113770356Y-123139643D01*
X113663394Y-123060702D01*
X113663393Y-123060701D01*
X113537913Y-123016794D01*
X113537911Y-123016793D01*
X113537909Y-123016793D01*
X113508122Y-123014000D01*
X113508118Y-123014000D01*
X112551882Y-123014000D01*
X112551878Y-123014000D01*
X112522090Y-123016793D01*
X112522087Y-123016793D01*
X112522087Y-123016794D01*
X112396607Y-123060701D01*
X112396606Y-123060701D01*
X112396605Y-123060702D01*
X112289643Y-123139643D01*
X112210702Y-123246605D01*
X112166793Y-123372090D01*
X112164000Y-123401877D01*
X111633000Y-123401877D01*
X111633000Y-120806877D01*
X118409000Y-120806877D01*
X118409000Y-121763122D01*
X118411793Y-121792909D01*
X118411793Y-121792911D01*
X118411794Y-121792913D01*
X118455701Y-121918393D01*
X118455702Y-121918394D01*
X118534643Y-122025356D01*
X118597198Y-122071523D01*
X118641607Y-122104299D01*
X118767087Y-122148206D01*
X118779856Y-122149403D01*
X118796878Y-122151000D01*
X118796882Y-122151000D01*
X119709820Y-122151000D01*
X119776859Y-122170685D01*
X119797501Y-122187319D01*
X120452734Y-122842554D01*
X120452735Y-122842555D01*
X120452737Y-122842556D01*
X120452739Y-122842558D01*
X120484487Y-122860887D01*
X120518012Y-122880242D01*
X120590814Y-122899750D01*
X120590815Y-122899750D01*
X120666185Y-122899750D01*
X121213063Y-122899750D01*
X121280102Y-122919435D01*
X121300744Y-122936069D01*
X121334264Y-122969589D01*
X121435736Y-123028174D01*
X121548915Y-123058500D01*
X121548917Y-123058500D01*
X121666083Y-123058500D01*
X121666085Y-123058500D01*
X121779264Y-123028174D01*
X121880736Y-122969589D01*
X121963589Y-122886736D01*
X122022174Y-122785264D01*
X122052500Y-122672085D01*
X122052500Y-122554915D01*
X122022174Y-122441736D01*
X121963589Y-122340264D01*
X121880736Y-122257411D01*
X121779264Y-122198826D01*
X121666085Y-122168500D01*
X121548915Y-122168500D01*
X121435736Y-122198826D01*
X121435733Y-122198827D01*
X121334267Y-122257409D01*
X121334261Y-122257413D01*
X121300744Y-122290931D01*
X121239421Y-122324416D01*
X121213063Y-122327250D01*
X120798431Y-122327250D01*
X120731392Y-122307565D01*
X120710750Y-122290931D01*
X120227319Y-121807500D01*
X120193834Y-121746177D01*
X120191000Y-121719819D01*
X120191000Y-120806877D01*
X120188206Y-120777090D01*
X120188206Y-120777087D01*
X120144299Y-120651607D01*
X120111523Y-120607198D01*
X120065356Y-120544643D01*
X119958394Y-120465702D01*
X119958393Y-120465701D01*
X119832913Y-120421794D01*
X119832911Y-120421793D01*
X119832909Y-120421793D01*
X119803122Y-120419000D01*
X119803118Y-120419000D01*
X118796882Y-120419000D01*
X118796878Y-120419000D01*
X118767090Y-120421793D01*
X118767087Y-120421793D01*
X118767087Y-120421794D01*
X118641607Y-120465701D01*
X118641606Y-120465701D01*
X118641605Y-120465702D01*
X118534643Y-120544643D01*
X118455702Y-120651605D01*
X118411793Y-120777090D01*
X118409000Y-120806877D01*
X111633000Y-120806877D01*
X111633000Y-113930183D01*
X118724000Y-113930183D01*
X118724000Y-115867816D01*
X118735080Y-115923523D01*
X118735081Y-115923524D01*
X118777296Y-115986703D01*
X118840475Y-116028918D01*
X118840476Y-116028919D01*
X118896183Y-116039999D01*
X118896186Y-116040000D01*
X118896188Y-116040000D01*
X120833814Y-116040000D01*
X120833815Y-116039999D01*
X120847930Y-116037191D01*
X120889523Y-116028919D01*
X120889523Y-116028918D01*
X120889525Y-116028918D01*
X120952703Y-115986703D01*
X120994918Y-115923525D01*
X120994918Y-115923523D01*
X120994919Y-115923523D01*
X121005999Y-115867816D01*
X121006000Y-115867814D01*
X121006000Y-115222920D01*
X123114499Y-115222920D01*
X123143340Y-115367907D01*
X123143343Y-115367917D01*
X123199912Y-115504488D01*
X123199919Y-115504501D01*
X123282048Y-115627415D01*
X123282051Y-115627419D01*
X123386580Y-115731948D01*
X123386584Y-115731951D01*
X123509498Y-115814080D01*
X123509511Y-115814087D01*
X123639216Y-115867812D01*
X123646087Y-115870658D01*
X123646091Y-115870658D01*
X123646092Y-115870659D01*
X123791079Y-115899500D01*
X123791082Y-115899500D01*
X123938920Y-115899500D01*
X124036462Y-115880096D01*
X124083913Y-115870658D01*
X124220495Y-115814084D01*
X124343416Y-115731951D01*
X124447951Y-115627416D01*
X124530084Y-115504495D01*
X124586658Y-115367913D01*
X124615500Y-115222918D01*
X124615500Y-115075082D01*
X124615500Y-115075079D01*
X124586659Y-114930092D01*
X124586658Y-114930091D01*
X124586658Y-114930087D01*
X124586656Y-114930082D01*
X124530087Y-114793511D01*
X124530080Y-114793498D01*
X124447951Y-114670584D01*
X124447948Y-114670580D01*
X124343419Y-114566051D01*
X124343415Y-114566048D01*
X124220501Y-114483919D01*
X124220488Y-114483912D01*
X124083917Y-114427343D01*
X124083907Y-114427340D01*
X123938920Y-114398500D01*
X123938918Y-114398500D01*
X123791082Y-114398500D01*
X123791080Y-114398500D01*
X123646092Y-114427340D01*
X123646082Y-114427343D01*
X123509511Y-114483912D01*
X123509498Y-114483919D01*
X123386584Y-114566048D01*
X123386580Y-114566051D01*
X123282051Y-114670580D01*
X123282048Y-114670584D01*
X123199919Y-114793498D01*
X123199912Y-114793511D01*
X123143343Y-114930082D01*
X123143340Y-114930092D01*
X123114500Y-115075079D01*
X123114500Y-115075082D01*
X123114500Y-115222918D01*
X123114500Y-115222920D01*
X123114499Y-115222920D01*
X121006000Y-115222920D01*
X121006000Y-113930185D01*
X121005999Y-113930183D01*
X120994919Y-113874476D01*
X120994918Y-113874475D01*
X120952703Y-113811296D01*
X120889524Y-113769081D01*
X120889523Y-113769080D01*
X120833816Y-113758000D01*
X120833812Y-113758000D01*
X118896188Y-113758000D01*
X118896183Y-113758000D01*
X118840476Y-113769080D01*
X118840475Y-113769081D01*
X118777296Y-113811296D01*
X118735081Y-113874475D01*
X118735080Y-113874476D01*
X118724000Y-113930183D01*
X111633000Y-113930183D01*
X111633000Y-110222920D01*
X123114499Y-110222920D01*
X123143340Y-110367907D01*
X123143343Y-110367917D01*
X123199912Y-110504488D01*
X123199919Y-110504501D01*
X123282048Y-110627415D01*
X123282051Y-110627419D01*
X123386580Y-110731948D01*
X123386584Y-110731951D01*
X123509498Y-110814080D01*
X123509511Y-110814087D01*
X123646082Y-110870656D01*
X123646087Y-110870658D01*
X123646091Y-110870658D01*
X123646092Y-110870659D01*
X123791079Y-110899500D01*
X123791082Y-110899500D01*
X123938920Y-110899500D01*
X124036462Y-110880096D01*
X124083913Y-110870658D01*
X124220495Y-110814084D01*
X124343416Y-110731951D01*
X124447951Y-110627416D01*
X124530084Y-110504495D01*
X124586658Y-110367913D01*
X124615500Y-110222918D01*
X124615500Y-110075082D01*
X124615500Y-110075079D01*
X124586659Y-109930092D01*
X124586658Y-109930091D01*
X124586658Y-109930087D01*
X124586656Y-109930082D01*
X124530087Y-109793511D01*
X124530080Y-109793498D01*
X124447951Y-109670584D01*
X124447948Y-109670580D01*
X124343419Y-109566051D01*
X124343415Y-109566048D01*
X124220501Y-109483919D01*
X124220488Y-109483912D01*
X124083917Y-109427343D01*
X124083907Y-109427340D01*
X123938920Y-109398500D01*
X123938918Y-109398500D01*
X123791082Y-109398500D01*
X123791080Y-109398500D01*
X123646092Y-109427340D01*
X123646082Y-109427343D01*
X123509511Y-109483912D01*
X123509498Y-109483919D01*
X123386584Y-109566048D01*
X123386580Y-109566051D01*
X123282051Y-109670580D01*
X123282048Y-109670584D01*
X123199919Y-109793498D01*
X123199912Y-109793511D01*
X123143343Y-109930082D01*
X123143340Y-109930092D01*
X123114500Y-110075079D01*
X123114500Y-110075082D01*
X123114500Y-110222918D01*
X123114500Y-110222920D01*
X123114499Y-110222920D01*
X111633000Y-110222920D01*
X111633000Y-108709000D01*
X111652685Y-108641961D01*
X111705489Y-108596206D01*
X111757000Y-108585000D01*
X125606000Y-108585000D01*
X125673039Y-108604685D01*
G37*
%TD.AperFunction*%
%TD*%
%TA.AperFunction,Conductor*%
%TO.N,/DVDD*%
G36*
X97917000Y-96774000D02*
G01*
X95758000Y-96774000D01*
X95758000Y-87884000D01*
X97917000Y-87884000D01*
X97917000Y-96774000D01*
G37*
%TD.AperFunction*%
%TD*%
%TA.AperFunction,Conductor*%
%TO.N,GND*%
G36*
X106369039Y-82950685D02*
G01*
X106414794Y-83003489D01*
X106426000Y-83055000D01*
X106426000Y-85092500D01*
X106423513Y-85100968D01*
X106424801Y-85109699D01*
X106413821Y-85133976D01*
X106406315Y-85159539D01*
X106399646Y-85165317D01*
X106396009Y-85173360D01*
X106373643Y-85187849D01*
X106353511Y-85205294D01*
X106343279Y-85207519D01*
X106337369Y-85211349D01*
X106302453Y-85216499D01*
X106294193Y-85216529D01*
X106294085Y-85216500D01*
X106176915Y-85216500D01*
X106175185Y-85216963D01*
X106165444Y-85216999D01*
X106164991Y-85217000D01*
X100962000Y-85217000D01*
X100894961Y-85197315D01*
X100849206Y-85144511D01*
X100838000Y-85093000D01*
X100838000Y-83055000D01*
X100857685Y-82987961D01*
X100910489Y-82942206D01*
X100962000Y-82931000D01*
X106302000Y-82931000D01*
X106369039Y-82950685D01*
G37*
%TD.AperFunction*%
%TD*%
%TA.AperFunction,Conductor*%
%TO.N,/DVDD*%
G36*
X106369039Y-85617685D02*
G01*
X106414794Y-85670489D01*
X106426000Y-85722000D01*
X106426000Y-87760000D01*
X106406315Y-87827039D01*
X106353511Y-87872794D01*
X106302000Y-87884000D01*
X95758000Y-87884000D01*
X95758000Y-85722000D01*
X95777685Y-85654961D01*
X95830489Y-85609206D01*
X95882000Y-85598000D01*
X106302000Y-85598000D01*
X106369039Y-85617685D01*
G37*
%TD.AperFunction*%
%TD*%
%TA.AperFunction,Conductor*%
%TO.N,/DVDD*%
G36*
X104464039Y-96793685D02*
G01*
X104509794Y-96846489D01*
X104521000Y-96898000D01*
X104521000Y-98903749D01*
X104501315Y-98970788D01*
X104448511Y-99016543D01*
X104397000Y-99027749D01*
X103261372Y-99027749D01*
X103194333Y-99008064D01*
X103173691Y-98991430D01*
X103140173Y-98957912D01*
X103140171Y-98957910D01*
X103038699Y-98899325D01*
X102925520Y-98868999D01*
X102808350Y-98868999D01*
X102695171Y-98899325D01*
X102695168Y-98899326D01*
X102593702Y-98957908D01*
X102593700Y-98957909D01*
X102527927Y-99023682D01*
X102466603Y-99057166D01*
X102440246Y-99060000D01*
X96049983Y-99060000D01*
X96020542Y-99051355D01*
X95990556Y-99044832D01*
X95985540Y-99041077D01*
X95982944Y-99040315D01*
X95962302Y-99023681D01*
X95794319Y-98855698D01*
X95760834Y-98794375D01*
X95758000Y-98768017D01*
X95758000Y-96774000D01*
X97917000Y-96774000D01*
X104397000Y-96774000D01*
X104464039Y-96793685D01*
G37*
%TD.AperFunction*%
%TD*%
%TA.AperFunction,Conductor*%
%TO.N,GND*%
G36*
X111195039Y-94634685D02*
G01*
X111240794Y-94687489D01*
X111252000Y-94739000D01*
X111252000Y-102492000D01*
X111232315Y-102559039D01*
X111179511Y-102604794D01*
X111128000Y-102616000D01*
X109598000Y-102616000D01*
X109530961Y-102596315D01*
X109485206Y-102543511D01*
X109474000Y-102492000D01*
X109474000Y-94739000D01*
X109493685Y-94671961D01*
X109546489Y-94626206D01*
X109598000Y-94615000D01*
X111128000Y-94615000D01*
X111195039Y-94634685D01*
G37*
%TD.AperFunction*%
%TD*%
%TA.AperFunction,Conductor*%
%TO.N,GND*%
G36*
X112719039Y-86379685D02*
G01*
X112764794Y-86432489D01*
X112776000Y-86484000D01*
X112776000Y-93729000D01*
X112756315Y-93796039D01*
X112703511Y-93841794D01*
X112652000Y-93853000D01*
X109598000Y-93853000D01*
X109530961Y-93833315D01*
X109485206Y-93780511D01*
X109474000Y-93729000D01*
X109474000Y-86484000D01*
X109493685Y-86416961D01*
X109546489Y-86371206D01*
X109598000Y-86360000D01*
X112652000Y-86360000D01*
X112719039Y-86379685D01*
G37*
%TD.AperFunction*%
%TD*%
%TA.AperFunction,Conductor*%
%TO.N,/PVDD*%
G36*
X108909039Y-94634685D02*
G01*
X108954794Y-94687489D01*
X108966000Y-94739000D01*
X108966000Y-102492000D01*
X108946315Y-102559039D01*
X108893511Y-102604794D01*
X108842000Y-102616000D01*
X106931000Y-102616000D01*
X106922314Y-102613449D01*
X106913353Y-102614738D01*
X106889312Y-102603759D01*
X106863961Y-102596315D01*
X106858033Y-102589474D01*
X106849797Y-102585713D01*
X106835507Y-102563478D01*
X106818206Y-102543511D01*
X106815918Y-102532996D01*
X106812023Y-102526935D01*
X106807000Y-102492000D01*
X106807000Y-102324854D01*
X106811225Y-102292761D01*
X106834070Y-102207503D01*
X106834070Y-102090333D01*
X106811225Y-102005073D01*
X106807000Y-101972980D01*
X106807000Y-99770361D01*
X106826685Y-99703322D01*
X106855517Y-99671982D01*
X106857974Y-99670095D01*
X106857986Y-99670089D01*
X106940839Y-99587236D01*
X106999424Y-99485764D01*
X107029750Y-99372585D01*
X107029750Y-99255415D01*
X106999424Y-99142236D01*
X106940839Y-99040764D01*
X106857986Y-98957911D01*
X106857982Y-98957907D01*
X106855511Y-98956011D01*
X106853955Y-98953880D01*
X106852239Y-98952164D01*
X106852506Y-98951896D01*
X106814309Y-98899582D01*
X106807000Y-98857638D01*
X106807000Y-94739000D01*
X106826685Y-94671961D01*
X106879489Y-94626206D01*
X106931000Y-94615000D01*
X108842000Y-94615000D01*
X108909039Y-94634685D01*
G37*
%TD.AperFunction*%
%TD*%
%TA.AperFunction,Conductor*%
%TO.N,GND*%
G36*
X102507288Y-99587685D02*
G01*
X102527930Y-99604319D01*
X102593699Y-99670088D01*
X102695171Y-99728673D01*
X102808350Y-99758999D01*
X102808352Y-99758999D01*
X102925518Y-99758999D01*
X102925520Y-99758999D01*
X103038699Y-99728673D01*
X103140171Y-99670088D01*
X103173691Y-99636568D01*
X103200618Y-99621864D01*
X103226437Y-99605272D01*
X103232637Y-99604380D01*
X103235014Y-99603083D01*
X103261372Y-99600249D01*
X103508000Y-99600249D01*
X103575039Y-99619934D01*
X103620794Y-99672738D01*
X103632000Y-99724249D01*
X103632000Y-100968000D01*
X103612315Y-101035039D01*
X103559511Y-101080794D01*
X103508000Y-101092000D01*
X103116856Y-101092000D01*
X103049817Y-101072315D01*
X103004062Y-101019511D01*
X102997084Y-101000101D01*
X102967177Y-100888486D01*
X102908592Y-100787014D01*
X102825739Y-100704161D01*
X102724267Y-100645576D01*
X102611088Y-100615250D01*
X102493918Y-100615250D01*
X102380739Y-100645576D01*
X102380736Y-100645577D01*
X102279269Y-100704159D01*
X102278734Y-100704570D01*
X102278201Y-100704775D01*
X102272229Y-100708224D01*
X102271691Y-100707292D01*
X102213564Y-100729761D01*
X102145119Y-100715721D01*
X102127763Y-100704566D01*
X102127240Y-100704165D01*
X102127236Y-100704161D01*
X102025764Y-100645576D01*
X101912585Y-100615250D01*
X101795415Y-100615250D01*
X101682236Y-100645576D01*
X101682233Y-100645577D01*
X101580767Y-100704159D01*
X101580761Y-100704163D01*
X101497913Y-100787011D01*
X101497909Y-100787017D01*
X101439327Y-100888483D01*
X101439326Y-100888486D01*
X101409420Y-101000095D01*
X101373057Y-101059754D01*
X101310211Y-101090283D01*
X101289647Y-101092000D01*
X98803000Y-101092000D01*
X98735961Y-101072315D01*
X98690206Y-101019511D01*
X98679000Y-100968000D01*
X98679000Y-99692000D01*
X98698685Y-99624961D01*
X98751489Y-99579206D01*
X98803000Y-99568000D01*
X102440249Y-99568000D01*
X102507288Y-99587685D01*
G37*
%TD.AperFunction*%
%TD*%
%TA.AperFunction,Conductor*%
%TO.N,/TVDD*%
G36*
X108909039Y-83839685D02*
G01*
X108954794Y-83892489D01*
X108966000Y-83944000D01*
X108966000Y-93729000D01*
X108946315Y-93796039D01*
X108893511Y-93841794D01*
X108842000Y-93853000D01*
X106931000Y-93853000D01*
X106863961Y-93833315D01*
X106818206Y-93780511D01*
X106807000Y-93729000D01*
X106807000Y-83944000D01*
X106826685Y-83876961D01*
X106879489Y-83831206D01*
X106931000Y-83820000D01*
X108842000Y-83820000D01*
X108909039Y-83839685D01*
G37*
%TD.AperFunction*%
%TD*%
M02*
