%TF.GenerationSoftware,KiCad,Pcbnew,9.0.2+1*%
%TF.CreationDate,2025-07-26T23:59:44+01:00*%
%TF.ProjectId,ICE40HXDevBoardHDMI,49434534-3048-4584-9465-76426f617264,rev?*%
%TF.SameCoordinates,Original*%
%TF.FileFunction,Soldermask,Top*%
%TF.FilePolarity,Negative*%
%FSLAX46Y46*%
G04 Gerber Fmt 4.6, Leading zero omitted, Abs format (unit mm)*
G04 Created by KiCad (PCBNEW 9.0.2+1) date 2025-07-26 23:59:44*
%MOMM*%
%LPD*%
G01*
G04 APERTURE LIST*
G04 Aperture macros list*
%AMRoundRect*
0 Rectangle with rounded corners*
0 $1 Rounding radius*
0 $2 $3 $4 $5 $6 $7 $8 $9 X,Y pos of 4 corners*
0 Add a 4 corners polygon primitive as box body*
4,1,4,$2,$3,$4,$5,$6,$7,$8,$9,$2,$3,0*
0 Add four circle primitives for the rounded corners*
1,1,$1+$1,$2,$3*
1,1,$1+$1,$4,$5*
1,1,$1+$1,$6,$7*
1,1,$1+$1,$8,$9*
0 Add four rect primitives between the rounded corners*
20,1,$1+$1,$2,$3,$4,$5,0*
20,1,$1+$1,$4,$5,$6,$7,0*
20,1,$1+$1,$6,$7,$8,$9,0*
20,1,$1+$1,$8,$9,$2,$3,0*%
G04 Aperture macros list end*
%ADD10RoundRect,0.250000X-0.262500X-0.450000X0.262500X-0.450000X0.262500X0.450000X-0.262500X0.450000X0*%
%ADD11RoundRect,0.100000X-0.637500X-0.100000X0.637500X-0.100000X0.637500X0.100000X-0.637500X0.100000X0*%
%ADD12C,1.000000*%
%ADD13R,1.900000X1.900000*%
%ADD14C,1.900000*%
%ADD15RoundRect,0.250000X0.275000X0.700000X-0.275000X0.700000X-0.275000X-0.700000X0.275000X-0.700000X0*%
%ADD16RoundRect,0.250000X0.475000X-0.250000X0.475000X0.250000X-0.475000X0.250000X-0.475000X-0.250000X0*%
%ADD17C,6.400000*%
%ADD18RoundRect,0.250000X-0.475000X0.250000X-0.475000X-0.250000X0.475000X-0.250000X0.475000X0.250000X0*%
%ADD19R,1.700000X1.700000*%
%ADD20O,1.700000X1.700000*%
%ADD21RoundRect,0.250000X-0.250000X-0.475000X0.250000X-0.475000X0.250000X0.475000X-0.250000X0.475000X0*%
%ADD22RoundRect,0.250000X0.262500X0.450000X-0.262500X0.450000X-0.262500X-0.450000X0.262500X-0.450000X0*%
%ADD23RoundRect,0.250000X-0.450000X0.262500X-0.450000X-0.262500X0.450000X-0.262500X0.450000X0.262500X0*%
%ADD24R,2.600000X0.300000*%
%ADD25O,3.300000X1.500000*%
%ADD26O,2.300000X1.500000*%
%ADD27RoundRect,0.250000X-0.375000X-1.075000X0.375000X-1.075000X0.375000X1.075000X-0.375000X1.075000X0*%
%ADD28RoundRect,0.075000X-0.200000X0.075000X-0.200000X-0.075000X0.200000X-0.075000X0.200000X0.075000X0*%
%ADD29RoundRect,0.250000X0.250000X0.475000X-0.250000X0.475000X-0.250000X-0.475000X0.250000X-0.475000X0*%
%ADD30RoundRect,0.075000X0.075000X-0.700000X0.075000X0.700000X-0.075000X0.700000X-0.075000X-0.700000X0*%
%ADD31RoundRect,0.075000X0.700000X-0.075000X0.700000X0.075000X-0.700000X0.075000X-0.700000X-0.075000X0*%
%ADD32R,5.000000X5.000000*%
%ADD33RoundRect,0.250000X-0.700000X0.275000X-0.700000X-0.275000X0.700000X-0.275000X0.700000X0.275000X0*%
G04 APERTURE END LIST*
D10*
%TO.C,R9*%
X96115500Y-100838000D03*
X97940500Y-100838000D03*
%TD*%
D11*
%TO.C,U5*%
X115882500Y-123440000D03*
X115882500Y-124090000D03*
X115882500Y-124740000D03*
X115882500Y-125390000D03*
X115882500Y-126040000D03*
X115882500Y-126690000D03*
X115882500Y-127340000D03*
X115882500Y-127990000D03*
X115882500Y-128640000D03*
X115882500Y-129290000D03*
X121607500Y-129290000D03*
X121607500Y-128640000D03*
X121607500Y-127990000D03*
X121607500Y-127340000D03*
X121607500Y-126690000D03*
X121607500Y-126040000D03*
X121607500Y-125390000D03*
X121607500Y-124740000D03*
X121607500Y-124090000D03*
X121607500Y-123440000D03*
%TD*%
D12*
%TO.C,J2*%
X123865000Y-115149000D03*
X123865000Y-110149000D03*
D13*
X119865000Y-114899000D03*
D14*
X119865000Y-110399000D03*
X127365000Y-115549000D03*
X127365000Y-109749000D03*
%TD*%
D15*
%TO.C,FB8*%
X110795000Y-120015000D03*
X107645000Y-120015000D03*
%TD*%
D16*
%TO.C,C24*%
X113030000Y-123505000D03*
X113030000Y-121605000D03*
%TD*%
D17*
%TO.C,H4*%
X127000000Y-146050000D03*
%TD*%
D18*
%TO.C,C29*%
X124460000Y-121605000D03*
X124460000Y-123505000D03*
%TD*%
D17*
%TO.C,H3*%
X82550000Y-146050000D03*
%TD*%
D18*
%TO.C,C6*%
X113625000Y-129780000D03*
X113625000Y-131680000D03*
%TD*%
D10*
%TO.C,R10*%
X114276500Y-99314000D03*
X116101500Y-99314000D03*
%TD*%
D19*
%TO.C,J1*%
X88265000Y-83820000D03*
D20*
X85725000Y-83820000D03*
X88265000Y-86360000D03*
X85725000Y-86360000D03*
X88265000Y-88900000D03*
X85725000Y-88900000D03*
X88265000Y-91440000D03*
X85725000Y-91440000D03*
X88265000Y-93980000D03*
X85725000Y-93980000D03*
X88265000Y-96520000D03*
X85725000Y-96520000D03*
X88265000Y-99060000D03*
X85725000Y-99060000D03*
X88265000Y-101600000D03*
X85725000Y-101600000D03*
X88265000Y-104140000D03*
X85725000Y-104140000D03*
X88265000Y-106680000D03*
X85725000Y-106680000D03*
X88265000Y-109220000D03*
X85725000Y-109220000D03*
X88265000Y-111760000D03*
X85725000Y-111760000D03*
X88265000Y-114300000D03*
X85725000Y-114300000D03*
X88265000Y-116840000D03*
X85725000Y-116840000D03*
X88265000Y-119380000D03*
X85725000Y-119380000D03*
X88265000Y-121920000D03*
X85725000Y-121920000D03*
X88265000Y-124460000D03*
X85725000Y-124460000D03*
X88265000Y-127000000D03*
X85725000Y-127000000D03*
X88265000Y-129540000D03*
X85725000Y-129540000D03*
X88265000Y-132080000D03*
X85725000Y-132080000D03*
%TD*%
D21*
%TO.C,C28*%
X115890000Y-121285000D03*
X117790000Y-121285000D03*
%TD*%
D22*
%TO.C,R5*%
X102131500Y-102870000D03*
X100306500Y-102870000D03*
%TD*%
D15*
%TO.C,FB10*%
X110795000Y-127635000D03*
X107645000Y-127635000D03*
%TD*%
D23*
%TO.C,R1*%
X104013000Y-102719500D03*
X104013000Y-104544500D03*
%TD*%
D21*
%TO.C,C2*%
X119700000Y-121285000D03*
X121600000Y-121285000D03*
%TD*%
D24*
%TO.C,J3*%
X120725000Y-88834000D03*
X120725000Y-89334000D03*
X120725000Y-89834000D03*
X120725000Y-90334000D03*
X120725000Y-90834000D03*
X120725000Y-91334000D03*
X120725000Y-91834000D03*
X120725000Y-92334000D03*
X120725000Y-92834000D03*
X120725000Y-93334000D03*
X120725000Y-93834000D03*
X120725000Y-94334000D03*
X120725000Y-94834000D03*
X120725000Y-95334000D03*
X120725000Y-95834000D03*
X120725000Y-96334000D03*
X120725000Y-96834000D03*
X120725000Y-97334000D03*
X120725000Y-97834000D03*
D25*
X121485000Y-86084000D03*
X121485000Y-100584000D03*
D26*
X127445000Y-86084000D03*
X127445000Y-100584000D03*
%TD*%
D10*
%TO.C,R12*%
X114657500Y-109220000D03*
X116482500Y-109220000D03*
%TD*%
%TO.C,R11*%
X114657500Y-116840000D03*
X116482500Y-116840000D03*
%TD*%
D27*
%TO.C,D1*%
X84325000Y-77470000D03*
X87125000Y-77470000D03*
%TD*%
D28*
%TO.C,U4*%
X114032500Y-92084000D03*
X114032500Y-92584000D03*
X114032500Y-93084000D03*
X114032500Y-93584000D03*
X114032500Y-94084000D03*
X114802500Y-94084000D03*
X114802500Y-93584000D03*
X114802500Y-93084000D03*
X114802500Y-92584000D03*
X114802500Y-92084000D03*
%TD*%
%TO.C,U3*%
X114032500Y-89084000D03*
X114032500Y-89584000D03*
X114032500Y-90084000D03*
X114032500Y-90584000D03*
X114032500Y-91084000D03*
X114802500Y-91084000D03*
X114802500Y-90584000D03*
X114802500Y-90084000D03*
X114802500Y-89584000D03*
X114802500Y-89084000D03*
%TD*%
D29*
%TO.C,C25*%
X116520000Y-106045000D03*
X114620000Y-106045000D03*
%TD*%
D30*
%TO.C,U2*%
X98680000Y-98009000D03*
X99180000Y-98009000D03*
X99680000Y-98009000D03*
X100180000Y-98009000D03*
X100680000Y-98009000D03*
X101180000Y-98009000D03*
X101680000Y-98009000D03*
X102180000Y-98009000D03*
X102680000Y-98009000D03*
X103180000Y-98009000D03*
X103680000Y-98009000D03*
X104180000Y-98009000D03*
X104680000Y-98009000D03*
X105180000Y-98009000D03*
X105680000Y-98009000D03*
X106180000Y-98009000D03*
D31*
X108105000Y-96084000D03*
X108105000Y-95584000D03*
X108105000Y-95084000D03*
X108105000Y-94584000D03*
X108105000Y-94084000D03*
X108105000Y-93584000D03*
X108105000Y-93084000D03*
X108105000Y-92584000D03*
X108105000Y-92084000D03*
X108105000Y-91584000D03*
X108105000Y-91084000D03*
X108105000Y-90584000D03*
X108105000Y-90084000D03*
X108105000Y-89584000D03*
X108105000Y-89084000D03*
X108105000Y-88584000D03*
D30*
X106180000Y-86659000D03*
X105680000Y-86659000D03*
X105180000Y-86659000D03*
X104680000Y-86659000D03*
X104180000Y-86659000D03*
X103680000Y-86659000D03*
X103180000Y-86659000D03*
X102680000Y-86659000D03*
X102180000Y-86659000D03*
X101680000Y-86659000D03*
X101180000Y-86659000D03*
X100680000Y-86659000D03*
X100180000Y-86659000D03*
X99680000Y-86659000D03*
X99180000Y-86659000D03*
X98680000Y-86659000D03*
D31*
X96755000Y-88584000D03*
X96755000Y-89084000D03*
X96755000Y-89584000D03*
X96755000Y-90084000D03*
X96755000Y-90584000D03*
X96755000Y-91084000D03*
X96755000Y-91584000D03*
X96755000Y-92084000D03*
X96755000Y-92584000D03*
X96755000Y-93084000D03*
X96755000Y-93584000D03*
X96755000Y-94084000D03*
X96755000Y-94584000D03*
X96755000Y-95084000D03*
X96755000Y-95584000D03*
X96755000Y-96084000D03*
D32*
X102430000Y-92334000D03*
%TD*%
D15*
%TO.C,FB6*%
X110795000Y-123825000D03*
X107645000Y-123825000D03*
%TD*%
D29*
%TO.C,C26*%
X116520000Y-113665000D03*
X114620000Y-113665000D03*
%TD*%
D17*
%TO.C,H2*%
X127000000Y-69850000D03*
%TD*%
D10*
%TO.C,R6*%
X96496500Y-102870000D03*
X98321500Y-102870000D03*
%TD*%
D33*
%TO.C,FB7*%
X118745000Y-131140000D03*
X118745000Y-134290000D03*
%TD*%
D17*
%TO.C,H1*%
X82550000Y-69850000D03*
%TD*%
M02*
