%TF.GenerationSoftware,KiCad,Pcbnew,9.0.2+1*%
%TF.CreationDate,2025-07-26T23:59:43+01:00*%
%TF.ProjectId,ICE40HXDevBoardHDMI,49434534-3048-4584-9465-76426f617264,rev?*%
%TF.SameCoordinates,Original*%
%TF.FileFunction,Copper,L2,Inr*%
%TF.FilePolarity,Positive*%
%FSLAX46Y46*%
G04 Gerber Fmt 4.6, Leading zero omitted, Abs format (unit mm)*
G04 Created by KiCad (PCBNEW 9.0.2+1) date 2025-07-26 23:59:43*
%MOMM*%
%LPD*%
G01*
G04 APERTURE LIST*
%TA.AperFunction,ComponentPad*%
%ADD10R,1.900000X1.900000*%
%TD*%
%TA.AperFunction,ComponentPad*%
%ADD11C,1.900000*%
%TD*%
%TA.AperFunction,ComponentPad*%
%ADD12C,6.400000*%
%TD*%
%TA.AperFunction,ComponentPad*%
%ADD13R,1.700000X1.700000*%
%TD*%
%TA.AperFunction,ComponentPad*%
%ADD14O,1.700000X1.700000*%
%TD*%
%TA.AperFunction,ComponentPad*%
%ADD15O,3.300000X1.500000*%
%TD*%
%TA.AperFunction,ComponentPad*%
%ADD16O,2.300000X1.500000*%
%TD*%
%TA.AperFunction,HeatsinkPad*%
%ADD17C,0.500000*%
%TD*%
%TA.AperFunction,ViaPad*%
%ADD18C,0.635000*%
%TD*%
%TA.AperFunction,ViaPad*%
%ADD19C,0.508000*%
%TD*%
%TA.AperFunction,ViaPad*%
%ADD20C,0.762000*%
%TD*%
G04 APERTURE END LIST*
D10*
%TO.N,Net-(C26-Pad1)*%
%TO.C,J2*%
X119865000Y-114899000D03*
D11*
%TO.N,GNDA*%
X119865000Y-110399000D03*
%TO.N,Net-(C25-Pad1)*%
X127365000Y-115549000D03*
X127365000Y-109749000D03*
%TD*%
D12*
%TO.N,GND*%
%TO.C,H4*%
X127000000Y-146050000D03*
%TD*%
%TO.N,GND*%
%TO.C,H3*%
X82550000Y-146050000D03*
%TD*%
D13*
%TO.N,+5V*%
%TO.C,J1*%
X88265000Y-83820000D03*
D14*
%TO.N,GND*%
X85725000Y-83820000D03*
%TO.N,unconnected-(J1-Pin_3-Pad3)*%
X88265000Y-86360000D03*
%TO.N,unconnected-(J1-Pin_4-Pad4)*%
X85725000Y-86360000D03*
%TO.N,/RED5*%
X88265000Y-88900000D03*
%TO.N,/RED4*%
X85725000Y-88900000D03*
%TO.N,/RED3*%
X88265000Y-91440000D03*
%TO.N,/RED2*%
X85725000Y-91440000D03*
%TO.N,/RED1*%
X88265000Y-93980000D03*
%TO.N,/RED0*%
X85725000Y-93980000D03*
%TO.N,/GREEN0*%
X88265000Y-96520000D03*
%TO.N,/GREEN1*%
X85725000Y-96520000D03*
%TO.N,/GREEN2*%
X88265000Y-99060000D03*
%TO.N,/GREEN3*%
X85725000Y-99060000D03*
%TO.N,/GREEN4*%
X88265000Y-101600000D03*
%TO.N,/GREEN5*%
X85725000Y-101600000D03*
%TO.N,/BLUE5*%
X88265000Y-104140000D03*
%TO.N,/BLUE4*%
X85725000Y-104140000D03*
%TO.N,+3V3*%
X88265000Y-106680000D03*
%TO.N,GND*%
X85725000Y-106680000D03*
%TO.N,+3V3*%
X88265000Y-109220000D03*
%TO.N,GND*%
X85725000Y-109220000D03*
%TO.N,/HDMICLK*%
X88265000Y-111760000D03*
%TO.N,/BLUE3*%
X85725000Y-111760000D03*
%TO.N,/BLUE2*%
X88265000Y-114300000D03*
%TO.N,/BLUE1*%
X85725000Y-114300000D03*
%TO.N,/BLUE0*%
X88265000Y-116840000D03*
%TO.N,/MSEN*%
X85725000Y-116840000D03*
%TO.N,/HSYNC*%
X88265000Y-119380000D03*
%TO.N,/DE*%
X85725000Y-119380000D03*
%TO.N,/VSYNC*%
X88265000Y-121920000D03*
%TO.N,unconnected-(J1-Pin_32-Pad32)*%
X85725000Y-121920000D03*
%TO.N,/I2SBCK*%
X88265000Y-124460000D03*
%TO.N,unconnected-(J1-Pin_34-Pad34)*%
X85725000Y-124460000D03*
%TO.N,/I2SDIN*%
X88265000Y-127000000D03*
%TO.N,/I2CSCL*%
X85725000Y-127000000D03*
%TO.N,/I2SLRCK*%
X88265000Y-129540000D03*
%TO.N,/I2CSDA*%
X85725000Y-129540000D03*
%TO.N,+5V*%
X88265000Y-132080000D03*
%TO.N,GND*%
X85725000Y-132080000D03*
%TD*%
D15*
%TO.N,GND*%
%TO.C,J3*%
X121485000Y-86084000D03*
X121485000Y-100584000D03*
D16*
X127445000Y-86084000D03*
X127445000Y-100584000D03*
%TD*%
D17*
%TO.N,GND*%
%TO.C,U2*%
X100630000Y-94134000D03*
X101830000Y-94134000D03*
X103030000Y-94134000D03*
X104230000Y-94134000D03*
X100630000Y-92934000D03*
X101830000Y-92934000D03*
X103030000Y-92934000D03*
X104230000Y-92934000D03*
X100630000Y-91734000D03*
X101830000Y-91734000D03*
X103030000Y-91734000D03*
X104230000Y-91734000D03*
X100630000Y-90534000D03*
X101830000Y-90534000D03*
X103030000Y-90534000D03*
X104230000Y-90534000D03*
%TD*%
D12*
%TO.N,GND*%
%TO.C,H2*%
X127000000Y-69850000D03*
%TD*%
%TO.N,GND*%
%TO.C,H1*%
X82550000Y-69850000D03*
%TD*%
D18*
%TO.N,+3V3*%
X88265000Y-77470000D03*
X111125000Y-85344000D03*
X107645000Y-129032000D03*
X104013000Y-101600000D03*
X96139000Y-99695000D03*
X107645000Y-118567000D03*
X100226500Y-104775000D03*
X107645000Y-121920000D03*
X107645000Y-125730000D03*
%TO.N,GND*%
X117348000Y-134239000D03*
X111125000Y-88138000D03*
X123300000Y-93850000D03*
X110871000Y-100203000D03*
X103378000Y-100203000D03*
X123300000Y-90900000D03*
X118745000Y-135382000D03*
X112395000Y-88138000D03*
X112182000Y-90070000D03*
X101346000Y-84709000D03*
X106045000Y-83312000D03*
X85833000Y-77470000D03*
X110744000Y-96647000D03*
X123300000Y-89300000D03*
X110871000Y-102235000D03*
X118170000Y-96834000D03*
X111125000Y-86741000D03*
X100203000Y-101219000D03*
X123300000Y-92300000D03*
X101346000Y-83439000D03*
X112395000Y-86741000D03*
X105283000Y-83312000D03*
X112141000Y-93091000D03*
X120142000Y-134239000D03*
X96496500Y-104036500D03*
D19*
%TO.N,/HSYNC*%
X101854000Y-101060250D03*
%TO.N,/I2S/DVDD*%
X121607500Y-122613500D03*
%TO.N,/VSYNC*%
X102552503Y-101060250D03*
%TO.N,/I2S/AVDD*%
X112395000Y-127635000D03*
%TO.N,GNDA*%
X120015000Y-126044050D03*
X112435000Y-132080000D03*
X115951000Y-130937000D03*
X121666000Y-130937000D03*
X114300000Y-121285000D03*
X114808000Y-132080000D03*
X117475000Y-124740000D03*
X123190000Y-121285000D03*
X118745000Y-129159000D03*
%TO.N,/I2S/CPVDD*%
X114431000Y-123440000D03*
%TO.N,Net-(U5-VNEG)*%
X117638375Y-126020375D03*
%TO.N,/I2S/LDOO*%
X123190000Y-124460000D03*
%TO.N,Net-(D1-K)*%
X83185000Y-77470000D03*
D20*
%TO.N,+5V*%
X123063000Y-97409000D03*
D19*
%TO.N,/MSEN*%
X98933000Y-101600000D03*
%TO.N,/PVDD*%
X106934000Y-95480750D03*
%TO.N,Net-(U2-TFADJ)*%
X112150000Y-96100000D03*
%TO.N,/HPD*%
X102866935Y-99313999D03*
X106584750Y-99314000D03*
%TO.N,/I2CSDA*%
X106299000Y-103251000D03*
%TO.N,/DVDD*%
X104180000Y-96941000D03*
X98670870Y-97022070D03*
X106235500Y-85661500D03*
%TO.N,/TVDD*%
X106934000Y-90043000D03*
X106934000Y-93091000D03*
%TO.N,/I2CSCL*%
X106389070Y-102148918D03*
%TD*%
%TA.AperFunction,Conductor*%
%TO.N,+3V3*%
G36*
X88515000Y-108786988D02*
G01*
X88457993Y-108754075D01*
X88330826Y-108720000D01*
X88199174Y-108720000D01*
X88072007Y-108754075D01*
X88015000Y-108786988D01*
X88015000Y-107113012D01*
X88072007Y-107145925D01*
X88199174Y-107180000D01*
X88330826Y-107180000D01*
X88457993Y-107145925D01*
X88515000Y-107113012D01*
X88515000Y-108786988D01*
G37*
%TD.AperFunction*%
%TA.AperFunction,Conductor*%
G36*
X129348694Y-66059593D02*
G01*
X129579711Y-66207617D01*
X129588595Y-66213875D01*
X129886099Y-66443587D01*
X129894401Y-66450600D01*
X130170627Y-66705457D01*
X130178283Y-66713168D01*
X130431142Y-66991238D01*
X130438094Y-66999591D01*
X130665649Y-67298752D01*
X130671843Y-67307682D01*
X130790887Y-67496462D01*
X130810000Y-67562603D01*
X130810000Y-148337339D01*
X130790887Y-148403480D01*
X130671859Y-148592236D01*
X130665666Y-148601165D01*
X130438124Y-148900310D01*
X130431172Y-148908663D01*
X130178313Y-149186736D01*
X130170656Y-149194449D01*
X129894409Y-149449325D01*
X129886107Y-149456336D01*
X129588628Y-149686030D01*
X129579744Y-149692289D01*
X129446598Y-149777602D01*
X129348583Y-149840406D01*
X129281686Y-149860000D01*
X80302596Y-149860000D01*
X80235973Y-149840581D01*
X80005289Y-149693619D01*
X79996448Y-149687428D01*
X79994626Y-149686030D01*
X79697422Y-149457978D01*
X79689135Y-149451024D01*
X79411255Y-149196393D01*
X79403606Y-149188744D01*
X79148975Y-148910864D01*
X79142021Y-148902577D01*
X79031718Y-148758827D01*
X78912564Y-148603542D01*
X78906383Y-148594715D01*
X78759418Y-148364026D01*
X78740000Y-148297404D01*
X78740000Y-145884038D01*
X79171700Y-145884038D01*
X79171700Y-146215961D01*
X79204233Y-146546286D01*
X79204236Y-146546303D01*
X79268990Y-146871844D01*
X79365346Y-147189488D01*
X79492371Y-147496153D01*
X79492373Y-147496158D01*
X79648834Y-147788876D01*
X79648845Y-147788894D01*
X79833246Y-148064869D01*
X79833256Y-148064883D01*
X80043830Y-148321469D01*
X80278530Y-148556169D01*
X80278535Y-148556173D01*
X80278536Y-148556174D01*
X80535122Y-148766748D01*
X80811112Y-148951159D01*
X80811121Y-148951164D01*
X80811123Y-148951165D01*
X81103841Y-149107626D01*
X81103843Y-149107626D01*
X81103849Y-149107630D01*
X81410513Y-149234654D01*
X81728150Y-149331008D01*
X82053703Y-149395765D01*
X82384035Y-149428300D01*
X82384038Y-149428300D01*
X82715962Y-149428300D01*
X82715965Y-149428300D01*
X83046297Y-149395765D01*
X83371850Y-149331008D01*
X83689487Y-149234654D01*
X83996151Y-149107630D01*
X84288888Y-148951159D01*
X84564878Y-148766748D01*
X84821464Y-148556174D01*
X85056174Y-148321464D01*
X85266748Y-148064878D01*
X85451159Y-147788888D01*
X85607630Y-147496151D01*
X85734654Y-147189487D01*
X85831008Y-146871850D01*
X85895765Y-146546297D01*
X85928300Y-146215965D01*
X85928300Y-145884038D01*
X123621700Y-145884038D01*
X123621700Y-146215961D01*
X123654233Y-146546286D01*
X123654236Y-146546303D01*
X123718990Y-146871844D01*
X123815346Y-147189488D01*
X123942371Y-147496153D01*
X123942373Y-147496158D01*
X124098834Y-147788876D01*
X124098845Y-147788894D01*
X124283246Y-148064869D01*
X124283256Y-148064883D01*
X124493830Y-148321469D01*
X124728530Y-148556169D01*
X124728535Y-148556173D01*
X124728536Y-148556174D01*
X124985122Y-148766748D01*
X125261112Y-148951159D01*
X125261121Y-148951164D01*
X125261123Y-148951165D01*
X125553841Y-149107626D01*
X125553843Y-149107626D01*
X125553849Y-149107630D01*
X125860513Y-149234654D01*
X126178150Y-149331008D01*
X126503703Y-149395765D01*
X126834035Y-149428300D01*
X126834038Y-149428300D01*
X127165962Y-149428300D01*
X127165965Y-149428300D01*
X127496297Y-149395765D01*
X127821850Y-149331008D01*
X128139487Y-149234654D01*
X128446151Y-149107630D01*
X128738888Y-148951159D01*
X129014878Y-148766748D01*
X129271464Y-148556174D01*
X129506174Y-148321464D01*
X129716748Y-148064878D01*
X129901159Y-147788888D01*
X130057630Y-147496151D01*
X130184654Y-147189487D01*
X130281008Y-146871850D01*
X130345765Y-146546297D01*
X130378300Y-146215965D01*
X130378300Y-145884035D01*
X130345765Y-145553703D01*
X130281008Y-145228150D01*
X130184654Y-144910513D01*
X130057630Y-144603849D01*
X129901159Y-144311112D01*
X129716748Y-144035122D01*
X129506174Y-143778536D01*
X129506173Y-143778535D01*
X129506169Y-143778530D01*
X129271469Y-143543830D01*
X129014883Y-143333256D01*
X129014882Y-143333255D01*
X129014878Y-143333252D01*
X128738888Y-143148841D01*
X128738883Y-143148838D01*
X128738876Y-143148834D01*
X128446158Y-142992373D01*
X128446153Y-142992371D01*
X128139488Y-142865346D01*
X127821844Y-142768990D01*
X127496303Y-142704236D01*
X127496286Y-142704233D01*
X127246487Y-142679630D01*
X127165965Y-142671700D01*
X126834035Y-142671700D01*
X126759563Y-142679034D01*
X126503713Y-142704233D01*
X126503696Y-142704236D01*
X126178155Y-142768990D01*
X125860511Y-142865346D01*
X125553846Y-142992371D01*
X125553841Y-142992373D01*
X125261123Y-143148834D01*
X125261105Y-143148845D01*
X124985130Y-143333246D01*
X124985116Y-143333256D01*
X124728530Y-143543830D01*
X124493830Y-143778530D01*
X124283256Y-144035116D01*
X124283246Y-144035130D01*
X124098845Y-144311105D01*
X124098834Y-144311123D01*
X123942373Y-144603841D01*
X123942371Y-144603846D01*
X123815346Y-144910511D01*
X123718990Y-145228155D01*
X123654236Y-145553696D01*
X123654233Y-145553713D01*
X123621700Y-145884038D01*
X85928300Y-145884038D01*
X85928300Y-145884035D01*
X85895765Y-145553703D01*
X85831008Y-145228150D01*
X85734654Y-144910513D01*
X85607630Y-144603849D01*
X85451159Y-144311112D01*
X85266748Y-144035122D01*
X85056174Y-143778536D01*
X85056173Y-143778535D01*
X85056169Y-143778530D01*
X84821469Y-143543830D01*
X84564883Y-143333256D01*
X84564882Y-143333255D01*
X84564878Y-143333252D01*
X84288888Y-143148841D01*
X84288883Y-143148838D01*
X84288876Y-143148834D01*
X83996158Y-142992373D01*
X83996153Y-142992371D01*
X83689488Y-142865346D01*
X83371844Y-142768990D01*
X83046303Y-142704236D01*
X83046286Y-142704233D01*
X82796487Y-142679630D01*
X82715965Y-142671700D01*
X82384035Y-142671700D01*
X82309563Y-142679034D01*
X82053713Y-142704233D01*
X82053696Y-142704236D01*
X81728155Y-142768990D01*
X81410511Y-142865346D01*
X81103846Y-142992371D01*
X81103841Y-142992373D01*
X80811123Y-143148834D01*
X80811105Y-143148845D01*
X80535130Y-143333246D01*
X80535116Y-143333256D01*
X80278530Y-143543830D01*
X80043830Y-143778530D01*
X79833256Y-144035116D01*
X79833246Y-144035130D01*
X79648845Y-144311105D01*
X79648834Y-144311123D01*
X79492373Y-144603841D01*
X79492371Y-144603846D01*
X79365346Y-144910511D01*
X79268990Y-145228155D01*
X79204236Y-145553696D01*
X79204233Y-145553713D01*
X79171700Y-145884038D01*
X78740000Y-145884038D01*
X78740000Y-135316727D01*
X118249200Y-135316727D01*
X118249200Y-135447273D01*
X118282988Y-135573372D01*
X118348261Y-135686428D01*
X118440572Y-135778739D01*
X118553628Y-135844012D01*
X118679727Y-135877800D01*
X118679729Y-135877800D01*
X118810271Y-135877800D01*
X118810273Y-135877800D01*
X118936372Y-135844012D01*
X119049428Y-135778739D01*
X119141739Y-135686428D01*
X119207012Y-135573372D01*
X119240800Y-135447273D01*
X119240800Y-135316727D01*
X119207012Y-135190628D01*
X119141739Y-135077572D01*
X119049428Y-134985261D01*
X118936372Y-134919988D01*
X118810273Y-134886200D01*
X118679727Y-134886200D01*
X118553628Y-134919988D01*
X118553625Y-134919989D01*
X118440575Y-134985259D01*
X118440569Y-134985263D01*
X118348263Y-135077569D01*
X118348259Y-135077575D01*
X118282989Y-135190625D01*
X118282988Y-135190628D01*
X118249200Y-135316727D01*
X78740000Y-135316727D01*
X78740000Y-134173727D01*
X116852200Y-134173727D01*
X116852200Y-134304273D01*
X116885988Y-134430372D01*
X116951261Y-134543428D01*
X117043572Y-134635739D01*
X117156628Y-134701012D01*
X117282727Y-134734800D01*
X117282729Y-134734800D01*
X117413271Y-134734800D01*
X117413273Y-134734800D01*
X117539372Y-134701012D01*
X117652428Y-134635739D01*
X117744739Y-134543428D01*
X117810012Y-134430372D01*
X117843800Y-134304273D01*
X117843800Y-134173727D01*
X119646200Y-134173727D01*
X119646200Y-134304273D01*
X119679988Y-134430372D01*
X119745261Y-134543428D01*
X119837572Y-134635739D01*
X119950628Y-134701012D01*
X120076727Y-134734800D01*
X120076729Y-134734800D01*
X120207271Y-134734800D01*
X120207273Y-134734800D01*
X120333372Y-134701012D01*
X120446428Y-134635739D01*
X120538739Y-134543428D01*
X120604012Y-134430372D01*
X120637800Y-134304273D01*
X120637800Y-134173727D01*
X120604012Y-134047628D01*
X120538739Y-133934572D01*
X120446428Y-133842261D01*
X120333372Y-133776988D01*
X120207273Y-133743200D01*
X120076727Y-133743200D01*
X119950628Y-133776988D01*
X119950625Y-133776989D01*
X119837575Y-133842259D01*
X119837569Y-133842263D01*
X119745263Y-133934569D01*
X119745259Y-133934575D01*
X119679989Y-134047625D01*
X119679988Y-134047628D01*
X119646200Y-134173727D01*
X117843800Y-134173727D01*
X117810012Y-134047628D01*
X117744739Y-133934572D01*
X117652428Y-133842261D01*
X117539372Y-133776988D01*
X117413273Y-133743200D01*
X117282727Y-133743200D01*
X117156628Y-133776988D01*
X117156625Y-133776989D01*
X117043575Y-133842259D01*
X117043569Y-133842263D01*
X116951263Y-133934569D01*
X116951259Y-133934575D01*
X116885989Y-134047625D01*
X116885988Y-134047628D01*
X116852200Y-134173727D01*
X78740000Y-134173727D01*
X78740000Y-131978716D01*
X84696700Y-131978716D01*
X84696700Y-132181283D01*
X84736215Y-132379936D01*
X84736218Y-132379948D01*
X84813728Y-132567076D01*
X84813735Y-132567089D01*
X84926266Y-132735502D01*
X84926269Y-132735506D01*
X85069493Y-132878730D01*
X85069497Y-132878733D01*
X85237910Y-132991264D01*
X85237923Y-132991271D01*
X85425051Y-133068781D01*
X85425056Y-133068783D01*
X85623716Y-133108299D01*
X85623719Y-133108300D01*
X85623721Y-133108300D01*
X85826281Y-133108300D01*
X85826282Y-133108299D01*
X86024944Y-133068783D01*
X86212083Y-132991268D01*
X86380503Y-132878733D01*
X86523733Y-132735503D01*
X86636268Y-132567083D01*
X86713783Y-132379944D01*
X86753300Y-132181279D01*
X86753300Y-131983079D01*
X87033500Y-131983079D01*
X87033500Y-132176920D01*
X87063824Y-132368378D01*
X87123722Y-132552729D01*
X87123723Y-132552732D01*
X87211727Y-132725447D01*
X87325664Y-132882268D01*
X87462732Y-133019336D01*
X87619553Y-133133273D01*
X87704264Y-133176435D01*
X87792267Y-133221276D01*
X87792270Y-133221277D01*
X87884445Y-133251226D01*
X87976623Y-133281176D01*
X88168079Y-133311500D01*
X88168080Y-133311500D01*
X88361920Y-133311500D01*
X88361921Y-133311500D01*
X88553377Y-133281176D01*
X88737732Y-133221276D01*
X88910447Y-133133273D01*
X89067268Y-133019336D01*
X89204336Y-132882268D01*
X89318273Y-132725447D01*
X89406276Y-132552732D01*
X89466176Y-132368377D01*
X89496500Y-132176921D01*
X89496500Y-132021415D01*
X111990000Y-132021415D01*
X111990000Y-132138585D01*
X112020326Y-132251764D01*
X112078911Y-132353236D01*
X112161764Y-132436089D01*
X112263236Y-132494674D01*
X112376415Y-132525000D01*
X112376417Y-132525000D01*
X112493583Y-132525000D01*
X112493585Y-132525000D01*
X112606764Y-132494674D01*
X112708236Y-132436089D01*
X112791089Y-132353236D01*
X112849674Y-132251764D01*
X112880000Y-132138585D01*
X112880000Y-132021415D01*
X114363000Y-132021415D01*
X114363000Y-132138585D01*
X114393326Y-132251764D01*
X114451911Y-132353236D01*
X114534764Y-132436089D01*
X114636236Y-132494674D01*
X114749415Y-132525000D01*
X114749417Y-132525000D01*
X114866583Y-132525000D01*
X114866585Y-132525000D01*
X114979764Y-132494674D01*
X115081236Y-132436089D01*
X115164089Y-132353236D01*
X115222674Y-132251764D01*
X115253000Y-132138585D01*
X115253000Y-132021415D01*
X115222674Y-131908236D01*
X115164089Y-131806764D01*
X115081236Y-131723911D01*
X114979764Y-131665326D01*
X114866585Y-131635000D01*
X114749415Y-131635000D01*
X114636236Y-131665326D01*
X114636233Y-131665327D01*
X114534767Y-131723909D01*
X114534761Y-131723913D01*
X114451913Y-131806761D01*
X114451909Y-131806767D01*
X114393327Y-131908233D01*
X114393326Y-131908236D01*
X114363000Y-132021415D01*
X112880000Y-132021415D01*
X112849674Y-131908236D01*
X112791089Y-131806764D01*
X112708236Y-131723911D01*
X112606764Y-131665326D01*
X112493585Y-131635000D01*
X112376415Y-131635000D01*
X112263236Y-131665326D01*
X112263233Y-131665327D01*
X112161767Y-131723909D01*
X112161761Y-131723913D01*
X112078913Y-131806761D01*
X112078909Y-131806767D01*
X112020327Y-131908233D01*
X112020326Y-131908236D01*
X111990000Y-132021415D01*
X89496500Y-132021415D01*
X89496500Y-131983079D01*
X89466176Y-131791623D01*
X89406276Y-131607268D01*
X89406276Y-131607267D01*
X89318272Y-131434552D01*
X89280090Y-131381999D01*
X89204336Y-131277732D01*
X89067268Y-131140664D01*
X88910447Y-131026727D01*
X88820258Y-130980773D01*
X88737732Y-130938723D01*
X88737729Y-130938722D01*
X88553378Y-130878824D01*
X88550796Y-130878415D01*
X115506000Y-130878415D01*
X115506000Y-130995585D01*
X115536326Y-131108764D01*
X115594911Y-131210236D01*
X115677764Y-131293089D01*
X115779236Y-131351674D01*
X115892415Y-131382000D01*
X115892417Y-131382000D01*
X116009583Y-131382000D01*
X116009585Y-131382000D01*
X116122764Y-131351674D01*
X116224236Y-131293089D01*
X116307089Y-131210236D01*
X116365674Y-131108764D01*
X116396000Y-130995585D01*
X116396000Y-130878415D01*
X121221000Y-130878415D01*
X121221000Y-130995585D01*
X121251326Y-131108764D01*
X121309911Y-131210236D01*
X121392764Y-131293089D01*
X121494236Y-131351674D01*
X121607415Y-131382000D01*
X121607417Y-131382000D01*
X121724583Y-131382000D01*
X121724585Y-131382000D01*
X121837764Y-131351674D01*
X121939236Y-131293089D01*
X122022089Y-131210236D01*
X122080674Y-131108764D01*
X122111000Y-130995585D01*
X122111000Y-130878415D01*
X122080674Y-130765236D01*
X122022089Y-130663764D01*
X121939236Y-130580911D01*
X121837764Y-130522326D01*
X121724585Y-130492000D01*
X121607415Y-130492000D01*
X121494236Y-130522326D01*
X121494233Y-130522327D01*
X121392767Y-130580909D01*
X121392761Y-130580913D01*
X121309913Y-130663761D01*
X121309909Y-130663767D01*
X121251327Y-130765233D01*
X121251326Y-130765236D01*
X121221000Y-130878415D01*
X116396000Y-130878415D01*
X116365674Y-130765236D01*
X116307089Y-130663764D01*
X116224236Y-130580911D01*
X116122764Y-130522326D01*
X116009585Y-130492000D01*
X115892415Y-130492000D01*
X115779236Y-130522326D01*
X115779233Y-130522327D01*
X115677767Y-130580909D01*
X115677761Y-130580913D01*
X115594913Y-130663761D01*
X115594909Y-130663767D01*
X115536327Y-130765233D01*
X115536326Y-130765236D01*
X115506000Y-130878415D01*
X88550796Y-130878415D01*
X88457649Y-130863662D01*
X88361921Y-130848500D01*
X88168079Y-130848500D01*
X88104260Y-130858608D01*
X87976621Y-130878824D01*
X87792270Y-130938722D01*
X87792267Y-130938723D01*
X87619552Y-131026727D01*
X87462729Y-131140666D01*
X87325666Y-131277729D01*
X87211727Y-131434552D01*
X87123723Y-131607267D01*
X87123722Y-131607270D01*
X87063824Y-131791621D01*
X87033500Y-131983079D01*
X86753300Y-131983079D01*
X86753300Y-131978721D01*
X86753300Y-131978718D01*
X86753299Y-131978716D01*
X86713783Y-131780056D01*
X86690527Y-131723911D01*
X86636271Y-131592923D01*
X86636264Y-131592910D01*
X86523733Y-131424497D01*
X86523730Y-131424493D01*
X86380506Y-131281269D01*
X86380502Y-131281266D01*
X86212089Y-131168735D01*
X86212076Y-131168728D01*
X86024948Y-131091218D01*
X86024936Y-131091215D01*
X85826282Y-131051700D01*
X85826279Y-131051700D01*
X85623721Y-131051700D01*
X85623718Y-131051700D01*
X85425063Y-131091215D01*
X85425051Y-131091218D01*
X85237923Y-131168728D01*
X85237910Y-131168735D01*
X85069497Y-131281266D01*
X85069493Y-131281269D01*
X84926269Y-131424493D01*
X84926266Y-131424497D01*
X84813735Y-131592910D01*
X84813728Y-131592923D01*
X84736218Y-131780051D01*
X84736215Y-131780063D01*
X84696700Y-131978716D01*
X78740000Y-131978716D01*
X78740000Y-129437465D01*
X84684000Y-129437465D01*
X84684000Y-129642534D01*
X84724003Y-129843641D01*
X84724005Y-129843649D01*
X84802478Y-130033099D01*
X84916400Y-130203597D01*
X84916406Y-130203604D01*
X85061395Y-130348593D01*
X85061402Y-130348599D01*
X85231900Y-130462521D01*
X85231901Y-130462521D01*
X85231902Y-130462522D01*
X85421351Y-130540995D01*
X85622013Y-130580909D01*
X85622465Y-130580999D01*
X85622469Y-130581000D01*
X85622470Y-130581000D01*
X85827531Y-130581000D01*
X85827532Y-130580999D01*
X86028649Y-130540995D01*
X86218098Y-130462522D01*
X86388599Y-130348598D01*
X86533598Y-130203599D01*
X86647522Y-130033098D01*
X86725995Y-129843649D01*
X86766000Y-129642530D01*
X86766000Y-129437470D01*
X86765999Y-129437465D01*
X87224000Y-129437465D01*
X87224000Y-129642534D01*
X87264003Y-129843641D01*
X87264005Y-129843649D01*
X87342478Y-130033099D01*
X87456400Y-130203597D01*
X87456406Y-130203604D01*
X87601395Y-130348593D01*
X87601402Y-130348599D01*
X87771900Y-130462521D01*
X87771901Y-130462521D01*
X87771902Y-130462522D01*
X87961351Y-130540995D01*
X88162013Y-130580909D01*
X88162465Y-130580999D01*
X88162469Y-130581000D01*
X88162470Y-130581000D01*
X88367531Y-130581000D01*
X88367532Y-130580999D01*
X88568649Y-130540995D01*
X88758098Y-130462522D01*
X88928599Y-130348598D01*
X89073598Y-130203599D01*
X89187522Y-130033098D01*
X89265995Y-129843649D01*
X89306000Y-129642530D01*
X89306000Y-129437470D01*
X89265995Y-129236351D01*
X89209688Y-129100415D01*
X118300000Y-129100415D01*
X118300000Y-129217585D01*
X118330326Y-129330764D01*
X118388911Y-129432236D01*
X118471764Y-129515089D01*
X118573236Y-129573674D01*
X118686415Y-129604000D01*
X118686417Y-129604000D01*
X118803583Y-129604000D01*
X118803585Y-129604000D01*
X118916764Y-129573674D01*
X119018236Y-129515089D01*
X119101089Y-129432236D01*
X119159674Y-129330764D01*
X119190000Y-129217585D01*
X119190000Y-129100415D01*
X119159674Y-128987236D01*
X119101089Y-128885764D01*
X119018236Y-128802911D01*
X118916764Y-128744326D01*
X118803585Y-128714000D01*
X118686415Y-128714000D01*
X118573236Y-128744326D01*
X118573233Y-128744327D01*
X118471767Y-128802909D01*
X118471761Y-128802913D01*
X118388913Y-128885761D01*
X118388909Y-128885767D01*
X118330327Y-128987233D01*
X118330326Y-128987236D01*
X118300000Y-129100415D01*
X89209688Y-129100415D01*
X89205526Y-129090368D01*
X89187523Y-129046903D01*
X89187521Y-129046900D01*
X89073599Y-128876402D01*
X89073593Y-128876395D01*
X88928604Y-128731406D01*
X88928597Y-128731400D01*
X88758099Y-128617478D01*
X88568649Y-128539005D01*
X88568641Y-128539003D01*
X88367534Y-128499000D01*
X88367530Y-128499000D01*
X88162470Y-128499000D01*
X88162465Y-128499000D01*
X87961358Y-128539003D01*
X87961350Y-128539005D01*
X87771900Y-128617478D01*
X87601402Y-128731400D01*
X87601395Y-128731406D01*
X87456406Y-128876395D01*
X87456400Y-128876402D01*
X87342478Y-129046900D01*
X87264005Y-129236350D01*
X87264003Y-129236358D01*
X87224000Y-129437465D01*
X86765999Y-129437465D01*
X86725995Y-129236351D01*
X86647522Y-129046902D01*
X86533598Y-128876401D01*
X86533593Y-128876395D01*
X86388604Y-128731406D01*
X86388597Y-128731400D01*
X86218099Y-128617478D01*
X86028649Y-128539005D01*
X86028641Y-128539003D01*
X85827534Y-128499000D01*
X85827530Y-128499000D01*
X85622470Y-128499000D01*
X85622465Y-128499000D01*
X85421358Y-128539003D01*
X85421350Y-128539005D01*
X85231900Y-128617478D01*
X85061402Y-128731400D01*
X85061395Y-128731406D01*
X84916406Y-128876395D01*
X84916400Y-128876402D01*
X84802478Y-129046900D01*
X84724005Y-129236350D01*
X84724003Y-129236358D01*
X84684000Y-129437465D01*
X78740000Y-129437465D01*
X78740000Y-126897465D01*
X84684000Y-126897465D01*
X84684000Y-127102534D01*
X84724003Y-127303641D01*
X84724005Y-127303649D01*
X84802478Y-127493099D01*
X84916400Y-127663597D01*
X84916406Y-127663604D01*
X85061395Y-127808593D01*
X85061402Y-127808599D01*
X85231900Y-127922521D01*
X85231901Y-127922521D01*
X85231902Y-127922522D01*
X85421351Y-128000995D01*
X85622465Y-128040999D01*
X85622469Y-128041000D01*
X85622470Y-128041000D01*
X85827531Y-128041000D01*
X85827532Y-128040999D01*
X86028649Y-128000995D01*
X86218098Y-127922522D01*
X86388599Y-127808598D01*
X86533598Y-127663599D01*
X86647522Y-127493098D01*
X86725995Y-127303649D01*
X86766000Y-127102530D01*
X86766000Y-126897470D01*
X86765999Y-126897465D01*
X87224000Y-126897465D01*
X87224000Y-127102534D01*
X87264003Y-127303641D01*
X87264005Y-127303649D01*
X87342478Y-127493099D01*
X87456400Y-127663597D01*
X87456406Y-127663604D01*
X87601395Y-127808593D01*
X87601402Y-127808599D01*
X87771900Y-127922521D01*
X87771901Y-127922521D01*
X87771902Y-127922522D01*
X87961351Y-128000995D01*
X88162465Y-128040999D01*
X88162469Y-128041000D01*
X88162470Y-128041000D01*
X88367531Y-128041000D01*
X88367532Y-128040999D01*
X88568649Y-128000995D01*
X88758098Y-127922522D01*
X88928599Y-127808598D01*
X89073598Y-127663599D01*
X89131852Y-127576415D01*
X111950000Y-127576415D01*
X111950000Y-127693585D01*
X111980326Y-127806764D01*
X112038911Y-127908236D01*
X112121764Y-127991089D01*
X112223236Y-128049674D01*
X112336415Y-128080000D01*
X112336417Y-128080000D01*
X112453583Y-128080000D01*
X112453585Y-128080000D01*
X112566764Y-128049674D01*
X112668236Y-127991089D01*
X112751089Y-127908236D01*
X112809674Y-127806764D01*
X112840000Y-127693585D01*
X112840000Y-127576415D01*
X112809674Y-127463236D01*
X112751089Y-127361764D01*
X112668236Y-127278911D01*
X112566764Y-127220326D01*
X112453585Y-127190000D01*
X112336415Y-127190000D01*
X112223236Y-127220326D01*
X112223233Y-127220327D01*
X112121767Y-127278909D01*
X112121761Y-127278913D01*
X112038913Y-127361761D01*
X112038909Y-127361767D01*
X111980327Y-127463233D01*
X111980326Y-127463236D01*
X111950000Y-127576415D01*
X89131852Y-127576415D01*
X89187522Y-127493098D01*
X89265995Y-127303649D01*
X89306000Y-127102530D01*
X89306000Y-126897470D01*
X89265995Y-126696351D01*
X89187522Y-126506902D01*
X89155329Y-126458722D01*
X89073599Y-126336402D01*
X89073593Y-126336395D01*
X88928604Y-126191406D01*
X88928597Y-126191400D01*
X88758099Y-126077478D01*
X88758096Y-126077476D01*
X88735758Y-126068224D01*
X88735757Y-126068224D01*
X88568649Y-125999005D01*
X88568641Y-125999003D01*
X88381560Y-125961790D01*
X117193375Y-125961790D01*
X117193375Y-126078960D01*
X117223701Y-126192139D01*
X117282286Y-126293611D01*
X117365139Y-126376464D01*
X117466611Y-126435049D01*
X117579790Y-126465375D01*
X117579792Y-126465375D01*
X117696958Y-126465375D01*
X117696960Y-126465375D01*
X117810139Y-126435049D01*
X117911611Y-126376464D01*
X117994464Y-126293611D01*
X118053049Y-126192139D01*
X118083375Y-126078960D01*
X118083375Y-125985465D01*
X119570000Y-125985465D01*
X119570000Y-126102635D01*
X119600326Y-126215814D01*
X119658911Y-126317286D01*
X119741764Y-126400139D01*
X119843236Y-126458724D01*
X119956415Y-126489050D01*
X119956417Y-126489050D01*
X120073583Y-126489050D01*
X120073585Y-126489050D01*
X120186764Y-126458724D01*
X120288236Y-126400139D01*
X120371089Y-126317286D01*
X120429674Y-126215814D01*
X120460000Y-126102635D01*
X120460000Y-125985465D01*
X120429674Y-125872286D01*
X120371089Y-125770814D01*
X120288236Y-125687961D01*
X120186764Y-125629376D01*
X120073585Y-125599050D01*
X119956415Y-125599050D01*
X119843236Y-125629376D01*
X119843233Y-125629377D01*
X119741767Y-125687959D01*
X119741761Y-125687963D01*
X119658913Y-125770811D01*
X119658909Y-125770817D01*
X119600327Y-125872283D01*
X119600326Y-125872286D01*
X119570000Y-125985465D01*
X118083375Y-125985465D01*
X118083375Y-125961790D01*
X118053049Y-125848611D01*
X117994464Y-125747139D01*
X117911611Y-125664286D01*
X117810139Y-125605701D01*
X117696960Y-125575375D01*
X117579790Y-125575375D01*
X117466611Y-125605701D01*
X117466608Y-125605702D01*
X117365142Y-125664284D01*
X117365136Y-125664288D01*
X117282288Y-125747136D01*
X117282284Y-125747142D01*
X117223702Y-125848608D01*
X117223701Y-125848611D01*
X117193375Y-125961790D01*
X88381560Y-125961790D01*
X88367534Y-125959000D01*
X88367530Y-125959000D01*
X88162470Y-125959000D01*
X88162465Y-125959000D01*
X87961358Y-125999003D01*
X87961350Y-125999005D01*
X87771900Y-126077478D01*
X87601402Y-126191400D01*
X87601395Y-126191406D01*
X87456406Y-126336395D01*
X87456400Y-126336402D01*
X87342478Y-126506900D01*
X87264005Y-126696350D01*
X87264003Y-126696358D01*
X87224000Y-126897465D01*
X86765999Y-126897465D01*
X86725995Y-126696351D01*
X86647522Y-126506902D01*
X86615329Y-126458722D01*
X86533599Y-126336402D01*
X86533593Y-126336395D01*
X86388604Y-126191406D01*
X86388597Y-126191400D01*
X86218099Y-126077478D01*
X86028649Y-125999005D01*
X86028641Y-125999003D01*
X85827534Y-125959000D01*
X85827530Y-125959000D01*
X85622470Y-125959000D01*
X85622465Y-125959000D01*
X85421358Y-125999003D01*
X85421350Y-125999005D01*
X85231900Y-126077478D01*
X85061402Y-126191400D01*
X85061395Y-126191406D01*
X84916406Y-126336395D01*
X84916400Y-126336402D01*
X84802478Y-126506900D01*
X84724005Y-126696350D01*
X84724003Y-126696358D01*
X84684000Y-126897465D01*
X78740000Y-126897465D01*
X78740000Y-124357465D01*
X84684000Y-124357465D01*
X84684000Y-124562534D01*
X84724003Y-124763641D01*
X84724005Y-124763649D01*
X84802478Y-124953099D01*
X84916400Y-125123597D01*
X84916406Y-125123604D01*
X85061395Y-125268593D01*
X85061402Y-125268599D01*
X85231900Y-125382521D01*
X85231901Y-125382521D01*
X85231902Y-125382522D01*
X85421351Y-125460995D01*
X85622465Y-125500999D01*
X85622469Y-125501000D01*
X85622470Y-125501000D01*
X85827531Y-125501000D01*
X85827532Y-125500999D01*
X86028649Y-125460995D01*
X86218098Y-125382522D01*
X86388599Y-125268598D01*
X86533598Y-125123599D01*
X86647522Y-124953098D01*
X86725995Y-124763649D01*
X86766000Y-124562530D01*
X86766000Y-124357470D01*
X86765999Y-124357465D01*
X87224000Y-124357465D01*
X87224000Y-124562534D01*
X87264003Y-124763641D01*
X87264005Y-124763649D01*
X87342478Y-124953099D01*
X87456400Y-125123597D01*
X87456406Y-125123604D01*
X87601395Y-125268593D01*
X87601402Y-125268599D01*
X87771900Y-125382521D01*
X87771901Y-125382521D01*
X87771902Y-125382522D01*
X87961351Y-125460995D01*
X88162465Y-125500999D01*
X88162469Y-125501000D01*
X88162470Y-125501000D01*
X88367531Y-125501000D01*
X88367532Y-125500999D01*
X88568649Y-125460995D01*
X88758098Y-125382522D01*
X88928599Y-125268598D01*
X89073598Y-125123599D01*
X89187522Y-124953098D01*
X89265995Y-124763649D01*
X89282352Y-124681415D01*
X117030000Y-124681415D01*
X117030000Y-124798585D01*
X117060326Y-124911764D01*
X117118911Y-125013236D01*
X117201764Y-125096089D01*
X117303236Y-125154674D01*
X117416415Y-125185000D01*
X117416417Y-125185000D01*
X117533583Y-125185000D01*
X117533585Y-125185000D01*
X117646764Y-125154674D01*
X117748236Y-125096089D01*
X117831089Y-125013236D01*
X117889674Y-124911764D01*
X117920000Y-124798585D01*
X117920000Y-124681415D01*
X117889674Y-124568236D01*
X117831089Y-124466764D01*
X117765740Y-124401415D01*
X122745000Y-124401415D01*
X122745000Y-124518585D01*
X122775326Y-124631764D01*
X122833911Y-124733236D01*
X122916764Y-124816089D01*
X123018236Y-124874674D01*
X123131415Y-124905000D01*
X123131417Y-124905000D01*
X123248583Y-124905000D01*
X123248585Y-124905000D01*
X123361764Y-124874674D01*
X123463236Y-124816089D01*
X123546089Y-124733236D01*
X123604674Y-124631764D01*
X123635000Y-124518585D01*
X123635000Y-124401415D01*
X123604674Y-124288236D01*
X123546089Y-124186764D01*
X123463236Y-124103911D01*
X123361764Y-124045326D01*
X123248585Y-124015000D01*
X123131415Y-124015000D01*
X123018236Y-124045326D01*
X123018233Y-124045327D01*
X122916767Y-124103909D01*
X122916761Y-124103913D01*
X122833913Y-124186761D01*
X122833909Y-124186767D01*
X122775327Y-124288233D01*
X122775326Y-124288236D01*
X122745000Y-124401415D01*
X117765740Y-124401415D01*
X117748236Y-124383911D01*
X117646764Y-124325326D01*
X117533585Y-124295000D01*
X117416415Y-124295000D01*
X117303236Y-124325326D01*
X117303233Y-124325327D01*
X117201767Y-124383909D01*
X117201761Y-124383913D01*
X117118913Y-124466761D01*
X117118909Y-124466767D01*
X117060327Y-124568233D01*
X117060326Y-124568236D01*
X117030000Y-124681415D01*
X89282352Y-124681415D01*
X89306000Y-124562530D01*
X89306000Y-124357470D01*
X89265995Y-124156351D01*
X89187522Y-123966902D01*
X89132797Y-123885000D01*
X89073599Y-123796402D01*
X89073593Y-123796395D01*
X88928604Y-123651406D01*
X88928597Y-123651400D01*
X88758099Y-123537478D01*
X88638284Y-123487849D01*
X88568649Y-123459005D01*
X88568641Y-123459003D01*
X88367534Y-123419000D01*
X88367530Y-123419000D01*
X88162470Y-123419000D01*
X88162465Y-123419000D01*
X87961358Y-123459003D01*
X87961350Y-123459005D01*
X87771900Y-123537478D01*
X87601402Y-123651400D01*
X87601395Y-123651406D01*
X87456406Y-123796395D01*
X87456400Y-123796402D01*
X87342478Y-123966900D01*
X87264005Y-124156350D01*
X87264003Y-124156358D01*
X87224000Y-124357465D01*
X86765999Y-124357465D01*
X86725995Y-124156351D01*
X86647522Y-123966902D01*
X86592797Y-123885000D01*
X86533599Y-123796402D01*
X86533593Y-123796395D01*
X86388604Y-123651406D01*
X86388597Y-123651400D01*
X86218099Y-123537478D01*
X86028649Y-123459005D01*
X86028641Y-123459003D01*
X85827534Y-123419000D01*
X85827530Y-123419000D01*
X85622470Y-123419000D01*
X85622465Y-123419000D01*
X85421358Y-123459003D01*
X85421350Y-123459005D01*
X85231900Y-123537478D01*
X85061402Y-123651400D01*
X85061395Y-123651406D01*
X84916406Y-123796395D01*
X84916400Y-123796402D01*
X84802478Y-123966900D01*
X84724005Y-124156350D01*
X84724003Y-124156358D01*
X84684000Y-124357465D01*
X78740000Y-124357465D01*
X78740000Y-123381415D01*
X113986000Y-123381415D01*
X113986000Y-123498585D01*
X114016326Y-123611764D01*
X114074911Y-123713236D01*
X114157764Y-123796089D01*
X114259236Y-123854674D01*
X114372415Y-123885000D01*
X114372417Y-123885000D01*
X114489583Y-123885000D01*
X114489585Y-123885000D01*
X114602764Y-123854674D01*
X114704236Y-123796089D01*
X114787089Y-123713236D01*
X114845674Y-123611764D01*
X114876000Y-123498585D01*
X114876000Y-123381415D01*
X114845674Y-123268236D01*
X114787089Y-123166764D01*
X114704236Y-123083911D01*
X114607695Y-123028173D01*
X114602766Y-123025327D01*
X114602765Y-123025326D01*
X114602764Y-123025326D01*
X114489585Y-122995000D01*
X114372415Y-122995000D01*
X114259236Y-123025326D01*
X114259233Y-123025327D01*
X114157767Y-123083909D01*
X114157761Y-123083913D01*
X114074913Y-123166761D01*
X114074909Y-123166767D01*
X114016327Y-123268233D01*
X114016326Y-123268236D01*
X113986000Y-123381415D01*
X78740000Y-123381415D01*
X78740000Y-121817465D01*
X84684000Y-121817465D01*
X84684000Y-122022534D01*
X84724003Y-122223641D01*
X84724005Y-122223649D01*
X84802478Y-122413099D01*
X84916400Y-122583597D01*
X84916406Y-122583604D01*
X85061395Y-122728593D01*
X85061402Y-122728599D01*
X85231900Y-122842521D01*
X85231901Y-122842521D01*
X85231902Y-122842522D01*
X85421351Y-122920995D01*
X85622465Y-122960999D01*
X85622469Y-122961000D01*
X85622470Y-122961000D01*
X85827531Y-122961000D01*
X85827532Y-122960999D01*
X86028649Y-122920995D01*
X86218098Y-122842522D01*
X86388599Y-122728598D01*
X86533598Y-122583599D01*
X86647522Y-122413098D01*
X86725995Y-122223649D01*
X86766000Y-122022530D01*
X86766000Y-121817470D01*
X86765999Y-121817465D01*
X87224000Y-121817465D01*
X87224000Y-122022534D01*
X87264003Y-122223641D01*
X87264005Y-122223649D01*
X87342478Y-122413099D01*
X87456400Y-122583597D01*
X87456406Y-122583604D01*
X87601395Y-122728593D01*
X87601402Y-122728599D01*
X87771900Y-122842521D01*
X87771901Y-122842521D01*
X87771902Y-122842522D01*
X87961351Y-122920995D01*
X88162465Y-122960999D01*
X88162469Y-122961000D01*
X88162470Y-122961000D01*
X88367531Y-122961000D01*
X88367532Y-122960999D01*
X88568649Y-122920995D01*
X88758098Y-122842522D01*
X88928599Y-122728598D01*
X89073598Y-122583599D01*
X89092763Y-122554915D01*
X121162500Y-122554915D01*
X121162500Y-122672085D01*
X121192826Y-122785264D01*
X121251411Y-122886736D01*
X121334264Y-122969589D01*
X121435736Y-123028174D01*
X121548915Y-123058500D01*
X121548917Y-123058500D01*
X121666083Y-123058500D01*
X121666085Y-123058500D01*
X121779264Y-123028174D01*
X121880736Y-122969589D01*
X121963589Y-122886736D01*
X122022174Y-122785264D01*
X122052500Y-122672085D01*
X122052500Y-122554915D01*
X122022174Y-122441736D01*
X121963589Y-122340264D01*
X121880736Y-122257411D01*
X121779264Y-122198826D01*
X121666085Y-122168500D01*
X121548915Y-122168500D01*
X121435736Y-122198826D01*
X121435733Y-122198827D01*
X121334267Y-122257409D01*
X121334261Y-122257413D01*
X121251413Y-122340261D01*
X121251409Y-122340267D01*
X121192827Y-122441733D01*
X121192826Y-122441736D01*
X121162500Y-122554915D01*
X89092763Y-122554915D01*
X89100465Y-122543387D01*
X89144225Y-122477898D01*
X89187521Y-122413099D01*
X89187522Y-122413098D01*
X89265995Y-122223649D01*
X89306000Y-122022530D01*
X89306000Y-121817470D01*
X89265995Y-121616351D01*
X89226758Y-121521626D01*
X89187523Y-121426903D01*
X89094162Y-121287178D01*
X89073598Y-121256401D01*
X89073596Y-121256398D01*
X89043613Y-121226415D01*
X113855000Y-121226415D01*
X113855000Y-121343585D01*
X113885326Y-121456764D01*
X113943911Y-121558236D01*
X114026764Y-121641089D01*
X114128236Y-121699674D01*
X114241415Y-121730000D01*
X114241417Y-121730000D01*
X114358583Y-121730000D01*
X114358585Y-121730000D01*
X114471764Y-121699674D01*
X114573236Y-121641089D01*
X114656089Y-121558236D01*
X114714674Y-121456764D01*
X114745000Y-121343585D01*
X114745000Y-121226415D01*
X122745000Y-121226415D01*
X122745000Y-121343585D01*
X122775326Y-121456764D01*
X122833911Y-121558236D01*
X122916764Y-121641089D01*
X123018236Y-121699674D01*
X123131415Y-121730000D01*
X123131417Y-121730000D01*
X123248583Y-121730000D01*
X123248585Y-121730000D01*
X123361764Y-121699674D01*
X123463236Y-121641089D01*
X123546089Y-121558236D01*
X123604674Y-121456764D01*
X123635000Y-121343585D01*
X123635000Y-121226415D01*
X123604674Y-121113236D01*
X123546089Y-121011764D01*
X123463236Y-120928911D01*
X123361764Y-120870326D01*
X123248585Y-120840000D01*
X123131415Y-120840000D01*
X123018236Y-120870326D01*
X123018233Y-120870327D01*
X122916767Y-120928909D01*
X122916761Y-120928913D01*
X122833913Y-121011761D01*
X122833909Y-121011767D01*
X122775327Y-121113233D01*
X122775326Y-121113236D01*
X122745000Y-121226415D01*
X114745000Y-121226415D01*
X114714674Y-121113236D01*
X114656089Y-121011764D01*
X114573236Y-120928911D01*
X114471764Y-120870326D01*
X114358585Y-120840000D01*
X114241415Y-120840000D01*
X114128236Y-120870326D01*
X114128233Y-120870327D01*
X114026767Y-120928909D01*
X114026761Y-120928913D01*
X113943913Y-121011761D01*
X113943909Y-121011767D01*
X113885327Y-121113233D01*
X113885326Y-121113236D01*
X113855000Y-121226415D01*
X89043613Y-121226415D01*
X88928604Y-121111406D01*
X88928597Y-121111400D01*
X88758099Y-120997478D01*
X88568649Y-120919005D01*
X88568641Y-120919003D01*
X88367534Y-120879000D01*
X88367530Y-120879000D01*
X88162470Y-120879000D01*
X88162465Y-120879000D01*
X87961358Y-120919003D01*
X87961350Y-120919005D01*
X87771900Y-120997478D01*
X87601402Y-121111400D01*
X87601395Y-121111406D01*
X87456406Y-121256395D01*
X87456400Y-121256402D01*
X87342478Y-121426900D01*
X87264005Y-121616350D01*
X87264003Y-121616358D01*
X87224000Y-121817465D01*
X86765999Y-121817465D01*
X86725995Y-121616351D01*
X86647522Y-121426902D01*
X86591851Y-121343584D01*
X86533599Y-121256402D01*
X86533593Y-121256395D01*
X86388604Y-121111406D01*
X86388597Y-121111400D01*
X86218099Y-120997478D01*
X86028649Y-120919005D01*
X86028641Y-120919003D01*
X85827534Y-120879000D01*
X85827530Y-120879000D01*
X85622470Y-120879000D01*
X85622465Y-120879000D01*
X85421358Y-120919003D01*
X85421350Y-120919005D01*
X85231900Y-120997478D01*
X85061402Y-121111400D01*
X85061395Y-121111406D01*
X84916406Y-121256395D01*
X84916400Y-121256402D01*
X84802478Y-121426900D01*
X84724005Y-121616350D01*
X84724003Y-121616358D01*
X84684000Y-121817465D01*
X78740000Y-121817465D01*
X78740000Y-119277465D01*
X84684000Y-119277465D01*
X84684000Y-119482534D01*
X84724003Y-119683641D01*
X84724005Y-119683649D01*
X84802478Y-119873099D01*
X84916400Y-120043597D01*
X84916406Y-120043604D01*
X85061395Y-120188593D01*
X85061402Y-120188599D01*
X85231900Y-120302521D01*
X85231901Y-120302521D01*
X85231902Y-120302522D01*
X85421351Y-120380995D01*
X85622465Y-120420999D01*
X85622469Y-120421000D01*
X85622470Y-120421000D01*
X85827531Y-120421000D01*
X85827532Y-120420999D01*
X86028649Y-120380995D01*
X86218098Y-120302522D01*
X86388599Y-120188598D01*
X86533598Y-120043599D01*
X86647522Y-119873098D01*
X86725995Y-119683649D01*
X86766000Y-119482530D01*
X86766000Y-119277470D01*
X86765999Y-119277465D01*
X87224000Y-119277465D01*
X87224000Y-119482534D01*
X87264003Y-119683641D01*
X87264005Y-119683649D01*
X87342478Y-119873099D01*
X87456400Y-120043597D01*
X87456406Y-120043604D01*
X87601395Y-120188593D01*
X87601402Y-120188599D01*
X87771900Y-120302521D01*
X87771901Y-120302521D01*
X87771902Y-120302522D01*
X87961351Y-120380995D01*
X88162465Y-120420999D01*
X88162469Y-120421000D01*
X88162470Y-120421000D01*
X88367531Y-120421000D01*
X88367532Y-120420999D01*
X88568649Y-120380995D01*
X88758098Y-120302522D01*
X88928599Y-120188598D01*
X89073598Y-120043599D01*
X89187522Y-119873098D01*
X89265995Y-119683649D01*
X89306000Y-119482530D01*
X89306000Y-119277470D01*
X89265995Y-119076351D01*
X89187522Y-118886902D01*
X89073598Y-118716401D01*
X89073593Y-118716395D01*
X88928604Y-118571406D01*
X88928597Y-118571400D01*
X88758099Y-118457478D01*
X88568649Y-118379005D01*
X88568641Y-118379003D01*
X88367534Y-118339000D01*
X88367530Y-118339000D01*
X88162470Y-118339000D01*
X88162465Y-118339000D01*
X87961358Y-118379003D01*
X87961350Y-118379005D01*
X87771900Y-118457478D01*
X87601402Y-118571400D01*
X87601395Y-118571406D01*
X87456406Y-118716395D01*
X87456400Y-118716402D01*
X87342478Y-118886900D01*
X87264005Y-119076350D01*
X87264003Y-119076358D01*
X87224000Y-119277465D01*
X86765999Y-119277465D01*
X86725995Y-119076351D01*
X86647522Y-118886902D01*
X86533598Y-118716401D01*
X86533593Y-118716395D01*
X86388604Y-118571406D01*
X86388597Y-118571400D01*
X86218099Y-118457478D01*
X86028649Y-118379005D01*
X86028641Y-118379003D01*
X85827534Y-118339000D01*
X85827530Y-118339000D01*
X85622470Y-118339000D01*
X85622465Y-118339000D01*
X85421358Y-118379003D01*
X85421350Y-118379005D01*
X85231900Y-118457478D01*
X85061402Y-118571400D01*
X85061395Y-118571406D01*
X84916406Y-118716395D01*
X84916400Y-118716402D01*
X84802478Y-118886900D01*
X84724005Y-119076350D01*
X84724003Y-119076358D01*
X84684000Y-119277465D01*
X78740000Y-119277465D01*
X78740000Y-116737465D01*
X84684000Y-116737465D01*
X84684000Y-116942534D01*
X84724003Y-117143641D01*
X84724005Y-117143649D01*
X84802478Y-117333099D01*
X84916400Y-117503597D01*
X84916406Y-117503604D01*
X85061395Y-117648593D01*
X85061402Y-117648599D01*
X85231900Y-117762521D01*
X85231901Y-117762521D01*
X85231902Y-117762522D01*
X85421351Y-117840995D01*
X85622465Y-117880999D01*
X85622469Y-117881000D01*
X85622470Y-117881000D01*
X85827531Y-117881000D01*
X85827532Y-117880999D01*
X86028649Y-117840995D01*
X86218098Y-117762522D01*
X86388599Y-117648598D01*
X86533598Y-117503599D01*
X86647522Y-117333098D01*
X86725995Y-117143649D01*
X86766000Y-116942530D01*
X86766000Y-116737470D01*
X86765999Y-116737465D01*
X87224000Y-116737465D01*
X87224000Y-116942534D01*
X87264003Y-117143641D01*
X87264005Y-117143649D01*
X87342478Y-117333099D01*
X87456400Y-117503597D01*
X87456406Y-117503604D01*
X87601395Y-117648593D01*
X87601402Y-117648599D01*
X87771900Y-117762521D01*
X87771901Y-117762521D01*
X87771902Y-117762522D01*
X87961351Y-117840995D01*
X88162465Y-117880999D01*
X88162469Y-117881000D01*
X88162470Y-117881000D01*
X88367531Y-117881000D01*
X88367532Y-117880999D01*
X88568649Y-117840995D01*
X88758098Y-117762522D01*
X88928599Y-117648598D01*
X89073598Y-117503599D01*
X89187522Y-117333098D01*
X89265995Y-117143649D01*
X89306000Y-116942530D01*
X89306000Y-116737470D01*
X89265995Y-116536351D01*
X89187522Y-116346902D01*
X89151046Y-116292312D01*
X89073599Y-116176402D01*
X89073593Y-116176395D01*
X88928604Y-116031406D01*
X88928597Y-116031400D01*
X88758099Y-115917478D01*
X88568649Y-115839005D01*
X88568641Y-115839003D01*
X88367534Y-115799000D01*
X88367530Y-115799000D01*
X88162470Y-115799000D01*
X88162465Y-115799000D01*
X87961358Y-115839003D01*
X87961350Y-115839005D01*
X87771900Y-115917478D01*
X87601402Y-116031400D01*
X87601395Y-116031406D01*
X87456406Y-116176395D01*
X87456400Y-116176402D01*
X87342478Y-116346900D01*
X87264005Y-116536350D01*
X87264003Y-116536358D01*
X87224000Y-116737465D01*
X86765999Y-116737465D01*
X86725995Y-116536351D01*
X86647522Y-116346902D01*
X86611046Y-116292312D01*
X86533599Y-116176402D01*
X86533593Y-116176395D01*
X86388604Y-116031406D01*
X86388597Y-116031400D01*
X86218099Y-115917478D01*
X86028649Y-115839005D01*
X86028641Y-115839003D01*
X85827534Y-115799000D01*
X85827530Y-115799000D01*
X85622470Y-115799000D01*
X85622465Y-115799000D01*
X85421358Y-115839003D01*
X85421350Y-115839005D01*
X85231900Y-115917478D01*
X85061402Y-116031400D01*
X85061395Y-116031406D01*
X84916406Y-116176395D01*
X84916400Y-116176402D01*
X84802478Y-116346900D01*
X84724005Y-116536350D01*
X84724003Y-116536358D01*
X84684000Y-116737465D01*
X78740000Y-116737465D01*
X78740000Y-114197465D01*
X84684000Y-114197465D01*
X84684000Y-114402534D01*
X84724003Y-114603641D01*
X84724005Y-114603649D01*
X84802478Y-114793099D01*
X84916400Y-114963597D01*
X84916406Y-114963604D01*
X85061395Y-115108593D01*
X85061402Y-115108599D01*
X85231900Y-115222521D01*
X85231901Y-115222521D01*
X85231902Y-115222522D01*
X85421351Y-115300995D01*
X85622465Y-115340999D01*
X85622469Y-115341000D01*
X85622470Y-115341000D01*
X85827531Y-115341000D01*
X85827532Y-115340999D01*
X86028649Y-115300995D01*
X86218098Y-115222522D01*
X86388599Y-115108598D01*
X86533598Y-114963599D01*
X86647522Y-114793098D01*
X86725995Y-114603649D01*
X86766000Y-114402530D01*
X86766000Y-114197470D01*
X86765999Y-114197465D01*
X87224000Y-114197465D01*
X87224000Y-114402534D01*
X87264003Y-114603641D01*
X87264005Y-114603649D01*
X87342478Y-114793099D01*
X87456400Y-114963597D01*
X87456406Y-114963604D01*
X87601395Y-115108593D01*
X87601402Y-115108599D01*
X87771900Y-115222521D01*
X87771901Y-115222521D01*
X87771902Y-115222522D01*
X87961351Y-115300995D01*
X88162465Y-115340999D01*
X88162469Y-115341000D01*
X88162470Y-115341000D01*
X88367531Y-115341000D01*
X88367532Y-115340999D01*
X88568649Y-115300995D01*
X88758098Y-115222522D01*
X88928599Y-115108598D01*
X89073598Y-114963599D01*
X89187522Y-114793098D01*
X89265995Y-114603649D01*
X89306000Y-114402530D01*
X89306000Y-114197470D01*
X89265995Y-113996351D01*
X89238587Y-113930183D01*
X118724000Y-113930183D01*
X118724000Y-115867816D01*
X118735080Y-115923523D01*
X118735081Y-115923524D01*
X118777296Y-115986703D01*
X118840475Y-116028918D01*
X118840476Y-116028919D01*
X118896183Y-116039999D01*
X118896186Y-116040000D01*
X118896188Y-116040000D01*
X120833814Y-116040000D01*
X120833815Y-116039999D01*
X120847930Y-116037191D01*
X120889523Y-116028919D01*
X120889523Y-116028918D01*
X120889525Y-116028918D01*
X120952703Y-115986703D01*
X120994918Y-115923525D01*
X120994918Y-115923523D01*
X120994919Y-115923523D01*
X121005999Y-115867816D01*
X121006000Y-115867814D01*
X121006000Y-115222920D01*
X123114499Y-115222920D01*
X123143340Y-115367907D01*
X123143343Y-115367917D01*
X123199912Y-115504488D01*
X123199919Y-115504501D01*
X123282048Y-115627415D01*
X123282051Y-115627419D01*
X123386580Y-115731948D01*
X123386584Y-115731951D01*
X123509498Y-115814080D01*
X123509511Y-115814087D01*
X123639216Y-115867812D01*
X123646087Y-115870658D01*
X123646091Y-115870658D01*
X123646092Y-115870659D01*
X123791079Y-115899500D01*
X123791082Y-115899500D01*
X123938920Y-115899500D01*
X124036462Y-115880096D01*
X124083913Y-115870658D01*
X124215423Y-115816185D01*
X124220488Y-115814087D01*
X124220488Y-115814086D01*
X124220495Y-115814084D01*
X124343416Y-115731951D01*
X124447951Y-115627416D01*
X124530084Y-115504495D01*
X124530087Y-115504488D01*
X124548848Y-115459195D01*
X126224000Y-115459195D01*
X126224000Y-115638804D01*
X126252094Y-115816181D01*
X126252095Y-115816185D01*
X126307594Y-115986992D01*
X126389129Y-116147014D01*
X126494694Y-116292311D01*
X126621689Y-116419306D01*
X126766986Y-116524871D01*
X126927008Y-116606406D01*
X127097815Y-116661905D01*
X127164334Y-116672440D01*
X127275196Y-116690000D01*
X127275201Y-116690000D01*
X127454804Y-116690000D01*
X127553346Y-116674391D01*
X127632185Y-116661905D01*
X127802992Y-116606406D01*
X127963014Y-116524871D01*
X128108311Y-116419306D01*
X128235306Y-116292311D01*
X128340871Y-116147014D01*
X128422406Y-115986992D01*
X128477905Y-115816185D01*
X128491247Y-115731948D01*
X128506000Y-115638804D01*
X128506000Y-115459195D01*
X128480943Y-115300996D01*
X128477905Y-115281815D01*
X128422406Y-115111008D01*
X128340871Y-114950986D01*
X128235306Y-114805689D01*
X128108311Y-114678694D01*
X127963014Y-114573129D01*
X127802992Y-114491594D01*
X127632185Y-114436095D01*
X127632183Y-114436094D01*
X127632181Y-114436094D01*
X127454804Y-114408000D01*
X127454799Y-114408000D01*
X127275201Y-114408000D01*
X127275196Y-114408000D01*
X127097818Y-114436094D01*
X126927005Y-114491595D01*
X126766985Y-114573129D01*
X126724990Y-114603641D01*
X126621689Y-114678694D01*
X126621687Y-114678696D01*
X126621686Y-114678696D01*
X126494696Y-114805686D01*
X126494696Y-114805687D01*
X126494694Y-114805689D01*
X126449358Y-114868087D01*
X126389129Y-114950985D01*
X126307595Y-115111005D01*
X126252094Y-115281818D01*
X126224000Y-115459195D01*
X124548848Y-115459195D01*
X124570519Y-115406877D01*
X124586656Y-115367917D01*
X124586658Y-115367913D01*
X124603784Y-115281818D01*
X124615500Y-115222920D01*
X124615500Y-115075079D01*
X124586659Y-114930092D01*
X124586658Y-114930091D01*
X124586658Y-114930087D01*
X124535130Y-114805686D01*
X124530087Y-114793511D01*
X124530080Y-114793498D01*
X124447951Y-114670584D01*
X124447948Y-114670580D01*
X124343419Y-114566051D01*
X124343415Y-114566048D01*
X124220501Y-114483919D01*
X124220488Y-114483912D01*
X124083917Y-114427343D01*
X124083907Y-114427340D01*
X123938920Y-114398500D01*
X123938918Y-114398500D01*
X123791082Y-114398500D01*
X123791080Y-114398500D01*
X123646092Y-114427340D01*
X123646082Y-114427343D01*
X123509511Y-114483912D01*
X123509498Y-114483919D01*
X123386584Y-114566048D01*
X123386580Y-114566051D01*
X123282051Y-114670580D01*
X123282048Y-114670584D01*
X123199919Y-114793498D01*
X123199912Y-114793511D01*
X123143343Y-114930082D01*
X123143340Y-114930092D01*
X123114500Y-115075079D01*
X123114500Y-115075082D01*
X123114500Y-115222918D01*
X123114500Y-115222920D01*
X123114499Y-115222920D01*
X121006000Y-115222920D01*
X121006000Y-113930185D01*
X121005999Y-113930183D01*
X120994919Y-113874476D01*
X120994918Y-113874475D01*
X120952703Y-113811296D01*
X120889524Y-113769081D01*
X120889523Y-113769080D01*
X120833816Y-113758000D01*
X120833812Y-113758000D01*
X118896188Y-113758000D01*
X118896183Y-113758000D01*
X118840476Y-113769080D01*
X118840475Y-113769081D01*
X118777296Y-113811296D01*
X118735081Y-113874475D01*
X118735080Y-113874476D01*
X118724000Y-113930183D01*
X89238587Y-113930183D01*
X89207407Y-113854910D01*
X89187521Y-113806899D01*
X89073599Y-113636402D01*
X89073593Y-113636395D01*
X88928604Y-113491406D01*
X88928597Y-113491400D01*
X88758099Y-113377478D01*
X88568649Y-113299005D01*
X88568641Y-113299003D01*
X88367534Y-113259000D01*
X88367530Y-113259000D01*
X88162470Y-113259000D01*
X88162465Y-113259000D01*
X87961358Y-113299003D01*
X87961350Y-113299005D01*
X87771900Y-113377478D01*
X87601402Y-113491400D01*
X87601395Y-113491406D01*
X87456406Y-113636395D01*
X87456400Y-113636402D01*
X87342478Y-113806900D01*
X87264005Y-113996350D01*
X87264003Y-113996358D01*
X87224000Y-114197465D01*
X86765999Y-114197465D01*
X86725995Y-113996351D01*
X86647522Y-113806902D01*
X86622250Y-113769080D01*
X86533599Y-113636402D01*
X86533593Y-113636395D01*
X86388604Y-113491406D01*
X86388597Y-113491400D01*
X86218099Y-113377478D01*
X86028649Y-113299005D01*
X86028641Y-113299003D01*
X85827534Y-113259000D01*
X85827530Y-113259000D01*
X85622470Y-113259000D01*
X85622465Y-113259000D01*
X85421358Y-113299003D01*
X85421350Y-113299005D01*
X85231900Y-113377478D01*
X85061402Y-113491400D01*
X85061395Y-113491406D01*
X84916406Y-113636395D01*
X84916400Y-113636402D01*
X84802478Y-113806900D01*
X84724005Y-113996350D01*
X84724003Y-113996358D01*
X84684000Y-114197465D01*
X78740000Y-114197465D01*
X78740000Y-111657465D01*
X84684000Y-111657465D01*
X84684000Y-111862534D01*
X84724003Y-112063641D01*
X84724005Y-112063649D01*
X84802478Y-112253099D01*
X84916400Y-112423597D01*
X84916406Y-112423604D01*
X85061395Y-112568593D01*
X85061402Y-112568599D01*
X85231900Y-112682521D01*
X85231901Y-112682521D01*
X85231902Y-112682522D01*
X85421351Y-112760995D01*
X85622465Y-112800999D01*
X85622469Y-112801000D01*
X85622470Y-112801000D01*
X85827531Y-112801000D01*
X85827532Y-112800999D01*
X86028649Y-112760995D01*
X86218098Y-112682522D01*
X86388599Y-112568598D01*
X86533598Y-112423599D01*
X86647522Y-112253098D01*
X86725995Y-112063649D01*
X86766000Y-111862530D01*
X86766000Y-111657470D01*
X86725995Y-111456351D01*
X86647522Y-111266902D01*
X86564274Y-111142312D01*
X86533599Y-111096402D01*
X86533593Y-111096395D01*
X86388604Y-110951406D01*
X86388597Y-110951400D01*
X86218099Y-110837478D01*
X86028649Y-110759005D01*
X86028641Y-110759003D01*
X85827534Y-110719000D01*
X85827530Y-110719000D01*
X85622470Y-110719000D01*
X85622465Y-110719000D01*
X85421358Y-110759003D01*
X85421350Y-110759005D01*
X85231900Y-110837478D01*
X85061402Y-110951400D01*
X85061395Y-110951406D01*
X84916406Y-111096395D01*
X84916400Y-111096402D01*
X84802478Y-111266900D01*
X84724005Y-111456350D01*
X84724003Y-111456358D01*
X84684000Y-111657465D01*
X78740000Y-111657465D01*
X78740000Y-106578716D01*
X84696700Y-106578716D01*
X84696700Y-106781283D01*
X84736215Y-106979936D01*
X84736218Y-106979948D01*
X84813728Y-107167076D01*
X84813735Y-107167089D01*
X84926266Y-107335502D01*
X84926269Y-107335506D01*
X85069493Y-107478730D01*
X85069497Y-107478733D01*
X85237910Y-107591264D01*
X85237923Y-107591271D01*
X85425051Y-107668781D01*
X85425056Y-107668783D01*
X85623716Y-107708299D01*
X85623719Y-107708300D01*
X85623721Y-107708300D01*
X85826281Y-107708300D01*
X85826282Y-107708299D01*
X86024944Y-107668783D01*
X86212083Y-107591268D01*
X86380503Y-107478733D01*
X86523733Y-107335503D01*
X86636268Y-107167083D01*
X86713710Y-106980119D01*
X86757547Y-106925721D01*
X86823841Y-106903656D01*
X86891540Y-106920935D01*
X86939151Y-106972071D01*
X86946293Y-106991636D01*
X86946736Y-106991493D01*
X87013904Y-107198217D01*
X87110379Y-107387557D01*
X87235272Y-107559459D01*
X87235276Y-107559464D01*
X87385535Y-107709723D01*
X87385540Y-107709727D01*
X87557444Y-107834622D01*
X87567048Y-107839516D01*
X87617844Y-107887491D01*
X87634638Y-107955312D01*
X87612100Y-108021447D01*
X87567048Y-108060484D01*
X87557444Y-108065377D01*
X87385540Y-108190272D01*
X87385535Y-108190276D01*
X87235276Y-108340535D01*
X87235272Y-108340540D01*
X87110379Y-108512442D01*
X87013904Y-108701782D01*
X86946736Y-108908507D01*
X86945066Y-108907964D01*
X86914017Y-108961994D01*
X86851978Y-108994134D01*
X86782412Y-108987631D01*
X86727404Y-108944551D01*
X86713709Y-108919878D01*
X86672298Y-108819901D01*
X86636271Y-108732922D01*
X86636264Y-108732910D01*
X86523733Y-108564497D01*
X86523730Y-108564493D01*
X86380506Y-108421269D01*
X86380502Y-108421266D01*
X86212089Y-108308735D01*
X86212076Y-108308728D01*
X86024948Y-108231218D01*
X86024936Y-108231215D01*
X85826282Y-108191700D01*
X85826279Y-108191700D01*
X85623721Y-108191700D01*
X85623718Y-108191700D01*
X85425063Y-108231215D01*
X85425051Y-108231218D01*
X85237923Y-108308728D01*
X85237910Y-108308735D01*
X85069497Y-108421266D01*
X85069493Y-108421269D01*
X84926269Y-108564493D01*
X84926266Y-108564497D01*
X84813735Y-108732910D01*
X84813728Y-108732923D01*
X84736218Y-108920051D01*
X84736215Y-108920063D01*
X84696700Y-109118716D01*
X84696700Y-109321283D01*
X84736215Y-109519936D01*
X84736218Y-109519948D01*
X84813728Y-109707076D01*
X84813735Y-109707089D01*
X84926266Y-109875502D01*
X84926269Y-109875506D01*
X85069493Y-110018730D01*
X85069497Y-110018733D01*
X85237910Y-110131264D01*
X85237923Y-110131271D01*
X85372452Y-110186994D01*
X85425056Y-110208783D01*
X85623716Y-110248299D01*
X85623719Y-110248300D01*
X85623721Y-110248300D01*
X85826281Y-110248300D01*
X85826282Y-110248299D01*
X86024944Y-110208783D01*
X86210758Y-110131817D01*
X86212076Y-110131271D01*
X86212076Y-110131270D01*
X86212083Y-110131268D01*
X86380503Y-110018733D01*
X86523733Y-109875503D01*
X86636268Y-109707083D01*
X86713710Y-109520119D01*
X86757547Y-109465721D01*
X86823841Y-109443656D01*
X86891540Y-109460935D01*
X86939151Y-109512071D01*
X86946293Y-109531636D01*
X86946736Y-109531493D01*
X87013904Y-109738217D01*
X87110379Y-109927557D01*
X87235272Y-110099459D01*
X87235276Y-110099464D01*
X87385535Y-110249723D01*
X87385540Y-110249727D01*
X87557442Y-110374620D01*
X87746782Y-110471095D01*
X87936885Y-110532863D01*
X87994560Y-110572300D01*
X88021759Y-110636659D01*
X88009845Y-110705505D01*
X87962601Y-110756981D01*
X87946020Y-110765355D01*
X87771900Y-110837478D01*
X87601402Y-110951400D01*
X87601395Y-110951406D01*
X87456406Y-111096395D01*
X87456400Y-111096402D01*
X87342478Y-111266900D01*
X87264005Y-111456350D01*
X87264003Y-111456358D01*
X87224000Y-111657465D01*
X87224000Y-111862534D01*
X87264003Y-112063641D01*
X87264005Y-112063649D01*
X87342478Y-112253099D01*
X87456400Y-112423597D01*
X87456406Y-112423604D01*
X87601395Y-112568593D01*
X87601402Y-112568599D01*
X87771900Y-112682521D01*
X87771901Y-112682521D01*
X87771902Y-112682522D01*
X87961351Y-112760995D01*
X88162465Y-112800999D01*
X88162469Y-112801000D01*
X88162470Y-112801000D01*
X88367531Y-112801000D01*
X88367532Y-112800999D01*
X88568649Y-112760995D01*
X88758098Y-112682522D01*
X88928599Y-112568598D01*
X89073598Y-112423599D01*
X89187522Y-112253098D01*
X89265995Y-112063649D01*
X89306000Y-111862530D01*
X89306000Y-111657470D01*
X89265995Y-111456351D01*
X89187522Y-111266902D01*
X89104274Y-111142312D01*
X89073599Y-111096402D01*
X89073593Y-111096395D01*
X88928604Y-110951406D01*
X88928597Y-110951400D01*
X88758099Y-110837478D01*
X88583979Y-110765355D01*
X88529576Y-110721514D01*
X88507511Y-110655220D01*
X88524790Y-110587520D01*
X88575928Y-110539910D01*
X88593114Y-110532863D01*
X88783217Y-110471095D01*
X88972557Y-110374620D01*
X89062608Y-110309195D01*
X118724000Y-110309195D01*
X118724000Y-110488804D01*
X118750358Y-110655220D01*
X118752095Y-110666185D01*
X118807594Y-110836992D01*
X118889129Y-110997014D01*
X118994694Y-111142311D01*
X119121689Y-111269306D01*
X119266986Y-111374871D01*
X119427008Y-111456406D01*
X119597815Y-111511905D01*
X119664334Y-111522440D01*
X119775196Y-111540000D01*
X119775201Y-111540000D01*
X119954804Y-111540000D01*
X120053346Y-111524391D01*
X120132185Y-111511905D01*
X120302992Y-111456406D01*
X120463014Y-111374871D01*
X120608311Y-111269306D01*
X120735306Y-111142311D01*
X120840871Y-110997014D01*
X120922406Y-110836992D01*
X120977905Y-110666185D01*
X120999021Y-110532863D01*
X121006000Y-110488804D01*
X121006000Y-110309195D01*
X120992335Y-110222920D01*
X123114499Y-110222920D01*
X123143340Y-110367907D01*
X123143343Y-110367917D01*
X123199912Y-110504488D01*
X123199919Y-110504501D01*
X123282048Y-110627415D01*
X123282051Y-110627419D01*
X123386580Y-110731948D01*
X123386584Y-110731951D01*
X123509498Y-110814080D01*
X123509511Y-110814087D01*
X123624955Y-110861905D01*
X123646087Y-110870658D01*
X123646091Y-110870658D01*
X123646092Y-110870659D01*
X123791079Y-110899500D01*
X123791082Y-110899500D01*
X123938920Y-110899500D01*
X124036462Y-110880096D01*
X124083913Y-110870658D01*
X124220495Y-110814084D01*
X124343416Y-110731951D01*
X124447951Y-110627416D01*
X124530084Y-110504495D01*
X124536586Y-110488799D01*
X124586656Y-110367917D01*
X124586658Y-110367913D01*
X124598338Y-110309195D01*
X124615500Y-110222920D01*
X124615500Y-110075079D01*
X124586659Y-109930092D01*
X124586658Y-109930091D01*
X124586658Y-109930087D01*
X124564048Y-109875502D01*
X124530087Y-109793511D01*
X124530077Y-109793493D01*
X124483123Y-109723221D01*
X124483122Y-109723220D01*
X124447951Y-109670584D01*
X124447948Y-109670580D01*
X124436563Y-109659195D01*
X126224000Y-109659195D01*
X126224000Y-109838804D01*
X126252094Y-110016181D01*
X126252095Y-110016185D01*
X126307594Y-110186992D01*
X126389129Y-110347014D01*
X126494694Y-110492311D01*
X126621689Y-110619306D01*
X126766986Y-110724871D01*
X126927008Y-110806406D01*
X127097815Y-110861905D01*
X127153080Y-110870658D01*
X127275196Y-110890000D01*
X127275201Y-110890000D01*
X127454804Y-110890000D01*
X127553346Y-110874391D01*
X127632185Y-110861905D01*
X127802992Y-110806406D01*
X127963014Y-110724871D01*
X128108311Y-110619306D01*
X128235306Y-110492311D01*
X128340871Y-110347014D01*
X128422406Y-110186992D01*
X128477905Y-110016185D01*
X128491541Y-109930092D01*
X128506000Y-109838804D01*
X128506000Y-109659195D01*
X128483973Y-109520125D01*
X128477905Y-109481815D01*
X128422406Y-109311008D01*
X128340871Y-109150986D01*
X128235306Y-109005689D01*
X128108311Y-108878694D01*
X127963014Y-108773129D01*
X127884093Y-108732917D01*
X127802994Y-108691595D01*
X127802993Y-108691594D01*
X127802992Y-108691594D01*
X127632185Y-108636095D01*
X127632183Y-108636094D01*
X127632181Y-108636094D01*
X127454804Y-108608000D01*
X127454799Y-108608000D01*
X127275201Y-108608000D01*
X127275196Y-108608000D01*
X127097818Y-108636094D01*
X126927005Y-108691595D01*
X126766985Y-108773129D01*
X126702610Y-108819901D01*
X126621689Y-108878694D01*
X126621687Y-108878696D01*
X126621686Y-108878696D01*
X126494696Y-109005686D01*
X126494696Y-109005687D01*
X126494694Y-109005689D01*
X126449358Y-109068087D01*
X126389129Y-109150985D01*
X126307595Y-109311005D01*
X126252094Y-109481818D01*
X126224000Y-109659195D01*
X124436563Y-109659195D01*
X124343419Y-109566051D01*
X124343415Y-109566048D01*
X124220501Y-109483919D01*
X124220488Y-109483912D01*
X124083917Y-109427343D01*
X124083907Y-109427340D01*
X123938920Y-109398500D01*
X123938918Y-109398500D01*
X123791082Y-109398500D01*
X123791080Y-109398500D01*
X123646092Y-109427340D01*
X123646082Y-109427343D01*
X123509511Y-109483912D01*
X123509498Y-109483919D01*
X123386584Y-109566048D01*
X123386580Y-109566051D01*
X123282051Y-109670580D01*
X123282048Y-109670584D01*
X123199919Y-109793498D01*
X123199912Y-109793511D01*
X123143343Y-109930082D01*
X123143340Y-109930092D01*
X123114500Y-110075079D01*
X123114500Y-110075082D01*
X123114500Y-110222918D01*
X123114500Y-110222920D01*
X123114499Y-110222920D01*
X120992335Y-110222920D01*
X120977905Y-110131818D01*
X120977905Y-110131817D01*
X120977905Y-110131815D01*
X120922406Y-109961008D01*
X120840871Y-109800986D01*
X120735306Y-109655689D01*
X120608311Y-109528694D01*
X120463014Y-109423129D01*
X120302992Y-109341594D01*
X120132185Y-109286095D01*
X120132183Y-109286094D01*
X120132181Y-109286094D01*
X119954804Y-109258000D01*
X119954799Y-109258000D01*
X119775201Y-109258000D01*
X119775196Y-109258000D01*
X119597818Y-109286094D01*
X119427005Y-109341595D01*
X119266985Y-109423129D01*
X119208363Y-109465721D01*
X119121689Y-109528694D01*
X119121687Y-109528696D01*
X119121686Y-109528696D01*
X118994696Y-109655686D01*
X118994696Y-109655687D01*
X118994694Y-109655689D01*
X118957350Y-109707089D01*
X118889129Y-109800985D01*
X118807595Y-109961005D01*
X118752094Y-110131818D01*
X118724000Y-110309195D01*
X89062608Y-110309195D01*
X89144459Y-110249727D01*
X89144464Y-110249723D01*
X89177540Y-110216648D01*
X89294723Y-110099464D01*
X89294727Y-110099459D01*
X89419620Y-109927557D01*
X89516095Y-109738217D01*
X89581757Y-109536129D01*
X89581757Y-109536126D01*
X89592231Y-109470000D01*
X88698012Y-109470000D01*
X88730925Y-109412993D01*
X88765000Y-109285826D01*
X88765000Y-109154174D01*
X88730925Y-109027007D01*
X88698012Y-108970000D01*
X89592231Y-108970000D01*
X89581757Y-108903873D01*
X89581757Y-108903870D01*
X89516095Y-108701782D01*
X89419620Y-108512442D01*
X89294727Y-108340540D01*
X89294723Y-108340535D01*
X89144464Y-108190276D01*
X89144459Y-108190272D01*
X88972558Y-108065379D01*
X88962954Y-108060486D01*
X88912157Y-108012512D01*
X88895361Y-107944692D01*
X88917897Y-107878556D01*
X88962954Y-107839514D01*
X88972558Y-107834620D01*
X89144459Y-107709727D01*
X89144464Y-107709723D01*
X89294723Y-107559464D01*
X89294727Y-107559459D01*
X89419620Y-107387557D01*
X89516095Y-107198217D01*
X89581757Y-106996129D01*
X89581757Y-106996126D01*
X89592231Y-106930000D01*
X88698012Y-106930000D01*
X88730925Y-106872993D01*
X88765000Y-106745826D01*
X88765000Y-106614174D01*
X88730925Y-106487007D01*
X88698012Y-106430000D01*
X89592231Y-106430000D01*
X89581757Y-106363873D01*
X89581757Y-106363870D01*
X89516095Y-106161782D01*
X89419620Y-105972442D01*
X89294727Y-105800540D01*
X89294723Y-105800535D01*
X89144464Y-105650276D01*
X89144459Y-105650272D01*
X88972557Y-105525379D01*
X88783217Y-105428904D01*
X88593114Y-105367136D01*
X88535438Y-105327698D01*
X88508240Y-105263340D01*
X88520155Y-105194494D01*
X88567399Y-105143018D01*
X88583972Y-105134647D01*
X88758098Y-105062522D01*
X88928599Y-104948598D01*
X89073598Y-104803599D01*
X89187522Y-104633098D01*
X89265995Y-104443649D01*
X89306000Y-104242530D01*
X89306000Y-104037470D01*
X89292823Y-103971227D01*
X96000700Y-103971227D01*
X96000700Y-104101773D01*
X96034488Y-104227872D01*
X96099761Y-104340928D01*
X96192072Y-104433239D01*
X96305128Y-104498512D01*
X96431227Y-104532300D01*
X96431229Y-104532300D01*
X96561771Y-104532300D01*
X96561773Y-104532300D01*
X96687872Y-104498512D01*
X96800928Y-104433239D01*
X96893239Y-104340928D01*
X96958512Y-104227872D01*
X96992300Y-104101773D01*
X96992300Y-103971227D01*
X96958512Y-103845128D01*
X96893239Y-103732072D01*
X96800928Y-103639761D01*
X96687872Y-103574488D01*
X96561773Y-103540700D01*
X96431227Y-103540700D01*
X96305128Y-103574488D01*
X96305125Y-103574489D01*
X96192075Y-103639759D01*
X96192069Y-103639763D01*
X96099763Y-103732069D01*
X96099759Y-103732075D01*
X96034489Y-103845125D01*
X96034488Y-103845128D01*
X96000700Y-103971227D01*
X89292823Y-103971227D01*
X89285565Y-103934737D01*
X89265995Y-103836351D01*
X89187522Y-103646902D01*
X89182749Y-103639759D01*
X89073599Y-103476402D01*
X89073593Y-103476395D01*
X88928603Y-103331405D01*
X88928596Y-103331400D01*
X88758098Y-103217478D01*
X88758099Y-103217478D01*
X88758097Y-103217477D01*
X88697592Y-103192415D01*
X105854000Y-103192415D01*
X105854000Y-103309585D01*
X105884326Y-103422764D01*
X105942911Y-103524236D01*
X106025764Y-103607089D01*
X106127236Y-103665674D01*
X106240415Y-103696000D01*
X106240417Y-103696000D01*
X106357583Y-103696000D01*
X106357585Y-103696000D01*
X106470764Y-103665674D01*
X106572236Y-103607089D01*
X106655089Y-103524236D01*
X106713674Y-103422764D01*
X106744000Y-103309585D01*
X106744000Y-103192415D01*
X106713674Y-103079236D01*
X106655089Y-102977764D01*
X106572236Y-102894911D01*
X106470764Y-102836326D01*
X106470762Y-102836325D01*
X106453870Y-102831799D01*
X106394211Y-102795433D01*
X106363683Y-102732585D01*
X106371980Y-102663209D01*
X106416467Y-102609333D01*
X106453867Y-102592253D01*
X106560834Y-102563592D01*
X106662306Y-102505007D01*
X106745159Y-102422154D01*
X106803744Y-102320682D01*
X106834070Y-102207503D01*
X106834070Y-102169727D01*
X110375200Y-102169727D01*
X110375200Y-102300273D01*
X110408988Y-102426372D01*
X110474261Y-102539428D01*
X110566572Y-102631739D01*
X110679628Y-102697012D01*
X110805727Y-102730800D01*
X110805729Y-102730800D01*
X110936271Y-102730800D01*
X110936273Y-102730800D01*
X111062372Y-102697012D01*
X111175428Y-102631739D01*
X111267739Y-102539428D01*
X111333012Y-102426372D01*
X111366800Y-102300273D01*
X111366800Y-102169727D01*
X111333012Y-102043628D01*
X111267739Y-101930572D01*
X111175428Y-101838261D01*
X111062372Y-101772988D01*
X110936273Y-101739200D01*
X110805727Y-101739200D01*
X110679628Y-101772988D01*
X110679625Y-101772989D01*
X110566575Y-101838259D01*
X110566569Y-101838263D01*
X110474263Y-101930569D01*
X110474259Y-101930575D01*
X110408989Y-102043625D01*
X110408988Y-102043628D01*
X110375200Y-102169727D01*
X106834070Y-102169727D01*
X106834070Y-102090333D01*
X106803744Y-101977154D01*
X106745159Y-101875682D01*
X106662306Y-101792829D01*
X106560834Y-101734244D01*
X106447655Y-101703918D01*
X106330485Y-101703918D01*
X106217306Y-101734244D01*
X106217303Y-101734245D01*
X106115837Y-101792827D01*
X106115831Y-101792831D01*
X106032983Y-101875679D01*
X106032979Y-101875685D01*
X105974397Y-101977151D01*
X105974396Y-101977154D01*
X105944070Y-102090333D01*
X105944070Y-102207503D01*
X105974396Y-102320682D01*
X106032981Y-102422154D01*
X106115834Y-102505007D01*
X106217306Y-102563592D01*
X106234196Y-102568117D01*
X106293856Y-102604482D01*
X106324385Y-102667329D01*
X106316090Y-102736704D01*
X106271605Y-102790582D01*
X106234196Y-102807666D01*
X106144131Y-102831799D01*
X106127236Y-102836326D01*
X106127233Y-102836327D01*
X106025767Y-102894909D01*
X106025761Y-102894913D01*
X105942913Y-102977761D01*
X105942909Y-102977767D01*
X105884327Y-103079233D01*
X105884326Y-103079236D01*
X105854000Y-103192415D01*
X88697592Y-103192415D01*
X88568649Y-103139005D01*
X88568641Y-103139003D01*
X88367534Y-103099000D01*
X88367530Y-103099000D01*
X88162470Y-103099000D01*
X88162465Y-103099000D01*
X87961358Y-103139003D01*
X87961350Y-103139005D01*
X87771900Y-103217478D01*
X87601402Y-103331400D01*
X87601395Y-103331406D01*
X87456406Y-103476395D01*
X87456400Y-103476402D01*
X87342478Y-103646900D01*
X87264005Y-103836350D01*
X87264003Y-103836358D01*
X87224000Y-104037465D01*
X87224000Y-104242534D01*
X87264003Y-104443641D01*
X87264005Y-104443649D01*
X87342478Y-104633099D01*
X87456400Y-104803597D01*
X87456406Y-104803604D01*
X87601395Y-104948593D01*
X87601402Y-104948599D01*
X87771900Y-105062521D01*
X87771899Y-105062521D01*
X87771904Y-105062523D01*
X87946021Y-105134645D01*
X88000423Y-105178485D01*
X88022488Y-105244779D01*
X88005209Y-105312478D01*
X87954072Y-105360089D01*
X87936885Y-105367136D01*
X87746783Y-105428904D01*
X87557442Y-105525379D01*
X87385540Y-105650272D01*
X87385535Y-105650276D01*
X87235276Y-105800535D01*
X87235272Y-105800540D01*
X87110379Y-105972442D01*
X87013904Y-106161782D01*
X86946736Y-106368507D01*
X86945066Y-106367964D01*
X86914017Y-106421994D01*
X86851978Y-106454134D01*
X86782412Y-106447631D01*
X86727404Y-106404551D01*
X86713709Y-106379878D01*
X86672298Y-106279901D01*
X86636271Y-106192922D01*
X86636264Y-106192910D01*
X86523733Y-106024497D01*
X86523730Y-106024493D01*
X86380506Y-105881269D01*
X86380502Y-105881266D01*
X86212089Y-105768735D01*
X86212076Y-105768728D01*
X86024948Y-105691218D01*
X86024936Y-105691215D01*
X85826282Y-105651700D01*
X85826279Y-105651700D01*
X85623721Y-105651700D01*
X85623718Y-105651700D01*
X85425063Y-105691215D01*
X85425051Y-105691218D01*
X85237923Y-105768728D01*
X85237910Y-105768735D01*
X85069497Y-105881266D01*
X85069493Y-105881269D01*
X84926269Y-106024493D01*
X84926266Y-106024497D01*
X84813735Y-106192910D01*
X84813728Y-106192923D01*
X84736218Y-106380051D01*
X84736215Y-106380063D01*
X84696700Y-106578716D01*
X78740000Y-106578716D01*
X78740000Y-104037465D01*
X84684000Y-104037465D01*
X84684000Y-104242534D01*
X84724003Y-104443641D01*
X84724005Y-104443649D01*
X84802478Y-104633099D01*
X84916400Y-104803597D01*
X84916406Y-104803604D01*
X85061395Y-104948593D01*
X85061402Y-104948599D01*
X85231900Y-105062521D01*
X85231901Y-105062521D01*
X85231902Y-105062522D01*
X85421351Y-105140995D01*
X85609826Y-105178485D01*
X85622465Y-105180999D01*
X85622469Y-105181000D01*
X85622470Y-105181000D01*
X85827531Y-105181000D01*
X85827532Y-105180999D01*
X86028649Y-105140995D01*
X86218098Y-105062522D01*
X86388599Y-104948598D01*
X86533598Y-104803599D01*
X86647522Y-104633098D01*
X86725995Y-104443649D01*
X86766000Y-104242530D01*
X86766000Y-104037470D01*
X86725995Y-103836351D01*
X86647522Y-103646902D01*
X86642749Y-103639759D01*
X86533599Y-103476402D01*
X86533593Y-103476395D01*
X86388604Y-103331406D01*
X86388597Y-103331400D01*
X86218099Y-103217478D01*
X86028649Y-103139005D01*
X86028641Y-103139003D01*
X85827534Y-103099000D01*
X85827530Y-103099000D01*
X85622470Y-103099000D01*
X85622465Y-103099000D01*
X85421358Y-103139003D01*
X85421350Y-103139005D01*
X85231900Y-103217478D01*
X85061402Y-103331400D01*
X85061395Y-103331406D01*
X84916406Y-103476395D01*
X84916400Y-103476402D01*
X84802478Y-103646900D01*
X84724005Y-103836350D01*
X84724003Y-103836358D01*
X84684000Y-104037465D01*
X78740000Y-104037465D01*
X78740000Y-101497465D01*
X84684000Y-101497465D01*
X84684000Y-101702534D01*
X84724003Y-101903641D01*
X84724005Y-101903649D01*
X84802478Y-102093099D01*
X84916400Y-102263597D01*
X84916406Y-102263604D01*
X85061395Y-102408593D01*
X85061402Y-102408599D01*
X85231900Y-102522521D01*
X85231901Y-102522521D01*
X85231902Y-102522522D01*
X85421351Y-102600995D01*
X85575897Y-102631736D01*
X85622465Y-102640999D01*
X85622469Y-102641000D01*
X85622470Y-102641000D01*
X85827531Y-102641000D01*
X85827532Y-102640999D01*
X86028649Y-102600995D01*
X86218098Y-102522522D01*
X86388599Y-102408598D01*
X86533598Y-102263599D01*
X86647522Y-102093098D01*
X86725995Y-101903649D01*
X86766000Y-101702530D01*
X86766000Y-101497470D01*
X86765999Y-101497465D01*
X87224000Y-101497465D01*
X87224000Y-101702534D01*
X87264003Y-101903641D01*
X87264005Y-101903649D01*
X87342478Y-102093099D01*
X87456400Y-102263597D01*
X87456406Y-102263604D01*
X87601395Y-102408593D01*
X87601402Y-102408599D01*
X87771900Y-102522521D01*
X87771901Y-102522521D01*
X87771902Y-102522522D01*
X87961351Y-102600995D01*
X88115897Y-102631736D01*
X88162465Y-102640999D01*
X88162469Y-102641000D01*
X88162470Y-102641000D01*
X88367531Y-102641000D01*
X88367532Y-102640999D01*
X88568649Y-102600995D01*
X88758098Y-102522522D01*
X88928599Y-102408598D01*
X89073598Y-102263599D01*
X89187522Y-102093098D01*
X89265995Y-101903649D01*
X89306000Y-101702530D01*
X89306000Y-101541415D01*
X98488000Y-101541415D01*
X98488000Y-101658585D01*
X98518326Y-101771764D01*
X98576911Y-101873236D01*
X98659764Y-101956089D01*
X98761236Y-102014674D01*
X98874415Y-102045000D01*
X98874417Y-102045000D01*
X98991583Y-102045000D01*
X98991585Y-102045000D01*
X99104764Y-102014674D01*
X99206236Y-101956089D01*
X99289089Y-101873236D01*
X99347674Y-101771764D01*
X99378000Y-101658585D01*
X99378000Y-101541415D01*
X99347674Y-101428236D01*
X99289089Y-101326764D01*
X99206236Y-101243911D01*
X99104764Y-101185326D01*
X98991585Y-101155000D01*
X98874415Y-101155000D01*
X98761236Y-101185326D01*
X98761233Y-101185327D01*
X98659767Y-101243909D01*
X98659761Y-101243913D01*
X98576913Y-101326761D01*
X98576909Y-101326767D01*
X98518327Y-101428233D01*
X98518326Y-101428236D01*
X98488000Y-101541415D01*
X89306000Y-101541415D01*
X89306000Y-101497470D01*
X89265995Y-101296351D01*
X89206918Y-101153727D01*
X99707200Y-101153727D01*
X99707200Y-101284273D01*
X99740988Y-101410372D01*
X99806261Y-101523428D01*
X99898572Y-101615739D01*
X100011628Y-101681012D01*
X100137727Y-101714800D01*
X100137729Y-101714800D01*
X100268271Y-101714800D01*
X100268273Y-101714800D01*
X100394372Y-101681012D01*
X100507428Y-101615739D01*
X100599739Y-101523428D01*
X100665012Y-101410372D01*
X100698800Y-101284273D01*
X100698800Y-101153727D01*
X100665012Y-101027628D01*
X100650022Y-101001665D01*
X101409000Y-101001665D01*
X101409000Y-101118835D01*
X101426817Y-101185327D01*
X101439326Y-101232013D01*
X101439327Y-101232016D01*
X101446195Y-101243911D01*
X101497911Y-101333486D01*
X101580764Y-101416339D01*
X101682236Y-101474924D01*
X101795415Y-101505250D01*
X101795417Y-101505250D01*
X101912583Y-101505250D01*
X101912585Y-101505250D01*
X102025764Y-101474924D01*
X102127236Y-101416339D01*
X102127244Y-101416330D01*
X102127755Y-101415940D01*
X102128276Y-101415738D01*
X102134275Y-101412275D01*
X102134814Y-101413209D01*
X102192921Y-101390739D01*
X102261367Y-101404770D01*
X102278741Y-101415935D01*
X102279268Y-101416340D01*
X102299873Y-101428236D01*
X102380739Y-101474924D01*
X102493918Y-101505250D01*
X102493920Y-101505250D01*
X102611086Y-101505250D01*
X102611088Y-101505250D01*
X102724267Y-101474924D01*
X102825739Y-101416339D01*
X102908592Y-101333486D01*
X102967177Y-101232014D01*
X102997503Y-101118835D01*
X102997503Y-101001665D01*
X102967177Y-100888486D01*
X102908592Y-100787014D01*
X102825739Y-100704161D01*
X102724267Y-100645576D01*
X102611088Y-100615250D01*
X102493918Y-100615250D01*
X102380739Y-100645576D01*
X102380736Y-100645577D01*
X102279269Y-100704159D01*
X102278734Y-100704570D01*
X102278201Y-100704775D01*
X102272229Y-100708224D01*
X102271691Y-100707292D01*
X102213564Y-100729761D01*
X102145119Y-100715721D01*
X102127763Y-100704566D01*
X102127240Y-100704165D01*
X102127236Y-100704161D01*
X102025764Y-100645576D01*
X101912585Y-100615250D01*
X101795415Y-100615250D01*
X101682236Y-100645576D01*
X101682233Y-100645577D01*
X101580767Y-100704159D01*
X101580761Y-100704163D01*
X101497913Y-100787011D01*
X101497909Y-100787017D01*
X101439327Y-100888483D01*
X101439326Y-100888486D01*
X101409000Y-101001665D01*
X100650022Y-101001665D01*
X100599739Y-100914572D01*
X100507428Y-100822261D01*
X100394372Y-100756988D01*
X100268273Y-100723200D01*
X100137727Y-100723200D01*
X100011628Y-100756988D01*
X100011625Y-100756989D01*
X99898575Y-100822259D01*
X99898569Y-100822263D01*
X99806263Y-100914569D01*
X99806259Y-100914575D01*
X99740989Y-101027625D01*
X99740988Y-101027628D01*
X99707200Y-101153727D01*
X89206918Y-101153727D01*
X89187522Y-101106902D01*
X89134555Y-101027631D01*
X89073599Y-100936402D01*
X89073593Y-100936395D01*
X88928604Y-100791406D01*
X88928597Y-100791400D01*
X88758099Y-100677478D01*
X88568649Y-100599005D01*
X88568641Y-100599003D01*
X88367534Y-100559000D01*
X88367530Y-100559000D01*
X88162470Y-100559000D01*
X88162465Y-100559000D01*
X87961358Y-100599003D01*
X87961350Y-100599005D01*
X87771900Y-100677478D01*
X87601402Y-100791400D01*
X87601395Y-100791406D01*
X87456406Y-100936395D01*
X87456400Y-100936402D01*
X87342478Y-101106900D01*
X87264005Y-101296350D01*
X87264003Y-101296358D01*
X87224000Y-101497465D01*
X86765999Y-101497465D01*
X86725995Y-101296351D01*
X86647522Y-101106902D01*
X86594555Y-101027631D01*
X86533599Y-100936402D01*
X86533593Y-100936395D01*
X86388604Y-100791406D01*
X86388597Y-100791400D01*
X86218099Y-100677478D01*
X86028649Y-100599005D01*
X86028641Y-100599003D01*
X85827534Y-100559000D01*
X85827530Y-100559000D01*
X85622470Y-100559000D01*
X85622465Y-100559000D01*
X85421358Y-100599003D01*
X85421350Y-100599005D01*
X85231900Y-100677478D01*
X85061402Y-100791400D01*
X85061395Y-100791406D01*
X84916406Y-100936395D01*
X84916400Y-100936402D01*
X84802478Y-101106900D01*
X84724005Y-101296350D01*
X84724003Y-101296358D01*
X84684000Y-101497465D01*
X78740000Y-101497465D01*
X78740000Y-98957465D01*
X84684000Y-98957465D01*
X84684000Y-99162534D01*
X84724003Y-99363641D01*
X84724005Y-99363649D01*
X84802478Y-99553099D01*
X84916400Y-99723597D01*
X84916406Y-99723604D01*
X85061395Y-99868593D01*
X85061402Y-99868599D01*
X85231900Y-99982521D01*
X85231901Y-99982521D01*
X85231902Y-99982522D01*
X85421351Y-100060995D01*
X85622465Y-100100999D01*
X85622469Y-100101000D01*
X85622470Y-100101000D01*
X85827531Y-100101000D01*
X85827532Y-100100999D01*
X86028649Y-100060995D01*
X86218098Y-99982522D01*
X86388599Y-99868598D01*
X86533598Y-99723599D01*
X86647522Y-99553098D01*
X86725995Y-99363649D01*
X86766000Y-99162530D01*
X86766000Y-98957470D01*
X86765999Y-98957465D01*
X87224000Y-98957465D01*
X87224000Y-99162534D01*
X87264003Y-99363641D01*
X87264005Y-99363649D01*
X87342478Y-99553099D01*
X87456400Y-99723597D01*
X87456406Y-99723604D01*
X87601395Y-99868593D01*
X87601402Y-99868599D01*
X87771900Y-99982521D01*
X87771901Y-99982521D01*
X87771902Y-99982522D01*
X87961351Y-100060995D01*
X88162465Y-100100999D01*
X88162469Y-100101000D01*
X88162470Y-100101000D01*
X88367531Y-100101000D01*
X88367532Y-100100999D01*
X88568649Y-100060995D01*
X88758098Y-99982522D01*
X88928599Y-99868598D01*
X89073598Y-99723599D01*
X89187522Y-99553098D01*
X89265995Y-99363649D01*
X89287524Y-99255414D01*
X102421935Y-99255414D01*
X102421935Y-99372584D01*
X102452261Y-99485763D01*
X102510846Y-99587235D01*
X102593699Y-99670088D01*
X102695171Y-99728673D01*
X102808350Y-99758999D01*
X102808352Y-99758999D01*
X102847069Y-99758999D01*
X102914108Y-99778684D01*
X102959863Y-99831488D01*
X102969807Y-99900646D01*
X102954456Y-99944999D01*
X102915989Y-100011625D01*
X102915988Y-100011628D01*
X102882200Y-100137727D01*
X102882200Y-100268273D01*
X102915988Y-100394372D01*
X102981261Y-100507428D01*
X103073572Y-100599739D01*
X103186628Y-100665012D01*
X103312727Y-100698800D01*
X103312729Y-100698800D01*
X103443271Y-100698800D01*
X103443273Y-100698800D01*
X103569372Y-100665012D01*
X103682428Y-100599739D01*
X103774739Y-100507428D01*
X103840012Y-100394372D01*
X103873800Y-100268273D01*
X103873800Y-100137727D01*
X110375200Y-100137727D01*
X110375200Y-100268273D01*
X110408988Y-100394372D01*
X110474261Y-100507428D01*
X110566572Y-100599739D01*
X110679628Y-100665012D01*
X110805727Y-100698800D01*
X110805729Y-100698800D01*
X110936271Y-100698800D01*
X110936273Y-100698800D01*
X111062372Y-100665012D01*
X111175428Y-100599739D01*
X111267739Y-100507428D01*
X111276320Y-100492565D01*
X119656700Y-100492565D01*
X119656700Y-100675434D01*
X119692372Y-100854767D01*
X119692375Y-100854779D01*
X119762347Y-101023708D01*
X119762354Y-101023721D01*
X119863941Y-101175756D01*
X119863944Y-101175760D01*
X119993239Y-101305055D01*
X119993243Y-101305058D01*
X120145278Y-101406645D01*
X120145291Y-101406652D01*
X120310116Y-101474924D01*
X120314225Y-101476626D01*
X120493565Y-101512299D01*
X120493568Y-101512300D01*
X120493570Y-101512300D01*
X122476432Y-101512300D01*
X122476433Y-101512299D01*
X122655775Y-101476626D01*
X122801321Y-101416339D01*
X122824708Y-101406652D01*
X122824708Y-101406651D01*
X122824715Y-101406649D01*
X122976757Y-101305058D01*
X123106058Y-101175757D01*
X123207649Y-101023715D01*
X123277626Y-100854775D01*
X123313300Y-100675430D01*
X123313300Y-100492570D01*
X123313300Y-100492567D01*
X123313299Y-100492565D01*
X126116700Y-100492565D01*
X126116700Y-100675434D01*
X126152372Y-100854767D01*
X126152375Y-100854779D01*
X126222347Y-101023708D01*
X126222354Y-101023721D01*
X126323941Y-101175756D01*
X126323944Y-101175760D01*
X126453239Y-101305055D01*
X126453243Y-101305058D01*
X126605278Y-101406645D01*
X126605291Y-101406652D01*
X126770116Y-101474924D01*
X126774225Y-101476626D01*
X126953565Y-101512299D01*
X126953568Y-101512300D01*
X126953570Y-101512300D01*
X127936432Y-101512300D01*
X127936433Y-101512299D01*
X128115775Y-101476626D01*
X128261321Y-101416339D01*
X128284708Y-101406652D01*
X128284708Y-101406651D01*
X128284715Y-101406649D01*
X128436757Y-101305058D01*
X128566058Y-101175757D01*
X128667649Y-101023715D01*
X128737626Y-100854775D01*
X128773300Y-100675430D01*
X128773300Y-100492570D01*
X128773300Y-100492567D01*
X128773299Y-100492565D01*
X128737626Y-100313225D01*
X128737624Y-100313220D01*
X128667652Y-100144291D01*
X128667645Y-100144278D01*
X128566058Y-99992243D01*
X128566055Y-99992239D01*
X128436760Y-99862944D01*
X128436756Y-99862941D01*
X128284721Y-99761354D01*
X128284708Y-99761347D01*
X128115779Y-99691375D01*
X128115767Y-99691372D01*
X127936433Y-99655700D01*
X127936430Y-99655700D01*
X126953570Y-99655700D01*
X126953567Y-99655700D01*
X126774232Y-99691372D01*
X126774220Y-99691375D01*
X126605291Y-99761347D01*
X126605278Y-99761354D01*
X126453243Y-99862941D01*
X126453239Y-99862944D01*
X126323944Y-99992239D01*
X126323941Y-99992243D01*
X126222354Y-100144278D01*
X126222347Y-100144291D01*
X126152375Y-100313220D01*
X126152372Y-100313232D01*
X126116700Y-100492565D01*
X123313299Y-100492565D01*
X123277626Y-100313225D01*
X123277624Y-100313220D01*
X123207652Y-100144291D01*
X123207645Y-100144278D01*
X123106058Y-99992243D01*
X123106055Y-99992239D01*
X122976760Y-99862944D01*
X122976756Y-99862941D01*
X122824721Y-99761354D01*
X122824708Y-99761347D01*
X122655779Y-99691375D01*
X122655767Y-99691372D01*
X122476433Y-99655700D01*
X122476430Y-99655700D01*
X120493570Y-99655700D01*
X120493567Y-99655700D01*
X120314232Y-99691372D01*
X120314220Y-99691375D01*
X120145291Y-99761347D01*
X120145278Y-99761354D01*
X119993243Y-99862941D01*
X119993239Y-99862944D01*
X119863944Y-99992239D01*
X119863941Y-99992243D01*
X119762354Y-100144278D01*
X119762347Y-100144291D01*
X119692375Y-100313220D01*
X119692372Y-100313232D01*
X119656700Y-100492565D01*
X111276320Y-100492565D01*
X111333012Y-100394372D01*
X111366800Y-100268273D01*
X111366800Y-100137727D01*
X111333012Y-100011628D01*
X111267739Y-99898572D01*
X111175428Y-99806261D01*
X111062372Y-99740988D01*
X110936273Y-99707200D01*
X110805727Y-99707200D01*
X110679628Y-99740988D01*
X110679625Y-99740989D01*
X110566575Y-99806259D01*
X110566569Y-99806263D01*
X110474263Y-99898569D01*
X110474259Y-99898575D01*
X110408989Y-100011625D01*
X110408988Y-100011628D01*
X110375200Y-100137727D01*
X103873800Y-100137727D01*
X103840012Y-100011628D01*
X103774739Y-99898572D01*
X103682428Y-99806261D01*
X103569372Y-99740988D01*
X103443273Y-99707200D01*
X103368536Y-99707200D01*
X103301497Y-99687515D01*
X103255742Y-99634711D01*
X103245798Y-99565553D01*
X103261147Y-99521203D01*
X103281609Y-99485763D01*
X103311935Y-99372584D01*
X103311935Y-99255415D01*
X106139750Y-99255415D01*
X106139750Y-99372585D01*
X106170076Y-99485764D01*
X106228661Y-99587236D01*
X106311514Y-99670089D01*
X106412986Y-99728674D01*
X106526165Y-99759000D01*
X106526167Y-99759000D01*
X106643333Y-99759000D01*
X106643335Y-99759000D01*
X106756514Y-99728674D01*
X106857986Y-99670089D01*
X106940839Y-99587236D01*
X106999424Y-99485764D01*
X107029750Y-99372585D01*
X107029750Y-99255415D01*
X106999424Y-99142236D01*
X106940839Y-99040764D01*
X106857986Y-98957911D01*
X106756514Y-98899326D01*
X106643335Y-98869000D01*
X106526165Y-98869000D01*
X106412986Y-98899326D01*
X106412983Y-98899327D01*
X106311517Y-98957909D01*
X106311511Y-98957913D01*
X106228663Y-99040761D01*
X106228659Y-99040767D01*
X106170077Y-99142233D01*
X106170076Y-99142236D01*
X106139750Y-99255415D01*
X103311935Y-99255415D01*
X103311935Y-99255414D01*
X103281609Y-99142235D01*
X103223024Y-99040763D01*
X103140171Y-98957910D01*
X103072523Y-98918853D01*
X103038701Y-98899326D01*
X103038700Y-98899325D01*
X103038699Y-98899325D01*
X102925520Y-98868999D01*
X102808350Y-98868999D01*
X102695171Y-98899325D01*
X102695168Y-98899326D01*
X102593702Y-98957908D01*
X102593696Y-98957912D01*
X102510848Y-99040760D01*
X102510844Y-99040766D01*
X102452262Y-99142232D01*
X102452262Y-99142233D01*
X102452261Y-99142235D01*
X102421935Y-99255414D01*
X89287524Y-99255414D01*
X89306000Y-99162530D01*
X89306000Y-98957470D01*
X89265995Y-98756351D01*
X89187522Y-98566902D01*
X89073598Y-98396401D01*
X89073593Y-98396395D01*
X88928604Y-98251406D01*
X88928597Y-98251400D01*
X88758099Y-98137478D01*
X88568649Y-98059005D01*
X88568641Y-98059003D01*
X88367534Y-98019000D01*
X88367530Y-98019000D01*
X88162470Y-98019000D01*
X88162465Y-98019000D01*
X87961358Y-98059003D01*
X87961350Y-98059005D01*
X87771900Y-98137478D01*
X87601402Y-98251400D01*
X87601395Y-98251406D01*
X87456406Y-98396395D01*
X87456400Y-98396402D01*
X87342478Y-98566900D01*
X87264005Y-98756350D01*
X87264003Y-98756358D01*
X87224000Y-98957465D01*
X86765999Y-98957465D01*
X86725995Y-98756351D01*
X86647522Y-98566902D01*
X86533598Y-98396401D01*
X86533593Y-98396395D01*
X86388604Y-98251406D01*
X86388597Y-98251400D01*
X86218099Y-98137478D01*
X86028649Y-98059005D01*
X86028641Y-98059003D01*
X85827534Y-98019000D01*
X85827530Y-98019000D01*
X85622470Y-98019000D01*
X85622465Y-98019000D01*
X85421358Y-98059003D01*
X85421350Y-98059005D01*
X85231900Y-98137478D01*
X85061402Y-98251400D01*
X85061395Y-98251406D01*
X84916406Y-98396395D01*
X84916400Y-98396402D01*
X84802478Y-98566900D01*
X84724005Y-98756350D01*
X84724003Y-98756358D01*
X84684000Y-98957465D01*
X78740000Y-98957465D01*
X78740000Y-96417465D01*
X84684000Y-96417465D01*
X84684000Y-96622534D01*
X84724003Y-96823641D01*
X84724005Y-96823649D01*
X84802478Y-97013099D01*
X84916400Y-97183597D01*
X84916406Y-97183604D01*
X85061395Y-97328593D01*
X85061402Y-97328599D01*
X85231900Y-97442521D01*
X85231901Y-97442521D01*
X85231902Y-97442522D01*
X85421351Y-97520995D01*
X85622465Y-97560999D01*
X85622469Y-97561000D01*
X85622470Y-97561000D01*
X85827531Y-97561000D01*
X85827532Y-97560999D01*
X86028649Y-97520995D01*
X86218098Y-97442522D01*
X86388599Y-97328598D01*
X86533598Y-97183599D01*
X86647522Y-97013098D01*
X86725995Y-96823649D01*
X86766000Y-96622530D01*
X86766000Y-96417470D01*
X86765999Y-96417465D01*
X87224000Y-96417465D01*
X87224000Y-96622534D01*
X87264003Y-96823641D01*
X87264005Y-96823649D01*
X87342478Y-97013099D01*
X87456400Y-97183597D01*
X87456406Y-97183604D01*
X87601395Y-97328593D01*
X87601402Y-97328599D01*
X87771900Y-97442521D01*
X87771901Y-97442521D01*
X87771902Y-97442522D01*
X87961351Y-97520995D01*
X88162465Y-97560999D01*
X88162469Y-97561000D01*
X88162470Y-97561000D01*
X88367531Y-97561000D01*
X88367532Y-97560999D01*
X88568649Y-97520995D01*
X88657716Y-97484102D01*
X122300499Y-97484102D01*
X122329801Y-97631407D01*
X122329803Y-97631413D01*
X122387280Y-97770176D01*
X122387285Y-97770185D01*
X122470727Y-97895064D01*
X122470730Y-97895068D01*
X122576931Y-98001269D01*
X122576935Y-98001272D01*
X122701814Y-98084714D01*
X122701820Y-98084717D01*
X122701821Y-98084718D01*
X122840587Y-98142197D01*
X122840591Y-98142197D01*
X122840592Y-98142198D01*
X122987897Y-98171500D01*
X122987900Y-98171500D01*
X123138102Y-98171500D01*
X123237204Y-98151786D01*
X123285413Y-98142197D01*
X123424179Y-98084718D01*
X123549065Y-98001272D01*
X123655272Y-97895065D01*
X123738718Y-97770179D01*
X123796197Y-97631413D01*
X123825500Y-97484100D01*
X123825500Y-97333900D01*
X123825500Y-97333897D01*
X123796198Y-97186592D01*
X123796197Y-97186591D01*
X123796197Y-97186587D01*
X123738718Y-97047821D01*
X123738717Y-97047820D01*
X123738714Y-97047814D01*
X123655272Y-96922935D01*
X123655269Y-96922931D01*
X123549068Y-96816730D01*
X123549064Y-96816727D01*
X123424185Y-96733285D01*
X123424176Y-96733280D01*
X123285413Y-96675803D01*
X123285407Y-96675801D01*
X123138102Y-96646500D01*
X123138100Y-96646500D01*
X122987900Y-96646500D01*
X122987898Y-96646500D01*
X122840592Y-96675801D01*
X122840586Y-96675803D01*
X122701823Y-96733280D01*
X122701814Y-96733285D01*
X122576935Y-96816727D01*
X122576931Y-96816730D01*
X122470730Y-96922931D01*
X122470727Y-96922935D01*
X122387285Y-97047814D01*
X122387280Y-97047823D01*
X122329803Y-97186586D01*
X122329801Y-97186592D01*
X122300500Y-97333897D01*
X122300500Y-97333900D01*
X122300500Y-97484100D01*
X122300500Y-97484102D01*
X122300499Y-97484102D01*
X88657716Y-97484102D01*
X88758098Y-97442522D01*
X88928599Y-97328598D01*
X89073598Y-97183599D01*
X89187522Y-97013098D01*
X89208073Y-96963485D01*
X98225870Y-96963485D01*
X98225870Y-97080655D01*
X98256196Y-97193834D01*
X98314781Y-97295306D01*
X98397634Y-97378159D01*
X98499106Y-97436744D01*
X98612285Y-97467070D01*
X98612287Y-97467070D01*
X98729453Y-97467070D01*
X98729455Y-97467070D01*
X98842634Y-97436744D01*
X98944106Y-97378159D01*
X99026959Y-97295306D01*
X99085544Y-97193834D01*
X99115870Y-97080655D01*
X99115870Y-96963485D01*
X99094148Y-96882415D01*
X103735000Y-96882415D01*
X103735000Y-96999585D01*
X103765326Y-97112764D01*
X103823911Y-97214236D01*
X103906764Y-97297089D01*
X104008236Y-97355674D01*
X104121415Y-97386000D01*
X104121417Y-97386000D01*
X104238583Y-97386000D01*
X104238585Y-97386000D01*
X104351764Y-97355674D01*
X104453236Y-97297089D01*
X104536089Y-97214236D01*
X104594674Y-97112764D01*
X104625000Y-96999585D01*
X104625000Y-96882415D01*
X104594674Y-96769236D01*
X104536089Y-96667764D01*
X104453236Y-96584911D01*
X104447721Y-96581727D01*
X110248200Y-96581727D01*
X110248200Y-96712273D01*
X110281988Y-96838372D01*
X110347261Y-96951428D01*
X110439572Y-97043739D01*
X110552628Y-97109012D01*
X110678727Y-97142800D01*
X110678729Y-97142800D01*
X110809271Y-97142800D01*
X110809273Y-97142800D01*
X110935372Y-97109012D01*
X111048428Y-97043739D01*
X111140739Y-96951428D01*
X111206012Y-96838372D01*
X111224673Y-96768727D01*
X117674200Y-96768727D01*
X117674200Y-96899273D01*
X117707988Y-97025372D01*
X117773261Y-97138428D01*
X117865572Y-97230739D01*
X117978628Y-97296012D01*
X118104727Y-97329800D01*
X118104729Y-97329800D01*
X118235271Y-97329800D01*
X118235273Y-97329800D01*
X118361372Y-97296012D01*
X118474428Y-97230739D01*
X118566739Y-97138428D01*
X118632012Y-97025372D01*
X118665800Y-96899273D01*
X118665800Y-96768727D01*
X118632012Y-96642628D01*
X118566739Y-96529572D01*
X118474428Y-96437261D01*
X118361372Y-96371988D01*
X118235273Y-96338200D01*
X118104727Y-96338200D01*
X117978628Y-96371988D01*
X117978625Y-96371989D01*
X117865575Y-96437259D01*
X117865569Y-96437263D01*
X117773263Y-96529569D01*
X117773259Y-96529575D01*
X117707989Y-96642625D01*
X117707988Y-96642628D01*
X117674200Y-96768727D01*
X111224673Y-96768727D01*
X111239800Y-96712273D01*
X111239800Y-96581727D01*
X111206012Y-96455628D01*
X111140739Y-96342572D01*
X111048428Y-96250261D01*
X110935372Y-96184988D01*
X110809273Y-96151200D01*
X110678727Y-96151200D01*
X110552628Y-96184988D01*
X110552625Y-96184989D01*
X110439575Y-96250259D01*
X110439569Y-96250263D01*
X110347263Y-96342569D01*
X110347259Y-96342575D01*
X110281989Y-96455625D01*
X110281988Y-96455628D01*
X110248200Y-96581727D01*
X104447721Y-96581727D01*
X104384107Y-96544999D01*
X104351766Y-96526327D01*
X104351765Y-96526326D01*
X104351764Y-96526326D01*
X104238585Y-96496000D01*
X104121415Y-96496000D01*
X104008236Y-96526326D01*
X104008233Y-96526327D01*
X103906767Y-96584909D01*
X103906761Y-96584913D01*
X103823913Y-96667761D01*
X103823909Y-96667767D01*
X103765327Y-96769233D01*
X103765326Y-96769236D01*
X103735000Y-96882415D01*
X99094148Y-96882415D01*
X99085544Y-96850306D01*
X99026959Y-96748834D01*
X98944106Y-96665981D01*
X98842634Y-96607396D01*
X98729455Y-96577070D01*
X98612285Y-96577070D01*
X98499106Y-96607396D01*
X98499103Y-96607397D01*
X98397637Y-96665979D01*
X98397631Y-96665983D01*
X98314783Y-96748831D01*
X98314779Y-96748837D01*
X98256197Y-96850303D01*
X98256197Y-96850304D01*
X98256196Y-96850306D01*
X98225870Y-96963485D01*
X89208073Y-96963485D01*
X89265995Y-96823649D01*
X89306000Y-96622530D01*
X89306000Y-96417470D01*
X89265995Y-96216351D01*
X89193534Y-96041415D01*
X111705000Y-96041415D01*
X111705000Y-96158585D01*
X111735326Y-96271764D01*
X111793911Y-96373236D01*
X111876764Y-96456089D01*
X111978236Y-96514674D01*
X112091415Y-96545000D01*
X112091417Y-96545000D01*
X112208583Y-96545000D01*
X112208585Y-96545000D01*
X112321764Y-96514674D01*
X112423236Y-96456089D01*
X112506089Y-96373236D01*
X112564674Y-96271764D01*
X112595000Y-96158585D01*
X112595000Y-96041415D01*
X112564674Y-95928236D01*
X112506089Y-95826764D01*
X112423236Y-95743911D01*
X112321764Y-95685326D01*
X112208585Y-95655000D01*
X112091415Y-95655000D01*
X111978236Y-95685326D01*
X111978233Y-95685327D01*
X111876767Y-95743909D01*
X111876761Y-95743913D01*
X111793913Y-95826761D01*
X111793909Y-95826767D01*
X111735327Y-95928233D01*
X111735326Y-95928236D01*
X111705000Y-96041415D01*
X89193534Y-96041415D01*
X89187522Y-96026902D01*
X89119934Y-95925749D01*
X89073599Y-95856402D01*
X89073593Y-95856395D01*
X88928604Y-95711406D01*
X88928597Y-95711400D01*
X88758099Y-95597478D01*
X88664237Y-95558599D01*
X88568649Y-95519005D01*
X88568641Y-95519003D01*
X88367534Y-95479000D01*
X88367530Y-95479000D01*
X88162470Y-95479000D01*
X88162465Y-95479000D01*
X87961358Y-95519003D01*
X87961350Y-95519005D01*
X87771900Y-95597478D01*
X87601402Y-95711400D01*
X87601395Y-95711406D01*
X87456406Y-95856395D01*
X87456400Y-95856402D01*
X87342478Y-96026900D01*
X87264005Y-96216350D01*
X87264003Y-96216358D01*
X87224000Y-96417465D01*
X86765999Y-96417465D01*
X86725995Y-96216351D01*
X86647522Y-96026902D01*
X86579934Y-95925749D01*
X86533599Y-95856402D01*
X86533593Y-95856395D01*
X86388604Y-95711406D01*
X86388597Y-95711400D01*
X86218099Y-95597478D01*
X86028649Y-95519005D01*
X86028641Y-95519003D01*
X85827534Y-95479000D01*
X85827530Y-95479000D01*
X85622470Y-95479000D01*
X85622465Y-95479000D01*
X85421358Y-95519003D01*
X85421350Y-95519005D01*
X85231900Y-95597478D01*
X85061402Y-95711400D01*
X85061395Y-95711406D01*
X84916406Y-95856395D01*
X84916400Y-95856402D01*
X84802478Y-96026900D01*
X84724005Y-96216350D01*
X84724003Y-96216358D01*
X84684000Y-96417465D01*
X78740000Y-96417465D01*
X78740000Y-95422165D01*
X106489000Y-95422165D01*
X106489000Y-95539335D01*
X106519326Y-95652514D01*
X106577911Y-95753986D01*
X106660764Y-95836839D01*
X106762236Y-95895424D01*
X106875415Y-95925750D01*
X106875417Y-95925750D01*
X106992583Y-95925750D01*
X106992585Y-95925750D01*
X107105764Y-95895424D01*
X107207236Y-95836839D01*
X107290089Y-95753986D01*
X107348674Y-95652514D01*
X107379000Y-95539335D01*
X107379000Y-95422165D01*
X107348674Y-95308986D01*
X107290089Y-95207514D01*
X107207236Y-95124661D01*
X107105764Y-95066076D01*
X106992585Y-95035750D01*
X106875415Y-95035750D01*
X106762236Y-95066076D01*
X106762233Y-95066077D01*
X106660767Y-95124659D01*
X106660761Y-95124663D01*
X106577913Y-95207511D01*
X106577909Y-95207517D01*
X106519327Y-95308983D01*
X106519326Y-95308986D01*
X106489000Y-95422165D01*
X78740000Y-95422165D01*
X78740000Y-93877465D01*
X84684000Y-93877465D01*
X84684000Y-94082534D01*
X84724003Y-94283641D01*
X84724005Y-94283649D01*
X84802478Y-94473099D01*
X84916400Y-94643597D01*
X84916406Y-94643604D01*
X85061395Y-94788593D01*
X85061402Y-94788599D01*
X85231900Y-94902521D01*
X85231901Y-94902521D01*
X85231902Y-94902522D01*
X85421351Y-94980995D01*
X85622465Y-95020999D01*
X85622469Y-95021000D01*
X85622470Y-95021000D01*
X85827531Y-95021000D01*
X85827532Y-95020999D01*
X86028649Y-94980995D01*
X86218098Y-94902522D01*
X86388599Y-94788598D01*
X86533598Y-94643599D01*
X86647522Y-94473098D01*
X86725995Y-94283649D01*
X86766000Y-94082530D01*
X86766000Y-93877470D01*
X86766000Y-93877466D01*
X86765999Y-93877465D01*
X87224000Y-93877465D01*
X87224000Y-94082534D01*
X87264003Y-94283641D01*
X87264005Y-94283649D01*
X87342478Y-94473099D01*
X87456400Y-94643597D01*
X87456406Y-94643604D01*
X87601395Y-94788593D01*
X87601402Y-94788599D01*
X87771900Y-94902521D01*
X87771901Y-94902521D01*
X87771902Y-94902522D01*
X87961351Y-94980995D01*
X88162465Y-95020999D01*
X88162469Y-95021000D01*
X88162470Y-95021000D01*
X88367531Y-95021000D01*
X88367532Y-95020999D01*
X88568649Y-94980995D01*
X88758098Y-94902522D01*
X88928599Y-94788598D01*
X89073598Y-94643599D01*
X89187522Y-94473098D01*
X89265995Y-94283649D01*
X89306000Y-94082530D01*
X89306000Y-94077613D01*
X100201700Y-94077613D01*
X100201700Y-94190387D01*
X100230888Y-94299318D01*
X100287275Y-94396983D01*
X100367017Y-94476725D01*
X100464682Y-94533112D01*
X100573613Y-94562300D01*
X100573615Y-94562300D01*
X100686384Y-94562300D01*
X100686387Y-94562300D01*
X100795318Y-94533112D01*
X100892983Y-94476725D01*
X100972725Y-94396983D01*
X101029112Y-94299318D01*
X101058300Y-94190387D01*
X101058300Y-94077613D01*
X101401700Y-94077613D01*
X101401700Y-94190387D01*
X101430888Y-94299318D01*
X101487275Y-94396983D01*
X101567017Y-94476725D01*
X101664682Y-94533112D01*
X101773613Y-94562300D01*
X101773615Y-94562300D01*
X101886384Y-94562300D01*
X101886387Y-94562300D01*
X101995318Y-94533112D01*
X102092983Y-94476725D01*
X102172725Y-94396983D01*
X102229112Y-94299318D01*
X102258300Y-94190387D01*
X102258300Y-94077613D01*
X102601700Y-94077613D01*
X102601700Y-94190387D01*
X102630888Y-94299318D01*
X102687275Y-94396983D01*
X102767017Y-94476725D01*
X102864682Y-94533112D01*
X102973613Y-94562300D01*
X102973615Y-94562300D01*
X103086384Y-94562300D01*
X103086387Y-94562300D01*
X103195318Y-94533112D01*
X103292983Y-94476725D01*
X103372725Y-94396983D01*
X103429112Y-94299318D01*
X103458300Y-94190387D01*
X103458300Y-94077613D01*
X103801700Y-94077613D01*
X103801700Y-94190387D01*
X103830888Y-94299318D01*
X103887275Y-94396983D01*
X103967017Y-94476725D01*
X104064682Y-94533112D01*
X104173613Y-94562300D01*
X104173615Y-94562300D01*
X104286384Y-94562300D01*
X104286387Y-94562300D01*
X104395318Y-94533112D01*
X104492983Y-94476725D01*
X104572725Y-94396983D01*
X104629112Y-94299318D01*
X104658300Y-94190387D01*
X104658300Y-94077613D01*
X104629112Y-93968682D01*
X104572725Y-93871017D01*
X104492983Y-93791275D01*
X104481642Y-93784727D01*
X122804200Y-93784727D01*
X122804200Y-93915273D01*
X122837988Y-94041372D01*
X122903261Y-94154428D01*
X122995572Y-94246739D01*
X123108628Y-94312012D01*
X123234727Y-94345800D01*
X123234729Y-94345800D01*
X123365271Y-94345800D01*
X123365273Y-94345800D01*
X123491372Y-94312012D01*
X123604428Y-94246739D01*
X123696739Y-94154428D01*
X123762012Y-94041372D01*
X123795800Y-93915273D01*
X123795800Y-93784727D01*
X123762012Y-93658628D01*
X123696739Y-93545572D01*
X123604428Y-93453261D01*
X123504262Y-93395430D01*
X123491374Y-93387989D01*
X123491373Y-93387988D01*
X123491372Y-93387988D01*
X123365273Y-93354200D01*
X123234727Y-93354200D01*
X123108628Y-93387988D01*
X123108625Y-93387989D01*
X122995575Y-93453259D01*
X122995569Y-93453263D01*
X122903263Y-93545569D01*
X122903259Y-93545575D01*
X122837989Y-93658625D01*
X122837988Y-93658628D01*
X122804200Y-93784727D01*
X104481642Y-93784727D01*
X104395318Y-93734888D01*
X104286387Y-93705700D01*
X104173613Y-93705700D01*
X104064682Y-93734888D01*
X104064680Y-93734888D01*
X104064680Y-93734889D01*
X103967017Y-93791275D01*
X103967014Y-93791277D01*
X103887277Y-93871014D01*
X103887275Y-93871017D01*
X103830888Y-93968682D01*
X103801700Y-94077613D01*
X103458300Y-94077613D01*
X103429112Y-93968682D01*
X103372725Y-93871017D01*
X103292983Y-93791275D01*
X103195318Y-93734888D01*
X103086387Y-93705700D01*
X102973613Y-93705700D01*
X102864682Y-93734888D01*
X102864680Y-93734888D01*
X102864680Y-93734889D01*
X102767017Y-93791275D01*
X102767014Y-93791277D01*
X102687277Y-93871014D01*
X102687275Y-93871017D01*
X102630888Y-93968682D01*
X102601700Y-94077613D01*
X102258300Y-94077613D01*
X102229112Y-93968682D01*
X102172725Y-93871017D01*
X102092983Y-93791275D01*
X101995318Y-93734888D01*
X101886387Y-93705700D01*
X101773613Y-93705700D01*
X101664682Y-93734888D01*
X101664680Y-93734888D01*
X101664680Y-93734889D01*
X101567017Y-93791275D01*
X101567014Y-93791277D01*
X101487277Y-93871014D01*
X101487275Y-93871017D01*
X101430888Y-93968682D01*
X101401700Y-94077613D01*
X101058300Y-94077613D01*
X101029112Y-93968682D01*
X100972725Y-93871017D01*
X100892983Y-93791275D01*
X100795318Y-93734888D01*
X100686387Y-93705700D01*
X100573613Y-93705700D01*
X100464682Y-93734888D01*
X100464680Y-93734888D01*
X100464680Y-93734889D01*
X100367017Y-93791275D01*
X100367014Y-93791277D01*
X100287277Y-93871014D01*
X100287275Y-93871017D01*
X100230888Y-93968682D01*
X100201700Y-94077613D01*
X89306000Y-94077613D01*
X89306000Y-93877470D01*
X89306000Y-93877466D01*
X89305999Y-93877465D01*
X89277639Y-93734889D01*
X89265995Y-93676351D01*
X89187522Y-93486902D01*
X89165045Y-93453263D01*
X89073599Y-93316402D01*
X89073593Y-93316395D01*
X88928604Y-93171406D01*
X88928597Y-93171400D01*
X88758099Y-93057478D01*
X88596127Y-92990387D01*
X88568649Y-92979005D01*
X88568641Y-92979003D01*
X88367534Y-92939000D01*
X88367530Y-92939000D01*
X88162470Y-92939000D01*
X88162465Y-92939000D01*
X87961358Y-92979003D01*
X87961350Y-92979005D01*
X87771900Y-93057478D01*
X87601402Y-93171400D01*
X87601395Y-93171406D01*
X87456406Y-93316395D01*
X87456400Y-93316402D01*
X87342478Y-93486900D01*
X87264005Y-93676350D01*
X87264003Y-93676358D01*
X87224000Y-93877465D01*
X86765999Y-93877465D01*
X86737639Y-93734889D01*
X86725995Y-93676351D01*
X86647522Y-93486902D01*
X86625045Y-93453263D01*
X86533599Y-93316402D01*
X86533593Y-93316395D01*
X86388604Y-93171406D01*
X86388597Y-93171400D01*
X86218099Y-93057478D01*
X86028649Y-92979005D01*
X86028641Y-92979003D01*
X85827534Y-92939000D01*
X85827530Y-92939000D01*
X85622470Y-92939000D01*
X85622465Y-92939000D01*
X85421358Y-92979003D01*
X85421350Y-92979005D01*
X85231900Y-93057478D01*
X85061402Y-93171400D01*
X85061395Y-93171406D01*
X84916406Y-93316395D01*
X84916400Y-93316402D01*
X84802478Y-93486900D01*
X84724005Y-93676350D01*
X84724003Y-93676358D01*
X84684000Y-93877465D01*
X78740000Y-93877465D01*
X78740000Y-92877613D01*
X100201700Y-92877613D01*
X100201700Y-92990387D01*
X100230888Y-93099318D01*
X100287275Y-93196983D01*
X100367017Y-93276725D01*
X100464682Y-93333112D01*
X100573613Y-93362300D01*
X100573615Y-93362300D01*
X100686384Y-93362300D01*
X100686387Y-93362300D01*
X100795318Y-93333112D01*
X100892983Y-93276725D01*
X100972725Y-93196983D01*
X101029112Y-93099318D01*
X101058300Y-92990387D01*
X101058300Y-92877613D01*
X101401700Y-92877613D01*
X101401700Y-92990387D01*
X101430888Y-93099318D01*
X101487275Y-93196983D01*
X101567017Y-93276725D01*
X101664682Y-93333112D01*
X101773613Y-93362300D01*
X101773615Y-93362300D01*
X101886384Y-93362300D01*
X101886387Y-93362300D01*
X101995318Y-93333112D01*
X102092983Y-93276725D01*
X102172725Y-93196983D01*
X102229112Y-93099318D01*
X102258300Y-92990387D01*
X102258300Y-92877613D01*
X102601700Y-92877613D01*
X102601700Y-92990387D01*
X102630888Y-93099318D01*
X102687275Y-93196983D01*
X102767017Y-93276725D01*
X102864682Y-93333112D01*
X102973613Y-93362300D01*
X102973615Y-93362300D01*
X103086384Y-93362300D01*
X103086387Y-93362300D01*
X103195318Y-93333112D01*
X103292983Y-93276725D01*
X103372725Y-93196983D01*
X103429112Y-93099318D01*
X103458300Y-92990387D01*
X103458300Y-92877613D01*
X103801700Y-92877613D01*
X103801700Y-92990387D01*
X103830888Y-93099318D01*
X103887275Y-93196983D01*
X103967017Y-93276725D01*
X104064682Y-93333112D01*
X104173613Y-93362300D01*
X104173615Y-93362300D01*
X104286384Y-93362300D01*
X104286387Y-93362300D01*
X104395318Y-93333112D01*
X104492983Y-93276725D01*
X104572725Y-93196983D01*
X104629112Y-93099318D01*
X104647039Y-93032415D01*
X106489000Y-93032415D01*
X106489000Y-93149585D01*
X106519326Y-93262764D01*
X106577911Y-93364236D01*
X106660764Y-93447089D01*
X106762236Y-93505674D01*
X106875415Y-93536000D01*
X106875417Y-93536000D01*
X106992583Y-93536000D01*
X106992585Y-93536000D01*
X107105764Y-93505674D01*
X107207236Y-93447089D01*
X107290089Y-93364236D01*
X107348674Y-93262764D01*
X107379000Y-93149585D01*
X107379000Y-93032415D01*
X107377208Y-93025727D01*
X111645200Y-93025727D01*
X111645200Y-93156273D01*
X111678988Y-93282372D01*
X111744261Y-93395428D01*
X111836572Y-93487739D01*
X111949628Y-93553012D01*
X112075727Y-93586800D01*
X112075729Y-93586800D01*
X112206271Y-93586800D01*
X112206273Y-93586800D01*
X112332372Y-93553012D01*
X112445428Y-93487739D01*
X112537739Y-93395428D01*
X112603012Y-93282372D01*
X112636800Y-93156273D01*
X112636800Y-93025727D01*
X112603012Y-92899628D01*
X112537739Y-92786572D01*
X112445428Y-92694261D01*
X112332372Y-92628988D01*
X112206273Y-92595200D01*
X112075727Y-92595200D01*
X111949628Y-92628988D01*
X111949625Y-92628989D01*
X111836575Y-92694259D01*
X111836569Y-92694263D01*
X111744263Y-92786569D01*
X111744259Y-92786575D01*
X111678989Y-92899625D01*
X111678988Y-92899628D01*
X111645200Y-93025727D01*
X107377208Y-93025727D01*
X107348674Y-92919236D01*
X107290089Y-92817764D01*
X107207236Y-92734911D01*
X107105764Y-92676326D01*
X106992585Y-92646000D01*
X106875415Y-92646000D01*
X106762236Y-92676326D01*
X106762233Y-92676327D01*
X106660767Y-92734909D01*
X106660761Y-92734913D01*
X106577913Y-92817761D01*
X106577909Y-92817767D01*
X106519327Y-92919233D01*
X106519326Y-92919236D01*
X106489000Y-93032415D01*
X104647039Y-93032415D01*
X104658300Y-92990387D01*
X104658300Y-92877613D01*
X104629112Y-92768682D01*
X104572725Y-92671017D01*
X104492983Y-92591275D01*
X104395318Y-92534888D01*
X104286387Y-92505700D01*
X104173613Y-92505700D01*
X104064682Y-92534888D01*
X104064680Y-92534888D01*
X104064680Y-92534889D01*
X103967017Y-92591275D01*
X103967014Y-92591277D01*
X103887277Y-92671014D01*
X103887275Y-92671017D01*
X103834740Y-92762011D01*
X103830888Y-92768682D01*
X103801700Y-92877613D01*
X103458300Y-92877613D01*
X103429112Y-92768682D01*
X103372725Y-92671017D01*
X103292983Y-92591275D01*
X103195318Y-92534888D01*
X103086387Y-92505700D01*
X102973613Y-92505700D01*
X102864682Y-92534888D01*
X102864680Y-92534888D01*
X102864680Y-92534889D01*
X102767017Y-92591275D01*
X102767014Y-92591277D01*
X102687277Y-92671014D01*
X102687275Y-92671017D01*
X102634740Y-92762011D01*
X102630888Y-92768682D01*
X102601700Y-92877613D01*
X102258300Y-92877613D01*
X102229112Y-92768682D01*
X102172725Y-92671017D01*
X102092983Y-92591275D01*
X101995318Y-92534888D01*
X101886387Y-92505700D01*
X101773613Y-92505700D01*
X101664682Y-92534888D01*
X101664680Y-92534888D01*
X101664680Y-92534889D01*
X101567017Y-92591275D01*
X101567014Y-92591277D01*
X101487277Y-92671014D01*
X101487275Y-92671017D01*
X101434740Y-92762011D01*
X101430888Y-92768682D01*
X101401700Y-92877613D01*
X101058300Y-92877613D01*
X101029112Y-92768682D01*
X100972725Y-92671017D01*
X100892983Y-92591275D01*
X100795318Y-92534888D01*
X100686387Y-92505700D01*
X100573613Y-92505700D01*
X100464682Y-92534888D01*
X100464680Y-92534888D01*
X100464680Y-92534889D01*
X100367017Y-92591275D01*
X100367014Y-92591277D01*
X100287277Y-92671014D01*
X100287275Y-92671017D01*
X100234740Y-92762011D01*
X100230888Y-92768682D01*
X100201700Y-92877613D01*
X78740000Y-92877613D01*
X78740000Y-91337465D01*
X84684000Y-91337465D01*
X84684000Y-91542534D01*
X84724003Y-91743641D01*
X84724005Y-91743649D01*
X84802478Y-91933099D01*
X84916400Y-92103597D01*
X84916406Y-92103604D01*
X85061395Y-92248593D01*
X85061402Y-92248599D01*
X85231900Y-92362521D01*
X85231901Y-92362521D01*
X85231902Y-92362522D01*
X85421351Y-92440995D01*
X85622465Y-92480999D01*
X85622469Y-92481000D01*
X85622470Y-92481000D01*
X85827531Y-92481000D01*
X85827532Y-92480999D01*
X86028649Y-92440995D01*
X86218098Y-92362522D01*
X86388599Y-92248598D01*
X86533598Y-92103599D01*
X86647522Y-91933098D01*
X86725995Y-91743649D01*
X86766000Y-91542530D01*
X86766000Y-91337470D01*
X86765999Y-91337465D01*
X87224000Y-91337465D01*
X87224000Y-91542534D01*
X87264003Y-91743641D01*
X87264005Y-91743649D01*
X87342478Y-91933099D01*
X87456400Y-92103597D01*
X87456406Y-92103604D01*
X87601395Y-92248593D01*
X87601402Y-92248599D01*
X87771900Y-92362521D01*
X87771901Y-92362521D01*
X87771902Y-92362522D01*
X87961351Y-92440995D01*
X88162465Y-92480999D01*
X88162469Y-92481000D01*
X88162470Y-92481000D01*
X88367531Y-92481000D01*
X88367532Y-92480999D01*
X88568649Y-92440995D01*
X88758098Y-92362522D01*
X88928599Y-92248598D01*
X88942470Y-92234727D01*
X122804200Y-92234727D01*
X122804200Y-92365273D01*
X122837988Y-92491372D01*
X122903261Y-92604428D01*
X122995572Y-92696739D01*
X123108628Y-92762012D01*
X123234727Y-92795800D01*
X123234729Y-92795800D01*
X123365271Y-92795800D01*
X123365273Y-92795800D01*
X123491372Y-92762012D01*
X123604428Y-92696739D01*
X123696739Y-92604428D01*
X123762012Y-92491372D01*
X123795800Y-92365273D01*
X123795800Y-92234727D01*
X123762012Y-92108628D01*
X123696739Y-91995572D01*
X123604428Y-91903261D01*
X123491372Y-91837988D01*
X123365273Y-91804200D01*
X123234727Y-91804200D01*
X123108628Y-91837988D01*
X123108625Y-91837989D01*
X122995575Y-91903259D01*
X122995569Y-91903263D01*
X122903263Y-91995569D01*
X122903259Y-91995575D01*
X122837989Y-92108625D01*
X122837988Y-92108628D01*
X122804200Y-92234727D01*
X88942470Y-92234727D01*
X89073598Y-92103599D01*
X89187522Y-91933098D01*
X89265995Y-91743649D01*
X89279130Y-91677613D01*
X100201700Y-91677613D01*
X100201700Y-91790387D01*
X100230888Y-91899318D01*
X100287275Y-91996983D01*
X100367017Y-92076725D01*
X100464682Y-92133112D01*
X100573613Y-92162300D01*
X100573615Y-92162300D01*
X100686384Y-92162300D01*
X100686387Y-92162300D01*
X100795318Y-92133112D01*
X100892983Y-92076725D01*
X100972725Y-91996983D01*
X101029112Y-91899318D01*
X101058300Y-91790387D01*
X101058300Y-91677613D01*
X101401700Y-91677613D01*
X101401700Y-91790387D01*
X101430888Y-91899318D01*
X101487275Y-91996983D01*
X101567017Y-92076725D01*
X101664682Y-92133112D01*
X101773613Y-92162300D01*
X101773615Y-92162300D01*
X101886384Y-92162300D01*
X101886387Y-92162300D01*
X101995318Y-92133112D01*
X102092983Y-92076725D01*
X102172725Y-91996983D01*
X102229112Y-91899318D01*
X102258300Y-91790387D01*
X102258300Y-91677613D01*
X102601700Y-91677613D01*
X102601700Y-91790387D01*
X102630888Y-91899318D01*
X102687275Y-91996983D01*
X102767017Y-92076725D01*
X102864682Y-92133112D01*
X102973613Y-92162300D01*
X102973615Y-92162300D01*
X103086384Y-92162300D01*
X103086387Y-92162300D01*
X103195318Y-92133112D01*
X103292983Y-92076725D01*
X103372725Y-91996983D01*
X103429112Y-91899318D01*
X103458300Y-91790387D01*
X103458300Y-91677613D01*
X103801700Y-91677613D01*
X103801700Y-91790387D01*
X103830888Y-91899318D01*
X103887275Y-91996983D01*
X103967017Y-92076725D01*
X104064682Y-92133112D01*
X104173613Y-92162300D01*
X104173615Y-92162300D01*
X104286384Y-92162300D01*
X104286387Y-92162300D01*
X104395318Y-92133112D01*
X104395320Y-92133110D01*
X104395322Y-92133110D01*
X104395323Y-92133109D01*
X104419391Y-92119214D01*
X104419392Y-92119213D01*
X104437725Y-92108628D01*
X104492983Y-92076725D01*
X104572725Y-91996983D01*
X104629112Y-91899318D01*
X104658300Y-91790387D01*
X104658300Y-91677613D01*
X104629112Y-91568682D01*
X104572725Y-91471017D01*
X104492983Y-91391275D01*
X104395318Y-91334888D01*
X104286387Y-91305700D01*
X104173613Y-91305700D01*
X104064682Y-91334888D01*
X104064680Y-91334888D01*
X104064680Y-91334889D01*
X103967017Y-91391275D01*
X103967014Y-91391277D01*
X103887277Y-91471014D01*
X103887275Y-91471017D01*
X103845985Y-91542534D01*
X103830888Y-91568682D01*
X103801700Y-91677613D01*
X103458300Y-91677613D01*
X103429112Y-91568682D01*
X103372725Y-91471017D01*
X103292983Y-91391275D01*
X103195318Y-91334888D01*
X103086387Y-91305700D01*
X102973613Y-91305700D01*
X102864682Y-91334888D01*
X102864680Y-91334888D01*
X102864680Y-91334889D01*
X102767017Y-91391275D01*
X102767014Y-91391277D01*
X102687277Y-91471014D01*
X102687275Y-91471017D01*
X102645985Y-91542534D01*
X102630888Y-91568682D01*
X102601700Y-91677613D01*
X102258300Y-91677613D01*
X102229112Y-91568682D01*
X102172725Y-91471017D01*
X102092983Y-91391275D01*
X101995318Y-91334888D01*
X101886387Y-91305700D01*
X101773613Y-91305700D01*
X101664682Y-91334888D01*
X101664680Y-91334888D01*
X101664680Y-91334889D01*
X101567017Y-91391275D01*
X101567014Y-91391277D01*
X101487277Y-91471014D01*
X101487275Y-91471017D01*
X101445985Y-91542534D01*
X101430888Y-91568682D01*
X101401700Y-91677613D01*
X101058300Y-91677613D01*
X101029112Y-91568682D01*
X100972725Y-91471017D01*
X100892983Y-91391275D01*
X100795318Y-91334888D01*
X100686387Y-91305700D01*
X100573613Y-91305700D01*
X100464682Y-91334888D01*
X100464680Y-91334888D01*
X100464680Y-91334889D01*
X100367017Y-91391275D01*
X100367014Y-91391277D01*
X100287277Y-91471014D01*
X100287275Y-91471017D01*
X100245985Y-91542534D01*
X100230888Y-91568682D01*
X100201700Y-91677613D01*
X89279130Y-91677613D01*
X89306000Y-91542530D01*
X89306000Y-91337470D01*
X89265995Y-91136351D01*
X89187522Y-90946902D01*
X89087350Y-90796983D01*
X89073599Y-90776402D01*
X89073593Y-90776395D01*
X88928601Y-90631403D01*
X88840577Y-90572588D01*
X88779847Y-90532010D01*
X88758098Y-90517478D01*
X88723780Y-90503263D01*
X88661856Y-90477613D01*
X100201700Y-90477613D01*
X100201700Y-90590387D01*
X100230888Y-90699318D01*
X100287275Y-90796983D01*
X100367017Y-90876725D01*
X100464682Y-90933112D01*
X100573613Y-90962300D01*
X100573615Y-90962300D01*
X100686384Y-90962300D01*
X100686387Y-90962300D01*
X100795318Y-90933112D01*
X100892983Y-90876725D01*
X100972725Y-90796983D01*
X101029112Y-90699318D01*
X101058300Y-90590387D01*
X101058300Y-90477613D01*
X101401700Y-90477613D01*
X101401700Y-90590387D01*
X101430888Y-90699318D01*
X101487275Y-90796983D01*
X101567017Y-90876725D01*
X101664682Y-90933112D01*
X101773613Y-90962300D01*
X101773615Y-90962300D01*
X101886384Y-90962300D01*
X101886387Y-90962300D01*
X101995318Y-90933112D01*
X102092983Y-90876725D01*
X102172725Y-90796983D01*
X102229112Y-90699318D01*
X102258300Y-90590387D01*
X102258300Y-90477613D01*
X102601700Y-90477613D01*
X102601700Y-90590387D01*
X102630888Y-90699318D01*
X102687275Y-90796983D01*
X102767017Y-90876725D01*
X102864682Y-90933112D01*
X102973613Y-90962300D01*
X102973615Y-90962300D01*
X103086384Y-90962300D01*
X103086387Y-90962300D01*
X103195318Y-90933112D01*
X103292983Y-90876725D01*
X103372725Y-90796983D01*
X103429112Y-90699318D01*
X103458300Y-90590387D01*
X103458300Y-90477613D01*
X103801700Y-90477613D01*
X103801700Y-90590387D01*
X103830888Y-90699318D01*
X103887275Y-90796983D01*
X103967017Y-90876725D01*
X104064682Y-90933112D01*
X104173613Y-90962300D01*
X104173615Y-90962300D01*
X104286384Y-90962300D01*
X104286387Y-90962300D01*
X104395318Y-90933112D01*
X104492983Y-90876725D01*
X104534981Y-90834727D01*
X122804200Y-90834727D01*
X122804200Y-90965273D01*
X122837988Y-91091372D01*
X122903261Y-91204428D01*
X122995572Y-91296739D01*
X123108628Y-91362012D01*
X123234727Y-91395800D01*
X123234729Y-91395800D01*
X123365271Y-91395800D01*
X123365273Y-91395800D01*
X123491372Y-91362012D01*
X123604428Y-91296739D01*
X123696739Y-91204428D01*
X123762012Y-91091372D01*
X123795800Y-90965273D01*
X123795800Y-90834727D01*
X123762012Y-90708628D01*
X123696739Y-90595572D01*
X123604428Y-90503261D01*
X123525466Y-90457672D01*
X123491374Y-90437989D01*
X123491373Y-90437988D01*
X123491372Y-90437988D01*
X123365273Y-90404200D01*
X123234727Y-90404200D01*
X123108628Y-90437988D01*
X123108625Y-90437989D01*
X122995575Y-90503259D01*
X122995569Y-90503263D01*
X122903263Y-90595569D01*
X122903259Y-90595575D01*
X122837989Y-90708625D01*
X122837988Y-90708628D01*
X122804200Y-90834727D01*
X104534981Y-90834727D01*
X104572725Y-90796983D01*
X104573432Y-90795757D01*
X104591423Y-90764599D01*
X104629110Y-90699321D01*
X104629111Y-90699319D01*
X104629112Y-90699318D01*
X104658300Y-90590387D01*
X104658300Y-90477613D01*
X104629112Y-90368682D01*
X104572725Y-90271017D01*
X104492983Y-90191275D01*
X104395318Y-90134888D01*
X104286387Y-90105700D01*
X104173613Y-90105700D01*
X104064682Y-90134888D01*
X104064680Y-90134888D01*
X104064680Y-90134889D01*
X103967017Y-90191275D01*
X103967014Y-90191277D01*
X103887277Y-90271014D01*
X103887275Y-90271017D01*
X103830888Y-90368682D01*
X103801700Y-90477613D01*
X103458300Y-90477613D01*
X103429112Y-90368682D01*
X103372725Y-90271017D01*
X103292983Y-90191275D01*
X103195318Y-90134888D01*
X103086387Y-90105700D01*
X102973613Y-90105700D01*
X102864682Y-90134888D01*
X102864680Y-90134888D01*
X102864680Y-90134889D01*
X102767017Y-90191275D01*
X102767014Y-90191277D01*
X102687277Y-90271014D01*
X102687275Y-90271017D01*
X102630888Y-90368682D01*
X102601700Y-90477613D01*
X102258300Y-90477613D01*
X102229112Y-90368682D01*
X102172725Y-90271017D01*
X102092983Y-90191275D01*
X101995318Y-90134888D01*
X101886387Y-90105700D01*
X101773613Y-90105700D01*
X101664682Y-90134888D01*
X101664680Y-90134888D01*
X101664680Y-90134889D01*
X101567017Y-90191275D01*
X101567014Y-90191277D01*
X101487277Y-90271014D01*
X101487275Y-90271017D01*
X101430888Y-90368682D01*
X101401700Y-90477613D01*
X101058300Y-90477613D01*
X101029112Y-90368682D01*
X100972725Y-90271017D01*
X100892983Y-90191275D01*
X100795318Y-90134888D01*
X100686387Y-90105700D01*
X100573613Y-90105700D01*
X100464682Y-90134888D01*
X100464680Y-90134888D01*
X100464680Y-90134889D01*
X100367017Y-90191275D01*
X100367014Y-90191277D01*
X100287277Y-90271014D01*
X100287275Y-90271017D01*
X100230888Y-90368682D01*
X100201700Y-90477613D01*
X88661856Y-90477613D01*
X88568649Y-90439005D01*
X88568641Y-90439003D01*
X88367534Y-90399000D01*
X88367530Y-90399000D01*
X88162470Y-90399000D01*
X88162465Y-90399000D01*
X87961358Y-90439003D01*
X87961350Y-90439005D01*
X87771900Y-90517478D01*
X87601402Y-90631400D01*
X87601395Y-90631406D01*
X87456406Y-90776395D01*
X87456400Y-90776402D01*
X87342478Y-90946900D01*
X87264005Y-91136350D01*
X87264003Y-91136358D01*
X87224000Y-91337465D01*
X86765999Y-91337465D01*
X86725995Y-91136351D01*
X86647522Y-90946902D01*
X86547350Y-90796983D01*
X86533599Y-90776402D01*
X86533593Y-90776395D01*
X86388604Y-90631406D01*
X86388597Y-90631400D01*
X86218099Y-90517478D01*
X86028649Y-90439005D01*
X86028641Y-90439003D01*
X85827534Y-90399000D01*
X85827530Y-90399000D01*
X85622470Y-90399000D01*
X85622465Y-90399000D01*
X85421358Y-90439003D01*
X85421350Y-90439005D01*
X85231900Y-90517478D01*
X85061402Y-90631400D01*
X85061395Y-90631406D01*
X84916406Y-90776395D01*
X84916400Y-90776402D01*
X84802478Y-90946900D01*
X84724005Y-91136350D01*
X84724003Y-91136358D01*
X84684000Y-91337465D01*
X78740000Y-91337465D01*
X78740000Y-89984415D01*
X106489000Y-89984415D01*
X106489000Y-90101585D01*
X106519326Y-90214764D01*
X106577911Y-90316236D01*
X106660764Y-90399089D01*
X106762236Y-90457674D01*
X106875415Y-90488000D01*
X106875417Y-90488000D01*
X106992583Y-90488000D01*
X106992585Y-90488000D01*
X107105764Y-90457674D01*
X107207236Y-90399089D01*
X107290089Y-90316236D01*
X107348674Y-90214764D01*
X107379000Y-90101585D01*
X107379000Y-90004727D01*
X111686200Y-90004727D01*
X111686200Y-90135273D01*
X111707500Y-90214764D01*
X111719988Y-90261371D01*
X111719989Y-90261374D01*
X111741745Y-90299057D01*
X111785261Y-90374428D01*
X111877572Y-90466739D01*
X111990628Y-90532012D01*
X112116727Y-90565800D01*
X112116729Y-90565800D01*
X112247271Y-90565800D01*
X112247273Y-90565800D01*
X112373372Y-90532012D01*
X112486428Y-90466739D01*
X112578739Y-90374428D01*
X112644012Y-90261372D01*
X112677800Y-90135273D01*
X112677800Y-90004727D01*
X112644012Y-89878628D01*
X112578739Y-89765572D01*
X112486428Y-89673261D01*
X112373372Y-89607988D01*
X112247273Y-89574200D01*
X112116727Y-89574200D01*
X111990628Y-89607988D01*
X111990625Y-89607989D01*
X111877575Y-89673259D01*
X111877569Y-89673263D01*
X111785263Y-89765569D01*
X111785259Y-89765575D01*
X111719989Y-89878625D01*
X111719988Y-89878628D01*
X111686200Y-90004727D01*
X107379000Y-90004727D01*
X107379000Y-89984415D01*
X107348674Y-89871236D01*
X107290089Y-89769764D01*
X107207236Y-89686911D01*
X107105764Y-89628326D01*
X106992585Y-89598000D01*
X106875415Y-89598000D01*
X106762236Y-89628326D01*
X106762233Y-89628327D01*
X106660767Y-89686909D01*
X106660761Y-89686913D01*
X106577913Y-89769761D01*
X106577909Y-89769767D01*
X106519327Y-89871233D01*
X106519326Y-89871236D01*
X106489000Y-89984415D01*
X78740000Y-89984415D01*
X78740000Y-88797465D01*
X84684000Y-88797465D01*
X84684000Y-89002534D01*
X84724003Y-89203641D01*
X84724005Y-89203649D01*
X84802478Y-89393099D01*
X84916400Y-89563597D01*
X84916406Y-89563604D01*
X85061395Y-89708593D01*
X85061402Y-89708599D01*
X85231900Y-89822521D01*
X85231901Y-89822521D01*
X85231902Y-89822522D01*
X85421351Y-89900995D01*
X85622465Y-89940999D01*
X85622469Y-89941000D01*
X85622470Y-89941000D01*
X85827531Y-89941000D01*
X85827532Y-89940999D01*
X86028649Y-89900995D01*
X86218098Y-89822522D01*
X86388599Y-89708598D01*
X86533598Y-89563599D01*
X86647522Y-89393098D01*
X86725995Y-89203649D01*
X86766000Y-89002530D01*
X86766000Y-88797470D01*
X86765999Y-88797465D01*
X87224000Y-88797465D01*
X87224000Y-89002534D01*
X87264003Y-89203641D01*
X87264005Y-89203649D01*
X87342478Y-89393099D01*
X87456400Y-89563597D01*
X87456406Y-89563604D01*
X87601395Y-89708593D01*
X87601402Y-89708599D01*
X87771900Y-89822521D01*
X87771901Y-89822521D01*
X87771902Y-89822522D01*
X87961351Y-89900995D01*
X88162465Y-89940999D01*
X88162469Y-89941000D01*
X88162470Y-89941000D01*
X88367531Y-89941000D01*
X88367532Y-89940999D01*
X88568649Y-89900995D01*
X88758098Y-89822522D01*
X88928599Y-89708598D01*
X89073598Y-89563599D01*
X89187522Y-89393098D01*
X89253122Y-89234727D01*
X122804200Y-89234727D01*
X122804200Y-89365273D01*
X122837988Y-89491372D01*
X122903261Y-89604428D01*
X122995572Y-89696739D01*
X123108628Y-89762012D01*
X123234727Y-89795800D01*
X123234729Y-89795800D01*
X123365271Y-89795800D01*
X123365273Y-89795800D01*
X123491372Y-89762012D01*
X123604428Y-89696739D01*
X123696739Y-89604428D01*
X123762012Y-89491372D01*
X123795800Y-89365273D01*
X123795800Y-89234727D01*
X123762012Y-89108628D01*
X123696739Y-88995572D01*
X123604428Y-88903261D01*
X123491372Y-88837988D01*
X123365273Y-88804200D01*
X123234727Y-88804200D01*
X123108628Y-88837988D01*
X123108625Y-88837989D01*
X122995575Y-88903259D01*
X122995569Y-88903263D01*
X122903263Y-88995569D01*
X122903259Y-88995575D01*
X122837989Y-89108625D01*
X122837988Y-89108628D01*
X122804200Y-89234727D01*
X89253122Y-89234727D01*
X89265995Y-89203649D01*
X89306000Y-89002530D01*
X89306000Y-88797470D01*
X89265995Y-88596351D01*
X89187522Y-88406902D01*
X89073598Y-88236401D01*
X89073593Y-88236395D01*
X88928604Y-88091406D01*
X88928597Y-88091400D01*
X88900651Y-88072727D01*
X110629200Y-88072727D01*
X110629200Y-88203273D01*
X110662988Y-88329372D01*
X110728261Y-88442428D01*
X110820572Y-88534739D01*
X110933628Y-88600012D01*
X111059727Y-88633800D01*
X111059729Y-88633800D01*
X111190271Y-88633800D01*
X111190273Y-88633800D01*
X111316372Y-88600012D01*
X111429428Y-88534739D01*
X111521739Y-88442428D01*
X111587012Y-88329372D01*
X111620800Y-88203273D01*
X111620800Y-88072727D01*
X111899200Y-88072727D01*
X111899200Y-88203273D01*
X111932988Y-88329372D01*
X111998261Y-88442428D01*
X112090572Y-88534739D01*
X112203628Y-88600012D01*
X112329727Y-88633800D01*
X112329729Y-88633800D01*
X112460271Y-88633800D01*
X112460273Y-88633800D01*
X112586372Y-88600012D01*
X112699428Y-88534739D01*
X112791739Y-88442428D01*
X112857012Y-88329372D01*
X112890800Y-88203273D01*
X112890800Y-88072727D01*
X112857012Y-87946628D01*
X112791739Y-87833572D01*
X112699428Y-87741261D01*
X112586372Y-87675988D01*
X112460273Y-87642200D01*
X112329727Y-87642200D01*
X112203628Y-87675988D01*
X112203625Y-87675989D01*
X112090575Y-87741259D01*
X112090569Y-87741263D01*
X111998263Y-87833569D01*
X111998259Y-87833575D01*
X111932989Y-87946625D01*
X111932988Y-87946628D01*
X111899200Y-88072727D01*
X111620800Y-88072727D01*
X111587012Y-87946628D01*
X111521739Y-87833572D01*
X111429428Y-87741261D01*
X111316372Y-87675988D01*
X111190273Y-87642200D01*
X111059727Y-87642200D01*
X110933628Y-87675988D01*
X110933625Y-87675989D01*
X110820575Y-87741259D01*
X110820569Y-87741263D01*
X110728263Y-87833569D01*
X110728259Y-87833575D01*
X110662989Y-87946625D01*
X110662988Y-87946628D01*
X110629200Y-88072727D01*
X88900651Y-88072727D01*
X88758099Y-87977478D01*
X88568649Y-87899005D01*
X88568641Y-87899003D01*
X88367534Y-87859000D01*
X88367530Y-87859000D01*
X88162470Y-87859000D01*
X88162465Y-87859000D01*
X87961358Y-87899003D01*
X87961350Y-87899005D01*
X87771900Y-87977478D01*
X87601402Y-88091400D01*
X87601395Y-88091406D01*
X87456406Y-88236395D01*
X87456400Y-88236402D01*
X87342478Y-88406900D01*
X87264005Y-88596350D01*
X87264003Y-88596358D01*
X87224000Y-88797465D01*
X86765999Y-88797465D01*
X86725995Y-88596351D01*
X86647522Y-88406902D01*
X86533598Y-88236401D01*
X86533593Y-88236395D01*
X86388604Y-88091406D01*
X86388597Y-88091400D01*
X86218099Y-87977478D01*
X86028649Y-87899005D01*
X86028641Y-87899003D01*
X85827534Y-87859000D01*
X85827530Y-87859000D01*
X85622470Y-87859000D01*
X85622465Y-87859000D01*
X85421358Y-87899003D01*
X85421350Y-87899005D01*
X85231900Y-87977478D01*
X85061402Y-88091400D01*
X85061395Y-88091406D01*
X84916406Y-88236395D01*
X84916400Y-88236402D01*
X84802478Y-88406900D01*
X84724005Y-88596350D01*
X84724003Y-88596358D01*
X84684000Y-88797465D01*
X78740000Y-88797465D01*
X78740000Y-86257465D01*
X84684000Y-86257465D01*
X84684000Y-86462534D01*
X84724003Y-86663641D01*
X84724005Y-86663649D01*
X84802478Y-86853099D01*
X84916400Y-87023597D01*
X84916406Y-87023604D01*
X85061395Y-87168593D01*
X85061402Y-87168599D01*
X85231900Y-87282521D01*
X85231901Y-87282521D01*
X85231902Y-87282522D01*
X85421351Y-87360995D01*
X85622465Y-87400999D01*
X85622469Y-87401000D01*
X85622470Y-87401000D01*
X85827531Y-87401000D01*
X85827532Y-87400999D01*
X86028649Y-87360995D01*
X86218098Y-87282522D01*
X86388599Y-87168598D01*
X86533598Y-87023599D01*
X86647522Y-86853098D01*
X86725995Y-86663649D01*
X86766000Y-86462530D01*
X86766000Y-86257470D01*
X86765999Y-86257465D01*
X87224000Y-86257465D01*
X87224000Y-86462534D01*
X87264003Y-86663641D01*
X87264005Y-86663649D01*
X87342478Y-86853099D01*
X87456400Y-87023597D01*
X87456406Y-87023604D01*
X87601395Y-87168593D01*
X87601402Y-87168599D01*
X87771900Y-87282521D01*
X87771901Y-87282521D01*
X87771902Y-87282522D01*
X87961351Y-87360995D01*
X88162465Y-87400999D01*
X88162469Y-87401000D01*
X88162470Y-87401000D01*
X88367531Y-87401000D01*
X88367532Y-87400999D01*
X88568649Y-87360995D01*
X88758098Y-87282522D01*
X88928599Y-87168598D01*
X89073598Y-87023599D01*
X89187522Y-86853098D01*
X89260992Y-86675727D01*
X110629200Y-86675727D01*
X110629200Y-86806273D01*
X110662988Y-86932372D01*
X110728261Y-87045428D01*
X110820572Y-87137739D01*
X110933628Y-87203012D01*
X111059727Y-87236800D01*
X111059729Y-87236800D01*
X111190271Y-87236800D01*
X111190273Y-87236800D01*
X111316372Y-87203012D01*
X111429428Y-87137739D01*
X111521739Y-87045428D01*
X111587012Y-86932372D01*
X111620800Y-86806273D01*
X111620800Y-86675727D01*
X111899200Y-86675727D01*
X111899200Y-86806273D01*
X111932988Y-86932372D01*
X111998261Y-87045428D01*
X112090572Y-87137739D01*
X112203628Y-87203012D01*
X112329727Y-87236800D01*
X112329729Y-87236800D01*
X112460271Y-87236800D01*
X112460273Y-87236800D01*
X112586372Y-87203012D01*
X112699428Y-87137739D01*
X112791739Y-87045428D01*
X112857012Y-86932372D01*
X112890800Y-86806273D01*
X112890800Y-86675727D01*
X112857012Y-86549628D01*
X112791739Y-86436572D01*
X112699428Y-86344261D01*
X112586372Y-86278988D01*
X112460273Y-86245200D01*
X112329727Y-86245200D01*
X112203628Y-86278988D01*
X112203625Y-86278989D01*
X112090575Y-86344259D01*
X112090569Y-86344263D01*
X111998263Y-86436569D01*
X111998259Y-86436575D01*
X111932989Y-86549625D01*
X111932988Y-86549628D01*
X111899200Y-86675727D01*
X111620800Y-86675727D01*
X111587012Y-86549628D01*
X111521739Y-86436572D01*
X111429428Y-86344261D01*
X111316372Y-86278988D01*
X111190273Y-86245200D01*
X111059727Y-86245200D01*
X110933628Y-86278988D01*
X110933625Y-86278989D01*
X110820575Y-86344259D01*
X110820569Y-86344263D01*
X110728263Y-86436569D01*
X110728259Y-86436575D01*
X110662989Y-86549625D01*
X110662988Y-86549628D01*
X110629200Y-86675727D01*
X89260992Y-86675727D01*
X89265995Y-86663649D01*
X89306000Y-86462530D01*
X89306000Y-86257470D01*
X89265995Y-86056351D01*
X89187522Y-85866902D01*
X89165047Y-85833266D01*
X89073599Y-85696402D01*
X89073593Y-85696395D01*
X88980113Y-85602915D01*
X105790500Y-85602915D01*
X105790500Y-85720085D01*
X105820826Y-85833264D01*
X105879411Y-85934736D01*
X105962264Y-86017589D01*
X106063736Y-86076174D01*
X106176915Y-86106500D01*
X106176917Y-86106500D01*
X106294083Y-86106500D01*
X106294085Y-86106500D01*
X106407264Y-86076174D01*
X106508736Y-86017589D01*
X106533760Y-85992565D01*
X119656700Y-85992565D01*
X119656700Y-86175434D01*
X119692372Y-86354767D01*
X119692375Y-86354779D01*
X119762347Y-86523708D01*
X119762354Y-86523721D01*
X119863941Y-86675756D01*
X119863944Y-86675760D01*
X119993239Y-86805055D01*
X119993243Y-86805058D01*
X120145278Y-86906645D01*
X120145291Y-86906652D01*
X120314220Y-86976624D01*
X120314225Y-86976626D01*
X120493565Y-87012299D01*
X120493568Y-87012300D01*
X120493570Y-87012300D01*
X122476432Y-87012300D01*
X122476433Y-87012299D01*
X122655775Y-86976626D01*
X122824715Y-86906649D01*
X122976757Y-86805058D01*
X123106058Y-86675757D01*
X123207649Y-86523715D01*
X123277626Y-86354775D01*
X123313300Y-86175430D01*
X123313300Y-85992570D01*
X123313300Y-85992567D01*
X123313299Y-85992565D01*
X126116700Y-85992565D01*
X126116700Y-86175434D01*
X126152372Y-86354767D01*
X126152375Y-86354779D01*
X126222347Y-86523708D01*
X126222354Y-86523721D01*
X126323941Y-86675756D01*
X126323944Y-86675760D01*
X126453239Y-86805055D01*
X126453243Y-86805058D01*
X126605278Y-86906645D01*
X126605291Y-86906652D01*
X126774220Y-86976624D01*
X126774225Y-86976626D01*
X126953565Y-87012299D01*
X126953568Y-87012300D01*
X126953570Y-87012300D01*
X127936432Y-87012300D01*
X127936433Y-87012299D01*
X128115775Y-86976626D01*
X128284715Y-86906649D01*
X128436757Y-86805058D01*
X128566058Y-86675757D01*
X128667649Y-86523715D01*
X128737626Y-86354775D01*
X128773300Y-86175430D01*
X128773300Y-85992570D01*
X128773300Y-85992567D01*
X128773299Y-85992565D01*
X128759756Y-85924479D01*
X128737626Y-85813225D01*
X128737624Y-85813220D01*
X128667652Y-85644291D01*
X128667645Y-85644278D01*
X128566058Y-85492243D01*
X128566055Y-85492239D01*
X128436760Y-85362944D01*
X128436756Y-85362941D01*
X128284721Y-85261354D01*
X128284708Y-85261347D01*
X128115779Y-85191375D01*
X128115767Y-85191372D01*
X127936433Y-85155700D01*
X127936430Y-85155700D01*
X126953570Y-85155700D01*
X126953567Y-85155700D01*
X126774232Y-85191372D01*
X126774220Y-85191375D01*
X126605291Y-85261347D01*
X126605278Y-85261354D01*
X126453243Y-85362941D01*
X126453239Y-85362944D01*
X126323944Y-85492239D01*
X126323941Y-85492243D01*
X126222354Y-85644278D01*
X126222347Y-85644291D01*
X126152375Y-85813220D01*
X126152372Y-85813232D01*
X126116700Y-85992565D01*
X123313299Y-85992565D01*
X123299756Y-85924479D01*
X123277626Y-85813225D01*
X123277624Y-85813220D01*
X123207652Y-85644291D01*
X123207645Y-85644278D01*
X123106058Y-85492243D01*
X123106055Y-85492239D01*
X122976760Y-85362944D01*
X122976756Y-85362941D01*
X122824721Y-85261354D01*
X122824708Y-85261347D01*
X122655779Y-85191375D01*
X122655767Y-85191372D01*
X122476433Y-85155700D01*
X122476430Y-85155700D01*
X120493570Y-85155700D01*
X120493567Y-85155700D01*
X120314232Y-85191372D01*
X120314220Y-85191375D01*
X120145291Y-85261347D01*
X120145278Y-85261354D01*
X119993243Y-85362941D01*
X119993239Y-85362944D01*
X119863944Y-85492239D01*
X119863941Y-85492243D01*
X119762354Y-85644278D01*
X119762347Y-85644291D01*
X119692375Y-85813220D01*
X119692372Y-85813232D01*
X119656700Y-85992565D01*
X106533760Y-85992565D01*
X106591589Y-85934736D01*
X106650174Y-85833264D01*
X106680500Y-85720085D01*
X106680500Y-85602915D01*
X106650174Y-85489736D01*
X106591589Y-85388264D01*
X106508736Y-85305411D01*
X106407264Y-85246826D01*
X106294085Y-85216500D01*
X106176915Y-85216500D01*
X106063736Y-85246826D01*
X106063733Y-85246827D01*
X105962267Y-85305409D01*
X105962261Y-85305413D01*
X105879413Y-85388261D01*
X105879409Y-85388267D01*
X105820827Y-85489733D01*
X105820826Y-85489736D01*
X105790500Y-85602915D01*
X88980113Y-85602915D01*
X88928604Y-85551406D01*
X88928597Y-85551400D01*
X88758099Y-85437478D01*
X88568649Y-85359005D01*
X88568641Y-85359003D01*
X88367534Y-85319000D01*
X88367530Y-85319000D01*
X88162470Y-85319000D01*
X88162465Y-85319000D01*
X87961358Y-85359003D01*
X87961350Y-85359005D01*
X87771900Y-85437478D01*
X87601402Y-85551400D01*
X87601395Y-85551406D01*
X87456406Y-85696395D01*
X87456400Y-85696402D01*
X87342478Y-85866900D01*
X87264005Y-86056350D01*
X87264003Y-86056358D01*
X87224000Y-86257465D01*
X86765999Y-86257465D01*
X86725995Y-86056351D01*
X86647522Y-85866902D01*
X86625047Y-85833266D01*
X86533599Y-85696402D01*
X86533593Y-85696395D01*
X86388604Y-85551406D01*
X86388597Y-85551400D01*
X86218099Y-85437478D01*
X86028649Y-85359005D01*
X86028641Y-85359003D01*
X85827534Y-85319000D01*
X85827530Y-85319000D01*
X85622470Y-85319000D01*
X85622465Y-85319000D01*
X85421358Y-85359003D01*
X85421350Y-85359005D01*
X85231900Y-85437478D01*
X85061402Y-85551400D01*
X85061395Y-85551406D01*
X84916406Y-85696395D01*
X84916400Y-85696402D01*
X84802478Y-85866900D01*
X84724005Y-86056350D01*
X84724003Y-86056358D01*
X84684000Y-86257465D01*
X78740000Y-86257465D01*
X78740000Y-83718716D01*
X84696700Y-83718716D01*
X84696700Y-83921283D01*
X84736215Y-84119936D01*
X84736218Y-84119948D01*
X84813728Y-84307076D01*
X84813735Y-84307089D01*
X84926266Y-84475502D01*
X84926269Y-84475506D01*
X85069493Y-84618730D01*
X85069497Y-84618733D01*
X85237910Y-84731264D01*
X85237923Y-84731271D01*
X85425051Y-84808781D01*
X85425056Y-84808783D01*
X85623716Y-84848299D01*
X85623719Y-84848300D01*
X85623721Y-84848300D01*
X85826281Y-84848300D01*
X85826282Y-84848299D01*
X86024944Y-84808783D01*
X86212083Y-84731268D01*
X86380503Y-84618733D01*
X86523733Y-84475503D01*
X86636268Y-84307083D01*
X86713783Y-84119944D01*
X86753300Y-83921279D01*
X86753300Y-83718721D01*
X86753300Y-83718718D01*
X86753299Y-83718716D01*
X86736083Y-83632167D01*
X86713783Y-83520056D01*
X86654641Y-83377273D01*
X86636271Y-83332923D01*
X86636264Y-83332910D01*
X86523733Y-83164497D01*
X86523730Y-83164493D01*
X86380506Y-83021269D01*
X86380502Y-83021266D01*
X86249592Y-82933794D01*
X87033500Y-82933794D01*
X87033500Y-84706206D01*
X87044304Y-84780361D01*
X87044304Y-84780362D01*
X87044305Y-84780364D01*
X87100221Y-84894743D01*
X87100223Y-84894746D01*
X87190253Y-84984776D01*
X87190256Y-84984778D01*
X87299863Y-85038361D01*
X87304639Y-85040696D01*
X87378794Y-85051500D01*
X87378800Y-85051500D01*
X89151200Y-85051500D01*
X89151206Y-85051500D01*
X89225361Y-85040696D01*
X89282553Y-85012736D01*
X89339743Y-84984778D01*
X89339746Y-84984776D01*
X89429776Y-84894746D01*
X89429778Y-84894743D01*
X89457736Y-84837553D01*
X89485696Y-84780361D01*
X89496500Y-84706206D01*
X89496500Y-84643727D01*
X100850200Y-84643727D01*
X100850200Y-84774273D01*
X100883988Y-84900372D01*
X100949261Y-85013428D01*
X101041572Y-85105739D01*
X101154628Y-85171012D01*
X101280727Y-85204800D01*
X101280729Y-85204800D01*
X101411271Y-85204800D01*
X101411273Y-85204800D01*
X101537372Y-85171012D01*
X101650428Y-85105739D01*
X101742739Y-85013428D01*
X101808012Y-84900372D01*
X101841800Y-84774273D01*
X101841800Y-84643727D01*
X101808012Y-84517628D01*
X101742739Y-84404572D01*
X101650428Y-84312261D01*
X101537372Y-84246988D01*
X101411273Y-84213200D01*
X101280727Y-84213200D01*
X101154628Y-84246988D01*
X101154625Y-84246989D01*
X101041575Y-84312259D01*
X101041569Y-84312263D01*
X100949263Y-84404569D01*
X100949259Y-84404575D01*
X100883989Y-84517625D01*
X100883988Y-84517628D01*
X100850200Y-84643727D01*
X89496500Y-84643727D01*
X89496500Y-83373727D01*
X100850200Y-83373727D01*
X100850200Y-83504273D01*
X100883988Y-83630372D01*
X100949261Y-83743428D01*
X101041572Y-83835739D01*
X101154628Y-83901012D01*
X101280727Y-83934800D01*
X101280729Y-83934800D01*
X101411271Y-83934800D01*
X101411273Y-83934800D01*
X101537372Y-83901012D01*
X101650428Y-83835739D01*
X101742739Y-83743428D01*
X101808012Y-83630372D01*
X101841800Y-83504273D01*
X101841800Y-83373727D01*
X101808012Y-83247628D01*
X101807492Y-83246727D01*
X104787200Y-83246727D01*
X104787200Y-83377272D01*
X104820988Y-83503371D01*
X104820989Y-83503374D01*
X104842745Y-83541057D01*
X104886261Y-83616428D01*
X104978572Y-83708739D01*
X105091628Y-83774012D01*
X105217727Y-83807800D01*
X105217729Y-83807800D01*
X105348271Y-83807800D01*
X105348273Y-83807800D01*
X105474372Y-83774012D01*
X105587428Y-83708739D01*
X105587431Y-83708735D01*
X105588508Y-83707910D01*
X105589585Y-83707493D01*
X105594467Y-83704675D01*
X105594906Y-83705435D01*
X105653675Y-83682712D01*
X105722121Y-83696746D01*
X105739492Y-83707910D01*
X105740572Y-83708739D01*
X105853628Y-83774012D01*
X105979727Y-83807800D01*
X105979729Y-83807800D01*
X106110271Y-83807800D01*
X106110273Y-83807800D01*
X106236372Y-83774012D01*
X106349428Y-83708739D01*
X106441739Y-83616428D01*
X106507012Y-83503372D01*
X106540800Y-83377273D01*
X106540800Y-83246727D01*
X106507012Y-83120628D01*
X106441739Y-83007572D01*
X106349428Y-82915261D01*
X106236372Y-82849988D01*
X106110273Y-82816200D01*
X105979727Y-82816200D01*
X105853628Y-82849988D01*
X105853625Y-82849989D01*
X105740572Y-82915260D01*
X105739484Y-82916096D01*
X105738400Y-82916515D01*
X105733533Y-82919325D01*
X105733094Y-82918565D01*
X105674314Y-82941288D01*
X105605870Y-82927248D01*
X105588516Y-82916096D01*
X105587427Y-82915260D01*
X105474374Y-82849989D01*
X105474373Y-82849988D01*
X105474372Y-82849988D01*
X105348273Y-82816200D01*
X105217727Y-82816200D01*
X105091628Y-82849988D01*
X105091625Y-82849989D01*
X104978575Y-82915259D01*
X104978569Y-82915263D01*
X104886263Y-83007569D01*
X104886259Y-83007575D01*
X104820989Y-83120625D01*
X104820988Y-83120628D01*
X104787200Y-83246727D01*
X101807492Y-83246727D01*
X101742739Y-83134572D01*
X101650428Y-83042261D01*
X101537372Y-82976988D01*
X101411273Y-82943200D01*
X101280727Y-82943200D01*
X101154628Y-82976988D01*
X101154625Y-82976989D01*
X101041575Y-83042259D01*
X101041569Y-83042263D01*
X100949263Y-83134569D01*
X100949259Y-83134575D01*
X100883989Y-83247625D01*
X100883989Y-83247626D01*
X100883988Y-83247628D01*
X100850200Y-83373727D01*
X89496500Y-83373727D01*
X89496500Y-82933794D01*
X89485696Y-82859639D01*
X89464460Y-82816200D01*
X89429778Y-82745256D01*
X89429776Y-82745253D01*
X89339746Y-82655223D01*
X89339743Y-82655221D01*
X89225364Y-82599305D01*
X89225362Y-82599304D01*
X89225361Y-82599304D01*
X89151206Y-82588500D01*
X87378794Y-82588500D01*
X87304639Y-82599304D01*
X87304637Y-82599304D01*
X87304635Y-82599305D01*
X87190256Y-82655221D01*
X87190253Y-82655223D01*
X87100223Y-82745253D01*
X87100221Y-82745256D01*
X87044305Y-82859635D01*
X87044304Y-82859637D01*
X87044304Y-82859639D01*
X87033500Y-82933794D01*
X86249592Y-82933794D01*
X86212089Y-82908735D01*
X86212076Y-82908728D01*
X86024948Y-82831218D01*
X86024936Y-82831215D01*
X85826282Y-82791700D01*
X85826279Y-82791700D01*
X85623721Y-82791700D01*
X85623718Y-82791700D01*
X85425063Y-82831215D01*
X85425051Y-82831218D01*
X85237923Y-82908728D01*
X85237910Y-82908735D01*
X85069497Y-83021266D01*
X85069493Y-83021269D01*
X84926269Y-83164493D01*
X84926266Y-83164497D01*
X84813735Y-83332910D01*
X84813728Y-83332923D01*
X84736218Y-83520051D01*
X84736215Y-83520063D01*
X84696700Y-83718716D01*
X78740000Y-83718716D01*
X78740000Y-77411415D01*
X82740000Y-77411415D01*
X82740000Y-77528585D01*
X82770326Y-77641764D01*
X82828911Y-77743236D01*
X82911764Y-77826089D01*
X83013236Y-77884674D01*
X83126415Y-77915000D01*
X83126417Y-77915000D01*
X83243583Y-77915000D01*
X83243585Y-77915000D01*
X83356764Y-77884674D01*
X83458236Y-77826089D01*
X83541089Y-77743236D01*
X83599674Y-77641764D01*
X83630000Y-77528585D01*
X83630000Y-77411415D01*
X83628208Y-77404727D01*
X85337200Y-77404727D01*
X85337200Y-77535273D01*
X85370988Y-77661372D01*
X85436261Y-77774428D01*
X85528572Y-77866739D01*
X85641628Y-77932012D01*
X85767727Y-77965800D01*
X85767729Y-77965800D01*
X85898271Y-77965800D01*
X85898273Y-77965800D01*
X86024372Y-77932012D01*
X86137428Y-77866739D01*
X86229739Y-77774428D01*
X86295012Y-77661372D01*
X86328800Y-77535273D01*
X86328800Y-77404727D01*
X86295012Y-77278628D01*
X86229739Y-77165572D01*
X86137428Y-77073261D01*
X86024372Y-77007988D01*
X85898273Y-76974200D01*
X85767727Y-76974200D01*
X85641628Y-77007988D01*
X85641625Y-77007989D01*
X85528575Y-77073259D01*
X85528569Y-77073263D01*
X85436263Y-77165569D01*
X85436259Y-77165575D01*
X85370989Y-77278625D01*
X85370988Y-77278628D01*
X85337200Y-77404727D01*
X83628208Y-77404727D01*
X83599674Y-77298236D01*
X83541089Y-77196764D01*
X83458236Y-77113911D01*
X83356764Y-77055326D01*
X83243585Y-77025000D01*
X83126415Y-77025000D01*
X83013236Y-77055326D01*
X83013233Y-77055327D01*
X82911767Y-77113909D01*
X82911761Y-77113913D01*
X82828913Y-77196761D01*
X82828909Y-77196767D01*
X82770327Y-77298233D01*
X82770326Y-77298236D01*
X82740000Y-77411415D01*
X78740000Y-77411415D01*
X78740000Y-69684038D01*
X79171700Y-69684038D01*
X79171700Y-70015961D01*
X79204233Y-70346286D01*
X79204236Y-70346303D01*
X79268990Y-70671844D01*
X79365346Y-70989488D01*
X79492371Y-71296153D01*
X79492373Y-71296158D01*
X79648834Y-71588876D01*
X79648845Y-71588894D01*
X79833246Y-71864869D01*
X79833256Y-71864883D01*
X80043830Y-72121469D01*
X80278530Y-72356169D01*
X80278535Y-72356173D01*
X80278536Y-72356174D01*
X80535122Y-72566748D01*
X80811112Y-72751159D01*
X80811121Y-72751164D01*
X80811123Y-72751165D01*
X81103841Y-72907626D01*
X81103843Y-72907626D01*
X81103849Y-72907630D01*
X81410513Y-73034654D01*
X81728150Y-73131008D01*
X82053703Y-73195765D01*
X82384035Y-73228300D01*
X82384038Y-73228300D01*
X82715962Y-73228300D01*
X82715965Y-73228300D01*
X83046297Y-73195765D01*
X83371850Y-73131008D01*
X83689487Y-73034654D01*
X83996151Y-72907630D01*
X84288888Y-72751159D01*
X84564878Y-72566748D01*
X84821464Y-72356174D01*
X85056174Y-72121464D01*
X85266748Y-71864878D01*
X85451159Y-71588888D01*
X85607630Y-71296151D01*
X85734654Y-70989487D01*
X85831008Y-70671850D01*
X85895765Y-70346297D01*
X85928300Y-70015965D01*
X85928300Y-69684038D01*
X123621700Y-69684038D01*
X123621700Y-70015961D01*
X123654233Y-70346286D01*
X123654236Y-70346303D01*
X123718990Y-70671844D01*
X123815346Y-70989488D01*
X123942371Y-71296153D01*
X123942373Y-71296158D01*
X124098834Y-71588876D01*
X124098845Y-71588894D01*
X124283246Y-71864869D01*
X124283256Y-71864883D01*
X124493830Y-72121469D01*
X124728530Y-72356169D01*
X124728535Y-72356173D01*
X124728536Y-72356174D01*
X124985122Y-72566748D01*
X125261112Y-72751159D01*
X125261121Y-72751164D01*
X125261123Y-72751165D01*
X125553841Y-72907626D01*
X125553843Y-72907626D01*
X125553849Y-72907630D01*
X125860513Y-73034654D01*
X126178150Y-73131008D01*
X126503703Y-73195765D01*
X126834035Y-73228300D01*
X126834038Y-73228300D01*
X127165962Y-73228300D01*
X127165965Y-73228300D01*
X127496297Y-73195765D01*
X127821850Y-73131008D01*
X128139487Y-73034654D01*
X128446151Y-72907630D01*
X128738888Y-72751159D01*
X129014878Y-72566748D01*
X129271464Y-72356174D01*
X129506174Y-72121464D01*
X129716748Y-71864878D01*
X129901159Y-71588888D01*
X130057630Y-71296151D01*
X130184654Y-70989487D01*
X130281008Y-70671850D01*
X130345765Y-70346297D01*
X130378300Y-70015965D01*
X130378300Y-69684035D01*
X130345765Y-69353703D01*
X130281008Y-69028150D01*
X130184654Y-68710513D01*
X130057630Y-68403849D01*
X129901159Y-68111112D01*
X129716748Y-67835122D01*
X129506174Y-67578536D01*
X129506173Y-67578535D01*
X129506169Y-67578530D01*
X129271469Y-67343830D01*
X129014883Y-67133256D01*
X129014882Y-67133255D01*
X129014878Y-67133252D01*
X128738888Y-66948841D01*
X128738883Y-66948838D01*
X128738876Y-66948834D01*
X128446158Y-66792373D01*
X128446153Y-66792371D01*
X128139488Y-66665346D01*
X127821844Y-66568990D01*
X127496303Y-66504236D01*
X127496286Y-66504233D01*
X127246487Y-66479630D01*
X127165965Y-66471700D01*
X126834035Y-66471700D01*
X126759563Y-66479034D01*
X126503713Y-66504233D01*
X126503696Y-66504236D01*
X126178155Y-66568990D01*
X125860511Y-66665346D01*
X125553846Y-66792371D01*
X125553841Y-66792373D01*
X125261123Y-66948834D01*
X125261105Y-66948845D01*
X124985130Y-67133246D01*
X124985116Y-67133256D01*
X124728530Y-67343830D01*
X124493830Y-67578530D01*
X124283256Y-67835116D01*
X124283246Y-67835130D01*
X124098845Y-68111105D01*
X124098834Y-68111123D01*
X123942373Y-68403841D01*
X123942371Y-68403846D01*
X123815346Y-68710511D01*
X123718990Y-69028155D01*
X123654236Y-69353696D01*
X123654233Y-69353713D01*
X123621700Y-69684038D01*
X85928300Y-69684038D01*
X85928300Y-69684035D01*
X85895765Y-69353703D01*
X85831008Y-69028150D01*
X85734654Y-68710513D01*
X85607630Y-68403849D01*
X85451159Y-68111112D01*
X85266748Y-67835122D01*
X85056174Y-67578536D01*
X85056173Y-67578535D01*
X85056169Y-67578530D01*
X84821469Y-67343830D01*
X84564883Y-67133256D01*
X84564882Y-67133255D01*
X84564878Y-67133252D01*
X84288888Y-66948841D01*
X84288883Y-66948838D01*
X84288876Y-66948834D01*
X83996158Y-66792373D01*
X83996153Y-66792371D01*
X83689488Y-66665346D01*
X83371844Y-66568990D01*
X83046303Y-66504236D01*
X83046286Y-66504233D01*
X82796487Y-66479630D01*
X82715965Y-66471700D01*
X82384035Y-66471700D01*
X82309563Y-66479034D01*
X82053713Y-66504233D01*
X82053696Y-66504236D01*
X81728155Y-66568990D01*
X81410511Y-66665346D01*
X81103846Y-66792371D01*
X81103841Y-66792373D01*
X80811123Y-66948834D01*
X80811105Y-66948845D01*
X80535130Y-67133246D01*
X80535116Y-67133256D01*
X80278530Y-67343830D01*
X80043830Y-67578530D01*
X79833256Y-67835116D01*
X79833246Y-67835130D01*
X79648845Y-68111105D01*
X79648834Y-68111123D01*
X79492373Y-68403841D01*
X79492371Y-68403846D01*
X79365346Y-68710511D01*
X79268990Y-69028155D01*
X79204236Y-69353696D01*
X79204233Y-69353713D01*
X79171700Y-69684038D01*
X78740000Y-69684038D01*
X78740000Y-67602594D01*
X78759419Y-67535972D01*
X78906373Y-67305300D01*
X78912564Y-67296457D01*
X79142028Y-66997412D01*
X79148966Y-66989144D01*
X79403616Y-66711244D01*
X79411244Y-66703616D01*
X79689144Y-66448966D01*
X79697412Y-66442028D01*
X79996468Y-66212556D01*
X80005273Y-66206390D01*
X80235973Y-66059418D01*
X80302596Y-66040000D01*
X129281799Y-66040000D01*
X129348694Y-66059593D01*
G37*
%TD.AperFunction*%
%TD*%
M02*
