%TF.GenerationSoftware,KiCad,Pcbnew,9.0.2+1*%
%TF.CreationDate,2025-07-26T23:59:44+01:00*%
%TF.ProjectId,ICE40HXDevBoardHDMI,49434534-3048-4584-9465-76426f617264,rev?*%
%TF.SameCoordinates,Original*%
%TF.FileFunction,Paste,Top*%
%TF.FilePolarity,Positive*%
%FSLAX46Y46*%
G04 Gerber Fmt 4.6, Leading zero omitted, Abs format (unit mm)*
G04 Created by KiCad (PCBNEW 9.0.2+1) date 2025-07-26 23:59:44*
%MOMM*%
%LPD*%
G01*
G04 APERTURE LIST*
G04 Aperture macros list*
%AMRoundRect*
0 Rectangle with rounded corners*
0 $1 Rounding radius*
0 $2 $3 $4 $5 $6 $7 $8 $9 X,Y pos of 4 corners*
0 Add a 4 corners polygon primitive as box body*
4,1,4,$2,$3,$4,$5,$6,$7,$8,$9,$2,$3,0*
0 Add four circle primitives for the rounded corners*
1,1,$1+$1,$2,$3*
1,1,$1+$1,$4,$5*
1,1,$1+$1,$6,$7*
1,1,$1+$1,$8,$9*
0 Add four rect primitives between the rounded corners*
20,1,$1+$1,$2,$3,$4,$5,0*
20,1,$1+$1,$4,$5,$6,$7,0*
20,1,$1+$1,$6,$7,$8,$9,0*
20,1,$1+$1,$8,$9,$2,$3,0*%
%AMFreePoly0*
4,1,19,0.239272,0.262299,0.277084,0.210256,0.282178,0.178092,0.282178,-0.091864,0.262299,-0.153044,0.251692,-0.165464,0.165464,-0.251692,0.108147,-0.280897,0.091864,-0.282178,-0.178092,-0.282178,-0.239272,-0.262299,-0.277084,-0.210256,-0.282178,-0.178092,-0.282178,0.178092,-0.262299,0.239272,-0.210256,0.277084,-0.178092,0.282178,0.178092,0.282178,0.239272,0.262299,0.239272,0.262299,
$1*%
%AMFreePoly1*
4,1,15,0.203876,0.463283,0.261726,0.405431,0.282179,0.356053,0.282179,-0.356053,0.261726,-0.405431,0.203876,-0.463282,0.154498,-0.483736,-0.212347,-0.483736,-0.261726,-0.463283,-0.282179,-0.413904,-0.282179,0.413904,-0.261726,0.463283,-0.212347,0.483736,0.154497,0.483736,0.203876,0.463283,0.203876,0.463283,$1*%
%AMFreePoly2*
4,1,19,0.153044,0.262299,0.165464,0.251692,0.251692,0.165464,0.280897,0.108147,0.282178,0.091864,0.282178,-0.178092,0.262299,-0.239272,0.210256,-0.277084,0.178092,-0.282178,-0.178092,-0.282178,-0.239272,-0.262299,-0.277084,-0.210256,-0.282178,-0.178092,-0.282178,0.178092,-0.262299,0.239272,-0.210256,0.277084,-0.178092,0.282178,0.091864,0.282178,0.153044,0.262299,0.153044,0.262299,
$1*%
%AMFreePoly3*
4,1,15,0.463283,0.261726,0.483736,0.212347,0.483736,-0.154497,0.463283,-0.203876,0.405431,-0.261726,0.356053,-0.282179,-0.356053,-0.282179,-0.405431,-0.261726,-0.463282,-0.203876,-0.483736,-0.154498,-0.483736,0.212347,-0.463283,0.261726,-0.413904,0.282179,0.413904,0.282179,0.463283,0.261726,0.463283,0.261726,$1*%
%AMFreePoly4*
4,1,15,0.405431,0.261726,0.463282,0.203876,0.483736,0.154498,0.483736,-0.212347,0.463283,-0.261726,0.413904,-0.282179,-0.413904,-0.282179,-0.463283,-0.261726,-0.483736,-0.212347,-0.483736,0.154497,-0.463283,0.203876,-0.405431,0.261726,-0.356053,0.282179,0.356053,0.282179,0.405431,0.261726,0.405431,0.261726,$1*%
%AMFreePoly5*
4,1,19,0.239272,0.262299,0.277084,0.210256,0.282178,0.178092,0.282178,-0.178092,0.262299,-0.239272,0.210256,-0.277084,0.178092,-0.282178,-0.091864,-0.282178,-0.153044,-0.262299,-0.165464,-0.251692,-0.251692,-0.165464,-0.280897,-0.108147,-0.282178,-0.091864,-0.282178,0.178092,-0.262299,0.239272,-0.210256,0.277084,-0.178092,0.282178,0.178092,0.282178,0.239272,0.262299,0.239272,0.262299,
$1*%
%AMFreePoly6*
4,1,15,0.261726,0.463283,0.282179,0.413904,0.282179,-0.413904,0.261726,-0.463283,0.212347,-0.483736,-0.154497,-0.483736,-0.203876,-0.463283,-0.261726,-0.405431,-0.282179,-0.356053,-0.282179,0.356053,-0.261726,0.405431,-0.203876,0.463282,-0.154498,0.483736,0.212347,0.483736,0.261726,0.463283,0.261726,0.463283,$1*%
%AMFreePoly7*
4,1,19,0.239272,0.262299,0.277084,0.210256,0.282178,0.178092,0.282178,-0.178092,0.262299,-0.239272,0.210256,-0.277084,0.178092,-0.282178,-0.178092,-0.282178,-0.239272,-0.262299,-0.277084,-0.210256,-0.282178,-0.178092,-0.282178,0.091864,-0.262299,0.153044,-0.251692,0.165464,-0.165464,0.251692,-0.108147,0.280897,-0.091864,0.282178,0.178092,0.282178,0.239272,0.262299,0.239272,0.262299,
$1*%
G04 Aperture macros list end*
%ADD10RoundRect,0.250000X-0.262500X-0.450000X0.262500X-0.450000X0.262500X0.450000X-0.262500X0.450000X0*%
%ADD11RoundRect,0.100000X-0.637500X-0.100000X0.637500X-0.100000X0.637500X0.100000X-0.637500X0.100000X0*%
%ADD12RoundRect,0.250000X0.275000X0.700000X-0.275000X0.700000X-0.275000X-0.700000X0.275000X-0.700000X0*%
%ADD13RoundRect,0.250000X0.475000X-0.250000X0.475000X0.250000X-0.475000X0.250000X-0.475000X-0.250000X0*%
%ADD14RoundRect,0.250000X-0.475000X0.250000X-0.475000X-0.250000X0.475000X-0.250000X0.475000X0.250000X0*%
%ADD15RoundRect,0.250000X-0.250000X-0.475000X0.250000X-0.475000X0.250000X0.475000X-0.250000X0.475000X0*%
%ADD16RoundRect,0.250000X0.262500X0.450000X-0.262500X0.450000X-0.262500X-0.450000X0.262500X-0.450000X0*%
%ADD17RoundRect,0.250000X-0.450000X0.262500X-0.450000X-0.262500X0.450000X-0.262500X0.450000X0.262500X0*%
%ADD18R,2.600000X0.300000*%
%ADD19RoundRect,0.250000X-0.375000X-1.075000X0.375000X-1.075000X0.375000X1.075000X-0.375000X1.075000X0*%
%ADD20RoundRect,0.075000X-0.200000X0.075000X-0.200000X-0.075000X0.200000X-0.075000X0.200000X0.075000X0*%
%ADD21RoundRect,0.250000X0.250000X0.475000X-0.250000X0.475000X-0.250000X-0.475000X0.250000X-0.475000X0*%
%ADD22FreePoly0,90.000000*%
%ADD23FreePoly1,90.000000*%
%ADD24FreePoly2,90.000000*%
%ADD25FreePoly3,90.000000*%
%ADD26RoundRect,0.241868X0.241867X-0.241867X0.241867X0.241867X-0.241867X0.241867X-0.241867X-0.241867X0*%
%ADD27FreePoly4,90.000000*%
%ADD28FreePoly5,90.000000*%
%ADD29FreePoly6,90.000000*%
%ADD30FreePoly7,90.000000*%
%ADD31RoundRect,0.075000X0.075000X-0.700000X0.075000X0.700000X-0.075000X0.700000X-0.075000X-0.700000X0*%
%ADD32RoundRect,0.075000X0.700000X-0.075000X0.700000X0.075000X-0.700000X0.075000X-0.700000X-0.075000X0*%
%ADD33RoundRect,0.250000X-0.700000X0.275000X-0.700000X-0.275000X0.700000X-0.275000X0.700000X0.275000X0*%
G04 APERTURE END LIST*
D10*
%TO.C,R9*%
X96115500Y-100838000D03*
X97940500Y-100838000D03*
%TD*%
D11*
%TO.C,U5*%
X115882500Y-123440000D03*
X115882500Y-124090000D03*
X115882500Y-124740000D03*
X115882500Y-125390000D03*
X115882500Y-126040000D03*
X115882500Y-126690000D03*
X115882500Y-127340000D03*
X115882500Y-127990000D03*
X115882500Y-128640000D03*
X115882500Y-129290000D03*
X121607500Y-129290000D03*
X121607500Y-128640000D03*
X121607500Y-127990000D03*
X121607500Y-127340000D03*
X121607500Y-126690000D03*
X121607500Y-126040000D03*
X121607500Y-125390000D03*
X121607500Y-124740000D03*
X121607500Y-124090000D03*
X121607500Y-123440000D03*
%TD*%
D12*
%TO.C,FB8*%
X110795000Y-120015000D03*
X107645000Y-120015000D03*
%TD*%
D13*
%TO.C,C24*%
X113030000Y-123505000D03*
X113030000Y-121605000D03*
%TD*%
D14*
%TO.C,C29*%
X124460000Y-121605000D03*
X124460000Y-123505000D03*
%TD*%
%TO.C,C6*%
X113625000Y-129780000D03*
X113625000Y-131680000D03*
%TD*%
D10*
%TO.C,R10*%
X114276500Y-99314000D03*
X116101500Y-99314000D03*
%TD*%
D15*
%TO.C,C28*%
X115890000Y-121285000D03*
X117790000Y-121285000D03*
%TD*%
D16*
%TO.C,R5*%
X102131500Y-102870000D03*
X100306500Y-102870000D03*
%TD*%
D12*
%TO.C,FB10*%
X110795000Y-127635000D03*
X107645000Y-127635000D03*
%TD*%
D17*
%TO.C,R1*%
X104013000Y-102719500D03*
X104013000Y-104544500D03*
%TD*%
D15*
%TO.C,C2*%
X119700000Y-121285000D03*
X121600000Y-121285000D03*
%TD*%
D18*
%TO.C,J3*%
X120725000Y-88834000D03*
X120725000Y-89334000D03*
X120725000Y-89834000D03*
X120725000Y-90334000D03*
X120725000Y-90834000D03*
X120725000Y-91334000D03*
X120725000Y-91834000D03*
X120725000Y-92334000D03*
X120725000Y-92834000D03*
X120725000Y-93334000D03*
X120725000Y-93834000D03*
X120725000Y-94334000D03*
X120725000Y-94834000D03*
X120725000Y-95334000D03*
X120725000Y-95834000D03*
X120725000Y-96334000D03*
X120725000Y-96834000D03*
X120725000Y-97334000D03*
X120725000Y-97834000D03*
%TD*%
D10*
%TO.C,R12*%
X114657500Y-109220000D03*
X116482500Y-109220000D03*
%TD*%
%TO.C,R11*%
X114657500Y-116840000D03*
X116482500Y-116840000D03*
%TD*%
D19*
%TO.C,D1*%
X84325000Y-77470000D03*
X87125000Y-77470000D03*
%TD*%
D20*
%TO.C,U4*%
X114032500Y-92084000D03*
X114032500Y-92584000D03*
X114032500Y-93084000D03*
X114032500Y-93584000D03*
X114032500Y-94084000D03*
X114802500Y-94084000D03*
X114802500Y-93584000D03*
X114802500Y-93084000D03*
X114802500Y-92584000D03*
X114802500Y-92084000D03*
%TD*%
%TO.C,U3*%
X114032500Y-89084000D03*
X114032500Y-89584000D03*
X114032500Y-90084000D03*
X114032500Y-90584000D03*
X114032500Y-91084000D03*
X114802500Y-91084000D03*
X114802500Y-90584000D03*
X114802500Y-90084000D03*
X114802500Y-89584000D03*
X114802500Y-89084000D03*
%TD*%
D21*
%TO.C,C25*%
X116520000Y-106045000D03*
X114620000Y-106045000D03*
%TD*%
D22*
%TO.C,U2*%
X100280000Y-94484000D03*
D23*
X101230000Y-94484000D03*
X102430000Y-94484000D03*
X103630000Y-94484000D03*
D24*
X104580000Y-94484000D03*
D25*
X100280000Y-93534000D03*
D26*
X101230000Y-93534000D03*
X102430000Y-93534000D03*
X103630000Y-93534000D03*
D27*
X104580000Y-93534000D03*
D25*
X100280000Y-92334000D03*
D26*
X101230000Y-92334000D03*
X102430000Y-92334000D03*
X103630000Y-92334000D03*
D27*
X104580000Y-92334000D03*
D25*
X100280000Y-91134000D03*
D26*
X101230000Y-91134000D03*
X102430000Y-91134000D03*
X103630000Y-91134000D03*
D27*
X104580000Y-91134000D03*
D28*
X100280000Y-90184000D03*
D29*
X101230000Y-90184000D03*
X102430000Y-90184000D03*
X103630000Y-90184000D03*
D30*
X104580000Y-90184000D03*
D31*
X98680000Y-98009000D03*
X99180000Y-98009000D03*
X99680000Y-98009000D03*
X100180000Y-98009000D03*
X100680000Y-98009000D03*
X101180000Y-98009000D03*
X101680000Y-98009000D03*
X102180000Y-98009000D03*
X102680000Y-98009000D03*
X103180000Y-98009000D03*
X103680000Y-98009000D03*
X104180000Y-98009000D03*
X104680000Y-98009000D03*
X105180000Y-98009000D03*
X105680000Y-98009000D03*
X106180000Y-98009000D03*
D32*
X108105000Y-96084000D03*
X108105000Y-95584000D03*
X108105000Y-95084000D03*
X108105000Y-94584000D03*
X108105000Y-94084000D03*
X108105000Y-93584000D03*
X108105000Y-93084000D03*
X108105000Y-92584000D03*
X108105000Y-92084000D03*
X108105000Y-91584000D03*
X108105000Y-91084000D03*
X108105000Y-90584000D03*
X108105000Y-90084000D03*
X108105000Y-89584000D03*
X108105000Y-89084000D03*
X108105000Y-88584000D03*
D31*
X106180000Y-86659000D03*
X105680000Y-86659000D03*
X105180000Y-86659000D03*
X104680000Y-86659000D03*
X104180000Y-86659000D03*
X103680000Y-86659000D03*
X103180000Y-86659000D03*
X102680000Y-86659000D03*
X102180000Y-86659000D03*
X101680000Y-86659000D03*
X101180000Y-86659000D03*
X100680000Y-86659000D03*
X100180000Y-86659000D03*
X99680000Y-86659000D03*
X99180000Y-86659000D03*
X98680000Y-86659000D03*
D32*
X96755000Y-88584000D03*
X96755000Y-89084000D03*
X96755000Y-89584000D03*
X96755000Y-90084000D03*
X96755000Y-90584000D03*
X96755000Y-91084000D03*
X96755000Y-91584000D03*
X96755000Y-92084000D03*
X96755000Y-92584000D03*
X96755000Y-93084000D03*
X96755000Y-93584000D03*
X96755000Y-94084000D03*
X96755000Y-94584000D03*
X96755000Y-95084000D03*
X96755000Y-95584000D03*
X96755000Y-96084000D03*
%TD*%
D12*
%TO.C,FB6*%
X110795000Y-123825000D03*
X107645000Y-123825000D03*
%TD*%
D21*
%TO.C,C26*%
X116520000Y-113665000D03*
X114620000Y-113665000D03*
%TD*%
D10*
%TO.C,R6*%
X96496500Y-102870000D03*
X98321500Y-102870000D03*
%TD*%
D33*
%TO.C,FB7*%
X118745000Y-131140000D03*
X118745000Y-134290000D03*
%TD*%
M02*
