%TF.GenerationSoftware,KiCad,Pcbnew,9.0.2+1*%
%TF.CreationDate,2025-07-26T23:59:43+01:00*%
%TF.ProjectId,ICE40HXDevBoardHDMI,49434534-3048-4584-9465-76426f617264,rev?*%
%TF.SameCoordinates,Original*%
%TF.FileFunction,Copper,L1,Top*%
%TF.FilePolarity,Positive*%
%FSLAX46Y46*%
G04 Gerber Fmt 4.6, Leading zero omitted, Abs format (unit mm)*
G04 Created by KiCad (PCBNEW 9.0.2+1) date 2025-07-26 23:59:43*
%MOMM*%
%LPD*%
G01*
G04 APERTURE LIST*
G04 Aperture macros list*
%AMRoundRect*
0 Rectangle with rounded corners*
0 $1 Rounding radius*
0 $2 $3 $4 $5 $6 $7 $8 $9 X,Y pos of 4 corners*
0 Add a 4 corners polygon primitive as box body*
4,1,4,$2,$3,$4,$5,$6,$7,$8,$9,$2,$3,0*
0 Add four circle primitives for the rounded corners*
1,1,$1+$1,$2,$3*
1,1,$1+$1,$4,$5*
1,1,$1+$1,$6,$7*
1,1,$1+$1,$8,$9*
0 Add four rect primitives between the rounded corners*
20,1,$1+$1,$2,$3,$4,$5,0*
20,1,$1+$1,$4,$5,$6,$7,0*
20,1,$1+$1,$6,$7,$8,$9,0*
20,1,$1+$1,$8,$9,$2,$3,0*%
G04 Aperture macros list end*
%TA.AperFunction,SMDPad,CuDef*%
%ADD10RoundRect,0.250000X-0.262500X-0.450000X0.262500X-0.450000X0.262500X0.450000X-0.262500X0.450000X0*%
%TD*%
%TA.AperFunction,SMDPad,CuDef*%
%ADD11RoundRect,0.100000X-0.637500X-0.100000X0.637500X-0.100000X0.637500X0.100000X-0.637500X0.100000X0*%
%TD*%
%TA.AperFunction,ComponentPad*%
%ADD12R,1.900000X1.900000*%
%TD*%
%TA.AperFunction,ComponentPad*%
%ADD13C,1.900000*%
%TD*%
%TA.AperFunction,SMDPad,CuDef*%
%ADD14RoundRect,0.250000X0.275000X0.700000X-0.275000X0.700000X-0.275000X-0.700000X0.275000X-0.700000X0*%
%TD*%
%TA.AperFunction,SMDPad,CuDef*%
%ADD15RoundRect,0.250000X0.475000X-0.250000X0.475000X0.250000X-0.475000X0.250000X-0.475000X-0.250000X0*%
%TD*%
%TA.AperFunction,ComponentPad*%
%ADD16C,6.400000*%
%TD*%
%TA.AperFunction,SMDPad,CuDef*%
%ADD17RoundRect,0.250000X-0.475000X0.250000X-0.475000X-0.250000X0.475000X-0.250000X0.475000X0.250000X0*%
%TD*%
%TA.AperFunction,ComponentPad*%
%ADD18R,1.700000X1.700000*%
%TD*%
%TA.AperFunction,ComponentPad*%
%ADD19O,1.700000X1.700000*%
%TD*%
%TA.AperFunction,SMDPad,CuDef*%
%ADD20RoundRect,0.250000X-0.250000X-0.475000X0.250000X-0.475000X0.250000X0.475000X-0.250000X0.475000X0*%
%TD*%
%TA.AperFunction,SMDPad,CuDef*%
%ADD21RoundRect,0.250000X0.262500X0.450000X-0.262500X0.450000X-0.262500X-0.450000X0.262500X-0.450000X0*%
%TD*%
%TA.AperFunction,SMDPad,CuDef*%
%ADD22RoundRect,0.250000X-0.450000X0.262500X-0.450000X-0.262500X0.450000X-0.262500X0.450000X0.262500X0*%
%TD*%
%TA.AperFunction,SMDPad,CuDef*%
%ADD23R,2.600000X0.300000*%
%TD*%
%TA.AperFunction,ComponentPad*%
%ADD24O,3.300000X1.500000*%
%TD*%
%TA.AperFunction,ComponentPad*%
%ADD25O,2.300000X1.500000*%
%TD*%
%TA.AperFunction,SMDPad,CuDef*%
%ADD26RoundRect,0.250000X-0.375000X-1.075000X0.375000X-1.075000X0.375000X1.075000X-0.375000X1.075000X0*%
%TD*%
%TA.AperFunction,SMDPad,CuDef*%
%ADD27RoundRect,0.075000X-0.200000X0.075000X-0.200000X-0.075000X0.200000X-0.075000X0.200000X0.075000X0*%
%TD*%
%TA.AperFunction,SMDPad,CuDef*%
%ADD28RoundRect,0.250000X0.250000X0.475000X-0.250000X0.475000X-0.250000X-0.475000X0.250000X-0.475000X0*%
%TD*%
%TA.AperFunction,SMDPad,CuDef*%
%ADD29RoundRect,0.075000X0.075000X-0.700000X0.075000X0.700000X-0.075000X0.700000X-0.075000X-0.700000X0*%
%TD*%
%TA.AperFunction,SMDPad,CuDef*%
%ADD30RoundRect,0.075000X0.700000X-0.075000X0.700000X0.075000X-0.700000X0.075000X-0.700000X-0.075000X0*%
%TD*%
%TA.AperFunction,HeatsinkPad*%
%ADD31C,0.500000*%
%TD*%
%TA.AperFunction,HeatsinkPad*%
%ADD32R,5.000000X5.000000*%
%TD*%
%TA.AperFunction,SMDPad,CuDef*%
%ADD33RoundRect,0.250000X-0.700000X0.275000X-0.700000X-0.275000X0.700000X-0.275000X0.700000X0.275000X0*%
%TD*%
%TA.AperFunction,ViaPad*%
%ADD34C,0.635000*%
%TD*%
%TA.AperFunction,ViaPad*%
%ADD35C,0.508000*%
%TD*%
%TA.AperFunction,ViaPad*%
%ADD36C,0.762000*%
%TD*%
%TA.AperFunction,Conductor*%
%ADD37C,0.317500*%
%TD*%
%TA.AperFunction,Conductor*%
%ADD38C,0.190500*%
%TD*%
%TA.AperFunction,Conductor*%
%ADD39C,0.200000*%
%TD*%
G04 APERTURE END LIST*
D10*
%TO.P,R9,1*%
%TO.N,+3V3*%
X96115500Y-100838000D03*
%TO.P,R9,2*%
%TO.N,/MSEN*%
X97940500Y-100838000D03*
%TD*%
D11*
%TO.P,U5,1,CPVDD*%
%TO.N,/I2S/CPVDD*%
X115882500Y-123440000D03*
%TO.P,U5,2,CAPP*%
%TO.N,Net-(U5-CAPP)*%
X115882500Y-124090000D03*
%TO.P,U5,3,CPGND*%
%TO.N,GNDA*%
X115882500Y-124740000D03*
%TO.P,U5,4,CAPM*%
%TO.N,Net-(U5-CAPM)*%
X115882500Y-125390000D03*
%TO.P,U5,5,VNEG*%
%TO.N,Net-(U5-VNEG)*%
X115882500Y-126040000D03*
%TO.P,U5,6,OUTL*%
%TO.N,Net-(U5-OUTL)*%
X115882500Y-126690000D03*
%TO.P,U5,7,OUTR*%
%TO.N,Net-(U5-OUTR)*%
X115882500Y-127340000D03*
%TO.P,U5,8,AVDD*%
%TO.N,/I2S/AVDD*%
X115882500Y-127990000D03*
%TO.P,U5,9,AGND*%
%TO.N,GNDA*%
X115882500Y-128640000D03*
%TO.P,U5,10,DEMP*%
X115882500Y-129290000D03*
%TO.P,U5,11,FLT*%
X121607500Y-129290000D03*
%TO.P,U5,12,SCK*%
X121607500Y-128640000D03*
%TO.P,U5,13,BCK*%
%TO.N,/I2SBCK*%
X121607500Y-127990000D03*
%TO.P,U5,14,DIN*%
%TO.N,/I2SDIN*%
X121607500Y-127340000D03*
%TO.P,U5,15,LRCK*%
%TO.N,/I2SLRCK*%
X121607500Y-126690000D03*
%TO.P,U5,16,FMT*%
%TO.N,GNDA*%
X121607500Y-126040000D03*
%TO.P,U5,17,XSMT*%
%TO.N,/I2S/AVDD*%
X121607500Y-125390000D03*
%TO.P,U5,18,LDOO*%
%TO.N,/I2S/LDOO*%
X121607500Y-124740000D03*
%TO.P,U5,19,DGND*%
%TO.N,GNDA*%
X121607500Y-124090000D03*
%TO.P,U5,20,DVDD*%
%TO.N,/I2S/DVDD*%
X121607500Y-123440000D03*
%TD*%
D12*
%TO.P,J2,R*%
%TO.N,Net-(C26-Pad1)*%
X119865000Y-114899000D03*
D13*
%TO.P,J2,S*%
%TO.N,GNDA*%
X119865000Y-110399000D03*
%TO.P,J2,T*%
%TO.N,Net-(C25-Pad1)*%
X127365000Y-115549000D03*
X127365000Y-109749000D03*
%TD*%
D14*
%TO.P,FB8,1*%
%TO.N,/I2S/DVDD*%
X110795000Y-120015000D03*
%TO.P,FB8,2*%
%TO.N,+3V3*%
X107645000Y-120015000D03*
%TD*%
D15*
%TO.P,C24,1*%
%TO.N,/I2S/CPVDD*%
X113030000Y-123505000D03*
%TO.P,C24,2*%
%TO.N,GNDA*%
X113030000Y-121605000D03*
%TD*%
D16*
%TO.P,H4,1,1*%
%TO.N,GND*%
X127000000Y-146050000D03*
%TD*%
D17*
%TO.P,C29,1*%
%TO.N,GNDA*%
X124460000Y-121605000D03*
%TO.P,C29,2*%
%TO.N,/I2S/LDOO*%
X124460000Y-123505000D03*
%TD*%
D16*
%TO.P,H3,1,1*%
%TO.N,GND*%
X82550000Y-146050000D03*
%TD*%
D17*
%TO.P,C6,1*%
%TO.N,/I2S/AVDD*%
X113625000Y-129780000D03*
%TO.P,C6,2*%
%TO.N,GNDA*%
X113625000Y-131680000D03*
%TD*%
D10*
%TO.P,R10,1*%
%TO.N,/HPD*%
X114276500Y-99314000D03*
%TO.P,R10,2*%
%TO.N,Net-(J3-HPD)*%
X116101500Y-99314000D03*
%TD*%
D18*
%TO.P,J1,1,Pin_1*%
%TO.N,+5V*%
X88265000Y-83820000D03*
D19*
%TO.P,J1,2,Pin_2*%
%TO.N,GND*%
X85725000Y-83820000D03*
%TO.P,J1,3,Pin_3*%
%TO.N,unconnected-(J1-Pin_3-Pad3)*%
X88265000Y-86360000D03*
%TO.P,J1,4,Pin_4*%
%TO.N,unconnected-(J1-Pin_4-Pad4)*%
X85725000Y-86360000D03*
%TO.P,J1,5,Pin_5*%
%TO.N,/RED5*%
X88265000Y-88900000D03*
%TO.P,J1,6,Pin_6*%
%TO.N,/RED4*%
X85725000Y-88900000D03*
%TO.P,J1,7,Pin_7*%
%TO.N,/RED3*%
X88265000Y-91440000D03*
%TO.P,J1,8,Pin_8*%
%TO.N,/RED2*%
X85725000Y-91440000D03*
%TO.P,J1,9,Pin_9*%
%TO.N,/RED1*%
X88265000Y-93980000D03*
%TO.P,J1,10,Pin_10*%
%TO.N,/RED0*%
X85725000Y-93980000D03*
%TO.P,J1,11,Pin_11*%
%TO.N,/GREEN0*%
X88265000Y-96520000D03*
%TO.P,J1,12,Pin_12*%
%TO.N,/GREEN1*%
X85725000Y-96520000D03*
%TO.P,J1,13,Pin_13*%
%TO.N,/GREEN2*%
X88265000Y-99060000D03*
%TO.P,J1,14,Pin_14*%
%TO.N,/GREEN3*%
X85725000Y-99060000D03*
%TO.P,J1,15,Pin_15*%
%TO.N,/GREEN4*%
X88265000Y-101600000D03*
%TO.P,J1,16,Pin_16*%
%TO.N,/GREEN5*%
X85725000Y-101600000D03*
%TO.P,J1,17,Pin_17*%
%TO.N,/BLUE5*%
X88265000Y-104140000D03*
%TO.P,J1,18,Pin_18*%
%TO.N,/BLUE4*%
X85725000Y-104140000D03*
%TO.P,J1,19,Pin_19*%
%TO.N,+3V3*%
X88265000Y-106680000D03*
%TO.P,J1,20,Pin_20*%
%TO.N,GND*%
X85725000Y-106680000D03*
%TO.P,J1,21,Pin_21*%
%TO.N,+3V3*%
X88265000Y-109220000D03*
%TO.P,J1,22,Pin_22*%
%TO.N,GND*%
X85725000Y-109220000D03*
%TO.P,J1,23,Pin_23*%
%TO.N,/HDMICLK*%
X88265000Y-111760000D03*
%TO.P,J1,24,Pin_24*%
%TO.N,/BLUE3*%
X85725000Y-111760000D03*
%TO.P,J1,25,Pin_25*%
%TO.N,/BLUE2*%
X88265000Y-114300000D03*
%TO.P,J1,26,Pin_26*%
%TO.N,/BLUE1*%
X85725000Y-114300000D03*
%TO.P,J1,27,Pin_27*%
%TO.N,/BLUE0*%
X88265000Y-116840000D03*
%TO.P,J1,28,Pin_28*%
%TO.N,/MSEN*%
X85725000Y-116840000D03*
%TO.P,J1,29,Pin_29*%
%TO.N,/HSYNC*%
X88265000Y-119380000D03*
%TO.P,J1,30,Pin_30*%
%TO.N,/DE*%
X85725000Y-119380000D03*
%TO.P,J1,31,Pin_31*%
%TO.N,/VSYNC*%
X88265000Y-121920000D03*
%TO.P,J1,32,Pin_32*%
%TO.N,unconnected-(J1-Pin_32-Pad32)*%
X85725000Y-121920000D03*
%TO.P,J1,33,Pin_33*%
%TO.N,/I2SBCK*%
X88265000Y-124460000D03*
%TO.P,J1,34,Pin_34*%
%TO.N,unconnected-(J1-Pin_34-Pad34)*%
X85725000Y-124460000D03*
%TO.P,J1,35,Pin_35*%
%TO.N,/I2SDIN*%
X88265000Y-127000000D03*
%TO.P,J1,36,Pin_36*%
%TO.N,/I2CSCL*%
X85725000Y-127000000D03*
%TO.P,J1,37,Pin_37*%
%TO.N,/I2SLRCK*%
X88265000Y-129540000D03*
%TO.P,J1,38,Pin_38*%
%TO.N,/I2CSDA*%
X85725000Y-129540000D03*
%TO.P,J1,39,Pin_39*%
%TO.N,+5V*%
X88265000Y-132080000D03*
%TO.P,J1,40,Pin_40*%
%TO.N,GND*%
X85725000Y-132080000D03*
%TD*%
D20*
%TO.P,C28,1*%
%TO.N,Net-(U5-CAPP)*%
X115890000Y-121285000D03*
%TO.P,C28,2*%
%TO.N,Net-(U5-CAPM)*%
X117790000Y-121285000D03*
%TD*%
D21*
%TO.P,R5,1*%
%TO.N,+3V3*%
X102131500Y-102870000D03*
%TO.P,R5,2*%
%TO.N,Net-(U2-VREF)*%
X100306500Y-102870000D03*
%TD*%
D14*
%TO.P,FB10,1*%
%TO.N,/I2S/AVDD*%
X110795000Y-127635000D03*
%TO.P,FB10,2*%
%TO.N,+3V3*%
X107645000Y-127635000D03*
%TD*%
D22*
%TO.P,R1,1*%
%TO.N,+3V3*%
X104013000Y-102719500D03*
%TO.P,R1,2*%
%TO.N,Net-(U2-ISEL{slash}~RST)*%
X104013000Y-104544500D03*
%TD*%
D20*
%TO.P,C2,1*%
%TO.N,/I2S/DVDD*%
X119700000Y-121285000D03*
%TO.P,C2,2*%
%TO.N,GNDA*%
X121600000Y-121285000D03*
%TD*%
D23*
%TO.P,J3,1,D2+*%
%TO.N,/D2+*%
X120725000Y-88834000D03*
%TO.P,J3,2,D2S*%
%TO.N,GND*%
X120725000Y-89334000D03*
%TO.P,J3,3,D2-*%
%TO.N,/D2-*%
X120725000Y-89834000D03*
%TO.P,J3,4,D1+*%
%TO.N,/D1+*%
X120725000Y-90334000D03*
%TO.P,J3,5,D1S*%
%TO.N,GND*%
X120725000Y-90834000D03*
%TO.P,J3,6,D1-*%
%TO.N,/D1-*%
X120725000Y-91334000D03*
%TO.P,J3,7,D0+*%
%TO.N,/D0+*%
X120725000Y-91834000D03*
%TO.P,J3,8,D0S*%
%TO.N,GND*%
X120725000Y-92334000D03*
%TO.P,J3,9,D0-*%
%TO.N,/D0-*%
X120725000Y-92834000D03*
%TO.P,J3,10,CK+*%
%TO.N,/DC+*%
X120725000Y-93334000D03*
%TO.P,J3,11,CKS*%
%TO.N,GND*%
X120725000Y-93834000D03*
%TO.P,J3,12,CK-*%
%TO.N,/DC-*%
X120725000Y-94334000D03*
%TO.P,J3,13,CEC*%
%TO.N,unconnected-(J3-CEC-Pad13)*%
X120725000Y-94834000D03*
%TO.P,J3,14,UTILITY*%
%TO.N,unconnected-(J3-UTILITY-Pad14)*%
X120725000Y-95334000D03*
%TO.P,J3,15,SCL*%
%TO.N,unconnected-(J3-SCL-Pad15)*%
X120725000Y-95834000D03*
%TO.P,J3,16,SDA*%
%TO.N,unconnected-(J3-SDA-Pad16)*%
X120725000Y-96334000D03*
%TO.P,J3,17,GND*%
%TO.N,GND*%
X120725000Y-96834000D03*
%TO.P,J3,18,+5V*%
%TO.N,+5V*%
X120725000Y-97334000D03*
%TO.P,J3,19,HPD*%
%TO.N,Net-(J3-HPD)*%
X120725000Y-97834000D03*
D24*
%TO.P,J3,SH,SH*%
%TO.N,GND*%
X121485000Y-86084000D03*
X121485000Y-100584000D03*
D25*
X127445000Y-86084000D03*
X127445000Y-100584000D03*
%TD*%
D10*
%TO.P,R12,1*%
%TO.N,Net-(U5-OUTR)*%
X114657500Y-109220000D03*
%TO.P,R12,2*%
%TO.N,Net-(C25-Pad1)*%
X116482500Y-109220000D03*
%TD*%
%TO.P,R11,1*%
%TO.N,Net-(U5-OUTL)*%
X114657500Y-116840000D03*
%TO.P,R11,2*%
%TO.N,Net-(C26-Pad1)*%
X116482500Y-116840000D03*
%TD*%
D26*
%TO.P,D1,1,K*%
%TO.N,Net-(D1-K)*%
X84325000Y-77470000D03*
%TO.P,D1,2,A*%
%TO.N,+3V3*%
X87125000Y-77470000D03*
%TD*%
D27*
%TO.P,U4,1,IO1*%
%TO.N,/D0+*%
X114032500Y-92084000D03*
%TO.P,U4,2,IO2*%
%TO.N,/D0-*%
X114032500Y-92584000D03*
%TO.P,U4,3,G*%
%TO.N,GND*%
X114032500Y-93084000D03*
%TO.P,U4,4,IO3*%
%TO.N,/DC+*%
X114032500Y-93584000D03*
%TO.P,U4,5,IO4*%
%TO.N,/DC-*%
X114032500Y-94084000D03*
%TO.P,U4,6,NC*%
X114802500Y-94084000D03*
%TO.P,U4,7,NC*%
%TO.N,/DC+*%
X114802500Y-93584000D03*
%TO.P,U4,8,G*%
%TO.N,GND*%
X114802500Y-93084000D03*
%TO.P,U4,9,NC*%
%TO.N,/D0-*%
X114802500Y-92584000D03*
%TO.P,U4,10,NC*%
%TO.N,/D0+*%
X114802500Y-92084000D03*
%TD*%
%TO.P,U3,1,IO1*%
%TO.N,/D2+*%
X114032500Y-89084000D03*
%TO.P,U3,2,IO2*%
%TO.N,/D2-*%
X114032500Y-89584000D03*
%TO.P,U3,3,G*%
%TO.N,GND*%
X114032500Y-90084000D03*
%TO.P,U3,4,IO3*%
%TO.N,/D1+*%
X114032500Y-90584000D03*
%TO.P,U3,5,IO4*%
%TO.N,/D1-*%
X114032500Y-91084000D03*
%TO.P,U3,6,NC*%
X114802500Y-91084000D03*
%TO.P,U3,7,NC*%
%TO.N,/D1+*%
X114802500Y-90584000D03*
%TO.P,U3,8,G*%
%TO.N,GND*%
X114802500Y-90084000D03*
%TO.P,U3,9,NC*%
%TO.N,/D2-*%
X114802500Y-89584000D03*
%TO.P,U3,10,NC*%
%TO.N,/D2+*%
X114802500Y-89084000D03*
%TD*%
D28*
%TO.P,C25,1*%
%TO.N,Net-(C25-Pad1)*%
X116520000Y-106045000D03*
%TO.P,C25,2*%
%TO.N,GNDA*%
X114620000Y-106045000D03*
%TD*%
D29*
%TO.P,U2,1,DVDD*%
%TO.N,/DVDD*%
X98680000Y-98009000D03*
%TO.P,U2,2,DE*%
%TO.N,/DE*%
X99180000Y-98009000D03*
%TO.P,U2,3,VREF*%
%TO.N,Net-(U2-VREF)*%
X99680000Y-98009000D03*
%TO.P,U2,4,HSYNC*%
%TO.N,/HSYNC*%
X100180000Y-98009000D03*
%TO.P,U2,5,VSYNC*%
%TO.N,/VSYNC*%
X100680000Y-98009000D03*
%TO.P,U2,6,CTL3/A3/DK3*%
%TO.N,GND*%
X101180000Y-98009000D03*
%TO.P,U2,7,CTL2/A2/DK2*%
X101680000Y-98009000D03*
%TO.P,U2,8,CTL1/A1/DK1*%
X102180000Y-98009000D03*
%TO.P,U2,9,EDGE/HTPLG*%
%TO.N,/HPD*%
X102680000Y-98009000D03*
%TO.P,U2,10,~PD*%
%TO.N,GND*%
X103180000Y-98009000D03*
%TO.P,U2,11,MSEN/PO1*%
%TO.N,/MSEN*%
X103680000Y-98009000D03*
%TO.P,U2,12,DVDD*%
%TO.N,/DVDD*%
X104180000Y-98009000D03*
%TO.P,U2,13,ISEL/~RST*%
%TO.N,Net-(U2-ISEL{slash}~RST)*%
X104680000Y-98009000D03*
%TO.P,U2,14,DSEL/SDA*%
%TO.N,/I2CSDA*%
X105180000Y-98009000D03*
%TO.P,U2,15,BSEL/SCL*%
%TO.N,/I2CSCL*%
X105680000Y-98009000D03*
%TO.P,U2,16,DGND*%
%TO.N,GND*%
X106180000Y-98009000D03*
D30*
%TO.P,U2,17,PGND*%
X108105000Y-96084000D03*
%TO.P,U2,18,PVDD*%
%TO.N,/PVDD*%
X108105000Y-95584000D03*
%TO.P,U2,19,TFADJ*%
%TO.N,Net-(U2-TFADJ)*%
X108105000Y-95084000D03*
%TO.P,U2,20,TGND*%
%TO.N,GND*%
X108105000Y-94584000D03*
%TO.P,U2,21,TXC-*%
%TO.N,/DC-*%
X108105000Y-94084000D03*
%TO.P,U2,22,TXC+*%
%TO.N,/DC+*%
X108105000Y-93584000D03*
%TO.P,U2,23,TVDD*%
%TO.N,/TVDD*%
X108105000Y-93084000D03*
%TO.P,U2,24,TX0-*%
%TO.N,/D0-*%
X108105000Y-92584000D03*
%TO.P,U2,25,TX0+*%
%TO.N,/D0+*%
X108105000Y-92084000D03*
%TO.P,U2,26,TGND*%
%TO.N,GND*%
X108105000Y-91584000D03*
%TO.P,U2,27,TX1-*%
%TO.N,/D1-*%
X108105000Y-91084000D03*
%TO.P,U2,28,TX1+*%
%TO.N,/D1+*%
X108105000Y-90584000D03*
%TO.P,U2,29,TVDD*%
%TO.N,/TVDD*%
X108105000Y-90084000D03*
%TO.P,U2,30,TX2-*%
%TO.N,/D2-*%
X108105000Y-89584000D03*
%TO.P,U2,31,TX2+*%
%TO.N,/D2+*%
X108105000Y-89084000D03*
%TO.P,U2,32,TGND*%
%TO.N,GND*%
X108105000Y-88584000D03*
D29*
%TO.P,U2,33,DVDD*%
%TO.N,/DVDD*%
X106180000Y-86659000D03*
%TO.P,U2,34,RESERVED*%
%TO.N,GND*%
X105680000Y-86659000D03*
%TO.P,U2,35,DKEN*%
X105180000Y-86659000D03*
%TO.P,U2,36,DATA23*%
%TO.N,/RED5*%
X104680000Y-86659000D03*
%TO.P,U2,37,DATA22*%
%TO.N,/RED4*%
X104180000Y-86659000D03*
%TO.P,U2,38,DATA21*%
%TO.N,/RED3*%
X103680000Y-86659000D03*
%TO.P,U2,39,DATA20*%
%TO.N,/RED2*%
X103180000Y-86659000D03*
%TO.P,U2,40,DATA19*%
%TO.N,/RED1*%
X102680000Y-86659000D03*
%TO.P,U2,41,DATA18*%
%TO.N,/RED0*%
X102180000Y-86659000D03*
%TO.P,U2,42,DATA17*%
%TO.N,GND*%
X101680000Y-86659000D03*
%TO.P,U2,43,DATA16*%
X101180000Y-86659000D03*
%TO.P,U2,44,DATA15*%
%TO.N,/GREEN0*%
X100680000Y-86659000D03*
%TO.P,U2,45,DATA14*%
%TO.N,/GREEN1*%
X100180000Y-86659000D03*
%TO.P,U2,46,DATA13*%
%TO.N,/GREEN2*%
X99680000Y-86659000D03*
%TO.P,U2,47,DATA12*%
%TO.N,/GREEN3*%
X99180000Y-86659000D03*
%TO.P,U2,48,DGND*%
%TO.N,GND*%
X98680000Y-86659000D03*
D30*
%TO.P,U2,49,NC*%
%TO.N,unconnected-(U2-NC-Pad49)*%
X96755000Y-88584000D03*
%TO.P,U2,50,DATA11*%
%TO.N,/GREEN4*%
X96755000Y-89084000D03*
%TO.P,U2,51,DATA10*%
%TO.N,/GREEN5*%
X96755000Y-89584000D03*
%TO.P,U2,52,DATA9*%
%TO.N,GND*%
X96755000Y-90084000D03*
%TO.P,U2,53,DATA8*%
X96755000Y-90584000D03*
%TO.P,U2,54,DATA7*%
%TO.N,/BLUE5*%
X96755000Y-91084000D03*
%TO.P,U2,55,DATA6*%
%TO.N,/BLUE4*%
X96755000Y-91584000D03*
%TO.P,U2,56,IDCK-*%
%TO.N,GND*%
X96755000Y-92084000D03*
%TO.P,U2,57,IDCK+*%
%TO.N,/HDMICLK*%
X96755000Y-92584000D03*
%TO.P,U2,58,DATA5*%
%TO.N,/BLUE3*%
X96755000Y-93084000D03*
%TO.P,U2,59,DATA4*%
%TO.N,/BLUE2*%
X96755000Y-93584000D03*
%TO.P,U2,60,DATA3*%
%TO.N,/BLUE1*%
X96755000Y-94084000D03*
%TO.P,U2,61,DATA2*%
%TO.N,/BLUE0*%
X96755000Y-94584000D03*
%TO.P,U2,62,DATA1*%
%TO.N,GND*%
X96755000Y-95084000D03*
%TO.P,U2,63,DATA0*%
X96755000Y-95584000D03*
%TO.P,U2,64,DGND*%
X96755000Y-96084000D03*
D31*
%TO.P,U2,65,EP*%
X100630000Y-94134000D03*
X101830000Y-94134000D03*
X103030000Y-94134000D03*
X104230000Y-94134000D03*
X100630000Y-92934000D03*
X101830000Y-92934000D03*
X103030000Y-92934000D03*
X104230000Y-92934000D03*
D32*
X102430000Y-92334000D03*
D31*
X100630000Y-91734000D03*
X101830000Y-91734000D03*
X103030000Y-91734000D03*
X104230000Y-91734000D03*
X100630000Y-90534000D03*
X101830000Y-90534000D03*
X103030000Y-90534000D03*
X104230000Y-90534000D03*
%TD*%
D14*
%TO.P,FB6,1*%
%TO.N,/I2S/CPVDD*%
X110795000Y-123825000D03*
%TO.P,FB6,2*%
%TO.N,+3V3*%
X107645000Y-123825000D03*
%TD*%
D28*
%TO.P,C26,1*%
%TO.N,Net-(C26-Pad1)*%
X116520000Y-113665000D03*
%TO.P,C26,2*%
%TO.N,GNDA*%
X114620000Y-113665000D03*
%TD*%
D16*
%TO.P,H2,1,1*%
%TO.N,GND*%
X127000000Y-69850000D03*
%TD*%
D10*
%TO.P,R6,1*%
%TO.N,GND*%
X96496500Y-102870000D03*
%TO.P,R6,2*%
%TO.N,Net-(U2-VREF)*%
X98321500Y-102870000D03*
%TD*%
D33*
%TO.P,FB7,1*%
%TO.N,GNDA*%
X118745000Y-131140000D03*
%TO.P,FB7,2*%
%TO.N,GND*%
X118745000Y-134290000D03*
%TD*%
D16*
%TO.P,H1,1,1*%
%TO.N,GND*%
X82550000Y-69850000D03*
%TD*%
D34*
%TO.N,+3V3*%
X88265000Y-77470000D03*
X111125000Y-85344000D03*
X107645000Y-129032000D03*
X104013000Y-101600000D03*
X96139000Y-99695000D03*
X107645000Y-118567000D03*
X100226500Y-104775000D03*
X107645000Y-121920000D03*
X107645000Y-125730000D03*
%TO.N,GND*%
X117348000Y-134239000D03*
X111125000Y-88138000D03*
X123300000Y-93850000D03*
X110871000Y-100203000D03*
X103378000Y-100203000D03*
X123300000Y-90900000D03*
X118745000Y-135382000D03*
X112395000Y-88138000D03*
X112182000Y-90070000D03*
X101346000Y-84709000D03*
X106045000Y-83312000D03*
X85833000Y-77470000D03*
X110744000Y-96647000D03*
X123300000Y-89300000D03*
X110871000Y-102235000D03*
X118170000Y-96834000D03*
X111125000Y-86741000D03*
X100203000Y-101219000D03*
X123300000Y-92300000D03*
X101346000Y-83439000D03*
X112395000Y-86741000D03*
X105283000Y-83312000D03*
X112141000Y-93091000D03*
X120142000Y-134239000D03*
X96496500Y-104036500D03*
D35*
%TO.N,/HSYNC*%
X101854000Y-101060250D03*
%TO.N,/I2S/DVDD*%
X121607500Y-122613500D03*
%TO.N,/VSYNC*%
X102552503Y-101060250D03*
%TO.N,/I2S/AVDD*%
X112395000Y-127635000D03*
%TO.N,GNDA*%
X120015000Y-126044050D03*
X112435000Y-132080000D03*
X115951000Y-130937000D03*
X121666000Y-130937000D03*
X114300000Y-121285000D03*
X114808000Y-132080000D03*
X117475000Y-124740000D03*
X123190000Y-121285000D03*
X118745000Y-129159000D03*
%TO.N,/I2S/CPVDD*%
X114431000Y-123440000D03*
%TO.N,Net-(U5-VNEG)*%
X117638375Y-126020375D03*
%TO.N,/I2S/LDOO*%
X123190000Y-124460000D03*
%TO.N,Net-(D1-K)*%
X83185000Y-77470000D03*
D36*
%TO.N,+5V*%
X123063000Y-97409000D03*
D35*
%TO.N,/MSEN*%
X98933000Y-101600000D03*
%TO.N,/PVDD*%
X106934000Y-95480750D03*
%TO.N,Net-(U2-TFADJ)*%
X112150000Y-96100000D03*
%TO.N,/HPD*%
X102866935Y-99313999D03*
X106584750Y-99314000D03*
%TO.N,/I2CSDA*%
X106299000Y-103251000D03*
%TO.N,/DVDD*%
X104180000Y-96941000D03*
X98670870Y-97022070D03*
X106235500Y-85661500D03*
%TO.N,/TVDD*%
X106934000Y-90043000D03*
X106934000Y-93091000D03*
%TO.N,/I2CSCL*%
X106389070Y-102148918D03*
%TD*%
D37*
%TO.N,+3V3*%
X107645000Y-121920000D02*
X107645000Y-123825000D01*
X100226500Y-104775000D02*
X102131500Y-102870000D01*
X87125000Y-77470000D02*
X88265000Y-77470000D01*
X104013000Y-101600000D02*
X104013000Y-102719500D01*
X95480500Y-101473000D02*
X96115500Y-100838000D01*
X102131500Y-102870000D02*
X103862500Y-102870000D01*
X103862500Y-102870000D02*
X104013000Y-102719500D01*
X95480500Y-103963427D02*
X95480500Y-101473000D01*
X107645000Y-118567000D02*
X107645000Y-120015000D01*
X96115500Y-100631000D02*
X96092000Y-100607500D01*
X96115500Y-99718500D02*
X96115500Y-100838000D01*
X96139000Y-99695000D02*
X96115500Y-99718500D01*
X100226500Y-104775000D02*
X96292073Y-104775000D01*
X107645000Y-120015000D02*
X107645000Y-121920000D01*
X96292073Y-104775000D02*
X95480500Y-103963427D01*
X107645000Y-123825000D02*
X107645000Y-127635000D01*
X107645000Y-129032000D02*
X107645000Y-127635000D01*
X96115500Y-100838000D02*
X96115500Y-100631000D01*
%TO.N,GND*%
X106180000Y-96084000D02*
X106180000Y-98034000D01*
X118745000Y-134290000D02*
X117399000Y-134290000D01*
X123300000Y-89300000D02*
X123266000Y-89334000D01*
X112148000Y-93084000D02*
X114032500Y-93084000D01*
X123266000Y-92334000D02*
X121355000Y-92334000D01*
X114032500Y-90084000D02*
X114802500Y-90084000D01*
X105180000Y-89584000D02*
X105180000Y-86659000D01*
X112182000Y-90070000D02*
X112196000Y-90084000D01*
X104380000Y-91584000D02*
X104230000Y-91734000D01*
X96755000Y-95084000D02*
X99680000Y-95084000D01*
X123284000Y-93834000D02*
X121355000Y-93834000D01*
X105680000Y-89084000D02*
X105680000Y-86659000D01*
X104230000Y-90534000D02*
X105180000Y-89584000D01*
X118745000Y-134290000D02*
X120091000Y-134290000D01*
X123300000Y-93850000D02*
X123284000Y-93834000D01*
X108105000Y-94584000D02*
X104680000Y-94584000D01*
X118170000Y-96834000D02*
X120725000Y-96834000D01*
X96755000Y-96084000D02*
X98680000Y-96084000D01*
X123300000Y-90900000D02*
X123234000Y-90834000D01*
X108105000Y-88584000D02*
X106180000Y-88584000D01*
X104680000Y-94584000D02*
X104230000Y-94134000D01*
X96496500Y-104036500D02*
X96496500Y-102870000D01*
X103180000Y-98009000D02*
X103180000Y-94284000D01*
X101680000Y-98009000D02*
X101680000Y-94284000D01*
X106180000Y-88584000D02*
X104230000Y-90534000D01*
X101180000Y-91084000D02*
X101180000Y-86659000D01*
X120091000Y-134290000D02*
X120142000Y-134239000D01*
X102180000Y-98009000D02*
X102180000Y-94484000D01*
X117399000Y-134290000D02*
X117348000Y-134239000D01*
X112196000Y-90084000D02*
X114032500Y-90084000D01*
X100580000Y-90584000D02*
X96755000Y-90584000D01*
X96755000Y-90084000D02*
X100180000Y-90084000D01*
X101680000Y-94284000D02*
X101830000Y-94134000D01*
X103180000Y-94284000D02*
X103030000Y-94134000D01*
X100180000Y-90084000D02*
X100630000Y-90534000D01*
X99180000Y-95584000D02*
X100630000Y-94134000D01*
X100280000Y-92084000D02*
X96730000Y-92084000D01*
X123234000Y-90834000D02*
X121355000Y-90834000D01*
X100630000Y-91734000D02*
X100280000Y-92084000D01*
X123266000Y-89334000D02*
X121355000Y-89334000D01*
X100930000Y-94434000D02*
X100630000Y-94134000D01*
X102430000Y-92334000D02*
X101180000Y-91084000D01*
X101830000Y-90534000D02*
X101680000Y-90384000D01*
X104230000Y-90534000D02*
X105680000Y-89084000D01*
X100630000Y-90534000D02*
X100580000Y-90584000D01*
X106180000Y-96084000D02*
X108130000Y-96084000D01*
X100630000Y-90534000D02*
X98680000Y-88584000D01*
X101180000Y-98009000D02*
X101180000Y-94784000D01*
X106180000Y-96084000D02*
X104230000Y-94134000D01*
X101180000Y-94784000D02*
X101830000Y-94134000D01*
X101680000Y-90384000D02*
X101680000Y-86659000D01*
X98680000Y-88584000D02*
X98680000Y-86659000D01*
X98680000Y-96084000D02*
X100630000Y-94134000D01*
X108105000Y-91584000D02*
X104380000Y-91584000D01*
X112141000Y-93091000D02*
X112148000Y-93084000D01*
X99680000Y-95084000D02*
X100630000Y-94134000D01*
X96755000Y-95584000D02*
X99180000Y-95584000D01*
X118745000Y-134290000D02*
X118745000Y-135382000D01*
X123300000Y-92300000D02*
X123266000Y-92334000D01*
X102180000Y-94484000D02*
X101830000Y-94134000D01*
X114802500Y-93084000D02*
X114032500Y-93084000D01*
D38*
%TO.N,/BLUE1*%
X94249408Y-99236960D02*
X94234000Y-99252368D01*
X86995000Y-115570000D02*
X85725000Y-114300000D01*
X94234000Y-99252368D02*
X94234000Y-111379000D01*
X95261792Y-94084000D02*
X94249408Y-95096384D01*
X94234000Y-111379000D02*
X90043000Y-115570000D01*
X96730000Y-94084000D02*
X95261792Y-94084000D01*
X90043000Y-115570000D02*
X86995000Y-115570000D01*
X94249408Y-95096384D02*
X94249408Y-99236960D01*
%TO.N,/RED3*%
X103665000Y-83125552D02*
X101819448Y-81280000D01*
X90805000Y-89916000D02*
X89281000Y-91440000D01*
X103665000Y-86629000D02*
X103665000Y-83125552D01*
X101819448Y-81280000D02*
X97193288Y-81280000D01*
X97193288Y-81280000D02*
X90805000Y-87668288D01*
X89281000Y-91440000D02*
X88265000Y-91440000D01*
X90805000Y-87668288D02*
X90805000Y-89916000D01*
%TO.N,/HSYNC*%
X101854000Y-100826372D02*
X101854000Y-101060250D01*
X100180000Y-99152372D02*
X101854000Y-100826372D01*
X100180000Y-98034000D02*
X100180000Y-99152372D01*
%TO.N,/GREEN0*%
X96935552Y-83693000D02*
X96712368Y-83916185D01*
X92329000Y-88299552D02*
X92329000Y-91089816D01*
X90043000Y-93375816D02*
X90043000Y-95377000D01*
X96712368Y-83916185D02*
X92710000Y-87918552D01*
X92329000Y-91089816D02*
X90043000Y-93375816D01*
X100665000Y-85459552D02*
X98898448Y-83693000D01*
X92710000Y-87918552D02*
X92329000Y-88299552D01*
X90043000Y-95377000D02*
X88900000Y-96520000D01*
X88900000Y-96520000D02*
X88265000Y-96520000D01*
X100665000Y-86629000D02*
X100665000Y-85459552D01*
X98898448Y-83693000D02*
X96935552Y-83693000D01*
%TO.N,/BLUE5*%
X92329000Y-101219000D02*
X92329000Y-94322712D01*
X95567712Y-91084000D02*
X96730000Y-91084000D01*
X92329000Y-94322712D02*
X95567712Y-91084000D01*
X89408000Y-104140000D02*
X92329000Y-101219000D01*
X88265000Y-104140000D02*
X89408000Y-104140000D01*
%TO.N,/GREEN1*%
X92710000Y-88457368D02*
X92710000Y-91247632D01*
X92710000Y-91247632D02*
X90424000Y-93533632D01*
X100165000Y-85498368D02*
X98740632Y-84074000D01*
X98740632Y-84074000D02*
X97093368Y-84074000D01*
X89281000Y-97790000D02*
X86995000Y-97790000D01*
X86995000Y-97790000D02*
X85725000Y-96520000D01*
X90424000Y-96647000D02*
X89281000Y-97790000D01*
X90424000Y-93533632D02*
X90424000Y-96647000D01*
X97093368Y-84074000D02*
X92710000Y-88457368D01*
X100165000Y-86629000D02*
X100165000Y-85498368D01*
%TO.N,/GREEN3*%
X86995000Y-100330000D02*
X85725000Y-99060000D01*
X93472000Y-88773000D02*
X93472000Y-91563264D01*
X99165000Y-86629000D02*
X99165000Y-85576000D01*
X89281000Y-100330000D02*
X86995000Y-100330000D01*
X97409000Y-84836000D02*
X93472000Y-88773000D01*
X99165000Y-85576000D02*
X98425000Y-84836000D01*
X93472000Y-91563264D02*
X91186000Y-93849264D01*
X98425000Y-84836000D02*
X97409000Y-84836000D01*
X91186000Y-98425000D02*
X89281000Y-100330000D01*
X91186000Y-93849264D02*
X91186000Y-98425000D01*
%TO.N,/RED1*%
X91567000Y-90774184D02*
X88361184Y-93980000D01*
X88361184Y-93980000D02*
X88265000Y-93980000D01*
X102665000Y-83203185D02*
X101503815Y-82042000D01*
X97508920Y-82042000D02*
X91567000Y-87983920D01*
X91567000Y-87983920D02*
X91567000Y-90774184D01*
X101503815Y-82042000D02*
X97508920Y-82042000D01*
X102665000Y-86629000D02*
X102665000Y-83203185D01*
%TO.N,/RED4*%
X90424000Y-88742184D02*
X88996184Y-90170000D01*
X86995000Y-90170000D02*
X85725000Y-88900000D01*
X104165000Y-83086736D02*
X101977264Y-80899000D01*
X88996184Y-90170000D02*
X86995000Y-90170000D01*
X104165000Y-86629000D02*
X104165000Y-83086736D01*
X101977264Y-80899000D02*
X97035472Y-80899000D01*
X90424000Y-87510472D02*
X90424000Y-88742184D01*
X97035472Y-80899000D02*
X90424000Y-87510472D01*
%TO.N,/RED2*%
X103165000Y-86629000D02*
X103165000Y-83164368D01*
X91186000Y-87826104D02*
X91186000Y-90616368D01*
X97351104Y-81661000D02*
X91186000Y-87826104D01*
X101661632Y-81661000D02*
X97351104Y-81661000D01*
X91186000Y-90616368D02*
X89092368Y-92710000D01*
X89092368Y-92710000D02*
X86995000Y-92710000D01*
X103165000Y-83164368D02*
X101661632Y-81661000D01*
X86995000Y-92710000D02*
X85725000Y-91440000D01*
%TO.N,/I2S/DVDD*%
X118430000Y-120015000D02*
X119700000Y-121285000D01*
X121028500Y-122613500D02*
X119700000Y-121285000D01*
X121607500Y-122613500D02*
X121028500Y-122613500D01*
X110795000Y-120015000D02*
X118430000Y-120015000D01*
X121607500Y-122613500D02*
X121607500Y-123440000D01*
%TO.N,/VSYNC*%
X102552503Y-101060250D02*
X102552503Y-100986059D01*
X102552503Y-100986059D02*
X100680000Y-99113556D01*
X100680000Y-99113556D02*
X100680000Y-98034000D01*
%TO.N,/GREEN2*%
X93091000Y-88615184D02*
X93091000Y-91405448D01*
X93091000Y-91405448D02*
X90805000Y-93691448D01*
X93599000Y-88107184D02*
X93091000Y-88615184D01*
X98582816Y-84455000D02*
X97251184Y-84455000D01*
X97028000Y-84678185D02*
X93599000Y-88107184D01*
X89281000Y-99060000D02*
X88265000Y-99060000D01*
X99665000Y-85537184D02*
X98582816Y-84455000D01*
X97251184Y-84455000D02*
X97028000Y-84678185D01*
X90805000Y-97536000D02*
X89281000Y-99060000D01*
X99665000Y-86629000D02*
X99665000Y-85537184D01*
X90805000Y-93691448D02*
X90805000Y-97536000D01*
%TO.N,/GREEN5*%
X96730000Y-89584000D02*
X94820000Y-89584000D01*
X86995000Y-102870000D02*
X85725000Y-101600000D01*
X94234000Y-90170000D02*
X94234000Y-91878896D01*
X89281000Y-102870000D02*
X86995000Y-102870000D01*
X91948000Y-94164896D02*
X91948000Y-100203000D01*
X94820000Y-89584000D02*
X94234000Y-90170000D01*
X91948000Y-100203000D02*
X89281000Y-102870000D01*
X94234000Y-91878896D02*
X91948000Y-94164896D01*
%TO.N,/RED0*%
X86995000Y-95250000D02*
X88900000Y-95250000D01*
X102165000Y-83242000D02*
X102165000Y-86629000D01*
X89662000Y-94488000D02*
X89662000Y-93218000D01*
X97666736Y-82423000D02*
X101346000Y-82423000D01*
X88900000Y-95250000D02*
X89662000Y-94488000D01*
X89662000Y-93218000D02*
X91948000Y-90932000D01*
X91948000Y-90932000D02*
X91948000Y-88141736D01*
X85725000Y-93980000D02*
X86995000Y-95250000D01*
X91948000Y-88141736D02*
X97666736Y-82423000D01*
X101346000Y-82423000D02*
X102165000Y-83242000D01*
%TO.N,/BLUE4*%
X96730000Y-91584000D02*
X95606528Y-91584000D01*
X95606528Y-91584000D02*
X92710000Y-94480528D01*
X86995000Y-105410000D02*
X85725000Y-104140000D01*
X92710000Y-94480528D02*
X92710000Y-102044500D01*
X92710000Y-102044500D02*
X89344500Y-105410000D01*
X89344500Y-105410000D02*
X86995000Y-105410000D01*
%TO.N,/I2S/AVDD*%
X119478700Y-125377300D02*
X121594800Y-125377300D01*
X113625000Y-128865000D02*
X113625000Y-129780000D01*
X112750000Y-127990000D02*
X115882500Y-127990000D01*
X112395000Y-127635000D02*
X110795000Y-127635000D01*
X116866000Y-127990000D02*
X119478700Y-125377300D01*
X121594800Y-125377300D02*
X121607500Y-125390000D01*
X112395000Y-127635000D02*
X113625000Y-128865000D01*
X112395000Y-127635000D02*
X112750000Y-127990000D01*
X115882500Y-127990000D02*
X116866000Y-127990000D01*
%TO.N,/RED5*%
X96877656Y-80518000D02*
X88495656Y-88900000D01*
X88495656Y-88900000D02*
X88265000Y-88900000D01*
X104665000Y-83047920D02*
X102135080Y-80518000D01*
X104665000Y-86629000D02*
X104665000Y-83047920D01*
X102135080Y-80518000D02*
X96877656Y-80518000D01*
%TO.N,/GREEN4*%
X91567000Y-94007080D02*
X91567000Y-99314000D01*
X89281000Y-101600000D02*
X88265000Y-101600000D01*
X94685000Y-89084000D02*
X93853000Y-89916000D01*
X96730000Y-89084000D02*
X94685000Y-89084000D01*
X93853000Y-91721080D02*
X91567000Y-94007080D01*
X91567000Y-99314000D02*
X89281000Y-101600000D01*
X93853000Y-89916000D02*
X93853000Y-91721080D01*
%TO.N,GNDA*%
X123510000Y-121605000D02*
X123190000Y-121285000D01*
X113030000Y-121605000D02*
X113980000Y-121605000D01*
X117886000Y-110399000D02*
X119865000Y-110399000D01*
X114408000Y-131680000D02*
X113625000Y-131680000D01*
X114620000Y-106045000D02*
X115570000Y-106995000D01*
X123190000Y-123244999D02*
X123190000Y-121285000D01*
X115570000Y-106995000D02*
X115570000Y-109982000D01*
X114620000Y-113665000D02*
X117886000Y-110399000D01*
X113980000Y-121605000D02*
X114300000Y-121285000D01*
X121607500Y-124090000D02*
X122344999Y-124090000D01*
X114808000Y-132080000D02*
X114408000Y-131680000D01*
X121600000Y-121285000D02*
X123190000Y-121285000D01*
X115882500Y-124740000D02*
X117475000Y-124740000D01*
X115570000Y-109982000D02*
X115987000Y-110399000D01*
X120881894Y-124090000D02*
X121607500Y-124090000D01*
X112835000Y-131680000D02*
X113625000Y-131680000D01*
X120015000Y-126044050D02*
X120019050Y-126040000D01*
X112435000Y-132080000D02*
X112835000Y-131680000D01*
X122344999Y-124090000D02*
X123190000Y-123244999D01*
X120019050Y-126040000D02*
X121607500Y-126040000D01*
X124460000Y-121605000D02*
X123510000Y-121605000D01*
X115987000Y-110399000D02*
X117886000Y-110399000D01*
%TO.N,/I2S/CPVDD*%
X114366000Y-123505000D02*
X113030000Y-123505000D01*
X114431000Y-123440000D02*
X114366000Y-123505000D01*
X110795000Y-123825000D02*
X112710000Y-123825000D01*
X112710000Y-123825000D02*
X113030000Y-123505000D01*
X114431000Y-123440000D02*
X115882500Y-123440000D01*
%TO.N,/BLUE0*%
X96730000Y-94584000D02*
X95300608Y-94584000D01*
X94630408Y-99394776D02*
X94615000Y-99410184D01*
X90043000Y-116840000D02*
X88265000Y-116840000D01*
X94615000Y-112268000D02*
X90043000Y-116840000D01*
X95300608Y-94584000D02*
X94630408Y-95254200D01*
X94630408Y-95254200D02*
X94630408Y-99394776D01*
X94615000Y-99410184D02*
X94615000Y-112268000D01*
%TO.N,Net-(C25-Pad1)*%
X117244500Y-108458000D02*
X126074000Y-108458000D01*
X126074000Y-108458000D02*
X127365000Y-109749000D01*
X116482500Y-109220000D02*
X117244500Y-108458000D01*
X116520000Y-106045000D02*
X116520000Y-109182500D01*
X116520000Y-109182500D02*
X116482500Y-109220000D01*
X127365000Y-109749000D02*
X127365000Y-115549000D01*
%TO.N,/BLUE3*%
X93472000Y-109601000D02*
X93472000Y-94796160D01*
X95184160Y-93084000D02*
X96730000Y-93084000D01*
X93472000Y-94796160D02*
X95184160Y-93084000D01*
X86995000Y-113030000D02*
X90043000Y-113030000D01*
X90043000Y-113030000D02*
X93472000Y-109601000D01*
X85725000Y-111760000D02*
X86995000Y-113030000D01*
%TO.N,/BLUE2*%
X93853000Y-110490000D02*
X90043000Y-114300000D01*
X96730000Y-93584000D02*
X95222976Y-93584000D01*
X90043000Y-114300000D02*
X88265000Y-114300000D01*
X93853000Y-99094552D02*
X93853000Y-110490000D01*
X93868408Y-94938568D02*
X93868408Y-99079144D01*
X95222976Y-93584000D02*
X93868408Y-94938568D01*
X93868408Y-99079144D02*
X93853000Y-99094552D01*
%TO.N,Net-(C26-Pad1)*%
X117754000Y-114899000D02*
X119865000Y-114899000D01*
X116520000Y-113665000D02*
X116520000Y-116802500D01*
X116520000Y-113665000D02*
X117754000Y-114899000D01*
X119865000Y-114899000D02*
X119865000Y-114940500D01*
X116520000Y-116802500D02*
X116482500Y-116840000D01*
%TO.N,Net-(U5-VNEG)*%
X117638375Y-126020375D02*
X117618750Y-126040000D01*
X117618750Y-126040000D02*
X115882500Y-126040000D01*
%TO.N,Net-(U5-CAPP)*%
X117221000Y-123669652D02*
X116800652Y-124090000D01*
X116800652Y-124090000D02*
X115882500Y-124090000D01*
X115890000Y-121285000D02*
X117221000Y-122616000D01*
X117221000Y-122616000D02*
X117221000Y-123669652D01*
%TO.N,Net-(U5-CAPM)*%
X115882500Y-125390000D02*
X117815000Y-125390000D01*
X117729000Y-121346000D02*
X117790000Y-121285000D01*
X118364000Y-124841000D02*
X118364000Y-124079000D01*
X117729000Y-123444000D02*
X117729000Y-121346000D01*
X118364000Y-124079000D02*
X117729000Y-123444000D01*
X117815000Y-125390000D02*
X118364000Y-124841000D01*
%TO.N,/I2S/LDOO*%
X124145000Y-123505000D02*
X123190000Y-124460000D01*
X124460000Y-123505000D02*
X124145000Y-123505000D01*
X121607500Y-124740000D02*
X122910000Y-124740000D01*
X122910000Y-124740000D02*
X123190000Y-124460000D01*
%TO.N,/I2SDIN*%
X107284184Y-138049000D02*
X119664816Y-138049000D01*
X96235184Y-127000000D02*
X107284184Y-138049000D01*
X124714000Y-132999816D02*
X124714000Y-129159000D01*
X122895000Y-127340000D02*
X121607500Y-127340000D01*
X119664816Y-138049000D02*
X124714000Y-132999816D01*
X88265000Y-127000000D02*
X96235184Y-127000000D01*
X124714000Y-129159000D02*
X122895000Y-127340000D01*
%TO.N,Net-(D1-K)*%
X83185000Y-77470000D02*
X84325000Y-77470000D01*
%TO.N,/MSEN*%
X104013000Y-99314000D02*
X103680000Y-98981000D01*
X99187000Y-101854000D02*
X102743000Y-101854000D01*
X103680000Y-98981000D02*
X103680000Y-98034000D01*
X98933000Y-101600000D02*
X98702500Y-101600000D01*
X98933000Y-101600000D02*
X99187000Y-101854000D01*
X98702500Y-101600000D02*
X97940500Y-100838000D01*
X104013000Y-100584000D02*
X104013000Y-99314000D01*
X102743000Y-101854000D02*
X104013000Y-100584000D01*
%TO.N,Net-(J3-HPD)*%
X120725000Y-97834000D02*
X117581500Y-97834000D01*
X117581500Y-97834000D02*
X116101500Y-99314000D01*
%TO.N,/PVDD*%
X106934000Y-95480750D02*
X107037250Y-95584000D01*
X107037250Y-95584000D02*
X108130000Y-95584000D01*
%TO.N,Net-(U2-VREF)*%
X97028000Y-100203000D02*
X97028000Y-101576500D01*
X98992000Y-99822000D02*
X97409000Y-99822000D01*
X99680000Y-98034000D02*
X99680000Y-99134000D01*
X97028000Y-101576500D02*
X98321500Y-102870000D01*
X97409000Y-99822000D02*
X97028000Y-100203000D01*
X98425000Y-102870000D02*
X100306500Y-102870000D01*
X99680000Y-99134000D02*
X98992000Y-99822000D01*
%TO.N,Net-(U2-TFADJ)*%
X111134000Y-95084000D02*
X108130000Y-95084000D01*
X112150000Y-96100000D02*
X111134000Y-95084000D01*
%TO.N,/HDMICLK*%
X93091000Y-94638344D02*
X93091000Y-108712000D01*
X96730000Y-92584000D02*
X95145344Y-92584000D01*
X93091000Y-108712000D02*
X90043000Y-111760000D01*
X95145344Y-92584000D02*
X93091000Y-94638344D01*
X90043000Y-111760000D02*
X88265000Y-111760000D01*
D39*
%TO.N,/D0+*%
X117031500Y-91834000D02*
X121355000Y-91834000D01*
X113074250Y-91948000D02*
X111252000Y-91948000D01*
X116781500Y-92084000D02*
X117031500Y-91834000D01*
X114982500Y-92084000D02*
X116781500Y-92084000D01*
X114032500Y-92084000D02*
X113210250Y-92084000D01*
X113210250Y-92084000D02*
X113074250Y-91948000D01*
X114032500Y-92084000D02*
X114802500Y-92084000D01*
X111252000Y-91948000D02*
X111116000Y-92084000D01*
X111116000Y-92084000D02*
X108130000Y-92084000D01*
%TO.N,/D0-*%
X114032500Y-92584000D02*
X113158000Y-92584000D01*
X113030000Y-92456000D02*
X111252000Y-92456000D01*
X121355000Y-92834000D02*
X117019000Y-92834000D01*
X113158000Y-92584000D02*
X113030000Y-92456000D01*
X116769000Y-92584000D02*
X114982500Y-92584000D01*
X111252000Y-92456000D02*
X111124000Y-92584000D01*
X114032500Y-92584000D02*
X114802500Y-92584000D01*
X117019000Y-92834000D02*
X116769000Y-92584000D01*
X111124000Y-92584000D02*
X108130000Y-92584000D01*
%TO.N,/D1-*%
X114007500Y-91059000D02*
X114032500Y-91084000D01*
X114982500Y-91084000D02*
X116738000Y-91084000D01*
X114032500Y-91084000D02*
X114802500Y-91084000D01*
X116988000Y-91334000D02*
X121355000Y-91334000D01*
X113157000Y-91059000D02*
X114007500Y-91059000D01*
X111125000Y-91084000D02*
X111227000Y-91186000D01*
X113030000Y-91186000D02*
X113157000Y-91059000D01*
X108130000Y-91084000D02*
X111125000Y-91084000D01*
X116738000Y-91084000D02*
X116988000Y-91334000D01*
X111227000Y-91186000D02*
X113030000Y-91186000D01*
%TO.N,/D2-*%
X116694000Y-89584000D02*
X116944000Y-89834000D01*
X111139500Y-89584000D02*
X111288500Y-89435000D01*
X113012750Y-89435000D02*
X113161750Y-89584000D01*
X114032500Y-89584000D02*
X114802500Y-89584000D01*
X116944000Y-89834000D02*
X121355000Y-89834000D01*
X111288500Y-89435000D02*
X113012750Y-89435000D01*
X114932500Y-89584000D02*
X116694000Y-89584000D01*
X108130000Y-89584000D02*
X111139500Y-89584000D01*
X113161750Y-89584000D02*
X114032500Y-89584000D01*
%TO.N,/DC+*%
X117044000Y-93334000D02*
X121355000Y-93334000D01*
X114032500Y-93584000D02*
X113254750Y-93584000D01*
X114982500Y-93584000D02*
X116794000Y-93584000D01*
X116794000Y-93584000D02*
X117044000Y-93334000D01*
X114032500Y-93584000D02*
X114802500Y-93584000D01*
X113112750Y-93726000D02*
X111267000Y-93726000D01*
X111125000Y-93584000D02*
X108130000Y-93584000D01*
X111267000Y-93726000D02*
X111125000Y-93584000D01*
X113254750Y-93584000D02*
X113112750Y-93726000D01*
%TO.N,/DC-*%
X111046875Y-94058125D02*
X108155875Y-94058125D01*
X113157000Y-94234000D02*
X111222750Y-94234000D01*
X114032500Y-94084000D02*
X114802500Y-94084000D01*
X114982500Y-94084000D02*
X116844000Y-94084000D01*
X116844000Y-94084000D02*
X117094000Y-94334000D01*
X111222750Y-94234000D02*
X111046875Y-94058125D01*
X113307000Y-94084000D02*
X113157000Y-94234000D01*
X117094000Y-94334000D02*
X121355000Y-94334000D01*
X108155875Y-94058125D02*
X108130000Y-94084000D01*
X114032500Y-94084000D02*
X113307000Y-94084000D01*
%TO.N,/D1+*%
X111274000Y-90700000D02*
X112963750Y-90700000D01*
X117044000Y-90334000D02*
X116794000Y-90584000D01*
X121355000Y-90334000D02*
X117044000Y-90334000D01*
X108130000Y-90584000D02*
X111158000Y-90584000D01*
X113079750Y-90584000D02*
X114032500Y-90584000D01*
X114032500Y-90584000D02*
X114802500Y-90584000D01*
X112963750Y-90700000D02*
X113079750Y-90584000D01*
X116794000Y-90584000D02*
X114982500Y-90584000D01*
X111158000Y-90584000D02*
X111274000Y-90700000D01*
%TO.N,/D2+*%
X111068000Y-89084000D02*
X111252000Y-88900000D01*
X108130000Y-89084000D02*
X111068000Y-89084000D01*
X111252000Y-88900000D02*
X113030000Y-88900000D01*
X114802500Y-89084000D02*
X116687000Y-89084000D01*
X113030000Y-88900000D02*
X113214000Y-89084000D01*
X116937000Y-88834000D02*
X121355000Y-88834000D01*
X113214000Y-89084000D02*
X114802500Y-89084000D01*
X116687000Y-89084000D02*
X116937000Y-88834000D01*
D38*
%TO.N,/DE*%
X85725000Y-119380000D02*
X86995000Y-120650000D01*
X99180000Y-99005500D02*
X99180000Y-98034000D01*
X94996000Y-115697000D02*
X94996000Y-99568000D01*
X98871500Y-99314000D02*
X99180000Y-99005500D01*
X86995000Y-120650000D02*
X90043000Y-120650000D01*
X98044000Y-99314000D02*
X98871500Y-99314000D01*
X94996000Y-99568000D02*
X95631000Y-98933000D01*
X90043000Y-120650000D02*
X94996000Y-115697000D01*
X95631000Y-98933000D02*
X97663000Y-98933000D01*
X97663000Y-98933000D02*
X98044000Y-99314000D01*
%TO.N,/HPD*%
X102744250Y-99191314D02*
X102744250Y-99069750D01*
X102744250Y-99069750D02*
X102680000Y-99005500D01*
X106584750Y-99314000D02*
X114276500Y-99314000D01*
X102680000Y-99005500D02*
X102680000Y-98034000D01*
X102866935Y-99313999D02*
X102744250Y-99191314D01*
%TO.N,/I2CSDA*%
X105180000Y-99465000D02*
X105180000Y-98034000D01*
X105791000Y-100076000D02*
X105180000Y-99465000D01*
X105791000Y-102743000D02*
X105791000Y-100076000D01*
X106299000Y-103251000D02*
X105791000Y-102743000D01*
%TO.N,/DVDD*%
X106180000Y-85717000D02*
X106235500Y-85661500D01*
X98680000Y-97031200D02*
X98670870Y-97022070D01*
X98680000Y-98034000D02*
X98680000Y-97031200D01*
X106180000Y-86634000D02*
X106180000Y-85717000D01*
X104180000Y-96941000D02*
X104180000Y-98034000D01*
%TO.N,/TVDD*%
X108130000Y-93084000D02*
X106941000Y-93084000D01*
X108130000Y-90084000D02*
X106975000Y-90084000D01*
X106975000Y-90084000D02*
X106934000Y-90043000D01*
X106941000Y-93084000D02*
X106934000Y-93091000D01*
%TO.N,/I2CSCL*%
X106172000Y-99664572D02*
X105680000Y-99172572D01*
X106172000Y-101931848D02*
X106172000Y-99664572D01*
X106389070Y-102148918D02*
X106172000Y-101931848D01*
X105680000Y-99172572D02*
X105680000Y-98034000D01*
%TO.N,/I2SBCK*%
X94234000Y-124460000D02*
X88265000Y-124460000D01*
X124333000Y-132842000D02*
X119507000Y-137668000D01*
X124333000Y-129316816D02*
X124333000Y-132842000D01*
X119507000Y-137668000D02*
X107442000Y-137668000D01*
X123006184Y-127990000D02*
X124333000Y-129316816D01*
X121607500Y-127990000D02*
X123006184Y-127990000D01*
X107442000Y-137668000D02*
X94234000Y-124460000D01*
%TO.N,/I2SLRCK*%
X122783816Y-126690000D02*
X121607500Y-126690000D01*
X125095000Y-129001184D02*
X122783816Y-126690000D01*
X107126368Y-138430000D02*
X119822632Y-138430000D01*
X98236368Y-129540000D02*
X107126368Y-138430000D01*
X125095000Y-133157632D02*
X125095000Y-129001184D01*
X88265000Y-129540000D02*
X98236368Y-129540000D01*
X119822632Y-138430000D02*
X125095000Y-133157632D01*
%TO.N,Net-(U2-ISEL{slash}~RST)*%
X104680000Y-98034000D02*
X104680000Y-99600000D01*
X105029000Y-103528500D02*
X104013000Y-104544500D01*
X104680000Y-99600000D02*
X105029000Y-99949000D01*
X105029000Y-99949000D02*
X105029000Y-103528500D01*
%TO.N,Net-(U5-OUTL)*%
X113990000Y-126690000D02*
X112649000Y-125349000D01*
X111379000Y-116840000D02*
X114657500Y-116840000D01*
X109601000Y-118618000D02*
X111379000Y-116840000D01*
X115882500Y-126690000D02*
X113990000Y-126690000D01*
X110109000Y-125349000D02*
X109601000Y-124841000D01*
X112649000Y-125349000D02*
X110109000Y-125349000D01*
X109601000Y-124841000D02*
X109601000Y-118618000D01*
%TO.N,Net-(U5-OUTR)*%
X108839000Y-125349000D02*
X108839000Y-114681000D01*
X113370000Y-127340000D02*
X111887000Y-125857000D01*
X114300000Y-109220000D02*
X114657500Y-109220000D01*
X111887000Y-125857000D02*
X109347000Y-125857000D01*
X115882500Y-127340000D02*
X113370000Y-127340000D01*
X109347000Y-125857000D02*
X108839000Y-125349000D01*
X108839000Y-114681000D02*
X114300000Y-109220000D01*
%TD*%
%TA.AperFunction,Conductor*%
%TO.N,+5V*%
G36*
X123514039Y-96793685D02*
G01*
X123559794Y-96846489D01*
X123571000Y-96898000D01*
X123571000Y-97920000D01*
X123551315Y-97987039D01*
X123498511Y-98032794D01*
X123447000Y-98044000D01*
X122276500Y-98044000D01*
X122209461Y-98024315D01*
X122163706Y-97971511D01*
X122152500Y-97920000D01*
X122152500Y-97671441D01*
X122150662Y-97662205D01*
X122145102Y-97634252D01*
X122145101Y-97634250D01*
X122116922Y-97592077D01*
X122074749Y-97563898D01*
X122037559Y-97556500D01*
X122037558Y-97556500D01*
X121790000Y-97556500D01*
X121781314Y-97553949D01*
X121772353Y-97555238D01*
X121748312Y-97544259D01*
X121722961Y-97536815D01*
X121717033Y-97529974D01*
X121708797Y-97526213D01*
X121694507Y-97503978D01*
X121677206Y-97484011D01*
X121674918Y-97473496D01*
X121671023Y-97467435D01*
X121666000Y-97432500D01*
X121666000Y-97235500D01*
X121685685Y-97168461D01*
X121738489Y-97122706D01*
X121790000Y-97111500D01*
X122037559Y-97111500D01*
X122044957Y-97110028D01*
X122074748Y-97104102D01*
X122116922Y-97075922D01*
X122145102Y-97033748D01*
X122152500Y-96996558D01*
X122152500Y-96923721D01*
X122156381Y-96910503D01*
X122155467Y-96896756D01*
X122166032Y-96877635D01*
X122172185Y-96856682D01*
X122183300Y-96846384D01*
X122189259Y-96835601D01*
X122213602Y-96818312D01*
X122217619Y-96814592D01*
X122219788Y-96813421D01*
X122249746Y-96798776D01*
X122253043Y-96795478D01*
X122265290Y-96788871D01*
X122292165Y-96783165D01*
X122318115Y-96774148D01*
X122324171Y-96774000D01*
X123447000Y-96774000D01*
X123514039Y-96793685D01*
G37*
%TD.AperFunction*%
%TD*%
%TA.AperFunction,Conductor*%
%TO.N,GNDA*%
G36*
X112640859Y-128289685D02*
G01*
X112661501Y-128306319D01*
X113232501Y-128877319D01*
X113265986Y-128938642D01*
X113261002Y-129008334D01*
X113219130Y-129064267D01*
X113153666Y-129088684D01*
X113144820Y-129089000D01*
X113096878Y-129089000D01*
X113067090Y-129091793D01*
X113067087Y-129091793D01*
X113067087Y-129091794D01*
X112941607Y-129135701D01*
X112941606Y-129135701D01*
X112941605Y-129135702D01*
X112834643Y-129214643D01*
X112755702Y-129321605D01*
X112755701Y-129321607D01*
X112732449Y-129388057D01*
X112711793Y-129447090D01*
X112709000Y-129476877D01*
X112709000Y-130083122D01*
X112711793Y-130112909D01*
X112711793Y-130112911D01*
X112711794Y-130112913D01*
X112755701Y-130238393D01*
X112755702Y-130238394D01*
X112834643Y-130345356D01*
X112897198Y-130391523D01*
X112941607Y-130424299D01*
X113067087Y-130468206D01*
X113079856Y-130469403D01*
X113096878Y-130471000D01*
X113096882Y-130471000D01*
X114153122Y-130471000D01*
X114168015Y-130469603D01*
X114182913Y-130468206D01*
X114308393Y-130424299D01*
X114415356Y-130345356D01*
X114494299Y-130238393D01*
X114538206Y-130112913D01*
X114541000Y-130083118D01*
X114541000Y-129476882D01*
X114538206Y-129447087D01*
X114494299Y-129321607D01*
X114453443Y-129266250D01*
X114415356Y-129214643D01*
X114308394Y-129135702D01*
X114308393Y-129135701D01*
X114182913Y-129091794D01*
X114182911Y-129091793D01*
X114182909Y-129091793D01*
X114153122Y-129089000D01*
X114153118Y-129089000D01*
X114035250Y-129089000D01*
X113968211Y-129069315D01*
X113922456Y-129016511D01*
X113911250Y-128965000D01*
X113911250Y-128827315D01*
X113910743Y-128825423D01*
X113891742Y-128754512D01*
X113854057Y-128689238D01*
X113800762Y-128635943D01*
X113800761Y-128635942D01*
X113652750Y-128487931D01*
X113619265Y-128426608D01*
X113624249Y-128356916D01*
X113666121Y-128300983D01*
X113731585Y-128276566D01*
X113740431Y-128276250D01*
X114968351Y-128276250D01*
X115035390Y-128295935D01*
X115056032Y-128312569D01*
X115077696Y-128334233D01*
X115177219Y-128378177D01*
X115177218Y-128378177D01*
X115177221Y-128378178D01*
X115201547Y-128381000D01*
X116563452Y-128380999D01*
X116587779Y-128378178D01*
X116635932Y-128356916D01*
X116687298Y-128334236D01*
X116687299Y-128334235D01*
X116687304Y-128334233D01*
X116708968Y-128312569D01*
X116733669Y-128299081D01*
X116756681Y-128282868D01*
X116766268Y-128281280D01*
X116770291Y-128279084D01*
X116791370Y-128276362D01*
X116793999Y-128276250D01*
X116828315Y-128276250D01*
X116903685Y-128276250D01*
X116903686Y-128276250D01*
X116924424Y-128270692D01*
X116938056Y-128270112D01*
X116939592Y-128270492D01*
X116943335Y-128270000D01*
X120687101Y-128270000D01*
X120754140Y-128289685D01*
X120774782Y-128306319D01*
X120802696Y-128334233D01*
X120902219Y-128378177D01*
X120902218Y-128378177D01*
X120902221Y-128378178D01*
X120926547Y-128381000D01*
X122288452Y-128380999D01*
X122312779Y-128378178D01*
X122380914Y-128348092D01*
X122450191Y-128339021D01*
X122513376Y-128368844D01*
X122550408Y-128428093D01*
X122555000Y-128461527D01*
X122555000Y-132591000D01*
X122535315Y-132658039D01*
X122482511Y-132703794D01*
X122431000Y-132715000D01*
X112011000Y-132715000D01*
X111943961Y-132695315D01*
X111898206Y-132642511D01*
X111887000Y-132591000D01*
X111887000Y-128394000D01*
X111906685Y-128326961D01*
X111959489Y-128281206D01*
X112011000Y-128270000D01*
X112573820Y-128270000D01*
X112640859Y-128289685D01*
G37*
%TD.AperFunction*%
%TD*%
M02*
