%TF.GenerationSoftware,KiCad,Pcbnew,9.0.2+1*%
%TF.CreationDate,2025-07-26T23:48:39+01:00*%
%TF.ProjectId,ICE40HXDevBoard,49434534-3048-4584-9465-76426f617264,rev?*%
%TF.SameCoordinates,Original*%
%TF.FileFunction,Paste,Top*%
%TF.FilePolarity,Positive*%
%FSLAX46Y46*%
G04 Gerber Fmt 4.6, Leading zero omitted, Abs format (unit mm)*
G04 Created by KiCad (PCBNEW 9.0.2+1) date 2025-07-26 23:48:39*
%MOMM*%
%LPD*%
G01*
G04 APERTURE LIST*
G04 Aperture macros list*
%AMRoundRect*
0 Rectangle with rounded corners*
0 $1 Rounding radius*
0 $2 $3 $4 $5 $6 $7 $8 $9 X,Y pos of 4 corners*
0 Add a 4 corners polygon primitive as box body*
4,1,4,$2,$3,$4,$5,$6,$7,$8,$9,$2,$3,0*
0 Add four circle primitives for the rounded corners*
1,1,$1+$1,$2,$3*
1,1,$1+$1,$4,$5*
1,1,$1+$1,$6,$7*
1,1,$1+$1,$8,$9*
0 Add four rect primitives between the rounded corners*
20,1,$1+$1,$2,$3,$4,$5,0*
20,1,$1+$1,$4,$5,$6,$7,0*
20,1,$1+$1,$6,$7,$8,$9,0*
20,1,$1+$1,$8,$9,$2,$3,0*%
%AMRotRect*
0 Rectangle, with rotation*
0 The origin of the aperture is its center*
0 $1 length*
0 $2 width*
0 $3 Rotation angle, in degrees counterclockwise*
0 Add horizontal line*
21,1,$1,$2,0,0,$3*%
G04 Aperture macros list end*
%ADD10RoundRect,0.250000X0.450000X-0.262500X0.450000X0.262500X-0.450000X0.262500X-0.450000X-0.262500X0*%
%ADD11RoundRect,0.250000X0.275000X0.700000X-0.275000X0.700000X-0.275000X-0.700000X0.275000X-0.700000X0*%
%ADD12RoundRect,0.250000X0.262500X0.450000X-0.262500X0.450000X-0.262500X-0.450000X0.262500X-0.450000X0*%
%ADD13R,3.500000X3.300000*%
%ADD14RoundRect,0.375000X-0.625000X-0.375000X0.625000X-0.375000X0.625000X0.375000X-0.625000X0.375000X0*%
%ADD15RoundRect,0.500000X-0.500000X-1.400000X0.500000X-1.400000X0.500000X1.400000X-0.500000X1.400000X0*%
%ADD16R,1.200000X0.400000*%
%ADD17RoundRect,0.250000X-0.262500X-0.450000X0.262500X-0.450000X0.262500X0.450000X-0.262500X0.450000X0*%
%ADD18RoundRect,0.150000X0.587500X0.150000X-0.587500X0.150000X-0.587500X-0.150000X0.587500X-0.150000X0*%
%ADD19RoundRect,0.250000X-0.375000X-1.075000X0.375000X-1.075000X0.375000X1.075000X-0.375000X1.075000X0*%
%ADD20RoundRect,0.150000X-0.425000X0.150000X-0.425000X-0.150000X0.425000X-0.150000X0.425000X0.150000X0*%
%ADD21RoundRect,0.075000X-0.500000X0.075000X-0.500000X-0.075000X0.500000X-0.075000X0.500000X0.075000X0*%
%ADD22O,2.100000X1.000000*%
%ADD23O,1.800000X1.000000*%
%ADD24RoundRect,0.150000X-0.875000X-0.150000X0.875000X-0.150000X0.875000X0.150000X-0.875000X0.150000X0*%
%ADD25R,1.600000X1.500000*%
%ADD26R,1.000000X0.800000*%
%ADD27RoundRect,0.250000X-0.450000X0.262500X-0.450000X-0.262500X0.450000X-0.262500X0.450000X0.262500X0*%
%ADD28R,2.800000X1.000000*%
%ADD29RoundRect,0.075000X-0.662500X-0.075000X0.662500X-0.075000X0.662500X0.075000X-0.662500X0.075000X0*%
%ADD30RoundRect,0.075000X-0.075000X-0.662500X0.075000X-0.662500X0.075000X0.662500X-0.075000X0.662500X0*%
%ADD31RoundRect,0.150000X-0.825000X-0.150000X0.825000X-0.150000X0.825000X0.150000X-0.825000X0.150000X0*%
%ADD32RoundRect,0.150000X-0.675000X-0.150000X0.675000X-0.150000X0.675000X0.150000X-0.675000X0.150000X0*%
%ADD33RoundRect,0.250000X1.075000X-0.375000X1.075000X0.375000X-1.075000X0.375000X-1.075000X-0.375000X0*%
%ADD34RoundRect,0.250000X0.250000X0.475000X-0.250000X0.475000X-0.250000X-0.475000X0.250000X-0.475000X0*%
%ADD35R,0.458000X1.510000*%
%ADD36R,1.400000X0.700000*%
%ADD37R,1.200000X0.700000*%
%ADD38R,0.800000X1.200000*%
%ADD39R,1.900000X1.500000*%
%ADD40RotRect,0.200000X0.200000X315.000000*%
%ADD41R,0.500000X0.500000*%
%ADD42R,1.400000X1.000000*%
%ADD43R,1.200000X1.200000*%
%ADD44R,3.200000X1.200000*%
G04 APERTURE END LIST*
D10*
%TO.C,R5*%
X222250000Y-150772500D03*
X222250000Y-148947500D03*
%TD*%
D11*
%TO.C,FB2*%
X185344000Y-84455000D03*
X182194000Y-84455000D03*
%TD*%
D12*
%TO.C,R18*%
X184681500Y-92710000D03*
X182856500Y-92710000D03*
%TD*%
D13*
%TO.C,BT1*%
X199745000Y-149225000D03*
X215545000Y-149225000D03*
%TD*%
D12*
%TO.C,R27*%
X245768500Y-91694000D03*
X243943500Y-91694000D03*
%TD*%
D14*
%TO.C,U8*%
X208280000Y-73900000D03*
X208280000Y-76200000D03*
D15*
X214580000Y-76200000D03*
D14*
X208280000Y-78500000D03*
%TD*%
D16*
%TO.C,U2*%
X194531125Y-90805000D03*
X194531125Y-90170000D03*
X194531125Y-89535000D03*
X194531125Y-88900000D03*
X194531125Y-88265000D03*
X194531125Y-87630000D03*
X194531125Y-86995000D03*
X194531125Y-86360000D03*
X194531125Y-85725000D03*
X194531125Y-85090000D03*
X189331125Y-85090000D03*
X189331125Y-85725000D03*
X189331125Y-86360000D03*
X189331125Y-86995000D03*
X189331125Y-87630000D03*
X189331125Y-88265000D03*
X189331125Y-88900000D03*
X189331125Y-89535000D03*
X189331125Y-90170000D03*
X189331125Y-90805000D03*
%TD*%
D17*
%TO.C,R7*%
X222607500Y-153670000D03*
X224432500Y-153670000D03*
%TD*%
D18*
%TO.C,D7*%
X188262500Y-100010000D03*
X188262500Y-98110000D03*
X186387500Y-99060000D03*
%TD*%
%TO.C,D9*%
X188262500Y-113980000D03*
X188262500Y-112080000D03*
X186387500Y-113030000D03*
%TD*%
D19*
%TO.C,D2*%
X231010000Y-129540000D03*
X233810000Y-129540000D03*
%TD*%
D20*
%TO.C,J8*%
X179769625Y-88240000D03*
X179769625Y-89040000D03*
D21*
X179769625Y-90190000D03*
X179769625Y-91190000D03*
X179769625Y-91690000D03*
X179769625Y-92690000D03*
D20*
X179769625Y-93840000D03*
X179769625Y-94640000D03*
X179769625Y-94640000D03*
X179769625Y-93840000D03*
D21*
X179769625Y-93190000D03*
X179769625Y-92190000D03*
X179769625Y-90690000D03*
X179769625Y-89690000D03*
D20*
X179769625Y-89040000D03*
X179769625Y-88240000D03*
D22*
X179194625Y-87120000D03*
D23*
X175014625Y-87120000D03*
D22*
X179194625Y-95760000D03*
D23*
X175014625Y-95760000D03*
%TD*%
D24*
%TO.C,U9*%
X184580000Y-145415000D03*
X184580000Y-146685000D03*
X184580000Y-147955000D03*
X184580000Y-149225000D03*
X184580000Y-150495000D03*
X184580000Y-151765000D03*
X184580000Y-153035000D03*
X184580000Y-154305000D03*
X193880000Y-154305000D03*
X193880000Y-153035000D03*
X193880000Y-151765000D03*
X193880000Y-150495000D03*
X193880000Y-149225000D03*
X193880000Y-147955000D03*
X193880000Y-146685000D03*
X193880000Y-145415000D03*
%TD*%
D25*
%TO.C,X2*%
X210185000Y-81915000D03*
X207645000Y-81915000D03*
X207645000Y-84115000D03*
X210185000Y-84115000D03*
%TD*%
D26*
%TO.C,D5*%
X253766000Y-85787000D03*
X253766000Y-87187000D03*
X256266000Y-87187000D03*
X256266000Y-85787000D03*
%TD*%
D19*
%TO.C,D3*%
X196914625Y-86995000D03*
X199714625Y-86995000D03*
%TD*%
D12*
%TO.C,R19*%
X184622125Y-89535000D03*
X182797125Y-89535000D03*
%TD*%
%TO.C,R26*%
X245768500Y-89662000D03*
X243943500Y-89662000D03*
%TD*%
D14*
%TO.C,U4*%
X197485000Y-73900000D03*
X197485000Y-76200000D03*
D15*
X203785000Y-76200000D03*
D14*
X197485000Y-78500000D03*
%TD*%
D27*
%TO.C,R4*%
X232664000Y-148947500D03*
X232664000Y-150772500D03*
%TD*%
D28*
%TO.C,SW4*%
X230145000Y-94520000D03*
X235945000Y-94520000D03*
X230145000Y-98520000D03*
X235945000Y-98520000D03*
%TD*%
D19*
%TO.C,D1*%
X196914625Y-83185000D03*
X199714625Y-83185000D03*
%TD*%
D12*
%TO.C,R14*%
X181252500Y-146685000D03*
X179427500Y-146685000D03*
%TD*%
%TO.C,R6*%
X229512500Y-153670000D03*
X227687500Y-153670000D03*
%TD*%
D29*
%TO.C,U1*%
X198887500Y-94913250D03*
X198887500Y-95413250D03*
X198887500Y-95913250D03*
X198887500Y-96413250D03*
X198887500Y-96913250D03*
X198887500Y-97413250D03*
X198887500Y-97913250D03*
X198887500Y-98413250D03*
X198887500Y-98913250D03*
X198887500Y-99413250D03*
X198887500Y-99913250D03*
X198887500Y-100413250D03*
X198887500Y-100913250D03*
X198887500Y-101413250D03*
X198887500Y-101913250D03*
X198887500Y-102413250D03*
X198887500Y-102913250D03*
X198887500Y-103413250D03*
X198887500Y-103913250D03*
X198887500Y-104413250D03*
X198887500Y-104913250D03*
X198887500Y-105413250D03*
X198887500Y-105913250D03*
X198887500Y-106413250D03*
X198887500Y-106913250D03*
X198887500Y-107413250D03*
X198887500Y-107913250D03*
X198887500Y-108413250D03*
X198887500Y-108913250D03*
X198887500Y-109413250D03*
X198887500Y-109913250D03*
X198887500Y-110413250D03*
X198887500Y-110913250D03*
X198887500Y-111413250D03*
X198887500Y-111913250D03*
X198887500Y-112413250D03*
D30*
X200800000Y-114325750D03*
X201300000Y-114325750D03*
X201800000Y-114325750D03*
X202300000Y-114325750D03*
X202800000Y-114325750D03*
X203300000Y-114325750D03*
X203800000Y-114325750D03*
X204300000Y-114325750D03*
X204800000Y-114325750D03*
X205300000Y-114325750D03*
X205800000Y-114325750D03*
X206300000Y-114325750D03*
X206800000Y-114325750D03*
X207300000Y-114325750D03*
X207800000Y-114325750D03*
X208300000Y-114325750D03*
X208800000Y-114325750D03*
X209300000Y-114325750D03*
X209800000Y-114325750D03*
X210300000Y-114325750D03*
X210800000Y-114325750D03*
X211300000Y-114325750D03*
X211800000Y-114325750D03*
X212300000Y-114325750D03*
X212800000Y-114325750D03*
X213300000Y-114325750D03*
X213800000Y-114325750D03*
X214300000Y-114325750D03*
X214800000Y-114325750D03*
X215300000Y-114325750D03*
X215800000Y-114325750D03*
X216300000Y-114325750D03*
X216800000Y-114325750D03*
X217300000Y-114325750D03*
X217800000Y-114325750D03*
X218300000Y-114325750D03*
D29*
X220212500Y-112413250D03*
X220212500Y-111913250D03*
X220212500Y-111413250D03*
X220212500Y-110913250D03*
X220212500Y-110413250D03*
X220212500Y-109913250D03*
X220212500Y-109413250D03*
X220212500Y-108913250D03*
X220212500Y-108413250D03*
X220212500Y-107913250D03*
X220212500Y-107413250D03*
X220212500Y-106913250D03*
X220212500Y-106413250D03*
X220212500Y-105913250D03*
X220212500Y-105413250D03*
X220212500Y-104913250D03*
X220212500Y-104413250D03*
X220212500Y-103913250D03*
X220212500Y-103413250D03*
X220212500Y-102913250D03*
X220212500Y-102413250D03*
X220212500Y-101913250D03*
X220212500Y-101413250D03*
X220212500Y-100913250D03*
X220212500Y-100413250D03*
X220212500Y-99913250D03*
X220212500Y-99413250D03*
X220212500Y-98913250D03*
X220212500Y-98413250D03*
X220212500Y-97913250D03*
X220212500Y-97413250D03*
X220212500Y-96913250D03*
X220212500Y-96413250D03*
X220212500Y-95913250D03*
X220212500Y-95413250D03*
X220212500Y-94913250D03*
D30*
X218300000Y-93000750D03*
X217800000Y-93000750D03*
X217300000Y-93000750D03*
X216800000Y-93000750D03*
X216300000Y-93000750D03*
X215800000Y-93000750D03*
X215300000Y-93000750D03*
X214800000Y-93000750D03*
X214300000Y-93000750D03*
X213800000Y-93000750D03*
X213300000Y-93000750D03*
X212800000Y-93000750D03*
X212300000Y-93000750D03*
X211800000Y-93000750D03*
X211300000Y-93000750D03*
X210800000Y-93000750D03*
X210300000Y-93000750D03*
X209800000Y-93000750D03*
X209300000Y-93000750D03*
X208800000Y-93000750D03*
X208300000Y-93000750D03*
X207800000Y-93000750D03*
X207300000Y-93000750D03*
X206800000Y-93000750D03*
X206300000Y-93000750D03*
X205800000Y-93000750D03*
X205300000Y-93000750D03*
X204800000Y-93000750D03*
X204300000Y-93000750D03*
X203800000Y-93000750D03*
X203300000Y-93000750D03*
X202800000Y-93000750D03*
X202300000Y-93000750D03*
X201800000Y-93000750D03*
X201300000Y-93000750D03*
X200800000Y-93000750D03*
%TD*%
D12*
%TO.C,R25*%
X249197500Y-87630000D03*
X247372500Y-87630000D03*
%TD*%
D31*
%TO.C,U10*%
X186755000Y-137795000D03*
X186755000Y-139065000D03*
X186755000Y-140335000D03*
X186755000Y-141605000D03*
X191705000Y-141605000D03*
X191705000Y-140335000D03*
X191705000Y-139065000D03*
X191705000Y-137795000D03*
%TD*%
D32*
%TO.C,U6*%
X224705000Y-147955000D03*
X224705000Y-149225000D03*
X224705000Y-150495000D03*
X224705000Y-151765000D03*
X229955000Y-151765000D03*
X229955000Y-150495000D03*
X229955000Y-149225000D03*
X229955000Y-147955000D03*
%TD*%
D33*
%TO.C,D4*%
X255905000Y-145545000D03*
X255905000Y-142745000D03*
%TD*%
D28*
%TO.C,SW2*%
X230145000Y-108490000D03*
X235945000Y-108490000D03*
X230145000Y-112490000D03*
X235945000Y-112490000D03*
%TD*%
D18*
%TO.C,D6*%
X188262500Y-105090000D03*
X188262500Y-103190000D03*
X186387500Y-104140000D03*
%TD*%
%TO.C,D8*%
X188262500Y-108900000D03*
X188262500Y-107000000D03*
X186387500Y-107950000D03*
%TD*%
D14*
%TO.C,U3*%
X186665000Y-73900000D03*
X186665000Y-76200000D03*
D15*
X192965000Y-76200000D03*
D14*
X186665000Y-78500000D03*
%TD*%
D25*
%TO.C,X1*%
X210185000Y-86403000D03*
X207645000Y-86403000D03*
X207645000Y-88603000D03*
X210185000Y-88603000D03*
%TD*%
D34*
%TO.C,C37*%
X180147000Y-84455000D03*
X178247000Y-84455000D03*
%TD*%
D17*
%TO.C,R17*%
X182729500Y-86995000D03*
X184554500Y-86995000D03*
%TD*%
D35*
%TO.C,U7*%
X202960000Y-134177500D03*
X203760000Y-134177500D03*
X204560000Y-134177500D03*
X205360000Y-134177500D03*
X206160000Y-134177500D03*
X206960000Y-134177500D03*
X207760000Y-134177500D03*
X208560000Y-134177500D03*
X209360000Y-134177500D03*
X210160000Y-134177500D03*
X210960000Y-134177500D03*
X211760000Y-134177500D03*
X212560000Y-134177500D03*
X213360000Y-134177500D03*
X214160000Y-134177500D03*
X214960000Y-134177500D03*
X215760000Y-134177500D03*
X216560000Y-134177500D03*
X217360000Y-134177500D03*
X218160000Y-134177500D03*
X218960000Y-134177500D03*
X219760000Y-134177500D03*
X220560000Y-134177500D03*
X221360000Y-134177500D03*
X222160000Y-134177500D03*
X222960000Y-134177500D03*
X223760000Y-134177500D03*
X223760000Y-122677500D03*
X222960000Y-122677500D03*
X222160000Y-122677500D03*
X221360000Y-122677500D03*
X220560000Y-122677500D03*
X219760000Y-122677500D03*
X218960000Y-122677500D03*
X218160000Y-122677500D03*
X217360000Y-122677500D03*
X216560000Y-122677500D03*
X215760000Y-122677500D03*
X214960000Y-122677500D03*
X214160000Y-122677500D03*
X213360000Y-122677500D03*
X212560000Y-122677500D03*
X211760000Y-122677500D03*
X210960000Y-122677500D03*
X210160000Y-122677500D03*
X209360000Y-122677500D03*
X208560000Y-122677500D03*
X207760000Y-122677500D03*
X206960000Y-122677500D03*
X206160000Y-122677500D03*
X205360000Y-122677500D03*
X204560000Y-122677500D03*
X203760000Y-122677500D03*
X202960000Y-122677500D03*
%TD*%
D36*
%TO.C,J9*%
X189795000Y-121685000D03*
X189795000Y-122785000D03*
X189795000Y-123885000D03*
X189795000Y-124985000D03*
X189795000Y-126085000D03*
X189795000Y-127185000D03*
X189795000Y-128285000D03*
X189795000Y-129385000D03*
D37*
X189895000Y-130335000D03*
D38*
X179395000Y-131185000D03*
D39*
X174795000Y-117885000D03*
D40*
X174345000Y-118635000D03*
D41*
X174095000Y-118885000D03*
D42*
X189795000Y-119785000D03*
D43*
X185595000Y-131185000D03*
D44*
X175795000Y-131185000D03*
%TD*%
D28*
%TO.C,SW1*%
X230145000Y-101505000D03*
X235945000Y-101505000D03*
X230145000Y-105505000D03*
X235945000Y-105505000D03*
%TD*%
%TO.C,SW3*%
X230145000Y-115475000D03*
X235945000Y-115475000D03*
X230145000Y-119475000D03*
X235945000Y-119475000D03*
%TD*%
M02*
