M48
; DRILL file {KiCad 9.0.2+1} date 2025-07-26T23:48:50+0100
; FORMAT={-:-/ absolute / inch / decimal}
; #@! TF.CreationDate,2025-07-26T23:48:50+01:00
; #@! TF.GenerationSoftware,Kicad,Pcbnew,9.0.2+1
; #@! TF.FileFunction,Plated,1,4,PTH
FMAT,2
INCH
; #@! TA.AperFunction,Plated,PTH,ViaDrill
T1C0.0120
; #@! TA.AperFunction,Plated,PTH,ComponentDrill
T2C0.0236
; #@! TA.AperFunction,Plated,PTH,ComponentDrill
T3C0.0315
; #@! TA.AperFunction,Plated,PTH,ComponentDrill
T4C0.0394
; #@! TA.AperFunction,Plated,PTH,ComponentDrill
T5C0.1260
%
G90
G05
T1
X7.065Y-4.905
X7.065Y-5.08
X7.1227Y-3.445
X7.1227Y-3.475
X7.1227Y-3.505
X7.1227Y-3.695
X7.1227Y-3.725
X7.1227Y-3.755
X7.1827Y-3.575
X7.2077Y-3.7
X7.2089Y-3.5987
X7.23Y-4.9
X7.2343Y-3.375
X7.275Y-2.875
X7.325Y-4.0
X7.3327Y-3.65
X7.3349Y-3.845
X7.3375Y-4.5125
X7.34Y-5.925
X7.3577Y-3.275
X7.3577Y-3.325
X7.365Y-4.14
X7.365Y-4.205
X7.3902Y-3.475
X7.3902Y-3.525
X7.3902Y-3.575
X7.395Y-4.9207
X7.395Y-5.0073
X7.395Y-5.13
X7.3991Y-4.8341
X7.4Y-4.25
X7.415Y-3.835
X7.415Y-3.965
X7.415Y-4.385
X7.415Y-4.515
X7.42Y-5.5724
X7.425Y-2.875
X7.4261Y-4.0413
X7.4261Y-4.315
X7.45Y-5.425
X7.45Y-5.5018
X7.45Y-5.775
X7.45Y-6.075
X7.5113Y-3.475
X7.549Y-3.1
X7.549Y-3.15
X7.55Y-2.875
X7.5563Y-3.4225
X7.5588Y-3.525
X7.56Y-5.875
X7.57Y-3.64
X7.599Y-3.1
X7.599Y-3.15
X7.5997Y-3.475
X7.625Y-4.135
X7.65Y-3.1
X7.65Y-3.15
X7.675Y-4.1501
X7.7Y-2.875
X7.7Y-3.1
X7.7Y-3.15
X7.7025Y-3.275
X7.7077Y-3.425
X7.7327Y-3.35
X7.75Y-3.15
X7.7604Y-4.1246
X7.8Y-3.15
X7.85Y-2.875
X7.8642Y-3.5008
X7.8789Y-4.236
X7.88Y-3.9771
X7.885Y-4.1395
X7.9Y-3.1
X7.9Y-3.15
X7.91Y-3.8145
X7.95Y-3.1
X7.95Y-3.15
X7.975Y-2.875
X8.0Y-3.1
X8.0Y-3.15
X8.0Y-4.9312
X8.0Y-5.1812
X8.0Y-5.7
X8.05Y-3.1
X8.05Y-3.15
X8.055Y-3.385
X8.055Y-3.2
X8.055Y-3.24
X8.055Y-3.27
X8.055Y-3.3
X8.055Y-3.3275
X8.055Y-3.355
X8.055Y-3.415
X8.0648Y-3.4407
X8.065Y-4.21
X8.075Y-4.9312
X8.075Y-5.1812
X8.11Y-3.7245
X8.115Y-4.445
X8.125Y-2.875
X8.125Y-3.2683
X8.1274Y-3.5972
X8.1323Y-3.4422
X8.135Y-3.7645
X8.135Y-3.8395
X8.14Y-4.59
X8.149Y-3.15
X8.15Y-5.21
X8.1512Y-4.905
X8.1607Y-4.5707
X8.1795Y-3.6
X8.199Y-3.15
X8.22Y-4.21
X8.2323Y-4.6527
X8.2323Y-4.6828
X8.2323Y-4.7406
X8.2326Y-4.7103
X8.245Y-4.765
X8.249Y-3.15
X8.25Y-4.9312
X8.25Y-5.1812
X8.255Y-4.435
X8.2748Y-4.7653
X8.275Y-2.875
X8.2795Y-3.62
X8.3Y-3.7121
X8.3Y-3.845
X8.305Y-3.765
X8.3133Y-3.445
X8.3183Y-3.2683
X8.32Y-3.99
X8.3225Y-5.21
X8.324Y-3.1
X8.324Y-3.15
X8.325Y-4.905
X8.345Y-5.7
X8.374Y-3.1
X8.374Y-3.15
X8.39Y-4.0645
X8.3932Y-4.4053
X8.395Y-3.99
X8.395Y-4.5838
X8.4Y-2.875
X8.4Y-4.9312
X8.4Y-5.1812
X8.4183Y-4.5687
X8.424Y-3.1
X8.424Y-3.15
X8.425Y-3.8145
X8.465Y-3.7145
X8.474Y-3.1
X8.474Y-3.15
X8.48Y-3.845
X8.485Y-4.0345
X8.5161Y-4.3895
X8.57Y-3.8995
X8.575Y-4.085
X8.575Y-4.17
X8.578Y-4.4515
X8.61Y-4.1195
X8.6207Y-3.9154
X8.65Y-5.1812
X8.75Y-5.98
X8.7594Y-4.0148
X8.76Y-4.045
X8.8Y-4.9312
X8.95Y-5.825
X8.95Y-5.975
X9.095Y-4.625
X9.1Y-3.8
X9.1Y-4.075
X9.1Y-4.35
X9.1Y-6.02
X9.1209Y-5.825
X9.15Y-5.055
X9.165Y-4.705
X9.175Y-3.7175
X9.175Y-3.875
X9.175Y-3.9963
X9.175Y-4.1537
X9.175Y-4.2713
X9.175Y-4.4287
X9.175Y-4.5463
X9.205Y-4.9087
X9.245Y-5.1
X9.45Y-5.75
X9.5144Y-3.4487
X9.53Y-4.93
X9.545Y-3.4487
X9.6041Y-3.48
X9.885Y-3.16
X10.075Y-5.575
X10.075Y-5.775
X10.09Y-3.335
T3
X7.0937Y-4.0465
X7.0937Y-4.1291
X7.0937Y-4.2315
X7.0937Y-4.3142
X7.2039Y-4.0465
X7.2039Y-4.3142
T4
X7.1Y-5.3504
X7.1Y-5.4504
X7.1Y-5.5504
X7.1Y-5.6504
X8.6Y-3.0715
X8.6Y-3.1715
X8.7Y-3.0715
X8.7Y-3.1715
X8.8Y-3.0715
X8.8Y-3.1715
X8.9Y-3.0715
X8.9Y-3.1715
X9.0Y-3.0715
X9.0Y-3.1715
X9.0Y-5.4
X9.0Y-5.5
X9.1Y-3.0715
X9.1Y-3.1715
X9.1Y-5.4
X9.1Y-5.5
X9.3508Y-3.16
X9.4Y-5.1
X9.5Y-5.1
X9.5Y-5.5
X9.5Y-5.6
X9.5Y-5.7
X9.5Y-5.8
X9.5Y-5.9
X9.6Y-5.5
X9.6Y-5.6
X9.6Y-5.7
X9.6Y-5.8
X9.6Y-5.9
X9.65Y-3.16
X9.925Y-3.55
X9.925Y-3.65
X9.925Y-3.75
X9.925Y-3.85
X9.925Y-3.95
X9.925Y-4.05
X9.925Y-4.15
X9.925Y-4.25
X9.925Y-4.35
X9.925Y-4.45
X9.925Y-4.55
X9.925Y-4.65
X9.925Y-4.75
X9.925Y-4.85
X9.925Y-4.95
X9.925Y-5.05
X9.925Y-5.15
X9.925Y-5.25
X9.925Y-5.35
X9.925Y-5.45
X10.025Y-3.55
X10.025Y-3.65
X10.025Y-3.75
X10.025Y-3.85
X10.025Y-3.95
X10.025Y-4.05
X10.025Y-4.15
X10.025Y-4.25
X10.025Y-4.35
X10.025Y-4.45
X10.025Y-4.55
X10.025Y-4.65
X10.025Y-4.75
X10.025Y-4.85
X10.025Y-4.95
X10.025Y-5.05
X10.025Y-5.15
X10.025Y-5.25
X10.025Y-5.35
X10.025Y-5.45
T5
X7.0Y-3.0
X7.0Y-6.0
X10.0Y-3.0
X10.0Y-6.0
T2
G00X6.9061Y-3.4299
M15
G01X6.8746Y-3.4299
M16
G05
G00X6.9061Y-3.7701
M15
G01X6.8746Y-3.7701
M16
G05
G00X7.0766Y-3.4299
M15
G01X7.0333Y-3.4299
M16
G05
G00X7.0766Y-3.7701
M15
G01X7.0333Y-3.7701
M16
G05
T4
G00X6.95Y-4.1409
M15
G01X6.95Y-4.2197
M16
G05
G00X7.011Y-3.9106
M15
G01X6.952Y-3.9106
M16
G05
G00X7.011Y-4.45
M15
G01X6.952Y-4.45
M16
G05
M30
