%TF.GenerationSoftware,KiCad,Pcbnew,9.0.2+1*%
%TF.CreationDate,2025-07-26T23:48:39+01:00*%
%TF.ProjectId,ICE40HXDevBoard,49434534-3048-4584-9465-76426f617264,rev?*%
%TF.SameCoordinates,Original*%
%TF.FileFunction,Copper,L4,Bot*%
%TF.FilePolarity,Positive*%
%FSLAX46Y46*%
G04 Gerber Fmt 4.6, Leading zero omitted, Abs format (unit mm)*
G04 Created by KiCad (PCBNEW 9.0.2+1) date 2025-07-26 23:48:39*
%MOMM*%
%LPD*%
G01*
G04 APERTURE LIST*
G04 Aperture macros list*
%AMRoundRect*
0 Rectangle with rounded corners*
0 $1 Rounding radius*
0 $2 $3 $4 $5 $6 $7 $8 $9 X,Y pos of 4 corners*
0 Add a 4 corners polygon primitive as box body*
4,1,4,$2,$3,$4,$5,$6,$7,$8,$9,$2,$3,0*
0 Add four circle primitives for the rounded corners*
1,1,$1+$1,$2,$3*
1,1,$1+$1,$4,$5*
1,1,$1+$1,$6,$7*
1,1,$1+$1,$8,$9*
0 Add four rect primitives between the rounded corners*
20,1,$1+$1,$2,$3,$4,$5,0*
20,1,$1+$1,$4,$5,$6,$7,0*
20,1,$1+$1,$6,$7,$8,$9,0*
20,1,$1+$1,$8,$9,$2,$3,0*%
G04 Aperture macros list end*
%TA.AperFunction,ComponentPad*%
%ADD10R,2.000000X2.000000*%
%TD*%
%TA.AperFunction,ComponentPad*%
%ADD11C,2.000000*%
%TD*%
%TA.AperFunction,ComponentPad*%
%ADD12R,1.600000X1.600000*%
%TD*%
%TA.AperFunction,ComponentPad*%
%ADD13C,1.600000*%
%TD*%
%TA.AperFunction,ComponentPad*%
%ADD14O,3.500000X2.000000*%
%TD*%
%TA.AperFunction,ComponentPad*%
%ADD15O,2.000000X4.000000*%
%TD*%
%TA.AperFunction,ComponentPad*%
%ADD16R,1.700000X1.700000*%
%TD*%
%TA.AperFunction,ComponentPad*%
%ADD17O,1.700000X1.700000*%
%TD*%
%TA.AperFunction,HeatsinkPad*%
%ADD18O,2.100000X1.000000*%
%TD*%
%TA.AperFunction,HeatsinkPad*%
%ADD19O,1.800000X1.000000*%
%TD*%
%TA.AperFunction,ComponentPad*%
%ADD20RoundRect,0.250000X-0.600000X-0.600000X0.600000X-0.600000X0.600000X0.600000X-0.600000X0.600000X0*%
%TD*%
%TA.AperFunction,ComponentPad*%
%ADD21C,1.700000*%
%TD*%
%TA.AperFunction,ComponentPad*%
%ADD22C,6.400000*%
%TD*%
%TA.AperFunction,SMDPad,CuDef*%
%ADD23RoundRect,0.250000X0.475000X-0.250000X0.475000X0.250000X-0.475000X0.250000X-0.475000X-0.250000X0*%
%TD*%
%TA.AperFunction,SMDPad,CuDef*%
%ADD24RoundRect,0.250000X0.262500X0.450000X-0.262500X0.450000X-0.262500X-0.450000X0.262500X-0.450000X0*%
%TD*%
%TA.AperFunction,SMDPad,CuDef*%
%ADD25RoundRect,0.250000X-0.262500X-0.450000X0.262500X-0.450000X0.262500X0.450000X-0.262500X0.450000X0*%
%TD*%
%TA.AperFunction,SMDPad,CuDef*%
%ADD26RoundRect,0.250000X-0.475000X0.250000X-0.475000X-0.250000X0.475000X-0.250000X0.475000X0.250000X0*%
%TD*%
%TA.AperFunction,SMDPad,CuDef*%
%ADD27RoundRect,0.250000X-0.450000X0.262500X-0.450000X-0.262500X0.450000X-0.262500X0.450000X0.262500X0*%
%TD*%
%TA.AperFunction,SMDPad,CuDef*%
%ADD28RoundRect,0.250000X-0.250000X-0.475000X0.250000X-0.475000X0.250000X0.475000X-0.250000X0.475000X0*%
%TD*%
%TA.AperFunction,SMDPad,CuDef*%
%ADD29RoundRect,0.250000X0.250000X0.475000X-0.250000X0.475000X-0.250000X-0.475000X0.250000X-0.475000X0*%
%TD*%
%TA.AperFunction,SMDPad,CuDef*%
%ADD30RoundRect,0.250000X0.425000X-0.450000X0.425000X0.450000X-0.425000X0.450000X-0.425000X-0.450000X0*%
%TD*%
%TA.AperFunction,SMDPad,CuDef*%
%ADD31RoundRect,0.250000X1.025000X-0.787500X1.025000X0.787500X-1.025000X0.787500X-1.025000X-0.787500X0*%
%TD*%
%TA.AperFunction,SMDPad,CuDef*%
%ADD32RoundRect,0.250000X0.450000X-0.262500X0.450000X0.262500X-0.450000X0.262500X-0.450000X-0.262500X0*%
%TD*%
%TA.AperFunction,ViaPad*%
%ADD33C,0.635000*%
%TD*%
%TA.AperFunction,ViaPad*%
%ADD34C,0.762000*%
%TD*%
%TA.AperFunction,ViaPad*%
%ADD35C,0.508000*%
%TD*%
%TA.AperFunction,Conductor*%
%ADD36C,0.317500*%
%TD*%
%TA.AperFunction,Conductor*%
%ADD37C,1.651000*%
%TD*%
%TA.AperFunction,Conductor*%
%ADD38C,0.190500*%
%TD*%
G04 APERTURE END LIST*
D10*
%TO.P,SP1,1,1*%
%TO.N,BUZZER*%
X237510000Y-80264000D03*
D11*
%TO.P,SP1,2,2*%
%TO.N,Net-(R36-Pad1)*%
X245110000Y-80264000D03*
%TD*%
D12*
%TO.P,J11,1*%
%TO.N,Net-(J11-Pad1)*%
X180180000Y-107480000D03*
D13*
%TO.P,J11,2*%
%TO.N,Net-(J11-Pad2)*%
X180180000Y-104880000D03*
%TO.P,J11,3*%
%TO.N,GND*%
X180180000Y-109580000D03*
%TO.P,J11,4*%
%TO.N,+5V*%
X180180000Y-102780000D03*
%TO.P,J11,5*%
%TO.N,Net-(J11-Pad5)*%
X182980000Y-109580000D03*
%TO.P,J11,6*%
%TO.N,Net-(J11-Pad6)*%
X182980000Y-102780000D03*
D14*
%TO.P,J11,7*%
%TO.N,N/C*%
X177330000Y-99330000D03*
D15*
X176530000Y-106180000D03*
D14*
X177330000Y-113030000D03*
%TD*%
D16*
%TO.P,J6,1,Pin_1*%
%TO.N,+5V*%
X252095000Y-90170000D03*
D17*
%TO.P,J6,2,Pin_2*%
%TO.N,GND*%
X254635000Y-90170000D03*
%TO.P,J6,3,Pin_3*%
%TO.N,MASTERCLK*%
X252095000Y-92710000D03*
%TO.P,J6,4,Pin_4*%
%TO.N,SECONDARYCLK*%
X254635000Y-92710000D03*
%TO.P,J6,5,Pin_5*%
%TO.N,EXP0*%
X252095000Y-95250000D03*
%TO.P,J6,6,Pin_6*%
%TO.N,EXP15*%
X254635000Y-95250000D03*
%TO.P,J6,7,Pin_7*%
%TO.N,EXP1*%
X252095000Y-97790000D03*
%TO.P,J6,8,Pin_8*%
%TO.N,EXP16*%
X254635000Y-97790000D03*
%TO.P,J6,9,Pin_9*%
%TO.N,EXP2*%
X252095000Y-100330000D03*
%TO.P,J6,10,Pin_10*%
%TO.N,EXP17*%
X254635000Y-100330000D03*
%TO.P,J6,11,Pin_11*%
%TO.N,EXP3*%
X252095000Y-102870000D03*
%TO.P,J6,12,Pin_12*%
%TO.N,EXP18*%
X254635000Y-102870000D03*
%TO.P,J6,13,Pin_13*%
%TO.N,EXP4*%
X252095000Y-105410000D03*
%TO.P,J6,14,Pin_14*%
%TO.N,EXP19*%
X254635000Y-105410000D03*
%TO.P,J6,15,Pin_15*%
%TO.N,EXP5*%
X252095000Y-107950000D03*
%TO.P,J6,16,Pin_16*%
%TO.N,EXP20*%
X254635000Y-107950000D03*
%TO.P,J6,17,Pin_17*%
%TO.N,EXP6*%
X252095000Y-110490000D03*
%TO.P,J6,18,Pin_18*%
%TO.N,EXP21*%
X254635000Y-110490000D03*
%TO.P,J6,19,Pin_19*%
%TO.N,+3V3*%
X252095000Y-113030000D03*
%TO.P,J6,20,Pin_20*%
%TO.N,GND*%
X254635000Y-113030000D03*
%TO.P,J6,21,Pin_21*%
%TO.N,+3V3*%
X252095000Y-115570000D03*
%TO.P,J6,22,Pin_22*%
%TO.N,GND*%
X254635000Y-115570000D03*
%TO.P,J6,23,Pin_23*%
%TO.N,EXP7*%
X252095000Y-118110000D03*
%TO.P,J6,24,Pin_24*%
%TO.N,EXP22*%
X254635000Y-118110000D03*
%TO.P,J6,25,Pin_25*%
%TO.N,EXP8*%
X252095000Y-120650000D03*
%TO.P,J6,26,Pin_26*%
%TO.N,EXP23*%
X254635000Y-120650000D03*
%TO.P,J6,27,Pin_27*%
%TO.N,EXP9*%
X252095000Y-123190000D03*
%TO.P,J6,28,Pin_28*%
%TO.N,EXP24*%
X254635000Y-123190000D03*
%TO.P,J6,29,Pin_29*%
%TO.N,EXP10*%
X252095000Y-125730000D03*
%TO.P,J6,30,Pin_30*%
%TO.N,EXP25*%
X254635000Y-125730000D03*
%TO.P,J6,31,Pin_31*%
%TO.N,EXP11*%
X252095000Y-128270000D03*
%TO.P,J6,32,Pin_32*%
%TO.N,EXPCBSEL0*%
X254635000Y-128270000D03*
%TO.P,J6,33,Pin_33*%
%TO.N,EXP12*%
X252095000Y-130810000D03*
%TO.P,J6,34,Pin_34*%
%TO.N,EXPCBSEL1*%
X254635000Y-130810000D03*
%TO.P,J6,35,Pin_35*%
%TO.N,EXP13*%
X252095000Y-133350000D03*
%TO.P,J6,36,Pin_36*%
%TO.N,I2CSCL*%
X254635000Y-133350000D03*
%TO.P,J6,37,Pin_37*%
%TO.N,EXP14*%
X252095000Y-135890000D03*
%TO.P,J6,38,Pin_38*%
%TO.N,I2CSDA*%
X254635000Y-135890000D03*
%TO.P,J6,39,Pin_39*%
%TO.N,+5V*%
X252095000Y-138430000D03*
%TO.P,J6,40,Pin_40*%
%TO.N,GND*%
X254635000Y-138430000D03*
%TD*%
D18*
%TO.P,J8,S1,SHIELD*%
%TO.N,GND*%
X179194625Y-87120000D03*
D19*
X175014625Y-87120000D03*
D18*
X179194625Y-95760000D03*
D19*
X175014625Y-95760000D03*
%TD*%
D16*
%TO.P,J3,1,Pin_1*%
%TO.N,/FPGA Power and Config/ICE_SS*%
X241300000Y-129540000D03*
D17*
%TO.P,J3,2,Pin_2*%
%TO.N,Net-(J3-Pin_2)*%
X238760000Y-129540000D03*
%TD*%
D20*
%TO.P,J12,1,Pin_1*%
%TO.N,+3V3*%
X241300000Y-139700000D03*
D21*
%TO.P,J12,2,Pin_2*%
%TO.N,GND*%
X243840000Y-139700000D03*
%TO.P,J12,3,Pin_3*%
%TO.N,/FPGA Power and Config/FLASH_MOSI*%
X241300000Y-142240000D03*
%TO.P,J12,4,Pin_4*%
%TO.N,/FPGA Power and Config/~{CRESET_B}*%
X243840000Y-142240000D03*
%TO.P,J12,5,Pin_5*%
%TO.N,/FPGA Power and Config/FLASH_MISO*%
X241300000Y-144780000D03*
%TO.P,J12,6,Pin_6*%
%TO.N,/FPGA Power and Config/CDONE*%
X243840000Y-144780000D03*
%TO.P,J12,7,Pin_7*%
%TO.N,/FPGA Power and Config/ICE_SCK*%
X241300000Y-147320000D03*
%TO.P,J12,8,Pin_8*%
%TO.N,/FPGA Power and Config/ICE_SS*%
X243840000Y-147320000D03*
%TO.P,J12,9,Pin_9*%
%TO.N,+3V3*%
X241300000Y-149860000D03*
%TO.P,J12,10,Pin_10*%
%TO.N,GND*%
X243840000Y-149860000D03*
%TD*%
D22*
%TO.P,H4,1,1*%
%TO.N,GND*%
X177800000Y-152400000D03*
%TD*%
D16*
%TO.P,J4,1,Pin_1*%
%TO.N,/FPGA Power and Config/FLASH_MOSI*%
X228600000Y-137160000D03*
D17*
%TO.P,J4,2,Pin_2*%
%TO.N,/FPGA Power and Config/ICE_MISO*%
X231140000Y-137160000D03*
%TO.P,J4,3,Pin_3*%
%TO.N,/FPGA Power and Config/ICE_MOSI*%
X228600000Y-139700000D03*
%TO.P,J4,4,Pin_4*%
%TO.N,/FPGA Power and Config/FLASH_MISO*%
X231140000Y-139700000D03*
%TD*%
D16*
%TO.P,J10,1,Pin_1*%
%TO.N,+3V3*%
X180340000Y-135900000D03*
D17*
%TO.P,J10,2,Pin_2*%
%TO.N,I2CSDA*%
X180340000Y-138440000D03*
%TO.P,J10,3,Pin_3*%
%TO.N,I2CSCL*%
X180340000Y-140980000D03*
%TO.P,J10,4,Pin_4*%
%TO.N,GND*%
X180340000Y-143520000D03*
%TD*%
D22*
%TO.P,H1,1,1*%
%TO.N,GND*%
X254000000Y-76200000D03*
%TD*%
%TO.P,H3,1,1*%
%TO.N,GND*%
X254000000Y-152400000D03*
%TD*%
D16*
%TO.P,J5,1,Pin_1*%
%TO.N,+3V3*%
X231140000Y-80555000D03*
D17*
%TO.P,J5,2,Pin_2*%
X231140000Y-78015000D03*
%TO.P,J5,3,Pin_3*%
%TO.N,GND*%
X228600000Y-80555000D03*
%TO.P,J5,4,Pin_4*%
X228600000Y-78015000D03*
%TO.P,J5,5,Pin_5*%
%TO.N,USER7*%
X226060000Y-80555000D03*
%TO.P,J5,6,Pin_6*%
%TO.N,USER3*%
X226060000Y-78015000D03*
%TO.P,J5,7,Pin_7*%
%TO.N,USER6*%
X223520000Y-80555000D03*
%TO.P,J5,8,Pin_8*%
%TO.N,USER2*%
X223520000Y-78015000D03*
%TO.P,J5,9,Pin_9*%
%TO.N,USER5*%
X220980000Y-80555000D03*
%TO.P,J5,10,Pin_10*%
%TO.N,USER1*%
X220980000Y-78015000D03*
%TO.P,J5,11,Pin_11*%
%TO.N,USER4*%
X218440000Y-80555000D03*
%TO.P,J5,12,Pin_12*%
%TO.N,USER0*%
X218440000Y-78015000D03*
%TD*%
D22*
%TO.P,H2,1,1*%
%TO.N,GND*%
X177800000Y-76200000D03*
%TD*%
D23*
%TO.P,C30,1*%
%TO.N,+3V3*%
X219964000Y-112317250D03*
%TO.P,C30,2*%
%TO.N,GND*%
X219964000Y-110417250D03*
%TD*%
D24*
%TO.P,R24,1*%
%TO.N,PS2BDATA*%
X184150000Y-99060000D03*
%TO.P,R24,2*%
%TO.N,Net-(J11-Pad2)*%
X182325000Y-99060000D03*
%TD*%
D25*
%TO.P,R34,1*%
%TO.N,Net-(J11-Pad5)*%
X185777500Y-109601000D03*
%TO.P,R34,2*%
%TO.N,PS2ACLK*%
X187602500Y-109601000D03*
%TD*%
%TO.P,R2,1*%
%TO.N,+1V2*%
X205970500Y-109081250D03*
%TO.P,R2,2*%
%TO.N,Net-(U1E-VCCPLL0)*%
X207795500Y-109081250D03*
%TD*%
D26*
%TO.P,C4,1*%
%TO.N,+3V3*%
X217805000Y-100638250D03*
%TO.P,C4,2*%
%TO.N,GND*%
X217805000Y-102538250D03*
%TD*%
D27*
%TO.P,R8,1*%
%TO.N,+3V3*%
X176530000Y-135866500D03*
%TO.P,R8,2*%
%TO.N,I2CSCL*%
X176530000Y-137691500D03*
%TD*%
D28*
%TO.P,C31,1*%
%TO.N,+3V3*%
X220030000Y-128427500D03*
%TO.P,C31,2*%
%TO.N,GND*%
X221930000Y-128427500D03*
%TD*%
D29*
%TO.P,C26,1*%
%TO.N,Net-(U1E-VCCPLL0)*%
X206817000Y-111760000D03*
%TO.P,C26,2*%
%TO.N,Net-(U1E-GNDPLL0)*%
X204917000Y-111760000D03*
%TD*%
D26*
%TO.P,C29,1*%
%TO.N,+2V5*%
X215519000Y-99368250D03*
%TO.P,C29,2*%
%TO.N,GND*%
X215519000Y-101268250D03*
%TD*%
%TO.P,C34,1*%
%TO.N,+3V3*%
X189230000Y-148910000D03*
%TO.P,C34,2*%
%TO.N,GND*%
X189230000Y-150810000D03*
%TD*%
D29*
%TO.P,C27,1*%
%TO.N,+2V5*%
X209865000Y-97651250D03*
%TO.P,C27,2*%
%TO.N,GND*%
X207965000Y-97651250D03*
%TD*%
D25*
%TO.P,R29,1*%
%TO.N,Net-(J11-Pad2)*%
X190222500Y-102870000D03*
%TO.P,R29,2*%
%TO.N,+5V*%
X192047500Y-102870000D03*
%TD*%
D29*
%TO.P,C28,1*%
%TO.N,Net-(U1E-VCCPLL0)*%
X206817000Y-114034250D03*
%TO.P,C28,2*%
%TO.N,Net-(U1E-GNDPLL0)*%
X204917000Y-114034250D03*
%TD*%
D24*
%TO.P,R12,1*%
%TO.N,BUTTON3*%
X233957500Y-117475000D03*
%TO.P,R12,2*%
%TO.N,+3V3*%
X232132500Y-117475000D03*
%TD*%
D26*
%TO.P,C20,1*%
%TO.N,+3V3*%
X227330000Y-148910000D03*
%TO.P,C20,2*%
%TO.N,GND*%
X227330000Y-150810000D03*
%TD*%
D28*
%TO.P,C15,1*%
%TO.N,Net-(U1E-VCCPLL1)*%
X214061000Y-95492250D03*
%TO.P,C15,2*%
%TO.N,Net-(U1E-GNDPLL1)*%
X215961000Y-95492250D03*
%TD*%
D25*
%TO.P,R28,1*%
%TO.N,Net-(J11-Pad6)*%
X190222500Y-99060000D03*
%TO.P,R28,2*%
%TO.N,+5V*%
X192047500Y-99060000D03*
%TD*%
D23*
%TO.P,C6,1*%
%TO.N,+3V3*%
X217805000Y-112317250D03*
%TO.P,C6,2*%
%TO.N,GND*%
X217805000Y-110417250D03*
%TD*%
D24*
%TO.P,R16,1*%
%TO.N,SDCARDDET*%
X186332500Y-130302000D03*
%TO.P,R16,2*%
%TO.N,+3V3*%
X184507500Y-130302000D03*
%TD*%
D30*
%TO.P,C14,1*%
%TO.N,+2V5*%
X203835000Y-77550000D03*
%TO.P,C14,2*%
%TO.N,GND*%
X203835000Y-74850000D03*
%TD*%
D31*
%TO.P,C1,1*%
%TO.N,+5V*%
X186690000Y-80645000D03*
%TO.P,C1,2*%
%TO.N,GND*%
X186690000Y-74420000D03*
%TD*%
D24*
%TO.P,R23,1*%
%TO.N,PS2BCLK*%
X187602500Y-102870000D03*
%TO.P,R23,2*%
%TO.N,Net-(J11-Pad6)*%
X185777500Y-102870000D03*
%TD*%
D28*
%TO.P,C12,1*%
%TO.N,Net-(U1E-VCCPLL1)*%
X214061000Y-93333250D03*
%TO.P,C12,2*%
%TO.N,Net-(U1E-GNDPLL1)*%
X215961000Y-93333250D03*
%TD*%
D29*
%TO.P,C8,1*%
%TO.N,+3V3*%
X214183000Y-111875250D03*
%TO.P,C8,2*%
%TO.N,GND*%
X212283000Y-111875250D03*
%TD*%
D25*
%TO.P,R32,1*%
%TO.N,Net-(J11-Pad1)*%
X190222500Y-109220000D03*
%TO.P,R32,2*%
%TO.N,+5V*%
X192047500Y-109220000D03*
%TD*%
D29*
%TO.P,C16,1*%
%TO.N,+1V2*%
X213167000Y-100064250D03*
%TO.P,C16,2*%
%TO.N,GND*%
X211267000Y-100064250D03*
%TD*%
D26*
%TO.P,C35,1*%
%TO.N,+3V3*%
X189230000Y-138750000D03*
%TO.P,C35,2*%
%TO.N,GND*%
X189230000Y-140650000D03*
%TD*%
D25*
%TO.P,R31,1*%
%TO.N,Net-(J11-Pad5)*%
X190222500Y-113030000D03*
%TO.P,R31,2*%
%TO.N,+5V*%
X192047500Y-113030000D03*
%TD*%
D29*
%TO.P,C11,1*%
%TO.N,+3V3*%
X209865000Y-93333250D03*
%TO.P,C11,2*%
%TO.N,GND*%
X207965000Y-93333250D03*
%TD*%
D26*
%TO.P,C5,1*%
%TO.N,+3V3*%
X219964000Y-100638250D03*
%TO.P,C5,2*%
%TO.N,GND*%
X219964000Y-102538250D03*
%TD*%
D30*
%TO.P,C21,1*%
%TO.N,+3V3*%
X208255000Y-77550000D03*
%TO.P,C21,2*%
%TO.N,GND*%
X208255000Y-74850000D03*
%TD*%
D29*
%TO.P,C19,1*%
%TO.N,+3V3*%
X192881125Y-85915500D03*
%TO.P,C19,2*%
%TO.N,GND*%
X190981125Y-85915500D03*
%TD*%
D25*
%TO.P,R20,1*%
%TO.N,Net-(D1-K)*%
X197402125Y-83185000D03*
%TO.P,R20,2*%
%TO.N,/Misc/RXLED*%
X199227125Y-83185000D03*
%TD*%
D29*
%TO.P,C33,1*%
%TO.N,+3V3*%
X209865000Y-83015000D03*
%TO.P,C33,2*%
%TO.N,GND*%
X207965000Y-83015000D03*
%TD*%
D32*
%TO.P,R9,1*%
%TO.N,+1V2*%
X212090000Y-96635250D03*
%TO.P,R9,2*%
%TO.N,Net-(U1E-VCCPLL1)*%
X212090000Y-94810250D03*
%TD*%
D29*
%TO.P,C40,1*%
%TO.N,+3V3*%
X192815125Y-91122500D03*
%TO.P,C40,2*%
%TO.N,GND*%
X190915125Y-91122500D03*
%TD*%
D32*
%TO.P,R35,1*%
%TO.N,Net-(D4-K)*%
X255905000Y-145057500D03*
%TO.P,R35,2*%
%TO.N,GND*%
X255905000Y-143232500D03*
%TD*%
D25*
%TO.P,R21,1*%
%TO.N,Net-(D3-K)*%
X197402125Y-86995000D03*
%TO.P,R21,2*%
%TO.N,/Misc/TXLED*%
X199227125Y-86995000D03*
%TD*%
D23*
%TO.P,C22,1*%
%TO.N,+1V2*%
X212065000Y-77150000D03*
%TO.P,C22,2*%
%TO.N,GND*%
X212065000Y-75250000D03*
%TD*%
D24*
%TO.P,R1,1*%
%TO.N,+3V3*%
X240815500Y-125222000D03*
%TO.P,R1,2*%
%TO.N,/FPGA Power and Config/~{CRESET_B}*%
X238990500Y-125222000D03*
%TD*%
%TO.P,R30,1*%
%TO.N,BUTTON0*%
X233957500Y-96520000D03*
%TO.P,R30,2*%
%TO.N,+3V3*%
X232132500Y-96520000D03*
%TD*%
D23*
%TO.P,C9,1*%
%TO.N,+3V3*%
X199136000Y-103935250D03*
%TO.P,C9,2*%
%TO.N,GND*%
X199136000Y-102035250D03*
%TD*%
D25*
%TO.P,R3,1*%
%TO.N,+3V3*%
X231497500Y-129540000D03*
%TO.P,R3,2*%
%TO.N,/FPGA Power and Config/CDONE*%
X233322500Y-129540000D03*
%TD*%
D29*
%TO.P,C38,1*%
%TO.N,Net-(C38-Pad1)*%
X184719000Y-92710000D03*
%TO.P,C38,2*%
%TO.N,GND*%
X182819000Y-92710000D03*
%TD*%
%TO.P,C17,1*%
%TO.N,+3V3*%
X209865000Y-95492250D03*
%TO.P,C17,2*%
%TO.N,GND*%
X207965000Y-95492250D03*
%TD*%
%TO.P,C18,1*%
%TO.N,+3V3*%
X209865000Y-87503000D03*
%TO.P,C18,2*%
%TO.N,GND*%
X207965000Y-87503000D03*
%TD*%
D25*
%TO.P,R33,1*%
%TO.N,Net-(J11-Pad1)*%
X182325000Y-113030000D03*
%TO.P,R33,2*%
%TO.N,PS2ADATA*%
X184150000Y-113030000D03*
%TD*%
D23*
%TO.P,C3,1*%
%TO.N,+3V3*%
X190500000Y-77150000D03*
%TO.P,C3,2*%
%TO.N,GND*%
X190500000Y-75250000D03*
%TD*%
D27*
%TO.P,R13,1*%
%TO.N,+3V3*%
X184150000Y-135866500D03*
%TO.P,R13,2*%
%TO.N,I2CSDA*%
X184150000Y-137691500D03*
%TD*%
D24*
%TO.P,R10,1*%
%TO.N,BUTTON1*%
X233957500Y-103505000D03*
%TO.P,R10,2*%
%TO.N,+3V3*%
X232132500Y-103505000D03*
%TD*%
D30*
%TO.P,C24,1*%
%TO.N,+1V2*%
X214605000Y-77550000D03*
%TO.P,C24,2*%
%TO.N,GND*%
X214605000Y-74850000D03*
%TD*%
D28*
%TO.P,C23,1*%
%TO.N,+1V2*%
X205933000Y-106922250D03*
%TO.P,C23,2*%
%TO.N,GND*%
X207833000Y-106922250D03*
%TD*%
D23*
%TO.P,C10,1*%
%TO.N,+2V5*%
X201295000Y-77150000D03*
%TO.P,C10,2*%
%TO.N,GND*%
X201295000Y-75250000D03*
%TD*%
D29*
%TO.P,C7,1*%
%TO.N,+3V3*%
X214183000Y-114034250D03*
%TO.P,C7,2*%
%TO.N,GND*%
X212283000Y-114034250D03*
%TD*%
D25*
%TO.P,R15,1*%
%TO.N,+3V3*%
X184507500Y-122809000D03*
%TO.P,R15,2*%
%TO.N,SDCARDCS*%
X186332500Y-122809000D03*
%TD*%
D30*
%TO.P,C13,1*%
%TO.N,+3V3*%
X193040000Y-77550000D03*
%TO.P,C13,2*%
%TO.N,GND*%
X193040000Y-74850000D03*
%TD*%
D23*
%TO.P,C25,1*%
%TO.N,+3V3*%
X201295000Y-103935250D03*
%TO.P,C25,2*%
%TO.N,GND*%
X201295000Y-102035250D03*
%TD*%
D24*
%TO.P,R11,1*%
%TO.N,BUTTON2*%
X233957500Y-110490000D03*
%TO.P,R11,2*%
%TO.N,+3V3*%
X232132500Y-110490000D03*
%TD*%
D28*
%TO.P,C32,1*%
%TO.N,+3V3*%
X205425000Y-128427500D03*
%TO.P,C32,2*%
%TO.N,GND*%
X207325000Y-128427500D03*
%TD*%
D25*
%TO.P,R36,1*%
%TO.N,Net-(R36-Pad1)*%
X247904000Y-80264000D03*
%TO.P,R36,2*%
%TO.N,GND*%
X249729000Y-80264000D03*
%TD*%
D29*
%TO.P,C39,1*%
%TO.N,Net-(C39-Pad1)*%
X184719000Y-89535000D03*
%TO.P,C39,2*%
%TO.N,GND*%
X182819000Y-89535000D03*
%TD*%
%TO.P,C36,1*%
%TO.N,+3V3*%
X182560000Y-124460000D03*
%TO.P,C36,2*%
%TO.N,GND*%
X180660000Y-124460000D03*
%TD*%
D30*
%TO.P,C2,1*%
%TO.N,+3V3*%
X197485000Y-77550000D03*
%TO.P,C2,2*%
%TO.N,GND*%
X197485000Y-74850000D03*
%TD*%
D33*
%TO.N,GND*%
X232791000Y-119507000D03*
X207010000Y-132334000D03*
X200152000Y-101019250D03*
X203200000Y-125252500D03*
X189230000Y-139745300D03*
X227330000Y-151765000D03*
X211390250Y-132334000D03*
X193032625Y-88265000D03*
X233045000Y-98425000D03*
X233045000Y-105505000D03*
X213360000Y-125252500D03*
X179451000Y-129032000D03*
X199390000Y-73025000D03*
X223520000Y-125252500D03*
X233045000Y-112490000D03*
X189230000Y-154305000D03*
X206375000Y-73025000D03*
X211963000Y-144780000D03*
X188341000Y-114681000D03*
X251079000Y-80264000D03*
X203200000Y-144780000D03*
X205994000Y-94603250D03*
X200914000Y-96889250D03*
X183750000Y-85725000D03*
X188595000Y-73025000D03*
X187071000Y-105156000D03*
X183074625Y-93980000D03*
X205105000Y-125252500D03*
X191770000Y-73025000D03*
X190788125Y-88265000D03*
X206375000Y-83015000D03*
X206560516Y-87432126D03*
X195580000Y-73025000D03*
X192024000Y-149225000D03*
X188341000Y-100711000D03*
X206629000Y-97524250D03*
X217805000Y-105918000D03*
X208788000Y-106934000D03*
X217678000Y-99048250D03*
X188623000Y-109601000D03*
X215519000Y-102477250D03*
X210185000Y-73025000D03*
X184785000Y-73025000D03*
X213187700Y-111894300D03*
X213360000Y-73025000D03*
X217805000Y-103759000D03*
X202565000Y-73025000D03*
X182439625Y-90805000D03*
X197114250Y-104764750D03*
X211328000Y-101346000D03*
X187833000Y-127185000D03*
X186436000Y-150495000D03*
X188468000Y-141540000D03*
X209550000Y-125252500D03*
X179451000Y-124587000D03*
D34*
%TO.N,+5V*%
X187710125Y-88265000D03*
X186884625Y-84455000D03*
X186884625Y-83185000D03*
X187710125Y-89535000D03*
X187710125Y-90805000D03*
D33*
%TO.N,+3V3*%
X210820000Y-94288250D03*
X189230000Y-137795000D03*
X209550000Y-131602500D03*
X193015000Y-80010000D03*
X191745000Y-80010000D03*
X195580000Y-78740000D03*
X242062000Y-125222000D03*
X200279000Y-105144250D03*
X191931125Y-86931500D03*
X198120000Y-80010000D03*
X216308060Y-111494250D03*
X218967001Y-99450813D03*
X188623000Y-102648395D03*
X188341000Y-111379000D03*
X231140000Y-103505000D03*
X217882030Y-113068220D03*
X255905000Y-141605000D03*
X205105000Y-131602500D03*
X231140000Y-110490000D03*
X189230000Y-146685000D03*
X231140000Y-96520000D03*
X231671500Y-147955000D03*
X191994625Y-89535000D03*
X206985000Y-80010000D03*
X208255000Y-80010000D03*
X194310000Y-80010000D03*
X213360000Y-131602500D03*
X199751389Y-88920927D03*
X196850000Y-80010000D03*
X227330000Y-147955000D03*
X219710000Y-131602500D03*
X188341000Y-97409000D03*
X183642000Y-124460000D03*
X209525000Y-80010000D03*
X191745000Y-78740000D03*
X195580000Y-80010000D03*
X218694000Y-104636250D03*
X231013000Y-117475000D03*
X194310000Y-78740000D03*
X206629000Y-95619250D03*
X222250000Y-151892000D03*
X256286000Y-84709000D03*
X207041750Y-124585750D03*
X193015000Y-78740000D03*
X187833000Y-124985000D03*
X211158000Y-87503000D03*
X187071000Y-106807000D03*
X211455000Y-124585750D03*
X232410000Y-128397000D03*
X203200000Y-131602500D03*
X231140000Y-152908000D03*
X211285000Y-83015000D03*
%TO.N,+2V5*%
X210820000Y-97663000D03*
X203200000Y-78740000D03*
X203200000Y-80010000D03*
X201930000Y-80010000D03*
X201930000Y-78740000D03*
X200660000Y-78740000D03*
X204470000Y-78740000D03*
X215392000Y-97663000D03*
X204470000Y-80010000D03*
X200660000Y-80010000D03*
%TO.N,Net-(U1E-GNDPLL1)*%
X215011000Y-94349250D03*
%TO.N,Net-(U1E-VCCPLL1)*%
X210947000Y-95631000D03*
%TO.N,+1V2*%
X213970000Y-78740000D03*
X211430000Y-78740000D03*
X212700000Y-78740000D03*
X213995000Y-96889250D03*
X212700000Y-80010000D03*
X215240000Y-78740000D03*
X215240000Y-80010000D03*
X200123485Y-107593500D03*
X213970000Y-80010000D03*
X213233000Y-101346000D03*
X204851000Y-106934000D03*
X213106000Y-103239250D03*
X211430000Y-80010000D03*
%TO.N,Net-(U1E-VCCPLL0)*%
X209677000Y-112649000D03*
%TO.N,Net-(U1E-GNDPLL0)*%
X206121000Y-112903000D03*
D35*
%TO.N,Net-(C38-Pad1)*%
X186249625Y-92710000D03*
%TO.N,Net-(C39-Pad1)*%
X183106375Y-91408250D03*
%TO.N,Net-(D1-K)*%
X195644625Y-83185000D03*
%TO.N,Net-(D3-K)*%
X195774625Y-86995000D03*
%TO.N,LEDRED*%
X242443000Y-87598250D03*
X206436203Y-91369794D03*
%TO.N,LEDGREEN*%
X241666916Y-87598250D03*
X207760250Y-91440000D03*
%TO.N,LEDBLUE*%
X210300000Y-91948000D03*
X243943500Y-88392000D03*
%TO.N,/FPGA Power and Config/CDONE*%
X209099749Y-118179423D03*
X233807000Y-124682250D03*
X234823000Y-129540000D03*
%TO.N,/FPGA Power and Config/~{CRESET_B}*%
X209099750Y-118942744D03*
%TO.N,/FPGA Power and Config/ICE_SS*%
X210179667Y-121037655D03*
%TO.N,/FPGA Power and Config/ICE_MISO*%
X209107014Y-119641209D03*
%TO.N,/FPGA Power and Config/ICE_MOSI*%
X209099750Y-120411796D03*
%TO.N,/FPGA Power and Config/FLASH_MOSI*%
X240030000Y-146050000D03*
%TO.N,/FPGA Power and Config/ICE_SCK*%
X209423000Y-121031000D03*
%TO.N,EXPCBSEL1*%
X213233000Y-116427250D03*
%TO.N,EXPCBSEL0*%
X213824500Y-116046250D03*
%TO.N,USER5*%
X204597000Y-84518497D03*
%TO.N,USER7*%
X204846422Y-87393452D03*
%TO.N,USER0*%
X204597000Y-82296000D03*
%TO.N,USER4*%
X204597000Y-83058000D03*
%TO.N,USER6*%
X204596339Y-85978339D03*
%TO.N,USER3*%
X204597000Y-86741000D03*
%TO.N,USER1*%
X204597000Y-83819994D03*
%TO.N,USER2*%
X204597000Y-85217000D03*
%TO.N,SDCARDCS*%
X187936000Y-122785000D03*
%TO.N,SDCARDDET*%
X187833000Y-130302000D03*
%TO.N,I2CSCL*%
X194945000Y-105413250D03*
%TO.N,I2CSDA*%
X193675000Y-105029000D03*
%TO.N,BUTTON1*%
X233045000Y-101505000D03*
X222504000Y-102743000D03*
%TO.N,BUTTON2*%
X206756000Y-116586000D03*
X233045000Y-108490000D03*
%TO.N,/Misc/RXLED*%
X196409625Y-85090000D03*
%TO.N,/Misc/TXLED*%
X192278000Y-92456000D03*
%TO.N,PS2BCLK*%
X186055000Y-101600000D03*
%TO.N,PS2BDATA*%
X186305837Y-97663000D03*
%TO.N,BUTTON0*%
X222489254Y-101974954D03*
X233045000Y-94425000D03*
%TO.N,PS2ADATA*%
X186372500Y-114617500D03*
%TO.N,PS2ACLK*%
X187960000Y-107950000D03*
%TO.N,BUZZER*%
X204597000Y-81280000D03*
%TO.N,/Misc/VBUS*%
X180915625Y-89027000D03*
X180915625Y-87503000D03*
X180915625Y-93853000D03*
X180915625Y-95377000D03*
X180915625Y-88265000D03*
X180915625Y-94615000D03*
%TO.N,BUTTON3*%
X207280753Y-116094753D03*
X233045000Y-115475000D03*
%TO.N,Net-(D4-K)*%
X255905000Y-146685000D03*
%TD*%
D36*
%TO.N,GND*%
X182759625Y-93665000D02*
X183074625Y-93980000D01*
X221930000Y-126842500D02*
X223520000Y-125252500D01*
X213187700Y-111894300D02*
X213168650Y-111875250D01*
X211390250Y-132334000D02*
X207010000Y-132334000D01*
X180533000Y-124587000D02*
X180660000Y-124460000D01*
X221930000Y-128427500D02*
X221930000Y-126842500D01*
X211328000Y-101346000D02*
X211328000Y-100125250D01*
X211328000Y-100125250D02*
X211267000Y-100064250D01*
X213187700Y-111309116D02*
X214079566Y-110417250D01*
X217805000Y-103759000D02*
X217805000Y-105918000D01*
X217805000Y-103759000D02*
X218743250Y-103759000D01*
X211390250Y-132334000D02*
X211390250Y-131537750D01*
X213168650Y-111875250D02*
X212283000Y-111875250D01*
X219964000Y-110417250D02*
X217805000Y-110417250D01*
X254635000Y-141962500D02*
X255905000Y-143232500D01*
X209550000Y-125252500D02*
X207325000Y-127477500D01*
X207838000Y-87503000D02*
X206631390Y-87503000D01*
X217805000Y-103759000D02*
X217805000Y-102538250D01*
X211390250Y-131537750D02*
X208280000Y-128427500D01*
X190981125Y-88072000D02*
X190788125Y-88265000D01*
X179451000Y-124587000D02*
X180533000Y-124587000D01*
X206695000Y-94603250D02*
X207965000Y-93333250D01*
X205994000Y-94603250D02*
X206695000Y-94603250D01*
X205994000Y-94603250D02*
X207076000Y-94603250D01*
X207076000Y-94603250D02*
X207965000Y-95492250D01*
X207772000Y-106922250D02*
X208776250Y-106922250D01*
X200152000Y-97651250D02*
X200152000Y-100892250D01*
X220726000Y-132334000D02*
X221930000Y-131130000D01*
X227330000Y-150810000D02*
X227330000Y-151765000D01*
X189230000Y-154305000D02*
X189230000Y-150810000D01*
X221930000Y-131130000D02*
X221930000Y-128427500D01*
X190788125Y-88265000D02*
X193032625Y-88265000D01*
X207965000Y-83015000D02*
X206375000Y-83015000D01*
X182759625Y-90485000D02*
X182759625Y-89535000D01*
X213187700Y-111894300D02*
X213187700Y-111309116D01*
X207325000Y-127477500D02*
X207325000Y-128427500D01*
X200152000Y-100892250D02*
X201295000Y-102035250D01*
X188468000Y-141540000D02*
X189295000Y-140713000D01*
X214079566Y-110417250D02*
X217805000Y-110417250D01*
X207838000Y-97524250D02*
X206629000Y-97524250D01*
X189295000Y-140713000D02*
X189295000Y-140650000D01*
X218743250Y-103759000D02*
X219964000Y-102538250D01*
X190915125Y-88392000D02*
X190915125Y-91122500D01*
X208776250Y-106922250D02*
X208788000Y-106934000D01*
X212283000Y-114034250D02*
X212283000Y-111875250D01*
X199136000Y-102035250D02*
X200152000Y-101019250D01*
X182439625Y-90805000D02*
X182759625Y-90485000D01*
X189230000Y-139745300D02*
X189230000Y-140650000D01*
X208280000Y-128427500D02*
X207325000Y-128427500D01*
X211390250Y-132334000D02*
X220726000Y-132334000D01*
X254635000Y-138430000D02*
X254635000Y-141962500D01*
X200914000Y-96889250D02*
X200152000Y-97651250D01*
X182759625Y-92710000D02*
X182759625Y-93665000D01*
X206631390Y-87503000D02*
X206560516Y-87432126D01*
X215519000Y-101268250D02*
X215519000Y-102477250D01*
X200152000Y-101019250D02*
X200152000Y-100892250D01*
X190788125Y-88265000D02*
X190915125Y-88392000D01*
X251079000Y-80264000D02*
X249729000Y-80264000D01*
X207965000Y-87630000D02*
X207838000Y-87503000D01*
X190981125Y-85915500D02*
X190981125Y-88072000D01*
D37*
%TO.N,+5V*%
X193548000Y-131318000D02*
X193548000Y-117348000D01*
X192047500Y-102870000D02*
X192047500Y-99060000D01*
X201993500Y-89598500D02*
X197072250Y-94519750D01*
X252095000Y-145415000D02*
X243078000Y-154432000D01*
X252095000Y-138430000D02*
X252095000Y-145415000D01*
X188849000Y-94519750D02*
X188055250Y-94519750D01*
X186380750Y-95504000D02*
X187710125Y-94174625D01*
X243078000Y-154432000D02*
X216662000Y-154432000D01*
X216662000Y-154432000D02*
X193548000Y-131318000D01*
X180308250Y-102651750D02*
X180308250Y-98297522D01*
X180308250Y-98297522D02*
X183101772Y-95504000D01*
X192047500Y-109220000D02*
X192024000Y-109196500D01*
X225488500Y-89598500D02*
X201993500Y-89598500D01*
X197072250Y-94519750D02*
X188849000Y-94519750D01*
X192047500Y-97718250D02*
X188849000Y-94519750D01*
X183101772Y-95504000D02*
X186380750Y-95504000D01*
X193548000Y-117348000D02*
X192047500Y-115847500D01*
X187710125Y-94174625D02*
X187710125Y-92075000D01*
X192047500Y-115847500D02*
X192047500Y-113030000D01*
X192024000Y-102893500D02*
X192047500Y-102870000D01*
X252095000Y-90170000D02*
X246634000Y-84709000D01*
X192047500Y-113030000D02*
X192047500Y-109220000D01*
X192024000Y-109196500D02*
X192024000Y-102893500D01*
X230378000Y-84709000D02*
X225488500Y-89598500D01*
X187710125Y-92075000D02*
X187710125Y-89535000D01*
X192047500Y-99060000D02*
X192047500Y-97718250D01*
X187710125Y-89535000D02*
X187710125Y-88265000D01*
X246634000Y-84709000D02*
X230378000Y-84709000D01*
X180180000Y-102780000D02*
X180308250Y-102651750D01*
D36*
%TO.N,+3V3*%
X200279000Y-105144250D02*
X200279000Y-104951250D01*
X232132500Y-110490000D02*
X231140000Y-110490000D01*
X227330000Y-148910000D02*
X227330000Y-147955000D01*
X219964000Y-100638250D02*
X219964000Y-100447812D01*
X220030000Y-131282500D02*
X220030000Y-128427500D01*
X189230000Y-138750000D02*
X189230000Y-137795000D01*
X216308060Y-111494250D02*
X214564000Y-111494250D01*
X184507500Y-125325500D02*
X183642000Y-124460000D01*
X200279000Y-105144250D02*
X200279000Y-105078250D01*
X218125000Y-126522500D02*
X220030000Y-128427500D01*
X205105000Y-131602500D02*
X205425000Y-131282500D01*
X210820000Y-94537250D02*
X209865000Y-95492250D01*
X200279000Y-105078250D02*
X199136000Y-103935250D01*
X214564000Y-111494250D02*
X214183000Y-111875250D01*
X208600000Y-131602500D02*
X207805000Y-130807500D01*
X232132500Y-103505000D02*
X231140000Y-103505000D01*
X205425000Y-128427500D02*
X205425000Y-126202500D01*
X231497500Y-129309500D02*
X231497500Y-129540000D01*
X217805000Y-112991190D02*
X217882030Y-113068220D01*
X209865000Y-83015000D02*
X211285000Y-83015000D01*
X211455000Y-124585750D02*
X207041750Y-124585750D01*
X184507500Y-122809000D02*
X184507500Y-123594500D01*
X192815125Y-91122500D02*
X192815125Y-90355500D01*
X209865000Y-93333250D02*
X209865000Y-93648250D01*
X232410000Y-128397000D02*
X231497500Y-129309500D01*
X205425000Y-129377500D02*
X205425000Y-128427500D01*
X207805000Y-130807500D02*
X205425000Y-128427500D01*
X200279000Y-104951250D02*
X201295000Y-103935250D01*
X218633000Y-112317250D02*
X217882030Y-113068220D01*
X209865000Y-87503000D02*
X211158000Y-87503000D01*
X216308060Y-111494250D02*
X214183000Y-113619310D01*
X189230000Y-148910000D02*
X189230000Y-146685000D01*
X242062000Y-125222000D02*
X240815500Y-125222000D01*
X183642000Y-124460000D02*
X182560000Y-124460000D01*
X232132500Y-117475000D02*
X231013000Y-117475000D01*
X232132500Y-96520000D02*
X231140000Y-96520000D01*
X180340000Y-135900000D02*
X184116500Y-135900000D01*
X205425000Y-131282500D02*
X205425000Y-128427500D01*
X176563500Y-135900000D02*
X176530000Y-135866500D01*
X191931125Y-86931500D02*
X191931125Y-86865500D01*
X213391750Y-126522500D02*
X218125000Y-126522500D01*
X214183000Y-113619310D02*
X214183000Y-114034250D01*
X210820000Y-94288250D02*
X209865000Y-93333250D01*
X217805000Y-100612814D02*
X218967001Y-99450813D01*
X219964000Y-112317250D02*
X218633000Y-112317250D01*
X191931125Y-86865500D02*
X192881125Y-85915500D01*
X217805000Y-100638250D02*
X217805000Y-100612814D01*
X184507500Y-123594500D02*
X183642000Y-124460000D01*
X205425000Y-126202500D02*
X207041750Y-124585750D01*
X192815125Y-90355500D02*
X191994625Y-89535000D01*
X210820000Y-94288250D02*
X210820000Y-94537250D01*
X203200000Y-131602500D02*
X205425000Y-129377500D01*
X209550000Y-131602500D02*
X208600000Y-131602500D01*
X217805000Y-112317250D02*
X217805000Y-112991190D01*
X184116500Y-135900000D02*
X184150000Y-135866500D01*
X180340000Y-135900000D02*
X176563500Y-135900000D01*
X211455000Y-124585750D02*
X213391750Y-126522500D01*
X219710000Y-131602500D02*
X220030000Y-131282500D01*
X219964000Y-100447812D02*
X218967001Y-99450813D01*
X184507500Y-130302000D02*
X184507500Y-125325500D01*
%TO.N,+2V5*%
X215392000Y-97663000D02*
X215392000Y-99241250D01*
X215392000Y-99241250D02*
X215519000Y-99368250D01*
X210820000Y-97663000D02*
X210808250Y-97651250D01*
X210808250Y-97651250D02*
X209865000Y-97651250D01*
%TO.N,Net-(U1E-GNDPLL1)*%
X216022000Y-93338250D02*
X216022000Y-93333250D01*
X215011000Y-94349250D02*
X216022000Y-93338250D01*
X215961000Y-95492250D02*
X215961000Y-95299250D01*
X215961000Y-95299250D02*
X215011000Y-94349250D01*
%TO.N,Net-(U1E-VCCPLL1)*%
X210947000Y-95631000D02*
X211269250Y-95631000D01*
X213922250Y-95631000D02*
X214061000Y-95492250D01*
X212090000Y-94810250D02*
X212645000Y-94810250D01*
X212645000Y-94810250D02*
X214122000Y-93333250D01*
X214061000Y-93333250D02*
X214061000Y-95492250D01*
X211269250Y-95631000D02*
X212090000Y-94810250D01*
%TO.N,+1V2*%
X200123485Y-107593500D02*
X200782985Y-106934000D01*
X213167000Y-101280000D02*
X213167000Y-100064250D01*
X213741000Y-96635250D02*
X213995000Y-96889250D01*
X205921250Y-106934000D02*
X205933000Y-106922250D01*
X213233000Y-97778250D02*
X213233000Y-99998250D01*
X212090000Y-96635250D02*
X213233000Y-97778250D01*
X213233000Y-101346000D02*
X213167000Y-101280000D01*
X212090000Y-96635250D02*
X213741000Y-96635250D01*
X204862750Y-106922250D02*
X205933000Y-106922250D01*
X204851000Y-106934000D02*
X204862750Y-106922250D01*
X205933000Y-106922250D02*
X205933000Y-109043750D01*
X213233000Y-99998250D02*
X213167000Y-100064250D01*
X200782985Y-106934000D02*
X205921250Y-106934000D01*
X205933000Y-109043750D02*
X205970500Y-109081250D01*
%TO.N,Net-(U1E-VCCPLL0)*%
X209677000Y-112510250D02*
X209042000Y-111875250D01*
X209677000Y-112649000D02*
X208291750Y-114034250D01*
X207795500Y-110628750D02*
X209042000Y-111875250D01*
X209677000Y-112649000D02*
X209677000Y-112510250D01*
X207795500Y-109081250D02*
X207795500Y-110628750D01*
X206817000Y-111875250D02*
X209042000Y-111875250D01*
X208291750Y-114034250D02*
X206817000Y-114034250D01*
%TO.N,Net-(U1E-GNDPLL0)*%
X206121000Y-112903000D02*
X205944750Y-112903000D01*
X206121000Y-112903000D02*
X206048250Y-112903000D01*
X205944750Y-112903000D02*
X204917000Y-111875250D01*
X206048250Y-112903000D02*
X204917000Y-114034250D01*
D38*
%TO.N,Net-(C38-Pad1)*%
X184659625Y-92710000D02*
X186249625Y-92710000D01*
%TO.N,Net-(C39-Pad1)*%
X183106375Y-91408250D02*
X184659625Y-89855000D01*
X184659625Y-89855000D02*
X184659625Y-89535000D01*
%TO.N,Net-(D1-K)*%
X195774625Y-83185000D02*
X197402125Y-83185000D01*
%TO.N,Net-(D3-K)*%
X197402125Y-86995000D02*
X195774625Y-86995000D01*
%TO.N,LEDRED*%
X241903250Y-87058500D02*
X240950363Y-87058500D01*
X206905747Y-90900250D02*
X206436203Y-91369794D01*
X240950363Y-87058500D02*
X237108613Y-90900250D01*
X237108613Y-90900250D02*
X206905747Y-90900250D01*
X242443000Y-87598250D02*
X241903250Y-87058500D01*
%TO.N,LEDGREEN*%
X207887250Y-91313000D02*
X237234678Y-91313000D01*
X237234678Y-91313000D02*
X240949428Y-87598250D01*
X240949428Y-87598250D02*
X241666916Y-87598250D01*
X207760250Y-91440000D02*
X207887250Y-91313000D01*
%TO.N,LEDBLUE*%
X237392908Y-91695000D02*
X237076449Y-91695001D01*
X237392907Y-91695001D02*
X237392908Y-91695000D01*
X240949908Y-88138000D02*
X237616678Y-91471230D01*
X241890902Y-88139000D02*
X241442930Y-88139000D01*
X237616678Y-91471230D02*
X237392907Y-91695001D01*
X241441930Y-88138000D02*
X240949908Y-88138000D01*
X237076449Y-91695001D02*
X237076448Y-91695000D01*
X237076448Y-91695000D02*
X210553000Y-91695000D01*
X241891902Y-88138000D02*
X241890902Y-88139000D01*
X243689500Y-88138000D02*
X241891902Y-88138000D01*
X210553000Y-91695000D02*
X210300000Y-91948000D01*
X241442930Y-88139000D02*
X241441930Y-88138000D01*
X243943500Y-88392000D02*
X243689500Y-88138000D01*
%TO.N,/FPGA Power and Config/CDONE*%
X225298000Y-118110000D02*
X210312000Y-118110000D01*
X210312000Y-118110000D02*
X210242577Y-118179423D01*
X231870250Y-124682250D02*
X225298000Y-118110000D01*
X210242577Y-118179423D02*
X209099749Y-118179423D01*
X233807000Y-124682250D02*
X231870250Y-124682250D01*
X234823000Y-129540000D02*
X233322500Y-129540000D01*
%TO.N,/FPGA Power and Config/~{CRESET_B}*%
X238990500Y-125222000D02*
X240641500Y-126873000D01*
X245364000Y-129540000D02*
X245364000Y-140716000D01*
X210473552Y-118491000D02*
X225107500Y-118491000D01*
X209099750Y-118942744D02*
X210021808Y-118942744D01*
X210021808Y-118942744D02*
X210473552Y-118491000D01*
X245364000Y-140716000D02*
X243840000Y-142240000D01*
X240641500Y-126873000D02*
X242697000Y-126873000D01*
X225107500Y-118491000D02*
X231838500Y-125222000D01*
X231838500Y-125222000D02*
X238990500Y-125222000D01*
X242697000Y-126873000D02*
X245364000Y-129540000D01*
%TO.N,/FPGA Power and Config/ICE_SS*%
X233777185Y-147702001D02*
X234665184Y-148590000D01*
X211201322Y-120016000D02*
X224156000Y-120016000D01*
X234665184Y-148590000D02*
X242570000Y-148590000D01*
X225931999Y-139541771D02*
X225932000Y-139858230D01*
X210179667Y-121037655D02*
X211201322Y-120016000D01*
X225931999Y-134842771D02*
X225931999Y-135159229D01*
X242570000Y-148590000D02*
X243840000Y-147320000D01*
X233775771Y-147702001D02*
X233775770Y-147702000D01*
X228474250Y-124334250D02*
X228474250Y-132300520D01*
X225931999Y-135159229D02*
X225932000Y-135159230D01*
X224156000Y-120016000D02*
X228474250Y-124334250D01*
X228474250Y-132300520D02*
X225931999Y-134842771D01*
X225931999Y-139858229D02*
X233775771Y-147702001D01*
X225932000Y-139541770D02*
X225931999Y-139541771D01*
X225932000Y-139858230D02*
X225931999Y-139858229D01*
X225932000Y-135159230D02*
X225932000Y-139541770D01*
X233775770Y-147702000D02*
X233777185Y-147702001D01*
%TO.N,/FPGA Power and Config/ICE_MISO*%
X209862159Y-119641209D02*
X210631368Y-118872000D01*
X229618250Y-133860250D02*
X231140000Y-135382000D01*
X209107014Y-119641209D02*
X209862159Y-119641209D01*
X210631368Y-118872000D02*
X224917000Y-118872000D01*
X229618250Y-123573250D02*
X229618250Y-133860250D01*
X231140000Y-135382000D02*
X231140000Y-137160000D01*
X224917000Y-118872000D02*
X229618250Y-123573250D01*
%TO.N,/FPGA Power and Config/ICE_MOSI*%
X229870000Y-138430000D02*
X228600000Y-139700000D01*
X209099750Y-120411796D02*
X209394641Y-120116905D01*
X224663000Y-119253000D02*
X229237250Y-123827250D01*
X229237250Y-135252750D02*
X229235000Y-135255000D01*
X210789184Y-119253000D02*
X224663000Y-119253000D01*
X209925279Y-120116905D02*
X210789184Y-119253000D01*
X209394641Y-120116905D02*
X209925279Y-120116905D01*
X229235000Y-135255000D02*
X229870000Y-135890000D01*
X229237250Y-123827250D02*
X229237250Y-135252750D01*
X229870000Y-135890000D02*
X229870000Y-138430000D01*
%TO.N,/FPGA Power and Config/FLASH_MOSI*%
X240030000Y-146050000D02*
X240030000Y-143510000D01*
X240030000Y-143510000D02*
X241300000Y-142240000D01*
%TO.N,/FPGA Power and Config/ICE_SCK*%
X228856251Y-132458749D02*
X228856250Y-132458750D01*
X228856251Y-124081251D02*
X228856251Y-124176021D01*
X233935415Y-147320000D02*
X241300000Y-147320000D01*
X228856251Y-124176021D02*
X228856250Y-124176020D01*
X224409000Y-119634000D02*
X228856251Y-124081251D01*
X211359550Y-119634000D02*
X211359551Y-119633999D01*
X228856250Y-132458750D02*
X228632480Y-132682520D01*
X228856251Y-132142291D02*
X228856251Y-132458749D01*
X228856250Y-132142290D02*
X228856251Y-132142291D01*
X209638917Y-120815083D02*
X209638917Y-120813669D01*
X228856251Y-124176021D02*
X228856251Y-124492479D01*
X223997771Y-119633999D02*
X223997770Y-119634000D01*
X211359551Y-119633999D02*
X223774000Y-119634000D01*
X228632480Y-132682520D02*
X226314000Y-135001000D01*
X233934000Y-147320000D02*
X233935415Y-147320000D01*
X209638917Y-120813669D02*
X209955681Y-120496905D01*
X210947000Y-119634000D02*
X211359550Y-119634000D01*
X226314000Y-139383540D02*
X226314000Y-139700000D01*
X228856250Y-124492480D02*
X228856250Y-124716250D01*
X210084095Y-120496905D02*
X210947000Y-119634000D01*
X228856250Y-124716250D02*
X228856250Y-132142290D01*
X209955681Y-120496905D02*
X210084095Y-120496905D01*
X228856251Y-124492479D02*
X228856250Y-124492480D01*
X226314000Y-139700000D02*
X233934000Y-147320000D01*
X223997770Y-119634000D02*
X224409000Y-119634000D01*
X209423000Y-121031000D02*
X209638917Y-120815083D01*
X223774000Y-119634000D02*
X223997771Y-119633999D01*
X226314000Y-135001000D02*
X226314000Y-139383540D01*
%TO.N,EXPCBSEL1*%
X231648428Y-116108250D02*
X230474749Y-116108250D01*
X250571000Y-132080000D02*
X246507000Y-128016000D01*
X254635000Y-130810000D02*
X253365000Y-132080000D01*
X239775999Y-114427000D02*
X233329678Y-114427000D01*
X246507000Y-121158001D02*
X239775999Y-114427000D01*
X230474749Y-116108250D02*
X229996999Y-116586000D01*
X213391750Y-116586000D02*
X213233000Y-116427250D01*
X246507000Y-128016000D02*
X246507000Y-121158001D01*
X233329678Y-114427000D02*
X231648428Y-116108250D01*
X229996999Y-116586000D02*
X213391750Y-116586000D01*
X253365000Y-132080000D02*
X250571000Y-132080000D01*
%TO.N,EXPCBSEL0*%
X232947678Y-114268770D02*
X233171449Y-114044999D01*
X246665230Y-120776001D02*
X246889000Y-120999771D01*
X250380500Y-129540000D02*
X253365000Y-129540000D01*
X246889001Y-121316230D02*
X246889000Y-121316231D01*
X213824500Y-116046250D02*
X213982250Y-116204000D01*
X246889001Y-120999772D02*
X246889001Y-121316230D01*
X246889000Y-126048500D02*
X250380500Y-129540000D01*
X230316519Y-115726250D02*
X230632978Y-115726249D01*
X239617770Y-114044999D02*
X239617769Y-114045000D01*
X253365000Y-129540000D02*
X254635000Y-128270000D01*
X230632978Y-115726249D02*
X230632979Y-115726250D01*
X246889000Y-121316231D02*
X246889000Y-126048500D01*
X233487908Y-114045000D02*
X239617770Y-114044999D01*
X229838769Y-116204000D02*
X230092749Y-115950020D01*
X230092749Y-115950020D02*
X230316520Y-115726249D01*
X230316520Y-115726249D02*
X230316519Y-115726250D01*
X233171449Y-114044999D02*
X233171448Y-114045000D01*
X239617769Y-114045000D02*
X239934229Y-114045000D01*
X239934229Y-114045000D02*
X239934228Y-114044999D01*
X240157999Y-114268770D02*
X246665230Y-120776001D01*
X239934228Y-114044999D02*
X240157999Y-114268770D01*
X233487907Y-114044999D02*
X233487908Y-114045000D01*
X233171448Y-114045000D02*
X233487907Y-114044999D01*
X230632979Y-115726250D02*
X231490198Y-115726250D01*
X231490198Y-115726250D02*
X232947678Y-114268770D01*
X246889000Y-120999771D02*
X246889001Y-120999772D01*
X213982250Y-116204000D02*
X229838769Y-116204000D01*
%TO.N,USER5*%
X205097607Y-84543791D02*
X205516816Y-84963000D01*
X204622294Y-84543791D02*
X205097607Y-84543791D01*
X216662000Y-84963000D02*
X220980000Y-80645000D01*
X205516816Y-84963000D02*
X216662000Y-84963000D01*
X220980000Y-80645000D02*
X220980000Y-80555000D01*
X204597000Y-84518497D02*
X204622294Y-84543791D01*
%TO.N,USER7*%
X205752874Y-86487000D02*
X220128000Y-86487000D01*
X220128000Y-86487000D02*
X226060000Y-80555000D01*
X204846422Y-87393452D02*
X205752874Y-86487000D01*
%TO.N,USER0*%
X204597000Y-82296000D02*
X205613000Y-81280000D01*
X205613000Y-81280000D02*
X215803816Y-81280000D01*
X215803816Y-81280000D02*
X218440000Y-78643816D01*
X218440000Y-78643816D02*
X218440000Y-78015000D01*
%TO.N,USER4*%
X214794000Y-84201000D02*
X218440000Y-80555000D01*
X205564875Y-83058000D02*
X206707875Y-84201000D01*
X206707875Y-84201000D02*
X214794000Y-84201000D01*
X204597000Y-83058000D02*
X205564875Y-83058000D01*
%TO.N,USER6*%
X218440000Y-85725000D02*
X223520000Y-80645000D01*
X204596339Y-85978339D02*
X204849678Y-85725000D01*
X204849678Y-85725000D02*
X218440000Y-85725000D01*
X223520000Y-80645000D02*
X223520000Y-80555000D01*
%TO.N,USER3*%
X224745194Y-79329806D02*
X226060000Y-78015000D01*
X204597000Y-86741000D02*
X205232000Y-86106000D01*
X205232000Y-86106000D02*
X219919194Y-86106000D01*
X219919194Y-86106000D02*
X224745194Y-81280000D01*
X224745194Y-81280000D02*
X224745194Y-79329806D01*
%TO.N,USER1*%
X205674632Y-84582000D02*
X216408000Y-84582000D01*
X204597000Y-83819994D02*
X204912626Y-83819994D01*
X204912626Y-83819994D02*
X205674632Y-84582000D01*
X216408000Y-84582000D02*
X219710000Y-81280000D01*
X219710000Y-79285000D02*
X220980000Y-78015000D01*
X219710000Y-81280000D02*
X219710000Y-79285000D01*
%TO.N,USER2*%
X218186000Y-85344000D02*
X222250000Y-81280000D01*
X205359000Y-85344000D02*
X218186000Y-85344000D01*
X222250000Y-79285000D02*
X223520000Y-78015000D01*
X222250000Y-81280000D02*
X222250000Y-79285000D01*
X205232000Y-85217000D02*
X205359000Y-85344000D01*
X204597000Y-85217000D02*
X205232000Y-85217000D01*
%TO.N,SDCARDCS*%
X186332500Y-122809000D02*
X187912000Y-122809000D01*
X187912000Y-122809000D02*
X187936000Y-122785000D01*
%TO.N,SDCARDDET*%
X186332500Y-130302000D02*
X187833000Y-130302000D01*
%TO.N,I2CSCL*%
X194945000Y-106360184D02*
X194945000Y-105413250D01*
X240568815Y-118491000D02*
X230947632Y-118491000D01*
X198536000Y-109951184D02*
X194945000Y-106360184D01*
X254635000Y-133350000D02*
X253365000Y-134620000D01*
X250444000Y-134620000D02*
X246126000Y-130302000D01*
X230947632Y-118491000D02*
X229804632Y-117348000D01*
X246126000Y-130302000D02*
X246126000Y-124048185D01*
X198536000Y-111764184D02*
X198536000Y-109951184D01*
X177051500Y-137691500D02*
X180340000Y-140980000D01*
X210091209Y-117348000D02*
X209964209Y-117221000D01*
X229804632Y-117348000D02*
X210091209Y-117348000D01*
X246126000Y-124048185D02*
X240568815Y-118491000D01*
X253365000Y-134620000D02*
X250444000Y-134620000D01*
X209964209Y-117221000D02*
X203992816Y-117221000D01*
X203992816Y-117221000D02*
X198536000Y-111764184D01*
X176530000Y-137691500D02*
X177051500Y-137691500D01*
%TO.N,I2CSDA*%
X240411000Y-118872000D02*
X245745000Y-124206000D01*
X250641750Y-137103750D02*
X253421250Y-137103750D01*
X229646816Y-117729000D02*
X230789816Y-118872000D01*
X193675000Y-107442000D02*
X203835000Y-117602000D01*
X245745000Y-124206000D02*
X245745000Y-132207000D01*
X180707500Y-138072500D02*
X180340000Y-138440000D01*
X203835000Y-117602000D02*
X209806394Y-117602000D01*
X245745000Y-132207000D02*
X250641750Y-137103750D01*
X230789816Y-118872000D02*
X240411000Y-118872000D01*
X183769000Y-138072500D02*
X180707500Y-138072500D01*
X209933394Y-117729000D02*
X229646816Y-117729000D01*
X193675000Y-105029000D02*
X193675000Y-107442000D01*
X184150000Y-137691500D02*
X183769000Y-138072500D01*
X253421250Y-137103750D02*
X254635000Y-135890000D01*
X209806394Y-117602000D02*
X209933394Y-117729000D01*
%TO.N,Net-(J11-Pad2)*%
X182325000Y-99060000D02*
X181610000Y-99775000D01*
X189945000Y-102870000D02*
X189945000Y-103679000D01*
X189945000Y-103679000D02*
X189103000Y-104521000D01*
X181610000Y-99775000D02*
X181610000Y-103450000D01*
X189103000Y-104521000D02*
X180539000Y-104521000D01*
X181610000Y-103450000D02*
X180180000Y-104880000D01*
X180539000Y-104521000D02*
X180180000Y-104880000D01*
%TO.N,Net-(J11-Pad1)*%
X180180000Y-107480000D02*
X181610000Y-108910000D01*
X181615000Y-106045000D02*
X180180000Y-107480000D01*
X190222500Y-109220000D02*
X190222500Y-106910500D01*
X190222500Y-106910500D02*
X189357000Y-106045000D01*
X181610000Y-112315000D02*
X182325000Y-113030000D01*
X181610000Y-108910000D02*
X181610000Y-112315000D01*
X189357000Y-106045000D02*
X181615000Y-106045000D01*
%TO.N,Net-(J11-Pad6)*%
X182980000Y-102780000D02*
X186700000Y-99060000D01*
X186700000Y-99060000D02*
X190222500Y-99060000D01*
X183070000Y-102870000D02*
X182980000Y-102780000D01*
X185777500Y-102870000D02*
X183070000Y-102870000D01*
%TO.N,Net-(J11-Pad5)*%
X190095500Y-112903000D02*
X186303000Y-112903000D01*
X190222500Y-113030000D02*
X190095500Y-112903000D01*
X185438500Y-109601000D02*
X185777500Y-109601000D01*
X185417500Y-109580000D02*
X185438500Y-109601000D01*
X182980000Y-109580000D02*
X185417500Y-109580000D01*
X186303000Y-112903000D02*
X182980000Y-109580000D01*
%TO.N,BUTTON1*%
X223742000Y-101505000D02*
X233045000Y-101505000D01*
X222504000Y-102743000D02*
X223742000Y-101505000D01*
X233957500Y-102417500D02*
X233045000Y-101505000D01*
X233957500Y-103505000D02*
X233957500Y-102417500D01*
%TO.N,BUTTON2*%
X233934000Y-110490000D02*
X233957500Y-110490000D01*
X228981000Y-115443000D02*
X233934000Y-110490000D01*
X233957500Y-109402500D02*
X233045000Y-108490000D01*
X233957500Y-110490000D02*
X233957500Y-109402500D01*
X206756000Y-116586000D02*
X206216250Y-116046250D01*
X206468928Y-115443000D02*
X228981000Y-115443000D01*
X206216250Y-115695678D02*
X206468928Y-115443000D01*
X206216250Y-116046250D02*
X206216250Y-115695678D01*
%TO.N,/Misc/RXLED*%
X197322125Y-85090000D02*
X196409625Y-85090000D01*
X199227125Y-83185000D02*
X197322125Y-85090000D01*
%TO.N,/Misc/TXLED*%
X192278000Y-92456000D02*
X195393625Y-92456000D01*
X195393625Y-92456000D02*
X199227125Y-88622500D01*
X199227125Y-88622500D02*
X199227125Y-86995000D01*
%TO.N,PS2BCLK*%
X186055000Y-101600000D02*
X186332500Y-101600000D01*
X186332500Y-101600000D02*
X187602500Y-102870000D01*
%TO.N,PS2BDATA*%
X185547000Y-97663000D02*
X184150000Y-99060000D01*
X186305837Y-97663000D02*
X185547000Y-97663000D01*
%TO.N,BUTTON0*%
X229933000Y-94425000D02*
X233045000Y-94425000D01*
X222489254Y-101868746D02*
X229933000Y-94425000D01*
X222489254Y-101974954D02*
X222489254Y-101868746D01*
X233957500Y-96520000D02*
X233957500Y-95337500D01*
X233957500Y-95337500D02*
X233045000Y-94425000D01*
%TO.N,PS2ADATA*%
X184785000Y-113030000D02*
X184150000Y-113030000D01*
X186372500Y-114617500D02*
X184785000Y-113030000D01*
%TO.N,PS2ACLK*%
X187602500Y-109497500D02*
X187602500Y-109601000D01*
X187602500Y-109601000D02*
X187602500Y-108307500D01*
X187602500Y-108307500D02*
X187960000Y-107950000D01*
%TO.N,BUZZER*%
X204978000Y-80899000D02*
X215646000Y-80899000D01*
X217297000Y-76327000D02*
X233045000Y-76327000D01*
X236982000Y-80264000D02*
X237510000Y-80264000D01*
X215646000Y-80899000D02*
X216408000Y-80137000D01*
X233045000Y-76327000D02*
X236982000Y-80264000D01*
X216408000Y-77216000D02*
X217297000Y-76327000D01*
X204597000Y-81280000D02*
X204978000Y-80899000D01*
X216408000Y-80137000D02*
X216408000Y-77216000D01*
%TO.N,BUTTON3*%
X208026000Y-116840000D02*
X210122024Y-116840000D01*
X230154815Y-116967000D02*
X230632565Y-116489250D01*
X210122024Y-116840000D02*
X210249026Y-116967000D01*
X210249026Y-116967000D02*
X230154815Y-116967000D01*
X232030750Y-116489250D02*
X233045000Y-115475000D01*
X207280753Y-116094753D02*
X208026000Y-116840000D01*
X233957500Y-117475000D02*
X233957500Y-116387500D01*
X230632565Y-116489250D02*
X232030750Y-116489250D01*
X233957500Y-116387500D02*
X233045000Y-115475000D01*
%TO.N,Net-(D4-K)*%
X255905000Y-145415000D02*
X255905000Y-146685000D01*
%TO.N,Net-(R36-Pad1)*%
X247904000Y-80264000D02*
X245110000Y-80264000D01*
%TD*%
%TA.AperFunction,Conductor*%
%TO.N,+5V*%
G36*
X189173039Y-77743685D02*
G01*
X189218794Y-77796489D01*
X189230000Y-77848000D01*
X189230000Y-91316000D01*
X189210315Y-91383039D01*
X189157511Y-91428794D01*
X189106000Y-91440000D01*
X186306000Y-91440000D01*
X186238961Y-91420315D01*
X186193206Y-91367511D01*
X186182000Y-91316000D01*
X186182000Y-85852000D01*
X184573000Y-85852000D01*
X184505961Y-85832315D01*
X184460206Y-85779511D01*
X184449000Y-85728000D01*
X184449000Y-85656154D01*
X184448999Y-85656150D01*
X184422139Y-85521115D01*
X184422138Y-85521109D01*
X184413439Y-85500107D01*
X184404000Y-85452654D01*
X184404000Y-77848000D01*
X184423685Y-77780961D01*
X184476489Y-77735206D01*
X184528000Y-77724000D01*
X189106000Y-77724000D01*
X189173039Y-77743685D01*
G37*
%TD.AperFunction*%
%TD*%
%TA.AperFunction,Conductor*%
%TO.N,GND*%
G36*
X189840000Y-73914000D02*
G01*
X184274000Y-73914000D01*
X184206961Y-73894315D01*
X184161206Y-73841511D01*
X184150000Y-73790000D01*
X184150000Y-72514000D01*
X184169685Y-72446961D01*
X184222489Y-72401206D01*
X184274000Y-72390000D01*
X189840000Y-72390000D01*
X189840000Y-73914000D01*
G37*
%TD.AperFunction*%
%TD*%
%TA.AperFunction,Conductor*%
%TO.N,+2V5*%
G36*
X205048039Y-76854685D02*
G01*
X205093794Y-76907489D01*
X205105000Y-76959000D01*
X205105000Y-80488750D01*
X205095931Y-80519634D01*
X205088288Y-80550922D01*
X205086146Y-80552957D01*
X205085315Y-80555789D01*
X205060993Y-80576863D01*
X205037643Y-80599057D01*
X205033889Y-80600349D01*
X205032511Y-80601544D01*
X205026831Y-80602779D01*
X205004272Y-80610547D01*
X204992742Y-80612750D01*
X204940314Y-80612750D01*
X204867511Y-80632258D01*
X204856067Y-80638864D01*
X204835488Y-80642797D01*
X204812216Y-80645000D01*
X200149000Y-80645000D01*
X200081961Y-80625315D01*
X200036206Y-80572511D01*
X200025000Y-80521000D01*
X200025000Y-76959000D01*
X200044685Y-76891961D01*
X200097489Y-76846206D01*
X200149000Y-76835000D01*
X204981000Y-76835000D01*
X205048039Y-76854685D01*
G37*
%TD.AperFunction*%
%TD*%
%TA.AperFunction,Conductor*%
%TO.N,+3V3*%
G36*
X198698039Y-76854685D02*
G01*
X198743794Y-76907489D01*
X198755000Y-76959000D01*
X198755000Y-80521000D01*
X198735315Y-80588039D01*
X198682511Y-80633794D01*
X198631000Y-80645000D01*
X189989000Y-80645000D01*
X189921961Y-80625315D01*
X189876206Y-80572511D01*
X189865000Y-80521000D01*
X189865000Y-76959000D01*
X189884685Y-76891961D01*
X189937489Y-76846206D01*
X189989000Y-76835000D01*
X198631000Y-76835000D01*
X198698039Y-76854685D01*
G37*
%TD.AperFunction*%
%TD*%
%TA.AperFunction,Conductor*%
%TO.N,GND*%
G36*
X216453039Y-72409685D02*
G01*
X216498794Y-72462489D01*
X216510000Y-72514000D01*
X216510000Y-75441000D01*
X216490315Y-75508039D01*
X216437511Y-75553794D01*
X216386000Y-75565000D01*
X189964000Y-75565000D01*
X189896961Y-75545315D01*
X189851206Y-75492511D01*
X189840000Y-75441000D01*
X189840000Y-73914000D01*
X189840000Y-72390000D01*
X216386000Y-72390000D01*
X216453039Y-72409685D01*
G37*
%TD.AperFunction*%
%TD*%
%TA.AperFunction,Conductor*%
%TO.N,+1V2*%
G36*
X215843039Y-76854685D02*
G01*
X215888794Y-76907489D01*
X215900000Y-76959000D01*
X215900000Y-80188819D01*
X215880315Y-80255858D01*
X215863681Y-80276500D01*
X215563751Y-80576431D01*
X215502428Y-80609916D01*
X215476070Y-80612750D01*
X210944000Y-80612750D01*
X210876961Y-80593065D01*
X210831206Y-80540261D01*
X210820000Y-80488750D01*
X210820000Y-76959000D01*
X210839685Y-76891961D01*
X210892489Y-76846206D01*
X210944000Y-76835000D01*
X215776000Y-76835000D01*
X215843039Y-76854685D01*
G37*
%TD.AperFunction*%
%TD*%
%TA.AperFunction,Conductor*%
%TO.N,+3V3*%
G36*
X210128039Y-76854685D02*
G01*
X210173794Y-76907489D01*
X210185000Y-76959000D01*
X210185000Y-80488750D01*
X210165315Y-80555789D01*
X210112511Y-80601544D01*
X210061000Y-80612750D01*
X206499000Y-80612750D01*
X206431961Y-80593065D01*
X206386206Y-80540261D01*
X206375000Y-80488750D01*
X206375000Y-76959000D01*
X206394685Y-76891961D01*
X206447489Y-76846206D01*
X206499000Y-76835000D01*
X210061000Y-76835000D01*
X210128039Y-76854685D01*
G37*
%TD.AperFunction*%
%TD*%
%TA.AperFunction,Conductor*%
%TO.N,/Misc/VBUS*%
G36*
X181239664Y-87014685D02*
G01*
X181285419Y-87067489D01*
X181296625Y-87119000D01*
X181296625Y-95550829D01*
X181276940Y-95617868D01*
X181260306Y-95638510D01*
X181050136Y-95848681D01*
X180988813Y-95882166D01*
X180962455Y-95885000D01*
X180623125Y-95885000D01*
X180556086Y-95865315D01*
X180510331Y-95812511D01*
X180499125Y-95761000D01*
X180499125Y-95685687D01*
X180499124Y-95685683D01*
X180470131Y-95539927D01*
X180470130Y-95539920D01*
X180413254Y-95402610D01*
X180330684Y-95279034D01*
X180330679Y-95279028D01*
X180225596Y-95173945D01*
X180225589Y-95173939D01*
X180102016Y-95091371D01*
X179964705Y-95034495D01*
X179964697Y-95034493D01*
X179818941Y-95005500D01*
X179818937Y-95005500D01*
X179388625Y-95005500D01*
X179321586Y-94985815D01*
X179275831Y-94933011D01*
X179264625Y-94881500D01*
X179264625Y-94426292D01*
X179270125Y-94405766D01*
X179270125Y-94254234D01*
X179264625Y-94233707D01*
X179264625Y-88662616D01*
X179268850Y-88630523D01*
X179270125Y-88625766D01*
X179270125Y-88474234D01*
X179268849Y-88469471D01*
X179264625Y-88437383D01*
X179264625Y-87998500D01*
X179284310Y-87931461D01*
X179337114Y-87885706D01*
X179388625Y-87874500D01*
X179818938Y-87874500D01*
X179818939Y-87874499D01*
X179964705Y-87845505D01*
X180102015Y-87788629D01*
X180225591Y-87706059D01*
X180330684Y-87600966D01*
X180413254Y-87477390D01*
X180470130Y-87340080D01*
X180499125Y-87194312D01*
X180499125Y-87119000D01*
X180518810Y-87051961D01*
X180571614Y-87006206D01*
X180623125Y-86995000D01*
X181172625Y-86995000D01*
X181239664Y-87014685D01*
G37*
%TD.AperFunction*%
%TD*%
M02*
